%TF.GenerationSoftware,KiCad,Pcbnew,(6.0.8)*%
%TF.CreationDate,2023-03-03T00:40:04+05:30*%
%TF.ProjectId,STM32DryerPCB,53544d33-3244-4727-9965-725043422e6b,rev?*%
%TF.SameCoordinates,Original*%
%TF.FileFunction,Profile,NP*%
%FSLAX46Y46*%
G04 Gerber Fmt 4.6, Leading zero omitted, Abs format (unit mm)*
G04 Created by KiCad (PCBNEW (6.0.8)) date 2023-03-03 00:40:04*
%MOMM*%
%LPD*%
G01*
G04 APERTURE LIST*
%TA.AperFunction,Profile*%
%ADD10C,0.100000*%
%TD*%
G04 APERTURE END LIST*
D10*
X-147650000Y-56350000D02*
X-147650000Y-61250000D01*
X-169750000Y-37650000D02*
G75*
G03*
X-170950000Y-37650000I-600000J0D01*
G01*
X-177350000Y-61250000D02*
X-177350000Y-55450000D01*
X-125350000Y-42350000D02*
X-125350000Y-37650000D01*
X-148450000Y-55450000D02*
X-132750000Y-55450000D01*
X-125350000Y-56350000D02*
X-125350000Y-61250000D01*
X-155850000Y-61250000D02*
G75*
G03*
X-147650000Y-61250000I4100000J0D01*
G01*
X-132750000Y-55450000D02*
X-132750000Y-61250000D01*
X-178050000Y-56350000D02*
X-192050000Y-56350000D01*
X-200450000Y-61250000D02*
G75*
G03*
X-192050000Y-61250000I4200000J0D01*
G01*
X-200450000Y-56350000D02*
X-204150000Y-56350000D01*
X-155050000Y-55450000D02*
X-170550000Y-55450000D01*
X-121550000Y-56350000D02*
X-125350000Y-56350000D01*
X-178150000Y-55450000D02*
X-177350000Y-55450000D01*
X-178050000Y-61250000D02*
X-178050000Y-56350000D01*
X-170950000Y-42350000D02*
G75*
G03*
X-169750000Y-42350000I600000J0D01*
G01*
X-148450000Y-61250000D02*
X-148450000Y-55450000D01*
X-165350000Y-56350000D02*
X-155850000Y-56350000D01*
X-199650000Y-55450000D02*
X-199650000Y-61250000D01*
X-147550000Y-42250000D02*
X-147550000Y-37550000D01*
X-169750000Y-42350000D02*
X-169750000Y-37650000D01*
X-200450000Y-61250000D02*
X-200450000Y-56350000D01*
X-125350000Y-37650000D02*
G75*
G03*
X-126550000Y-37650000I-600000J0D01*
G01*
X-193350000Y-42350000D02*
G75*
G03*
X-192150000Y-42350000I600000J0D01*
G01*
X-169748810Y-61250000D02*
X-169748810Y-56350000D01*
X-170550000Y-55450000D02*
X-170550000Y-61250000D01*
X-133550000Y-56350000D02*
X-147650000Y-56350000D01*
X-133550000Y-61250000D02*
G75*
G03*
X-125350000Y-61250000I4100000J0D01*
G01*
X-199650000Y-61250000D02*
G75*
G03*
X-192850000Y-61250000I3400000J0D01*
G01*
X-155850000Y-56350000D02*
X-155850000Y-61250000D01*
X-126550000Y-37650000D02*
X-126550000Y-42350000D01*
X-192150000Y-37650000D02*
G75*
G03*
X-193350000Y-37650000I-600000J0D01*
G01*
X-132750000Y-61250000D02*
G75*
G03*
X-126150000Y-61250000I3300000J-94609D01*
G01*
X-177350000Y-61250000D02*
G75*
G03*
X-170550000Y-61250000I3400000J0D01*
G01*
X-148750000Y-37550000D02*
X-148750000Y-42250000D01*
X-148750000Y-42250000D02*
G75*
G03*
X-147550000Y-42250000I600000J0D01*
G01*
X-218350000Y-4050000D02*
X-118350000Y-4050000D01*
X-118350000Y-4050000D02*
X-118350000Y-104050000D01*
X-118350000Y-104050000D02*
X-218350000Y-104050000D01*
X-218350000Y-104050000D02*
X-218350000Y-4050000D01*
X-204150000Y-55450000D02*
X-199650000Y-55450000D01*
X-121550000Y-55450000D02*
X-121550000Y-56350000D01*
X-155050000Y-61250000D02*
X-155050000Y-55450000D01*
X-147550000Y-37550000D02*
G75*
G03*
X-148750000Y-37550000I-600000J0D01*
G01*
X-204150000Y-56350000D02*
X-204150000Y-55450000D01*
X-178050000Y-61250000D02*
G75*
G03*
X-169748810Y-61250000I4150595J91265D01*
G01*
X-170950000Y-37650000D02*
X-170950000Y-42350000D01*
X-192050000Y-56350000D02*
X-192050000Y-61250000D01*
X-192850000Y-55450000D02*
X-178150000Y-55450000D01*
X-155050000Y-61250000D02*
G75*
G03*
X-148450000Y-61250000I3300000J-206968D01*
G01*
X-192850000Y-61250000D02*
X-192850000Y-55450000D01*
X-193350000Y-37650000D02*
X-193350000Y-42350000D01*
X-133550000Y-61250000D02*
X-133550000Y-56350000D01*
X-126150000Y-55450000D02*
X-121550000Y-55450000D01*
X-169748810Y-56350000D02*
X-165350000Y-56350000D01*
X-126150000Y-61250000D02*
X-126150000Y-55450000D01*
X-192150000Y-42350000D02*
X-192150000Y-37650000D01*
X-126550000Y-42350000D02*
G75*
G03*
X-125350000Y-42350000I600000J0D01*
G01*
M02*
