%TF.GenerationSoftware,KiCad,Pcbnew,(6.0.8)*%
%TF.CreationDate,2023-03-03T00:40:04+05:30*%
%TF.ProjectId,STM32DryerPCB,53544d33-3244-4727-9965-725043422e6b,rev?*%
%TF.SameCoordinates,Original*%
%TF.FileFunction,Copper,L1,Top*%
%TF.FilePolarity,Positive*%
%FSLAX46Y46*%
G04 Gerber Fmt 4.6, Leading zero omitted, Abs format (unit mm)*
G04 Created by KiCad (PCBNEW (6.0.8)) date 2023-03-03 00:40:04*
%MOMM*%
%LPD*%
G01*
G04 APERTURE LIST*
G04 Aperture macros list*
%AMRoundRect*
0 Rectangle with rounded corners*
0 $1 Rounding radius*
0 $2 $3 $4 $5 $6 $7 $8 $9 X,Y pos of 4 corners*
0 Add a 4 corners polygon primitive as box body*
4,1,4,$2,$3,$4,$5,$6,$7,$8,$9,$2,$3,0*
0 Add four circle primitives for the rounded corners*
1,1,$1+$1,$2,$3*
1,1,$1+$1,$4,$5*
1,1,$1+$1,$6,$7*
1,1,$1+$1,$8,$9*
0 Add four rect primitives between the rounded corners*
20,1,$1+$1,$2,$3,$4,$5,0*
20,1,$1+$1,$4,$5,$6,$7,0*
20,1,$1+$1,$6,$7,$8,$9,0*
20,1,$1+$1,$8,$9,$2,$3,0*%
G04 Aperture macros list end*
%TA.AperFunction,ComponentPad*%
%ADD10RoundRect,0.416667X-1.083333X-1.583333X1.083333X-1.583333X1.083333X1.583333X-1.083333X1.583333X0*%
%TD*%
%TA.AperFunction,ComponentPad*%
%ADD11RoundRect,0.750000X-0.750000X-1.250000X0.750000X-1.250000X0.750000X1.250000X-0.750000X1.250000X0*%
%TD*%
%TA.AperFunction,ComponentPad*%
%ADD12C,2.800000*%
%TD*%
%TA.AperFunction,ComponentPad*%
%ADD13C,2.000000*%
%TD*%
%TA.AperFunction,ComponentPad*%
%ADD14R,2.100000X2.100000*%
%TD*%
%TA.AperFunction,ComponentPad*%
%ADD15C,2.100000*%
%TD*%
%TA.AperFunction,ComponentPad*%
%ADD16R,1.600000X2.400000*%
%TD*%
%TA.AperFunction,ComponentPad*%
%ADD17O,1.600000X2.400000*%
%TD*%
%TA.AperFunction,ComponentPad*%
%ADD18C,6.000000*%
%TD*%
%TA.AperFunction,ComponentPad*%
%ADD19R,2.000000X2.000000*%
%TD*%
%TA.AperFunction,ComponentPad*%
%ADD20C,3.000000*%
%TD*%
%TA.AperFunction,ComponentPad*%
%ADD21C,2.500000*%
%TD*%
%TA.AperFunction,ComponentPad*%
%ADD22R,1.600000X1.600000*%
%TD*%
%TA.AperFunction,ComponentPad*%
%ADD23C,1.600000*%
%TD*%
%TA.AperFunction,ComponentPad*%
%ADD24C,2.200000*%
%TD*%
%TA.AperFunction,ComponentPad*%
%ADD25R,1.700000X1.700000*%
%TD*%
%TA.AperFunction,ComponentPad*%
%ADD26O,1.700000X1.700000*%
%TD*%
%TA.AperFunction,ComponentPad*%
%ADD27RoundRect,1.050000X1.050000X-1.050000X1.050000X1.050000X-1.050000X1.050000X-1.050000X-1.050000X0*%
%TD*%
%TA.AperFunction,ComponentPad*%
%ADD28RoundRect,0.800000X0.800000X-0.800000X0.800000X0.800000X-0.800000X0.800000X-0.800000X-0.800000X0*%
%TD*%
%TA.AperFunction,ComponentPad*%
%ADD29C,4.200000*%
%TD*%
%TA.AperFunction,ComponentPad*%
%ADD30C,3.200000*%
%TD*%
%TA.AperFunction,ViaPad*%
%ADD31C,0.800000*%
%TD*%
%TA.AperFunction,Conductor*%
%ADD32C,1.000000*%
%TD*%
%TA.AperFunction,Conductor*%
%ADD33C,2.000000*%
%TD*%
%TA.AperFunction,Conductor*%
%ADD34C,0.500000*%
%TD*%
G04 APERTURE END LIST*
D10*
%TO.P,J613,1,Pin_1*%
%TO.N,Net-(F601-Pad2)*%
X-181032500Y-9550000D03*
%TO.P,J613,2,Pin_2*%
%TO.N,Neutral*%
X-175952500Y-9550000D03*
D11*
%TO.P,J613,3,Pin_3*%
%TO.N,FAN_LINE*%
X-170872500Y-9550000D03*
%TO.P,J613,4,Pin_4*%
%TO.N,HEATER_LINE*%
X-165792500Y-9550000D03*
%TO.P,J613,5,Pin_5*%
%TO.N,DRUM_RIGHT_LINE*%
X-160712500Y-9550000D03*
%TO.P,J613,6,Pin_6*%
%TO.N,DRUM_LEFT_LINE*%
X-155632500Y-9550000D03*
%TD*%
D12*
%TO.P,C402,1*%
%TO.N,Net-(C402-Pad1)*%
X-198450000Y-33650000D03*
%TO.P,C402,2*%
%TO.N,Neutral*%
X-198450000Y-18650000D03*
%TD*%
D13*
%TO.P,R307,1*%
%TO.N,HEATER_ULNIN*%
X-147350000Y-91150000D03*
%TO.P,R307,2*%
%TO.N,/ULN2003/->HEATER*%
X-147350000Y-80990000D03*
%TD*%
%TO.P,R407,1*%
%TO.N,+5V*%
X-125970000Y-70950000D03*
%TO.P,R407,2*%
%TO.N,Net-(D407-Pad2)*%
X-136130000Y-70950000D03*
%TD*%
D14*
%TO.P,D408,1,K*%
%TO.N,+5V*%
X-123040000Y-66950000D03*
D15*
%TO.P,D408,2,A*%
%TO.N,#DRUM_LEFT*%
X-130660000Y-66950000D03*
%TD*%
D13*
%TO.P,R305,1*%
%TO.N,DLEFT_ULNIN*%
X-140650000Y-91150000D03*
%TO.P,R305,2*%
%TO.N,/ULN2003/->LEFT*%
X-140650000Y-80990000D03*
%TD*%
D16*
%TO.P,U1,1,I1*%
%TO.N,/ULN2003/->FAN*%
X-182450000Y-92250000D03*
D17*
%TO.P,U1,2,I2*%
%TO.N,/ULN2003/->HEATER*%
X-179910000Y-92250000D03*
%TO.P,U1,3,I3*%
%TO.N,/ULN2003/->RIGHT*%
X-177370000Y-92250000D03*
%TO.P,U1,4,I4*%
%TO.N,/ULN2003/->LEFT*%
X-174830000Y-92250000D03*
%TO.P,U1,5,I5*%
%TO.N,unconnected-(U1-Pad5)*%
X-172290000Y-92250000D03*
%TO.P,U1,6,I6*%
%TO.N,unconnected-(U1-Pad6)*%
X-169750000Y-92250000D03*
%TO.P,U1,7,I7*%
%TO.N,unconnected-(U1-Pad7)*%
X-167210000Y-92250000D03*
%TO.P,U1,8,GND*%
%TO.N,GND*%
X-164670000Y-92250000D03*
%TO.P,U1,9,COM*%
%TO.N,+5V*%
X-164670000Y-84630000D03*
%TO.P,U1,10,O7*%
%TO.N,unconnected-(U1-Pad10)*%
X-167210000Y-84630000D03*
%TO.P,U1,11,O6*%
%TO.N,unconnected-(U1-Pad11)*%
X-169750000Y-84630000D03*
%TO.P,U1,12,O5*%
%TO.N,unconnected-(U1-Pad12)*%
X-172290000Y-84630000D03*
%TO.P,U1,13,O4*%
%TO.N,#DRUM_LEFT*%
X-174830000Y-84630000D03*
%TO.P,U1,14,O3*%
%TO.N,#DRUM_RIGHT*%
X-177370000Y-84630000D03*
%TO.P,U1,15,O2*%
%TO.N,#HEATER*%
X-179910000Y-84630000D03*
%TO.P,U1,16,O1*%
%TO.N,#FAN*%
X-182450000Y-84630000D03*
%TD*%
D18*
%TO.P,H610,1*%
%TO.N,N/C*%
X-121850000Y-7550000D03*
%TD*%
D19*
%TO.P,D403,1,K*%
%TO.N,#HEATER*%
X-178175000Y-66750000D03*
D13*
%TO.P,D403,2,A*%
%TO.N,Net-(D403-Pad2)*%
X-180715000Y-66750000D03*
%TD*%
%TO.P,R308,1*%
%TO.N,FAN_ULNIN*%
X-150650000Y-91170000D03*
%TO.P,R308,2*%
%TO.N,/ULN2003/->FAN*%
X-150650000Y-81010000D03*
%TD*%
D20*
%TO.P,K402,1*%
%TO.N,LINE*%
X-173950000Y-62550000D03*
D21*
%TO.P,K402,2*%
%TO.N,+5V*%
X-167900000Y-60600000D03*
D20*
%TO.P,K402,3*%
%TO.N,HEATER_LINE*%
X-167900000Y-48400000D03*
%TO.P,K402,4*%
%TO.N,unconnected-(K402-Pad4)*%
X-179950000Y-48350000D03*
D21*
%TO.P,K402,5*%
%TO.N,#HEATER*%
X-179900000Y-60600000D03*
%TD*%
D22*
%TO.P,C405,1*%
%TO.N,+5V*%
X-145055112Y-71550000D03*
D23*
%TO.P,C405,2*%
%TO.N,GND*%
X-142555112Y-71550000D03*
%TD*%
D14*
%TO.P,D402,1,K*%
%TO.N,+5V*%
X-190040000Y-66850000D03*
D15*
%TO.P,D402,2,A*%
%TO.N,#FAN*%
X-197660000Y-66850000D03*
%TD*%
D13*
%TO.P,R401,1*%
%TO.N,+5V*%
X-193170000Y-71150000D03*
%TO.P,R401,2*%
%TO.N,Net-(D401-Pad2)*%
X-203330000Y-71150000D03*
%TD*%
D20*
%TO.P,R406,1*%
%TO.N,DRUM_RIGHT_LINE*%
X-145650000Y-34050000D03*
%TO.P,R406,2*%
%TO.N,Net-(C406-Pad1)*%
X-145650000Y-18810000D03*
%TD*%
D24*
%TO.P,RV401,1*%
%TO.N,LINE*%
X-195250000Y-39950000D03*
D13*
%TO.P,RV401,2*%
%TO.N,FAN_LINE*%
X-190250000Y-39950000D03*
%TD*%
D18*
%TO.P,H609,1*%
%TO.N,N/C*%
X-214850000Y-7550000D03*
%TD*%
D13*
%TO.P,R405,1*%
%TO.N,+5V*%
X-148370000Y-71050000D03*
%TO.P,R405,2*%
%TO.N,Net-(D405-Pad2)*%
X-158530000Y-71050000D03*
%TD*%
D19*
%TO.P,D401,1,K*%
%TO.N,#FAN*%
X-200575000Y-66750000D03*
D13*
%TO.P,D401,2,A*%
%TO.N,Net-(D401-Pad2)*%
X-203115000Y-66750000D03*
%TD*%
D24*
%TO.P,RV402,1*%
%TO.N,LINE*%
X-172850000Y-39950000D03*
D13*
%TO.P,RV402,2*%
%TO.N,HEATER_LINE*%
X-167850000Y-39950000D03*
%TD*%
D20*
%TO.P,K403,1*%
%TO.N,LINE*%
X-151750000Y-62550000D03*
D21*
%TO.P,K403,2*%
%TO.N,+5V*%
X-145700000Y-60600000D03*
D20*
%TO.P,K403,3*%
%TO.N,DRUM_RIGHT_LINE*%
X-145700000Y-48400000D03*
%TO.P,K403,4*%
%TO.N,unconnected-(K403-Pad4)*%
X-157750000Y-48350000D03*
D21*
%TO.P,K403,5*%
%TO.N,#DRUM_RIGHT*%
X-157700000Y-60600000D03*
%TD*%
D25*
%TO.P,J614,1,Pin_1*%
%TO.N,DLEFT_ULNIN*%
X-142850000Y-100950000D03*
D26*
%TO.P,J614,2,Pin_2*%
%TO.N,DRIGHT_ULNIN*%
X-145390000Y-100950000D03*
%TO.P,J614,3,Pin_3*%
%TO.N,HEATER_ULNIN*%
X-147930000Y-100950000D03*
%TO.P,J614,4,Pin_4*%
%TO.N,FAN_ULNIN*%
X-150470000Y-100950000D03*
%TD*%
D20*
%TO.P,R404,1*%
%TO.N,HEATER_LINE*%
X-167850000Y-34050000D03*
%TO.P,R404,2*%
%TO.N,Net-(C404-Pad1)*%
X-167850000Y-18810000D03*
%TD*%
%TO.P,K401,1*%
%TO.N,LINE*%
X-196250000Y-62550000D03*
D21*
%TO.P,K401,2*%
%TO.N,+5V*%
X-190200000Y-60600000D03*
D20*
%TO.P,K401,3*%
%TO.N,FAN_LINE*%
X-190200000Y-48400000D03*
%TO.P,K401,4*%
%TO.N,unconnected-(K401-Pad4)*%
X-202250000Y-48350000D03*
D21*
%TO.P,K401,5*%
%TO.N,#FAN*%
X-202200000Y-60600000D03*
%TD*%
D22*
%TO.P,C407,1*%
%TO.N,+5V*%
X-122655112Y-71450000D03*
D23*
%TO.P,C407,2*%
%TO.N,GND*%
X-120155112Y-71450000D03*
%TD*%
D13*
%TO.P,R306,1*%
%TO.N,DRIGHT_ULNIN*%
X-143950000Y-91050000D03*
%TO.P,R306,2*%
%TO.N,/ULN2003/->RIGHT*%
X-143950000Y-80890000D03*
%TD*%
D12*
%TO.P,C408,1*%
%TO.N,Net-(C408-Pad1)*%
X-132050000Y-33650000D03*
%TO.P,C408,2*%
%TO.N,Neutral*%
X-132050000Y-18650000D03*
%TD*%
D22*
%TO.P,C403,1*%
%TO.N,+5V*%
X-167655112Y-71450000D03*
D23*
%TO.P,C403,2*%
%TO.N,GND*%
X-165155112Y-71450000D03*
%TD*%
D13*
%TO.P,R403,1*%
%TO.N,+5V*%
X-170770000Y-71050000D03*
%TO.P,R403,2*%
%TO.N,Net-(D403-Pad2)*%
X-180930000Y-71050000D03*
%TD*%
D20*
%TO.P,R402,1*%
%TO.N,FAN_LINE*%
X-190250000Y-34170000D03*
%TO.P,R402,2*%
%TO.N,Net-(C402-Pad1)*%
X-190250000Y-18930000D03*
%TD*%
D27*
%TO.P,F601,1*%
%TO.N,LINE*%
X-212350000Y-38005000D03*
D28*
X-212350000Y-31245000D03*
D29*
%TO.P,F601,2*%
%TO.N,Net-(F601-Pad2)*%
X-212350000Y-14895000D03*
D30*
X-212350000Y-21655000D03*
%TD*%
D19*
%TO.P,RN301,1,common*%
%TO.N,GND*%
X-140350000Y-94750000D03*
D13*
%TO.P,RN301,2,R1*%
%TO.N,DLEFT_ULNIN*%
X-142890000Y-94750000D03*
%TO.P,RN301,3,R2*%
%TO.N,DRIGHT_ULNIN*%
X-145430000Y-94750000D03*
%TO.P,RN301,4,R3*%
%TO.N,HEATER_ULNIN*%
X-147970000Y-94750000D03*
%TO.P,RN301,5,R4*%
%TO.N,FAN_ULNIN*%
X-150510000Y-94750000D03*
%TD*%
D22*
%TO.P,C401,1*%
%TO.N,+5V*%
X-190055112Y-71450000D03*
D23*
%TO.P,C401,2*%
%TO.N,GND*%
X-187555112Y-71450000D03*
%TD*%
D25*
%TO.P,J612,1,Pin_1*%
%TO.N,+5V*%
X-157990000Y-100950000D03*
D26*
%TO.P,J612,2,Pin_2*%
%TO.N,GND*%
X-155450000Y-100950000D03*
%TD*%
D20*
%TO.P,K404,1*%
%TO.N,LINE*%
X-129450000Y-62550000D03*
D21*
%TO.P,K404,2*%
%TO.N,+5V*%
X-123400000Y-60600000D03*
D20*
%TO.P,K404,3*%
%TO.N,DRUM_LEFT_LINE*%
X-123400000Y-48400000D03*
%TO.P,K404,4*%
%TO.N,unconnected-(K404-Pad4)*%
X-135450000Y-48350000D03*
D21*
%TO.P,K404,5*%
%TO.N,#DRUM_LEFT*%
X-135400000Y-60600000D03*
%TD*%
D18*
%TO.P,H612,1*%
%TO.N,N/C*%
X-122050000Y-100550000D03*
%TD*%
D24*
%TO.P,RV404,1*%
%TO.N,LINE*%
X-128450000Y-39950000D03*
D13*
%TO.P,RV404,2*%
%TO.N,DRUM_LEFT_LINE*%
X-123450000Y-39950000D03*
%TD*%
D20*
%TO.P,R408,1*%
%TO.N,DRUM_LEFT_LINE*%
X-123450000Y-34050000D03*
%TO.P,R408,2*%
%TO.N,Net-(C408-Pad1)*%
X-123450000Y-18810000D03*
%TD*%
D19*
%TO.P,D407,1,K*%
%TO.N,#DRUM_LEFT*%
X-133550000Y-66750000D03*
D13*
%TO.P,D407,2,A*%
%TO.N,Net-(D407-Pad2)*%
X-136090000Y-66750000D03*
%TD*%
D14*
%TO.P,D404,1,K*%
%TO.N,+5V*%
X-167640000Y-66850000D03*
D15*
%TO.P,D404,2,A*%
%TO.N,#HEATER*%
X-175260000Y-66850000D03*
%TD*%
D18*
%TO.P,H611,1*%
%TO.N,N/C*%
X-214750000Y-100550000D03*
%TD*%
D12*
%TO.P,C406,1*%
%TO.N,Net-(C406-Pad1)*%
X-154050000Y-33550000D03*
%TO.P,C406,2*%
%TO.N,Neutral*%
X-154050000Y-18550000D03*
%TD*%
D24*
%TO.P,RV403,1*%
%TO.N,LINE*%
X-150650000Y-39950000D03*
D13*
%TO.P,RV403,2*%
%TO.N,DRUM_RIGHT_LINE*%
X-145650000Y-39950000D03*
%TD*%
D19*
%TO.P,D405,1,K*%
%TO.N,#DRUM_RIGHT*%
X-155750000Y-66750000D03*
D13*
%TO.P,D405,2,A*%
%TO.N,Net-(D405-Pad2)*%
X-158290000Y-66750000D03*
%TD*%
D19*
%TO.P,C601,1*%
%TO.N,+5V*%
X-160002651Y-93900000D03*
D13*
%TO.P,C601,2*%
%TO.N,GND*%
X-155002651Y-93900000D03*
%TD*%
D14*
%TO.P,D406,1,K*%
%TO.N,+5V*%
X-145140000Y-66850000D03*
D15*
%TO.P,D406,2,A*%
%TO.N,#DRUM_RIGHT*%
X-152760000Y-66850000D03*
%TD*%
D12*
%TO.P,C404,1*%
%TO.N,Net-(C404-Pad1)*%
X-176150000Y-33550000D03*
%TO.P,C404,2*%
%TO.N,Neutral*%
X-176150000Y-18550000D03*
%TD*%
D31*
%TO.N,GND*%
X-153650000Y-97250000D03*
X-153650000Y-98450000D03*
X-185900000Y-88900000D03*
X-162450000Y-92200000D03*
X-185900000Y-86650000D03*
X-163100000Y-94800000D03*
X-164700000Y-94800000D03*
X-185900000Y-91450000D03*
X-185900000Y-84350000D03*
X-162450000Y-90500000D03*
X-185850000Y-93700000D03*
%TD*%
D32*
%TO.N,#DRUM_LEFT*%
X-130660000Y-66950000D02*
X-133350000Y-66950000D01*
X-133350000Y-66950000D02*
X-133550000Y-66750000D01*
X-135400000Y-62800000D02*
X-133550000Y-64650000D01*
X-135400000Y-60600000D02*
X-135400000Y-62800000D01*
X-133550000Y-64650000D02*
X-133550000Y-66750000D01*
X-130660000Y-66950000D02*
X-130660000Y-75660000D01*
%TO.N,#FAN*%
X-202200000Y-60600000D02*
X-202200000Y-62700000D01*
X-202200000Y-62700000D02*
X-200575000Y-64325000D01*
X-200575000Y-64325000D02*
X-200575000Y-66750000D01*
%TO.N,+5V*%
X-190200000Y-60600000D02*
X-190200000Y-66590000D01*
X-145555112Y-71050000D02*
X-145055112Y-71550000D01*
X-190200000Y-66590000D02*
X-190040000Y-66750000D01*
X-123040000Y-63460000D02*
X-123040000Y-66550000D01*
X-168055112Y-71050000D02*
X-167655112Y-71450000D01*
X-167900000Y-60600000D02*
X-167900000Y-66490000D01*
X-145700000Y-63300000D02*
X-145140000Y-63860000D01*
X-167900000Y-66490000D02*
X-167640000Y-66750000D01*
X-167640000Y-66750000D02*
X-167640000Y-71434888D01*
X-122655112Y-71450000D02*
X-122655112Y-69944888D01*
X-145700000Y-60600000D02*
X-145700000Y-63300000D01*
X-124950000Y-70950000D02*
X-124450000Y-71450000D01*
X-125970000Y-70950000D02*
X-124950000Y-70950000D01*
X-145140000Y-66750000D02*
X-145140000Y-71465112D01*
X-123040000Y-69560000D02*
X-123040000Y-66950000D01*
X-160002651Y-96997349D02*
X-160002651Y-93900000D01*
X-124450000Y-71450000D02*
X-122655112Y-71450000D01*
X-148370000Y-71050000D02*
X-145555112Y-71050000D01*
X-157990000Y-100950000D02*
X-157990000Y-99010000D01*
X-122655112Y-69944888D02*
X-123040000Y-69560000D01*
X-145140000Y-71465112D02*
X-145055112Y-71550000D01*
X-157990000Y-99010000D02*
X-160002651Y-96997349D01*
X-190355112Y-71150000D02*
X-190055112Y-71450000D01*
X-190040000Y-71434888D02*
X-190055112Y-71450000D01*
X-123400000Y-63100000D02*
X-123040000Y-63460000D01*
X-123400000Y-60600000D02*
X-123400000Y-63100000D01*
X-193170000Y-71150000D02*
X-190355112Y-71150000D01*
X-145140000Y-63860000D02*
X-145140000Y-66750000D01*
X-170770000Y-71050000D02*
X-168055112Y-71050000D01*
X-190040000Y-66750000D02*
X-190040000Y-71434888D01*
X-167640000Y-71434888D02*
X-167655112Y-71450000D01*
D33*
%TO.N,DRUM_LEFT_LINE*%
X-123450000Y-29850000D02*
X-126950000Y-26350000D01*
X-126950000Y-26350000D02*
X-126950000Y-13750000D01*
X-126950000Y-13750000D02*
X-131150000Y-9550000D01*
X-123450000Y-39950000D02*
X-123450000Y-34050000D01*
X-123400000Y-40000000D02*
X-123450000Y-39950000D01*
X-123400000Y-48400000D02*
X-123400000Y-40000000D01*
X-131150000Y-9550000D02*
X-155632500Y-9550000D01*
X-123450000Y-34050000D02*
X-123450000Y-29850000D01*
%TO.N,DRUM_RIGHT_LINE*%
X-145700000Y-48400000D02*
X-145700000Y-40000000D01*
X-160712500Y-12487500D02*
X-160712500Y-9550000D01*
X-145650000Y-39950000D02*
X-145650000Y-34050000D01*
X-158750000Y-14450000D02*
X-160712500Y-12487500D01*
X-140950000Y-16850000D02*
X-143350000Y-14450000D01*
X-145700000Y-40000000D02*
X-145650000Y-39950000D01*
X-143350000Y-14450000D02*
X-158750000Y-14450000D01*
X-140950000Y-27050000D02*
X-140950000Y-16850000D01*
X-145650000Y-31750000D02*
X-140950000Y-27050000D01*
X-145650000Y-34050000D02*
X-145650000Y-31750000D01*
%TO.N,FAN_LINE*%
X-190250000Y-34170000D02*
X-190250000Y-31850000D01*
X-190200000Y-48400000D02*
X-190200000Y-40000000D01*
X-190250000Y-39950000D02*
X-190250000Y-34170000D01*
X-186150000Y-27750000D02*
X-186150000Y-18050000D01*
X-190200000Y-40000000D02*
X-190250000Y-39950000D01*
X-170872500Y-12172500D02*
X-170872500Y-9550000D01*
X-190250000Y-31850000D02*
X-186150000Y-27750000D01*
X-173550000Y-14850000D02*
X-170872500Y-12172500D01*
X-186150000Y-18050000D02*
X-182950000Y-14850000D01*
X-182950000Y-14850000D02*
X-173550000Y-14850000D01*
D32*
%TO.N,#DRUM_LEFT*%
X-132850000Y-77850000D02*
X-172850000Y-77850000D01*
X-130860000Y-66750000D02*
X-130660000Y-66950000D01*
X-133350000Y-66550000D02*
X-133550000Y-66750000D01*
X-130660000Y-75660000D02*
X-132850000Y-77850000D01*
X-172850000Y-77850000D02*
X-174830000Y-79830000D01*
X-174830000Y-79830000D02*
X-174830000Y-84630000D01*
%TO.N,Net-(D401-Pad2)*%
X-203115000Y-66750000D02*
X-203115000Y-70935000D01*
X-203115000Y-70935000D02*
X-203330000Y-71150000D01*
%TO.N,#DRUM_RIGHT*%
X-152760000Y-66750000D02*
X-152760000Y-73160000D01*
X-177370000Y-78270000D02*
X-177370000Y-84630000D01*
X-152760000Y-66750000D02*
X-155750000Y-66750000D01*
X-152760000Y-73160000D02*
X-155450000Y-75850000D01*
X-157700000Y-62600000D02*
X-155750000Y-64550000D01*
X-155450000Y-75850000D02*
X-174950000Y-75850000D01*
X-157700000Y-60600000D02*
X-157700000Y-62600000D01*
X-174950000Y-75850000D02*
X-177370000Y-78270000D01*
X-155750000Y-64550000D02*
X-155750000Y-66750000D01*
%TO.N,Net-(D403-Pad2)*%
X-180715000Y-70835000D02*
X-180930000Y-71050000D01*
X-180715000Y-66750000D02*
X-180715000Y-70835000D01*
%TO.N,#HEATER*%
X-178175000Y-64625000D02*
X-178175000Y-66750000D01*
X-175260000Y-72560000D02*
X-179910000Y-77210000D01*
X-179900000Y-60600000D02*
X-179900000Y-62900000D01*
X-179910000Y-77210000D02*
X-179910000Y-84630000D01*
X-179900000Y-62900000D02*
X-178175000Y-64625000D01*
X-178175000Y-66750000D02*
X-175260000Y-66750000D01*
X-175260000Y-66750000D02*
X-175260000Y-72560000D01*
%TO.N,Net-(D405-Pad2)*%
X-158290000Y-66750000D02*
X-158290000Y-70810000D01*
X-158290000Y-70810000D02*
X-158530000Y-71050000D01*
%TO.N,#FAN*%
X-182450000Y-78650000D02*
X-182450000Y-84630000D01*
X-197660000Y-74140000D02*
X-195650000Y-76150000D01*
X-197660000Y-66750000D02*
X-200575000Y-66750000D01*
X-197660000Y-66750000D02*
X-197660000Y-74140000D01*
X-184950000Y-76150000D02*
X-182450000Y-78650000D01*
X-195650000Y-76150000D02*
X-184950000Y-76150000D01*
%TO.N,Net-(D407-Pad2)*%
X-136090000Y-70910000D02*
X-136130000Y-70950000D01*
X-136090000Y-66750000D02*
X-136090000Y-70910000D01*
D33*
%TO.N,LINE*%
X-196250000Y-54550000D02*
X-196250000Y-62550000D01*
X-150650000Y-39950000D02*
X-150650000Y-53350000D01*
X-172850000Y-53750000D02*
X-173950000Y-54850000D01*
X-151750000Y-54850000D02*
X-151750000Y-62550000D01*
X-173950000Y-54850000D02*
X-173950000Y-62550000D01*
X-129450000Y-53850000D02*
X-129450000Y-62550000D01*
X-195250000Y-53550000D02*
X-196250000Y-54550000D01*
X-128450000Y-39950000D02*
X-128450000Y-52850000D01*
X-150450000Y-53550000D02*
X-151750000Y-54850000D01*
X-212350000Y-34300000D02*
X-212350000Y-38005000D01*
X-128450000Y-52850000D02*
X-129450000Y-53850000D01*
X-195250000Y-39950000D02*
X-195250000Y-53550000D01*
X-212350000Y-31245000D02*
X-212350000Y-34300000D01*
X-150650000Y-53350000D02*
X-150450000Y-53550000D01*
X-172850000Y-39950000D02*
X-172850000Y-53750000D01*
%TO.N,Net-(F601-Pad2)*%
X-208902500Y-11447500D02*
X-212350000Y-14895000D01*
X-212350000Y-14895000D02*
X-212350000Y-18550000D01*
X-212350000Y-18550000D02*
X-212350000Y-21655000D01*
X-207005000Y-9550000D02*
X-208902500Y-11447500D01*
X-191850000Y-9550000D02*
X-207005000Y-9550000D01*
X-181032500Y-9550000D02*
X-191850000Y-9550000D01*
D34*
%TO.N,/ULN2003/->LEFT*%
X-172750000Y-89150000D02*
X-174830000Y-91230000D01*
X-174830000Y-91230000D02*
X-174830000Y-92250000D01*
X-141850000Y-89150000D02*
X-172750000Y-89150000D01*
X-140650000Y-87950000D02*
X-141850000Y-89150000D01*
X-140650000Y-80990000D02*
X-140650000Y-87950000D01*
%TO.N,/ULN2003/->RIGHT*%
X-143950000Y-80890000D02*
X-143950000Y-86950000D01*
X-145350000Y-88350000D02*
X-176350000Y-88350000D01*
X-143950000Y-86950000D02*
X-145350000Y-88350000D01*
X-177370000Y-89370000D02*
X-177370000Y-92250000D01*
X-176350000Y-88350000D02*
X-177370000Y-89370000D01*
%TO.N,/ULN2003/->HEATER*%
X-179910000Y-88610000D02*
X-179910000Y-92250000D01*
X-147350000Y-80990000D02*
X-147350000Y-86250000D01*
X-147350000Y-86250000D02*
X-148750000Y-87650000D01*
X-178950000Y-87650000D02*
X-179910000Y-88610000D01*
X-148750000Y-87650000D02*
X-178950000Y-87650000D01*
%TO.N,/ULN2003/->FAN*%
X-151450000Y-86750000D02*
X-181250000Y-86750000D01*
X-182450000Y-87950000D02*
X-182450000Y-92250000D01*
X-150650000Y-85950000D02*
X-151450000Y-86750000D01*
X-150650000Y-81010000D02*
X-150650000Y-85950000D01*
X-181250000Y-86750000D02*
X-182450000Y-87950000D01*
D32*
%TO.N,DLEFT_ULNIN*%
X-142850000Y-94790000D02*
X-142890000Y-94750000D01*
D34*
X-142890000Y-94750000D02*
X-142890000Y-94090000D01*
D32*
X-142850000Y-100950000D02*
X-142850000Y-94790000D01*
D34*
X-142890000Y-94090000D02*
X-140650000Y-91850000D01*
X-140650000Y-91850000D02*
X-140650000Y-91150000D01*
%TO.N,DRIGHT_ULNIN*%
X-143950000Y-92050000D02*
X-143950000Y-91050000D01*
D32*
X-145390000Y-100950000D02*
X-145390000Y-94790000D01*
D34*
X-145430000Y-93530000D02*
X-143950000Y-92050000D01*
D32*
X-145390000Y-94790000D02*
X-145430000Y-94750000D01*
D34*
X-145430000Y-94750000D02*
X-145430000Y-93530000D01*
%TO.N,HEATER_ULNIN*%
X-147970000Y-91770000D02*
X-147350000Y-91150000D01*
X-147970000Y-94750000D02*
X-147970000Y-91770000D01*
D32*
X-147930000Y-94790000D02*
X-147970000Y-94750000D01*
X-147930000Y-100950000D02*
X-147930000Y-94790000D01*
D34*
%TO.N,FAN_ULNIN*%
X-150510000Y-94750000D02*
X-150510000Y-91310000D01*
X-150510000Y-91310000D02*
X-150650000Y-91170000D01*
D32*
X-150470000Y-94790000D02*
X-150510000Y-94750000D01*
X-150470000Y-100950000D02*
X-150470000Y-94790000D01*
D33*
%TO.N,HEATER_LINE*%
X-165792500Y-14707500D02*
X-165792500Y-9550000D01*
X-164150000Y-27650000D02*
X-164150000Y-16350000D01*
X-167850000Y-34050000D02*
X-167850000Y-31350000D01*
X-167850000Y-39950000D02*
X-167850000Y-34050000D01*
X-167900000Y-40000000D02*
X-167850000Y-39950000D01*
X-164150000Y-16350000D02*
X-165792500Y-14707500D01*
X-167900000Y-48400000D02*
X-167900000Y-40000000D01*
X-167850000Y-31350000D02*
X-164150000Y-27650000D01*
%TD*%
%TA.AperFunction,Conductor*%
%TO.N,GND*%
G36*
X-204279107Y-65570002D02*
G01*
X-204232614Y-65623658D01*
X-204222510Y-65693932D01*
X-204251417Y-65757830D01*
X-204334649Y-65855283D01*
X-204339176Y-65860584D01*
X-204341755Y-65864792D01*
X-204341759Y-65864798D01*
X-204443671Y-66031104D01*
X-204463240Y-66063037D01*
X-204465133Y-66067607D01*
X-204465135Y-66067611D01*
X-204552211Y-66277833D01*
X-204554105Y-66282406D01*
X-204555260Y-66287218D01*
X-204599555Y-66471720D01*
X-204609535Y-66513289D01*
X-204628165Y-66750000D01*
X-204609535Y-66986711D01*
X-204554105Y-67217594D01*
X-204552212Y-67222165D01*
X-204552211Y-67222167D01*
X-204504370Y-67337665D01*
X-204463240Y-67436963D01*
X-204460654Y-67441183D01*
X-204341759Y-67635202D01*
X-204341755Y-67635208D01*
X-204339176Y-67639416D01*
X-204184969Y-67819969D01*
X-204181213Y-67823177D01*
X-204181212Y-67823178D01*
X-204167668Y-67834746D01*
X-204128860Y-67894197D01*
X-204123500Y-67930556D01*
X-204123500Y-69796484D01*
X-204143502Y-69864605D01*
X-204183664Y-69903915D01*
X-204219416Y-69925824D01*
X-204223178Y-69929037D01*
X-204382133Y-70064798D01*
X-204399969Y-70080031D01*
X-204554176Y-70260584D01*
X-204556755Y-70264792D01*
X-204556759Y-70264798D01*
X-204649458Y-70416069D01*
X-204678240Y-70463037D01*
X-204680133Y-70467607D01*
X-204680135Y-70467611D01*
X-204767211Y-70677833D01*
X-204769105Y-70682406D01*
X-204770260Y-70687218D01*
X-204818702Y-70888994D01*
X-204824535Y-70913289D01*
X-204843165Y-71150000D01*
X-204824535Y-71386711D01*
X-204823381Y-71391518D01*
X-204823380Y-71391524D01*
X-204807041Y-71459580D01*
X-204769105Y-71617594D01*
X-204767212Y-71622165D01*
X-204767211Y-71622167D01*
X-204685767Y-71818790D01*
X-204678240Y-71836963D01*
X-204675654Y-71841183D01*
X-204556759Y-72035202D01*
X-204556755Y-72035208D01*
X-204554176Y-72039416D01*
X-204399969Y-72219969D01*
X-204219416Y-72374176D01*
X-204215208Y-72376755D01*
X-204215202Y-72376759D01*
X-204031870Y-72489105D01*
X-204016963Y-72498240D01*
X-204012393Y-72500133D01*
X-204012389Y-72500135D01*
X-203802167Y-72587211D01*
X-203797594Y-72589105D01*
X-203726884Y-72606081D01*
X-203571524Y-72643380D01*
X-203571518Y-72643381D01*
X-203566711Y-72644535D01*
X-203330000Y-72663165D01*
X-203093289Y-72644535D01*
X-203088482Y-72643381D01*
X-203088476Y-72643380D01*
X-202933116Y-72606081D01*
X-202862406Y-72589105D01*
X-202857833Y-72587211D01*
X-202647611Y-72500135D01*
X-202647607Y-72500133D01*
X-202643037Y-72498240D01*
X-202628130Y-72489105D01*
X-202444798Y-72376759D01*
X-202444792Y-72376755D01*
X-202440584Y-72374176D01*
X-202260031Y-72219969D01*
X-202105824Y-72039416D01*
X-202103245Y-72035208D01*
X-202103241Y-72035202D01*
X-201984346Y-71841183D01*
X-201981760Y-71836963D01*
X-201974232Y-71818790D01*
X-201892789Y-71622167D01*
X-201892788Y-71622165D01*
X-201890895Y-71617594D01*
X-201852959Y-71459580D01*
X-201836620Y-71391524D01*
X-201836619Y-71391518D01*
X-201835465Y-71386711D01*
X-201816835Y-71150000D01*
X-201835465Y-70913289D01*
X-201841297Y-70888994D01*
X-201889740Y-70687218D01*
X-201890895Y-70682406D01*
X-201892789Y-70677833D01*
X-201979865Y-70467611D01*
X-201979867Y-70467607D01*
X-201981760Y-70463037D01*
X-202049851Y-70351923D01*
X-202087933Y-70289779D01*
X-202106500Y-70223944D01*
X-202106500Y-68239063D01*
X-202086498Y-68170942D01*
X-202032842Y-68124449D01*
X-201962568Y-68114345D01*
X-201904936Y-68138236D01*
X-201821705Y-68200615D01*
X-201685316Y-68251745D01*
X-201623134Y-68258500D01*
X-199526866Y-68258500D01*
X-199464684Y-68251745D01*
X-199328295Y-68200615D01*
X-199211739Y-68113261D01*
X-199124385Y-67996705D01*
X-199113031Y-67966420D01*
X-199079150Y-67876041D01*
X-199036509Y-67819276D01*
X-198969947Y-67794576D01*
X-198900598Y-67809783D01*
X-198865358Y-67838439D01*
X-198768648Y-67951670D01*
X-198768641Y-67951677D01*
X-198765433Y-67955433D01*
X-198761677Y-67958641D01*
X-198712669Y-68000498D01*
X-198673860Y-68059949D01*
X-198668500Y-68096309D01*
X-198668500Y-74078157D01*
X-198669237Y-74091764D01*
X-198673324Y-74129388D01*
X-198672787Y-74135523D01*
X-198668950Y-74179388D01*
X-198668621Y-74184214D01*
X-198668500Y-74186686D01*
X-198668500Y-74189769D01*
X-198668199Y-74192837D01*
X-198664310Y-74232506D01*
X-198664188Y-74233819D01*
X-198656087Y-74326413D01*
X-198654600Y-74331532D01*
X-198654080Y-74336833D01*
X-198627209Y-74425834D01*
X-198626874Y-74426967D01*
X-198600909Y-74516336D01*
X-198598456Y-74521068D01*
X-198596916Y-74526169D01*
X-198594022Y-74531612D01*
X-198553269Y-74608260D01*
X-198552657Y-74609426D01*
X-198509892Y-74691926D01*
X-198506569Y-74696089D01*
X-198504066Y-74700796D01*
X-198445245Y-74772918D01*
X-198444554Y-74773774D01*
X-198413262Y-74812973D01*
X-198410758Y-74815477D01*
X-198410116Y-74816195D01*
X-198406415Y-74820528D01*
X-198379065Y-74854062D01*
X-198374318Y-74857989D01*
X-198374316Y-74857991D01*
X-198343738Y-74883287D01*
X-198334958Y-74891277D01*
X-196406855Y-76819379D01*
X-196397753Y-76829522D01*
X-196374032Y-76859025D01*
X-196335544Y-76891320D01*
X-196331925Y-76894478D01*
X-196330110Y-76896124D01*
X-196327925Y-76898309D01*
X-196325545Y-76900264D01*
X-196325535Y-76900273D01*
X-196294764Y-76925549D01*
X-196293749Y-76926391D01*
X-196222526Y-76986154D01*
X-196217852Y-76988723D01*
X-196213739Y-76992102D01*
X-196208302Y-76995017D01*
X-196208301Y-76995018D01*
X-196131953Y-77035955D01*
X-196130823Y-77036568D01*
X-196049213Y-77081433D01*
X-196044131Y-77083045D01*
X-196039437Y-77085562D01*
X-195950469Y-77112762D01*
X-195949441Y-77113082D01*
X-195860694Y-77141235D01*
X-195855398Y-77141829D01*
X-195850302Y-77143387D01*
X-195757743Y-77152790D01*
X-195756607Y-77152911D01*
X-195722992Y-77156681D01*
X-195710270Y-77158108D01*
X-195710266Y-77158108D01*
X-195706773Y-77158500D01*
X-195703246Y-77158500D01*
X-195702261Y-77158555D01*
X-195696581Y-77159002D01*
X-195667175Y-77161989D01*
X-195659663Y-77162752D01*
X-195659661Y-77162752D01*
X-195653538Y-77163374D01*
X-195607892Y-77159059D01*
X-195596033Y-77158500D01*
X-185419925Y-77158500D01*
X-185351804Y-77178502D01*
X-185330830Y-77195405D01*
X-183495405Y-79030829D01*
X-183461380Y-79093141D01*
X-183458500Y-79119924D01*
X-183458500Y-83349260D01*
X-183481287Y-83421531D01*
X-183587523Y-83573251D01*
X-183589846Y-83578233D01*
X-183589849Y-83578238D01*
X-183605805Y-83612457D01*
X-183684284Y-83780757D01*
X-183743543Y-84001913D01*
X-183758500Y-84172873D01*
X-183758500Y-85087127D01*
X-183743543Y-85258087D01*
X-183684284Y-85479243D01*
X-183681961Y-85484224D01*
X-183681961Y-85484225D01*
X-183589849Y-85681762D01*
X-183589846Y-85681767D01*
X-183587523Y-85686749D01*
X-183456198Y-85874300D01*
X-183294300Y-86036198D01*
X-183289792Y-86039355D01*
X-183289789Y-86039357D01*
X-183256596Y-86062599D01*
X-183106749Y-86167523D01*
X-183101767Y-86169846D01*
X-183101762Y-86169849D01*
X-182904225Y-86261961D01*
X-182899243Y-86264284D01*
X-182893935Y-86265706D01*
X-182893933Y-86265707D01*
X-182683402Y-86322119D01*
X-182683400Y-86322119D01*
X-182678087Y-86323543D01*
X-182450000Y-86343498D01*
X-182221913Y-86323543D01*
X-182218771Y-86322701D01*
X-182148902Y-86330493D01*
X-182093798Y-86375260D01*
X-182071644Y-86442712D01*
X-182089475Y-86511433D01*
X-182108486Y-86535805D01*
X-182938911Y-87366230D01*
X-182953323Y-87378616D01*
X-182964918Y-87387149D01*
X-182964923Y-87387154D01*
X-182970818Y-87391492D01*
X-182975557Y-87397070D01*
X-182975560Y-87397073D01*
X-183005035Y-87431768D01*
X-183011965Y-87439284D01*
X-183017660Y-87444979D01*
X-183019940Y-87447861D01*
X-183035281Y-87467251D01*
X-183038072Y-87470655D01*
X-183073920Y-87512851D01*
X-183085333Y-87526285D01*
X-183088661Y-87532801D01*
X-183092028Y-87537850D01*
X-183095195Y-87542979D01*
X-183099734Y-87548716D01*
X-183130655Y-87614875D01*
X-183132558Y-87618769D01*
X-183165769Y-87683808D01*
X-183167508Y-87690916D01*
X-183169607Y-87696559D01*
X-183171524Y-87702322D01*
X-183174622Y-87708950D01*
X-183176112Y-87716112D01*
X-183176112Y-87716113D01*
X-183189486Y-87780412D01*
X-183190456Y-87784696D01*
X-183207808Y-87855610D01*
X-183208500Y-87866764D01*
X-183208536Y-87866762D01*
X-183208775Y-87870755D01*
X-183209149Y-87874947D01*
X-183210640Y-87882115D01*
X-183210442Y-87889432D01*
X-183208546Y-87959521D01*
X-183208500Y-87962928D01*
X-183208500Y-90418709D01*
X-183228502Y-90486830D01*
X-183282158Y-90533323D01*
X-183320892Y-90543972D01*
X-183333086Y-90545297D01*
X-183360316Y-90548255D01*
X-183496705Y-90599385D01*
X-183613261Y-90686739D01*
X-183700615Y-90803295D01*
X-183751745Y-90939684D01*
X-183758500Y-91001866D01*
X-183758500Y-93498134D01*
X-183751745Y-93560316D01*
X-183700615Y-93696705D01*
X-183613261Y-93813261D01*
X-183496705Y-93900615D01*
X-183360316Y-93951745D01*
X-183298134Y-93958500D01*
X-181601866Y-93958500D01*
X-181539684Y-93951745D01*
X-181403295Y-93900615D01*
X-181286739Y-93813261D01*
X-181199385Y-93696705D01*
X-181148255Y-93560316D01*
X-181147083Y-93549526D01*
X-181146197Y-93547394D01*
X-181145575Y-93544778D01*
X-181145152Y-93544879D01*
X-181119845Y-93483965D01*
X-181061483Y-93443537D01*
X-180990529Y-93441078D01*
X-180929510Y-93477371D01*
X-180922511Y-93486031D01*
X-180919357Y-93489789D01*
X-180916198Y-93494300D01*
X-180754300Y-93656198D01*
X-180749792Y-93659355D01*
X-180749789Y-93659357D01*
X-180686188Y-93703891D01*
X-180566749Y-93787523D01*
X-180561767Y-93789846D01*
X-180561762Y-93789849D01*
X-180365235Y-93881490D01*
X-180359243Y-93884284D01*
X-180353935Y-93885706D01*
X-180353933Y-93885707D01*
X-180143402Y-93942119D01*
X-180143400Y-93942119D01*
X-180138087Y-93943543D01*
X-179910000Y-93963498D01*
X-179681913Y-93943543D01*
X-179676600Y-93942119D01*
X-179676598Y-93942119D01*
X-179466067Y-93885707D01*
X-179466065Y-93885706D01*
X-179460757Y-93884284D01*
X-179454765Y-93881490D01*
X-179258238Y-93789849D01*
X-179258233Y-93789846D01*
X-179253251Y-93787523D01*
X-179133812Y-93703891D01*
X-179070211Y-93659357D01*
X-179070208Y-93659355D01*
X-179065700Y-93656198D01*
X-178903802Y-93494300D01*
X-178889562Y-93473964D01*
X-178811550Y-93362551D01*
X-178772477Y-93306749D01*
X-178770154Y-93301767D01*
X-178770151Y-93301762D01*
X-178754195Y-93267543D01*
X-178707278Y-93214258D01*
X-178639001Y-93194797D01*
X-178571041Y-93215339D01*
X-178525805Y-93267543D01*
X-178509849Y-93301762D01*
X-178509846Y-93301767D01*
X-178507523Y-93306749D01*
X-178468450Y-93362551D01*
X-178390437Y-93473964D01*
X-178376198Y-93494300D01*
X-178214300Y-93656198D01*
X-178209792Y-93659355D01*
X-178209789Y-93659357D01*
X-178146188Y-93703891D01*
X-178026749Y-93787523D01*
X-178021767Y-93789846D01*
X-178021762Y-93789849D01*
X-177825235Y-93881490D01*
X-177819243Y-93884284D01*
X-177813935Y-93885706D01*
X-177813933Y-93885707D01*
X-177603402Y-93942119D01*
X-177603400Y-93942119D01*
X-177598087Y-93943543D01*
X-177370000Y-93963498D01*
X-177141913Y-93943543D01*
X-177136600Y-93942119D01*
X-177136598Y-93942119D01*
X-176926067Y-93885707D01*
X-176926065Y-93885706D01*
X-176920757Y-93884284D01*
X-176914765Y-93881490D01*
X-176718238Y-93789849D01*
X-176718233Y-93789846D01*
X-176713251Y-93787523D01*
X-176593812Y-93703891D01*
X-176530211Y-93659357D01*
X-176530208Y-93659355D01*
X-176525700Y-93656198D01*
X-176363802Y-93494300D01*
X-176349562Y-93473964D01*
X-176271550Y-93362551D01*
X-176232477Y-93306749D01*
X-176230154Y-93301767D01*
X-176230151Y-93301762D01*
X-176214195Y-93267543D01*
X-176167278Y-93214258D01*
X-176099001Y-93194797D01*
X-176031041Y-93215339D01*
X-175985805Y-93267543D01*
X-175969849Y-93301762D01*
X-175969846Y-93301767D01*
X-175967523Y-93306749D01*
X-175928450Y-93362551D01*
X-175850437Y-93473964D01*
X-175836198Y-93494300D01*
X-175674300Y-93656198D01*
X-175669792Y-93659355D01*
X-175669789Y-93659357D01*
X-175606188Y-93703891D01*
X-175486749Y-93787523D01*
X-175481767Y-93789846D01*
X-175481762Y-93789849D01*
X-175285235Y-93881490D01*
X-175279243Y-93884284D01*
X-175273935Y-93885706D01*
X-175273933Y-93885707D01*
X-175063402Y-93942119D01*
X-175063400Y-93942119D01*
X-175058087Y-93943543D01*
X-174830000Y-93963498D01*
X-174601913Y-93943543D01*
X-174596600Y-93942119D01*
X-174596598Y-93942119D01*
X-174386067Y-93885707D01*
X-174386065Y-93885706D01*
X-174380757Y-93884284D01*
X-174374765Y-93881490D01*
X-174178238Y-93789849D01*
X-174178233Y-93789846D01*
X-174173251Y-93787523D01*
X-174053812Y-93703891D01*
X-173990211Y-93659357D01*
X-173990208Y-93659355D01*
X-173985700Y-93656198D01*
X-173823802Y-93494300D01*
X-173809562Y-93473964D01*
X-173731550Y-93362551D01*
X-173692477Y-93306749D01*
X-173690154Y-93301767D01*
X-173690151Y-93301762D01*
X-173674195Y-93267543D01*
X-173627278Y-93214258D01*
X-173559001Y-93194797D01*
X-173491041Y-93215339D01*
X-173445805Y-93267543D01*
X-173429849Y-93301762D01*
X-173429846Y-93301767D01*
X-173427523Y-93306749D01*
X-173388450Y-93362551D01*
X-173310437Y-93473964D01*
X-173296198Y-93494300D01*
X-173134300Y-93656198D01*
X-173129792Y-93659355D01*
X-173129789Y-93659357D01*
X-173066188Y-93703891D01*
X-172946749Y-93787523D01*
X-172941767Y-93789846D01*
X-172941762Y-93789849D01*
X-172745235Y-93881490D01*
X-172739243Y-93884284D01*
X-172733935Y-93885706D01*
X-172733933Y-93885707D01*
X-172523402Y-93942119D01*
X-172523400Y-93942119D01*
X-172518087Y-93943543D01*
X-172290000Y-93963498D01*
X-172061913Y-93943543D01*
X-172056600Y-93942119D01*
X-172056598Y-93942119D01*
X-171846067Y-93885707D01*
X-171846065Y-93885706D01*
X-171840757Y-93884284D01*
X-171834765Y-93881490D01*
X-171638238Y-93789849D01*
X-171638233Y-93789846D01*
X-171633251Y-93787523D01*
X-171513812Y-93703891D01*
X-171450211Y-93659357D01*
X-171450208Y-93659355D01*
X-171445700Y-93656198D01*
X-171283802Y-93494300D01*
X-171269562Y-93473964D01*
X-171191550Y-93362551D01*
X-171152477Y-93306749D01*
X-171150154Y-93301767D01*
X-171150151Y-93301762D01*
X-171134195Y-93267543D01*
X-171087278Y-93214258D01*
X-171019001Y-93194797D01*
X-170951041Y-93215339D01*
X-170905805Y-93267543D01*
X-170889849Y-93301762D01*
X-170889846Y-93301767D01*
X-170887523Y-93306749D01*
X-170848450Y-93362551D01*
X-170770437Y-93473964D01*
X-170756198Y-93494300D01*
X-170594300Y-93656198D01*
X-170589792Y-93659355D01*
X-170589789Y-93659357D01*
X-170526188Y-93703891D01*
X-170406749Y-93787523D01*
X-170401767Y-93789846D01*
X-170401762Y-93789849D01*
X-170205235Y-93881490D01*
X-170199243Y-93884284D01*
X-170193935Y-93885706D01*
X-170193933Y-93885707D01*
X-169983402Y-93942119D01*
X-169983400Y-93942119D01*
X-169978087Y-93943543D01*
X-169750000Y-93963498D01*
X-169521913Y-93943543D01*
X-169516600Y-93942119D01*
X-169516598Y-93942119D01*
X-169306067Y-93885707D01*
X-169306065Y-93885706D01*
X-169300757Y-93884284D01*
X-169294765Y-93881490D01*
X-169098238Y-93789849D01*
X-169098233Y-93789846D01*
X-169093251Y-93787523D01*
X-168973812Y-93703891D01*
X-168910211Y-93659357D01*
X-168910208Y-93659355D01*
X-168905700Y-93656198D01*
X-168743802Y-93494300D01*
X-168729562Y-93473964D01*
X-168651550Y-93362551D01*
X-168612477Y-93306749D01*
X-168610154Y-93301767D01*
X-168610151Y-93301762D01*
X-168594195Y-93267543D01*
X-168547278Y-93214258D01*
X-168479001Y-93194797D01*
X-168411041Y-93215339D01*
X-168365805Y-93267543D01*
X-168349849Y-93301762D01*
X-168349846Y-93301767D01*
X-168347523Y-93306749D01*
X-168308450Y-93362551D01*
X-168230437Y-93473964D01*
X-168216198Y-93494300D01*
X-168054300Y-93656198D01*
X-168049792Y-93659355D01*
X-168049789Y-93659357D01*
X-167986188Y-93703891D01*
X-167866749Y-93787523D01*
X-167861767Y-93789846D01*
X-167861762Y-93789849D01*
X-167665235Y-93881490D01*
X-167659243Y-93884284D01*
X-167653935Y-93885706D01*
X-167653933Y-93885707D01*
X-167443402Y-93942119D01*
X-167443400Y-93942119D01*
X-167438087Y-93943543D01*
X-167210000Y-93963498D01*
X-166981913Y-93943543D01*
X-166976600Y-93942119D01*
X-166976598Y-93942119D01*
X-166766067Y-93885707D01*
X-166766065Y-93885706D01*
X-166760757Y-93884284D01*
X-166754765Y-93881490D01*
X-166558238Y-93789849D01*
X-166558233Y-93789846D01*
X-166553251Y-93787523D01*
X-166433812Y-93703891D01*
X-166370211Y-93659357D01*
X-166370208Y-93659355D01*
X-166365700Y-93656198D01*
X-166203802Y-93494300D01*
X-166189562Y-93473964D01*
X-166111550Y-93362551D01*
X-166072477Y-93306749D01*
X-166070154Y-93301767D01*
X-166070151Y-93301762D01*
X-166053919Y-93266951D01*
X-166007002Y-93213666D01*
X-165938725Y-93194205D01*
X-165870765Y-93214747D01*
X-165825529Y-93266951D01*
X-165809414Y-93301511D01*
X-165803931Y-93311007D01*
X-165678972Y-93489467D01*
X-165671916Y-93497875D01*
X-165517875Y-93651916D01*
X-165509467Y-93658972D01*
X-165331007Y-93783931D01*
X-165321511Y-93789414D01*
X-165124053Y-93881490D01*
X-165113761Y-93885236D01*
X-164941497Y-93931394D01*
X-164927401Y-93931058D01*
X-164924000Y-93923116D01*
X-164924000Y-93917967D01*
X-164416000Y-93917967D01*
X-164412027Y-93931498D01*
X-164403478Y-93932727D01*
X-164226239Y-93885236D01*
X-164215947Y-93881490D01*
X-164018489Y-93789414D01*
X-164008993Y-93783931D01*
X-163830533Y-93658972D01*
X-163822125Y-93651916D01*
X-163668084Y-93497875D01*
X-163661028Y-93489467D01*
X-163536069Y-93311007D01*
X-163530586Y-93301511D01*
X-163438510Y-93104053D01*
X-163434764Y-93093761D01*
X-163378375Y-92883312D01*
X-163376472Y-92872519D01*
X-163362238Y-92709830D01*
X-163362000Y-92704365D01*
X-163362000Y-92522115D01*
X-163366475Y-92506876D01*
X-163367865Y-92505671D01*
X-163375548Y-92504000D01*
X-164397885Y-92504000D01*
X-164413124Y-92508475D01*
X-164414329Y-92509865D01*
X-164416000Y-92517548D01*
X-164416000Y-93917967D01*
X-164924000Y-93917967D01*
X-164924000Y-91977885D01*
X-164416000Y-91977885D01*
X-164411525Y-91993124D01*
X-164410135Y-91994329D01*
X-164402452Y-91996000D01*
X-163380115Y-91996000D01*
X-163364876Y-91991525D01*
X-163363671Y-91990135D01*
X-163362000Y-91982452D01*
X-163362000Y-91795635D01*
X-163362238Y-91790170D01*
X-163376472Y-91627481D01*
X-163378375Y-91616688D01*
X-163434764Y-91406239D01*
X-163438510Y-91395947D01*
X-163530586Y-91198489D01*
X-163536069Y-91188993D01*
X-163661028Y-91010533D01*
X-163668084Y-91002125D01*
X-163822125Y-90848084D01*
X-163830533Y-90841028D01*
X-164008993Y-90716069D01*
X-164018489Y-90710586D01*
X-164215947Y-90618510D01*
X-164226239Y-90614764D01*
X-164398503Y-90568606D01*
X-164412599Y-90568942D01*
X-164416000Y-90576884D01*
X-164416000Y-91977885D01*
X-164924000Y-91977885D01*
X-164924000Y-90582033D01*
X-164927973Y-90568502D01*
X-164936522Y-90567273D01*
X-165113761Y-90614764D01*
X-165124053Y-90618510D01*
X-165321511Y-90710586D01*
X-165331007Y-90716069D01*
X-165509467Y-90841028D01*
X-165517875Y-90848084D01*
X-165671916Y-91002125D01*
X-165678972Y-91010533D01*
X-165803931Y-91188993D01*
X-165809414Y-91198489D01*
X-165825529Y-91233049D01*
X-165872446Y-91286334D01*
X-165940723Y-91305795D01*
X-166008683Y-91285253D01*
X-166053919Y-91233049D01*
X-166070151Y-91198238D01*
X-166070154Y-91198233D01*
X-166072477Y-91193251D01*
X-166203802Y-91005700D01*
X-166365700Y-90843802D01*
X-166370208Y-90840645D01*
X-166370211Y-90840643D01*
X-166476970Y-90765890D01*
X-166553251Y-90712477D01*
X-166558233Y-90710154D01*
X-166558238Y-90710151D01*
X-166755775Y-90618039D01*
X-166755776Y-90618039D01*
X-166760757Y-90615716D01*
X-166766065Y-90614294D01*
X-166766067Y-90614293D01*
X-166976598Y-90557881D01*
X-166976600Y-90557881D01*
X-166981913Y-90556457D01*
X-167210000Y-90536502D01*
X-167438087Y-90556457D01*
X-167443400Y-90557881D01*
X-167443402Y-90557881D01*
X-167653933Y-90614293D01*
X-167653935Y-90614294D01*
X-167659243Y-90615716D01*
X-167664224Y-90618039D01*
X-167664225Y-90618039D01*
X-167861762Y-90710151D01*
X-167861767Y-90710154D01*
X-167866749Y-90712477D01*
X-167943030Y-90765890D01*
X-168049789Y-90840643D01*
X-168049792Y-90840645D01*
X-168054300Y-90843802D01*
X-168216198Y-91005700D01*
X-168347523Y-91193251D01*
X-168349846Y-91198233D01*
X-168349849Y-91198238D01*
X-168365805Y-91232457D01*
X-168412722Y-91285742D01*
X-168480999Y-91305203D01*
X-168548959Y-91284661D01*
X-168594195Y-91232457D01*
X-168610151Y-91198238D01*
X-168610154Y-91198233D01*
X-168612477Y-91193251D01*
X-168743802Y-91005700D01*
X-168905700Y-90843802D01*
X-168910208Y-90840645D01*
X-168910211Y-90840643D01*
X-169016970Y-90765890D01*
X-169093251Y-90712477D01*
X-169098233Y-90710154D01*
X-169098238Y-90710151D01*
X-169295775Y-90618039D01*
X-169295776Y-90618039D01*
X-169300757Y-90615716D01*
X-169306065Y-90614294D01*
X-169306067Y-90614293D01*
X-169516598Y-90557881D01*
X-169516600Y-90557881D01*
X-169521913Y-90556457D01*
X-169750000Y-90536502D01*
X-169978087Y-90556457D01*
X-169983400Y-90557881D01*
X-169983402Y-90557881D01*
X-170193933Y-90614293D01*
X-170193935Y-90614294D01*
X-170199243Y-90615716D01*
X-170204224Y-90618039D01*
X-170204225Y-90618039D01*
X-170401762Y-90710151D01*
X-170401767Y-90710154D01*
X-170406749Y-90712477D01*
X-170483030Y-90765890D01*
X-170589789Y-90840643D01*
X-170589792Y-90840645D01*
X-170594300Y-90843802D01*
X-170756198Y-91005700D01*
X-170887523Y-91193251D01*
X-170889846Y-91198233D01*
X-170889849Y-91198238D01*
X-170905805Y-91232457D01*
X-170952722Y-91285742D01*
X-171020999Y-91305203D01*
X-171088959Y-91284661D01*
X-171134195Y-91232457D01*
X-171150151Y-91198238D01*
X-171150154Y-91198233D01*
X-171152477Y-91193251D01*
X-171283802Y-91005700D01*
X-171445700Y-90843802D01*
X-171450208Y-90840645D01*
X-171450211Y-90840643D01*
X-171556970Y-90765890D01*
X-171633251Y-90712477D01*
X-171638233Y-90710154D01*
X-171638238Y-90710151D01*
X-171835775Y-90618039D01*
X-171835776Y-90618039D01*
X-171840757Y-90615716D01*
X-171846065Y-90614294D01*
X-171846067Y-90614293D01*
X-172056598Y-90557881D01*
X-172056600Y-90557881D01*
X-172061913Y-90556457D01*
X-172290000Y-90536502D01*
X-172518087Y-90556457D01*
X-172523400Y-90557881D01*
X-172523402Y-90557881D01*
X-172733933Y-90614293D01*
X-172733935Y-90614294D01*
X-172739243Y-90615716D01*
X-172744225Y-90618039D01*
X-172744230Y-90618041D01*
X-172848214Y-90666529D01*
X-172918405Y-90677190D01*
X-172983218Y-90648210D01*
X-173022074Y-90588790D01*
X-173022637Y-90517795D01*
X-172990558Y-90463239D01*
X-172472724Y-89945405D01*
X-172410412Y-89911379D01*
X-172383629Y-89908500D01*
X-151829702Y-89908500D01*
X-151761581Y-89928502D01*
X-151715088Y-89982158D01*
X-151704984Y-90052432D01*
X-151733891Y-90116330D01*
X-151870960Y-90276818D01*
X-151874176Y-90280584D01*
X-151876755Y-90284792D01*
X-151876759Y-90284798D01*
X-151958820Y-90418709D01*
X-151998240Y-90483037D01*
X-152000133Y-90487607D01*
X-152000135Y-90487611D01*
X-152078660Y-90677190D01*
X-152089105Y-90702406D01*
X-152104346Y-90765890D01*
X-152139733Y-90913289D01*
X-152144535Y-90933289D01*
X-152163165Y-91170000D01*
X-152144535Y-91406711D01*
X-152143381Y-91411518D01*
X-152143380Y-91411524D01*
X-152116817Y-91522167D01*
X-152089105Y-91637594D01*
X-152087212Y-91642165D01*
X-152087211Y-91642167D01*
X-152004776Y-91841183D01*
X-151998240Y-91856963D01*
X-151995654Y-91861183D01*
X-151876759Y-92055202D01*
X-151876755Y-92055208D01*
X-151874176Y-92059416D01*
X-151719969Y-92239969D01*
X-151539416Y-92394176D01*
X-151535208Y-92396755D01*
X-151535202Y-92396759D01*
X-151357474Y-92505671D01*
X-151336963Y-92518240D01*
X-151336417Y-92518466D01*
X-151285682Y-92566382D01*
X-151268500Y-92629901D01*
X-151268500Y-93375035D01*
X-151288502Y-93443156D01*
X-151328663Y-93482466D01*
X-151399416Y-93525824D01*
X-151403178Y-93529037D01*
X-151432581Y-93554150D01*
X-151579969Y-93680031D01*
X-151734176Y-93860584D01*
X-151736755Y-93864792D01*
X-151736759Y-93864798D01*
X-151796949Y-93963019D01*
X-151858240Y-94063037D01*
X-151949105Y-94282406D01*
X-151950260Y-94287218D01*
X-152000384Y-94496000D01*
X-152004535Y-94513289D01*
X-152023165Y-94750000D01*
X-152004535Y-94986711D01*
X-152003381Y-94991518D01*
X-152003380Y-94991524D01*
X-151972466Y-95120290D01*
X-151949105Y-95217594D01*
X-151947212Y-95222165D01*
X-151947211Y-95222167D01*
X-151869458Y-95409879D01*
X-151858240Y-95436963D01*
X-151855654Y-95441183D01*
X-151736759Y-95635202D01*
X-151736755Y-95635208D01*
X-151734176Y-95639416D01*
X-151579969Y-95819969D01*
X-151576213Y-95823177D01*
X-151522669Y-95868908D01*
X-151483860Y-95928359D01*
X-151478500Y-95964719D01*
X-151478500Y-99988381D01*
X-151498502Y-100056502D01*
X-151513406Y-100075432D01*
X-151529371Y-100092138D01*
X-151655257Y-100276680D01*
X-151749312Y-100479305D01*
X-151809011Y-100694570D01*
X-151832749Y-100916695D01*
X-151819890Y-101139715D01*
X-151818753Y-101144761D01*
X-151818752Y-101144767D01*
X-151805403Y-101204000D01*
X-151770778Y-101357639D01*
X-151686734Y-101564616D01*
X-151649315Y-101625678D01*
X-151572709Y-101750688D01*
X-151570013Y-101755088D01*
X-151423750Y-101923938D01*
X-151251874Y-102066632D01*
X-151059000Y-102179338D01*
X-150850308Y-102259030D01*
X-150845240Y-102260061D01*
X-150845237Y-102260062D01*
X-150750138Y-102279410D01*
X-150631403Y-102303567D01*
X-150626228Y-102303757D01*
X-150626226Y-102303757D01*
X-150413327Y-102311564D01*
X-150413323Y-102311564D01*
X-150408163Y-102311753D01*
X-150403043Y-102311097D01*
X-150403041Y-102311097D01*
X-150191712Y-102284025D01*
X-150191711Y-102284025D01*
X-150186584Y-102283368D01*
X-150181634Y-102281883D01*
X-149977571Y-102220661D01*
X-149977566Y-102220659D01*
X-149972616Y-102219174D01*
X-149772006Y-102120896D01*
X-149590140Y-101991173D01*
X-149580868Y-101981934D01*
X-149489195Y-101890580D01*
X-149431904Y-101833489D01*
X-149372406Y-101750689D01*
X-149301547Y-101652077D01*
X-149300224Y-101653028D01*
X-149253355Y-101609857D01*
X-149183420Y-101597625D01*
X-149117974Y-101625144D01*
X-149090125Y-101656994D01*
X-149030013Y-101755088D01*
X-148883750Y-101923938D01*
X-148711874Y-102066632D01*
X-148519000Y-102179338D01*
X-148310308Y-102259030D01*
X-148305240Y-102260061D01*
X-148305237Y-102260062D01*
X-148210138Y-102279410D01*
X-148091403Y-102303567D01*
X-148086228Y-102303757D01*
X-148086226Y-102303757D01*
X-147873327Y-102311564D01*
X-147873323Y-102311564D01*
X-147868163Y-102311753D01*
X-147863043Y-102311097D01*
X-147863041Y-102311097D01*
X-147651712Y-102284025D01*
X-147651711Y-102284025D01*
X-147646584Y-102283368D01*
X-147641634Y-102281883D01*
X-147437571Y-102220661D01*
X-147437566Y-102220659D01*
X-147432616Y-102219174D01*
X-147232006Y-102120896D01*
X-147050140Y-101991173D01*
X-147040868Y-101981934D01*
X-146949195Y-101890580D01*
X-146891904Y-101833489D01*
X-146832406Y-101750689D01*
X-146761547Y-101652077D01*
X-146760224Y-101653028D01*
X-146713355Y-101609857D01*
X-146643420Y-101597625D01*
X-146577974Y-101625144D01*
X-146550125Y-101656994D01*
X-146490013Y-101755088D01*
X-146343750Y-101923938D01*
X-146171874Y-102066632D01*
X-145979000Y-102179338D01*
X-145770308Y-102259030D01*
X-145765240Y-102260061D01*
X-145765237Y-102260062D01*
X-145670138Y-102279410D01*
X-145551403Y-102303567D01*
X-145546228Y-102303757D01*
X-145546226Y-102303757D01*
X-145333327Y-102311564D01*
X-145333323Y-102311564D01*
X-145328163Y-102311753D01*
X-145323043Y-102311097D01*
X-145323041Y-102311097D01*
X-145111712Y-102284025D01*
X-145111711Y-102284025D01*
X-145106584Y-102283368D01*
X-145101634Y-102281883D01*
X-144897571Y-102220661D01*
X-144897566Y-102220659D01*
X-144892616Y-102219174D01*
X-144692006Y-102120896D01*
X-144510140Y-101991173D01*
X-144401909Y-101883319D01*
X-144339538Y-101849404D01*
X-144268732Y-101854592D01*
X-144211970Y-101897238D01*
X-144194988Y-101928341D01*
X-144150615Y-102046705D01*
X-144063261Y-102163261D01*
X-143946705Y-102250615D01*
X-143810316Y-102301745D01*
X-143748134Y-102308500D01*
X-141951866Y-102308500D01*
X-141889684Y-102301745D01*
X-141753295Y-102250615D01*
X-141636739Y-102163261D01*
X-141549385Y-102046705D01*
X-141498255Y-101910316D01*
X-141491500Y-101848134D01*
X-141491500Y-100051866D01*
X-141498255Y-99989684D01*
X-141549385Y-99853295D01*
X-141636739Y-99736739D01*
X-141753295Y-99649385D01*
X-141761704Y-99646233D01*
X-141769575Y-99641923D01*
X-141768664Y-99640259D01*
X-141816490Y-99604337D01*
X-141841193Y-99537776D01*
X-141841500Y-99528991D01*
X-141841500Y-96268417D01*
X-141821498Y-96200296D01*
X-141767842Y-96153803D01*
X-141697568Y-96143699D01*
X-141639935Y-96167591D01*
X-141603649Y-96194786D01*
X-141588054Y-96203324D01*
X-141467606Y-96248478D01*
X-141452351Y-96252105D01*
X-141401486Y-96257631D01*
X-141394672Y-96258000D01*
X-140622115Y-96258000D01*
X-140606876Y-96253525D01*
X-140605671Y-96252135D01*
X-140604000Y-96244452D01*
X-140604000Y-96239884D01*
X-140096000Y-96239884D01*
X-140091525Y-96255123D01*
X-140090135Y-96256328D01*
X-140082452Y-96257999D01*
X-139305331Y-96257999D01*
X-139298510Y-96257629D01*
X-139247648Y-96252105D01*
X-139232396Y-96248479D01*
X-139111946Y-96203324D01*
X-139096351Y-96194786D01*
X-138994276Y-96118285D01*
X-138981715Y-96105724D01*
X-138905214Y-96003649D01*
X-138896676Y-95988054D01*
X-138851522Y-95867606D01*
X-138847895Y-95852351D01*
X-138842369Y-95801486D01*
X-138842000Y-95794672D01*
X-138842000Y-95022115D01*
X-138846475Y-95006876D01*
X-138847865Y-95005671D01*
X-138855548Y-95004000D01*
X-140077885Y-95004000D01*
X-140093124Y-95008475D01*
X-140094329Y-95009865D01*
X-140096000Y-95017548D01*
X-140096000Y-96239884D01*
X-140604000Y-96239884D01*
X-140604000Y-94477885D01*
X-140096000Y-94477885D01*
X-140091525Y-94493124D01*
X-140090135Y-94494329D01*
X-140082452Y-94496000D01*
X-138860116Y-94496000D01*
X-138844877Y-94491525D01*
X-138843672Y-94490135D01*
X-138842001Y-94482452D01*
X-138842001Y-93705331D01*
X-138842371Y-93698510D01*
X-138847895Y-93647648D01*
X-138851521Y-93632396D01*
X-138896676Y-93511946D01*
X-138905214Y-93496351D01*
X-138981715Y-93394276D01*
X-138994276Y-93381715D01*
X-139096351Y-93305214D01*
X-139111946Y-93296676D01*
X-139232394Y-93251522D01*
X-139247649Y-93247895D01*
X-139298514Y-93242369D01*
X-139305328Y-93242000D01*
X-140077885Y-93242000D01*
X-140093124Y-93246475D01*
X-140094329Y-93247865D01*
X-140096000Y-93255548D01*
X-140096000Y-94477885D01*
X-140604000Y-94477885D01*
X-140604000Y-93260116D01*
X-140608475Y-93244877D01*
X-140609865Y-93243672D01*
X-140617548Y-93242001D01*
X-140665130Y-93242001D01*
X-140733251Y-93221999D01*
X-140779744Y-93168343D01*
X-140789848Y-93098069D01*
X-140760354Y-93033489D01*
X-140754225Y-93026906D01*
X-140383893Y-92656574D01*
X-140324212Y-92623150D01*
X-140239979Y-92602927D01*
X-140182406Y-92589105D01*
X-140177833Y-92587211D01*
X-139967611Y-92500135D01*
X-139967607Y-92500133D01*
X-139963037Y-92498240D01*
X-139905965Y-92463266D01*
X-139764798Y-92376759D01*
X-139764792Y-92376755D01*
X-139760584Y-92374176D01*
X-139580031Y-92219969D01*
X-139425824Y-92039416D01*
X-139423245Y-92035208D01*
X-139423241Y-92035202D01*
X-139304346Y-91841183D01*
X-139301760Y-91836963D01*
X-139282377Y-91790170D01*
X-139212789Y-91622167D01*
X-139212788Y-91622165D01*
X-139210895Y-91617594D01*
X-139161422Y-91411524D01*
X-139156620Y-91391524D01*
X-139156619Y-91391518D01*
X-139155465Y-91386711D01*
X-139136835Y-91150000D01*
X-139155465Y-90913289D01*
X-139171211Y-90847699D01*
X-139204938Y-90707218D01*
X-139210895Y-90682406D01*
X-139212789Y-90677833D01*
X-139299865Y-90467611D01*
X-139299867Y-90467607D01*
X-139301760Y-90463037D01*
X-139365626Y-90358817D01*
X-139423241Y-90264798D01*
X-139423245Y-90264792D01*
X-139425824Y-90260584D01*
X-139580031Y-90080031D01*
X-139760584Y-89925824D01*
X-139764792Y-89923245D01*
X-139764798Y-89923241D01*
X-139958817Y-89804346D01*
X-139963037Y-89801760D01*
X-139967607Y-89799867D01*
X-139967611Y-89799865D01*
X-140177833Y-89712789D01*
X-140177835Y-89712788D01*
X-140182406Y-89710895D01*
X-140317749Y-89678402D01*
X-140408476Y-89656620D01*
X-140408482Y-89656619D01*
X-140413289Y-89655465D01*
X-140650000Y-89636835D01*
X-140886711Y-89655465D01*
X-140891518Y-89656619D01*
X-140891524Y-89656620D01*
X-140973496Y-89676300D01*
X-141044404Y-89672753D01*
X-141102138Y-89631433D01*
X-141128368Y-89565459D01*
X-141114765Y-89495778D01*
X-141092005Y-89464686D01*
X-140161089Y-88533770D01*
X-140146677Y-88521384D01*
X-140135082Y-88512851D01*
X-140135077Y-88512846D01*
X-140129182Y-88508508D01*
X-140124443Y-88502930D01*
X-140124440Y-88502927D01*
X-140094965Y-88468232D01*
X-140088035Y-88460716D01*
X-140082340Y-88455021D01*
X-140064719Y-88432749D01*
X-140061928Y-88429345D01*
X-140019409Y-88379297D01*
X-140019408Y-88379295D01*
X-140014667Y-88373715D01*
X-140011339Y-88367199D01*
X-140007972Y-88362150D01*
X-140004805Y-88357021D01*
X-140000266Y-88351284D01*
X-139969345Y-88285125D01*
X-139967439Y-88281225D01*
X-139939891Y-88227276D01*
X-139934231Y-88216192D01*
X-139932492Y-88209084D01*
X-139930393Y-88203441D01*
X-139928476Y-88197678D01*
X-139925378Y-88191050D01*
X-139910513Y-88119583D01*
X-139909543Y-88115299D01*
X-139907018Y-88104979D01*
X-139892192Y-88044390D01*
X-139891500Y-88033236D01*
X-139891464Y-88033238D01*
X-139891225Y-88029245D01*
X-139890851Y-88025053D01*
X-139889360Y-88017885D01*
X-139891454Y-87940479D01*
X-139891500Y-87937072D01*
X-139891500Y-82364965D01*
X-139871498Y-82296844D01*
X-139831336Y-82257533D01*
X-139760584Y-82214176D01*
X-139580031Y-82059969D01*
X-139425824Y-81879416D01*
X-139423245Y-81875208D01*
X-139423241Y-81875202D01*
X-139304346Y-81681183D01*
X-139301760Y-81676963D01*
X-139210895Y-81457594D01*
X-139161422Y-81251524D01*
X-139156620Y-81231524D01*
X-139156619Y-81231518D01*
X-139155465Y-81226711D01*
X-139136835Y-80990000D01*
X-139155465Y-80753289D01*
X-139210895Y-80522406D01*
X-139291581Y-80327611D01*
X-139299865Y-80307611D01*
X-139299867Y-80307607D01*
X-139301760Y-80303037D01*
X-139365626Y-80198817D01*
X-139423241Y-80104798D01*
X-139423245Y-80104792D01*
X-139425824Y-80100584D01*
X-139580031Y-79920031D01*
X-139760584Y-79765824D01*
X-139764792Y-79763245D01*
X-139764798Y-79763241D01*
X-139958817Y-79644346D01*
X-139963037Y-79641760D01*
X-139967607Y-79639867D01*
X-139967611Y-79639865D01*
X-140177833Y-79552789D01*
X-140177835Y-79552788D01*
X-140182406Y-79550895D01*
X-140269228Y-79530051D01*
X-140408476Y-79496620D01*
X-140408482Y-79496619D01*
X-140413289Y-79495465D01*
X-140650000Y-79476835D01*
X-140886711Y-79495465D01*
X-140891518Y-79496619D01*
X-140891524Y-79496620D01*
X-141030772Y-79530051D01*
X-141117594Y-79550895D01*
X-141122165Y-79552788D01*
X-141122167Y-79552789D01*
X-141332389Y-79639865D01*
X-141332393Y-79639867D01*
X-141336963Y-79641760D01*
X-141341183Y-79644346D01*
X-141535202Y-79763241D01*
X-141535208Y-79763245D01*
X-141539416Y-79765824D01*
X-141719969Y-79920031D01*
X-141874176Y-80100584D01*
X-141876755Y-80104792D01*
X-141876759Y-80104798D01*
X-141934374Y-80198817D01*
X-141998240Y-80303037D01*
X-142000133Y-80307607D01*
X-142000135Y-80307611D01*
X-142008419Y-80327611D01*
X-142089105Y-80522406D01*
X-142144535Y-80753289D01*
X-142163165Y-80990000D01*
X-142144535Y-81226711D01*
X-142143381Y-81231518D01*
X-142143380Y-81231524D01*
X-142138578Y-81251524D01*
X-142089105Y-81457594D01*
X-141998240Y-81676963D01*
X-141995654Y-81681183D01*
X-141876759Y-81875202D01*
X-141876755Y-81875208D01*
X-141874176Y-81879416D01*
X-141719969Y-82059969D01*
X-141539416Y-82214176D01*
X-141468664Y-82257533D01*
X-141421033Y-82310181D01*
X-141408500Y-82364965D01*
X-141408500Y-87583629D01*
X-141428502Y-87651750D01*
X-141445405Y-87672724D01*
X-142127276Y-88354595D01*
X-142189588Y-88388621D01*
X-142216371Y-88391500D01*
X-144014629Y-88391500D01*
X-144082750Y-88371498D01*
X-144129243Y-88317842D01*
X-144139347Y-88247568D01*
X-144109853Y-88182988D01*
X-144103724Y-88176405D01*
X-143461089Y-87533770D01*
X-143446677Y-87521384D01*
X-143435082Y-87512851D01*
X-143435077Y-87512846D01*
X-143429182Y-87508508D01*
X-143424443Y-87502930D01*
X-143424440Y-87502927D01*
X-143394965Y-87468232D01*
X-143388035Y-87460716D01*
X-143382340Y-87455021D01*
X-143372341Y-87442383D01*
X-143364719Y-87432749D01*
X-143361928Y-87429345D01*
X-143319409Y-87379297D01*
X-143319408Y-87379295D01*
X-143314667Y-87373715D01*
X-143311339Y-87367199D01*
X-143307972Y-87362150D01*
X-143304805Y-87357021D01*
X-143300266Y-87351284D01*
X-143269345Y-87285125D01*
X-143267439Y-87281225D01*
X-143234231Y-87216192D01*
X-143232492Y-87209084D01*
X-143230393Y-87203441D01*
X-143228476Y-87197678D01*
X-143225378Y-87191050D01*
X-143210513Y-87119583D01*
X-143209543Y-87115299D01*
X-143193527Y-87049845D01*
X-143192192Y-87044390D01*
X-143191500Y-87033236D01*
X-143191464Y-87033238D01*
X-143191225Y-87029245D01*
X-143190851Y-87025053D01*
X-143189360Y-87017885D01*
X-143191454Y-86940479D01*
X-143191500Y-86937072D01*
X-143191500Y-82264965D01*
X-143171498Y-82196844D01*
X-143131336Y-82157533D01*
X-143060584Y-82114176D01*
X-142880031Y-81959969D01*
X-142725824Y-81779416D01*
X-142723245Y-81775208D01*
X-142723241Y-81775202D01*
X-142604346Y-81581183D01*
X-142601760Y-81576963D01*
X-142510895Y-81357594D01*
X-142455465Y-81126711D01*
X-142436835Y-80890000D01*
X-142455465Y-80653289D01*
X-142482085Y-80542406D01*
X-142509740Y-80427218D01*
X-142510895Y-80422406D01*
X-142550160Y-80327611D01*
X-142599865Y-80207611D01*
X-142599867Y-80207607D01*
X-142601760Y-80203037D01*
X-142649705Y-80124798D01*
X-142723241Y-80004798D01*
X-142723245Y-80004792D01*
X-142725824Y-80000584D01*
X-142880031Y-79820031D01*
X-143060584Y-79665824D01*
X-143064792Y-79663245D01*
X-143064798Y-79663241D01*
X-143258817Y-79544346D01*
X-143263037Y-79541760D01*
X-143267607Y-79539867D01*
X-143267611Y-79539865D01*
X-143477833Y-79452789D01*
X-143477835Y-79452788D01*
X-143482406Y-79450895D01*
X-143569444Y-79429999D01*
X-143708476Y-79396620D01*
X-143708482Y-79396619D01*
X-143713289Y-79395465D01*
X-143950000Y-79376835D01*
X-144186711Y-79395465D01*
X-144191518Y-79396619D01*
X-144191524Y-79396620D01*
X-144330556Y-79429999D01*
X-144417594Y-79450895D01*
X-144422165Y-79452788D01*
X-144422167Y-79452789D01*
X-144632389Y-79539865D01*
X-144632393Y-79539867D01*
X-144636963Y-79541760D01*
X-144641183Y-79544346D01*
X-144835202Y-79663241D01*
X-144835208Y-79663245D01*
X-144839416Y-79665824D01*
X-145019969Y-79820031D01*
X-145174176Y-80000584D01*
X-145176755Y-80004792D01*
X-145176759Y-80004798D01*
X-145250295Y-80124798D01*
X-145298240Y-80203037D01*
X-145300133Y-80207607D01*
X-145300135Y-80207611D01*
X-145349840Y-80327611D01*
X-145389105Y-80422406D01*
X-145390260Y-80427218D01*
X-145417914Y-80542406D01*
X-145444535Y-80653289D01*
X-145463165Y-80890000D01*
X-145444535Y-81126711D01*
X-145389105Y-81357594D01*
X-145298240Y-81576963D01*
X-145295654Y-81581183D01*
X-145176759Y-81775202D01*
X-145176755Y-81775208D01*
X-145174176Y-81779416D01*
X-145019969Y-81959969D01*
X-144839416Y-82114176D01*
X-144768664Y-82157533D01*
X-144721033Y-82210181D01*
X-144708500Y-82264965D01*
X-144708500Y-86583629D01*
X-144728502Y-86651750D01*
X-144745405Y-86672724D01*
X-145627276Y-87554595D01*
X-145689588Y-87588621D01*
X-145716371Y-87591500D01*
X-147314629Y-87591500D01*
X-147382750Y-87571498D01*
X-147429243Y-87517842D01*
X-147439347Y-87447568D01*
X-147409853Y-87382988D01*
X-147403724Y-87376405D01*
X-146861089Y-86833770D01*
X-146846677Y-86821384D01*
X-146835082Y-86812851D01*
X-146835077Y-86812846D01*
X-146829182Y-86808508D01*
X-146824443Y-86802930D01*
X-146824440Y-86802927D01*
X-146794965Y-86768232D01*
X-146788035Y-86760716D01*
X-146782340Y-86755021D01*
X-146764719Y-86732749D01*
X-146761928Y-86729345D01*
X-146719409Y-86679297D01*
X-146719408Y-86679295D01*
X-146714667Y-86673715D01*
X-146711339Y-86667199D01*
X-146707972Y-86662150D01*
X-146704805Y-86657021D01*
X-146700266Y-86651284D01*
X-146669345Y-86585125D01*
X-146667439Y-86581225D01*
X-146634231Y-86516192D01*
X-146632492Y-86509084D01*
X-146630393Y-86503441D01*
X-146628476Y-86497678D01*
X-146625378Y-86491050D01*
X-146610513Y-86419583D01*
X-146609543Y-86415299D01*
X-146592192Y-86344390D01*
X-146591500Y-86333236D01*
X-146591464Y-86333238D01*
X-146591225Y-86329245D01*
X-146590851Y-86325053D01*
X-146589360Y-86317885D01*
X-146591454Y-86240479D01*
X-146591500Y-86237072D01*
X-146591500Y-82364965D01*
X-146571498Y-82296844D01*
X-146531336Y-82257533D01*
X-146460584Y-82214176D01*
X-146280031Y-82059969D01*
X-146125824Y-81879416D01*
X-146123245Y-81875208D01*
X-146123241Y-81875202D01*
X-146004346Y-81681183D01*
X-146001760Y-81676963D01*
X-145910895Y-81457594D01*
X-145861422Y-81251524D01*
X-145856620Y-81231524D01*
X-145856619Y-81231518D01*
X-145855465Y-81226711D01*
X-145836835Y-80990000D01*
X-145855465Y-80753289D01*
X-145910895Y-80522406D01*
X-145991581Y-80327611D01*
X-145999865Y-80307611D01*
X-145999867Y-80307607D01*
X-146001760Y-80303037D01*
X-146065626Y-80198817D01*
X-146123241Y-80104798D01*
X-146123245Y-80104792D01*
X-146125824Y-80100584D01*
X-146280031Y-79920031D01*
X-146460584Y-79765824D01*
X-146464792Y-79763245D01*
X-146464798Y-79763241D01*
X-146658817Y-79644346D01*
X-146663037Y-79641760D01*
X-146667607Y-79639867D01*
X-146667611Y-79639865D01*
X-146877833Y-79552789D01*
X-146877835Y-79552788D01*
X-146882406Y-79550895D01*
X-146969228Y-79530051D01*
X-147108476Y-79496620D01*
X-147108482Y-79496619D01*
X-147113289Y-79495465D01*
X-147350000Y-79476835D01*
X-147586711Y-79495465D01*
X-147591518Y-79496619D01*
X-147591524Y-79496620D01*
X-147730772Y-79530051D01*
X-147817594Y-79550895D01*
X-147822165Y-79552788D01*
X-147822167Y-79552789D01*
X-148032389Y-79639865D01*
X-148032393Y-79639867D01*
X-148036963Y-79641760D01*
X-148041183Y-79644346D01*
X-148235202Y-79763241D01*
X-148235208Y-79763245D01*
X-148239416Y-79765824D01*
X-148419969Y-79920031D01*
X-148574176Y-80100584D01*
X-148576755Y-80104792D01*
X-148576759Y-80104798D01*
X-148634374Y-80198817D01*
X-148698240Y-80303037D01*
X-148700133Y-80307607D01*
X-148700135Y-80307611D01*
X-148708419Y-80327611D01*
X-148789105Y-80522406D01*
X-148844535Y-80753289D01*
X-148863165Y-80990000D01*
X-148844535Y-81226711D01*
X-148843381Y-81231518D01*
X-148843380Y-81231524D01*
X-148838578Y-81251524D01*
X-148789105Y-81457594D01*
X-148698240Y-81676963D01*
X-148695654Y-81681183D01*
X-148576759Y-81875202D01*
X-148576755Y-81875208D01*
X-148574176Y-81879416D01*
X-148419969Y-82059969D01*
X-148239416Y-82214176D01*
X-148168664Y-82257533D01*
X-148121033Y-82310181D01*
X-148108500Y-82364965D01*
X-148108500Y-85883629D01*
X-148128502Y-85951750D01*
X-148145405Y-85972724D01*
X-149027276Y-86854595D01*
X-149089588Y-86888621D01*
X-149116371Y-86891500D01*
X-150214629Y-86891500D01*
X-150282750Y-86871498D01*
X-150329243Y-86817842D01*
X-150339347Y-86747568D01*
X-150309853Y-86682988D01*
X-150303724Y-86676405D01*
X-150161089Y-86533770D01*
X-150146677Y-86521384D01*
X-150135082Y-86512851D01*
X-150135077Y-86512846D01*
X-150129182Y-86508508D01*
X-150124443Y-86502930D01*
X-150124440Y-86502927D01*
X-150094965Y-86468232D01*
X-150088035Y-86460716D01*
X-150082340Y-86455021D01*
X-150064719Y-86432749D01*
X-150061928Y-86429345D01*
X-150019409Y-86379297D01*
X-150019408Y-86379295D01*
X-150014667Y-86373715D01*
X-150011339Y-86367199D01*
X-150007972Y-86362150D01*
X-150004805Y-86357021D01*
X-150000266Y-86351284D01*
X-149969345Y-86285125D01*
X-149967439Y-86281225D01*
X-149959515Y-86265707D01*
X-149934231Y-86216192D01*
X-149932492Y-86209083D01*
X-149930396Y-86203449D01*
X-149928477Y-86197679D01*
X-149925378Y-86191050D01*
X-149919827Y-86164366D01*
X-149910510Y-86119571D01*
X-149909539Y-86115282D01*
X-149907851Y-86108385D01*
X-149892192Y-86044390D01*
X-149891500Y-86033236D01*
X-149891465Y-86033238D01*
X-149891225Y-86029266D01*
X-149890848Y-86025045D01*
X-149889359Y-86017885D01*
X-149891454Y-85940458D01*
X-149891500Y-85937050D01*
X-149891500Y-82384965D01*
X-149871498Y-82316844D01*
X-149831336Y-82277533D01*
X-149760584Y-82234176D01*
X-149670847Y-82157533D01*
X-149583787Y-82083177D01*
X-149580031Y-82079969D01*
X-149425824Y-81899416D01*
X-149423245Y-81895208D01*
X-149423241Y-81895202D01*
X-149304346Y-81701183D01*
X-149301760Y-81696963D01*
X-149295223Y-81681183D01*
X-149212789Y-81482167D01*
X-149212788Y-81482165D01*
X-149210895Y-81477594D01*
X-149183183Y-81362167D01*
X-149156620Y-81251524D01*
X-149156619Y-81251518D01*
X-149155465Y-81246711D01*
X-149136835Y-81010000D01*
X-149155465Y-80773289D01*
X-149160266Y-80753289D01*
X-149209740Y-80547218D01*
X-149210895Y-80542406D01*
X-149301760Y-80323037D01*
X-149370521Y-80210830D01*
X-149423241Y-80124798D01*
X-149423245Y-80124792D01*
X-149425824Y-80120584D01*
X-149580031Y-79940031D01*
X-149760584Y-79785824D01*
X-149764792Y-79783245D01*
X-149764798Y-79783241D01*
X-149958817Y-79664346D01*
X-149963037Y-79661760D01*
X-149967607Y-79659867D01*
X-149967611Y-79659865D01*
X-150177833Y-79572789D01*
X-150177835Y-79572788D01*
X-150182406Y-79570895D01*
X-150270523Y-79549740D01*
X-150408476Y-79516620D01*
X-150408482Y-79516619D01*
X-150413289Y-79515465D01*
X-150650000Y-79496835D01*
X-150886711Y-79515465D01*
X-150891518Y-79516619D01*
X-150891524Y-79516620D01*
X-151029477Y-79549740D01*
X-151117594Y-79570895D01*
X-151122165Y-79572788D01*
X-151122167Y-79572789D01*
X-151332389Y-79659865D01*
X-151332393Y-79659867D01*
X-151336963Y-79661760D01*
X-151341183Y-79664346D01*
X-151535202Y-79783241D01*
X-151535208Y-79783245D01*
X-151539416Y-79785824D01*
X-151719969Y-79940031D01*
X-151874176Y-80120584D01*
X-151876755Y-80124792D01*
X-151876759Y-80124798D01*
X-151929479Y-80210830D01*
X-151998240Y-80323037D01*
X-152089105Y-80542406D01*
X-152090260Y-80547218D01*
X-152139733Y-80753289D01*
X-152144535Y-80773289D01*
X-152163165Y-81010000D01*
X-152144535Y-81246711D01*
X-152143381Y-81251518D01*
X-152143380Y-81251524D01*
X-152116817Y-81362167D01*
X-152089105Y-81477594D01*
X-152087212Y-81482165D01*
X-152087211Y-81482167D01*
X-152004776Y-81681183D01*
X-151998240Y-81696963D01*
X-151995654Y-81701183D01*
X-151876759Y-81895202D01*
X-151876755Y-81895208D01*
X-151874176Y-81899416D01*
X-151719969Y-82079969D01*
X-151716213Y-82083177D01*
X-151629153Y-82157533D01*
X-151539416Y-82234176D01*
X-151468664Y-82277533D01*
X-151421033Y-82330181D01*
X-151408500Y-82384965D01*
X-151408500Y-85583629D01*
X-151428502Y-85651750D01*
X-151445405Y-85672724D01*
X-151727276Y-85954595D01*
X-151789588Y-85988621D01*
X-151816371Y-85991500D01*
X-163503822Y-85991500D01*
X-163571943Y-85971498D01*
X-163618436Y-85917842D01*
X-163628540Y-85847568D01*
X-163607035Y-85793229D01*
X-163535634Y-85691258D01*
X-163535633Y-85691256D01*
X-163532477Y-85686749D01*
X-163530154Y-85681767D01*
X-163530151Y-85681762D01*
X-163438039Y-85484225D01*
X-163438039Y-85484224D01*
X-163435716Y-85479243D01*
X-163376457Y-85258087D01*
X-163361500Y-85087127D01*
X-163361500Y-84172873D01*
X-163376457Y-84001913D01*
X-163435716Y-83780757D01*
X-163514195Y-83612457D01*
X-163530151Y-83578238D01*
X-163530154Y-83578233D01*
X-163532477Y-83573251D01*
X-163663802Y-83385700D01*
X-163825700Y-83223802D01*
X-163830208Y-83220645D01*
X-163830211Y-83220643D01*
X-163908389Y-83165902D01*
X-164013251Y-83092477D01*
X-164018233Y-83090154D01*
X-164018238Y-83090151D01*
X-164215775Y-82998039D01*
X-164215776Y-82998039D01*
X-164220757Y-82995716D01*
X-164226065Y-82994294D01*
X-164226067Y-82994293D01*
X-164436598Y-82937881D01*
X-164436600Y-82937881D01*
X-164441913Y-82936457D01*
X-164670000Y-82916502D01*
X-164898087Y-82936457D01*
X-164903400Y-82937881D01*
X-164903402Y-82937881D01*
X-165113933Y-82994293D01*
X-165113935Y-82994294D01*
X-165119243Y-82995716D01*
X-165124224Y-82998039D01*
X-165124225Y-82998039D01*
X-165321762Y-83090151D01*
X-165321767Y-83090154D01*
X-165326749Y-83092477D01*
X-165431611Y-83165902D01*
X-165509789Y-83220643D01*
X-165509792Y-83220645D01*
X-165514300Y-83223802D01*
X-165676198Y-83385700D01*
X-165807523Y-83573251D01*
X-165809846Y-83578233D01*
X-165809849Y-83578238D01*
X-165825805Y-83612457D01*
X-165872722Y-83665742D01*
X-165940999Y-83685203D01*
X-166008959Y-83664661D01*
X-166054195Y-83612457D01*
X-166070151Y-83578238D01*
X-166070154Y-83578233D01*
X-166072477Y-83573251D01*
X-166203802Y-83385700D01*
X-166365700Y-83223802D01*
X-166370208Y-83220645D01*
X-166370211Y-83220643D01*
X-166448389Y-83165902D01*
X-166553251Y-83092477D01*
X-166558233Y-83090154D01*
X-166558238Y-83090151D01*
X-166755775Y-82998039D01*
X-166755776Y-82998039D01*
X-166760757Y-82995716D01*
X-166766065Y-82994294D01*
X-166766067Y-82994293D01*
X-166976598Y-82937881D01*
X-166976600Y-82937881D01*
X-166981913Y-82936457D01*
X-167210000Y-82916502D01*
X-167438087Y-82936457D01*
X-167443400Y-82937881D01*
X-167443402Y-82937881D01*
X-167653933Y-82994293D01*
X-167653935Y-82994294D01*
X-167659243Y-82995716D01*
X-167664224Y-82998039D01*
X-167664225Y-82998039D01*
X-167861762Y-83090151D01*
X-167861767Y-83090154D01*
X-167866749Y-83092477D01*
X-167971611Y-83165902D01*
X-168049789Y-83220643D01*
X-168049792Y-83220645D01*
X-168054300Y-83223802D01*
X-168216198Y-83385700D01*
X-168347523Y-83573251D01*
X-168349846Y-83578233D01*
X-168349849Y-83578238D01*
X-168365805Y-83612457D01*
X-168412722Y-83665742D01*
X-168480999Y-83685203D01*
X-168548959Y-83664661D01*
X-168594195Y-83612457D01*
X-168610151Y-83578238D01*
X-168610154Y-83578233D01*
X-168612477Y-83573251D01*
X-168743802Y-83385700D01*
X-168905700Y-83223802D01*
X-168910208Y-83220645D01*
X-168910211Y-83220643D01*
X-168988389Y-83165902D01*
X-169093251Y-83092477D01*
X-169098233Y-83090154D01*
X-169098238Y-83090151D01*
X-169295775Y-82998039D01*
X-169295776Y-82998039D01*
X-169300757Y-82995716D01*
X-169306065Y-82994294D01*
X-169306067Y-82994293D01*
X-169516598Y-82937881D01*
X-169516600Y-82937881D01*
X-169521913Y-82936457D01*
X-169750000Y-82916502D01*
X-169978087Y-82936457D01*
X-169983400Y-82937881D01*
X-169983402Y-82937881D01*
X-170193933Y-82994293D01*
X-170193935Y-82994294D01*
X-170199243Y-82995716D01*
X-170204224Y-82998039D01*
X-170204225Y-82998039D01*
X-170401762Y-83090151D01*
X-170401767Y-83090154D01*
X-170406749Y-83092477D01*
X-170511611Y-83165902D01*
X-170589789Y-83220643D01*
X-170589792Y-83220645D01*
X-170594300Y-83223802D01*
X-170756198Y-83385700D01*
X-170887523Y-83573251D01*
X-170889846Y-83578233D01*
X-170889849Y-83578238D01*
X-170905805Y-83612457D01*
X-170952722Y-83665742D01*
X-171020999Y-83685203D01*
X-171088959Y-83664661D01*
X-171134195Y-83612457D01*
X-171150151Y-83578238D01*
X-171150154Y-83578233D01*
X-171152477Y-83573251D01*
X-171283802Y-83385700D01*
X-171445700Y-83223802D01*
X-171450208Y-83220645D01*
X-171450211Y-83220643D01*
X-171528389Y-83165902D01*
X-171633251Y-83092477D01*
X-171638233Y-83090154D01*
X-171638238Y-83090151D01*
X-171835775Y-82998039D01*
X-171835776Y-82998039D01*
X-171840757Y-82995716D01*
X-171846065Y-82994294D01*
X-171846067Y-82994293D01*
X-172056598Y-82937881D01*
X-172056600Y-82937881D01*
X-172061913Y-82936457D01*
X-172290000Y-82916502D01*
X-172518087Y-82936457D01*
X-172523400Y-82937881D01*
X-172523402Y-82937881D01*
X-172733933Y-82994293D01*
X-172733935Y-82994294D01*
X-172739243Y-82995716D01*
X-172744224Y-82998039D01*
X-172744225Y-82998039D01*
X-172941762Y-83090151D01*
X-172941767Y-83090154D01*
X-172946749Y-83092477D01*
X-173051611Y-83165902D01*
X-173129789Y-83220643D01*
X-173129792Y-83220645D01*
X-173134300Y-83223802D01*
X-173296198Y-83385700D01*
X-173427523Y-83573251D01*
X-173429846Y-83578233D01*
X-173429849Y-83578238D01*
X-173445805Y-83612457D01*
X-173492722Y-83665742D01*
X-173560999Y-83685203D01*
X-173628959Y-83664661D01*
X-173674195Y-83612457D01*
X-173690151Y-83578238D01*
X-173690154Y-83578233D01*
X-173692477Y-83573251D01*
X-173798713Y-83421531D01*
X-173821500Y-83349260D01*
X-173821500Y-80299925D01*
X-173801498Y-80231804D01*
X-173784595Y-80210830D01*
X-172469171Y-78895405D01*
X-172406859Y-78861380D01*
X-172380076Y-78858500D01*
X-132911843Y-78858500D01*
X-132898236Y-78859237D01*
X-132866738Y-78862659D01*
X-132866733Y-78862659D01*
X-132860612Y-78863324D01*
X-132834362Y-78861027D01*
X-132810612Y-78858950D01*
X-132805786Y-78858621D01*
X-132803314Y-78858500D01*
X-132800231Y-78858500D01*
X-132788262Y-78857326D01*
X-132757494Y-78854310D01*
X-132756181Y-78854188D01*
X-132711916Y-78850315D01*
X-132663587Y-78846087D01*
X-132658468Y-78844600D01*
X-132653167Y-78844080D01*
X-132564166Y-78817209D01*
X-132563033Y-78816874D01*
X-132479586Y-78792630D01*
X-132479582Y-78792628D01*
X-132473664Y-78790909D01*
X-132468932Y-78788456D01*
X-132463831Y-78786916D01*
X-132458388Y-78784022D01*
X-132381740Y-78743269D01*
X-132380574Y-78742657D01*
X-132303547Y-78702729D01*
X-132298074Y-78699892D01*
X-132293911Y-78696569D01*
X-132289204Y-78694066D01*
X-132217082Y-78635245D01*
X-132216226Y-78634554D01*
X-132177027Y-78603262D01*
X-132174523Y-78600758D01*
X-132173805Y-78600116D01*
X-132169472Y-78596415D01*
X-132135938Y-78569065D01*
X-132126365Y-78557494D01*
X-132106713Y-78533738D01*
X-132098723Y-78524958D01*
X-129990621Y-76416855D01*
X-129980478Y-76407753D01*
X-129955782Y-76387897D01*
X-129950975Y-76384032D01*
X-129918708Y-76345578D01*
X-129915528Y-76341931D01*
X-129913885Y-76340119D01*
X-129911691Y-76337925D01*
X-129884358Y-76304651D01*
X-129883652Y-76303800D01*
X-129827805Y-76237244D01*
X-129823846Y-76232526D01*
X-129821278Y-76227856D01*
X-129817897Y-76223739D01*
X-129773985Y-76141842D01*
X-129773376Y-76140720D01*
X-129731534Y-76064611D01*
X-129731532Y-76064606D01*
X-129728567Y-76059213D01*
X-129726956Y-76054135D01*
X-129724437Y-76049437D01*
X-129697247Y-75960502D01*
X-129696864Y-75959272D01*
X-129670629Y-75876570D01*
X-129668765Y-75870694D01*
X-129668172Y-75865403D01*
X-129666612Y-75860302D01*
X-129657205Y-75767689D01*
X-129657085Y-75766569D01*
X-129651500Y-75716773D01*
X-129651500Y-75713244D01*
X-129651445Y-75712261D01*
X-129650996Y-75706556D01*
X-129647248Y-75669664D01*
X-129647248Y-75669661D01*
X-129646626Y-75663537D01*
X-129650941Y-75617888D01*
X-129651500Y-75606031D01*
X-129651500Y-68196309D01*
X-129631498Y-68128188D01*
X-129607331Y-68100498D01*
X-129558323Y-68058641D01*
X-129554567Y-68055433D01*
X-129531297Y-68028188D01*
X-129398465Y-67872663D01*
X-129398463Y-67872660D01*
X-129395248Y-67868896D01*
X-129267073Y-67659732D01*
X-129173195Y-67433092D01*
X-129148032Y-67328280D01*
X-129117083Y-67199370D01*
X-129117082Y-67199364D01*
X-129115928Y-67194557D01*
X-129096681Y-66950000D01*
X-129115928Y-66705443D01*
X-129173195Y-66466908D01*
X-129267073Y-66240268D01*
X-129383465Y-66050333D01*
X-129402002Y-65981801D01*
X-129380545Y-65914124D01*
X-129325906Y-65868791D01*
X-129276031Y-65858500D01*
X-129243032Y-65858500D01*
X-128830762Y-65821395D01*
X-128423479Y-65747484D01*
X-128024460Y-65637362D01*
X-127945903Y-65607879D01*
X-127813091Y-65558034D01*
X-127768818Y-65550000D01*
X-124683690Y-65550000D01*
X-124615569Y-65570002D01*
X-124569076Y-65623658D01*
X-124558972Y-65693932D01*
X-124565708Y-65720229D01*
X-124588971Y-65782282D01*
X-124588973Y-65782288D01*
X-124591745Y-65789684D01*
X-124598500Y-65851866D01*
X-124598500Y-68048134D01*
X-124591745Y-68110316D01*
X-124540615Y-68246705D01*
X-124453261Y-68363261D01*
X-124336705Y-68450615D01*
X-124200316Y-68501745D01*
X-124173086Y-68504703D01*
X-124160892Y-68506028D01*
X-124095330Y-68533270D01*
X-124054904Y-68591634D01*
X-124048500Y-68631291D01*
X-124048500Y-69498157D01*
X-124049237Y-69511764D01*
X-124052002Y-69537223D01*
X-124053324Y-69549388D01*
X-124052480Y-69559032D01*
X-124048950Y-69599388D01*
X-124048621Y-69604214D01*
X-124048500Y-69606686D01*
X-124048500Y-69609769D01*
X-124048199Y-69612837D01*
X-124044310Y-69652506D01*
X-124044188Y-69653819D01*
X-124040455Y-69696484D01*
X-124036087Y-69746413D01*
X-124034600Y-69751532D01*
X-124034080Y-69756833D01*
X-124007209Y-69845834D01*
X-124006874Y-69846967D01*
X-123983030Y-69929035D01*
X-123980909Y-69936336D01*
X-123978456Y-69941068D01*
X-123976916Y-69946169D01*
X-123974022Y-69951612D01*
X-123933269Y-70028260D01*
X-123932657Y-70029426D01*
X-123889892Y-70111926D01*
X-123886569Y-70116089D01*
X-123884066Y-70120796D01*
X-123880167Y-70125577D01*
X-123880166Y-70125578D01*
X-123847296Y-70165881D01*
X-123819741Y-70231312D01*
X-123831936Y-70301253D01*
X-123844108Y-70321077D01*
X-123889147Y-70381172D01*
X-123946004Y-70423685D01*
X-124016822Y-70428711D01*
X-124079066Y-70394700D01*
X-124193145Y-70280621D01*
X-124202247Y-70270478D01*
X-124222103Y-70245782D01*
X-124225968Y-70240975D01*
X-124231074Y-70236690D01*
X-124264421Y-70208709D01*
X-124268069Y-70205528D01*
X-124269881Y-70203885D01*
X-124272075Y-70201691D01*
X-124305349Y-70174358D01*
X-124306147Y-70173696D01*
X-124377474Y-70113846D01*
X-124382144Y-70111278D01*
X-124386261Y-70107897D01*
X-124468086Y-70064023D01*
X-124469245Y-70063394D01*
X-124545381Y-70021538D01*
X-124545389Y-70021535D01*
X-124550787Y-70018567D01*
X-124555869Y-70016955D01*
X-124560563Y-70014438D01*
X-124649531Y-69987238D01*
X-124650559Y-69986918D01*
X-124739306Y-69958765D01*
X-124744602Y-69958171D01*
X-124749698Y-69956613D01*
X-124792425Y-69952273D01*
X-124858176Y-69925489D01*
X-124875502Y-69908749D01*
X-124896816Y-69883794D01*
X-124896823Y-69883787D01*
X-124900031Y-69880031D01*
X-124918092Y-69864605D01*
X-124963936Y-69825451D01*
X-125080584Y-69725824D01*
X-125084792Y-69723245D01*
X-125084798Y-69723241D01*
X-125278817Y-69604346D01*
X-125283037Y-69601760D01*
X-125287607Y-69599867D01*
X-125287611Y-69599865D01*
X-125497833Y-69512789D01*
X-125497835Y-69512788D01*
X-125502406Y-69510895D01*
X-125582609Y-69491640D01*
X-125728476Y-69456620D01*
X-125728482Y-69456619D01*
X-125733289Y-69455465D01*
X-125970000Y-69436835D01*
X-126206711Y-69455465D01*
X-126211518Y-69456619D01*
X-126211524Y-69456620D01*
X-126357391Y-69491640D01*
X-126437594Y-69510895D01*
X-126442165Y-69512788D01*
X-126442167Y-69512789D01*
X-126652389Y-69599865D01*
X-126652393Y-69599867D01*
X-126656963Y-69601760D01*
X-126661183Y-69604346D01*
X-126855202Y-69723241D01*
X-126855208Y-69723245D01*
X-126859416Y-69725824D01*
X-126976064Y-69825451D01*
X-127021907Y-69864605D01*
X-127039969Y-69880031D01*
X-127194176Y-70060584D01*
X-127196755Y-70064792D01*
X-127196759Y-70064798D01*
X-127304720Y-70240975D01*
X-127318240Y-70263037D01*
X-127320133Y-70267607D01*
X-127320135Y-70267611D01*
X-127407211Y-70477833D01*
X-127409105Y-70482406D01*
X-127421080Y-70532285D01*
X-127461876Y-70702215D01*
X-127464535Y-70713289D01*
X-127483165Y-70950000D01*
X-127464535Y-71186711D01*
X-127463381Y-71191518D01*
X-127463380Y-71191524D01*
X-127454747Y-71227481D01*
X-127409105Y-71417594D01*
X-127407212Y-71422165D01*
X-127407211Y-71422167D01*
X-127351993Y-71555475D01*
X-127318240Y-71636963D01*
X-127315654Y-71641183D01*
X-127196759Y-71835202D01*
X-127196755Y-71835208D01*
X-127194176Y-71839416D01*
X-127039969Y-72019969D01*
X-126859416Y-72174176D01*
X-126855208Y-72176755D01*
X-126855202Y-72176759D01*
X-126673224Y-72288275D01*
X-126656963Y-72298240D01*
X-126652393Y-72300133D01*
X-126652389Y-72300135D01*
X-126442167Y-72387211D01*
X-126437594Y-72389105D01*
X-126357391Y-72408360D01*
X-126211524Y-72443380D01*
X-126211518Y-72443381D01*
X-126206711Y-72444535D01*
X-125970000Y-72463165D01*
X-125733289Y-72444535D01*
X-125728482Y-72443381D01*
X-125728476Y-72443380D01*
X-125582609Y-72408360D01*
X-125502406Y-72389105D01*
X-125497833Y-72387211D01*
X-125287611Y-72300135D01*
X-125287607Y-72300133D01*
X-125283037Y-72298240D01*
X-125278817Y-72295654D01*
X-125278807Y-72295649D01*
X-125201496Y-72248272D01*
X-125132963Y-72229733D01*
X-125065286Y-72251189D01*
X-125054672Y-72259180D01*
X-125022526Y-72286154D01*
X-125017856Y-72288722D01*
X-125013739Y-72292103D01*
X-124946996Y-72327890D01*
X-124931880Y-72335995D01*
X-124930720Y-72336624D01*
X-124854611Y-72378466D01*
X-124854606Y-72378468D01*
X-124849213Y-72381433D01*
X-124844135Y-72383044D01*
X-124839437Y-72385563D01*
X-124750502Y-72412753D01*
X-124749298Y-72413128D01*
X-124660694Y-72441235D01*
X-124655403Y-72441828D01*
X-124650302Y-72443388D01*
X-124644170Y-72444011D01*
X-124644164Y-72444012D01*
X-124583662Y-72450157D01*
X-124557737Y-72452790D01*
X-124556550Y-72452916D01*
X-124527162Y-72456213D01*
X-124510270Y-72458108D01*
X-124510265Y-72458108D01*
X-124506773Y-72458500D01*
X-124503248Y-72458500D01*
X-124502263Y-72458555D01*
X-124496568Y-72459003D01*
X-124484658Y-72460213D01*
X-124459666Y-72462752D01*
X-124459661Y-72462752D01*
X-124453538Y-72463374D01*
X-124407889Y-72459059D01*
X-124396032Y-72458500D01*
X-123997387Y-72458500D01*
X-123929266Y-72478502D01*
X-123896561Y-72508935D01*
X-123818373Y-72613261D01*
X-123701817Y-72700615D01*
X-123565428Y-72751745D01*
X-123503246Y-72758500D01*
X-121806978Y-72758500D01*
X-121744796Y-72751745D01*
X-121608407Y-72700615D01*
X-121491851Y-72613261D01*
X-121433993Y-72536062D01*
X-120876619Y-72536062D01*
X-120867323Y-72548077D01*
X-120816118Y-72583931D01*
X-120806623Y-72589414D01*
X-120609165Y-72681490D01*
X-120598873Y-72685236D01*
X-120388424Y-72741625D01*
X-120377631Y-72743528D01*
X-120160587Y-72762517D01*
X-120149637Y-72762517D01*
X-119932593Y-72743528D01*
X-119921800Y-72741625D01*
X-119711351Y-72685236D01*
X-119701059Y-72681490D01*
X-119503601Y-72589414D01*
X-119494106Y-72583931D01*
X-119442064Y-72547491D01*
X-119433688Y-72537012D01*
X-119440756Y-72523566D01*
X-120142300Y-71822022D01*
X-120156244Y-71814408D01*
X-120158077Y-71814539D01*
X-120164692Y-71818790D01*
X-120870189Y-72524287D01*
X-120876619Y-72536062D01*
X-121433993Y-72536062D01*
X-121404497Y-72496705D01*
X-121353367Y-72360316D01*
X-121346612Y-72298134D01*
X-121346612Y-72294815D01*
X-121322959Y-72227890D01*
X-121276956Y-72192196D01*
X-121277971Y-72190266D01*
X-121267112Y-72184558D01*
X-121266867Y-72184368D01*
X-121266709Y-72184347D01*
X-121228678Y-72164356D01*
X-120527134Y-71462812D01*
X-120519520Y-71448868D01*
X-120519651Y-71447035D01*
X-120523902Y-71440420D01*
X-121229399Y-70734923D01*
X-121271141Y-70712129D01*
X-121281141Y-70709953D01*
X-121331339Y-70659747D01*
X-121346563Y-70606186D01*
X-121346612Y-70605281D01*
X-121346612Y-70601866D01*
X-121353367Y-70539684D01*
X-121404497Y-70403295D01*
X-121434705Y-70362988D01*
X-120876536Y-70362988D01*
X-120869468Y-70376434D01*
X-120167924Y-71077978D01*
X-120153980Y-71085592D01*
X-120152147Y-71085461D01*
X-120145532Y-71081210D01*
X-119440035Y-70375713D01*
X-119433605Y-70363938D01*
X-119442901Y-70351923D01*
X-119494106Y-70316069D01*
X-119503601Y-70310586D01*
X-119701059Y-70218510D01*
X-119711351Y-70214764D01*
X-119921800Y-70158375D01*
X-119932593Y-70156472D01*
X-120149637Y-70137483D01*
X-120160587Y-70137483D01*
X-120377631Y-70156472D01*
X-120388424Y-70158375D01*
X-120598873Y-70214764D01*
X-120609165Y-70218510D01*
X-120806623Y-70310586D01*
X-120816118Y-70316069D01*
X-120868160Y-70352509D01*
X-120876536Y-70362988D01*
X-121434705Y-70362988D01*
X-121491851Y-70286739D01*
X-121596177Y-70208551D01*
X-121638692Y-70151692D01*
X-121646612Y-70107725D01*
X-121646612Y-70006731D01*
X-121645875Y-69993124D01*
X-121642453Y-69961626D01*
X-121642453Y-69961621D01*
X-121641788Y-69955500D01*
X-121646162Y-69905500D01*
X-121646491Y-69900674D01*
X-121646612Y-69898202D01*
X-121646612Y-69895119D01*
X-121648406Y-69876823D01*
X-121650802Y-69852382D01*
X-121650924Y-69851069D01*
X-121658489Y-69764605D01*
X-121659025Y-69758475D01*
X-121660512Y-69753356D01*
X-121661032Y-69748055D01*
X-121687903Y-69659054D01*
X-121688238Y-69657921D01*
X-121712482Y-69574474D01*
X-121712484Y-69574470D01*
X-121714203Y-69568552D01*
X-121716656Y-69563820D01*
X-121718196Y-69558719D01*
X-121746768Y-69504981D01*
X-121761843Y-69476628D01*
X-121762455Y-69475462D01*
X-121802383Y-69398435D01*
X-121805220Y-69392962D01*
X-121808543Y-69388799D01*
X-121811046Y-69384092D01*
X-121869851Y-69311990D01*
X-121870679Y-69310963D01*
X-121899643Y-69274680D01*
X-121899648Y-69274675D01*
X-121901850Y-69271916D01*
X-121904351Y-69269415D01*
X-121904993Y-69268697D01*
X-121908706Y-69264349D01*
X-121916470Y-69254829D01*
X-121936047Y-69230826D01*
X-121940789Y-69226903D01*
X-121940791Y-69226901D01*
X-121971385Y-69201591D01*
X-121980165Y-69193601D01*
X-121994595Y-69179171D01*
X-122028621Y-69116859D01*
X-122031500Y-69090076D01*
X-122031500Y-68631291D01*
X-122011498Y-68563170D01*
X-121957842Y-68516677D01*
X-121919108Y-68506028D01*
X-121906914Y-68504703D01*
X-121879684Y-68501745D01*
X-121743295Y-68450615D01*
X-121626739Y-68363261D01*
X-121539385Y-68246705D01*
X-121488255Y-68110316D01*
X-121481500Y-68048134D01*
X-121481500Y-65851866D01*
X-121488255Y-65789684D01*
X-121491027Y-65782288D01*
X-121491029Y-65782282D01*
X-121514292Y-65720229D01*
X-121519475Y-65649422D01*
X-121485554Y-65587053D01*
X-121423298Y-65552924D01*
X-121396310Y-65550000D01*
X-118984500Y-65550000D01*
X-118916379Y-65570002D01*
X-118869886Y-65623658D01*
X-118858500Y-65676000D01*
X-118858500Y-70634094D01*
X-118878502Y-70702215D01*
X-118932158Y-70748708D01*
X-119002432Y-70758812D01*
X-119063171Y-70732516D01*
X-119068100Y-70728576D01*
X-119081546Y-70735644D01*
X-119783090Y-71437188D01*
X-119790704Y-71451132D01*
X-119790573Y-71452965D01*
X-119786322Y-71459580D01*
X-119080825Y-72165077D01*
X-119069050Y-72171507D01*
X-119061599Y-72165743D01*
X-118995481Y-72139880D01*
X-118925876Y-72153870D01*
X-118874884Y-72203269D01*
X-118858500Y-72265401D01*
X-118858500Y-98597228D01*
X-118878502Y-98665349D01*
X-118932158Y-98711842D01*
X-119002432Y-98721946D01*
X-119067012Y-98692452D01*
X-119090173Y-98665852D01*
X-119171129Y-98541190D01*
X-119207668Y-98484925D01*
X-119439098Y-98199133D01*
X-119699133Y-97939098D01*
X-119984925Y-97707668D01*
X-120104211Y-97630203D01*
X-120290573Y-97509178D01*
X-120290576Y-97509176D01*
X-120293342Y-97507380D01*
X-120296276Y-97505885D01*
X-120296283Y-97505881D01*
X-120618066Y-97341925D01*
X-120621006Y-97340427D01*
X-120964326Y-97208639D01*
X-121319541Y-97113459D01*
X-121512558Y-97082888D01*
X-121679511Y-97056445D01*
X-121679519Y-97056444D01*
X-121682759Y-97055931D01*
X-122050000Y-97036685D01*
X-122417241Y-97055931D01*
X-122420481Y-97056444D01*
X-122420489Y-97056445D01*
X-122587442Y-97082888D01*
X-122780459Y-97113459D01*
X-123135674Y-97208639D01*
X-123478994Y-97340427D01*
X-123481934Y-97341925D01*
X-123803716Y-97505881D01*
X-123803723Y-97505885D01*
X-123806657Y-97507380D01*
X-123809423Y-97509176D01*
X-123809426Y-97509178D01*
X-123878418Y-97553982D01*
X-124115075Y-97707668D01*
X-124400867Y-97939098D01*
X-124660902Y-98199133D01*
X-124892332Y-98484925D01*
X-124928871Y-98541190D01*
X-125046254Y-98721946D01*
X-125092620Y-98793343D01*
X-125094115Y-98796277D01*
X-125094119Y-98796284D01*
X-125227590Y-99058235D01*
X-125259573Y-99121006D01*
X-125260757Y-99124091D01*
X-125387067Y-99453141D01*
X-125391361Y-99464326D01*
X-125486541Y-99819541D01*
X-125498619Y-99895798D01*
X-125534592Y-100122926D01*
X-125544069Y-100182759D01*
X-125563315Y-100550000D01*
X-125544069Y-100917241D01*
X-125486541Y-101280459D01*
X-125391361Y-101635674D01*
X-125390176Y-101638762D01*
X-125390175Y-101638764D01*
X-125340098Y-101769218D01*
X-125259573Y-101978994D01*
X-125258075Y-101981934D01*
X-125094194Y-102303567D01*
X-125092620Y-102306657D01*
X-125090824Y-102309423D01*
X-125090822Y-102309426D01*
X-125089311Y-102311753D01*
X-124892332Y-102615075D01*
X-124660902Y-102900867D01*
X-124400867Y-103160902D01*
X-124398292Y-103162987D01*
X-124207386Y-103317580D01*
X-124167034Y-103375994D01*
X-124164668Y-103446951D01*
X-124201041Y-103507923D01*
X-124264604Y-103539551D01*
X-124286680Y-103541500D01*
X-212513320Y-103541500D01*
X-212581441Y-103521498D01*
X-212627934Y-103467842D01*
X-212638038Y-103397568D01*
X-212608544Y-103332988D01*
X-212592614Y-103317580D01*
X-212401708Y-103162987D01*
X-212399133Y-103160902D01*
X-212139098Y-102900867D01*
X-211907668Y-102615075D01*
X-211710689Y-102311753D01*
X-211709178Y-102309426D01*
X-211709176Y-102309423D01*
X-211707380Y-102306657D01*
X-211705805Y-102303567D01*
X-211541925Y-101981934D01*
X-211540427Y-101978994D01*
X-211459902Y-101769218D01*
X-211409825Y-101638764D01*
X-211409824Y-101638762D01*
X-211408639Y-101635674D01*
X-211313459Y-101280459D01*
X-211255931Y-100917241D01*
X-211236685Y-100550000D01*
X-211255931Y-100182759D01*
X-211265407Y-100122926D01*
X-211301381Y-99895798D01*
X-211313459Y-99819541D01*
X-211408639Y-99464326D01*
X-211412932Y-99453141D01*
X-211539243Y-99124091D01*
X-211540427Y-99121006D01*
X-211572410Y-99058235D01*
X-211705881Y-98796284D01*
X-211705885Y-98796277D01*
X-211707380Y-98793343D01*
X-211753745Y-98721946D01*
X-211871129Y-98541190D01*
X-211907668Y-98484925D01*
X-212139098Y-98199133D01*
X-212399133Y-97939098D01*
X-212684925Y-97707668D01*
X-212804211Y-97630203D01*
X-212990573Y-97509178D01*
X-212990576Y-97509176D01*
X-212993342Y-97507380D01*
X-212996276Y-97505885D01*
X-212996283Y-97505881D01*
X-213318066Y-97341925D01*
X-213321006Y-97340427D01*
X-213664326Y-97208639D01*
X-214019541Y-97113459D01*
X-214212558Y-97082888D01*
X-214379511Y-97056445D01*
X-214379519Y-97056444D01*
X-214382759Y-97055931D01*
X-214750000Y-97036685D01*
X-215117241Y-97055931D01*
X-215120481Y-97056444D01*
X-215120489Y-97056445D01*
X-215287442Y-97082888D01*
X-215480459Y-97113459D01*
X-215835674Y-97208639D01*
X-216178994Y-97340427D01*
X-216181934Y-97341925D01*
X-216503716Y-97505881D01*
X-216503723Y-97505885D01*
X-216506657Y-97507380D01*
X-216509423Y-97509176D01*
X-216509426Y-97509178D01*
X-216578418Y-97553982D01*
X-216815075Y-97707668D01*
X-217100867Y-97939098D01*
X-217360902Y-98199133D01*
X-217592332Y-98484925D01*
X-217594134Y-98487700D01*
X-217609827Y-98511865D01*
X-217663704Y-98558102D01*
X-217734025Y-98567872D01*
X-217798465Y-98538072D01*
X-217836564Y-98478164D01*
X-217841500Y-98443241D01*
X-217841500Y-94948134D01*
X-161511151Y-94948134D01*
X-161504396Y-95010316D01*
X-161453266Y-95146705D01*
X-161365912Y-95263261D01*
X-161249356Y-95350615D01*
X-161240948Y-95353767D01*
X-161120365Y-95398972D01*
X-161120362Y-95398973D01*
X-161112967Y-95401745D01*
X-161107198Y-95402372D01*
X-161046360Y-95437126D01*
X-161013538Y-95500081D01*
X-161011151Y-95524493D01*
X-161011151Y-96935506D01*
X-161011888Y-96949113D01*
X-161015975Y-96986737D01*
X-161015438Y-96992872D01*
X-161011601Y-97036737D01*
X-161011272Y-97041563D01*
X-161011151Y-97044035D01*
X-161011151Y-97047118D01*
X-161010850Y-97050186D01*
X-161006961Y-97089855D01*
X-161006839Y-97091168D01*
X-161004814Y-97114314D01*
X-160998738Y-97183762D01*
X-160997251Y-97188881D01*
X-160996731Y-97194182D01*
X-160969860Y-97283183D01*
X-160969525Y-97284316D01*
X-160952787Y-97341925D01*
X-160943560Y-97373685D01*
X-160941107Y-97378417D01*
X-160939567Y-97383518D01*
X-160936673Y-97388961D01*
X-160895920Y-97465609D01*
X-160895308Y-97466775D01*
X-160852543Y-97549275D01*
X-160849220Y-97553438D01*
X-160846717Y-97558145D01*
X-160787896Y-97630267D01*
X-160787205Y-97631123D01*
X-160755913Y-97670322D01*
X-160753409Y-97672826D01*
X-160752767Y-97673544D01*
X-160749066Y-97677877D01*
X-160721716Y-97711411D01*
X-160716969Y-97715338D01*
X-160716967Y-97715340D01*
X-160686389Y-97740636D01*
X-160677609Y-97748626D01*
X-159035405Y-99390829D01*
X-159001380Y-99453141D01*
X-158998500Y-99479924D01*
X-158998500Y-99528991D01*
X-159018502Y-99597112D01*
X-159072158Y-99643605D01*
X-159077694Y-99645903D01*
X-159078296Y-99646232D01*
X-159086705Y-99649385D01*
X-159203261Y-99736739D01*
X-159290615Y-99853295D01*
X-159341745Y-99989684D01*
X-159348500Y-100051866D01*
X-159348500Y-101848134D01*
X-159341745Y-101910316D01*
X-159290615Y-102046705D01*
X-159203261Y-102163261D01*
X-159086705Y-102250615D01*
X-158950316Y-102301745D01*
X-158888134Y-102308500D01*
X-157091866Y-102308500D01*
X-157029684Y-102301745D01*
X-156893295Y-102250615D01*
X-156776739Y-102163261D01*
X-156689385Y-102046705D01*
X-156645202Y-101928848D01*
X-156602560Y-101872084D01*
X-156535999Y-101847384D01*
X-156466650Y-101862592D01*
X-156431983Y-101890580D01*
X-156406782Y-101919673D01*
X-156399420Y-101926883D01*
X-156235566Y-102062916D01*
X-156227119Y-102068831D01*
X-156043244Y-102176279D01*
X-156033958Y-102180729D01*
X-155834999Y-102256703D01*
X-155825101Y-102259579D01*
X-155721750Y-102280606D01*
X-155707701Y-102279410D01*
X-155704000Y-102269065D01*
X-155704000Y-102268517D01*
X-155196000Y-102268517D01*
X-155191936Y-102282359D01*
X-155178522Y-102284393D01*
X-155171816Y-102283534D01*
X-155161738Y-102281392D01*
X-154957745Y-102220191D01*
X-154948158Y-102216433D01*
X-154756905Y-102122739D01*
X-154748055Y-102117464D01*
X-154574672Y-101993792D01*
X-154566800Y-101987139D01*
X-154415948Y-101836812D01*
X-154409270Y-101828965D01*
X-154284997Y-101656020D01*
X-154279687Y-101647183D01*
X-154185330Y-101456267D01*
X-154181531Y-101446672D01*
X-154119623Y-101242910D01*
X-154117445Y-101232837D01*
X-154116014Y-101221962D01*
X-154118225Y-101207778D01*
X-154131383Y-101204000D01*
X-155177885Y-101204000D01*
X-155193124Y-101208475D01*
X-155194329Y-101209865D01*
X-155196000Y-101217548D01*
X-155196000Y-102268517D01*
X-155704000Y-102268517D01*
X-155704000Y-100677885D01*
X-155196000Y-100677885D01*
X-155191525Y-100693124D01*
X-155190135Y-100694329D01*
X-155182452Y-100696000D01*
X-154131656Y-100696000D01*
X-154118125Y-100692027D01*
X-154116820Y-100682947D01*
X-154158786Y-100515875D01*
X-154162106Y-100506124D01*
X-154247028Y-100310814D01*
X-154251895Y-100301739D01*
X-154367574Y-100122926D01*
X-154373864Y-100114757D01*
X-154517194Y-99957240D01*
X-154524727Y-99950215D01*
X-154691861Y-99818222D01*
X-154700448Y-99812517D01*
X-154886883Y-99709599D01*
X-154896295Y-99705369D01*
X-155097041Y-99634280D01*
X-155107012Y-99631646D01*
X-155178163Y-99618972D01*
X-155191460Y-99620432D01*
X-155196000Y-99634989D01*
X-155196000Y-100677885D01*
X-155704000Y-100677885D01*
X-155704000Y-99633102D01*
X-155707918Y-99619758D01*
X-155722194Y-99617771D01*
X-155760676Y-99623660D01*
X-155770712Y-99626051D01*
X-155973132Y-99692212D01*
X-155982641Y-99696209D01*
X-156171537Y-99794542D01*
X-156180262Y-99800036D01*
X-156350567Y-99927905D01*
X-156358274Y-99934748D01*
X-156435522Y-100015584D01*
X-156497046Y-100051014D01*
X-156567958Y-100047557D01*
X-156625745Y-100006311D01*
X-156644598Y-99972763D01*
X-156686233Y-99861703D01*
X-156689385Y-99853295D01*
X-156776739Y-99736739D01*
X-156893295Y-99649385D01*
X-156901704Y-99646233D01*
X-156909575Y-99641923D01*
X-156908664Y-99640259D01*
X-156956490Y-99604337D01*
X-156981193Y-99537776D01*
X-156981500Y-99528991D01*
X-156981500Y-99071842D01*
X-156980763Y-99058235D01*
X-156977341Y-99026737D01*
X-156977341Y-99026732D01*
X-156976676Y-99020611D01*
X-156981050Y-98970609D01*
X-156981379Y-98965784D01*
X-156981500Y-98963313D01*
X-156981500Y-98960231D01*
X-156985691Y-98917489D01*
X-156985813Y-98916174D01*
X-156993377Y-98829719D01*
X-156993913Y-98823587D01*
X-156995400Y-98818468D01*
X-156995920Y-98813167D01*
X-157022782Y-98724194D01*
X-157023138Y-98722994D01*
X-157032011Y-98692452D01*
X-157049091Y-98633663D01*
X-157051545Y-98628929D01*
X-157053084Y-98623831D01*
X-157096684Y-98541831D01*
X-157097298Y-98540663D01*
X-157137274Y-98463541D01*
X-157137275Y-98463540D01*
X-157140108Y-98458074D01*
X-157143431Y-98453911D01*
X-157145934Y-98449204D01*
X-157204755Y-98377082D01*
X-157205446Y-98376226D01*
X-157236738Y-98337027D01*
X-157239242Y-98334523D01*
X-157239884Y-98333805D01*
X-157243585Y-98329472D01*
X-157270935Y-98295938D01*
X-157306263Y-98266712D01*
X-157315042Y-98258723D01*
X-158957246Y-96616520D01*
X-158991271Y-96554208D01*
X-158994151Y-96527425D01*
X-158994151Y-95524493D01*
X-158974149Y-95456372D01*
X-158920493Y-95409879D01*
X-158898888Y-95402457D01*
X-158892335Y-95401745D01*
X-158884940Y-95398973D01*
X-158884937Y-95398972D01*
X-158764354Y-95353767D01*
X-158755946Y-95350615D01*
X-158639390Y-95263261D01*
X-158552036Y-95146705D01*
X-158546775Y-95132670D01*
X-155870491Y-95132670D01*
X-155864764Y-95140320D01*
X-155693609Y-95245205D01*
X-155684814Y-95249687D01*
X-155474663Y-95336734D01*
X-155465278Y-95339783D01*
X-155244097Y-95392885D01*
X-155234350Y-95394428D01*
X-155007581Y-95412275D01*
X-154997721Y-95412275D01*
X-154770952Y-95394428D01*
X-154761205Y-95392885D01*
X-154540024Y-95339783D01*
X-154530639Y-95336734D01*
X-154320488Y-95249687D01*
X-154311693Y-95245205D01*
X-154144206Y-95142568D01*
X-154134744Y-95132110D01*
X-154138527Y-95123334D01*
X-154989839Y-94272022D01*
X-155003783Y-94264408D01*
X-155005616Y-94264539D01*
X-155012231Y-94268790D01*
X-155863731Y-95120290D01*
X-155870491Y-95132670D01*
X-158546775Y-95132670D01*
X-158500906Y-95010316D01*
X-158494151Y-94948134D01*
X-158494151Y-93904930D01*
X-156514926Y-93904930D01*
X-156497079Y-94131699D01*
X-156495536Y-94141446D01*
X-156442434Y-94362627D01*
X-156439385Y-94372012D01*
X-156352338Y-94582163D01*
X-156347856Y-94590958D01*
X-156245219Y-94758445D01*
X-156234761Y-94767907D01*
X-156225985Y-94764124D01*
X-155374673Y-93912812D01*
X-155368295Y-93901132D01*
X-154638243Y-93901132D01*
X-154638112Y-93902965D01*
X-154633861Y-93909580D01*
X-153782361Y-94761080D01*
X-153769981Y-94767840D01*
X-153762331Y-94762113D01*
X-153657446Y-94590958D01*
X-153652964Y-94582163D01*
X-153565917Y-94372012D01*
X-153562868Y-94362627D01*
X-153509766Y-94141446D01*
X-153508223Y-94131699D01*
X-153490376Y-93904930D01*
X-153490376Y-93895070D01*
X-153508223Y-93668301D01*
X-153509766Y-93658554D01*
X-153562868Y-93437373D01*
X-153565917Y-93427988D01*
X-153652964Y-93217837D01*
X-153657446Y-93209042D01*
X-153760083Y-93041555D01*
X-153770541Y-93032093D01*
X-153779317Y-93035876D01*
X-154630629Y-93887188D01*
X-154638243Y-93901132D01*
X-155368295Y-93901132D01*
X-155367059Y-93898868D01*
X-155367190Y-93897035D01*
X-155371441Y-93890420D01*
X-156222941Y-93038920D01*
X-156235321Y-93032160D01*
X-156242971Y-93037887D01*
X-156347856Y-93209042D01*
X-156352338Y-93217837D01*
X-156439385Y-93427988D01*
X-156442434Y-93437373D01*
X-156495536Y-93658554D01*
X-156497079Y-93668301D01*
X-156514926Y-93895070D01*
X-156514926Y-93904930D01*
X-158494151Y-93904930D01*
X-158494151Y-92851866D01*
X-158500906Y-92789684D01*
X-158546565Y-92667890D01*
X-155870558Y-92667890D01*
X-155866775Y-92676666D01*
X-155015463Y-93527978D01*
X-155001519Y-93535592D01*
X-154999686Y-93535461D01*
X-154993071Y-93531210D01*
X-154141571Y-92679710D01*
X-154134811Y-92667330D01*
X-154140538Y-92659680D01*
X-154311693Y-92554795D01*
X-154320488Y-92550313D01*
X-154530639Y-92463266D01*
X-154540024Y-92460217D01*
X-154761205Y-92407115D01*
X-154770952Y-92405572D01*
X-154997721Y-92387725D01*
X-155007581Y-92387725D01*
X-155234350Y-92405572D01*
X-155244097Y-92407115D01*
X-155465278Y-92460217D01*
X-155474663Y-92463266D01*
X-155684814Y-92550313D01*
X-155693609Y-92554795D01*
X-155861096Y-92657432D01*
X-155870558Y-92667890D01*
X-158546565Y-92667890D01*
X-158552036Y-92653295D01*
X-158639390Y-92536739D01*
X-158755946Y-92449385D01*
X-158892335Y-92398255D01*
X-158954517Y-92391500D01*
X-161050785Y-92391500D01*
X-161112967Y-92398255D01*
X-161249356Y-92449385D01*
X-161365912Y-92536739D01*
X-161453266Y-92653295D01*
X-161504396Y-92789684D01*
X-161511151Y-92851866D01*
X-161511151Y-94948134D01*
X-217841500Y-94948134D01*
X-217841500Y-65676000D01*
X-217821498Y-65607879D01*
X-217767842Y-65561386D01*
X-217715500Y-65550000D01*
X-204347228Y-65550000D01*
X-204279107Y-65570002D01*
G37*
%TD.AperFunction*%
%TA.AperFunction,Conductor*%
G36*
X-169248869Y-65570002D02*
G01*
X-169202376Y-65623658D01*
X-169192901Y-65689558D01*
X-169191745Y-65689684D01*
X-169198500Y-65751866D01*
X-169198500Y-67948134D01*
X-169191745Y-68010316D01*
X-169140615Y-68146705D01*
X-169053261Y-68263261D01*
X-168936705Y-68350615D01*
X-168800316Y-68401745D01*
X-168773086Y-68404703D01*
X-168760892Y-68406028D01*
X-168695330Y-68433270D01*
X-168654904Y-68491634D01*
X-168648500Y-68531291D01*
X-168648500Y-69915500D01*
X-168668502Y-69983621D01*
X-168722158Y-70030114D01*
X-168774500Y-70041500D01*
X-169589444Y-70041500D01*
X-169657565Y-70021498D01*
X-169685254Y-69997332D01*
X-169696822Y-69983788D01*
X-169696823Y-69983787D01*
X-169700031Y-69980031D01*
X-169880584Y-69825824D01*
X-169884792Y-69823245D01*
X-169884798Y-69823241D01*
X-170078817Y-69704346D01*
X-170083037Y-69701760D01*
X-170087607Y-69699867D01*
X-170087611Y-69699865D01*
X-170297833Y-69612789D01*
X-170297835Y-69612788D01*
X-170302406Y-69610895D01*
X-170382609Y-69591640D01*
X-170528476Y-69556620D01*
X-170528482Y-69556619D01*
X-170533289Y-69555465D01*
X-170770000Y-69536835D01*
X-171006711Y-69555465D01*
X-171011518Y-69556619D01*
X-171011524Y-69556620D01*
X-171157391Y-69591640D01*
X-171237594Y-69610895D01*
X-171242165Y-69612788D01*
X-171242167Y-69612789D01*
X-171452389Y-69699865D01*
X-171452393Y-69699867D01*
X-171456963Y-69701760D01*
X-171461183Y-69704346D01*
X-171655202Y-69823241D01*
X-171655208Y-69823245D01*
X-171659416Y-69825824D01*
X-171839969Y-69980031D01*
X-171843177Y-69983787D01*
X-171854745Y-69997332D01*
X-171994176Y-70160584D01*
X-171996755Y-70164792D01*
X-171996759Y-70164798D01*
X-172086098Y-70310586D01*
X-172118240Y-70363037D01*
X-172120133Y-70367607D01*
X-172120135Y-70367611D01*
X-172191409Y-70539684D01*
X-172209105Y-70582406D01*
X-172210260Y-70587218D01*
X-172258702Y-70788994D01*
X-172264535Y-70813289D01*
X-172283165Y-71050000D01*
X-172264535Y-71286711D01*
X-172263381Y-71291518D01*
X-172263380Y-71291524D01*
X-172254747Y-71327481D01*
X-172209105Y-71517594D01*
X-172207212Y-71522165D01*
X-172207211Y-71522167D01*
X-172144933Y-71672519D01*
X-172118240Y-71736963D01*
X-172115654Y-71741183D01*
X-171996759Y-71935202D01*
X-171996755Y-71935208D01*
X-171994176Y-71939416D01*
X-171839969Y-72119969D01*
X-171659416Y-72274176D01*
X-171655208Y-72276755D01*
X-171655202Y-72276759D01*
X-171477650Y-72385563D01*
X-171456963Y-72398240D01*
X-171452393Y-72400133D01*
X-171452389Y-72400135D01*
X-171242167Y-72487211D01*
X-171237594Y-72489105D01*
X-171167084Y-72506033D01*
X-171011524Y-72543380D01*
X-171011518Y-72543381D01*
X-171006711Y-72544535D01*
X-170770000Y-72563165D01*
X-170533289Y-72544535D01*
X-170528482Y-72543381D01*
X-170528476Y-72543380D01*
X-170372916Y-72506033D01*
X-170302406Y-72489105D01*
X-170297833Y-72487211D01*
X-170087611Y-72400135D01*
X-170087607Y-72400133D01*
X-170083037Y-72398240D01*
X-170062350Y-72385563D01*
X-169884798Y-72276759D01*
X-169884792Y-72276755D01*
X-169880584Y-72274176D01*
X-169700031Y-72119969D01*
X-169685254Y-72102668D01*
X-169625803Y-72063860D01*
X-169589444Y-72058500D01*
X-169089612Y-72058500D01*
X-169021491Y-72078502D01*
X-168974998Y-72132158D01*
X-168963612Y-72184500D01*
X-168963612Y-72298134D01*
X-168956857Y-72360316D01*
X-168905727Y-72496705D01*
X-168818373Y-72613261D01*
X-168701817Y-72700615D01*
X-168565428Y-72751745D01*
X-168503246Y-72758500D01*
X-166806978Y-72758500D01*
X-166744796Y-72751745D01*
X-166608407Y-72700615D01*
X-166491851Y-72613261D01*
X-166433993Y-72536062D01*
X-165876619Y-72536062D01*
X-165867323Y-72548077D01*
X-165816118Y-72583931D01*
X-165806623Y-72589414D01*
X-165609165Y-72681490D01*
X-165598873Y-72685236D01*
X-165388424Y-72741625D01*
X-165377631Y-72743528D01*
X-165160587Y-72762517D01*
X-165149637Y-72762517D01*
X-164932593Y-72743528D01*
X-164921800Y-72741625D01*
X-164711351Y-72685236D01*
X-164701059Y-72681490D01*
X-164503601Y-72589414D01*
X-164494106Y-72583931D01*
X-164442064Y-72547491D01*
X-164433688Y-72537012D01*
X-164440756Y-72523566D01*
X-165142300Y-71822022D01*
X-165156244Y-71814408D01*
X-165158077Y-71814539D01*
X-165164692Y-71818790D01*
X-165870189Y-72524287D01*
X-165876619Y-72536062D01*
X-166433993Y-72536062D01*
X-166404497Y-72496705D01*
X-166353367Y-72360316D01*
X-166346612Y-72298134D01*
X-166346612Y-72294815D01*
X-166322959Y-72227890D01*
X-166276956Y-72192196D01*
X-166277971Y-72190266D01*
X-166267112Y-72184558D01*
X-166266867Y-72184368D01*
X-166266709Y-72184347D01*
X-166228678Y-72164356D01*
X-165527134Y-71462812D01*
X-165520756Y-71451132D01*
X-164790704Y-71451132D01*
X-164790573Y-71452965D01*
X-164786322Y-71459580D01*
X-164080825Y-72165077D01*
X-164069050Y-72171507D01*
X-164057035Y-72162211D01*
X-164021181Y-72111006D01*
X-164015698Y-72101511D01*
X-163923622Y-71904053D01*
X-163919876Y-71893761D01*
X-163863487Y-71683312D01*
X-163861584Y-71672519D01*
X-163842595Y-71455475D01*
X-163842595Y-71444525D01*
X-163861584Y-71227481D01*
X-163863487Y-71216688D01*
X-163919876Y-71006239D01*
X-163923622Y-70995947D01*
X-164015698Y-70798489D01*
X-164021181Y-70788994D01*
X-164057621Y-70736952D01*
X-164068100Y-70728576D01*
X-164081546Y-70735644D01*
X-164783090Y-71437188D01*
X-164790704Y-71451132D01*
X-165520756Y-71451132D01*
X-165519520Y-71448868D01*
X-165519651Y-71447035D01*
X-165523902Y-71440420D01*
X-166229399Y-70734923D01*
X-166271141Y-70712129D01*
X-166281141Y-70709953D01*
X-166331339Y-70659747D01*
X-166346563Y-70606186D01*
X-166346612Y-70605281D01*
X-166346612Y-70601866D01*
X-166353367Y-70539684D01*
X-166404497Y-70403295D01*
X-166434705Y-70362988D01*
X-165876536Y-70362988D01*
X-165869468Y-70376434D01*
X-165167924Y-71077978D01*
X-165153980Y-71085592D01*
X-165152147Y-71085461D01*
X-165145532Y-71081210D01*
X-164440035Y-70375713D01*
X-164433605Y-70363938D01*
X-164442901Y-70351923D01*
X-164494106Y-70316069D01*
X-164503601Y-70310586D01*
X-164701059Y-70218510D01*
X-164711351Y-70214764D01*
X-164921800Y-70158375D01*
X-164932593Y-70156472D01*
X-165149637Y-70137483D01*
X-165160587Y-70137483D01*
X-165377631Y-70156472D01*
X-165388424Y-70158375D01*
X-165598873Y-70214764D01*
X-165609165Y-70218510D01*
X-165806623Y-70310586D01*
X-165816118Y-70316069D01*
X-165868160Y-70352509D01*
X-165876536Y-70362988D01*
X-166434705Y-70362988D01*
X-166491851Y-70286739D01*
X-166581065Y-70219876D01*
X-166623580Y-70163018D01*
X-166631500Y-70119051D01*
X-166631500Y-68531291D01*
X-166611498Y-68463170D01*
X-166557842Y-68416677D01*
X-166519108Y-68406028D01*
X-166506914Y-68404703D01*
X-166479684Y-68401745D01*
X-166343295Y-68350615D01*
X-166226739Y-68263261D01*
X-166139385Y-68146705D01*
X-166088255Y-68010316D01*
X-166081500Y-67948134D01*
X-166081500Y-65751866D01*
X-166088255Y-65689684D01*
X-166084783Y-65689307D01*
X-166081854Y-65634142D01*
X-166040358Y-65576535D01*
X-165974304Y-65550507D01*
X-165963010Y-65550000D01*
X-159522228Y-65550000D01*
X-159454107Y-65570002D01*
X-159407614Y-65623658D01*
X-159397510Y-65693932D01*
X-159426417Y-65757830D01*
X-159509649Y-65855283D01*
X-159514176Y-65860584D01*
X-159516755Y-65864792D01*
X-159516759Y-65864798D01*
X-159618671Y-66031104D01*
X-159638240Y-66063037D01*
X-159640133Y-66067607D01*
X-159640135Y-66067611D01*
X-159727211Y-66277833D01*
X-159729105Y-66282406D01*
X-159730260Y-66287218D01*
X-159774555Y-66471720D01*
X-159784535Y-66513289D01*
X-159803165Y-66750000D01*
X-159784535Y-66986711D01*
X-159729105Y-67217594D01*
X-159727212Y-67222165D01*
X-159727211Y-67222167D01*
X-159679370Y-67337665D01*
X-159638240Y-67436963D01*
X-159635654Y-67441183D01*
X-159516759Y-67635202D01*
X-159516755Y-67635208D01*
X-159514176Y-67639416D01*
X-159359969Y-67819969D01*
X-159356213Y-67823177D01*
X-159356212Y-67823178D01*
X-159342668Y-67834746D01*
X-159303860Y-67894197D01*
X-159298500Y-67930556D01*
X-159298500Y-69681163D01*
X-159318502Y-69749284D01*
X-159358664Y-69788595D01*
X-159419416Y-69825824D01*
X-159423178Y-69829037D01*
X-159561279Y-69946987D01*
X-159599969Y-69980031D01*
X-159603177Y-69983787D01*
X-159614745Y-69997332D01*
X-159754176Y-70160584D01*
X-159756755Y-70164792D01*
X-159756759Y-70164798D01*
X-159846098Y-70310586D01*
X-159878240Y-70363037D01*
X-159880133Y-70367607D01*
X-159880135Y-70367611D01*
X-159951409Y-70539684D01*
X-159969105Y-70582406D01*
X-159970260Y-70587218D01*
X-160018702Y-70788994D01*
X-160024535Y-70813289D01*
X-160043165Y-71050000D01*
X-160024535Y-71286711D01*
X-160023381Y-71291518D01*
X-160023380Y-71291524D01*
X-160014747Y-71327481D01*
X-159969105Y-71517594D01*
X-159967212Y-71522165D01*
X-159967211Y-71522167D01*
X-159904933Y-71672519D01*
X-159878240Y-71736963D01*
X-159875654Y-71741183D01*
X-159756759Y-71935202D01*
X-159756755Y-71935208D01*
X-159754176Y-71939416D01*
X-159599969Y-72119969D01*
X-159419416Y-72274176D01*
X-159415208Y-72276755D01*
X-159415202Y-72276759D01*
X-159237650Y-72385563D01*
X-159216963Y-72398240D01*
X-159212393Y-72400133D01*
X-159212389Y-72400135D01*
X-159002167Y-72487211D01*
X-158997594Y-72489105D01*
X-158927084Y-72506033D01*
X-158771524Y-72543380D01*
X-158771518Y-72543381D01*
X-158766711Y-72544535D01*
X-158530000Y-72563165D01*
X-158293289Y-72544535D01*
X-158288482Y-72543381D01*
X-158288476Y-72543380D01*
X-158132916Y-72506033D01*
X-158062406Y-72489105D01*
X-158057833Y-72487211D01*
X-157847611Y-72400135D01*
X-157847607Y-72400133D01*
X-157843037Y-72398240D01*
X-157822350Y-72385563D01*
X-157644798Y-72276759D01*
X-157644792Y-72276755D01*
X-157640584Y-72274176D01*
X-157460031Y-72119969D01*
X-157305824Y-71939416D01*
X-157303245Y-71935208D01*
X-157303241Y-71935202D01*
X-157184346Y-71741183D01*
X-157181760Y-71736963D01*
X-157155066Y-71672519D01*
X-157092789Y-71522167D01*
X-157092788Y-71522165D01*
X-157090895Y-71517594D01*
X-157045253Y-71327481D01*
X-157036620Y-71291524D01*
X-157036619Y-71291518D01*
X-157035465Y-71286711D01*
X-157016835Y-71050000D01*
X-157035465Y-70813289D01*
X-157041297Y-70788994D01*
X-157089740Y-70587218D01*
X-157090895Y-70582406D01*
X-157108591Y-70539684D01*
X-157179865Y-70367611D01*
X-157179867Y-70367607D01*
X-157181760Y-70363037D01*
X-157235225Y-70275790D01*
X-157262933Y-70230575D01*
X-157281500Y-70164740D01*
X-157281500Y-68239063D01*
X-157261498Y-68170942D01*
X-157207842Y-68124449D01*
X-157137568Y-68114345D01*
X-157079936Y-68138236D01*
X-156996705Y-68200615D01*
X-156860316Y-68251745D01*
X-156798134Y-68258500D01*
X-154701866Y-68258500D01*
X-154639684Y-68251745D01*
X-154503295Y-68200615D01*
X-154386739Y-68113261D01*
X-154299385Y-67996705D01*
X-154285115Y-67958641D01*
X-154251028Y-67867714D01*
X-154251027Y-67867711D01*
X-154248255Y-67860316D01*
X-154247628Y-67854547D01*
X-154212874Y-67793709D01*
X-154149919Y-67760887D01*
X-154125507Y-67758500D01*
X-154091718Y-67758500D01*
X-154023597Y-67778502D01*
X-153995907Y-67802669D01*
X-153946671Y-67860316D01*
X-153865433Y-67955433D01*
X-153861677Y-67958641D01*
X-153812669Y-68000498D01*
X-153773860Y-68059949D01*
X-153768500Y-68096309D01*
X-153768500Y-72690076D01*
X-153788502Y-72758197D01*
X-153805405Y-72779171D01*
X-155830829Y-74804595D01*
X-155893141Y-74838621D01*
X-155919924Y-74841500D01*
X-174888157Y-74841500D01*
X-174901764Y-74840763D01*
X-174933262Y-74837341D01*
X-174933267Y-74837341D01*
X-174939388Y-74836676D01*
X-174965638Y-74838973D01*
X-174989388Y-74841050D01*
X-174994214Y-74841379D01*
X-174996686Y-74841500D01*
X-174999769Y-74841500D01*
X-175011738Y-74842674D01*
X-175042506Y-74845690D01*
X-175043819Y-74845812D01*
X-175083547Y-74849288D01*
X-175136413Y-74853913D01*
X-175141532Y-74855400D01*
X-175146833Y-74855920D01*
X-175235834Y-74882791D01*
X-175236967Y-74883126D01*
X-175320414Y-74907370D01*
X-175320418Y-74907372D01*
X-175326336Y-74909091D01*
X-175331068Y-74911544D01*
X-175336169Y-74913084D01*
X-175341612Y-74915978D01*
X-175418260Y-74956731D01*
X-175419426Y-74957343D01*
X-175496453Y-74997271D01*
X-175501926Y-75000108D01*
X-175506089Y-75003431D01*
X-175510796Y-75005934D01*
X-175515571Y-75009828D01*
X-175515572Y-75009829D01*
X-175582898Y-75064739D01*
X-175583925Y-75065567D01*
X-175620208Y-75094531D01*
X-175620213Y-75094536D01*
X-175622972Y-75096738D01*
X-175625473Y-75099239D01*
X-175626191Y-75099881D01*
X-175630539Y-75103594D01*
X-175664062Y-75130935D01*
X-175667985Y-75135677D01*
X-175667987Y-75135679D01*
X-175693297Y-75166273D01*
X-175701287Y-75175053D01*
X-178039379Y-77513145D01*
X-178049522Y-77522247D01*
X-178079025Y-77545968D01*
X-178082992Y-77550696D01*
X-178111291Y-77584421D01*
X-178114472Y-77588069D01*
X-178116115Y-77589881D01*
X-178118309Y-77592075D01*
X-178145642Y-77625349D01*
X-178146304Y-77626147D01*
X-178206154Y-77697474D01*
X-178208722Y-77702144D01*
X-178212103Y-77706261D01*
X-178243140Y-77764145D01*
X-178255977Y-77788086D01*
X-178256606Y-77789245D01*
X-178298462Y-77865381D01*
X-178298465Y-77865389D01*
X-178301433Y-77870787D01*
X-178303045Y-77875869D01*
X-178305562Y-77880563D01*
X-178332737Y-77969450D01*
X-178333082Y-77970559D01*
X-178361235Y-78059306D01*
X-178361829Y-78064602D01*
X-178363387Y-78069698D01*
X-178366825Y-78103547D01*
X-178372782Y-78162187D01*
X-178372911Y-78163393D01*
X-178378500Y-78213227D01*
X-178378500Y-78216754D01*
X-178378555Y-78217739D01*
X-178379002Y-78223419D01*
X-178383374Y-78266462D01*
X-178382133Y-78279586D01*
X-178379059Y-78312109D01*
X-178378500Y-78323967D01*
X-178378500Y-83349260D01*
X-178401287Y-83421531D01*
X-178507523Y-83573251D01*
X-178509846Y-83578233D01*
X-178509849Y-83578238D01*
X-178525805Y-83612457D01*
X-178572722Y-83665742D01*
X-178640999Y-83685203D01*
X-178708959Y-83664661D01*
X-178754195Y-83612457D01*
X-178770151Y-83578238D01*
X-178770154Y-83578233D01*
X-178772477Y-83573251D01*
X-178878713Y-83421531D01*
X-178901500Y-83349260D01*
X-178901500Y-77679925D01*
X-178881498Y-77611804D01*
X-178864595Y-77590830D01*
X-174590621Y-73316855D01*
X-174580478Y-73307753D01*
X-174555782Y-73287897D01*
X-174550975Y-73284032D01*
X-174518708Y-73245578D01*
X-174515528Y-73241931D01*
X-174513885Y-73240119D01*
X-174511691Y-73237925D01*
X-174484358Y-73204651D01*
X-174483652Y-73203800D01*
X-174455008Y-73169664D01*
X-174423846Y-73132526D01*
X-174421278Y-73127856D01*
X-174417897Y-73123739D01*
X-174374023Y-73041914D01*
X-174373394Y-73040755D01*
X-174331538Y-72964619D01*
X-174331535Y-72964611D01*
X-174328567Y-72959213D01*
X-174326955Y-72954131D01*
X-174324438Y-72949437D01*
X-174297238Y-72860469D01*
X-174296892Y-72859358D01*
X-174296619Y-72858500D01*
X-174268765Y-72770694D01*
X-174268171Y-72765398D01*
X-174266613Y-72760302D01*
X-174257210Y-72667743D01*
X-174257089Y-72666607D01*
X-174251500Y-72616773D01*
X-174251500Y-72613246D01*
X-174251445Y-72612261D01*
X-174250998Y-72606581D01*
X-174246626Y-72563538D01*
X-174250941Y-72517891D01*
X-174251500Y-72506033D01*
X-174251500Y-68096309D01*
X-174231498Y-68028188D01*
X-174207331Y-68000498D01*
X-174158323Y-67958641D01*
X-174154567Y-67955433D01*
X-174073329Y-67860316D01*
X-173998465Y-67772663D01*
X-173998463Y-67772660D01*
X-173995248Y-67768896D01*
X-173867073Y-67559732D01*
X-173773195Y-67333092D01*
X-173715928Y-67094557D01*
X-173696681Y-66850000D01*
X-173715928Y-66605443D01*
X-173736867Y-66518223D01*
X-173772040Y-66371720D01*
X-173773195Y-66366908D01*
X-173867073Y-66140268D01*
X-173945172Y-66012821D01*
X-173963710Y-65944288D01*
X-173942253Y-65876611D01*
X-173887614Y-65831278D01*
X-173843477Y-65821118D01*
X-173660311Y-65812768D01*
X-173474987Y-65804320D01*
X-173472155Y-65803931D01*
X-173472149Y-65803930D01*
X-173056938Y-65746831D01*
X-173056933Y-65746830D01*
X-173054089Y-65746439D01*
X-172640203Y-65650505D01*
X-172355009Y-65556352D01*
X-172315509Y-65550000D01*
X-169316990Y-65550000D01*
X-169248869Y-65570002D01*
G37*
%TD.AperFunction*%
%TA.AperFunction,Conductor*%
G36*
X-191648869Y-65570002D02*
G01*
X-191602376Y-65623658D01*
X-191592901Y-65689558D01*
X-191591745Y-65689684D01*
X-191598500Y-65751866D01*
X-191598500Y-67948134D01*
X-191591745Y-68010316D01*
X-191540615Y-68146705D01*
X-191453261Y-68263261D01*
X-191336705Y-68350615D01*
X-191200316Y-68401745D01*
X-191173086Y-68404703D01*
X-191160892Y-68406028D01*
X-191095330Y-68433270D01*
X-191054904Y-68491634D01*
X-191048500Y-68531291D01*
X-191048500Y-70015500D01*
X-191068502Y-70083621D01*
X-191122158Y-70130114D01*
X-191174500Y-70141500D01*
X-191989444Y-70141500D01*
X-192057565Y-70121498D01*
X-192085254Y-70097332D01*
X-192096822Y-70083788D01*
X-192096823Y-70083787D01*
X-192100031Y-70080031D01*
X-192280584Y-69925824D01*
X-192284792Y-69923245D01*
X-192284798Y-69923241D01*
X-192478817Y-69804346D01*
X-192483037Y-69801760D01*
X-192487607Y-69799867D01*
X-192487611Y-69799865D01*
X-192697833Y-69712789D01*
X-192697835Y-69712788D01*
X-192702406Y-69710895D01*
X-192782609Y-69691640D01*
X-192928476Y-69656620D01*
X-192928482Y-69656619D01*
X-192933289Y-69655465D01*
X-193170000Y-69636835D01*
X-193406711Y-69655465D01*
X-193411518Y-69656619D01*
X-193411524Y-69656620D01*
X-193557391Y-69691640D01*
X-193637594Y-69710895D01*
X-193642165Y-69712788D01*
X-193642167Y-69712789D01*
X-193852389Y-69799865D01*
X-193852393Y-69799867D01*
X-193856963Y-69801760D01*
X-193861183Y-69804346D01*
X-194055202Y-69923241D01*
X-194055208Y-69923245D01*
X-194059416Y-69925824D01*
X-194239969Y-70080031D01*
X-194394176Y-70260584D01*
X-194396755Y-70264792D01*
X-194396759Y-70264798D01*
X-194489458Y-70416069D01*
X-194518240Y-70463037D01*
X-194520133Y-70467607D01*
X-194520135Y-70467611D01*
X-194607211Y-70677833D01*
X-194609105Y-70682406D01*
X-194610260Y-70687218D01*
X-194658702Y-70888994D01*
X-194664535Y-70913289D01*
X-194683165Y-71150000D01*
X-194664535Y-71386711D01*
X-194663381Y-71391518D01*
X-194663380Y-71391524D01*
X-194647041Y-71459580D01*
X-194609105Y-71617594D01*
X-194607212Y-71622165D01*
X-194607211Y-71622167D01*
X-194525767Y-71818790D01*
X-194518240Y-71836963D01*
X-194515654Y-71841183D01*
X-194396759Y-72035202D01*
X-194396755Y-72035208D01*
X-194394176Y-72039416D01*
X-194239969Y-72219969D01*
X-194059416Y-72374176D01*
X-194055208Y-72376755D01*
X-194055202Y-72376759D01*
X-193871870Y-72489105D01*
X-193856963Y-72498240D01*
X-193852393Y-72500133D01*
X-193852389Y-72500135D01*
X-193642167Y-72587211D01*
X-193637594Y-72589105D01*
X-193566884Y-72606081D01*
X-193411524Y-72643380D01*
X-193411518Y-72643381D01*
X-193406711Y-72644535D01*
X-193170000Y-72663165D01*
X-192933289Y-72644535D01*
X-192928482Y-72643381D01*
X-192928476Y-72643380D01*
X-192773116Y-72606081D01*
X-192702406Y-72589105D01*
X-192697833Y-72587211D01*
X-192487611Y-72500135D01*
X-192487607Y-72500133D01*
X-192483037Y-72498240D01*
X-192468130Y-72489105D01*
X-192284798Y-72376759D01*
X-192284792Y-72376755D01*
X-192280584Y-72374176D01*
X-192100031Y-72219969D01*
X-192092376Y-72211006D01*
X-192085254Y-72202668D01*
X-192025803Y-72163860D01*
X-191989444Y-72158500D01*
X-191489612Y-72158500D01*
X-191421491Y-72178502D01*
X-191374998Y-72232158D01*
X-191363612Y-72284500D01*
X-191363612Y-72298134D01*
X-191356857Y-72360316D01*
X-191305727Y-72496705D01*
X-191218373Y-72613261D01*
X-191101817Y-72700615D01*
X-190965428Y-72751745D01*
X-190903246Y-72758500D01*
X-189206978Y-72758500D01*
X-189144796Y-72751745D01*
X-189008407Y-72700615D01*
X-188891851Y-72613261D01*
X-188833993Y-72536062D01*
X-188276619Y-72536062D01*
X-188267323Y-72548077D01*
X-188216118Y-72583931D01*
X-188206623Y-72589414D01*
X-188009165Y-72681490D01*
X-187998873Y-72685236D01*
X-187788424Y-72741625D01*
X-187777631Y-72743528D01*
X-187560587Y-72762517D01*
X-187549637Y-72762517D01*
X-187332593Y-72743528D01*
X-187321800Y-72741625D01*
X-187111351Y-72685236D01*
X-187101059Y-72681490D01*
X-186903601Y-72589414D01*
X-186894106Y-72583931D01*
X-186842064Y-72547491D01*
X-186833688Y-72537012D01*
X-186840756Y-72523566D01*
X-187542300Y-71822022D01*
X-187556244Y-71814408D01*
X-187558077Y-71814539D01*
X-187564692Y-71818790D01*
X-188270189Y-72524287D01*
X-188276619Y-72536062D01*
X-188833993Y-72536062D01*
X-188804497Y-72496705D01*
X-188753367Y-72360316D01*
X-188746612Y-72298134D01*
X-188746612Y-72294815D01*
X-188722959Y-72227890D01*
X-188676956Y-72192196D01*
X-188677971Y-72190266D01*
X-188667112Y-72184558D01*
X-188666867Y-72184368D01*
X-188666709Y-72184347D01*
X-188628678Y-72164356D01*
X-187927134Y-71462812D01*
X-187920756Y-71451132D01*
X-187190704Y-71451132D01*
X-187190573Y-71452965D01*
X-187186322Y-71459580D01*
X-186480825Y-72165077D01*
X-186469050Y-72171507D01*
X-186457035Y-72162211D01*
X-186421181Y-72111006D01*
X-186415698Y-72101511D01*
X-186323622Y-71904053D01*
X-186319876Y-71893761D01*
X-186263487Y-71683312D01*
X-186261584Y-71672519D01*
X-186242595Y-71455475D01*
X-186242595Y-71444525D01*
X-186261584Y-71227481D01*
X-186263487Y-71216688D01*
X-186319876Y-71006239D01*
X-186323622Y-70995947D01*
X-186415698Y-70798489D01*
X-186421181Y-70788994D01*
X-186457621Y-70736952D01*
X-186468100Y-70728576D01*
X-186481546Y-70735644D01*
X-187183090Y-71437188D01*
X-187190704Y-71451132D01*
X-187920756Y-71451132D01*
X-187919520Y-71448868D01*
X-187919651Y-71447035D01*
X-187923902Y-71440420D01*
X-188629399Y-70734923D01*
X-188671141Y-70712129D01*
X-188681141Y-70709953D01*
X-188731339Y-70659747D01*
X-188746563Y-70606186D01*
X-188746612Y-70605281D01*
X-188746612Y-70601866D01*
X-188753367Y-70539684D01*
X-188804497Y-70403295D01*
X-188834705Y-70362988D01*
X-188276536Y-70362988D01*
X-188269468Y-70376434D01*
X-187567924Y-71077978D01*
X-187553980Y-71085592D01*
X-187552147Y-71085461D01*
X-187545532Y-71081210D01*
X-186840035Y-70375713D01*
X-186833605Y-70363938D01*
X-186842901Y-70351923D01*
X-186894106Y-70316069D01*
X-186903601Y-70310586D01*
X-187101059Y-70218510D01*
X-187111351Y-70214764D01*
X-187321800Y-70158375D01*
X-187332593Y-70156472D01*
X-187549637Y-70137483D01*
X-187560587Y-70137483D01*
X-187777631Y-70156472D01*
X-187788424Y-70158375D01*
X-187998873Y-70214764D01*
X-188009165Y-70218510D01*
X-188206623Y-70310586D01*
X-188216118Y-70316069D01*
X-188268160Y-70352509D01*
X-188276536Y-70362988D01*
X-188834705Y-70362988D01*
X-188891851Y-70286739D01*
X-188981065Y-70219876D01*
X-189023580Y-70163018D01*
X-189031500Y-70119051D01*
X-189031500Y-68531291D01*
X-189011498Y-68463170D01*
X-188957842Y-68416677D01*
X-188919108Y-68406028D01*
X-188906914Y-68404703D01*
X-188879684Y-68401745D01*
X-188743295Y-68350615D01*
X-188626739Y-68263261D01*
X-188539385Y-68146705D01*
X-188488255Y-68010316D01*
X-188481500Y-67948134D01*
X-188481500Y-65751866D01*
X-188488255Y-65689684D01*
X-188484783Y-65689307D01*
X-188481854Y-65634142D01*
X-188440358Y-65576535D01*
X-188374304Y-65550507D01*
X-188363010Y-65550000D01*
X-181947228Y-65550000D01*
X-181879107Y-65570002D01*
X-181832614Y-65623658D01*
X-181822510Y-65693932D01*
X-181851417Y-65757830D01*
X-181934649Y-65855283D01*
X-181939176Y-65860584D01*
X-181941755Y-65864792D01*
X-181941759Y-65864798D01*
X-182043671Y-66031104D01*
X-182063240Y-66063037D01*
X-182065133Y-66067607D01*
X-182065135Y-66067611D01*
X-182152211Y-66277833D01*
X-182154105Y-66282406D01*
X-182155260Y-66287218D01*
X-182199555Y-66471720D01*
X-182209535Y-66513289D01*
X-182228165Y-66750000D01*
X-182209535Y-66986711D01*
X-182154105Y-67217594D01*
X-182152212Y-67222165D01*
X-182152211Y-67222167D01*
X-182104370Y-67337665D01*
X-182063240Y-67436963D01*
X-182060654Y-67441183D01*
X-181941759Y-67635202D01*
X-181941755Y-67635208D01*
X-181939176Y-67639416D01*
X-181784969Y-67819969D01*
X-181781213Y-67823177D01*
X-181781212Y-67823178D01*
X-181767668Y-67834746D01*
X-181728860Y-67894197D01*
X-181723500Y-67930556D01*
X-181723500Y-69696484D01*
X-181743502Y-69764605D01*
X-181783664Y-69803915D01*
X-181819416Y-69825824D01*
X-181823178Y-69829037D01*
X-181961279Y-69946987D01*
X-181999969Y-69980031D01*
X-182003177Y-69983787D01*
X-182014745Y-69997332D01*
X-182154176Y-70160584D01*
X-182156755Y-70164792D01*
X-182156759Y-70164798D01*
X-182246098Y-70310586D01*
X-182278240Y-70363037D01*
X-182280133Y-70367607D01*
X-182280135Y-70367611D01*
X-182351409Y-70539684D01*
X-182369105Y-70582406D01*
X-182370260Y-70587218D01*
X-182418702Y-70788994D01*
X-182424535Y-70813289D01*
X-182443165Y-71050000D01*
X-182424535Y-71286711D01*
X-182423381Y-71291518D01*
X-182423380Y-71291524D01*
X-182414747Y-71327481D01*
X-182369105Y-71517594D01*
X-182367212Y-71522165D01*
X-182367211Y-71522167D01*
X-182304933Y-71672519D01*
X-182278240Y-71736963D01*
X-182275654Y-71741183D01*
X-182156759Y-71935202D01*
X-182156755Y-71935208D01*
X-182154176Y-71939416D01*
X-181999969Y-72119969D01*
X-181819416Y-72274176D01*
X-181815208Y-72276755D01*
X-181815202Y-72276759D01*
X-181637650Y-72385563D01*
X-181616963Y-72398240D01*
X-181612393Y-72400133D01*
X-181612389Y-72400135D01*
X-181402167Y-72487211D01*
X-181397594Y-72489105D01*
X-181327084Y-72506033D01*
X-181171524Y-72543380D01*
X-181171518Y-72543381D01*
X-181166711Y-72544535D01*
X-180930000Y-72563165D01*
X-180693289Y-72544535D01*
X-180688482Y-72543381D01*
X-180688476Y-72543380D01*
X-180532916Y-72506033D01*
X-180462406Y-72489105D01*
X-180457833Y-72487211D01*
X-180247611Y-72400135D01*
X-180247607Y-72400133D01*
X-180243037Y-72398240D01*
X-180222350Y-72385563D01*
X-180044798Y-72276759D01*
X-180044792Y-72276755D01*
X-180040584Y-72274176D01*
X-179860031Y-72119969D01*
X-179705824Y-71939416D01*
X-179703245Y-71935208D01*
X-179703241Y-71935202D01*
X-179584346Y-71741183D01*
X-179581760Y-71736963D01*
X-179555066Y-71672519D01*
X-179492789Y-71522167D01*
X-179492788Y-71522165D01*
X-179490895Y-71517594D01*
X-179445253Y-71327481D01*
X-179436620Y-71291524D01*
X-179436619Y-71291518D01*
X-179435465Y-71286711D01*
X-179416835Y-71050000D01*
X-179435465Y-70813289D01*
X-179441297Y-70788994D01*
X-179489740Y-70587218D01*
X-179490895Y-70582406D01*
X-179508591Y-70539684D01*
X-179579865Y-70367611D01*
X-179579867Y-70367607D01*
X-179581760Y-70363037D01*
X-179635225Y-70275790D01*
X-179687933Y-70189779D01*
X-179706500Y-70123944D01*
X-179706500Y-68239063D01*
X-179686498Y-68170942D01*
X-179632842Y-68124449D01*
X-179562568Y-68114345D01*
X-179504936Y-68138236D01*
X-179421705Y-68200615D01*
X-179285316Y-68251745D01*
X-179223134Y-68258500D01*
X-177126866Y-68258500D01*
X-177064684Y-68251745D01*
X-176928295Y-68200615D01*
X-176811739Y-68113261D01*
X-176724385Y-67996705D01*
X-176713031Y-67966420D01*
X-176679150Y-67876041D01*
X-176636509Y-67819276D01*
X-176569947Y-67794576D01*
X-176500598Y-67809783D01*
X-176465358Y-67838439D01*
X-176368648Y-67951670D01*
X-176368641Y-67951677D01*
X-176365433Y-67955433D01*
X-176361677Y-67958641D01*
X-176312669Y-68000498D01*
X-176273860Y-68059949D01*
X-176268500Y-68096309D01*
X-176268500Y-72090075D01*
X-176288502Y-72158196D01*
X-176305405Y-72179170D01*
X-180579379Y-76453145D01*
X-180589522Y-76462247D01*
X-180619025Y-76485968D01*
X-180622992Y-76490696D01*
X-180651291Y-76524421D01*
X-180654472Y-76528069D01*
X-180656115Y-76529881D01*
X-180658309Y-76532075D01*
X-180685642Y-76565349D01*
X-180686304Y-76566147D01*
X-180746154Y-76637474D01*
X-180748722Y-76642144D01*
X-180752103Y-76646261D01*
X-180779078Y-76696569D01*
X-180795977Y-76728086D01*
X-180796606Y-76729245D01*
X-180838462Y-76805381D01*
X-180838465Y-76805389D01*
X-180841433Y-76810787D01*
X-180843045Y-76815869D01*
X-180845562Y-76820563D01*
X-180872762Y-76909531D01*
X-180873082Y-76910559D01*
X-180901235Y-76999306D01*
X-180901829Y-77004602D01*
X-180903387Y-77009698D01*
X-180912228Y-77096738D01*
X-180912782Y-77102187D01*
X-180912911Y-77103393D01*
X-180912934Y-77103604D01*
X-180917333Y-77142826D01*
X-180918500Y-77153227D01*
X-180918500Y-77156754D01*
X-180918555Y-77157739D01*
X-180919002Y-77163419D01*
X-180923374Y-77206462D01*
X-180922794Y-77212593D01*
X-180919059Y-77252109D01*
X-180918500Y-77263967D01*
X-180918500Y-83349260D01*
X-180941287Y-83421531D01*
X-181047523Y-83573251D01*
X-181049846Y-83578233D01*
X-181049849Y-83578238D01*
X-181065805Y-83612457D01*
X-181112722Y-83665742D01*
X-181180999Y-83685203D01*
X-181248959Y-83664661D01*
X-181294195Y-83612457D01*
X-181310151Y-83578238D01*
X-181310154Y-83578233D01*
X-181312477Y-83573251D01*
X-181418713Y-83421531D01*
X-181441500Y-83349260D01*
X-181441500Y-78711843D01*
X-181440763Y-78698236D01*
X-181437341Y-78666738D01*
X-181437341Y-78666733D01*
X-181436676Y-78660612D01*
X-181441050Y-78610612D01*
X-181441379Y-78605786D01*
X-181441500Y-78603314D01*
X-181441500Y-78600231D01*
X-181444556Y-78569065D01*
X-181445690Y-78557494D01*
X-181445812Y-78556181D01*
X-181453377Y-78469718D01*
X-181453913Y-78463587D01*
X-181455400Y-78458468D01*
X-181455920Y-78453167D01*
X-181482791Y-78364166D01*
X-181483126Y-78363033D01*
X-181507370Y-78279586D01*
X-181507372Y-78279582D01*
X-181509091Y-78273664D01*
X-181511544Y-78268932D01*
X-181513084Y-78263831D01*
X-181556731Y-78181740D01*
X-181557343Y-78180574D01*
X-181597271Y-78103547D01*
X-181600108Y-78098074D01*
X-181603431Y-78093911D01*
X-181605934Y-78089204D01*
X-181664755Y-78017082D01*
X-181665446Y-78016226D01*
X-181696738Y-77977027D01*
X-181699242Y-77974523D01*
X-181699884Y-77973805D01*
X-181703585Y-77969472D01*
X-181730935Y-77935938D01*
X-181766263Y-77906712D01*
X-181775042Y-77898723D01*
X-184193145Y-75480621D01*
X-184202247Y-75470478D01*
X-184222103Y-75445782D01*
X-184225968Y-75440975D01*
X-184264422Y-75408708D01*
X-184268069Y-75405528D01*
X-184269881Y-75403885D01*
X-184272075Y-75401691D01*
X-184305349Y-75374358D01*
X-184306147Y-75373696D01*
X-184377474Y-75313846D01*
X-184382144Y-75311278D01*
X-184386261Y-75307897D01*
X-184468086Y-75264023D01*
X-184469245Y-75263394D01*
X-184545381Y-75221538D01*
X-184545389Y-75221535D01*
X-184550787Y-75218567D01*
X-184555869Y-75216955D01*
X-184560563Y-75214438D01*
X-184649531Y-75187238D01*
X-184650559Y-75186918D01*
X-184739306Y-75158765D01*
X-184744602Y-75158171D01*
X-184749698Y-75156613D01*
X-184842257Y-75147210D01*
X-184843393Y-75147089D01*
X-184877008Y-75143319D01*
X-184889730Y-75141892D01*
X-184889734Y-75141892D01*
X-184893227Y-75141500D01*
X-184896754Y-75141500D01*
X-184897739Y-75141445D01*
X-184903419Y-75140998D01*
X-184932825Y-75138011D01*
X-184940337Y-75137248D01*
X-184940339Y-75137248D01*
X-184946462Y-75136626D01*
X-184988741Y-75140623D01*
X-184992109Y-75140941D01*
X-185003967Y-75141500D01*
X-195180075Y-75141500D01*
X-195248196Y-75121498D01*
X-195269170Y-75104595D01*
X-196614595Y-73759171D01*
X-196648620Y-73696859D01*
X-196651500Y-73670076D01*
X-196651500Y-68096309D01*
X-196631498Y-68028188D01*
X-196607331Y-68000498D01*
X-196558323Y-67958641D01*
X-196554567Y-67955433D01*
X-196473329Y-67860316D01*
X-196398465Y-67772663D01*
X-196398463Y-67772660D01*
X-196395248Y-67768896D01*
X-196267073Y-67559732D01*
X-196173195Y-67333092D01*
X-196115928Y-67094557D01*
X-196096681Y-66850000D01*
X-196115928Y-66605443D01*
X-196136867Y-66518223D01*
X-196172040Y-66371720D01*
X-196173195Y-66366908D01*
X-196267073Y-66140268D01*
X-196267049Y-66140258D01*
X-196279882Y-66071927D01*
X-196253183Y-66006142D01*
X-196195155Y-65965235D01*
X-196154511Y-65958500D01*
X-196038541Y-65958500D01*
X-195617326Y-65920590D01*
X-195201204Y-65845075D01*
X-194793527Y-65732563D01*
X-194653555Y-65680031D01*
X-194400215Y-65584952D01*
X-194400204Y-65584947D01*
X-194397576Y-65583961D01*
X-194352966Y-65562478D01*
X-194298297Y-65550000D01*
X-191716990Y-65550000D01*
X-191648869Y-65570002D01*
G37*
%TD.AperFunction*%
%TA.AperFunction,Conductor*%
G36*
X-146748869Y-65570002D02*
G01*
X-146702376Y-65623658D01*
X-146692901Y-65689558D01*
X-146691745Y-65689684D01*
X-146698500Y-65751866D01*
X-146698500Y-67948134D01*
X-146691745Y-68010316D01*
X-146640615Y-68146705D01*
X-146553261Y-68263261D01*
X-146436705Y-68350615D01*
X-146300316Y-68401745D01*
X-146273086Y-68404703D01*
X-146260892Y-68406028D01*
X-146195330Y-68433270D01*
X-146154904Y-68491634D01*
X-146148500Y-68531291D01*
X-146148500Y-69915500D01*
X-146168502Y-69983621D01*
X-146222158Y-70030114D01*
X-146274500Y-70041500D01*
X-147189444Y-70041500D01*
X-147257565Y-70021498D01*
X-147285254Y-69997332D01*
X-147296822Y-69983788D01*
X-147296823Y-69983787D01*
X-147300031Y-69980031D01*
X-147480584Y-69825824D01*
X-147484792Y-69823245D01*
X-147484798Y-69823241D01*
X-147678817Y-69704346D01*
X-147683037Y-69701760D01*
X-147687607Y-69699867D01*
X-147687611Y-69699865D01*
X-147897833Y-69612789D01*
X-147897835Y-69612788D01*
X-147902406Y-69610895D01*
X-147982609Y-69591640D01*
X-148128476Y-69556620D01*
X-148128482Y-69556619D01*
X-148133289Y-69555465D01*
X-148370000Y-69536835D01*
X-148606711Y-69555465D01*
X-148611518Y-69556619D01*
X-148611524Y-69556620D01*
X-148757391Y-69591640D01*
X-148837594Y-69610895D01*
X-148842165Y-69612788D01*
X-148842167Y-69612789D01*
X-149052389Y-69699865D01*
X-149052393Y-69699867D01*
X-149056963Y-69701760D01*
X-149061183Y-69704346D01*
X-149255202Y-69823241D01*
X-149255208Y-69823245D01*
X-149259416Y-69825824D01*
X-149439969Y-69980031D01*
X-149443177Y-69983787D01*
X-149454745Y-69997332D01*
X-149594176Y-70160584D01*
X-149596755Y-70164792D01*
X-149596759Y-70164798D01*
X-149686098Y-70310586D01*
X-149718240Y-70363037D01*
X-149720133Y-70367607D01*
X-149720135Y-70367611D01*
X-149791409Y-70539684D01*
X-149809105Y-70582406D01*
X-149810260Y-70587218D01*
X-149858702Y-70788994D01*
X-149864535Y-70813289D01*
X-149883165Y-71050000D01*
X-149864535Y-71286711D01*
X-149863381Y-71291518D01*
X-149863380Y-71291524D01*
X-149854747Y-71327481D01*
X-149809105Y-71517594D01*
X-149807212Y-71522165D01*
X-149807211Y-71522167D01*
X-149744933Y-71672519D01*
X-149718240Y-71736963D01*
X-149715654Y-71741183D01*
X-149596759Y-71935202D01*
X-149596755Y-71935208D01*
X-149594176Y-71939416D01*
X-149439969Y-72119969D01*
X-149259416Y-72274176D01*
X-149255208Y-72276755D01*
X-149255202Y-72276759D01*
X-149077650Y-72385563D01*
X-149056963Y-72398240D01*
X-149052393Y-72400133D01*
X-149052389Y-72400135D01*
X-148842167Y-72487211D01*
X-148837594Y-72489105D01*
X-148767084Y-72506033D01*
X-148611524Y-72543380D01*
X-148611518Y-72543381D01*
X-148606711Y-72544535D01*
X-148370000Y-72563165D01*
X-148133289Y-72544535D01*
X-148128482Y-72543381D01*
X-148128476Y-72543380D01*
X-147972916Y-72506033D01*
X-147902406Y-72489105D01*
X-147897833Y-72487211D01*
X-147687611Y-72400135D01*
X-147687607Y-72400133D01*
X-147683037Y-72398240D01*
X-147662350Y-72385563D01*
X-147484798Y-72276759D01*
X-147484792Y-72276755D01*
X-147480584Y-72274176D01*
X-147300031Y-72119969D01*
X-147285254Y-72102668D01*
X-147225803Y-72063860D01*
X-147189444Y-72058500D01*
X-146489612Y-72058500D01*
X-146421491Y-72078502D01*
X-146374998Y-72132158D01*
X-146363612Y-72184500D01*
X-146363612Y-72398134D01*
X-146356857Y-72460316D01*
X-146305727Y-72596705D01*
X-146218373Y-72713261D01*
X-146101817Y-72800615D01*
X-145965428Y-72851745D01*
X-145903246Y-72858500D01*
X-144206978Y-72858500D01*
X-144144796Y-72851745D01*
X-144008407Y-72800615D01*
X-143891851Y-72713261D01*
X-143833993Y-72636062D01*
X-143276619Y-72636062D01*
X-143267323Y-72648077D01*
X-143216118Y-72683931D01*
X-143206623Y-72689414D01*
X-143009165Y-72781490D01*
X-142998873Y-72785236D01*
X-142788424Y-72841625D01*
X-142777631Y-72843528D01*
X-142560587Y-72862517D01*
X-142549637Y-72862517D01*
X-142332593Y-72843528D01*
X-142321800Y-72841625D01*
X-142111351Y-72785236D01*
X-142101059Y-72781490D01*
X-141903601Y-72689414D01*
X-141894106Y-72683931D01*
X-141842064Y-72647491D01*
X-141833688Y-72637012D01*
X-141840756Y-72623566D01*
X-142542300Y-71922022D01*
X-142556244Y-71914408D01*
X-142558077Y-71914539D01*
X-142564692Y-71918790D01*
X-143270189Y-72624287D01*
X-143276619Y-72636062D01*
X-143833993Y-72636062D01*
X-143804497Y-72596705D01*
X-143753367Y-72460316D01*
X-143746612Y-72398134D01*
X-143746612Y-72394815D01*
X-143722959Y-72327890D01*
X-143676956Y-72292196D01*
X-143677971Y-72290266D01*
X-143667112Y-72284558D01*
X-143666867Y-72284368D01*
X-143666709Y-72284347D01*
X-143628678Y-72264356D01*
X-142927134Y-71562812D01*
X-142920756Y-71551132D01*
X-142190704Y-71551132D01*
X-142190573Y-71552965D01*
X-142186322Y-71559580D01*
X-141480825Y-72265077D01*
X-141469050Y-72271507D01*
X-141457035Y-72262211D01*
X-141421181Y-72211006D01*
X-141415698Y-72201511D01*
X-141323622Y-72004053D01*
X-141319876Y-71993761D01*
X-141263487Y-71783312D01*
X-141261584Y-71772519D01*
X-141242595Y-71555475D01*
X-141242595Y-71544525D01*
X-141261584Y-71327481D01*
X-141263487Y-71316688D01*
X-141319876Y-71106239D01*
X-141323622Y-71095947D01*
X-141415698Y-70898489D01*
X-141421181Y-70888994D01*
X-141457621Y-70836952D01*
X-141468100Y-70828576D01*
X-141481546Y-70835644D01*
X-142183090Y-71537188D01*
X-142190704Y-71551132D01*
X-142920756Y-71551132D01*
X-142919520Y-71548868D01*
X-142919651Y-71547035D01*
X-142923902Y-71540420D01*
X-143629399Y-70834923D01*
X-143671141Y-70812129D01*
X-143681141Y-70809953D01*
X-143731339Y-70759747D01*
X-143746563Y-70706186D01*
X-143746612Y-70705281D01*
X-143746612Y-70701866D01*
X-143753367Y-70639684D01*
X-143804497Y-70503295D01*
X-143834705Y-70462988D01*
X-143276536Y-70462988D01*
X-143269468Y-70476434D01*
X-142567924Y-71177978D01*
X-142553980Y-71185592D01*
X-142552147Y-71185461D01*
X-142545532Y-71181210D01*
X-141840035Y-70475713D01*
X-141833605Y-70463938D01*
X-141842901Y-70451923D01*
X-141894106Y-70416069D01*
X-141903601Y-70410586D01*
X-142101059Y-70318510D01*
X-142111351Y-70314764D01*
X-142321800Y-70258375D01*
X-142332593Y-70256472D01*
X-142549637Y-70237483D01*
X-142560587Y-70237483D01*
X-142777631Y-70256472D01*
X-142788424Y-70258375D01*
X-142998873Y-70314764D01*
X-143009165Y-70318510D01*
X-143206623Y-70410586D01*
X-143216118Y-70416069D01*
X-143268160Y-70452509D01*
X-143276536Y-70462988D01*
X-143834705Y-70462988D01*
X-143891851Y-70386739D01*
X-144008407Y-70299385D01*
X-144016816Y-70296233D01*
X-144016817Y-70296232D01*
X-144049729Y-70283894D01*
X-144106494Y-70241253D01*
X-144131194Y-70174692D01*
X-144131500Y-70165912D01*
X-144131500Y-68531291D01*
X-144111498Y-68463170D01*
X-144057842Y-68416677D01*
X-144019108Y-68406028D01*
X-144006914Y-68404703D01*
X-143979684Y-68401745D01*
X-143843295Y-68350615D01*
X-143726739Y-68263261D01*
X-143639385Y-68146705D01*
X-143588255Y-68010316D01*
X-143581500Y-67948134D01*
X-143581500Y-65751866D01*
X-143588255Y-65689684D01*
X-143584783Y-65689307D01*
X-143581854Y-65634142D01*
X-143540358Y-65576535D01*
X-143474304Y-65550507D01*
X-143463010Y-65550000D01*
X-137322228Y-65550000D01*
X-137254107Y-65570002D01*
X-137207614Y-65623658D01*
X-137197510Y-65693932D01*
X-137226417Y-65757830D01*
X-137309649Y-65855283D01*
X-137314176Y-65860584D01*
X-137316755Y-65864792D01*
X-137316759Y-65864798D01*
X-137418671Y-66031104D01*
X-137438240Y-66063037D01*
X-137440133Y-66067607D01*
X-137440135Y-66067611D01*
X-137527211Y-66277833D01*
X-137529105Y-66282406D01*
X-137530260Y-66287218D01*
X-137574555Y-66471720D01*
X-137584535Y-66513289D01*
X-137603165Y-66750000D01*
X-137584535Y-66986711D01*
X-137529105Y-67217594D01*
X-137527212Y-67222165D01*
X-137527211Y-67222167D01*
X-137479370Y-67337665D01*
X-137438240Y-67436963D01*
X-137435654Y-67441183D01*
X-137316759Y-67635202D01*
X-137316755Y-67635208D01*
X-137314176Y-67639416D01*
X-137159969Y-67819969D01*
X-137156213Y-67823177D01*
X-137156212Y-67823178D01*
X-137142668Y-67834746D01*
X-137103860Y-67894197D01*
X-137098500Y-67930556D01*
X-137098500Y-69735281D01*
X-137118502Y-69803402D01*
X-137142669Y-69831092D01*
X-137199969Y-69880031D01*
X-137354176Y-70060584D01*
X-137356755Y-70064792D01*
X-137356759Y-70064798D01*
X-137464720Y-70240975D01*
X-137478240Y-70263037D01*
X-137480133Y-70267607D01*
X-137480135Y-70267611D01*
X-137567211Y-70477833D01*
X-137569105Y-70482406D01*
X-137581080Y-70532285D01*
X-137621876Y-70702215D01*
X-137624535Y-70713289D01*
X-137643165Y-70950000D01*
X-137624535Y-71186711D01*
X-137623381Y-71191518D01*
X-137623380Y-71191524D01*
X-137614747Y-71227481D01*
X-137569105Y-71417594D01*
X-137567212Y-71422165D01*
X-137567211Y-71422167D01*
X-137511993Y-71555475D01*
X-137478240Y-71636963D01*
X-137475654Y-71641183D01*
X-137356759Y-71835202D01*
X-137356755Y-71835208D01*
X-137354176Y-71839416D01*
X-137199969Y-72019969D01*
X-137019416Y-72174176D01*
X-137015208Y-72176755D01*
X-137015202Y-72176759D01*
X-136833224Y-72288275D01*
X-136816963Y-72298240D01*
X-136812393Y-72300133D01*
X-136812389Y-72300135D01*
X-136602167Y-72387211D01*
X-136597594Y-72389105D01*
X-136517391Y-72408360D01*
X-136371524Y-72443380D01*
X-136371518Y-72443381D01*
X-136366711Y-72444535D01*
X-136130000Y-72463165D01*
X-135893289Y-72444535D01*
X-135888482Y-72443381D01*
X-135888476Y-72443380D01*
X-135742609Y-72408360D01*
X-135662406Y-72389105D01*
X-135657833Y-72387211D01*
X-135447611Y-72300135D01*
X-135447607Y-72300133D01*
X-135443037Y-72298240D01*
X-135426776Y-72288275D01*
X-135244798Y-72176759D01*
X-135244792Y-72176755D01*
X-135240584Y-72174176D01*
X-135060031Y-72019969D01*
X-134905824Y-71839416D01*
X-134903245Y-71835208D01*
X-134903241Y-71835202D01*
X-134784346Y-71641183D01*
X-134781760Y-71636963D01*
X-134748006Y-71555475D01*
X-134692789Y-71422167D01*
X-134692788Y-71422165D01*
X-134690895Y-71417594D01*
X-134645253Y-71227481D01*
X-134636620Y-71191524D01*
X-134636619Y-71191518D01*
X-134635465Y-71186711D01*
X-134616835Y-70950000D01*
X-134635465Y-70713289D01*
X-134638123Y-70702215D01*
X-134678920Y-70532285D01*
X-134690895Y-70482406D01*
X-134692789Y-70477833D01*
X-134779865Y-70267611D01*
X-134779867Y-70267607D01*
X-134781760Y-70263037D01*
X-134795280Y-70240975D01*
X-134903241Y-70064798D01*
X-134903245Y-70064792D01*
X-134905824Y-70060584D01*
X-135051311Y-69890241D01*
X-135080342Y-69825451D01*
X-135081500Y-69808410D01*
X-135081500Y-68239063D01*
X-135061498Y-68170942D01*
X-135007842Y-68124449D01*
X-134937568Y-68114345D01*
X-134879936Y-68138236D01*
X-134796705Y-68200615D01*
X-134660316Y-68251745D01*
X-134598134Y-68258500D01*
X-132501866Y-68258500D01*
X-132439684Y-68251745D01*
X-132303295Y-68200615D01*
X-132186739Y-68113261D01*
X-132108551Y-68008935D01*
X-132051692Y-67966420D01*
X-132007725Y-67958500D01*
X-131906309Y-67958500D01*
X-131838188Y-67978502D01*
X-131810498Y-68002669D01*
X-131765433Y-68055433D01*
X-131761677Y-68058641D01*
X-131712669Y-68100498D01*
X-131673860Y-68159949D01*
X-131668500Y-68196309D01*
X-131668500Y-75190076D01*
X-131688502Y-75258197D01*
X-131705405Y-75279171D01*
X-133230829Y-76804595D01*
X-133293141Y-76838621D01*
X-133319924Y-76841500D01*
X-154715664Y-76841500D01*
X-154783785Y-76821498D01*
X-154830278Y-76767842D01*
X-154840382Y-76697568D01*
X-154810888Y-76632988D01*
X-154794274Y-76617030D01*
X-154777027Y-76603262D01*
X-154774523Y-76600758D01*
X-154773805Y-76600116D01*
X-154769472Y-76596415D01*
X-154735938Y-76569065D01*
X-154706712Y-76533737D01*
X-154698723Y-76524958D01*
X-152090616Y-73916851D01*
X-152080473Y-73907749D01*
X-152055782Y-73887897D01*
X-152050975Y-73884032D01*
X-152018688Y-73845554D01*
X-152015533Y-73841938D01*
X-152013877Y-73840112D01*
X-152011691Y-73837926D01*
X-152009736Y-73835546D01*
X-152009727Y-73835536D01*
X-151984424Y-73804732D01*
X-151983582Y-73803717D01*
X-151927806Y-73737245D01*
X-151923846Y-73732526D01*
X-151921277Y-73727852D01*
X-151917898Y-73723739D01*
X-151874025Y-73641915D01*
X-151873416Y-73640793D01*
X-151831536Y-73564614D01*
X-151831535Y-73564612D01*
X-151828567Y-73559213D01*
X-151826955Y-73554131D01*
X-151824438Y-73549437D01*
X-151797238Y-73460469D01*
X-151796892Y-73459358D01*
X-151770627Y-73376563D01*
X-151768765Y-73370694D01*
X-151768171Y-73365398D01*
X-151766613Y-73360302D01*
X-151757215Y-73267778D01*
X-151757095Y-73266658D01*
X-151751500Y-73216773D01*
X-151751500Y-73213246D01*
X-151751444Y-73212243D01*
X-151750997Y-73206559D01*
X-151746627Y-73163538D01*
X-151750941Y-73117899D01*
X-151751500Y-73106043D01*
X-151751500Y-68096309D01*
X-151731498Y-68028188D01*
X-151707331Y-68000498D01*
X-151658323Y-67958641D01*
X-151654567Y-67955433D01*
X-151573329Y-67860316D01*
X-151498465Y-67772663D01*
X-151498463Y-67772660D01*
X-151495248Y-67768896D01*
X-151367073Y-67559732D01*
X-151273195Y-67333092D01*
X-151215928Y-67094557D01*
X-151196681Y-66850000D01*
X-151215928Y-66605443D01*
X-151236867Y-66518223D01*
X-151272040Y-66371720D01*
X-151273195Y-66366908D01*
X-151367073Y-66140268D01*
X-151433822Y-66031343D01*
X-151452359Y-65962812D01*
X-151430903Y-65895136D01*
X-151376263Y-65849803D01*
X-151337683Y-65840018D01*
X-151130762Y-65821395D01*
X-150723479Y-65747484D01*
X-150324460Y-65637362D01*
X-150245903Y-65607879D01*
X-150113091Y-65558034D01*
X-150068818Y-65550000D01*
X-146816990Y-65550000D01*
X-146748869Y-65570002D01*
G37*
%TD.AperFunction*%
%TD*%
M02*
