%TF.GenerationSoftware,KiCad,Pcbnew,(6.0.8)*%
%TF.CreationDate,2023-03-03T00:40:12+05:30*%
%TF.ProjectId,STM32DryerPCB,53544d33-3244-4727-9965-725043422e6b,rev?*%
%TF.SameCoordinates,Original*%
%TF.FileFunction,Drillmap*%
%TF.FilePolarity,Positive*%
%FSLAX45Y45*%
G04 Gerber Fmt 4.5, Leading zero omitted, Abs format (unit mm)*
G04 Created by KiCad (PCBNEW (6.0.8)) date 2023-03-03 00:40:12*
%MOMM*%
%LPD*%
G01*
G04 APERTURE LIST*
%ADD10C,0.100000*%
%ADD11C,0.200000*%
%ADD12C,0.040000*%
%ADD13C,0.080000*%
%ADD14C,0.090000*%
%ADD15C,0.110000*%
%ADD16C,0.120000*%
%ADD17C,0.130000*%
%ADD18C,0.170000*%
%ADD19C,0.180000*%
%ADD20C,0.250000*%
%ADD21C,0.300000*%
G04 APERTURE END LIST*
D10*
X-14765000Y-5635000D02*
X-14765000Y-6125000D01*
X-16975000Y-3765000D02*
G75*
G03*
X-17095000Y-3765000I-60000J0D01*
G01*
X-17735000Y-6125000D02*
X-17735000Y-5545000D01*
X-12535000Y-4235000D02*
X-12535000Y-3765000D01*
X-14845000Y-5545000D02*
X-13275000Y-5545000D01*
X-12535000Y-5635000D02*
X-12535000Y-6125000D01*
X-15585000Y-6125000D02*
G75*
G03*
X-14765000Y-6125000I410000J0D01*
G01*
X-13275000Y-5545000D02*
X-13275000Y-6125000D01*
X-17805000Y-5635000D02*
X-19205000Y-5635000D01*
X-20045000Y-6125000D02*
G75*
G03*
X-19205000Y-6125000I420000J0D01*
G01*
X-20045000Y-5635000D02*
X-20415000Y-5635000D01*
X-15505000Y-5545000D02*
X-17055000Y-5545000D01*
X-12155000Y-5635000D02*
X-12535000Y-5635000D01*
X-17815000Y-5545000D02*
X-17735000Y-5545000D01*
X-17805000Y-6125000D02*
X-17805000Y-5635000D01*
X-17095000Y-4235000D02*
G75*
G03*
X-16975000Y-4235000I60000J0D01*
G01*
X-14845000Y-6125000D02*
X-14845000Y-5545000D01*
X-16535000Y-5635000D02*
X-15585000Y-5635000D01*
X-19965000Y-5545000D02*
X-19965000Y-6125000D01*
X-14755000Y-4225000D02*
X-14755000Y-3755000D01*
X-16975000Y-4235000D02*
X-16975000Y-3765000D01*
X-20045000Y-6125000D02*
X-20045000Y-5635000D01*
X-12535000Y-3765000D02*
G75*
G03*
X-12655000Y-3765000I-60000J0D01*
G01*
X-19335000Y-4235000D02*
G75*
G03*
X-19215000Y-4235000I60000J0D01*
G01*
X-16974881Y-6125000D02*
X-16974881Y-5635000D01*
X-17055000Y-5545000D02*
X-17055000Y-6125000D01*
X-13355000Y-5635000D02*
X-14765000Y-5635000D01*
X-13355000Y-6125000D02*
G75*
G03*
X-12535000Y-6125000I410000J0D01*
G01*
X-19965000Y-6125000D02*
G75*
G03*
X-19285000Y-6125000I340000J0D01*
G01*
X-15585000Y-5635000D02*
X-15585000Y-6125000D01*
X-12655000Y-3765000D02*
X-12655000Y-4235000D01*
X-19215000Y-3765000D02*
G75*
G03*
X-19335000Y-3765000I-60000J0D01*
G01*
X-13275000Y-6125000D02*
G75*
G03*
X-12615000Y-6125000I330000J-9461D01*
G01*
X-17735000Y-6125000D02*
G75*
G03*
X-17055000Y-6125000I340000J0D01*
G01*
X-14875000Y-3755000D02*
X-14875000Y-4225000D01*
X-14875000Y-4225000D02*
G75*
G03*
X-14755000Y-4225000I60000J0D01*
G01*
X-21835000Y-405000D02*
X-11835000Y-405000D01*
X-11835000Y-405000D02*
X-11835000Y-10405000D01*
X-11835000Y-10405000D02*
X-21835000Y-10405000D01*
X-21835000Y-10405000D02*
X-21835000Y-405000D01*
X-20415000Y-5545000D02*
X-19965000Y-5545000D01*
X-12155000Y-5545000D02*
X-12155000Y-5635000D01*
X-15505000Y-6125000D02*
X-15505000Y-5545000D01*
X-14755000Y-3755000D02*
G75*
G03*
X-14875000Y-3755000I-60000J0D01*
G01*
X-20415000Y-5635000D02*
X-20415000Y-5545000D01*
X-17805000Y-6125000D02*
G75*
G03*
X-16974881Y-6125000I415060J9127D01*
G01*
X-17095000Y-3765000D02*
X-17095000Y-4235000D01*
X-19205000Y-5635000D02*
X-19205000Y-6125000D01*
X-19285000Y-5545000D02*
X-17815000Y-5545000D01*
X-15505000Y-6125000D02*
G75*
G03*
X-14845000Y-6125000I330000J-20697D01*
G01*
X-19285000Y-6125000D02*
X-19285000Y-5545000D01*
X-19335000Y-3765000D02*
X-19335000Y-4235000D01*
X-13355000Y-6125000D02*
X-13355000Y-5635000D01*
X-12615000Y-5545000D02*
X-12155000Y-5545000D01*
X-16974881Y-5635000D02*
X-16535000Y-5635000D01*
X-12615000Y-6125000D02*
X-12615000Y-5545000D01*
X-19215000Y-4235000D02*
X-19215000Y-3765000D01*
X-12655000Y-4235000D02*
G75*
G03*
X-12535000Y-4235000I60000J0D01*
G01*
D11*
D12*
X-18610000Y-8415000D02*
X-18570000Y-8455000D01*
X-18570000Y-8415000D02*
X-18610000Y-8455000D01*
X-18610000Y-8645000D02*
X-18570000Y-8685000D01*
X-18570000Y-8645000D02*
X-18610000Y-8685000D01*
X-18610000Y-8870000D02*
X-18570000Y-8910000D01*
X-18570000Y-8870000D02*
X-18610000Y-8910000D01*
X-18610000Y-9125000D02*
X-18570000Y-9165000D01*
X-18570000Y-9125000D02*
X-18610000Y-9165000D01*
X-18605000Y-9350000D02*
X-18565000Y-9390000D01*
X-18565000Y-9350000D02*
X-18605000Y-9390000D01*
X-16490000Y-9460000D02*
X-16450000Y-9500000D01*
X-16450000Y-9460000D02*
X-16490000Y-9500000D01*
X-16330000Y-9460000D02*
X-16290000Y-9500000D01*
X-16290000Y-9460000D02*
X-16330000Y-9500000D01*
X-16265000Y-9030000D02*
X-16225000Y-9070000D01*
X-16225000Y-9030000D02*
X-16265000Y-9070000D01*
X-16265000Y-9200000D02*
X-16225000Y-9240000D01*
X-16225000Y-9200000D02*
X-16265000Y-9240000D01*
X-15385000Y-9705000D02*
X-15345000Y-9745000D01*
X-15345000Y-9705000D02*
X-15385000Y-9745000D01*
X-15385000Y-9825000D02*
X-15345000Y-9865000D01*
X-15345000Y-9825000D02*
X-15385000Y-9865000D01*
D13*
X-18965511Y-7145000D02*
G75*
G03*
X-18965511Y-7145000I-40000J0D01*
G01*
X-18715511Y-7145000D02*
G75*
G03*
X-18715511Y-7145000I-40000J0D01*
G01*
X-18205000Y-8463000D02*
G75*
G03*
X-18205000Y-8463000I-40000J0D01*
G01*
X-18205000Y-9225000D02*
G75*
G03*
X-18205000Y-9225000I-40000J0D01*
G01*
X-17951000Y-8463000D02*
G75*
G03*
X-17951000Y-8463000I-40000J0D01*
G01*
X-17951000Y-9225000D02*
G75*
G03*
X-17951000Y-9225000I-40000J0D01*
G01*
X-17697000Y-8463000D02*
G75*
G03*
X-17697000Y-8463000I-40000J0D01*
G01*
X-17697000Y-9225000D02*
G75*
G03*
X-17697000Y-9225000I-40000J0D01*
G01*
X-17443000Y-8463000D02*
G75*
G03*
X-17443000Y-8463000I-40000J0D01*
G01*
X-17443000Y-9225000D02*
G75*
G03*
X-17443000Y-9225000I-40000J0D01*
G01*
X-17189000Y-8463000D02*
G75*
G03*
X-17189000Y-8463000I-40000J0D01*
G01*
X-17189000Y-9225000D02*
G75*
G03*
X-17189000Y-9225000I-40000J0D01*
G01*
X-16935000Y-8463000D02*
G75*
G03*
X-16935000Y-8463000I-40000J0D01*
G01*
X-16935000Y-9225000D02*
G75*
G03*
X-16935000Y-9225000I-40000J0D01*
G01*
X-16725511Y-7145000D02*
G75*
G03*
X-16725511Y-7145000I-40000J0D01*
G01*
X-16681000Y-8463000D02*
G75*
G03*
X-16681000Y-8463000I-40000J0D01*
G01*
X-16681000Y-9225000D02*
G75*
G03*
X-16681000Y-9225000I-40000J0D01*
G01*
X-16475511Y-7145000D02*
G75*
G03*
X-16475511Y-7145000I-40000J0D01*
G01*
X-16427000Y-8463000D02*
G75*
G03*
X-16427000Y-8463000I-40000J0D01*
G01*
X-16427000Y-9225000D02*
G75*
G03*
X-16427000Y-9225000I-40000J0D01*
G01*
X-14465511Y-7155000D02*
G75*
G03*
X-14465511Y-7155000I-40000J0D01*
G01*
X-14215511Y-7155000D02*
G75*
G03*
X-14215511Y-7155000I-40000J0D01*
G01*
X-12225511Y-7145000D02*
G75*
G03*
X-12225511Y-7145000I-40000J0D01*
G01*
X-11975511Y-7145000D02*
G75*
G03*
X-11975511Y-7145000I-40000J0D01*
G01*
D14*
X-20333000Y-7070000D02*
X-20333000Y-7160000D01*
X-20378000Y-7115000D02*
X-20288000Y-7115000D01*
X-20311500Y-6630000D02*
X-20311500Y-6720000D01*
X-20356500Y-6675000D02*
X-20266500Y-6675000D01*
X-20057500Y-6630000D02*
X-20057500Y-6720000D01*
X-20102500Y-6675000D02*
X-20012500Y-6675000D01*
X-19317000Y-7070000D02*
X-19317000Y-7160000D01*
X-19362000Y-7115000D02*
X-19272000Y-7115000D01*
X-18093000Y-7060000D02*
X-18093000Y-7150000D01*
X-18138000Y-7105000D02*
X-18048000Y-7105000D01*
X-18071500Y-6630000D02*
X-18071500Y-6720000D01*
X-18116500Y-6675000D02*
X-18026500Y-6675000D01*
X-17817500Y-6630000D02*
X-17817500Y-6720000D01*
X-17862500Y-6675000D02*
X-17772500Y-6675000D01*
X-17077000Y-7060000D02*
X-17077000Y-7150000D01*
X-17122000Y-7105000D02*
X-17032000Y-7105000D01*
X-15853000Y-7060000D02*
X-15853000Y-7150000D01*
X-15898000Y-7105000D02*
X-15808000Y-7105000D01*
X-15829000Y-6630000D02*
X-15829000Y-6720000D01*
X-15874000Y-6675000D02*
X-15784000Y-6675000D01*
X-15575000Y-6630000D02*
X-15575000Y-6720000D01*
X-15620000Y-6675000D02*
X-15530000Y-6675000D01*
X-15065000Y-8056000D02*
X-15065000Y-8146000D01*
X-15110000Y-8101000D02*
X-15020000Y-8101000D01*
X-15065000Y-9072000D02*
X-15065000Y-9162000D01*
X-15110000Y-9117000D02*
X-15020000Y-9117000D01*
X-15051000Y-9430000D02*
X-15051000Y-9520000D01*
X-15096000Y-9475000D02*
X-15006000Y-9475000D01*
X-14837000Y-7060000D02*
X-14837000Y-7150000D01*
X-14882000Y-7105000D02*
X-14792000Y-7105000D01*
X-14797000Y-9430000D02*
X-14797000Y-9520000D01*
X-14842000Y-9475000D02*
X-14752000Y-9475000D01*
X-14735000Y-8054000D02*
X-14735000Y-8144000D01*
X-14780000Y-8099000D02*
X-14690000Y-8099000D01*
X-14735000Y-9070000D02*
X-14735000Y-9160000D01*
X-14780000Y-9115000D02*
X-14690000Y-9115000D01*
X-14543000Y-9430000D02*
X-14543000Y-9520000D01*
X-14588000Y-9475000D02*
X-14498000Y-9475000D01*
X-14395000Y-8044000D02*
X-14395000Y-8134000D01*
X-14440000Y-8089000D02*
X-14350000Y-8089000D01*
X-14395000Y-9060000D02*
X-14395000Y-9150000D01*
X-14440000Y-9105000D02*
X-14350000Y-9105000D01*
X-14289000Y-9430000D02*
X-14289000Y-9520000D01*
X-14334000Y-9475000D02*
X-14244000Y-9475000D01*
X-14065000Y-8054000D02*
X-14065000Y-8144000D01*
X-14110000Y-8099000D02*
X-14020000Y-8099000D01*
X-14065000Y-9070000D02*
X-14065000Y-9160000D01*
X-14110000Y-9115000D02*
X-14020000Y-9115000D01*
X-14035000Y-9430000D02*
X-14035000Y-9520000D01*
X-14080000Y-9475000D02*
X-13990000Y-9475000D01*
X-13613000Y-7050000D02*
X-13613000Y-7140000D01*
X-13658000Y-7095000D02*
X-13568000Y-7095000D01*
X-13609000Y-6630000D02*
X-13609000Y-6720000D01*
X-13654000Y-6675000D02*
X-13564000Y-6675000D01*
X-13355000Y-6630000D02*
X-13355000Y-6720000D01*
X-13400000Y-6675000D02*
X-13310000Y-6675000D01*
X-12597000Y-7050000D02*
X-12597000Y-7140000D01*
X-12642000Y-7095000D02*
X-12552000Y-7095000D01*
D10*
X-20184644Y-6095356D02*
X-20184644Y-6024644D01*
X-20255356Y-6024644D01*
X-20255356Y-6095356D01*
X-20184644Y-6095356D01*
X-18984644Y-6095356D02*
X-18984644Y-6024644D01*
X-19055356Y-6024644D01*
X-19055356Y-6095356D01*
X-18984644Y-6095356D01*
X-17954644Y-6095356D02*
X-17954644Y-6024644D01*
X-18025356Y-6024644D01*
X-18025356Y-6095356D01*
X-17954644Y-6095356D01*
X-16754644Y-6095356D02*
X-16754644Y-6024644D01*
X-16825356Y-6024644D01*
X-16825356Y-6095356D01*
X-16754644Y-6095356D01*
X-15964909Y-9425356D02*
X-15964909Y-9354644D01*
X-16035621Y-9354644D01*
X-16035621Y-9425356D01*
X-15964909Y-9425356D01*
X-15763644Y-10130356D02*
X-15763644Y-10059644D01*
X-15834356Y-10059644D01*
X-15834356Y-10130356D01*
X-15763644Y-10130356D01*
X-15734644Y-6095356D02*
X-15734644Y-6024644D01*
X-15805356Y-6024644D01*
X-15805356Y-6095356D01*
X-15734644Y-6095356D01*
X-15509644Y-10130356D02*
X-15509644Y-10059644D01*
X-15580356Y-10059644D01*
X-15580356Y-10130356D01*
X-15509644Y-10130356D01*
X-15464909Y-9425356D02*
X-15464909Y-9354644D01*
X-15535621Y-9354644D01*
X-15535621Y-9425356D01*
X-15464909Y-9425356D01*
X-15011644Y-10130356D02*
X-15011644Y-10059644D01*
X-15082356Y-10059644D01*
X-15082356Y-10130356D01*
X-15011644Y-10130356D01*
X-14757644Y-10130356D02*
X-14757644Y-10059644D01*
X-14828356Y-10059644D01*
X-14828356Y-10130356D01*
X-14757644Y-10130356D01*
X-14534644Y-6095356D02*
X-14534644Y-6024644D01*
X-14605356Y-6024644D01*
X-14605356Y-6095356D01*
X-14534644Y-6095356D01*
X-14503644Y-10130356D02*
X-14503644Y-10059644D01*
X-14574356Y-10059644D01*
X-14574356Y-10130356D01*
X-14503644Y-10130356D01*
X-14249644Y-10130356D02*
X-14249644Y-10059644D01*
X-14320356Y-10059644D01*
X-14320356Y-10130356D01*
X-14249644Y-10130356D01*
X-13504644Y-6095356D02*
X-13504644Y-6024644D01*
X-13575356Y-6024644D01*
X-13575356Y-6095356D01*
X-13504644Y-6095356D01*
X-12304644Y-6095356D02*
X-12304644Y-6024644D01*
X-12375356Y-6024644D01*
X-12375356Y-6095356D01*
X-12304644Y-6095356D01*
D15*
X-19766000Y-6740000D02*
X-19711000Y-6685000D01*
X-19766000Y-6630000D01*
X-19821000Y-6685000D01*
X-19766000Y-6740000D01*
X-19525000Y-4050000D02*
X-19470000Y-3995000D01*
X-19525000Y-3940000D01*
X-19580000Y-3995000D01*
X-19525000Y-4050000D01*
X-19025000Y-4050000D02*
X-18970000Y-3995000D01*
X-19025000Y-3940000D01*
X-19080000Y-3995000D01*
X-19025000Y-4050000D01*
X-19004000Y-6740000D02*
X-18949000Y-6685000D01*
X-19004000Y-6630000D01*
X-19059000Y-6685000D01*
X-19004000Y-6740000D01*
X-17526000Y-6740000D02*
X-17471000Y-6685000D01*
X-17526000Y-6630000D01*
X-17581000Y-6685000D01*
X-17526000Y-6740000D01*
X-17285000Y-4050000D02*
X-17230000Y-3995000D01*
X-17285000Y-3940000D01*
X-17340000Y-3995000D01*
X-17285000Y-4050000D01*
X-16785000Y-4050000D02*
X-16730000Y-3995000D01*
X-16785000Y-3940000D01*
X-16840000Y-3995000D01*
X-16785000Y-4050000D01*
X-16764000Y-6740000D02*
X-16709000Y-6685000D01*
X-16764000Y-6630000D01*
X-16819000Y-6685000D01*
X-16764000Y-6740000D01*
X-15276000Y-6740000D02*
X-15221000Y-6685000D01*
X-15276000Y-6630000D01*
X-15331000Y-6685000D01*
X-15276000Y-6740000D01*
X-15065000Y-4050000D02*
X-15010000Y-3995000D01*
X-15065000Y-3940000D01*
X-15120000Y-3995000D01*
X-15065000Y-4050000D01*
X-14565000Y-4050000D02*
X-14510000Y-3995000D01*
X-14565000Y-3940000D01*
X-14620000Y-3995000D01*
X-14565000Y-4050000D01*
X-14514000Y-6740000D02*
X-14459000Y-6685000D01*
X-14514000Y-6630000D01*
X-14569000Y-6685000D01*
X-14514000Y-6740000D01*
X-13066000Y-6750000D02*
X-13011000Y-6695000D01*
X-13066000Y-6640000D01*
X-13121000Y-6695000D01*
X-13066000Y-6750000D01*
X-12845000Y-4050000D02*
X-12790000Y-3995000D01*
X-12845000Y-3940000D01*
X-12900000Y-3995000D01*
X-12845000Y-4050000D01*
X-12345000Y-4050000D02*
X-12290000Y-3995000D01*
X-12345000Y-3940000D01*
X-12400000Y-3995000D01*
X-12345000Y-4050000D01*
X-12304000Y-6750000D02*
X-12249000Y-6695000D01*
X-12304000Y-6640000D01*
X-12359000Y-6695000D01*
X-12304000Y-6750000D01*
D16*
X-19905000Y-1805000D02*
X-19785000Y-1925000D01*
X-19785000Y-1805000D02*
X-19905000Y-1925000D01*
X-19785000Y-1865000D02*
G75*
G03*
X-19785000Y-1865000I-60000J0D01*
G01*
X-19905000Y-3305000D02*
X-19785000Y-3425000D01*
X-19785000Y-3305000D02*
X-19905000Y-3425000D01*
X-19785000Y-3365000D02*
G75*
G03*
X-19785000Y-3365000I-60000J0D01*
G01*
X-19085000Y-1833000D02*
X-18965000Y-1953000D01*
X-18965000Y-1833000D02*
X-19085000Y-1953000D01*
X-18965000Y-1893000D02*
G75*
G03*
X-18965000Y-1893000I-60000J0D01*
G01*
X-19085000Y-3357000D02*
X-18965000Y-3477000D01*
X-18965000Y-3357000D02*
X-19085000Y-3477000D01*
X-18965000Y-3417000D02*
G75*
G03*
X-18965000Y-3417000I-60000J0D01*
G01*
X-17675000Y-1795000D02*
X-17555000Y-1915000D01*
X-17555000Y-1795000D02*
X-17675000Y-1915000D01*
X-17555000Y-1855000D02*
G75*
G03*
X-17555000Y-1855000I-60000J0D01*
G01*
X-17675000Y-3295000D02*
X-17555000Y-3415000D01*
X-17555000Y-3295000D02*
X-17675000Y-3415000D01*
X-17555000Y-3355000D02*
G75*
G03*
X-17555000Y-3355000I-60000J0D01*
G01*
X-16845000Y-1821000D02*
X-16725000Y-1941000D01*
X-16725000Y-1821000D02*
X-16845000Y-1941000D01*
X-16725000Y-1881000D02*
G75*
G03*
X-16725000Y-1881000I-60000J0D01*
G01*
X-16845000Y-3345000D02*
X-16725000Y-3465000D01*
X-16725000Y-3345000D02*
X-16845000Y-3465000D01*
X-16725000Y-3405000D02*
G75*
G03*
X-16725000Y-3405000I-60000J0D01*
G01*
X-15465000Y-1795000D02*
X-15345000Y-1915000D01*
X-15345000Y-1795000D02*
X-15465000Y-1915000D01*
X-15345000Y-1855000D02*
G75*
G03*
X-15345000Y-1855000I-60000J0D01*
G01*
X-15465000Y-3295000D02*
X-15345000Y-3415000D01*
X-15345000Y-3295000D02*
X-15465000Y-3415000D01*
X-15345000Y-3355000D02*
G75*
G03*
X-15345000Y-3355000I-60000J0D01*
G01*
X-14625000Y-1821000D02*
X-14505000Y-1941000D01*
X-14505000Y-1821000D02*
X-14625000Y-1941000D01*
X-14505000Y-1881000D02*
G75*
G03*
X-14505000Y-1881000I-60000J0D01*
G01*
X-14625000Y-3345000D02*
X-14505000Y-3465000D01*
X-14505000Y-3345000D02*
X-14625000Y-3465000D01*
X-14505000Y-3405000D02*
G75*
G03*
X-14505000Y-3405000I-60000J0D01*
G01*
X-13265000Y-1805000D02*
X-13145000Y-1925000D01*
X-13145000Y-1805000D02*
X-13265000Y-1925000D01*
X-13145000Y-1865000D02*
G75*
G03*
X-13145000Y-1865000I-60000J0D01*
G01*
X-13265000Y-3305000D02*
X-13145000Y-3425000D01*
X-13145000Y-3305000D02*
X-13265000Y-3425000D01*
X-13145000Y-3365000D02*
G75*
G03*
X-13145000Y-3365000I-60000J0D01*
G01*
X-12405000Y-1821000D02*
X-12285000Y-1941000D01*
X-12285000Y-1821000D02*
X-12405000Y-1941000D01*
X-12285000Y-1881000D02*
G75*
G03*
X-12285000Y-1881000I-60000J0D01*
G01*
X-12405000Y-3345000D02*
X-12285000Y-3465000D01*
X-12285000Y-3345000D02*
X-12405000Y-3465000D01*
X-12285000Y-3405000D02*
G75*
G03*
X-12285000Y-3405000I-60000J0D01*
G01*
D17*
X-20290000Y-4770000D02*
X-20160000Y-4900000D01*
X-20160000Y-4770000D02*
X-20290000Y-4900000D01*
X-20225000Y-4770000D02*
X-20225000Y-4900000D01*
X-20290000Y-4835000D02*
X-20160000Y-4835000D01*
X-19690000Y-6190000D02*
X-19560000Y-6320000D01*
X-19560000Y-6190000D02*
X-19690000Y-6320000D01*
X-19625000Y-6190000D02*
X-19625000Y-6320000D01*
X-19690000Y-6255000D02*
X-19560000Y-6255000D01*
X-19085000Y-4775000D02*
X-18955000Y-4905000D01*
X-18955000Y-4775000D02*
X-19085000Y-4905000D01*
X-19020000Y-4775000D02*
X-19020000Y-4905000D01*
X-19085000Y-4840000D02*
X-18955000Y-4840000D01*
X-18060000Y-4770000D02*
X-17930000Y-4900000D01*
X-17930000Y-4770000D02*
X-18060000Y-4900000D01*
X-17995000Y-4770000D02*
X-17995000Y-4900000D01*
X-18060000Y-4835000D02*
X-17930000Y-4835000D01*
X-17460000Y-6190000D02*
X-17330000Y-6320000D01*
X-17330000Y-6190000D02*
X-17460000Y-6320000D01*
X-17395000Y-6190000D02*
X-17395000Y-6320000D01*
X-17460000Y-6255000D02*
X-17330000Y-6255000D01*
X-16855000Y-4775000D02*
X-16725000Y-4905000D01*
X-16725000Y-4775000D02*
X-16855000Y-4905000D01*
X-16790000Y-4775000D02*
X-16790000Y-4905000D01*
X-16855000Y-4840000D02*
X-16725000Y-4840000D01*
X-15840000Y-4770000D02*
X-15710000Y-4900000D01*
X-15710000Y-4770000D02*
X-15840000Y-4900000D01*
X-15775000Y-4770000D02*
X-15775000Y-4900000D01*
X-15840000Y-4835000D02*
X-15710000Y-4835000D01*
X-15240000Y-6190000D02*
X-15110000Y-6320000D01*
X-15110000Y-6190000D02*
X-15240000Y-6320000D01*
X-15175000Y-6190000D02*
X-15175000Y-6320000D01*
X-15240000Y-6255000D02*
X-15110000Y-6255000D01*
X-14635000Y-4775000D02*
X-14505000Y-4905000D01*
X-14505000Y-4775000D02*
X-14635000Y-4905000D01*
X-14570000Y-4775000D02*
X-14570000Y-4905000D01*
X-14635000Y-4840000D02*
X-14505000Y-4840000D01*
X-13610000Y-4770000D02*
X-13480000Y-4900000D01*
X-13480000Y-4770000D02*
X-13610000Y-4900000D01*
X-13545000Y-4770000D02*
X-13545000Y-4900000D01*
X-13610000Y-4835000D02*
X-13480000Y-4835000D01*
X-13010000Y-6190000D02*
X-12880000Y-6320000D01*
X-12880000Y-6190000D02*
X-13010000Y-6320000D01*
X-12945000Y-6190000D02*
X-12945000Y-6320000D01*
X-13010000Y-6255000D02*
X-12880000Y-6255000D01*
X-12405000Y-4775000D02*
X-12275000Y-4905000D01*
X-12275000Y-4775000D02*
X-12405000Y-4905000D01*
X-12340000Y-4775000D02*
X-12340000Y-4905000D01*
X-12405000Y-4840000D02*
X-12275000Y-4840000D01*
D18*
X-18188250Y-870000D02*
X-18018250Y-1040000D01*
X-18018250Y-870000D02*
X-18188250Y-1040000D01*
X-18043145Y-1015105D02*
X-18043145Y-894895D01*
X-18163355Y-894895D01*
X-18163355Y-1015105D01*
X-18043145Y-1015105D01*
X-17680250Y-870000D02*
X-17510250Y-1040000D01*
X-17510250Y-870000D02*
X-17680250Y-1040000D01*
X-17535145Y-1015105D02*
X-17535145Y-894895D01*
X-17655355Y-894895D01*
X-17655355Y-1015105D01*
X-17535145Y-1015105D01*
X-17172250Y-870000D02*
X-17002250Y-1040000D01*
X-17002250Y-870000D02*
X-17172250Y-1040000D01*
X-17027145Y-1015105D02*
X-17027145Y-894895D01*
X-17147355Y-894895D01*
X-17147355Y-1015105D01*
X-17027145Y-1015105D01*
X-16664250Y-870000D02*
X-16494250Y-1040000D01*
X-16494250Y-870000D02*
X-16664250Y-1040000D01*
X-16519145Y-1015105D02*
X-16519145Y-894895D01*
X-16639355Y-894895D01*
X-16639355Y-1015105D01*
X-16519145Y-1015105D01*
X-16156250Y-870000D02*
X-15986250Y-1040000D01*
X-15986250Y-870000D02*
X-16156250Y-1040000D01*
X-16011145Y-1015105D02*
X-16011145Y-894895D01*
X-16131355Y-894895D01*
X-16131355Y-1015105D01*
X-16011145Y-1015105D01*
X-15648250Y-870000D02*
X-15478250Y-1040000D01*
X-15478250Y-870000D02*
X-15648250Y-1040000D01*
X-15503145Y-1015105D02*
X-15503145Y-894895D01*
X-15623355Y-894895D01*
X-15623355Y-1015105D01*
X-15503145Y-1015105D01*
D19*
X-21325000Y-2075500D02*
X-21145000Y-2255500D01*
X-21145000Y-2075500D02*
X-21325000Y-2255500D01*
X-21235000Y-2255500D02*
X-21145000Y-2165500D01*
X-21235000Y-2075500D01*
X-21325000Y-2165500D01*
X-21235000Y-2255500D01*
X-21325000Y-3034500D02*
X-21145000Y-3214500D01*
X-21145000Y-3034500D02*
X-21325000Y-3214500D01*
X-21235000Y-3214500D02*
X-21145000Y-3124500D01*
X-21235000Y-3034500D01*
X-21325000Y-3124500D01*
X-21235000Y-3214500D01*
D20*
X-21235000Y-1364500D02*
X-21235000Y-1614500D01*
X-21360000Y-1489500D02*
X-21110000Y-1489500D01*
X-21110000Y-1489500D02*
G75*
G03*
X-21110000Y-1489500I-125000J0D01*
G01*
X-21235000Y-3675500D02*
X-21235000Y-3925500D01*
X-21360000Y-3800500D02*
X-21110000Y-3800500D01*
X-21110000Y-3800500D02*
G75*
G03*
X-21110000Y-3800500I-125000J0D01*
G01*
D21*
X-21378933Y-861067D02*
X-21378933Y-648933D01*
X-21591067Y-648933D01*
X-21591067Y-861067D01*
X-21378933Y-861067D01*
X-21335000Y-755000D02*
G75*
G03*
X-21335000Y-755000I-150000J0D01*
G01*
X-21368933Y-10161067D02*
X-21368933Y-9948933D01*
X-21581067Y-9948933D01*
X-21581067Y-10161067D01*
X-21368933Y-10161067D01*
X-21325000Y-10055000D02*
G75*
G03*
X-21325000Y-10055000I-150000J0D01*
G01*
X-12098933Y-10161067D02*
X-12098933Y-9948933D01*
X-12311067Y-9948933D01*
X-12311067Y-10161067D01*
X-12098933Y-10161067D01*
X-12055000Y-10055000D02*
G75*
G03*
X-12055000Y-10055000I-150000J0D01*
G01*
X-12078933Y-861067D02*
X-12078933Y-648933D01*
X-12291067Y-648933D01*
X-12291067Y-861067D01*
X-12078933Y-861067D01*
X-12035000Y-755000D02*
G75*
G03*
X-12035000Y-755000I-150000J0D01*
G01*
D11*
X-21582381Y-10720476D02*
X-21582381Y-10520476D01*
X-21534762Y-10520476D01*
X-21506190Y-10530000D01*
X-21487143Y-10549048D01*
X-21477619Y-10568095D01*
X-21468095Y-10606190D01*
X-21468095Y-10634762D01*
X-21477619Y-10672857D01*
X-21487143Y-10691905D01*
X-21506190Y-10710952D01*
X-21534762Y-10720476D01*
X-21582381Y-10720476D01*
X-21382381Y-10720476D02*
X-21382381Y-10587143D01*
X-21382381Y-10625238D02*
X-21372857Y-10606190D01*
X-21363333Y-10596667D01*
X-21344286Y-10587143D01*
X-21325238Y-10587143D01*
X-21258571Y-10720476D02*
X-21258571Y-10587143D01*
X-21258571Y-10520476D02*
X-21268095Y-10530000D01*
X-21258571Y-10539524D01*
X-21249048Y-10530000D01*
X-21258571Y-10520476D01*
X-21258571Y-10539524D01*
X-21134762Y-10720476D02*
X-21153810Y-10710952D01*
X-21163333Y-10691905D01*
X-21163333Y-10520476D01*
X-21030000Y-10720476D02*
X-21049048Y-10710952D01*
X-21058571Y-10691905D01*
X-21058571Y-10520476D01*
X-20801429Y-10720476D02*
X-20801429Y-10520476D01*
X-20734762Y-10663333D01*
X-20668095Y-10520476D01*
X-20668095Y-10720476D01*
X-20487143Y-10720476D02*
X-20487143Y-10615714D01*
X-20496667Y-10596667D01*
X-20515714Y-10587143D01*
X-20553810Y-10587143D01*
X-20572857Y-10596667D01*
X-20487143Y-10710952D02*
X-20506190Y-10720476D01*
X-20553810Y-10720476D01*
X-20572857Y-10710952D01*
X-20582381Y-10691905D01*
X-20582381Y-10672857D01*
X-20572857Y-10653810D01*
X-20553810Y-10644286D01*
X-20506190Y-10644286D01*
X-20487143Y-10634762D01*
X-20391905Y-10587143D02*
X-20391905Y-10787143D01*
X-20391905Y-10596667D02*
X-20372857Y-10587143D01*
X-20334762Y-10587143D01*
X-20315714Y-10596667D01*
X-20306190Y-10606190D01*
X-20296667Y-10625238D01*
X-20296667Y-10682381D01*
X-20306190Y-10701429D01*
X-20315714Y-10710952D01*
X-20334762Y-10720476D01*
X-20372857Y-10720476D01*
X-20391905Y-10710952D01*
X-20210952Y-10701429D02*
X-20201429Y-10710952D01*
X-20210952Y-10720476D01*
X-20220476Y-10710952D01*
X-20210952Y-10701429D01*
X-20210952Y-10720476D01*
X-20210952Y-10596667D02*
X-20201429Y-10606190D01*
X-20210952Y-10615714D01*
X-20220476Y-10606190D01*
X-20210952Y-10596667D01*
X-20210952Y-10615714D01*
D12*
X-21880000Y-11030000D02*
X-21840000Y-11070000D01*
X-21840000Y-11030000D02*
X-21880000Y-11070000D01*
D11*
X-21544286Y-10940476D02*
X-21525238Y-10940476D01*
X-21506190Y-10950000D01*
X-21496667Y-10959524D01*
X-21487143Y-10978571D01*
X-21477619Y-11016667D01*
X-21477619Y-11064286D01*
X-21487143Y-11102381D01*
X-21496667Y-11121429D01*
X-21506190Y-11130952D01*
X-21525238Y-11140476D01*
X-21544286Y-11140476D01*
X-21563333Y-11130952D01*
X-21572857Y-11121429D01*
X-21582381Y-11102381D01*
X-21591905Y-11064286D01*
X-21591905Y-11016667D01*
X-21582381Y-10978571D01*
X-21572857Y-10959524D01*
X-21563333Y-10950000D01*
X-21544286Y-10940476D01*
X-21391905Y-11121429D02*
X-21382381Y-11130952D01*
X-21391905Y-11140476D01*
X-21401429Y-11130952D01*
X-21391905Y-11121429D01*
X-21391905Y-11140476D01*
X-21210952Y-11007143D02*
X-21210952Y-11140476D01*
X-21258571Y-10930952D02*
X-21306190Y-11073810D01*
X-21182381Y-11073810D01*
X-21068095Y-10940476D02*
X-21049048Y-10940476D01*
X-21030000Y-10950000D01*
X-21020476Y-10959524D01*
X-21010952Y-10978571D01*
X-21001429Y-11016667D01*
X-21001429Y-11064286D01*
X-21010952Y-11102381D01*
X-21020476Y-11121429D01*
X-21030000Y-11130952D01*
X-21049048Y-11140476D01*
X-21068095Y-11140476D01*
X-21087143Y-11130952D01*
X-21096667Y-11121429D01*
X-21106190Y-11102381D01*
X-21115714Y-11064286D01*
X-21115714Y-11016667D01*
X-21106190Y-10978571D01*
X-21096667Y-10959524D01*
X-21087143Y-10950000D01*
X-21068095Y-10940476D01*
X-20877619Y-10940476D02*
X-20858571Y-10940476D01*
X-20839524Y-10950000D01*
X-20830000Y-10959524D01*
X-20820476Y-10978571D01*
X-20810952Y-11016667D01*
X-20810952Y-11064286D01*
X-20820476Y-11102381D01*
X-20830000Y-11121429D01*
X-20839524Y-11130952D01*
X-20858571Y-11140476D01*
X-20877619Y-11140476D01*
X-20896667Y-11130952D01*
X-20906190Y-11121429D01*
X-20915714Y-11102381D01*
X-20925238Y-11064286D01*
X-20925238Y-11016667D01*
X-20915714Y-10978571D01*
X-20906190Y-10959524D01*
X-20896667Y-10950000D01*
X-20877619Y-10940476D01*
X-20725238Y-11140476D02*
X-20725238Y-11007143D01*
X-20725238Y-11026190D02*
X-20715714Y-11016667D01*
X-20696667Y-11007143D01*
X-20668095Y-11007143D01*
X-20649048Y-11016667D01*
X-20639524Y-11035714D01*
X-20639524Y-11140476D01*
X-20639524Y-11035714D02*
X-20630000Y-11016667D01*
X-20610952Y-11007143D01*
X-20582381Y-11007143D01*
X-20563333Y-11016667D01*
X-20553810Y-11035714D01*
X-20553810Y-11140476D01*
X-20458571Y-11140476D02*
X-20458571Y-11007143D01*
X-20458571Y-11026190D02*
X-20449048Y-11016667D01*
X-20430000Y-11007143D01*
X-20401429Y-11007143D01*
X-20382381Y-11016667D01*
X-20372857Y-11035714D01*
X-20372857Y-11140476D01*
X-20372857Y-11035714D02*
X-20363333Y-11016667D01*
X-20344286Y-11007143D01*
X-20315714Y-11007143D01*
X-20296667Y-11016667D01*
X-20287143Y-11035714D01*
X-20287143Y-11140476D01*
X-19896667Y-10930952D02*
X-20068095Y-11188095D01*
X-19639524Y-10940476D02*
X-19620476Y-10940476D01*
X-19601429Y-10950000D01*
X-19591905Y-10959524D01*
X-19582381Y-10978571D01*
X-19572857Y-11016667D01*
X-19572857Y-11064286D01*
X-19582381Y-11102381D01*
X-19591905Y-11121429D01*
X-19601429Y-11130952D01*
X-19620476Y-11140476D01*
X-19639524Y-11140476D01*
X-19658571Y-11130952D01*
X-19668095Y-11121429D01*
X-19677619Y-11102381D01*
X-19687143Y-11064286D01*
X-19687143Y-11016667D01*
X-19677619Y-10978571D01*
X-19668095Y-10959524D01*
X-19658571Y-10950000D01*
X-19639524Y-10940476D01*
X-19487143Y-11121429D02*
X-19477619Y-11130952D01*
X-19487143Y-11140476D01*
X-19496667Y-11130952D01*
X-19487143Y-11121429D01*
X-19487143Y-11140476D01*
X-19353810Y-10940476D02*
X-19334762Y-10940476D01*
X-19315714Y-10950000D01*
X-19306190Y-10959524D01*
X-19296667Y-10978571D01*
X-19287143Y-11016667D01*
X-19287143Y-11064286D01*
X-19296667Y-11102381D01*
X-19306190Y-11121429D01*
X-19315714Y-11130952D01*
X-19334762Y-11140476D01*
X-19353810Y-11140476D01*
X-19372857Y-11130952D01*
X-19382381Y-11121429D01*
X-19391905Y-11102381D01*
X-19401429Y-11064286D01*
X-19401429Y-11016667D01*
X-19391905Y-10978571D01*
X-19382381Y-10959524D01*
X-19372857Y-10950000D01*
X-19353810Y-10940476D01*
X-19096667Y-11140476D02*
X-19210952Y-11140476D01*
X-19153810Y-11140476D02*
X-19153810Y-10940476D01*
X-19172857Y-10969048D01*
X-19191905Y-10988095D01*
X-19210952Y-10997619D01*
X-18915714Y-10940476D02*
X-19010952Y-10940476D01*
X-19020476Y-11035714D01*
X-19010952Y-11026190D01*
X-18991905Y-11016667D01*
X-18944286Y-11016667D01*
X-18925238Y-11026190D01*
X-18915714Y-11035714D01*
X-18906190Y-11054762D01*
X-18906190Y-11102381D01*
X-18915714Y-11121429D01*
X-18925238Y-11130952D01*
X-18944286Y-11140476D01*
X-18991905Y-11140476D01*
X-19010952Y-11130952D01*
X-19020476Y-11121429D01*
X-18839524Y-10940476D02*
X-18706190Y-10940476D01*
X-18791905Y-11140476D01*
X-18639524Y-10940476D02*
X-18639524Y-10978571D01*
X-18563333Y-10940476D02*
X-18563333Y-10978571D01*
X-18268095Y-11216667D02*
X-18277619Y-11207143D01*
X-18296667Y-11178571D01*
X-18306190Y-11159524D01*
X-18315714Y-11130952D01*
X-18325238Y-11083333D01*
X-18325238Y-11045238D01*
X-18315714Y-10997619D01*
X-18306190Y-10969048D01*
X-18296667Y-10950000D01*
X-18277619Y-10921429D01*
X-18268095Y-10911905D01*
X-18087143Y-11140476D02*
X-18201429Y-11140476D01*
X-18144286Y-11140476D02*
X-18144286Y-10940476D01*
X-18163333Y-10969048D01*
X-18182381Y-10988095D01*
X-18201429Y-10997619D01*
X-17896667Y-11140476D02*
X-18010952Y-11140476D01*
X-17953810Y-11140476D02*
X-17953810Y-10940476D01*
X-17972857Y-10969048D01*
X-17991905Y-10988095D01*
X-18010952Y-10997619D01*
X-17658571Y-11140476D02*
X-17658571Y-10940476D01*
X-17572857Y-11140476D02*
X-17572857Y-11035714D01*
X-17582381Y-11016667D01*
X-17601429Y-11007143D01*
X-17630000Y-11007143D01*
X-17649048Y-11016667D01*
X-17658571Y-11026190D01*
X-17449048Y-11140476D02*
X-17468095Y-11130952D01*
X-17477619Y-11121429D01*
X-17487143Y-11102381D01*
X-17487143Y-11045238D01*
X-17477619Y-11026190D01*
X-17468095Y-11016667D01*
X-17449048Y-11007143D01*
X-17420476Y-11007143D01*
X-17401429Y-11016667D01*
X-17391905Y-11026190D01*
X-17382381Y-11045238D01*
X-17382381Y-11102381D01*
X-17391905Y-11121429D01*
X-17401429Y-11130952D01*
X-17420476Y-11140476D01*
X-17449048Y-11140476D01*
X-17268095Y-11140476D02*
X-17287143Y-11130952D01*
X-17296667Y-11111905D01*
X-17296667Y-10940476D01*
X-17115714Y-11130952D02*
X-17134762Y-11140476D01*
X-17172857Y-11140476D01*
X-17191905Y-11130952D01*
X-17201429Y-11111905D01*
X-17201429Y-11035714D01*
X-17191905Y-11016667D01*
X-17172857Y-11007143D01*
X-17134762Y-11007143D01*
X-17115714Y-11016667D01*
X-17106190Y-11035714D01*
X-17106190Y-11054762D01*
X-17201429Y-11073810D01*
X-17030000Y-11130952D02*
X-17010952Y-11140476D01*
X-16972857Y-11140476D01*
X-16953810Y-11130952D01*
X-16944286Y-11111905D01*
X-16944286Y-11102381D01*
X-16953810Y-11083333D01*
X-16972857Y-11073810D01*
X-17001429Y-11073810D01*
X-17020476Y-11064286D01*
X-17030000Y-11045238D01*
X-17030000Y-11035714D01*
X-17020476Y-11016667D01*
X-17001429Y-11007143D01*
X-16972857Y-11007143D01*
X-16953810Y-11016667D01*
X-16877619Y-11216667D02*
X-16868095Y-11207143D01*
X-16849048Y-11178571D01*
X-16839524Y-11159524D01*
X-16830000Y-11130952D01*
X-16820476Y-11083333D01*
X-16820476Y-11045238D01*
X-16830000Y-10997619D01*
X-16839524Y-10969048D01*
X-16849048Y-10950000D01*
X-16868095Y-10921429D01*
X-16877619Y-10911905D01*
D13*
X-21840000Y-11314000D02*
G75*
G03*
X-21840000Y-11314000I-40000J0D01*
G01*
D11*
X-21544286Y-11204476D02*
X-21525238Y-11204476D01*
X-21506190Y-11214000D01*
X-21496667Y-11223524D01*
X-21487143Y-11242571D01*
X-21477619Y-11280667D01*
X-21477619Y-11328286D01*
X-21487143Y-11366381D01*
X-21496667Y-11385428D01*
X-21506190Y-11394952D01*
X-21525238Y-11404476D01*
X-21544286Y-11404476D01*
X-21563333Y-11394952D01*
X-21572857Y-11385428D01*
X-21582381Y-11366381D01*
X-21591905Y-11328286D01*
X-21591905Y-11280667D01*
X-21582381Y-11242571D01*
X-21572857Y-11223524D01*
X-21563333Y-11214000D01*
X-21544286Y-11204476D01*
X-21391905Y-11385428D02*
X-21382381Y-11394952D01*
X-21391905Y-11404476D01*
X-21401429Y-11394952D01*
X-21391905Y-11385428D01*
X-21391905Y-11404476D01*
X-21268095Y-11290190D02*
X-21287143Y-11280667D01*
X-21296667Y-11271143D01*
X-21306190Y-11252095D01*
X-21306190Y-11242571D01*
X-21296667Y-11223524D01*
X-21287143Y-11214000D01*
X-21268095Y-11204476D01*
X-21230000Y-11204476D01*
X-21210952Y-11214000D01*
X-21201429Y-11223524D01*
X-21191905Y-11242571D01*
X-21191905Y-11252095D01*
X-21201429Y-11271143D01*
X-21210952Y-11280667D01*
X-21230000Y-11290190D01*
X-21268095Y-11290190D01*
X-21287143Y-11299714D01*
X-21296667Y-11309238D01*
X-21306190Y-11328286D01*
X-21306190Y-11366381D01*
X-21296667Y-11385428D01*
X-21287143Y-11394952D01*
X-21268095Y-11404476D01*
X-21230000Y-11404476D01*
X-21210952Y-11394952D01*
X-21201429Y-11385428D01*
X-21191905Y-11366381D01*
X-21191905Y-11328286D01*
X-21201429Y-11309238D01*
X-21210952Y-11299714D01*
X-21230000Y-11290190D01*
X-21068095Y-11204476D02*
X-21049048Y-11204476D01*
X-21030000Y-11214000D01*
X-21020476Y-11223524D01*
X-21010952Y-11242571D01*
X-21001429Y-11280667D01*
X-21001429Y-11328286D01*
X-21010952Y-11366381D01*
X-21020476Y-11385428D01*
X-21030000Y-11394952D01*
X-21049048Y-11404476D01*
X-21068095Y-11404476D01*
X-21087143Y-11394952D01*
X-21096667Y-11385428D01*
X-21106190Y-11366381D01*
X-21115714Y-11328286D01*
X-21115714Y-11280667D01*
X-21106190Y-11242571D01*
X-21096667Y-11223524D01*
X-21087143Y-11214000D01*
X-21068095Y-11204476D01*
X-20877619Y-11204476D02*
X-20858571Y-11204476D01*
X-20839524Y-11214000D01*
X-20830000Y-11223524D01*
X-20820476Y-11242571D01*
X-20810952Y-11280667D01*
X-20810952Y-11328286D01*
X-20820476Y-11366381D01*
X-20830000Y-11385428D01*
X-20839524Y-11394952D01*
X-20858571Y-11404476D01*
X-20877619Y-11404476D01*
X-20896667Y-11394952D01*
X-20906190Y-11385428D01*
X-20915714Y-11366381D01*
X-20925238Y-11328286D01*
X-20925238Y-11280667D01*
X-20915714Y-11242571D01*
X-20906190Y-11223524D01*
X-20896667Y-11214000D01*
X-20877619Y-11204476D01*
X-20725238Y-11404476D02*
X-20725238Y-11271143D01*
X-20725238Y-11290190D02*
X-20715714Y-11280667D01*
X-20696667Y-11271143D01*
X-20668095Y-11271143D01*
X-20649048Y-11280667D01*
X-20639524Y-11299714D01*
X-20639524Y-11404476D01*
X-20639524Y-11299714D02*
X-20630000Y-11280667D01*
X-20610952Y-11271143D01*
X-20582381Y-11271143D01*
X-20563333Y-11280667D01*
X-20553810Y-11299714D01*
X-20553810Y-11404476D01*
X-20458571Y-11404476D02*
X-20458571Y-11271143D01*
X-20458571Y-11290190D02*
X-20449048Y-11280667D01*
X-20430000Y-11271143D01*
X-20401429Y-11271143D01*
X-20382381Y-11280667D01*
X-20372857Y-11299714D01*
X-20372857Y-11404476D01*
X-20372857Y-11299714D02*
X-20363333Y-11280667D01*
X-20344286Y-11271143D01*
X-20315714Y-11271143D01*
X-20296667Y-11280667D01*
X-20287143Y-11299714D01*
X-20287143Y-11404476D01*
X-19896667Y-11194952D02*
X-20068095Y-11452095D01*
X-19639524Y-11204476D02*
X-19620476Y-11204476D01*
X-19601429Y-11214000D01*
X-19591905Y-11223524D01*
X-19582381Y-11242571D01*
X-19572857Y-11280667D01*
X-19572857Y-11328286D01*
X-19582381Y-11366381D01*
X-19591905Y-11385428D01*
X-19601429Y-11394952D01*
X-19620476Y-11404476D01*
X-19639524Y-11404476D01*
X-19658571Y-11394952D01*
X-19668095Y-11385428D01*
X-19677619Y-11366381D01*
X-19687143Y-11328286D01*
X-19687143Y-11280667D01*
X-19677619Y-11242571D01*
X-19668095Y-11223524D01*
X-19658571Y-11214000D01*
X-19639524Y-11204476D01*
X-19487143Y-11385428D02*
X-19477619Y-11394952D01*
X-19487143Y-11404476D01*
X-19496667Y-11394952D01*
X-19487143Y-11385428D01*
X-19487143Y-11404476D01*
X-19353810Y-11204476D02*
X-19334762Y-11204476D01*
X-19315714Y-11214000D01*
X-19306190Y-11223524D01*
X-19296667Y-11242571D01*
X-19287143Y-11280667D01*
X-19287143Y-11328286D01*
X-19296667Y-11366381D01*
X-19306190Y-11385428D01*
X-19315714Y-11394952D01*
X-19334762Y-11404476D01*
X-19353810Y-11404476D01*
X-19372857Y-11394952D01*
X-19382381Y-11385428D01*
X-19391905Y-11366381D01*
X-19401429Y-11328286D01*
X-19401429Y-11280667D01*
X-19391905Y-11242571D01*
X-19382381Y-11223524D01*
X-19372857Y-11214000D01*
X-19353810Y-11204476D01*
X-19220476Y-11204476D02*
X-19096667Y-11204476D01*
X-19163333Y-11280667D01*
X-19134762Y-11280667D01*
X-19115714Y-11290190D01*
X-19106190Y-11299714D01*
X-19096667Y-11318762D01*
X-19096667Y-11366381D01*
X-19106190Y-11385428D01*
X-19115714Y-11394952D01*
X-19134762Y-11404476D01*
X-19191905Y-11404476D01*
X-19210952Y-11394952D01*
X-19220476Y-11385428D01*
X-18906190Y-11404476D02*
X-19020476Y-11404476D01*
X-18963333Y-11404476D02*
X-18963333Y-11204476D01*
X-18982381Y-11233048D01*
X-19001429Y-11252095D01*
X-19020476Y-11261619D01*
X-18725238Y-11204476D02*
X-18820476Y-11204476D01*
X-18830000Y-11299714D01*
X-18820476Y-11290190D01*
X-18801429Y-11280667D01*
X-18753810Y-11280667D01*
X-18734762Y-11290190D01*
X-18725238Y-11299714D01*
X-18715714Y-11318762D01*
X-18715714Y-11366381D01*
X-18725238Y-11385428D01*
X-18734762Y-11394952D01*
X-18753810Y-11404476D01*
X-18801429Y-11404476D01*
X-18820476Y-11394952D01*
X-18830000Y-11385428D01*
X-18639524Y-11204476D02*
X-18639524Y-11242571D01*
X-18563333Y-11204476D02*
X-18563333Y-11242571D01*
X-18268095Y-11480667D02*
X-18277619Y-11471143D01*
X-18296667Y-11442571D01*
X-18306190Y-11423524D01*
X-18315714Y-11394952D01*
X-18325238Y-11347333D01*
X-18325238Y-11309238D01*
X-18315714Y-11261619D01*
X-18306190Y-11233048D01*
X-18296667Y-11214000D01*
X-18277619Y-11185428D01*
X-18268095Y-11175905D01*
X-18201429Y-11223524D02*
X-18191905Y-11214000D01*
X-18172857Y-11204476D01*
X-18125238Y-11204476D01*
X-18106190Y-11214000D01*
X-18096667Y-11223524D01*
X-18087143Y-11242571D01*
X-18087143Y-11261619D01*
X-18096667Y-11290190D01*
X-18210952Y-11404476D01*
X-18087143Y-11404476D01*
X-17915714Y-11271143D02*
X-17915714Y-11404476D01*
X-17963333Y-11194952D02*
X-18010952Y-11337809D01*
X-17887143Y-11337809D01*
X-17658571Y-11404476D02*
X-17658571Y-11204476D01*
X-17572857Y-11404476D02*
X-17572857Y-11299714D01*
X-17582381Y-11280667D01*
X-17601429Y-11271143D01*
X-17630000Y-11271143D01*
X-17649048Y-11280667D01*
X-17658571Y-11290190D01*
X-17449048Y-11404476D02*
X-17468095Y-11394952D01*
X-17477619Y-11385428D01*
X-17487143Y-11366381D01*
X-17487143Y-11309238D01*
X-17477619Y-11290190D01*
X-17468095Y-11280667D01*
X-17449048Y-11271143D01*
X-17420476Y-11271143D01*
X-17401429Y-11280667D01*
X-17391905Y-11290190D01*
X-17382381Y-11309238D01*
X-17382381Y-11366381D01*
X-17391905Y-11385428D01*
X-17401429Y-11394952D01*
X-17420476Y-11404476D01*
X-17449048Y-11404476D01*
X-17268095Y-11404476D02*
X-17287143Y-11394952D01*
X-17296667Y-11375905D01*
X-17296667Y-11204476D01*
X-17115714Y-11394952D02*
X-17134762Y-11404476D01*
X-17172857Y-11404476D01*
X-17191905Y-11394952D01*
X-17201429Y-11375905D01*
X-17201429Y-11299714D01*
X-17191905Y-11280667D01*
X-17172857Y-11271143D01*
X-17134762Y-11271143D01*
X-17115714Y-11280667D01*
X-17106190Y-11299714D01*
X-17106190Y-11318762D01*
X-17201429Y-11337809D01*
X-17030000Y-11394952D02*
X-17010952Y-11404476D01*
X-16972857Y-11404476D01*
X-16953810Y-11394952D01*
X-16944286Y-11375905D01*
X-16944286Y-11366381D01*
X-16953810Y-11347333D01*
X-16972857Y-11337809D01*
X-17001429Y-11337809D01*
X-17020476Y-11328286D01*
X-17030000Y-11309238D01*
X-17030000Y-11299714D01*
X-17020476Y-11280667D01*
X-17001429Y-11271143D01*
X-16972857Y-11271143D01*
X-16953810Y-11280667D01*
X-16877619Y-11480667D02*
X-16868095Y-11471143D01*
X-16849048Y-11442571D01*
X-16839524Y-11423524D01*
X-16830000Y-11394952D01*
X-16820476Y-11347333D01*
X-16820476Y-11309238D01*
X-16830000Y-11261619D01*
X-16839524Y-11233048D01*
X-16849048Y-11214000D01*
X-16868095Y-11185428D01*
X-16877619Y-11175905D01*
D14*
X-21885000Y-11533000D02*
X-21885000Y-11623000D01*
X-21930000Y-11578000D02*
X-21840000Y-11578000D01*
D11*
X-21544286Y-11468476D02*
X-21525238Y-11468476D01*
X-21506190Y-11478000D01*
X-21496667Y-11487524D01*
X-21487143Y-11506571D01*
X-21477619Y-11544667D01*
X-21477619Y-11592286D01*
X-21487143Y-11630381D01*
X-21496667Y-11649428D01*
X-21506190Y-11658952D01*
X-21525238Y-11668476D01*
X-21544286Y-11668476D01*
X-21563333Y-11658952D01*
X-21572857Y-11649428D01*
X-21582381Y-11630381D01*
X-21591905Y-11592286D01*
X-21591905Y-11544667D01*
X-21582381Y-11506571D01*
X-21572857Y-11487524D01*
X-21563333Y-11478000D01*
X-21544286Y-11468476D01*
X-21391905Y-11649428D02*
X-21382381Y-11658952D01*
X-21391905Y-11668476D01*
X-21401429Y-11658952D01*
X-21391905Y-11649428D01*
X-21391905Y-11668476D01*
X-21287143Y-11668476D02*
X-21249048Y-11668476D01*
X-21230000Y-11658952D01*
X-21220476Y-11649428D01*
X-21201429Y-11620857D01*
X-21191905Y-11582762D01*
X-21191905Y-11506571D01*
X-21201429Y-11487524D01*
X-21210952Y-11478000D01*
X-21230000Y-11468476D01*
X-21268095Y-11468476D01*
X-21287143Y-11478000D01*
X-21296667Y-11487524D01*
X-21306190Y-11506571D01*
X-21306190Y-11554190D01*
X-21296667Y-11573238D01*
X-21287143Y-11582762D01*
X-21268095Y-11592286D01*
X-21230000Y-11592286D01*
X-21210952Y-11582762D01*
X-21201429Y-11573238D01*
X-21191905Y-11554190D01*
X-21068095Y-11468476D02*
X-21049048Y-11468476D01*
X-21030000Y-11478000D01*
X-21020476Y-11487524D01*
X-21010952Y-11506571D01*
X-21001429Y-11544667D01*
X-21001429Y-11592286D01*
X-21010952Y-11630381D01*
X-21020476Y-11649428D01*
X-21030000Y-11658952D01*
X-21049048Y-11668476D01*
X-21068095Y-11668476D01*
X-21087143Y-11658952D01*
X-21096667Y-11649428D01*
X-21106190Y-11630381D01*
X-21115714Y-11592286D01*
X-21115714Y-11544667D01*
X-21106190Y-11506571D01*
X-21096667Y-11487524D01*
X-21087143Y-11478000D01*
X-21068095Y-11468476D01*
X-20877619Y-11468476D02*
X-20858571Y-11468476D01*
X-20839524Y-11478000D01*
X-20830000Y-11487524D01*
X-20820476Y-11506571D01*
X-20810952Y-11544667D01*
X-20810952Y-11592286D01*
X-20820476Y-11630381D01*
X-20830000Y-11649428D01*
X-20839524Y-11658952D01*
X-20858571Y-11668476D01*
X-20877619Y-11668476D01*
X-20896667Y-11658952D01*
X-20906190Y-11649428D01*
X-20915714Y-11630381D01*
X-20925238Y-11592286D01*
X-20925238Y-11544667D01*
X-20915714Y-11506571D01*
X-20906190Y-11487524D01*
X-20896667Y-11478000D01*
X-20877619Y-11468476D01*
X-20725238Y-11668476D02*
X-20725238Y-11535143D01*
X-20725238Y-11554190D02*
X-20715714Y-11544667D01*
X-20696667Y-11535143D01*
X-20668095Y-11535143D01*
X-20649048Y-11544667D01*
X-20639524Y-11563714D01*
X-20639524Y-11668476D01*
X-20639524Y-11563714D02*
X-20630000Y-11544667D01*
X-20610952Y-11535143D01*
X-20582381Y-11535143D01*
X-20563333Y-11544667D01*
X-20553810Y-11563714D01*
X-20553810Y-11668476D01*
X-20458571Y-11668476D02*
X-20458571Y-11535143D01*
X-20458571Y-11554190D02*
X-20449048Y-11544667D01*
X-20430000Y-11535143D01*
X-20401429Y-11535143D01*
X-20382381Y-11544667D01*
X-20372857Y-11563714D01*
X-20372857Y-11668476D01*
X-20372857Y-11563714D02*
X-20363333Y-11544667D01*
X-20344286Y-11535143D01*
X-20315714Y-11535143D01*
X-20296667Y-11544667D01*
X-20287143Y-11563714D01*
X-20287143Y-11668476D01*
X-19896667Y-11458952D02*
X-20068095Y-11716095D01*
X-19639524Y-11468476D02*
X-19620476Y-11468476D01*
X-19601429Y-11478000D01*
X-19591905Y-11487524D01*
X-19582381Y-11506571D01*
X-19572857Y-11544667D01*
X-19572857Y-11592286D01*
X-19582381Y-11630381D01*
X-19591905Y-11649428D01*
X-19601429Y-11658952D01*
X-19620476Y-11668476D01*
X-19639524Y-11668476D01*
X-19658571Y-11658952D01*
X-19668095Y-11649428D01*
X-19677619Y-11630381D01*
X-19687143Y-11592286D01*
X-19687143Y-11544667D01*
X-19677619Y-11506571D01*
X-19668095Y-11487524D01*
X-19658571Y-11478000D01*
X-19639524Y-11468476D01*
X-19487143Y-11649428D02*
X-19477619Y-11658952D01*
X-19487143Y-11668476D01*
X-19496667Y-11658952D01*
X-19487143Y-11649428D01*
X-19487143Y-11668476D01*
X-19353810Y-11468476D02*
X-19334762Y-11468476D01*
X-19315714Y-11478000D01*
X-19306190Y-11487524D01*
X-19296667Y-11506571D01*
X-19287143Y-11544667D01*
X-19287143Y-11592286D01*
X-19296667Y-11630381D01*
X-19306190Y-11649428D01*
X-19315714Y-11658952D01*
X-19334762Y-11668476D01*
X-19353810Y-11668476D01*
X-19372857Y-11658952D01*
X-19382381Y-11649428D01*
X-19391905Y-11630381D01*
X-19401429Y-11592286D01*
X-19401429Y-11544667D01*
X-19391905Y-11506571D01*
X-19382381Y-11487524D01*
X-19372857Y-11478000D01*
X-19353810Y-11468476D01*
X-19220476Y-11468476D02*
X-19096667Y-11468476D01*
X-19163333Y-11544667D01*
X-19134762Y-11544667D01*
X-19115714Y-11554190D01*
X-19106190Y-11563714D01*
X-19096667Y-11582762D01*
X-19096667Y-11630381D01*
X-19106190Y-11649428D01*
X-19115714Y-11658952D01*
X-19134762Y-11668476D01*
X-19191905Y-11668476D01*
X-19210952Y-11658952D01*
X-19220476Y-11649428D01*
X-18915714Y-11468476D02*
X-19010952Y-11468476D01*
X-19020476Y-11563714D01*
X-19010952Y-11554190D01*
X-18991905Y-11544667D01*
X-18944286Y-11544667D01*
X-18925238Y-11554190D01*
X-18915714Y-11563714D01*
X-18906190Y-11582762D01*
X-18906190Y-11630381D01*
X-18915714Y-11649428D01*
X-18925238Y-11658952D01*
X-18944286Y-11668476D01*
X-18991905Y-11668476D01*
X-19010952Y-11658952D01*
X-19020476Y-11649428D01*
X-18734762Y-11535143D02*
X-18734762Y-11668476D01*
X-18782381Y-11458952D02*
X-18830000Y-11601809D01*
X-18706190Y-11601809D01*
X-18639524Y-11468476D02*
X-18639524Y-11506571D01*
X-18563333Y-11468476D02*
X-18563333Y-11506571D01*
X-18268095Y-11744667D02*
X-18277619Y-11735143D01*
X-18296667Y-11706571D01*
X-18306190Y-11687524D01*
X-18315714Y-11658952D01*
X-18325238Y-11611333D01*
X-18325238Y-11573238D01*
X-18315714Y-11525619D01*
X-18306190Y-11497048D01*
X-18296667Y-11478000D01*
X-18277619Y-11449428D01*
X-18268095Y-11439905D01*
X-18201429Y-11487524D02*
X-18191905Y-11478000D01*
X-18172857Y-11468476D01*
X-18125238Y-11468476D01*
X-18106190Y-11478000D01*
X-18096667Y-11487524D01*
X-18087143Y-11506571D01*
X-18087143Y-11525619D01*
X-18096667Y-11554190D01*
X-18210952Y-11668476D01*
X-18087143Y-11668476D01*
X-17991905Y-11668476D02*
X-17953810Y-11668476D01*
X-17934762Y-11658952D01*
X-17925238Y-11649428D01*
X-17906190Y-11620857D01*
X-17896667Y-11582762D01*
X-17896667Y-11506571D01*
X-17906190Y-11487524D01*
X-17915714Y-11478000D01*
X-17934762Y-11468476D01*
X-17972857Y-11468476D01*
X-17991905Y-11478000D01*
X-18001429Y-11487524D01*
X-18010952Y-11506571D01*
X-18010952Y-11554190D01*
X-18001429Y-11573238D01*
X-17991905Y-11582762D01*
X-17972857Y-11592286D01*
X-17934762Y-11592286D01*
X-17915714Y-11582762D01*
X-17906190Y-11573238D01*
X-17896667Y-11554190D01*
X-17658571Y-11668476D02*
X-17658571Y-11468476D01*
X-17572857Y-11668476D02*
X-17572857Y-11563714D01*
X-17582381Y-11544667D01*
X-17601429Y-11535143D01*
X-17630000Y-11535143D01*
X-17649048Y-11544667D01*
X-17658571Y-11554190D01*
X-17449048Y-11668476D02*
X-17468095Y-11658952D01*
X-17477619Y-11649428D01*
X-17487143Y-11630381D01*
X-17487143Y-11573238D01*
X-17477619Y-11554190D01*
X-17468095Y-11544667D01*
X-17449048Y-11535143D01*
X-17420476Y-11535143D01*
X-17401429Y-11544667D01*
X-17391905Y-11554190D01*
X-17382381Y-11573238D01*
X-17382381Y-11630381D01*
X-17391905Y-11649428D01*
X-17401429Y-11658952D01*
X-17420476Y-11668476D01*
X-17449048Y-11668476D01*
X-17268095Y-11668476D02*
X-17287143Y-11658952D01*
X-17296667Y-11639905D01*
X-17296667Y-11468476D01*
X-17115714Y-11658952D02*
X-17134762Y-11668476D01*
X-17172857Y-11668476D01*
X-17191905Y-11658952D01*
X-17201429Y-11639905D01*
X-17201429Y-11563714D01*
X-17191905Y-11544667D01*
X-17172857Y-11535143D01*
X-17134762Y-11535143D01*
X-17115714Y-11544667D01*
X-17106190Y-11563714D01*
X-17106190Y-11582762D01*
X-17201429Y-11601809D01*
X-17030000Y-11658952D02*
X-17010952Y-11668476D01*
X-16972857Y-11668476D01*
X-16953810Y-11658952D01*
X-16944286Y-11639905D01*
X-16944286Y-11630381D01*
X-16953810Y-11611333D01*
X-16972857Y-11601809D01*
X-17001429Y-11601809D01*
X-17020476Y-11592286D01*
X-17030000Y-11573238D01*
X-17030000Y-11563714D01*
X-17020476Y-11544667D01*
X-17001429Y-11535143D01*
X-16972857Y-11535143D01*
X-16953810Y-11544667D01*
X-16877619Y-11744667D02*
X-16868095Y-11735143D01*
X-16849048Y-11706571D01*
X-16839524Y-11687524D01*
X-16830000Y-11658952D01*
X-16820476Y-11611333D01*
X-16820476Y-11573238D01*
X-16830000Y-11525619D01*
X-16839524Y-11497048D01*
X-16849048Y-11478000D01*
X-16868095Y-11449428D01*
X-16877619Y-11439905D01*
D10*
X-21854644Y-11877356D02*
X-21854644Y-11806644D01*
X-21925356Y-11806644D01*
X-21925356Y-11877356D01*
X-21854644Y-11877356D01*
D11*
X-21477619Y-11932476D02*
X-21591905Y-11932476D01*
X-21534762Y-11932476D02*
X-21534762Y-11732476D01*
X-21553810Y-11761048D01*
X-21572857Y-11780095D01*
X-21591905Y-11789619D01*
X-21391905Y-11913428D02*
X-21382381Y-11922952D01*
X-21391905Y-11932476D01*
X-21401429Y-11922952D01*
X-21391905Y-11913428D01*
X-21391905Y-11932476D01*
X-21258571Y-11732476D02*
X-21239524Y-11732476D01*
X-21220476Y-11742000D01*
X-21210952Y-11751524D01*
X-21201429Y-11770571D01*
X-21191905Y-11808667D01*
X-21191905Y-11856286D01*
X-21201429Y-11894381D01*
X-21210952Y-11913428D01*
X-21220476Y-11922952D01*
X-21239524Y-11932476D01*
X-21258571Y-11932476D01*
X-21277619Y-11922952D01*
X-21287143Y-11913428D01*
X-21296667Y-11894381D01*
X-21306190Y-11856286D01*
X-21306190Y-11808667D01*
X-21296667Y-11770571D01*
X-21287143Y-11751524D01*
X-21277619Y-11742000D01*
X-21258571Y-11732476D01*
X-21068095Y-11732476D02*
X-21049048Y-11732476D01*
X-21030000Y-11742000D01*
X-21020476Y-11751524D01*
X-21010952Y-11770571D01*
X-21001429Y-11808667D01*
X-21001429Y-11856286D01*
X-21010952Y-11894381D01*
X-21020476Y-11913428D01*
X-21030000Y-11922952D01*
X-21049048Y-11932476D01*
X-21068095Y-11932476D01*
X-21087143Y-11922952D01*
X-21096667Y-11913428D01*
X-21106190Y-11894381D01*
X-21115714Y-11856286D01*
X-21115714Y-11808667D01*
X-21106190Y-11770571D01*
X-21096667Y-11751524D01*
X-21087143Y-11742000D01*
X-21068095Y-11732476D01*
X-20877619Y-11732476D02*
X-20858571Y-11732476D01*
X-20839524Y-11742000D01*
X-20830000Y-11751524D01*
X-20820476Y-11770571D01*
X-20810952Y-11808667D01*
X-20810952Y-11856286D01*
X-20820476Y-11894381D01*
X-20830000Y-11913428D01*
X-20839524Y-11922952D01*
X-20858571Y-11932476D01*
X-20877619Y-11932476D01*
X-20896667Y-11922952D01*
X-20906190Y-11913428D01*
X-20915714Y-11894381D01*
X-20925238Y-11856286D01*
X-20925238Y-11808667D01*
X-20915714Y-11770571D01*
X-20906190Y-11751524D01*
X-20896667Y-11742000D01*
X-20877619Y-11732476D01*
X-20725238Y-11932476D02*
X-20725238Y-11799143D01*
X-20725238Y-11818190D02*
X-20715714Y-11808667D01*
X-20696667Y-11799143D01*
X-20668095Y-11799143D01*
X-20649048Y-11808667D01*
X-20639524Y-11827714D01*
X-20639524Y-11932476D01*
X-20639524Y-11827714D02*
X-20630000Y-11808667D01*
X-20610952Y-11799143D01*
X-20582381Y-11799143D01*
X-20563333Y-11808667D01*
X-20553810Y-11827714D01*
X-20553810Y-11932476D01*
X-20458571Y-11932476D02*
X-20458571Y-11799143D01*
X-20458571Y-11818190D02*
X-20449048Y-11808667D01*
X-20430000Y-11799143D01*
X-20401429Y-11799143D01*
X-20382381Y-11808667D01*
X-20372857Y-11827714D01*
X-20372857Y-11932476D01*
X-20372857Y-11827714D02*
X-20363333Y-11808667D01*
X-20344286Y-11799143D01*
X-20315714Y-11799143D01*
X-20296667Y-11808667D01*
X-20287143Y-11827714D01*
X-20287143Y-11932476D01*
X-19896667Y-11722952D02*
X-20068095Y-11980095D01*
X-19639524Y-11732476D02*
X-19620476Y-11732476D01*
X-19601429Y-11742000D01*
X-19591905Y-11751524D01*
X-19582381Y-11770571D01*
X-19572857Y-11808667D01*
X-19572857Y-11856286D01*
X-19582381Y-11894381D01*
X-19591905Y-11913428D01*
X-19601429Y-11922952D01*
X-19620476Y-11932476D01*
X-19639524Y-11932476D01*
X-19658571Y-11922952D01*
X-19668095Y-11913428D01*
X-19677619Y-11894381D01*
X-19687143Y-11856286D01*
X-19687143Y-11808667D01*
X-19677619Y-11770571D01*
X-19668095Y-11751524D01*
X-19658571Y-11742000D01*
X-19639524Y-11732476D01*
X-19487143Y-11913428D02*
X-19477619Y-11922952D01*
X-19487143Y-11932476D01*
X-19496667Y-11922952D01*
X-19487143Y-11913428D01*
X-19487143Y-11932476D01*
X-19353810Y-11732476D02*
X-19334762Y-11732476D01*
X-19315714Y-11742000D01*
X-19306190Y-11751524D01*
X-19296667Y-11770571D01*
X-19287143Y-11808667D01*
X-19287143Y-11856286D01*
X-19296667Y-11894381D01*
X-19306190Y-11913428D01*
X-19315714Y-11922952D01*
X-19334762Y-11932476D01*
X-19353810Y-11932476D01*
X-19372857Y-11922952D01*
X-19382381Y-11913428D01*
X-19391905Y-11894381D01*
X-19401429Y-11856286D01*
X-19401429Y-11808667D01*
X-19391905Y-11770571D01*
X-19382381Y-11751524D01*
X-19372857Y-11742000D01*
X-19353810Y-11732476D01*
X-19220476Y-11732476D02*
X-19096667Y-11732476D01*
X-19163333Y-11808667D01*
X-19134762Y-11808667D01*
X-19115714Y-11818190D01*
X-19106190Y-11827714D01*
X-19096667Y-11846762D01*
X-19096667Y-11894381D01*
X-19106190Y-11913428D01*
X-19115714Y-11922952D01*
X-19134762Y-11932476D01*
X-19191905Y-11932476D01*
X-19210952Y-11922952D01*
X-19220476Y-11913428D01*
X-19001429Y-11932476D02*
X-18963333Y-11932476D01*
X-18944286Y-11922952D01*
X-18934762Y-11913428D01*
X-18915714Y-11884857D01*
X-18906190Y-11846762D01*
X-18906190Y-11770571D01*
X-18915714Y-11751524D01*
X-18925238Y-11742000D01*
X-18944286Y-11732476D01*
X-18982381Y-11732476D01*
X-19001429Y-11742000D01*
X-19010952Y-11751524D01*
X-19020476Y-11770571D01*
X-19020476Y-11818190D01*
X-19010952Y-11837238D01*
X-19001429Y-11846762D01*
X-18982381Y-11856286D01*
X-18944286Y-11856286D01*
X-18925238Y-11846762D01*
X-18915714Y-11837238D01*
X-18906190Y-11818190D01*
X-18734762Y-11799143D02*
X-18734762Y-11932476D01*
X-18782381Y-11722952D02*
X-18830000Y-11865809D01*
X-18706190Y-11865809D01*
X-18639524Y-11732476D02*
X-18639524Y-11770571D01*
X-18563333Y-11732476D02*
X-18563333Y-11770571D01*
X-18268095Y-12008667D02*
X-18277619Y-11999143D01*
X-18296667Y-11970571D01*
X-18306190Y-11951524D01*
X-18315714Y-11922952D01*
X-18325238Y-11875333D01*
X-18325238Y-11837238D01*
X-18315714Y-11789619D01*
X-18306190Y-11761048D01*
X-18296667Y-11742000D01*
X-18277619Y-11713428D01*
X-18268095Y-11703905D01*
X-18087143Y-11932476D02*
X-18201429Y-11932476D01*
X-18144286Y-11932476D02*
X-18144286Y-11732476D01*
X-18163333Y-11761048D01*
X-18182381Y-11780095D01*
X-18201429Y-11789619D01*
X-17915714Y-11732476D02*
X-17953810Y-11732476D01*
X-17972857Y-11742000D01*
X-17982381Y-11751524D01*
X-18001429Y-11780095D01*
X-18010952Y-11818190D01*
X-18010952Y-11894381D01*
X-18001429Y-11913428D01*
X-17991905Y-11922952D01*
X-17972857Y-11932476D01*
X-17934762Y-11932476D01*
X-17915714Y-11922952D01*
X-17906190Y-11913428D01*
X-17896667Y-11894381D01*
X-17896667Y-11846762D01*
X-17906190Y-11827714D01*
X-17915714Y-11818190D01*
X-17934762Y-11808667D01*
X-17972857Y-11808667D01*
X-17991905Y-11818190D01*
X-18001429Y-11827714D01*
X-18010952Y-11846762D01*
X-17658571Y-11932476D02*
X-17658571Y-11732476D01*
X-17572857Y-11932476D02*
X-17572857Y-11827714D01*
X-17582381Y-11808667D01*
X-17601429Y-11799143D01*
X-17630000Y-11799143D01*
X-17649048Y-11808667D01*
X-17658571Y-11818190D01*
X-17449048Y-11932476D02*
X-17468095Y-11922952D01*
X-17477619Y-11913428D01*
X-17487143Y-11894381D01*
X-17487143Y-11837238D01*
X-17477619Y-11818190D01*
X-17468095Y-11808667D01*
X-17449048Y-11799143D01*
X-17420476Y-11799143D01*
X-17401429Y-11808667D01*
X-17391905Y-11818190D01*
X-17382381Y-11837238D01*
X-17382381Y-11894381D01*
X-17391905Y-11913428D01*
X-17401429Y-11922952D01*
X-17420476Y-11932476D01*
X-17449048Y-11932476D01*
X-17268095Y-11932476D02*
X-17287143Y-11922952D01*
X-17296667Y-11903905D01*
X-17296667Y-11732476D01*
X-17115714Y-11922952D02*
X-17134762Y-11932476D01*
X-17172857Y-11932476D01*
X-17191905Y-11922952D01*
X-17201429Y-11903905D01*
X-17201429Y-11827714D01*
X-17191905Y-11808667D01*
X-17172857Y-11799143D01*
X-17134762Y-11799143D01*
X-17115714Y-11808667D01*
X-17106190Y-11827714D01*
X-17106190Y-11846762D01*
X-17201429Y-11865809D01*
X-17030000Y-11922952D02*
X-17010952Y-11932476D01*
X-16972857Y-11932476D01*
X-16953810Y-11922952D01*
X-16944286Y-11903905D01*
X-16944286Y-11894381D01*
X-16953810Y-11875333D01*
X-16972857Y-11865809D01*
X-17001429Y-11865809D01*
X-17020476Y-11856286D01*
X-17030000Y-11837238D01*
X-17030000Y-11827714D01*
X-17020476Y-11808667D01*
X-17001429Y-11799143D01*
X-16972857Y-11799143D01*
X-16953810Y-11808667D01*
X-16877619Y-12008667D02*
X-16868095Y-11999143D01*
X-16849048Y-11970571D01*
X-16839524Y-11951524D01*
X-16830000Y-11922952D01*
X-16820476Y-11875333D01*
X-16820476Y-11837238D01*
X-16830000Y-11789619D01*
X-16839524Y-11761048D01*
X-16849048Y-11742000D01*
X-16868095Y-11713428D01*
X-16877619Y-11703905D01*
D15*
X-21895000Y-12161000D02*
X-21840000Y-12106000D01*
X-21895000Y-12051000D01*
X-21950000Y-12106000D01*
X-21895000Y-12161000D01*
D11*
X-21477619Y-12196476D02*
X-21591905Y-12196476D01*
X-21534762Y-12196476D02*
X-21534762Y-11996476D01*
X-21553810Y-12025048D01*
X-21572857Y-12044095D01*
X-21591905Y-12053619D01*
X-21391905Y-12177428D02*
X-21382381Y-12186952D01*
X-21391905Y-12196476D01*
X-21401429Y-12186952D01*
X-21391905Y-12177428D01*
X-21391905Y-12196476D01*
X-21191905Y-12196476D02*
X-21306190Y-12196476D01*
X-21249048Y-12196476D02*
X-21249048Y-11996476D01*
X-21268095Y-12025048D01*
X-21287143Y-12044095D01*
X-21306190Y-12053619D01*
X-21068095Y-11996476D02*
X-21049048Y-11996476D01*
X-21030000Y-12006000D01*
X-21020476Y-12015524D01*
X-21010952Y-12034571D01*
X-21001429Y-12072667D01*
X-21001429Y-12120286D01*
X-21010952Y-12158381D01*
X-21020476Y-12177428D01*
X-21030000Y-12186952D01*
X-21049048Y-12196476D01*
X-21068095Y-12196476D01*
X-21087143Y-12186952D01*
X-21096667Y-12177428D01*
X-21106190Y-12158381D01*
X-21115714Y-12120286D01*
X-21115714Y-12072667D01*
X-21106190Y-12034571D01*
X-21096667Y-12015524D01*
X-21087143Y-12006000D01*
X-21068095Y-11996476D01*
X-20877619Y-11996476D02*
X-20858571Y-11996476D01*
X-20839524Y-12006000D01*
X-20830000Y-12015524D01*
X-20820476Y-12034571D01*
X-20810952Y-12072667D01*
X-20810952Y-12120286D01*
X-20820476Y-12158381D01*
X-20830000Y-12177428D01*
X-20839524Y-12186952D01*
X-20858571Y-12196476D01*
X-20877619Y-12196476D01*
X-20896667Y-12186952D01*
X-20906190Y-12177428D01*
X-20915714Y-12158381D01*
X-20925238Y-12120286D01*
X-20925238Y-12072667D01*
X-20915714Y-12034571D01*
X-20906190Y-12015524D01*
X-20896667Y-12006000D01*
X-20877619Y-11996476D01*
X-20725238Y-12196476D02*
X-20725238Y-12063143D01*
X-20725238Y-12082190D02*
X-20715714Y-12072667D01*
X-20696667Y-12063143D01*
X-20668095Y-12063143D01*
X-20649048Y-12072667D01*
X-20639524Y-12091714D01*
X-20639524Y-12196476D01*
X-20639524Y-12091714D02*
X-20630000Y-12072667D01*
X-20610952Y-12063143D01*
X-20582381Y-12063143D01*
X-20563333Y-12072667D01*
X-20553810Y-12091714D01*
X-20553810Y-12196476D01*
X-20458571Y-12196476D02*
X-20458571Y-12063143D01*
X-20458571Y-12082190D02*
X-20449048Y-12072667D01*
X-20430000Y-12063143D01*
X-20401429Y-12063143D01*
X-20382381Y-12072667D01*
X-20372857Y-12091714D01*
X-20372857Y-12196476D01*
X-20372857Y-12091714D02*
X-20363333Y-12072667D01*
X-20344286Y-12063143D01*
X-20315714Y-12063143D01*
X-20296667Y-12072667D01*
X-20287143Y-12091714D01*
X-20287143Y-12196476D01*
X-19896667Y-11986952D02*
X-20068095Y-12244095D01*
X-19639524Y-11996476D02*
X-19620476Y-11996476D01*
X-19601429Y-12006000D01*
X-19591905Y-12015524D01*
X-19582381Y-12034571D01*
X-19572857Y-12072667D01*
X-19572857Y-12120286D01*
X-19582381Y-12158381D01*
X-19591905Y-12177428D01*
X-19601429Y-12186952D01*
X-19620476Y-12196476D01*
X-19639524Y-12196476D01*
X-19658571Y-12186952D01*
X-19668095Y-12177428D01*
X-19677619Y-12158381D01*
X-19687143Y-12120286D01*
X-19687143Y-12072667D01*
X-19677619Y-12034571D01*
X-19668095Y-12015524D01*
X-19658571Y-12006000D01*
X-19639524Y-11996476D01*
X-19487143Y-12177428D02*
X-19477619Y-12186952D01*
X-19487143Y-12196476D01*
X-19496667Y-12186952D01*
X-19487143Y-12177428D01*
X-19487143Y-12196476D01*
X-19353810Y-11996476D02*
X-19334762Y-11996476D01*
X-19315714Y-12006000D01*
X-19306190Y-12015524D01*
X-19296667Y-12034571D01*
X-19287143Y-12072667D01*
X-19287143Y-12120286D01*
X-19296667Y-12158381D01*
X-19306190Y-12177428D01*
X-19315714Y-12186952D01*
X-19334762Y-12196476D01*
X-19353810Y-12196476D01*
X-19372857Y-12186952D01*
X-19382381Y-12177428D01*
X-19391905Y-12158381D01*
X-19401429Y-12120286D01*
X-19401429Y-12072667D01*
X-19391905Y-12034571D01*
X-19382381Y-12015524D01*
X-19372857Y-12006000D01*
X-19353810Y-11996476D01*
X-19115714Y-12063143D02*
X-19115714Y-12196476D01*
X-19163333Y-11986952D02*
X-19210952Y-12129809D01*
X-19087143Y-12129809D01*
X-19030000Y-11996476D02*
X-18906190Y-11996476D01*
X-18972857Y-12072667D01*
X-18944286Y-12072667D01*
X-18925238Y-12082190D01*
X-18915714Y-12091714D01*
X-18906190Y-12110762D01*
X-18906190Y-12158381D01*
X-18915714Y-12177428D01*
X-18925238Y-12186952D01*
X-18944286Y-12196476D01*
X-19001429Y-12196476D01*
X-19020476Y-12186952D01*
X-19030000Y-12177428D01*
X-18839524Y-11996476D02*
X-18715714Y-11996476D01*
X-18782381Y-12072667D01*
X-18753810Y-12072667D01*
X-18734762Y-12082190D01*
X-18725238Y-12091714D01*
X-18715714Y-12110762D01*
X-18715714Y-12158381D01*
X-18725238Y-12177428D01*
X-18734762Y-12186952D01*
X-18753810Y-12196476D01*
X-18810952Y-12196476D01*
X-18830000Y-12186952D01*
X-18839524Y-12177428D01*
X-18639524Y-11996476D02*
X-18639524Y-12034571D01*
X-18563333Y-11996476D02*
X-18563333Y-12034571D01*
X-18268095Y-12272667D02*
X-18277619Y-12263143D01*
X-18296667Y-12234571D01*
X-18306190Y-12215524D01*
X-18315714Y-12186952D01*
X-18325238Y-12139333D01*
X-18325238Y-12101238D01*
X-18315714Y-12053619D01*
X-18306190Y-12025048D01*
X-18296667Y-12006000D01*
X-18277619Y-11977428D01*
X-18268095Y-11967905D01*
X-18087143Y-12196476D02*
X-18201429Y-12196476D01*
X-18144286Y-12196476D02*
X-18144286Y-11996476D01*
X-18163333Y-12025048D01*
X-18182381Y-12044095D01*
X-18201429Y-12053619D01*
X-17915714Y-11996476D02*
X-17953810Y-11996476D01*
X-17972857Y-12006000D01*
X-17982381Y-12015524D01*
X-18001429Y-12044095D01*
X-18010952Y-12082190D01*
X-18010952Y-12158381D01*
X-18001429Y-12177428D01*
X-17991905Y-12186952D01*
X-17972857Y-12196476D01*
X-17934762Y-12196476D01*
X-17915714Y-12186952D01*
X-17906190Y-12177428D01*
X-17896667Y-12158381D01*
X-17896667Y-12110762D01*
X-17906190Y-12091714D01*
X-17915714Y-12082190D01*
X-17934762Y-12072667D01*
X-17972857Y-12072667D01*
X-17991905Y-12082190D01*
X-18001429Y-12091714D01*
X-18010952Y-12110762D01*
X-17658571Y-12196476D02*
X-17658571Y-11996476D01*
X-17572857Y-12196476D02*
X-17572857Y-12091714D01*
X-17582381Y-12072667D01*
X-17601429Y-12063143D01*
X-17630000Y-12063143D01*
X-17649048Y-12072667D01*
X-17658571Y-12082190D01*
X-17449048Y-12196476D02*
X-17468095Y-12186952D01*
X-17477619Y-12177428D01*
X-17487143Y-12158381D01*
X-17487143Y-12101238D01*
X-17477619Y-12082190D01*
X-17468095Y-12072667D01*
X-17449048Y-12063143D01*
X-17420476Y-12063143D01*
X-17401429Y-12072667D01*
X-17391905Y-12082190D01*
X-17382381Y-12101238D01*
X-17382381Y-12158381D01*
X-17391905Y-12177428D01*
X-17401429Y-12186952D01*
X-17420476Y-12196476D01*
X-17449048Y-12196476D01*
X-17268095Y-12196476D02*
X-17287143Y-12186952D01*
X-17296667Y-12167905D01*
X-17296667Y-11996476D01*
X-17115714Y-12186952D02*
X-17134762Y-12196476D01*
X-17172857Y-12196476D01*
X-17191905Y-12186952D01*
X-17201429Y-12167905D01*
X-17201429Y-12091714D01*
X-17191905Y-12072667D01*
X-17172857Y-12063143D01*
X-17134762Y-12063143D01*
X-17115714Y-12072667D01*
X-17106190Y-12091714D01*
X-17106190Y-12110762D01*
X-17201429Y-12129809D01*
X-17030000Y-12186952D02*
X-17010952Y-12196476D01*
X-16972857Y-12196476D01*
X-16953810Y-12186952D01*
X-16944286Y-12167905D01*
X-16944286Y-12158381D01*
X-16953810Y-12139333D01*
X-16972857Y-12129809D01*
X-17001429Y-12129809D01*
X-17020476Y-12120286D01*
X-17030000Y-12101238D01*
X-17030000Y-12091714D01*
X-17020476Y-12072667D01*
X-17001429Y-12063143D01*
X-16972857Y-12063143D01*
X-16953810Y-12072667D01*
X-16877619Y-12272667D02*
X-16868095Y-12263143D01*
X-16849048Y-12234571D01*
X-16839524Y-12215524D01*
X-16830000Y-12186952D01*
X-16820476Y-12139333D01*
X-16820476Y-12101238D01*
X-16830000Y-12053619D01*
X-16839524Y-12025048D01*
X-16849048Y-12006000D01*
X-16868095Y-11977428D01*
X-16877619Y-11967905D01*
D16*
X-21960000Y-12310000D02*
X-21840000Y-12430000D01*
X-21840000Y-12310000D02*
X-21960000Y-12430000D01*
X-21840000Y-12370000D02*
G75*
G03*
X-21840000Y-12370000I-60000J0D01*
G01*
D11*
X-21477619Y-12460476D02*
X-21591905Y-12460476D01*
X-21534762Y-12460476D02*
X-21534762Y-12260476D01*
X-21553810Y-12289048D01*
X-21572857Y-12308095D01*
X-21591905Y-12317619D01*
X-21391905Y-12441428D02*
X-21382381Y-12450952D01*
X-21391905Y-12460476D01*
X-21401429Y-12450952D01*
X-21391905Y-12441428D01*
X-21391905Y-12460476D01*
X-21306190Y-12279524D02*
X-21296667Y-12270000D01*
X-21277619Y-12260476D01*
X-21230000Y-12260476D01*
X-21210952Y-12270000D01*
X-21201429Y-12279524D01*
X-21191905Y-12298571D01*
X-21191905Y-12317619D01*
X-21201429Y-12346190D01*
X-21315714Y-12460476D01*
X-21191905Y-12460476D01*
X-21068095Y-12260476D02*
X-21049048Y-12260476D01*
X-21030000Y-12270000D01*
X-21020476Y-12279524D01*
X-21010952Y-12298571D01*
X-21001429Y-12336667D01*
X-21001429Y-12384286D01*
X-21010952Y-12422381D01*
X-21020476Y-12441428D01*
X-21030000Y-12450952D01*
X-21049048Y-12460476D01*
X-21068095Y-12460476D01*
X-21087143Y-12450952D01*
X-21096667Y-12441428D01*
X-21106190Y-12422381D01*
X-21115714Y-12384286D01*
X-21115714Y-12336667D01*
X-21106190Y-12298571D01*
X-21096667Y-12279524D01*
X-21087143Y-12270000D01*
X-21068095Y-12260476D01*
X-20877619Y-12260476D02*
X-20858571Y-12260476D01*
X-20839524Y-12270000D01*
X-20830000Y-12279524D01*
X-20820476Y-12298571D01*
X-20810952Y-12336667D01*
X-20810952Y-12384286D01*
X-20820476Y-12422381D01*
X-20830000Y-12441428D01*
X-20839524Y-12450952D01*
X-20858571Y-12460476D01*
X-20877619Y-12460476D01*
X-20896667Y-12450952D01*
X-20906190Y-12441428D01*
X-20915714Y-12422381D01*
X-20925238Y-12384286D01*
X-20925238Y-12336667D01*
X-20915714Y-12298571D01*
X-20906190Y-12279524D01*
X-20896667Y-12270000D01*
X-20877619Y-12260476D01*
X-20725238Y-12460476D02*
X-20725238Y-12327143D01*
X-20725238Y-12346190D02*
X-20715714Y-12336667D01*
X-20696667Y-12327143D01*
X-20668095Y-12327143D01*
X-20649048Y-12336667D01*
X-20639524Y-12355714D01*
X-20639524Y-12460476D01*
X-20639524Y-12355714D02*
X-20630000Y-12336667D01*
X-20610952Y-12327143D01*
X-20582381Y-12327143D01*
X-20563333Y-12336667D01*
X-20553810Y-12355714D01*
X-20553810Y-12460476D01*
X-20458571Y-12460476D02*
X-20458571Y-12327143D01*
X-20458571Y-12346190D02*
X-20449048Y-12336667D01*
X-20430000Y-12327143D01*
X-20401429Y-12327143D01*
X-20382381Y-12336667D01*
X-20372857Y-12355714D01*
X-20372857Y-12460476D01*
X-20372857Y-12355714D02*
X-20363333Y-12336667D01*
X-20344286Y-12327143D01*
X-20315714Y-12327143D01*
X-20296667Y-12336667D01*
X-20287143Y-12355714D01*
X-20287143Y-12460476D01*
X-19896667Y-12250952D02*
X-20068095Y-12508095D01*
X-19639524Y-12260476D02*
X-19620476Y-12260476D01*
X-19601429Y-12270000D01*
X-19591905Y-12279524D01*
X-19582381Y-12298571D01*
X-19572857Y-12336667D01*
X-19572857Y-12384286D01*
X-19582381Y-12422381D01*
X-19591905Y-12441428D01*
X-19601429Y-12450952D01*
X-19620476Y-12460476D01*
X-19639524Y-12460476D01*
X-19658571Y-12450952D01*
X-19668095Y-12441428D01*
X-19677619Y-12422381D01*
X-19687143Y-12384286D01*
X-19687143Y-12336667D01*
X-19677619Y-12298571D01*
X-19668095Y-12279524D01*
X-19658571Y-12270000D01*
X-19639524Y-12260476D01*
X-19487143Y-12441428D02*
X-19477619Y-12450952D01*
X-19487143Y-12460476D01*
X-19496667Y-12450952D01*
X-19487143Y-12441428D01*
X-19487143Y-12460476D01*
X-19353810Y-12260476D02*
X-19334762Y-12260476D01*
X-19315714Y-12270000D01*
X-19306190Y-12279524D01*
X-19296667Y-12298571D01*
X-19287143Y-12336667D01*
X-19287143Y-12384286D01*
X-19296667Y-12422381D01*
X-19306190Y-12441428D01*
X-19315714Y-12450952D01*
X-19334762Y-12460476D01*
X-19353810Y-12460476D01*
X-19372857Y-12450952D01*
X-19382381Y-12441428D01*
X-19391905Y-12422381D01*
X-19401429Y-12384286D01*
X-19401429Y-12336667D01*
X-19391905Y-12298571D01*
X-19382381Y-12279524D01*
X-19372857Y-12270000D01*
X-19353810Y-12260476D01*
X-19115714Y-12327143D02*
X-19115714Y-12460476D01*
X-19163333Y-12250952D02*
X-19210952Y-12393809D01*
X-19087143Y-12393809D01*
X-19030000Y-12260476D02*
X-18896667Y-12260476D01*
X-18982381Y-12460476D01*
X-18830000Y-12279524D02*
X-18820476Y-12270000D01*
X-18801429Y-12260476D01*
X-18753810Y-12260476D01*
X-18734762Y-12270000D01*
X-18725238Y-12279524D01*
X-18715714Y-12298571D01*
X-18715714Y-12317619D01*
X-18725238Y-12346190D01*
X-18839524Y-12460476D01*
X-18715714Y-12460476D01*
X-18639524Y-12260476D02*
X-18639524Y-12298571D01*
X-18563333Y-12260476D02*
X-18563333Y-12298571D01*
X-18268095Y-12536667D02*
X-18277619Y-12527143D01*
X-18296667Y-12498571D01*
X-18306190Y-12479524D01*
X-18315714Y-12450952D01*
X-18325238Y-12403333D01*
X-18325238Y-12365238D01*
X-18315714Y-12317619D01*
X-18306190Y-12289048D01*
X-18296667Y-12270000D01*
X-18277619Y-12241428D01*
X-18268095Y-12231905D01*
X-18087143Y-12460476D02*
X-18201429Y-12460476D01*
X-18144286Y-12460476D02*
X-18144286Y-12260476D01*
X-18163333Y-12289048D01*
X-18182381Y-12308095D01*
X-18201429Y-12317619D01*
X-17915714Y-12260476D02*
X-17953810Y-12260476D01*
X-17972857Y-12270000D01*
X-17982381Y-12279524D01*
X-18001429Y-12308095D01*
X-18010952Y-12346190D01*
X-18010952Y-12422381D01*
X-18001429Y-12441428D01*
X-17991905Y-12450952D01*
X-17972857Y-12460476D01*
X-17934762Y-12460476D01*
X-17915714Y-12450952D01*
X-17906190Y-12441428D01*
X-17896667Y-12422381D01*
X-17896667Y-12374762D01*
X-17906190Y-12355714D01*
X-17915714Y-12346190D01*
X-17934762Y-12336667D01*
X-17972857Y-12336667D01*
X-17991905Y-12346190D01*
X-18001429Y-12355714D01*
X-18010952Y-12374762D01*
X-17658571Y-12460476D02*
X-17658571Y-12260476D01*
X-17572857Y-12460476D02*
X-17572857Y-12355714D01*
X-17582381Y-12336667D01*
X-17601429Y-12327143D01*
X-17630000Y-12327143D01*
X-17649048Y-12336667D01*
X-17658571Y-12346190D01*
X-17449048Y-12460476D02*
X-17468095Y-12450952D01*
X-17477619Y-12441428D01*
X-17487143Y-12422381D01*
X-17487143Y-12365238D01*
X-17477619Y-12346190D01*
X-17468095Y-12336667D01*
X-17449048Y-12327143D01*
X-17420476Y-12327143D01*
X-17401429Y-12336667D01*
X-17391905Y-12346190D01*
X-17382381Y-12365238D01*
X-17382381Y-12422381D01*
X-17391905Y-12441428D01*
X-17401429Y-12450952D01*
X-17420476Y-12460476D01*
X-17449048Y-12460476D01*
X-17268095Y-12460476D02*
X-17287143Y-12450952D01*
X-17296667Y-12431905D01*
X-17296667Y-12260476D01*
X-17115714Y-12450952D02*
X-17134762Y-12460476D01*
X-17172857Y-12460476D01*
X-17191905Y-12450952D01*
X-17201429Y-12431905D01*
X-17201429Y-12355714D01*
X-17191905Y-12336667D01*
X-17172857Y-12327143D01*
X-17134762Y-12327143D01*
X-17115714Y-12336667D01*
X-17106190Y-12355714D01*
X-17106190Y-12374762D01*
X-17201429Y-12393809D01*
X-17030000Y-12450952D02*
X-17010952Y-12460476D01*
X-16972857Y-12460476D01*
X-16953810Y-12450952D01*
X-16944286Y-12431905D01*
X-16944286Y-12422381D01*
X-16953810Y-12403333D01*
X-16972857Y-12393809D01*
X-17001429Y-12393809D01*
X-17020476Y-12384286D01*
X-17030000Y-12365238D01*
X-17030000Y-12355714D01*
X-17020476Y-12336667D01*
X-17001429Y-12327143D01*
X-16972857Y-12327143D01*
X-16953810Y-12336667D01*
X-16877619Y-12536667D02*
X-16868095Y-12527143D01*
X-16849048Y-12498571D01*
X-16839524Y-12479524D01*
X-16830000Y-12450952D01*
X-16820476Y-12403333D01*
X-16820476Y-12365238D01*
X-16830000Y-12317619D01*
X-16839524Y-12289048D01*
X-16849048Y-12270000D01*
X-16868095Y-12241428D01*
X-16877619Y-12231905D01*
D17*
X-21970000Y-12569000D02*
X-21840000Y-12699000D01*
X-21840000Y-12569000D02*
X-21970000Y-12699000D01*
X-21905000Y-12569000D02*
X-21905000Y-12699000D01*
X-21970000Y-12634000D02*
X-21840000Y-12634000D01*
D11*
X-21477619Y-12724476D02*
X-21591905Y-12724476D01*
X-21534762Y-12724476D02*
X-21534762Y-12524476D01*
X-21553810Y-12553048D01*
X-21572857Y-12572095D01*
X-21591905Y-12581619D01*
X-21391905Y-12705428D02*
X-21382381Y-12714952D01*
X-21391905Y-12724476D01*
X-21401429Y-12714952D01*
X-21391905Y-12705428D01*
X-21391905Y-12724476D01*
X-21315714Y-12524476D02*
X-21191905Y-12524476D01*
X-21258571Y-12600667D01*
X-21230000Y-12600667D01*
X-21210952Y-12610190D01*
X-21201429Y-12619714D01*
X-21191905Y-12638762D01*
X-21191905Y-12686381D01*
X-21201429Y-12705428D01*
X-21210952Y-12714952D01*
X-21230000Y-12724476D01*
X-21287143Y-12724476D01*
X-21306190Y-12714952D01*
X-21315714Y-12705428D01*
X-21068095Y-12524476D02*
X-21049048Y-12524476D01*
X-21030000Y-12534000D01*
X-21020476Y-12543524D01*
X-21010952Y-12562571D01*
X-21001429Y-12600667D01*
X-21001429Y-12648286D01*
X-21010952Y-12686381D01*
X-21020476Y-12705428D01*
X-21030000Y-12714952D01*
X-21049048Y-12724476D01*
X-21068095Y-12724476D01*
X-21087143Y-12714952D01*
X-21096667Y-12705428D01*
X-21106190Y-12686381D01*
X-21115714Y-12648286D01*
X-21115714Y-12600667D01*
X-21106190Y-12562571D01*
X-21096667Y-12543524D01*
X-21087143Y-12534000D01*
X-21068095Y-12524476D01*
X-20877619Y-12524476D02*
X-20858571Y-12524476D01*
X-20839524Y-12534000D01*
X-20830000Y-12543524D01*
X-20820476Y-12562571D01*
X-20810952Y-12600667D01*
X-20810952Y-12648286D01*
X-20820476Y-12686381D01*
X-20830000Y-12705428D01*
X-20839524Y-12714952D01*
X-20858571Y-12724476D01*
X-20877619Y-12724476D01*
X-20896667Y-12714952D01*
X-20906190Y-12705428D01*
X-20915714Y-12686381D01*
X-20925238Y-12648286D01*
X-20925238Y-12600667D01*
X-20915714Y-12562571D01*
X-20906190Y-12543524D01*
X-20896667Y-12534000D01*
X-20877619Y-12524476D01*
X-20725238Y-12724476D02*
X-20725238Y-12591143D01*
X-20725238Y-12610190D02*
X-20715714Y-12600667D01*
X-20696667Y-12591143D01*
X-20668095Y-12591143D01*
X-20649048Y-12600667D01*
X-20639524Y-12619714D01*
X-20639524Y-12724476D01*
X-20639524Y-12619714D02*
X-20630000Y-12600667D01*
X-20610952Y-12591143D01*
X-20582381Y-12591143D01*
X-20563333Y-12600667D01*
X-20553810Y-12619714D01*
X-20553810Y-12724476D01*
X-20458571Y-12724476D02*
X-20458571Y-12591143D01*
X-20458571Y-12610190D02*
X-20449048Y-12600667D01*
X-20430000Y-12591143D01*
X-20401429Y-12591143D01*
X-20382381Y-12600667D01*
X-20372857Y-12619714D01*
X-20372857Y-12724476D01*
X-20372857Y-12619714D02*
X-20363333Y-12600667D01*
X-20344286Y-12591143D01*
X-20315714Y-12591143D01*
X-20296667Y-12600667D01*
X-20287143Y-12619714D01*
X-20287143Y-12724476D01*
X-19896667Y-12514952D02*
X-20068095Y-12772095D01*
X-19639524Y-12524476D02*
X-19620476Y-12524476D01*
X-19601429Y-12534000D01*
X-19591905Y-12543524D01*
X-19582381Y-12562571D01*
X-19572857Y-12600667D01*
X-19572857Y-12648286D01*
X-19582381Y-12686381D01*
X-19591905Y-12705428D01*
X-19601429Y-12714952D01*
X-19620476Y-12724476D01*
X-19639524Y-12724476D01*
X-19658571Y-12714952D01*
X-19668095Y-12705428D01*
X-19677619Y-12686381D01*
X-19687143Y-12648286D01*
X-19687143Y-12600667D01*
X-19677619Y-12562571D01*
X-19668095Y-12543524D01*
X-19658571Y-12534000D01*
X-19639524Y-12524476D01*
X-19487143Y-12705428D02*
X-19477619Y-12714952D01*
X-19487143Y-12724476D01*
X-19496667Y-12714952D01*
X-19487143Y-12705428D01*
X-19487143Y-12724476D01*
X-19353810Y-12524476D02*
X-19334762Y-12524476D01*
X-19315714Y-12534000D01*
X-19306190Y-12543524D01*
X-19296667Y-12562571D01*
X-19287143Y-12600667D01*
X-19287143Y-12648286D01*
X-19296667Y-12686381D01*
X-19306190Y-12705428D01*
X-19315714Y-12714952D01*
X-19334762Y-12724476D01*
X-19353810Y-12724476D01*
X-19372857Y-12714952D01*
X-19382381Y-12705428D01*
X-19391905Y-12686381D01*
X-19401429Y-12648286D01*
X-19401429Y-12600667D01*
X-19391905Y-12562571D01*
X-19382381Y-12543524D01*
X-19372857Y-12534000D01*
X-19353810Y-12524476D01*
X-19106190Y-12524476D02*
X-19201429Y-12524476D01*
X-19210952Y-12619714D01*
X-19201429Y-12610190D01*
X-19182381Y-12600667D01*
X-19134762Y-12600667D01*
X-19115714Y-12610190D01*
X-19106190Y-12619714D01*
X-19096667Y-12638762D01*
X-19096667Y-12686381D01*
X-19106190Y-12705428D01*
X-19115714Y-12714952D01*
X-19134762Y-12724476D01*
X-19182381Y-12724476D01*
X-19201429Y-12714952D01*
X-19210952Y-12705428D01*
X-18906190Y-12724476D02*
X-19020476Y-12724476D01*
X-18963333Y-12724476D02*
X-18963333Y-12524476D01*
X-18982381Y-12553048D01*
X-19001429Y-12572095D01*
X-19020476Y-12581619D01*
X-18830000Y-12543524D02*
X-18820476Y-12534000D01*
X-18801429Y-12524476D01*
X-18753810Y-12524476D01*
X-18734762Y-12534000D01*
X-18725238Y-12543524D01*
X-18715714Y-12562571D01*
X-18715714Y-12581619D01*
X-18725238Y-12610190D01*
X-18839524Y-12724476D01*
X-18715714Y-12724476D01*
X-18639524Y-12524476D02*
X-18639524Y-12562571D01*
X-18563333Y-12524476D02*
X-18563333Y-12562571D01*
X-18268095Y-12800667D02*
X-18277619Y-12791143D01*
X-18296667Y-12762571D01*
X-18306190Y-12743524D01*
X-18315714Y-12714952D01*
X-18325238Y-12667333D01*
X-18325238Y-12629238D01*
X-18315714Y-12581619D01*
X-18306190Y-12553048D01*
X-18296667Y-12534000D01*
X-18277619Y-12505428D01*
X-18268095Y-12495905D01*
X-18087143Y-12724476D02*
X-18201429Y-12724476D01*
X-18144286Y-12724476D02*
X-18144286Y-12524476D01*
X-18163333Y-12553048D01*
X-18182381Y-12572095D01*
X-18201429Y-12581619D01*
X-18010952Y-12543524D02*
X-18001429Y-12534000D01*
X-17982381Y-12524476D01*
X-17934762Y-12524476D01*
X-17915714Y-12534000D01*
X-17906190Y-12543524D01*
X-17896667Y-12562571D01*
X-17896667Y-12581619D01*
X-17906190Y-12610190D01*
X-18020476Y-12724476D01*
X-17896667Y-12724476D01*
X-17658571Y-12724476D02*
X-17658571Y-12524476D01*
X-17572857Y-12724476D02*
X-17572857Y-12619714D01*
X-17582381Y-12600667D01*
X-17601429Y-12591143D01*
X-17630000Y-12591143D01*
X-17649048Y-12600667D01*
X-17658571Y-12610190D01*
X-17449048Y-12724476D02*
X-17468095Y-12714952D01*
X-17477619Y-12705428D01*
X-17487143Y-12686381D01*
X-17487143Y-12629238D01*
X-17477619Y-12610190D01*
X-17468095Y-12600667D01*
X-17449048Y-12591143D01*
X-17420476Y-12591143D01*
X-17401429Y-12600667D01*
X-17391905Y-12610190D01*
X-17382381Y-12629238D01*
X-17382381Y-12686381D01*
X-17391905Y-12705428D01*
X-17401429Y-12714952D01*
X-17420476Y-12724476D01*
X-17449048Y-12724476D01*
X-17268095Y-12724476D02*
X-17287143Y-12714952D01*
X-17296667Y-12695905D01*
X-17296667Y-12524476D01*
X-17115714Y-12714952D02*
X-17134762Y-12724476D01*
X-17172857Y-12724476D01*
X-17191905Y-12714952D01*
X-17201429Y-12695905D01*
X-17201429Y-12619714D01*
X-17191905Y-12600667D01*
X-17172857Y-12591143D01*
X-17134762Y-12591143D01*
X-17115714Y-12600667D01*
X-17106190Y-12619714D01*
X-17106190Y-12638762D01*
X-17201429Y-12657809D01*
X-17030000Y-12714952D02*
X-17010952Y-12724476D01*
X-16972857Y-12724476D01*
X-16953810Y-12714952D01*
X-16944286Y-12695905D01*
X-16944286Y-12686381D01*
X-16953810Y-12667333D01*
X-16972857Y-12657809D01*
X-17001429Y-12657809D01*
X-17020476Y-12648286D01*
X-17030000Y-12629238D01*
X-17030000Y-12619714D01*
X-17020476Y-12600667D01*
X-17001429Y-12591143D01*
X-16972857Y-12591143D01*
X-16953810Y-12600667D01*
X-16877619Y-12800667D02*
X-16868095Y-12791143D01*
X-16849048Y-12762571D01*
X-16839524Y-12743524D01*
X-16830000Y-12714952D01*
X-16820476Y-12667333D01*
X-16820476Y-12629238D01*
X-16830000Y-12581619D01*
X-16839524Y-12553048D01*
X-16849048Y-12534000D01*
X-16868095Y-12505428D01*
X-16877619Y-12495905D01*
D18*
X-22010000Y-12813000D02*
X-21840000Y-12983000D01*
X-21840000Y-12813000D02*
X-22010000Y-12983000D01*
X-21864895Y-12958105D02*
X-21864895Y-12837895D01*
X-21985105Y-12837895D01*
X-21985105Y-12958105D01*
X-21864895Y-12958105D01*
D11*
X-21477619Y-12988476D02*
X-21591905Y-12988476D01*
X-21534762Y-12988476D02*
X-21534762Y-12788476D01*
X-21553810Y-12817048D01*
X-21572857Y-12836095D01*
X-21591905Y-12845619D01*
X-21391905Y-12969428D02*
X-21382381Y-12978952D01*
X-21391905Y-12988476D01*
X-21401429Y-12978952D01*
X-21391905Y-12969428D01*
X-21391905Y-12988476D01*
X-21315714Y-12788476D02*
X-21182381Y-12788476D01*
X-21268095Y-12988476D01*
X-21068095Y-12788476D02*
X-21049048Y-12788476D01*
X-21030000Y-12798000D01*
X-21020476Y-12807524D01*
X-21010952Y-12826571D01*
X-21001429Y-12864667D01*
X-21001429Y-12912286D01*
X-21010952Y-12950381D01*
X-21020476Y-12969428D01*
X-21030000Y-12978952D01*
X-21049048Y-12988476D01*
X-21068095Y-12988476D01*
X-21087143Y-12978952D01*
X-21096667Y-12969428D01*
X-21106190Y-12950381D01*
X-21115714Y-12912286D01*
X-21115714Y-12864667D01*
X-21106190Y-12826571D01*
X-21096667Y-12807524D01*
X-21087143Y-12798000D01*
X-21068095Y-12788476D01*
X-20877619Y-12788476D02*
X-20858571Y-12788476D01*
X-20839524Y-12798000D01*
X-20830000Y-12807524D01*
X-20820476Y-12826571D01*
X-20810952Y-12864667D01*
X-20810952Y-12912286D01*
X-20820476Y-12950381D01*
X-20830000Y-12969428D01*
X-20839524Y-12978952D01*
X-20858571Y-12988476D01*
X-20877619Y-12988476D01*
X-20896667Y-12978952D01*
X-20906190Y-12969428D01*
X-20915714Y-12950381D01*
X-20925238Y-12912286D01*
X-20925238Y-12864667D01*
X-20915714Y-12826571D01*
X-20906190Y-12807524D01*
X-20896667Y-12798000D01*
X-20877619Y-12788476D01*
X-20725238Y-12988476D02*
X-20725238Y-12855143D01*
X-20725238Y-12874190D02*
X-20715714Y-12864667D01*
X-20696667Y-12855143D01*
X-20668095Y-12855143D01*
X-20649048Y-12864667D01*
X-20639524Y-12883714D01*
X-20639524Y-12988476D01*
X-20639524Y-12883714D02*
X-20630000Y-12864667D01*
X-20610952Y-12855143D01*
X-20582381Y-12855143D01*
X-20563333Y-12864667D01*
X-20553810Y-12883714D01*
X-20553810Y-12988476D01*
X-20458571Y-12988476D02*
X-20458571Y-12855143D01*
X-20458571Y-12874190D02*
X-20449048Y-12864667D01*
X-20430000Y-12855143D01*
X-20401429Y-12855143D01*
X-20382381Y-12864667D01*
X-20372857Y-12883714D01*
X-20372857Y-12988476D01*
X-20372857Y-12883714D02*
X-20363333Y-12864667D01*
X-20344286Y-12855143D01*
X-20315714Y-12855143D01*
X-20296667Y-12864667D01*
X-20287143Y-12883714D01*
X-20287143Y-12988476D01*
X-19896667Y-12778952D02*
X-20068095Y-13036095D01*
X-19639524Y-12788476D02*
X-19620476Y-12788476D01*
X-19601429Y-12798000D01*
X-19591905Y-12807524D01*
X-19582381Y-12826571D01*
X-19572857Y-12864667D01*
X-19572857Y-12912286D01*
X-19582381Y-12950381D01*
X-19591905Y-12969428D01*
X-19601429Y-12978952D01*
X-19620476Y-12988476D01*
X-19639524Y-12988476D01*
X-19658571Y-12978952D01*
X-19668095Y-12969428D01*
X-19677619Y-12950381D01*
X-19687143Y-12912286D01*
X-19687143Y-12864667D01*
X-19677619Y-12826571D01*
X-19668095Y-12807524D01*
X-19658571Y-12798000D01*
X-19639524Y-12788476D01*
X-19487143Y-12969428D02*
X-19477619Y-12978952D01*
X-19487143Y-12988476D01*
X-19496667Y-12978952D01*
X-19487143Y-12969428D01*
X-19487143Y-12988476D01*
X-19353810Y-12788476D02*
X-19334762Y-12788476D01*
X-19315714Y-12798000D01*
X-19306190Y-12807524D01*
X-19296667Y-12826571D01*
X-19287143Y-12864667D01*
X-19287143Y-12912286D01*
X-19296667Y-12950381D01*
X-19306190Y-12969428D01*
X-19315714Y-12978952D01*
X-19334762Y-12988476D01*
X-19353810Y-12988476D01*
X-19372857Y-12978952D01*
X-19382381Y-12969428D01*
X-19391905Y-12950381D01*
X-19401429Y-12912286D01*
X-19401429Y-12864667D01*
X-19391905Y-12826571D01*
X-19382381Y-12807524D01*
X-19372857Y-12798000D01*
X-19353810Y-12788476D01*
X-19115714Y-12788476D02*
X-19153810Y-12788476D01*
X-19172857Y-12798000D01*
X-19182381Y-12807524D01*
X-19201429Y-12836095D01*
X-19210952Y-12874190D01*
X-19210952Y-12950381D01*
X-19201429Y-12969428D01*
X-19191905Y-12978952D01*
X-19172857Y-12988476D01*
X-19134762Y-12988476D01*
X-19115714Y-12978952D01*
X-19106190Y-12969428D01*
X-19096667Y-12950381D01*
X-19096667Y-12902762D01*
X-19106190Y-12883714D01*
X-19115714Y-12874190D01*
X-19134762Y-12864667D01*
X-19172857Y-12864667D01*
X-19191905Y-12874190D01*
X-19201429Y-12883714D01*
X-19210952Y-12902762D01*
X-18925238Y-12788476D02*
X-18963333Y-12788476D01*
X-18982381Y-12798000D01*
X-18991905Y-12807524D01*
X-19010952Y-12836095D01*
X-19020476Y-12874190D01*
X-19020476Y-12950381D01*
X-19010952Y-12969428D01*
X-19001429Y-12978952D01*
X-18982381Y-12988476D01*
X-18944286Y-12988476D01*
X-18925238Y-12978952D01*
X-18915714Y-12969428D01*
X-18906190Y-12950381D01*
X-18906190Y-12902762D01*
X-18915714Y-12883714D01*
X-18925238Y-12874190D01*
X-18944286Y-12864667D01*
X-18982381Y-12864667D01*
X-19001429Y-12874190D01*
X-19010952Y-12883714D01*
X-19020476Y-12902762D01*
X-18810952Y-12988476D02*
X-18772857Y-12988476D01*
X-18753810Y-12978952D01*
X-18744286Y-12969428D01*
X-18725238Y-12940857D01*
X-18715714Y-12902762D01*
X-18715714Y-12826571D01*
X-18725238Y-12807524D01*
X-18734762Y-12798000D01*
X-18753810Y-12788476D01*
X-18791905Y-12788476D01*
X-18810952Y-12798000D01*
X-18820476Y-12807524D01*
X-18830000Y-12826571D01*
X-18830000Y-12874190D01*
X-18820476Y-12893238D01*
X-18810952Y-12902762D01*
X-18791905Y-12912286D01*
X-18753810Y-12912286D01*
X-18734762Y-12902762D01*
X-18725238Y-12893238D01*
X-18715714Y-12874190D01*
X-18639524Y-12788476D02*
X-18639524Y-12826571D01*
X-18563333Y-12788476D02*
X-18563333Y-12826571D01*
X-18268095Y-13064667D02*
X-18277619Y-13055143D01*
X-18296667Y-13026571D01*
X-18306190Y-13007524D01*
X-18315714Y-12978952D01*
X-18325238Y-12931333D01*
X-18325238Y-12893238D01*
X-18315714Y-12845619D01*
X-18306190Y-12817048D01*
X-18296667Y-12798000D01*
X-18277619Y-12769428D01*
X-18268095Y-12759905D01*
X-18106190Y-12788476D02*
X-18144286Y-12788476D01*
X-18163333Y-12798000D01*
X-18172857Y-12807524D01*
X-18191905Y-12836095D01*
X-18201429Y-12874190D01*
X-18201429Y-12950381D01*
X-18191905Y-12969428D01*
X-18182381Y-12978952D01*
X-18163333Y-12988476D01*
X-18125238Y-12988476D01*
X-18106190Y-12978952D01*
X-18096667Y-12969428D01*
X-18087143Y-12950381D01*
X-18087143Y-12902762D01*
X-18096667Y-12883714D01*
X-18106190Y-12874190D01*
X-18125238Y-12864667D01*
X-18163333Y-12864667D01*
X-18182381Y-12874190D01*
X-18191905Y-12883714D01*
X-18201429Y-12902762D01*
X-17849048Y-12988476D02*
X-17849048Y-12788476D01*
X-17763333Y-12988476D02*
X-17763333Y-12883714D01*
X-17772857Y-12864667D01*
X-17791905Y-12855143D01*
X-17820476Y-12855143D01*
X-17839524Y-12864667D01*
X-17849048Y-12874190D01*
X-17639524Y-12988476D02*
X-17658571Y-12978952D01*
X-17668095Y-12969428D01*
X-17677619Y-12950381D01*
X-17677619Y-12893238D01*
X-17668095Y-12874190D01*
X-17658571Y-12864667D01*
X-17639524Y-12855143D01*
X-17610952Y-12855143D01*
X-17591905Y-12864667D01*
X-17582381Y-12874190D01*
X-17572857Y-12893238D01*
X-17572857Y-12950381D01*
X-17582381Y-12969428D01*
X-17591905Y-12978952D01*
X-17610952Y-12988476D01*
X-17639524Y-12988476D01*
X-17458571Y-12988476D02*
X-17477619Y-12978952D01*
X-17487143Y-12959905D01*
X-17487143Y-12788476D01*
X-17306190Y-12978952D02*
X-17325238Y-12988476D01*
X-17363333Y-12988476D01*
X-17382381Y-12978952D01*
X-17391905Y-12959905D01*
X-17391905Y-12883714D01*
X-17382381Y-12864667D01*
X-17363333Y-12855143D01*
X-17325238Y-12855143D01*
X-17306190Y-12864667D01*
X-17296667Y-12883714D01*
X-17296667Y-12902762D01*
X-17391905Y-12921809D01*
X-17220476Y-12978952D02*
X-17201429Y-12988476D01*
X-17163333Y-12988476D01*
X-17144286Y-12978952D01*
X-17134762Y-12959905D01*
X-17134762Y-12950381D01*
X-17144286Y-12931333D01*
X-17163333Y-12921809D01*
X-17191905Y-12921809D01*
X-17210952Y-12912286D01*
X-17220476Y-12893238D01*
X-17220476Y-12883714D01*
X-17210952Y-12864667D01*
X-17191905Y-12855143D01*
X-17163333Y-12855143D01*
X-17144286Y-12864667D01*
X-17068095Y-13064667D02*
X-17058571Y-13055143D01*
X-17039524Y-13026571D01*
X-17030000Y-13007524D01*
X-17020476Y-12978952D01*
X-17010952Y-12931333D01*
X-17010952Y-12893238D01*
X-17020476Y-12845619D01*
X-17030000Y-12817048D01*
X-17039524Y-12798000D01*
X-17058571Y-12769428D01*
X-17068095Y-12759905D01*
D19*
X-22020000Y-13098000D02*
X-21840000Y-13278000D01*
X-21840000Y-13098000D02*
X-22020000Y-13278000D01*
X-21930000Y-13278000D02*
X-21840000Y-13188000D01*
X-21930000Y-13098000D01*
X-22020000Y-13188000D01*
X-21930000Y-13278000D01*
D11*
X-21477619Y-13278476D02*
X-21591905Y-13278476D01*
X-21534762Y-13278476D02*
X-21534762Y-13078476D01*
X-21553810Y-13107048D01*
X-21572857Y-13126095D01*
X-21591905Y-13135619D01*
X-21391905Y-13259428D02*
X-21382381Y-13268952D01*
X-21391905Y-13278476D01*
X-21401429Y-13268952D01*
X-21391905Y-13259428D01*
X-21391905Y-13278476D01*
X-21268095Y-13164190D02*
X-21287143Y-13154667D01*
X-21296667Y-13145143D01*
X-21306190Y-13126095D01*
X-21306190Y-13116571D01*
X-21296667Y-13097524D01*
X-21287143Y-13088000D01*
X-21268095Y-13078476D01*
X-21230000Y-13078476D01*
X-21210952Y-13088000D01*
X-21201429Y-13097524D01*
X-21191905Y-13116571D01*
X-21191905Y-13126095D01*
X-21201429Y-13145143D01*
X-21210952Y-13154667D01*
X-21230000Y-13164190D01*
X-21268095Y-13164190D01*
X-21287143Y-13173714D01*
X-21296667Y-13183238D01*
X-21306190Y-13202286D01*
X-21306190Y-13240381D01*
X-21296667Y-13259428D01*
X-21287143Y-13268952D01*
X-21268095Y-13278476D01*
X-21230000Y-13278476D01*
X-21210952Y-13268952D01*
X-21201429Y-13259428D01*
X-21191905Y-13240381D01*
X-21191905Y-13202286D01*
X-21201429Y-13183238D01*
X-21210952Y-13173714D01*
X-21230000Y-13164190D01*
X-21068095Y-13078476D02*
X-21049048Y-13078476D01*
X-21030000Y-13088000D01*
X-21020476Y-13097524D01*
X-21010952Y-13116571D01*
X-21001429Y-13154667D01*
X-21001429Y-13202286D01*
X-21010952Y-13240381D01*
X-21020476Y-13259428D01*
X-21030000Y-13268952D01*
X-21049048Y-13278476D01*
X-21068095Y-13278476D01*
X-21087143Y-13268952D01*
X-21096667Y-13259428D01*
X-21106190Y-13240381D01*
X-21115714Y-13202286D01*
X-21115714Y-13154667D01*
X-21106190Y-13116571D01*
X-21096667Y-13097524D01*
X-21087143Y-13088000D01*
X-21068095Y-13078476D01*
X-20877619Y-13078476D02*
X-20858571Y-13078476D01*
X-20839524Y-13088000D01*
X-20830000Y-13097524D01*
X-20820476Y-13116571D01*
X-20810952Y-13154667D01*
X-20810952Y-13202286D01*
X-20820476Y-13240381D01*
X-20830000Y-13259428D01*
X-20839524Y-13268952D01*
X-20858571Y-13278476D01*
X-20877619Y-13278476D01*
X-20896667Y-13268952D01*
X-20906190Y-13259428D01*
X-20915714Y-13240381D01*
X-20925238Y-13202286D01*
X-20925238Y-13154667D01*
X-20915714Y-13116571D01*
X-20906190Y-13097524D01*
X-20896667Y-13088000D01*
X-20877619Y-13078476D01*
X-20725238Y-13278476D02*
X-20725238Y-13145143D01*
X-20725238Y-13164190D02*
X-20715714Y-13154667D01*
X-20696667Y-13145143D01*
X-20668095Y-13145143D01*
X-20649048Y-13154667D01*
X-20639524Y-13173714D01*
X-20639524Y-13278476D01*
X-20639524Y-13173714D02*
X-20630000Y-13154667D01*
X-20610952Y-13145143D01*
X-20582381Y-13145143D01*
X-20563333Y-13154667D01*
X-20553810Y-13173714D01*
X-20553810Y-13278476D01*
X-20458571Y-13278476D02*
X-20458571Y-13145143D01*
X-20458571Y-13164190D02*
X-20449048Y-13154667D01*
X-20430000Y-13145143D01*
X-20401429Y-13145143D01*
X-20382381Y-13154667D01*
X-20372857Y-13173714D01*
X-20372857Y-13278476D01*
X-20372857Y-13173714D02*
X-20363333Y-13154667D01*
X-20344286Y-13145143D01*
X-20315714Y-13145143D01*
X-20296667Y-13154667D01*
X-20287143Y-13173714D01*
X-20287143Y-13278476D01*
X-19896667Y-13068952D02*
X-20068095Y-13326095D01*
X-19639524Y-13078476D02*
X-19620476Y-13078476D01*
X-19601429Y-13088000D01*
X-19591905Y-13097524D01*
X-19582381Y-13116571D01*
X-19572857Y-13154667D01*
X-19572857Y-13202286D01*
X-19582381Y-13240381D01*
X-19591905Y-13259428D01*
X-19601429Y-13268952D01*
X-19620476Y-13278476D01*
X-19639524Y-13278476D01*
X-19658571Y-13268952D01*
X-19668095Y-13259428D01*
X-19677619Y-13240381D01*
X-19687143Y-13202286D01*
X-19687143Y-13154667D01*
X-19677619Y-13116571D01*
X-19668095Y-13097524D01*
X-19658571Y-13088000D01*
X-19639524Y-13078476D01*
X-19487143Y-13259428D02*
X-19477619Y-13268952D01*
X-19487143Y-13278476D01*
X-19496667Y-13268952D01*
X-19487143Y-13259428D01*
X-19487143Y-13278476D01*
X-19353810Y-13078476D02*
X-19334762Y-13078476D01*
X-19315714Y-13088000D01*
X-19306190Y-13097524D01*
X-19296667Y-13116571D01*
X-19287143Y-13154667D01*
X-19287143Y-13202286D01*
X-19296667Y-13240381D01*
X-19306190Y-13259428D01*
X-19315714Y-13268952D01*
X-19334762Y-13278476D01*
X-19353810Y-13278476D01*
X-19372857Y-13268952D01*
X-19382381Y-13259428D01*
X-19391905Y-13240381D01*
X-19401429Y-13202286D01*
X-19401429Y-13154667D01*
X-19391905Y-13116571D01*
X-19382381Y-13097524D01*
X-19372857Y-13088000D01*
X-19353810Y-13078476D01*
X-19220476Y-13078476D02*
X-19087143Y-13078476D01*
X-19172857Y-13278476D01*
X-18972857Y-13078476D02*
X-18953810Y-13078476D01*
X-18934762Y-13088000D01*
X-18925238Y-13097524D01*
X-18915714Y-13116571D01*
X-18906190Y-13154667D01*
X-18906190Y-13202286D01*
X-18915714Y-13240381D01*
X-18925238Y-13259428D01*
X-18934762Y-13268952D01*
X-18953810Y-13278476D01*
X-18972857Y-13278476D01*
X-18991905Y-13268952D01*
X-19001429Y-13259428D01*
X-19010952Y-13240381D01*
X-19020476Y-13202286D01*
X-19020476Y-13154667D01*
X-19010952Y-13116571D01*
X-19001429Y-13097524D01*
X-18991905Y-13088000D01*
X-18972857Y-13078476D01*
X-18810952Y-13278476D02*
X-18772857Y-13278476D01*
X-18753810Y-13268952D01*
X-18744286Y-13259428D01*
X-18725238Y-13230857D01*
X-18715714Y-13192762D01*
X-18715714Y-13116571D01*
X-18725238Y-13097524D01*
X-18734762Y-13088000D01*
X-18753810Y-13078476D01*
X-18791905Y-13078476D01*
X-18810952Y-13088000D01*
X-18820476Y-13097524D01*
X-18830000Y-13116571D01*
X-18830000Y-13164190D01*
X-18820476Y-13183238D01*
X-18810952Y-13192762D01*
X-18791905Y-13202286D01*
X-18753810Y-13202286D01*
X-18734762Y-13192762D01*
X-18725238Y-13183238D01*
X-18715714Y-13164190D01*
X-18639524Y-13078476D02*
X-18639524Y-13116571D01*
X-18563333Y-13078476D02*
X-18563333Y-13116571D01*
X-18268095Y-13354667D02*
X-18277619Y-13345143D01*
X-18296667Y-13316571D01*
X-18306190Y-13297524D01*
X-18315714Y-13268952D01*
X-18325238Y-13221333D01*
X-18325238Y-13183238D01*
X-18315714Y-13135619D01*
X-18306190Y-13107048D01*
X-18296667Y-13088000D01*
X-18277619Y-13059428D01*
X-18268095Y-13049905D01*
X-18201429Y-13097524D02*
X-18191905Y-13088000D01*
X-18172857Y-13078476D01*
X-18125238Y-13078476D01*
X-18106190Y-13088000D01*
X-18096667Y-13097524D01*
X-18087143Y-13116571D01*
X-18087143Y-13135619D01*
X-18096667Y-13164190D01*
X-18210952Y-13278476D01*
X-18087143Y-13278476D01*
X-17849048Y-13278476D02*
X-17849048Y-13078476D01*
X-17763333Y-13278476D02*
X-17763333Y-13173714D01*
X-17772857Y-13154667D01*
X-17791905Y-13145143D01*
X-17820476Y-13145143D01*
X-17839524Y-13154667D01*
X-17849048Y-13164190D01*
X-17639524Y-13278476D02*
X-17658571Y-13268952D01*
X-17668095Y-13259428D01*
X-17677619Y-13240381D01*
X-17677619Y-13183238D01*
X-17668095Y-13164190D01*
X-17658571Y-13154667D01*
X-17639524Y-13145143D01*
X-17610952Y-13145143D01*
X-17591905Y-13154667D01*
X-17582381Y-13164190D01*
X-17572857Y-13183238D01*
X-17572857Y-13240381D01*
X-17582381Y-13259428D01*
X-17591905Y-13268952D01*
X-17610952Y-13278476D01*
X-17639524Y-13278476D01*
X-17458571Y-13278476D02*
X-17477619Y-13268952D01*
X-17487143Y-13249905D01*
X-17487143Y-13078476D01*
X-17306190Y-13268952D02*
X-17325238Y-13278476D01*
X-17363333Y-13278476D01*
X-17382381Y-13268952D01*
X-17391905Y-13249905D01*
X-17391905Y-13173714D01*
X-17382381Y-13154667D01*
X-17363333Y-13145143D01*
X-17325238Y-13145143D01*
X-17306190Y-13154667D01*
X-17296667Y-13173714D01*
X-17296667Y-13192762D01*
X-17391905Y-13211809D01*
X-17220476Y-13268952D02*
X-17201429Y-13278476D01*
X-17163333Y-13278476D01*
X-17144286Y-13268952D01*
X-17134762Y-13249905D01*
X-17134762Y-13240381D01*
X-17144286Y-13221333D01*
X-17163333Y-13211809D01*
X-17191905Y-13211809D01*
X-17210952Y-13202286D01*
X-17220476Y-13183238D01*
X-17220476Y-13173714D01*
X-17210952Y-13154667D01*
X-17191905Y-13145143D01*
X-17163333Y-13145143D01*
X-17144286Y-13154667D01*
X-17068095Y-13354667D02*
X-17058571Y-13345143D01*
X-17039524Y-13316571D01*
X-17030000Y-13297524D01*
X-17020476Y-13268952D01*
X-17010952Y-13221333D01*
X-17010952Y-13183238D01*
X-17020476Y-13135619D01*
X-17030000Y-13107048D01*
X-17039524Y-13088000D01*
X-17058571Y-13059428D01*
X-17068095Y-13049905D01*
X-21940000Y-13388000D02*
X-21940000Y-13588000D01*
X-22040000Y-13488000D02*
X-21840000Y-13488000D01*
X-21840000Y-13488000D02*
G75*
G03*
X-21840000Y-13488000I-100000J0D01*
G01*
X-21591905Y-13397524D02*
X-21582381Y-13388000D01*
X-21563333Y-13378476D01*
X-21515714Y-13378476D01*
X-21496667Y-13388000D01*
X-21487143Y-13397524D01*
X-21477619Y-13416571D01*
X-21477619Y-13435619D01*
X-21487143Y-13464190D01*
X-21601429Y-13578476D01*
X-21477619Y-13578476D01*
X-21391905Y-13559428D02*
X-21382381Y-13568952D01*
X-21391905Y-13578476D01*
X-21401429Y-13568952D01*
X-21391905Y-13559428D01*
X-21391905Y-13578476D01*
X-21201429Y-13378476D02*
X-21296667Y-13378476D01*
X-21306190Y-13473714D01*
X-21296667Y-13464190D01*
X-21277619Y-13454667D01*
X-21230000Y-13454667D01*
X-21210952Y-13464190D01*
X-21201429Y-13473714D01*
X-21191905Y-13492762D01*
X-21191905Y-13540381D01*
X-21201429Y-13559428D01*
X-21210952Y-13568952D01*
X-21230000Y-13578476D01*
X-21277619Y-13578476D01*
X-21296667Y-13568952D01*
X-21306190Y-13559428D01*
X-21068095Y-13378476D02*
X-21049048Y-13378476D01*
X-21030000Y-13388000D01*
X-21020476Y-13397524D01*
X-21010952Y-13416571D01*
X-21001429Y-13454667D01*
X-21001429Y-13502286D01*
X-21010952Y-13540381D01*
X-21020476Y-13559428D01*
X-21030000Y-13568952D01*
X-21049048Y-13578476D01*
X-21068095Y-13578476D01*
X-21087143Y-13568952D01*
X-21096667Y-13559428D01*
X-21106190Y-13540381D01*
X-21115714Y-13502286D01*
X-21115714Y-13454667D01*
X-21106190Y-13416571D01*
X-21096667Y-13397524D01*
X-21087143Y-13388000D01*
X-21068095Y-13378476D01*
X-20877619Y-13378476D02*
X-20858571Y-13378476D01*
X-20839524Y-13388000D01*
X-20830000Y-13397524D01*
X-20820476Y-13416571D01*
X-20810952Y-13454667D01*
X-20810952Y-13502286D01*
X-20820476Y-13540381D01*
X-20830000Y-13559428D01*
X-20839524Y-13568952D01*
X-20858571Y-13578476D01*
X-20877619Y-13578476D01*
X-20896667Y-13568952D01*
X-20906190Y-13559428D01*
X-20915714Y-13540381D01*
X-20925238Y-13502286D01*
X-20925238Y-13454667D01*
X-20915714Y-13416571D01*
X-20906190Y-13397524D01*
X-20896667Y-13388000D01*
X-20877619Y-13378476D01*
X-20725238Y-13578476D02*
X-20725238Y-13445143D01*
X-20725238Y-13464190D02*
X-20715714Y-13454667D01*
X-20696667Y-13445143D01*
X-20668095Y-13445143D01*
X-20649048Y-13454667D01*
X-20639524Y-13473714D01*
X-20639524Y-13578476D01*
X-20639524Y-13473714D02*
X-20630000Y-13454667D01*
X-20610952Y-13445143D01*
X-20582381Y-13445143D01*
X-20563333Y-13454667D01*
X-20553810Y-13473714D01*
X-20553810Y-13578476D01*
X-20458571Y-13578476D02*
X-20458571Y-13445143D01*
X-20458571Y-13464190D02*
X-20449048Y-13454667D01*
X-20430000Y-13445143D01*
X-20401429Y-13445143D01*
X-20382381Y-13454667D01*
X-20372857Y-13473714D01*
X-20372857Y-13578476D01*
X-20372857Y-13473714D02*
X-20363333Y-13454667D01*
X-20344286Y-13445143D01*
X-20315714Y-13445143D01*
X-20296667Y-13454667D01*
X-20287143Y-13473714D01*
X-20287143Y-13578476D01*
X-19896667Y-13368952D02*
X-20068095Y-13626095D01*
X-19639524Y-13378476D02*
X-19620476Y-13378476D01*
X-19601429Y-13388000D01*
X-19591905Y-13397524D01*
X-19582381Y-13416571D01*
X-19572857Y-13454667D01*
X-19572857Y-13502286D01*
X-19582381Y-13540381D01*
X-19591905Y-13559428D01*
X-19601429Y-13568952D01*
X-19620476Y-13578476D01*
X-19639524Y-13578476D01*
X-19658571Y-13568952D01*
X-19668095Y-13559428D01*
X-19677619Y-13540381D01*
X-19687143Y-13502286D01*
X-19687143Y-13454667D01*
X-19677619Y-13416571D01*
X-19668095Y-13397524D01*
X-19658571Y-13388000D01*
X-19639524Y-13378476D01*
X-19487143Y-13559428D02*
X-19477619Y-13568952D01*
X-19487143Y-13578476D01*
X-19496667Y-13568952D01*
X-19487143Y-13559428D01*
X-19487143Y-13578476D01*
X-19353810Y-13378476D02*
X-19334762Y-13378476D01*
X-19315714Y-13388000D01*
X-19306190Y-13397524D01*
X-19296667Y-13416571D01*
X-19287143Y-13454667D01*
X-19287143Y-13502286D01*
X-19296667Y-13540381D01*
X-19306190Y-13559428D01*
X-19315714Y-13568952D01*
X-19334762Y-13578476D01*
X-19353810Y-13578476D01*
X-19372857Y-13568952D01*
X-19382381Y-13559428D01*
X-19391905Y-13540381D01*
X-19401429Y-13502286D01*
X-19401429Y-13454667D01*
X-19391905Y-13416571D01*
X-19382381Y-13397524D01*
X-19372857Y-13388000D01*
X-19353810Y-13378476D01*
X-19191905Y-13578476D02*
X-19153810Y-13578476D01*
X-19134762Y-13568952D01*
X-19125238Y-13559428D01*
X-19106190Y-13530857D01*
X-19096667Y-13492762D01*
X-19096667Y-13416571D01*
X-19106190Y-13397524D01*
X-19115714Y-13388000D01*
X-19134762Y-13378476D01*
X-19172857Y-13378476D01*
X-19191905Y-13388000D01*
X-19201429Y-13397524D01*
X-19210952Y-13416571D01*
X-19210952Y-13464190D01*
X-19201429Y-13483238D01*
X-19191905Y-13492762D01*
X-19172857Y-13502286D01*
X-19134762Y-13502286D01*
X-19115714Y-13492762D01*
X-19106190Y-13483238D01*
X-19096667Y-13464190D01*
X-18982381Y-13464190D02*
X-19001429Y-13454667D01*
X-19010952Y-13445143D01*
X-19020476Y-13426095D01*
X-19020476Y-13416571D01*
X-19010952Y-13397524D01*
X-19001429Y-13388000D01*
X-18982381Y-13378476D01*
X-18944286Y-13378476D01*
X-18925238Y-13388000D01*
X-18915714Y-13397524D01*
X-18906190Y-13416571D01*
X-18906190Y-13426095D01*
X-18915714Y-13445143D01*
X-18925238Y-13454667D01*
X-18944286Y-13464190D01*
X-18982381Y-13464190D01*
X-19001429Y-13473714D01*
X-19010952Y-13483238D01*
X-19020476Y-13502286D01*
X-19020476Y-13540381D01*
X-19010952Y-13559428D01*
X-19001429Y-13568952D01*
X-18982381Y-13578476D01*
X-18944286Y-13578476D01*
X-18925238Y-13568952D01*
X-18915714Y-13559428D01*
X-18906190Y-13540381D01*
X-18906190Y-13502286D01*
X-18915714Y-13483238D01*
X-18925238Y-13473714D01*
X-18944286Y-13464190D01*
X-18734762Y-13445143D02*
X-18734762Y-13578476D01*
X-18782381Y-13368952D02*
X-18830000Y-13511809D01*
X-18706190Y-13511809D01*
X-18639524Y-13378476D02*
X-18639524Y-13416571D01*
X-18563333Y-13378476D02*
X-18563333Y-13416571D01*
X-18268095Y-13654667D02*
X-18277619Y-13645143D01*
X-18296667Y-13616571D01*
X-18306190Y-13597524D01*
X-18315714Y-13568952D01*
X-18325238Y-13521333D01*
X-18325238Y-13483238D01*
X-18315714Y-13435619D01*
X-18306190Y-13407048D01*
X-18296667Y-13388000D01*
X-18277619Y-13359428D01*
X-18268095Y-13349905D01*
X-18201429Y-13397524D02*
X-18191905Y-13388000D01*
X-18172857Y-13378476D01*
X-18125238Y-13378476D01*
X-18106190Y-13388000D01*
X-18096667Y-13397524D01*
X-18087143Y-13416571D01*
X-18087143Y-13435619D01*
X-18096667Y-13464190D01*
X-18210952Y-13578476D01*
X-18087143Y-13578476D01*
X-17849048Y-13578476D02*
X-17849048Y-13378476D01*
X-17763333Y-13578476D02*
X-17763333Y-13473714D01*
X-17772857Y-13454667D01*
X-17791905Y-13445143D01*
X-17820476Y-13445143D01*
X-17839524Y-13454667D01*
X-17849048Y-13464190D01*
X-17639524Y-13578476D02*
X-17658571Y-13568952D01*
X-17668095Y-13559428D01*
X-17677619Y-13540381D01*
X-17677619Y-13483238D01*
X-17668095Y-13464190D01*
X-17658571Y-13454667D01*
X-17639524Y-13445143D01*
X-17610952Y-13445143D01*
X-17591905Y-13454667D01*
X-17582381Y-13464190D01*
X-17572857Y-13483238D01*
X-17572857Y-13540381D01*
X-17582381Y-13559428D01*
X-17591905Y-13568952D01*
X-17610952Y-13578476D01*
X-17639524Y-13578476D01*
X-17458571Y-13578476D02*
X-17477619Y-13568952D01*
X-17487143Y-13549905D01*
X-17487143Y-13378476D01*
X-17306190Y-13568952D02*
X-17325238Y-13578476D01*
X-17363333Y-13578476D01*
X-17382381Y-13568952D01*
X-17391905Y-13549905D01*
X-17391905Y-13473714D01*
X-17382381Y-13454667D01*
X-17363333Y-13445143D01*
X-17325238Y-13445143D01*
X-17306190Y-13454667D01*
X-17296667Y-13473714D01*
X-17296667Y-13492762D01*
X-17391905Y-13511809D01*
X-17220476Y-13568952D02*
X-17201429Y-13578476D01*
X-17163333Y-13578476D01*
X-17144286Y-13568952D01*
X-17134762Y-13549905D01*
X-17134762Y-13540381D01*
X-17144286Y-13521333D01*
X-17163333Y-13511809D01*
X-17191905Y-13511809D01*
X-17210952Y-13502286D01*
X-17220476Y-13483238D01*
X-17220476Y-13473714D01*
X-17210952Y-13454667D01*
X-17191905Y-13445143D01*
X-17163333Y-13445143D01*
X-17144286Y-13454667D01*
X-17068095Y-13654667D02*
X-17058571Y-13645143D01*
X-17039524Y-13616571D01*
X-17030000Y-13597524D01*
X-17020476Y-13568952D01*
X-17010952Y-13521333D01*
X-17010952Y-13483238D01*
X-17020476Y-13435619D01*
X-17030000Y-13407048D01*
X-17039524Y-13388000D01*
X-17058571Y-13359428D01*
X-17068095Y-13349905D01*
X-21869289Y-13878711D02*
X-21869289Y-13737289D01*
X-22010711Y-13737289D01*
X-22010711Y-13878711D01*
X-21869289Y-13878711D01*
X-21840000Y-13808000D02*
G75*
G03*
X-21840000Y-13808000I-100000J0D01*
G01*
X-21601429Y-13698476D02*
X-21477619Y-13698476D01*
X-21544286Y-13774667D01*
X-21515714Y-13774667D01*
X-21496667Y-13784190D01*
X-21487143Y-13793714D01*
X-21477619Y-13812762D01*
X-21477619Y-13860381D01*
X-21487143Y-13879428D01*
X-21496667Y-13888952D01*
X-21515714Y-13898476D01*
X-21572857Y-13898476D01*
X-21591905Y-13888952D01*
X-21601429Y-13879428D01*
X-21391905Y-13879428D02*
X-21382381Y-13888952D01*
X-21391905Y-13898476D01*
X-21401429Y-13888952D01*
X-21391905Y-13879428D01*
X-21391905Y-13898476D01*
X-21258571Y-13698476D02*
X-21239524Y-13698476D01*
X-21220476Y-13708000D01*
X-21210952Y-13717524D01*
X-21201429Y-13736571D01*
X-21191905Y-13774667D01*
X-21191905Y-13822286D01*
X-21201429Y-13860381D01*
X-21210952Y-13879428D01*
X-21220476Y-13888952D01*
X-21239524Y-13898476D01*
X-21258571Y-13898476D01*
X-21277619Y-13888952D01*
X-21287143Y-13879428D01*
X-21296667Y-13860381D01*
X-21306190Y-13822286D01*
X-21306190Y-13774667D01*
X-21296667Y-13736571D01*
X-21287143Y-13717524D01*
X-21277619Y-13708000D01*
X-21258571Y-13698476D01*
X-21068095Y-13698476D02*
X-21049048Y-13698476D01*
X-21030000Y-13708000D01*
X-21020476Y-13717524D01*
X-21010952Y-13736571D01*
X-21001429Y-13774667D01*
X-21001429Y-13822286D01*
X-21010952Y-13860381D01*
X-21020476Y-13879428D01*
X-21030000Y-13888952D01*
X-21049048Y-13898476D01*
X-21068095Y-13898476D01*
X-21087143Y-13888952D01*
X-21096667Y-13879428D01*
X-21106190Y-13860381D01*
X-21115714Y-13822286D01*
X-21115714Y-13774667D01*
X-21106190Y-13736571D01*
X-21096667Y-13717524D01*
X-21087143Y-13708000D01*
X-21068095Y-13698476D01*
X-20877619Y-13698476D02*
X-20858571Y-13698476D01*
X-20839524Y-13708000D01*
X-20830000Y-13717524D01*
X-20820476Y-13736571D01*
X-20810952Y-13774667D01*
X-20810952Y-13822286D01*
X-20820476Y-13860381D01*
X-20830000Y-13879428D01*
X-20839524Y-13888952D01*
X-20858571Y-13898476D01*
X-20877619Y-13898476D01*
X-20896667Y-13888952D01*
X-20906190Y-13879428D01*
X-20915714Y-13860381D01*
X-20925238Y-13822286D01*
X-20925238Y-13774667D01*
X-20915714Y-13736571D01*
X-20906190Y-13717524D01*
X-20896667Y-13708000D01*
X-20877619Y-13698476D01*
X-20725238Y-13898476D02*
X-20725238Y-13765143D01*
X-20725238Y-13784190D02*
X-20715714Y-13774667D01*
X-20696667Y-13765143D01*
X-20668095Y-13765143D01*
X-20649048Y-13774667D01*
X-20639524Y-13793714D01*
X-20639524Y-13898476D01*
X-20639524Y-13793714D02*
X-20630000Y-13774667D01*
X-20610952Y-13765143D01*
X-20582381Y-13765143D01*
X-20563333Y-13774667D01*
X-20553810Y-13793714D01*
X-20553810Y-13898476D01*
X-20458571Y-13898476D02*
X-20458571Y-13765143D01*
X-20458571Y-13784190D02*
X-20449048Y-13774667D01*
X-20430000Y-13765143D01*
X-20401429Y-13765143D01*
X-20382381Y-13774667D01*
X-20372857Y-13793714D01*
X-20372857Y-13898476D01*
X-20372857Y-13793714D02*
X-20363333Y-13774667D01*
X-20344286Y-13765143D01*
X-20315714Y-13765143D01*
X-20296667Y-13774667D01*
X-20287143Y-13793714D01*
X-20287143Y-13898476D01*
X-19896667Y-13688952D02*
X-20068095Y-13946095D01*
X-19639524Y-13698476D02*
X-19620476Y-13698476D01*
X-19601429Y-13708000D01*
X-19591905Y-13717524D01*
X-19582381Y-13736571D01*
X-19572857Y-13774667D01*
X-19572857Y-13822286D01*
X-19582381Y-13860381D01*
X-19591905Y-13879428D01*
X-19601429Y-13888952D01*
X-19620476Y-13898476D01*
X-19639524Y-13898476D01*
X-19658571Y-13888952D01*
X-19668095Y-13879428D01*
X-19677619Y-13860381D01*
X-19687143Y-13822286D01*
X-19687143Y-13774667D01*
X-19677619Y-13736571D01*
X-19668095Y-13717524D01*
X-19658571Y-13708000D01*
X-19639524Y-13698476D01*
X-19487143Y-13879428D02*
X-19477619Y-13888952D01*
X-19487143Y-13898476D01*
X-19496667Y-13888952D01*
X-19487143Y-13879428D01*
X-19487143Y-13898476D01*
X-19287143Y-13898476D02*
X-19401429Y-13898476D01*
X-19344286Y-13898476D02*
X-19344286Y-13698476D01*
X-19363333Y-13727048D01*
X-19382381Y-13746095D01*
X-19401429Y-13755619D01*
X-19096667Y-13898476D02*
X-19210952Y-13898476D01*
X-19153810Y-13898476D02*
X-19153810Y-13698476D01*
X-19172857Y-13727048D01*
X-19191905Y-13746095D01*
X-19210952Y-13755619D01*
X-18982381Y-13784190D02*
X-19001429Y-13774667D01*
X-19010952Y-13765143D01*
X-19020476Y-13746095D01*
X-19020476Y-13736571D01*
X-19010952Y-13717524D01*
X-19001429Y-13708000D01*
X-18982381Y-13698476D01*
X-18944286Y-13698476D01*
X-18925238Y-13708000D01*
X-18915714Y-13717524D01*
X-18906190Y-13736571D01*
X-18906190Y-13746095D01*
X-18915714Y-13765143D01*
X-18925238Y-13774667D01*
X-18944286Y-13784190D01*
X-18982381Y-13784190D01*
X-19001429Y-13793714D01*
X-19010952Y-13803238D01*
X-19020476Y-13822286D01*
X-19020476Y-13860381D01*
X-19010952Y-13879428D01*
X-19001429Y-13888952D01*
X-18982381Y-13898476D01*
X-18944286Y-13898476D01*
X-18925238Y-13888952D01*
X-18915714Y-13879428D01*
X-18906190Y-13860381D01*
X-18906190Y-13822286D01*
X-18915714Y-13803238D01*
X-18925238Y-13793714D01*
X-18944286Y-13784190D01*
X-18715714Y-13898476D02*
X-18830000Y-13898476D01*
X-18772857Y-13898476D02*
X-18772857Y-13698476D01*
X-18791905Y-13727048D01*
X-18810952Y-13746095D01*
X-18830000Y-13755619D01*
X-18639524Y-13698476D02*
X-18639524Y-13736571D01*
X-18563333Y-13698476D02*
X-18563333Y-13736571D01*
X-18268095Y-13974667D02*
X-18277619Y-13965143D01*
X-18296667Y-13936571D01*
X-18306190Y-13917524D01*
X-18315714Y-13888952D01*
X-18325238Y-13841333D01*
X-18325238Y-13803238D01*
X-18315714Y-13755619D01*
X-18306190Y-13727048D01*
X-18296667Y-13708000D01*
X-18277619Y-13679428D01*
X-18268095Y-13669905D01*
X-18106190Y-13765143D02*
X-18106190Y-13898476D01*
X-18153810Y-13688952D02*
X-18201429Y-13831809D01*
X-18077619Y-13831809D01*
X-17849048Y-13898476D02*
X-17849048Y-13698476D01*
X-17763333Y-13898476D02*
X-17763333Y-13793714D01*
X-17772857Y-13774667D01*
X-17791905Y-13765143D01*
X-17820476Y-13765143D01*
X-17839524Y-13774667D01*
X-17849048Y-13784190D01*
X-17639524Y-13898476D02*
X-17658571Y-13888952D01*
X-17668095Y-13879428D01*
X-17677619Y-13860381D01*
X-17677619Y-13803238D01*
X-17668095Y-13784190D01*
X-17658571Y-13774667D01*
X-17639524Y-13765143D01*
X-17610952Y-13765143D01*
X-17591905Y-13774667D01*
X-17582381Y-13784190D01*
X-17572857Y-13803238D01*
X-17572857Y-13860381D01*
X-17582381Y-13879428D01*
X-17591905Y-13888952D01*
X-17610952Y-13898476D01*
X-17639524Y-13898476D01*
X-17458571Y-13898476D02*
X-17477619Y-13888952D01*
X-17487143Y-13869905D01*
X-17487143Y-13698476D01*
X-17306190Y-13888952D02*
X-17325238Y-13898476D01*
X-17363333Y-13898476D01*
X-17382381Y-13888952D01*
X-17391905Y-13869905D01*
X-17391905Y-13793714D01*
X-17382381Y-13774667D01*
X-17363333Y-13765143D01*
X-17325238Y-13765143D01*
X-17306190Y-13774667D01*
X-17296667Y-13793714D01*
X-17296667Y-13812762D01*
X-17391905Y-13831809D01*
X-17220476Y-13888952D02*
X-17201429Y-13898476D01*
X-17163333Y-13898476D01*
X-17144286Y-13888952D01*
X-17134762Y-13869905D01*
X-17134762Y-13860381D01*
X-17144286Y-13841333D01*
X-17163333Y-13831809D01*
X-17191905Y-13831809D01*
X-17210952Y-13822286D01*
X-17220476Y-13803238D01*
X-17220476Y-13793714D01*
X-17210952Y-13774667D01*
X-17191905Y-13765143D01*
X-17163333Y-13765143D01*
X-17144286Y-13774667D01*
X-17068095Y-13974667D02*
X-17058571Y-13965143D01*
X-17039524Y-13936571D01*
X-17030000Y-13917524D01*
X-17020476Y-13888952D01*
X-17010952Y-13841333D01*
X-17010952Y-13803238D01*
X-17020476Y-13755619D01*
X-17030000Y-13727048D01*
X-17039524Y-13708000D01*
X-17058571Y-13679428D01*
X-17068095Y-13669905D01*
M02*
