%TF.GenerationSoftware,KiCad,Pcbnew,(6.0.8)*%
%TF.CreationDate,2023-03-03T00:40:04+05:30*%
%TF.ProjectId,STM32DryerPCB,53544d33-3244-4727-9965-725043422e6b,rev?*%
%TF.SameCoordinates,Original*%
%TF.FileFunction,Soldermask,Bot*%
%TF.FilePolarity,Negative*%
%FSLAX46Y46*%
G04 Gerber Fmt 4.6, Leading zero omitted, Abs format (unit mm)*
G04 Created by KiCad (PCBNEW (6.0.8)) date 2023-03-03 00:40:04*
%MOMM*%
%LPD*%
G01*
G04 APERTURE LIST*
G04 Aperture macros list*
%AMRoundRect*
0 Rectangle with rounded corners*
0 $1 Rounding radius*
0 $2 $3 $4 $5 $6 $7 $8 $9 X,Y pos of 4 corners*
0 Add a 4 corners polygon primitive as box body*
4,1,4,$2,$3,$4,$5,$6,$7,$8,$9,$2,$3,0*
0 Add four circle primitives for the rounded corners*
1,1,$1+$1,$2,$3*
1,1,$1+$1,$4,$5*
1,1,$1+$1,$6,$7*
1,1,$1+$1,$8,$9*
0 Add four rect primitives between the rounded corners*
20,1,$1+$1,$2,$3,$4,$5,0*
20,1,$1+$1,$4,$5,$6,$7,0*
20,1,$1+$1,$6,$7,$8,$9,0*
20,1,$1+$1,$8,$9,$2,$3,0*%
G04 Aperture macros list end*
%ADD10RoundRect,0.416667X-1.083333X-1.583333X1.083333X-1.583333X1.083333X1.583333X-1.083333X1.583333X0*%
%ADD11RoundRect,0.750000X-0.750000X-1.250000X0.750000X-1.250000X0.750000X1.250000X-0.750000X1.250000X0*%
%ADD12C,2.800000*%
%ADD13C,2.000000*%
%ADD14R,2.100000X2.100000*%
%ADD15C,2.100000*%
%ADD16R,1.600000X2.400000*%
%ADD17O,1.600000X2.400000*%
%ADD18C,6.000000*%
%ADD19R,2.000000X2.000000*%
%ADD20C,3.000000*%
%ADD21C,2.500000*%
%ADD22R,1.600000X1.600000*%
%ADD23C,1.600000*%
%ADD24C,2.200000*%
%ADD25R,1.700000X1.700000*%
%ADD26O,1.700000X1.700000*%
%ADD27RoundRect,1.050000X1.050000X-1.050000X1.050000X1.050000X-1.050000X1.050000X-1.050000X-1.050000X0*%
%ADD28RoundRect,0.800000X0.800000X-0.800000X0.800000X0.800000X-0.800000X0.800000X-0.800000X-0.800000X0*%
%ADD29C,4.200000*%
%ADD30C,3.200000*%
G04 APERTURE END LIST*
D10*
%TO.C,J613*%
X-181032500Y-9550000D03*
X-175952500Y-9550000D03*
D11*
X-170872500Y-9550000D03*
X-165792500Y-9550000D03*
X-160712500Y-9550000D03*
X-155632500Y-9550000D03*
%TD*%
D12*
%TO.C,C402*%
X-198450000Y-33650000D03*
X-198450000Y-18650000D03*
%TD*%
D13*
%TO.C,R307*%
X-147350000Y-91150000D03*
X-147350000Y-80990000D03*
%TD*%
%TO.C,R407*%
X-125970000Y-70950000D03*
X-136130000Y-70950000D03*
%TD*%
D14*
%TO.C,D408*%
X-123040000Y-66950000D03*
D15*
X-130660000Y-66950000D03*
%TD*%
D13*
%TO.C,R305*%
X-140650000Y-91150000D03*
X-140650000Y-80990000D03*
%TD*%
D16*
%TO.C,U1*%
X-182450000Y-92250000D03*
D17*
X-179910000Y-92250000D03*
X-177370000Y-92250000D03*
X-174830000Y-92250000D03*
X-172290000Y-92250000D03*
X-169750000Y-92250000D03*
X-167210000Y-92250000D03*
X-164670000Y-92250000D03*
X-164670000Y-84630000D03*
X-167210000Y-84630000D03*
X-169750000Y-84630000D03*
X-172290000Y-84630000D03*
X-174830000Y-84630000D03*
X-177370000Y-84630000D03*
X-179910000Y-84630000D03*
X-182450000Y-84630000D03*
%TD*%
D18*
%TO.C,H610*%
X-121850000Y-7550000D03*
%TD*%
D19*
%TO.C,D403*%
X-178175000Y-66750000D03*
D13*
X-180715000Y-66750000D03*
%TD*%
%TO.C,R308*%
X-150650000Y-91170000D03*
X-150650000Y-81010000D03*
%TD*%
D20*
%TO.C,K402*%
X-173950000Y-62550000D03*
D21*
X-167900000Y-60600000D03*
D20*
X-167900000Y-48400000D03*
X-179950000Y-48350000D03*
D21*
X-179900000Y-60600000D03*
%TD*%
D22*
%TO.C,C405*%
X-145055112Y-71550000D03*
D23*
X-142555112Y-71550000D03*
%TD*%
D14*
%TO.C,D402*%
X-190040000Y-66850000D03*
D15*
X-197660000Y-66850000D03*
%TD*%
D13*
%TO.C,R401*%
X-193170000Y-71150000D03*
X-203330000Y-71150000D03*
%TD*%
D20*
%TO.C,R406*%
X-145650000Y-34050000D03*
X-145650000Y-18810000D03*
%TD*%
D24*
%TO.C,RV401*%
X-195250000Y-39950000D03*
D13*
X-190250000Y-39950000D03*
%TD*%
D18*
%TO.C,H609*%
X-214850000Y-7550000D03*
%TD*%
D13*
%TO.C,R405*%
X-148370000Y-71050000D03*
X-158530000Y-71050000D03*
%TD*%
D19*
%TO.C,D401*%
X-200575000Y-66750000D03*
D13*
X-203115000Y-66750000D03*
%TD*%
D24*
%TO.C,RV402*%
X-172850000Y-39950000D03*
D13*
X-167850000Y-39950000D03*
%TD*%
D20*
%TO.C,K403*%
X-151750000Y-62550000D03*
D21*
X-145700000Y-60600000D03*
D20*
X-145700000Y-48400000D03*
X-157750000Y-48350000D03*
D21*
X-157700000Y-60600000D03*
%TD*%
D25*
%TO.C,J614*%
X-142850000Y-100950000D03*
D26*
X-145390000Y-100950000D03*
X-147930000Y-100950000D03*
X-150470000Y-100950000D03*
%TD*%
D20*
%TO.C,R404*%
X-167850000Y-34050000D03*
X-167850000Y-18810000D03*
%TD*%
%TO.C,K401*%
X-196250000Y-62550000D03*
D21*
X-190200000Y-60600000D03*
D20*
X-190200000Y-48400000D03*
X-202250000Y-48350000D03*
D21*
X-202200000Y-60600000D03*
%TD*%
D22*
%TO.C,C407*%
X-122655112Y-71450000D03*
D23*
X-120155112Y-71450000D03*
%TD*%
D13*
%TO.C,R306*%
X-143950000Y-91050000D03*
X-143950000Y-80890000D03*
%TD*%
D12*
%TO.C,C408*%
X-132050000Y-33650000D03*
X-132050000Y-18650000D03*
%TD*%
D22*
%TO.C,C403*%
X-167655112Y-71450000D03*
D23*
X-165155112Y-71450000D03*
%TD*%
D13*
%TO.C,R403*%
X-170770000Y-71050000D03*
X-180930000Y-71050000D03*
%TD*%
D20*
%TO.C,R402*%
X-190250000Y-34170000D03*
X-190250000Y-18930000D03*
%TD*%
D27*
%TO.C,F601*%
X-212350000Y-38005000D03*
D28*
X-212350000Y-31245000D03*
D29*
X-212350000Y-14895000D03*
D30*
X-212350000Y-21655000D03*
%TD*%
D19*
%TO.C,RN301*%
X-140350000Y-94750000D03*
D13*
X-142890000Y-94750000D03*
X-145430000Y-94750000D03*
X-147970000Y-94750000D03*
X-150510000Y-94750000D03*
%TD*%
D22*
%TO.C,C401*%
X-190055112Y-71450000D03*
D23*
X-187555112Y-71450000D03*
%TD*%
D25*
%TO.C,J612*%
X-157990000Y-100950000D03*
D26*
X-155450000Y-100950000D03*
%TD*%
D20*
%TO.C,K404*%
X-129450000Y-62550000D03*
D21*
X-123400000Y-60600000D03*
D20*
X-123400000Y-48400000D03*
X-135450000Y-48350000D03*
D21*
X-135400000Y-60600000D03*
%TD*%
D18*
%TO.C,H612*%
X-122050000Y-100550000D03*
%TD*%
D24*
%TO.C,RV404*%
X-128450000Y-39950000D03*
D13*
X-123450000Y-39950000D03*
%TD*%
D20*
%TO.C,R408*%
X-123450000Y-34050000D03*
X-123450000Y-18810000D03*
%TD*%
D19*
%TO.C,D407*%
X-133550000Y-66750000D03*
D13*
X-136090000Y-66750000D03*
%TD*%
D14*
%TO.C,D404*%
X-167640000Y-66850000D03*
D15*
X-175260000Y-66850000D03*
%TD*%
D18*
%TO.C,H611*%
X-214750000Y-100550000D03*
%TD*%
D12*
%TO.C,C406*%
X-154050000Y-33550000D03*
X-154050000Y-18550000D03*
%TD*%
D24*
%TO.C,RV403*%
X-150650000Y-39950000D03*
D13*
X-145650000Y-39950000D03*
%TD*%
D19*
%TO.C,D405*%
X-155750000Y-66750000D03*
D13*
X-158290000Y-66750000D03*
%TD*%
D19*
%TO.C,C601*%
X-160002651Y-93900000D03*
D13*
X-155002651Y-93900000D03*
%TD*%
D14*
%TO.C,D406*%
X-145140000Y-66850000D03*
D15*
X-152760000Y-66850000D03*
%TD*%
D12*
%TO.C,C404*%
X-176150000Y-33550000D03*
X-176150000Y-18550000D03*
%TD*%
M02*
