M48
; DRILL file {KiCad (6.0.8)} date Fri Mar  3 00:40:10 2023
; FORMAT={-:-/ absolute / metric / decimal}
; #@! TF.CreationDate,2023-03-03T00:40:10+05:30
; #@! TF.GenerationSoftware,Kicad,Pcbnew,(6.0.8)
; #@! TF.FileFunction,Plated,1,2,PTH
FMAT,2
METRIC
; #@! TA.AperFunction,Plated,PTH,ViaDrill
T1C0.400
; #@! TA.AperFunction,Plated,PTH,ComponentDrill
T2C0.800
; #@! TA.AperFunction,Plated,PTH,ComponentDrill
T3C0.900
; #@! TA.AperFunction,Plated,PTH,ComponentDrill
T4C1.000
; #@! TA.AperFunction,Plated,PTH,ComponentDrill
T5C1.100
; #@! TA.AperFunction,Plated,PTH,ComponentDrill
T6C1.200
; #@! TA.AperFunction,Plated,PTH,ComponentDrill
T7C1.300
; #@! TA.AperFunction,Plated,PTH,ComponentDrill
T8C1.700
; #@! TA.AperFunction,Plated,PTH,ComponentDrill
T9C1.800
; #@! TA.AperFunction,Plated,PTH,ComponentDrill
T10C2.500
; #@! TA.AperFunction,Plated,PTH,ComponentDrill
T11C3.000
%
G90
G05
T1
X-185.9Y-84.35
X-185.9Y-86.65
X-185.9Y-88.9
X-185.9Y-91.45
X-185.85Y-93.7
X-164.7Y-94.8
X-163.1Y-94.8
X-162.45Y-90.5
X-162.45Y-92.2
X-153.65Y-97.25
X-153.65Y-98.45
T2
X-190.055Y-71.45
X-187.555Y-71.45
X-182.45Y-84.63
X-182.45Y-92.25
X-179.91Y-84.63
X-179.91Y-92.25
X-177.37Y-84.63
X-177.37Y-92.25
X-174.83Y-84.63
X-174.83Y-92.25
X-172.29Y-84.63
X-172.29Y-92.25
X-169.75Y-84.63
X-169.75Y-92.25
X-167.655Y-71.45
X-167.21Y-84.63
X-167.21Y-92.25
X-165.155Y-71.45
X-164.67Y-84.63
X-164.67Y-92.25
X-145.055Y-71.55
X-142.555Y-71.55
X-122.655Y-71.45
X-120.155Y-71.45
T3
X-203.33Y-71.15
X-203.115Y-66.75
X-200.575Y-66.75
X-193.17Y-71.15
X-180.93Y-71.05
X-180.715Y-66.75
X-178.175Y-66.75
X-170.77Y-71.05
X-158.53Y-71.05
X-158.29Y-66.75
X-155.75Y-66.75
X-150.65Y-81.01
X-150.65Y-91.17
X-150.51Y-94.75
X-148.37Y-71.05
X-147.97Y-94.75
X-147.35Y-80.99
X-147.35Y-91.15
X-145.43Y-94.75
X-143.95Y-80.89
X-143.95Y-91.05
X-142.89Y-94.75
X-140.65Y-80.99
X-140.65Y-91.15
X-140.35Y-94.75
X-136.13Y-70.95
X-136.09Y-66.75
X-133.55Y-66.75
X-125.97Y-70.95
T4
X-202.2Y-60.6
X-190.2Y-60.6
X-179.9Y-60.6
X-167.9Y-60.6
X-160.003Y-93.9
X-157.99Y-100.95
X-157.7Y-60.6
X-155.45Y-100.95
X-155.003Y-93.9
X-150.47Y-100.95
X-147.93Y-100.95
X-145.7Y-60.6
X-145.39Y-100.95
X-142.85Y-100.95
X-135.4Y-60.6
X-123.4Y-60.6
T5
X-197.66Y-66.85
X-195.25Y-39.95
X-190.25Y-39.95
X-190.04Y-66.85
X-175.26Y-66.85
X-172.85Y-39.95
X-167.85Y-39.95
X-167.64Y-66.85
X-152.76Y-66.85
X-150.65Y-39.95
X-145.65Y-39.95
X-145.14Y-66.85
X-130.66Y-66.95
X-128.45Y-39.95
X-123.45Y-39.95
X-123.04Y-66.95
T6
X-198.45Y-18.65
X-198.45Y-33.65
X-190.25Y-18.93
X-190.25Y-34.17
X-176.15Y-18.55
X-176.15Y-33.55
X-167.85Y-18.81
X-167.85Y-34.05
X-154.05Y-18.55
X-154.05Y-33.55
X-145.65Y-18.81
X-145.65Y-34.05
X-132.05Y-18.65
X-132.05Y-33.65
X-123.45Y-18.81
X-123.45Y-34.05
T7
X-202.25Y-48.35
X-196.25Y-62.55
X-190.2Y-48.4
X-179.95Y-48.35
X-173.95Y-62.55
X-167.9Y-48.4
X-157.75Y-48.35
X-151.75Y-62.55
X-145.7Y-48.4
X-135.45Y-48.35
X-129.45Y-62.55
X-123.4Y-48.4
T8
X-181.032Y-9.55
X-175.952Y-9.55
X-170.873Y-9.55
X-165.792Y-9.55
X-160.713Y-9.55
X-155.632Y-9.55
T9
X-212.35Y-21.655
X-212.35Y-31.245
T10
X-212.35Y-14.895
X-212.35Y-38.005
T11
X-214.85Y-7.55
X-214.75Y-100.55
X-122.05Y-100.55
X-121.85Y-7.55
T0
M30
