%TF.GenerationSoftware,KiCad,Pcbnew,(6.0.8)*%
%TF.CreationDate,2023-03-03T00:40:12+05:30*%
%TF.ProjectId,STM32DryerPCB,53544d33-3244-4727-9965-725043422e6b,rev?*%
%TF.SameCoordinates,Original*%
%TF.FileFunction,Drillmap*%
%TF.FilePolarity,Positive*%
%FSLAX45Y45*%
G04 Gerber Fmt 4.5, Leading zero omitted, Abs format (unit mm)*
G04 Created by KiCad (PCBNEW (6.0.8)) date 2023-03-03 00:40:12*
%MOMM*%
%LPD*%
G01*
G04 APERTURE LIST*
%ADD10C,0.100000*%
%ADD11C,0.200000*%
G04 APERTURE END LIST*
D10*
X-14765000Y-5635000D02*
X-14765000Y-6125000D01*
X-16975000Y-3765000D02*
G75*
G03*
X-17095000Y-3765000I-60000J0D01*
G01*
X-17735000Y-6125000D02*
X-17735000Y-5545000D01*
X-12535000Y-4235000D02*
X-12535000Y-3765000D01*
X-14845000Y-5545000D02*
X-13275000Y-5545000D01*
X-12535000Y-5635000D02*
X-12535000Y-6125000D01*
X-15585000Y-6125000D02*
G75*
G03*
X-14765000Y-6125000I410000J0D01*
G01*
X-13275000Y-5545000D02*
X-13275000Y-6125000D01*
X-17805000Y-5635000D02*
X-19205000Y-5635000D01*
X-20045000Y-6125000D02*
G75*
G03*
X-19205000Y-6125000I420000J0D01*
G01*
X-20045000Y-5635000D02*
X-20415000Y-5635000D01*
X-15505000Y-5545000D02*
X-17055000Y-5545000D01*
X-12155000Y-5635000D02*
X-12535000Y-5635000D01*
X-17815000Y-5545000D02*
X-17735000Y-5545000D01*
X-17805000Y-6125000D02*
X-17805000Y-5635000D01*
X-17095000Y-4235000D02*
G75*
G03*
X-16975000Y-4235000I60000J0D01*
G01*
X-14845000Y-6125000D02*
X-14845000Y-5545000D01*
X-16535000Y-5635000D02*
X-15585000Y-5635000D01*
X-19965000Y-5545000D02*
X-19965000Y-6125000D01*
X-14755000Y-4225000D02*
X-14755000Y-3755000D01*
X-16975000Y-4235000D02*
X-16975000Y-3765000D01*
X-20045000Y-6125000D02*
X-20045000Y-5635000D01*
X-12535000Y-3765000D02*
G75*
G03*
X-12655000Y-3765000I-60000J0D01*
G01*
X-19335000Y-4235000D02*
G75*
G03*
X-19215000Y-4235000I60000J0D01*
G01*
X-16974881Y-6125000D02*
X-16974881Y-5635000D01*
X-17055000Y-5545000D02*
X-17055000Y-6125000D01*
X-13355000Y-5635000D02*
X-14765000Y-5635000D01*
X-13355000Y-6125000D02*
G75*
G03*
X-12535000Y-6125000I410000J0D01*
G01*
X-19965000Y-6125000D02*
G75*
G03*
X-19285000Y-6125000I340000J0D01*
G01*
X-15585000Y-5635000D02*
X-15585000Y-6125000D01*
X-12655000Y-3765000D02*
X-12655000Y-4235000D01*
X-19215000Y-3765000D02*
G75*
G03*
X-19335000Y-3765000I-60000J0D01*
G01*
X-13275000Y-6125000D02*
G75*
G03*
X-12615000Y-6125000I330000J-9461D01*
G01*
X-17735000Y-6125000D02*
G75*
G03*
X-17055000Y-6125000I340000J0D01*
G01*
X-14875000Y-3755000D02*
X-14875000Y-4225000D01*
X-14875000Y-4225000D02*
G75*
G03*
X-14755000Y-4225000I60000J0D01*
G01*
X-21835000Y-405000D02*
X-11835000Y-405000D01*
X-11835000Y-405000D02*
X-11835000Y-10405000D01*
X-11835000Y-10405000D02*
X-21835000Y-10405000D01*
X-21835000Y-10405000D02*
X-21835000Y-405000D01*
X-20415000Y-5545000D02*
X-19965000Y-5545000D01*
X-12155000Y-5545000D02*
X-12155000Y-5635000D01*
X-15505000Y-6125000D02*
X-15505000Y-5545000D01*
X-14755000Y-3755000D02*
G75*
G03*
X-14875000Y-3755000I-60000J0D01*
G01*
X-20415000Y-5635000D02*
X-20415000Y-5545000D01*
X-17805000Y-6125000D02*
G75*
G03*
X-16974881Y-6125000I415060J9127D01*
G01*
X-17095000Y-3765000D02*
X-17095000Y-4235000D01*
X-19205000Y-5635000D02*
X-19205000Y-6125000D01*
X-19285000Y-5545000D02*
X-17815000Y-5545000D01*
X-15505000Y-6125000D02*
G75*
G03*
X-14845000Y-6125000I330000J-20697D01*
G01*
X-19285000Y-6125000D02*
X-19285000Y-5545000D01*
X-19335000Y-3765000D02*
X-19335000Y-4235000D01*
X-13355000Y-6125000D02*
X-13355000Y-5635000D01*
X-12615000Y-5545000D02*
X-12155000Y-5545000D01*
X-16974881Y-5635000D02*
X-16535000Y-5635000D01*
X-12615000Y-6125000D02*
X-12615000Y-5545000D01*
X-19215000Y-4235000D02*
X-19215000Y-3765000D01*
X-12655000Y-4235000D02*
G75*
G03*
X-12535000Y-4235000I60000J0D01*
G01*
D11*
X-21582381Y-10720476D02*
X-21582381Y-10520476D01*
X-21534762Y-10520476D01*
X-21506190Y-10530000D01*
X-21487143Y-10549048D01*
X-21477619Y-10568095D01*
X-21468095Y-10606190D01*
X-21468095Y-10634762D01*
X-21477619Y-10672857D01*
X-21487143Y-10691905D01*
X-21506190Y-10710952D01*
X-21534762Y-10720476D01*
X-21582381Y-10720476D01*
X-21382381Y-10720476D02*
X-21382381Y-10587143D01*
X-21382381Y-10625238D02*
X-21372857Y-10606190D01*
X-21363333Y-10596667D01*
X-21344286Y-10587143D01*
X-21325238Y-10587143D01*
X-21258571Y-10720476D02*
X-21258571Y-10587143D01*
X-21258571Y-10520476D02*
X-21268095Y-10530000D01*
X-21258571Y-10539524D01*
X-21249048Y-10530000D01*
X-21258571Y-10520476D01*
X-21258571Y-10539524D01*
X-21134762Y-10720476D02*
X-21153810Y-10710952D01*
X-21163333Y-10691905D01*
X-21163333Y-10520476D01*
X-21030000Y-10720476D02*
X-21049048Y-10710952D01*
X-21058571Y-10691905D01*
X-21058571Y-10520476D01*
X-20801429Y-10720476D02*
X-20801429Y-10520476D01*
X-20734762Y-10663333D01*
X-20668095Y-10520476D01*
X-20668095Y-10720476D01*
X-20487143Y-10720476D02*
X-20487143Y-10615714D01*
X-20496667Y-10596667D01*
X-20515714Y-10587143D01*
X-20553810Y-10587143D01*
X-20572857Y-10596667D01*
X-20487143Y-10710952D02*
X-20506190Y-10720476D01*
X-20553810Y-10720476D01*
X-20572857Y-10710952D01*
X-20582381Y-10691905D01*
X-20582381Y-10672857D01*
X-20572857Y-10653810D01*
X-20553810Y-10644286D01*
X-20506190Y-10644286D01*
X-20487143Y-10634762D01*
X-20391905Y-10587143D02*
X-20391905Y-10787143D01*
X-20391905Y-10596667D02*
X-20372857Y-10587143D01*
X-20334762Y-10587143D01*
X-20315714Y-10596667D01*
X-20306190Y-10606190D01*
X-20296667Y-10625238D01*
X-20296667Y-10682381D01*
X-20306190Y-10701429D01*
X-20315714Y-10710952D01*
X-20334762Y-10720476D01*
X-20372857Y-10720476D01*
X-20391905Y-10710952D01*
X-20210952Y-10701429D02*
X-20201429Y-10710952D01*
X-20210952Y-10720476D01*
X-20220476Y-10710952D01*
X-20210952Y-10701429D01*
X-20210952Y-10720476D01*
X-20210952Y-10596667D02*
X-20201429Y-10606190D01*
X-20210952Y-10615714D01*
X-20220476Y-10606190D01*
X-20210952Y-10596667D01*
X-20210952Y-10615714D01*
M02*
