%TF.GenerationSoftware,KiCad,Pcbnew,(6.0.8)*%
%TF.CreationDate,2023-03-03T00:40:04+05:30*%
%TF.ProjectId,STM32DryerPCB,53544d33-3244-4727-9965-725043422e6b,rev?*%
%TF.SameCoordinates,Original*%
%TF.FileFunction,Copper,L2,Bot*%
%TF.FilePolarity,Positive*%
%FSLAX46Y46*%
G04 Gerber Fmt 4.6, Leading zero omitted, Abs format (unit mm)*
G04 Created by KiCad (PCBNEW (6.0.8)) date 2023-03-03 00:40:04*
%MOMM*%
%LPD*%
G01*
G04 APERTURE LIST*
G04 Aperture macros list*
%AMRoundRect*
0 Rectangle with rounded corners*
0 $1 Rounding radius*
0 $2 $3 $4 $5 $6 $7 $8 $9 X,Y pos of 4 corners*
0 Add a 4 corners polygon primitive as box body*
4,1,4,$2,$3,$4,$5,$6,$7,$8,$9,$2,$3,0*
0 Add four circle primitives for the rounded corners*
1,1,$1+$1,$2,$3*
1,1,$1+$1,$4,$5*
1,1,$1+$1,$6,$7*
1,1,$1+$1,$8,$9*
0 Add four rect primitives between the rounded corners*
20,1,$1+$1,$2,$3,$4,$5,0*
20,1,$1+$1,$4,$5,$6,$7,0*
20,1,$1+$1,$6,$7,$8,$9,0*
20,1,$1+$1,$8,$9,$2,$3,0*%
G04 Aperture macros list end*
%TA.AperFunction,ComponentPad*%
%ADD10RoundRect,0.416667X-1.083333X-1.583333X1.083333X-1.583333X1.083333X1.583333X-1.083333X1.583333X0*%
%TD*%
%TA.AperFunction,ComponentPad*%
%ADD11RoundRect,0.750000X-0.750000X-1.250000X0.750000X-1.250000X0.750000X1.250000X-0.750000X1.250000X0*%
%TD*%
%TA.AperFunction,ComponentPad*%
%ADD12C,2.800000*%
%TD*%
%TA.AperFunction,ComponentPad*%
%ADD13C,2.000000*%
%TD*%
%TA.AperFunction,ComponentPad*%
%ADD14R,2.100000X2.100000*%
%TD*%
%TA.AperFunction,ComponentPad*%
%ADD15C,2.100000*%
%TD*%
%TA.AperFunction,ComponentPad*%
%ADD16R,1.600000X2.400000*%
%TD*%
%TA.AperFunction,ComponentPad*%
%ADD17O,1.600000X2.400000*%
%TD*%
%TA.AperFunction,ComponentPad*%
%ADD18C,6.000000*%
%TD*%
%TA.AperFunction,ComponentPad*%
%ADD19R,2.000000X2.000000*%
%TD*%
%TA.AperFunction,ComponentPad*%
%ADD20C,3.000000*%
%TD*%
%TA.AperFunction,ComponentPad*%
%ADD21C,2.500000*%
%TD*%
%TA.AperFunction,ComponentPad*%
%ADD22R,1.600000X1.600000*%
%TD*%
%TA.AperFunction,ComponentPad*%
%ADD23C,1.600000*%
%TD*%
%TA.AperFunction,ComponentPad*%
%ADD24C,2.200000*%
%TD*%
%TA.AperFunction,ComponentPad*%
%ADD25R,1.700000X1.700000*%
%TD*%
%TA.AperFunction,ComponentPad*%
%ADD26O,1.700000X1.700000*%
%TD*%
%TA.AperFunction,ComponentPad*%
%ADD27RoundRect,1.050000X1.050000X-1.050000X1.050000X1.050000X-1.050000X1.050000X-1.050000X-1.050000X0*%
%TD*%
%TA.AperFunction,ComponentPad*%
%ADD28RoundRect,0.800000X0.800000X-0.800000X0.800000X0.800000X-0.800000X0.800000X-0.800000X-0.800000X0*%
%TD*%
%TA.AperFunction,ComponentPad*%
%ADD29C,4.200000*%
%TD*%
%TA.AperFunction,ComponentPad*%
%ADD30C,3.200000*%
%TD*%
%TA.AperFunction,ViaPad*%
%ADD31C,0.800000*%
%TD*%
%TA.AperFunction,Conductor*%
%ADD32C,1.000000*%
%TD*%
%TA.AperFunction,Conductor*%
%ADD33C,1.500000*%
%TD*%
%TA.AperFunction,Conductor*%
%ADD34C,2.000000*%
%TD*%
%TA.AperFunction,Conductor*%
%ADD35C,3.000000*%
%TD*%
G04 APERTURE END LIST*
D10*
%TO.P,J613,1,Pin_1*%
%TO.N,Net-(F601-Pad2)*%
X-181032500Y-9550000D03*
%TO.P,J613,2,Pin_2*%
%TO.N,Neutral*%
X-175952500Y-9550000D03*
D11*
%TO.P,J613,3,Pin_3*%
%TO.N,FAN_LINE*%
X-170872500Y-9550000D03*
%TO.P,J613,4,Pin_4*%
%TO.N,HEATER_LINE*%
X-165792500Y-9550000D03*
%TO.P,J613,5,Pin_5*%
%TO.N,DRUM_RIGHT_LINE*%
X-160712500Y-9550000D03*
%TO.P,J613,6,Pin_6*%
%TO.N,DRUM_LEFT_LINE*%
X-155632500Y-9550000D03*
%TD*%
D12*
%TO.P,C402,1*%
%TO.N,Net-(C402-Pad1)*%
X-198450000Y-33650000D03*
%TO.P,C402,2*%
%TO.N,Neutral*%
X-198450000Y-18650000D03*
%TD*%
D13*
%TO.P,R307,1*%
%TO.N,HEATER_ULNIN*%
X-147350000Y-91150000D03*
%TO.P,R307,2*%
%TO.N,/ULN2003/->HEATER*%
X-147350000Y-80990000D03*
%TD*%
%TO.P,R407,1*%
%TO.N,+5V*%
X-125970000Y-70950000D03*
%TO.P,R407,2*%
%TO.N,Net-(D407-Pad2)*%
X-136130000Y-70950000D03*
%TD*%
D14*
%TO.P,D408,1,K*%
%TO.N,+5V*%
X-123040000Y-66950000D03*
D15*
%TO.P,D408,2,A*%
%TO.N,#DRUM_LEFT*%
X-130660000Y-66950000D03*
%TD*%
D13*
%TO.P,R305,1*%
%TO.N,DLEFT_ULNIN*%
X-140650000Y-91150000D03*
%TO.P,R305,2*%
%TO.N,/ULN2003/->LEFT*%
X-140650000Y-80990000D03*
%TD*%
D16*
%TO.P,U1,1,I1*%
%TO.N,/ULN2003/->FAN*%
X-182450000Y-92250000D03*
D17*
%TO.P,U1,2,I2*%
%TO.N,/ULN2003/->HEATER*%
X-179910000Y-92250000D03*
%TO.P,U1,3,I3*%
%TO.N,/ULN2003/->RIGHT*%
X-177370000Y-92250000D03*
%TO.P,U1,4,I4*%
%TO.N,/ULN2003/->LEFT*%
X-174830000Y-92250000D03*
%TO.P,U1,5,I5*%
%TO.N,unconnected-(U1-Pad5)*%
X-172290000Y-92250000D03*
%TO.P,U1,6,I6*%
%TO.N,unconnected-(U1-Pad6)*%
X-169750000Y-92250000D03*
%TO.P,U1,7,I7*%
%TO.N,unconnected-(U1-Pad7)*%
X-167210000Y-92250000D03*
%TO.P,U1,8,GND*%
%TO.N,GND*%
X-164670000Y-92250000D03*
%TO.P,U1,9,COM*%
%TO.N,+5V*%
X-164670000Y-84630000D03*
%TO.P,U1,10,O7*%
%TO.N,unconnected-(U1-Pad10)*%
X-167210000Y-84630000D03*
%TO.P,U1,11,O6*%
%TO.N,unconnected-(U1-Pad11)*%
X-169750000Y-84630000D03*
%TO.P,U1,12,O5*%
%TO.N,unconnected-(U1-Pad12)*%
X-172290000Y-84630000D03*
%TO.P,U1,13,O4*%
%TO.N,#DRUM_LEFT*%
X-174830000Y-84630000D03*
%TO.P,U1,14,O3*%
%TO.N,#DRUM_RIGHT*%
X-177370000Y-84630000D03*
%TO.P,U1,15,O2*%
%TO.N,#HEATER*%
X-179910000Y-84630000D03*
%TO.P,U1,16,O1*%
%TO.N,#FAN*%
X-182450000Y-84630000D03*
%TD*%
D18*
%TO.P,H610,1*%
%TO.N,N/C*%
X-121850000Y-7550000D03*
%TD*%
D19*
%TO.P,D403,1,K*%
%TO.N,#HEATER*%
X-178175000Y-66750000D03*
D13*
%TO.P,D403,2,A*%
%TO.N,Net-(D403-Pad2)*%
X-180715000Y-66750000D03*
%TD*%
%TO.P,R308,1*%
%TO.N,FAN_ULNIN*%
X-150650000Y-91170000D03*
%TO.P,R308,2*%
%TO.N,/ULN2003/->FAN*%
X-150650000Y-81010000D03*
%TD*%
D20*
%TO.P,K402,1*%
%TO.N,LINE*%
X-173950000Y-62550000D03*
D21*
%TO.P,K402,2*%
%TO.N,+5V*%
X-167900000Y-60600000D03*
D20*
%TO.P,K402,3*%
%TO.N,HEATER_LINE*%
X-167900000Y-48400000D03*
%TO.P,K402,4*%
%TO.N,unconnected-(K402-Pad4)*%
X-179950000Y-48350000D03*
D21*
%TO.P,K402,5*%
%TO.N,#HEATER*%
X-179900000Y-60600000D03*
%TD*%
D22*
%TO.P,C405,1*%
%TO.N,+5V*%
X-145055112Y-71550000D03*
D23*
%TO.P,C405,2*%
%TO.N,GND*%
X-142555112Y-71550000D03*
%TD*%
D14*
%TO.P,D402,1,K*%
%TO.N,+5V*%
X-190040000Y-66850000D03*
D15*
%TO.P,D402,2,A*%
%TO.N,#FAN*%
X-197660000Y-66850000D03*
%TD*%
D13*
%TO.P,R401,1*%
%TO.N,+5V*%
X-193170000Y-71150000D03*
%TO.P,R401,2*%
%TO.N,Net-(D401-Pad2)*%
X-203330000Y-71150000D03*
%TD*%
D20*
%TO.P,R406,1*%
%TO.N,DRUM_RIGHT_LINE*%
X-145650000Y-34050000D03*
%TO.P,R406,2*%
%TO.N,Net-(C406-Pad1)*%
X-145650000Y-18810000D03*
%TD*%
D24*
%TO.P,RV401,1*%
%TO.N,LINE*%
X-195250000Y-39950000D03*
D13*
%TO.P,RV401,2*%
%TO.N,FAN_LINE*%
X-190250000Y-39950000D03*
%TD*%
D18*
%TO.P,H609,1*%
%TO.N,N/C*%
X-214850000Y-7550000D03*
%TD*%
D13*
%TO.P,R405,1*%
%TO.N,+5V*%
X-148370000Y-71050000D03*
%TO.P,R405,2*%
%TO.N,Net-(D405-Pad2)*%
X-158530000Y-71050000D03*
%TD*%
D19*
%TO.P,D401,1,K*%
%TO.N,#FAN*%
X-200575000Y-66750000D03*
D13*
%TO.P,D401,2,A*%
%TO.N,Net-(D401-Pad2)*%
X-203115000Y-66750000D03*
%TD*%
D24*
%TO.P,RV402,1*%
%TO.N,LINE*%
X-172850000Y-39950000D03*
D13*
%TO.P,RV402,2*%
%TO.N,HEATER_LINE*%
X-167850000Y-39950000D03*
%TD*%
D20*
%TO.P,K403,1*%
%TO.N,LINE*%
X-151750000Y-62550000D03*
D21*
%TO.P,K403,2*%
%TO.N,+5V*%
X-145700000Y-60600000D03*
D20*
%TO.P,K403,3*%
%TO.N,DRUM_RIGHT_LINE*%
X-145700000Y-48400000D03*
%TO.P,K403,4*%
%TO.N,unconnected-(K403-Pad4)*%
X-157750000Y-48350000D03*
D21*
%TO.P,K403,5*%
%TO.N,#DRUM_RIGHT*%
X-157700000Y-60600000D03*
%TD*%
D25*
%TO.P,J614,1,Pin_1*%
%TO.N,DLEFT_ULNIN*%
X-142850000Y-100950000D03*
D26*
%TO.P,J614,2,Pin_2*%
%TO.N,DRIGHT_ULNIN*%
X-145390000Y-100950000D03*
%TO.P,J614,3,Pin_3*%
%TO.N,HEATER_ULNIN*%
X-147930000Y-100950000D03*
%TO.P,J614,4,Pin_4*%
%TO.N,FAN_ULNIN*%
X-150470000Y-100950000D03*
%TD*%
D20*
%TO.P,R404,1*%
%TO.N,HEATER_LINE*%
X-167850000Y-34050000D03*
%TO.P,R404,2*%
%TO.N,Net-(C404-Pad1)*%
X-167850000Y-18810000D03*
%TD*%
%TO.P,K401,1*%
%TO.N,LINE*%
X-196250000Y-62550000D03*
D21*
%TO.P,K401,2*%
%TO.N,+5V*%
X-190200000Y-60600000D03*
D20*
%TO.P,K401,3*%
%TO.N,FAN_LINE*%
X-190200000Y-48400000D03*
%TO.P,K401,4*%
%TO.N,unconnected-(K401-Pad4)*%
X-202250000Y-48350000D03*
D21*
%TO.P,K401,5*%
%TO.N,#FAN*%
X-202200000Y-60600000D03*
%TD*%
D22*
%TO.P,C407,1*%
%TO.N,+5V*%
X-122655112Y-71450000D03*
D23*
%TO.P,C407,2*%
%TO.N,GND*%
X-120155112Y-71450000D03*
%TD*%
D13*
%TO.P,R306,1*%
%TO.N,DRIGHT_ULNIN*%
X-143950000Y-91050000D03*
%TO.P,R306,2*%
%TO.N,/ULN2003/->RIGHT*%
X-143950000Y-80890000D03*
%TD*%
D12*
%TO.P,C408,1*%
%TO.N,Net-(C408-Pad1)*%
X-132050000Y-33650000D03*
%TO.P,C408,2*%
%TO.N,Neutral*%
X-132050000Y-18650000D03*
%TD*%
D22*
%TO.P,C403,1*%
%TO.N,+5V*%
X-167655112Y-71450000D03*
D23*
%TO.P,C403,2*%
%TO.N,GND*%
X-165155112Y-71450000D03*
%TD*%
D13*
%TO.P,R403,1*%
%TO.N,+5V*%
X-170770000Y-71050000D03*
%TO.P,R403,2*%
%TO.N,Net-(D403-Pad2)*%
X-180930000Y-71050000D03*
%TD*%
D20*
%TO.P,R402,1*%
%TO.N,FAN_LINE*%
X-190250000Y-34170000D03*
%TO.P,R402,2*%
%TO.N,Net-(C402-Pad1)*%
X-190250000Y-18930000D03*
%TD*%
D27*
%TO.P,F601,1*%
%TO.N,LINE*%
X-212350000Y-38005000D03*
D28*
X-212350000Y-31245000D03*
D29*
%TO.P,F601,2*%
%TO.N,Net-(F601-Pad2)*%
X-212350000Y-14895000D03*
D30*
X-212350000Y-21655000D03*
%TD*%
D19*
%TO.P,RN301,1,common*%
%TO.N,GND*%
X-140350000Y-94750000D03*
D13*
%TO.P,RN301,2,R1*%
%TO.N,DLEFT_ULNIN*%
X-142890000Y-94750000D03*
%TO.P,RN301,3,R2*%
%TO.N,DRIGHT_ULNIN*%
X-145430000Y-94750000D03*
%TO.P,RN301,4,R3*%
%TO.N,HEATER_ULNIN*%
X-147970000Y-94750000D03*
%TO.P,RN301,5,R4*%
%TO.N,FAN_ULNIN*%
X-150510000Y-94750000D03*
%TD*%
D22*
%TO.P,C401,1*%
%TO.N,+5V*%
X-190055112Y-71450000D03*
D23*
%TO.P,C401,2*%
%TO.N,GND*%
X-187555112Y-71450000D03*
%TD*%
D25*
%TO.P,J612,1,Pin_1*%
%TO.N,+5V*%
X-157990000Y-100950000D03*
D26*
%TO.P,J612,2,Pin_2*%
%TO.N,GND*%
X-155450000Y-100950000D03*
%TD*%
D20*
%TO.P,K404,1*%
%TO.N,LINE*%
X-129450000Y-62550000D03*
D21*
%TO.P,K404,2*%
%TO.N,+5V*%
X-123400000Y-60600000D03*
D20*
%TO.P,K404,3*%
%TO.N,DRUM_LEFT_LINE*%
X-123400000Y-48400000D03*
%TO.P,K404,4*%
%TO.N,unconnected-(K404-Pad4)*%
X-135450000Y-48350000D03*
D21*
%TO.P,K404,5*%
%TO.N,#DRUM_LEFT*%
X-135400000Y-60600000D03*
%TD*%
D18*
%TO.P,H612,1*%
%TO.N,N/C*%
X-122050000Y-100550000D03*
%TD*%
D24*
%TO.P,RV404,1*%
%TO.N,LINE*%
X-128450000Y-39950000D03*
D13*
%TO.P,RV404,2*%
%TO.N,DRUM_LEFT_LINE*%
X-123450000Y-39950000D03*
%TD*%
D20*
%TO.P,R408,1*%
%TO.N,DRUM_LEFT_LINE*%
X-123450000Y-34050000D03*
%TO.P,R408,2*%
%TO.N,Net-(C408-Pad1)*%
X-123450000Y-18810000D03*
%TD*%
D19*
%TO.P,D407,1,K*%
%TO.N,#DRUM_LEFT*%
X-133550000Y-66750000D03*
D13*
%TO.P,D407,2,A*%
%TO.N,Net-(D407-Pad2)*%
X-136090000Y-66750000D03*
%TD*%
D14*
%TO.P,D404,1,K*%
%TO.N,+5V*%
X-167640000Y-66850000D03*
D15*
%TO.P,D404,2,A*%
%TO.N,#HEATER*%
X-175260000Y-66850000D03*
%TD*%
D18*
%TO.P,H611,1*%
%TO.N,N/C*%
X-214750000Y-100550000D03*
%TD*%
D12*
%TO.P,C406,1*%
%TO.N,Net-(C406-Pad1)*%
X-154050000Y-33550000D03*
%TO.P,C406,2*%
%TO.N,Neutral*%
X-154050000Y-18550000D03*
%TD*%
D24*
%TO.P,RV403,1*%
%TO.N,LINE*%
X-150650000Y-39950000D03*
D13*
%TO.P,RV403,2*%
%TO.N,DRUM_RIGHT_LINE*%
X-145650000Y-39950000D03*
%TD*%
D19*
%TO.P,D405,1,K*%
%TO.N,#DRUM_RIGHT*%
X-155750000Y-66750000D03*
D13*
%TO.P,D405,2,A*%
%TO.N,Net-(D405-Pad2)*%
X-158290000Y-66750000D03*
%TD*%
D19*
%TO.P,C601,1*%
%TO.N,+5V*%
X-160002651Y-93900000D03*
D13*
%TO.P,C601,2*%
%TO.N,GND*%
X-155002651Y-93900000D03*
%TD*%
D14*
%TO.P,D406,1,K*%
%TO.N,+5V*%
X-145140000Y-66850000D03*
D15*
%TO.P,D406,2,A*%
%TO.N,#DRUM_RIGHT*%
X-152760000Y-66850000D03*
%TD*%
D12*
%TO.P,C404,1*%
%TO.N,Net-(C404-Pad1)*%
X-176150000Y-33550000D03*
%TO.P,C404,2*%
%TO.N,Neutral*%
X-176150000Y-18550000D03*
%TD*%
D31*
%TO.N,GND*%
X-153650000Y-97250000D03*
X-153650000Y-98450000D03*
X-185900000Y-88900000D03*
X-162450000Y-92200000D03*
X-185900000Y-86650000D03*
X-163100000Y-94800000D03*
X-164700000Y-94800000D03*
X-185900000Y-91450000D03*
X-185900000Y-84350000D03*
X-162450000Y-90500000D03*
X-185850000Y-93700000D03*
%TD*%
D32*
%TO.N,+5V*%
X-169050000Y-76350000D02*
X-166350000Y-76350000D01*
D33*
X-122655112Y-71450000D02*
X-122655112Y-74744888D01*
X-190055112Y-71450000D02*
X-190055112Y-74944888D01*
X-167655112Y-71450000D02*
X-167655112Y-74955112D01*
D32*
X-164670000Y-79170000D02*
X-164670000Y-77870000D01*
D33*
X-160002651Y-93900000D02*
X-160002651Y-89297349D01*
D32*
X-147750000Y-76350000D02*
X-124250000Y-76350000D01*
X-188650000Y-76350000D02*
X-169050000Y-76350000D01*
X-164670000Y-77870000D02*
X-164670000Y-76430000D01*
X-164670000Y-77870000D02*
X-163150000Y-76350000D01*
D33*
X-188650000Y-76350000D02*
X-124250000Y-76350000D01*
D32*
X-164670000Y-79170000D02*
X-164670000Y-78030000D01*
X-160002651Y-93900000D02*
X-160002651Y-89797349D01*
D33*
X-190055112Y-74944888D02*
X-188650000Y-76350000D01*
D32*
X-163150000Y-76350000D02*
X-147750000Y-76350000D01*
X-147750000Y-76350000D02*
X-146450000Y-76350000D01*
D33*
X-164670000Y-84630000D02*
X-160002651Y-89297349D01*
X-167655112Y-74955112D02*
X-169050000Y-76350000D01*
X-145055112Y-74955112D02*
X-146450000Y-76350000D01*
D32*
X-164670000Y-84630000D02*
X-164670000Y-79170000D01*
D33*
X-145055112Y-71550000D02*
X-145055112Y-74955112D01*
X-122655112Y-74744888D02*
X-122650000Y-74750000D01*
X-124250000Y-76350000D02*
X-122650000Y-74750000D01*
X-164670000Y-76430000D02*
X-164750000Y-76350000D01*
D32*
X-166350000Y-76350000D02*
X-164750000Y-76350000D01*
D33*
X-164670000Y-84630000D02*
X-164670000Y-76430000D01*
D32*
X-164750000Y-76350000D02*
X-163150000Y-76350000D01*
X-164670000Y-78030000D02*
X-166350000Y-76350000D01*
D33*
X-160002651Y-89297349D02*
X-160002651Y-89797349D01*
D34*
%TO.N,Net-(C402-Pad1)*%
X-190250000Y-22850000D02*
X-190250000Y-18930000D01*
X-198450000Y-31050000D02*
X-190250000Y-22850000D01*
X-198450000Y-33650000D02*
X-198450000Y-31050000D01*
%TO.N,Net-(C404-Pad1)*%
X-167850000Y-22650000D02*
X-167850000Y-18810000D01*
X-176150000Y-33550000D02*
X-176150000Y-30950000D01*
X-176150000Y-30950000D02*
X-167850000Y-22650000D01*
%TO.N,Net-(C406-Pad1)*%
X-154050000Y-30150000D02*
X-145650000Y-21750000D01*
X-145650000Y-21750000D02*
X-145650000Y-18810000D01*
X-154050000Y-33550000D02*
X-154050000Y-30150000D01*
%TO.N,Net-(C408-Pad1)*%
X-132050000Y-33650000D02*
X-132050000Y-30650000D01*
X-123450000Y-22050000D02*
X-123450000Y-18810000D01*
X-132050000Y-30650000D02*
X-123450000Y-22050000D01*
%TO.N,LINE*%
X-195250000Y-39950000D02*
X-195250000Y-50750000D01*
X-150650000Y-39950000D02*
X-150650000Y-50750000D01*
X-153150000Y-53250000D02*
X-175450000Y-53250000D01*
X-197750000Y-53250000D02*
X-207750000Y-53250000D01*
X-172850000Y-50650000D02*
X-175450000Y-53250000D01*
X-128450000Y-50750000D02*
X-130950000Y-53250000D01*
X-212350000Y-48650000D02*
X-212350000Y-38005000D01*
X-150650000Y-50750000D02*
X-153150000Y-53250000D01*
X-128450000Y-39950000D02*
X-128450000Y-50750000D01*
X-175450000Y-53250000D02*
X-197750000Y-53250000D01*
X-207750000Y-53250000D02*
X-212350000Y-48650000D01*
X-172850000Y-39950000D02*
X-172850000Y-50650000D01*
X-130950000Y-53250000D02*
X-153150000Y-53250000D01*
X-195250000Y-50750000D02*
X-197750000Y-53250000D01*
X-212350000Y-31245000D02*
X-212350000Y-38005000D01*
%TO.N,Net-(F601-Pad2)*%
X-181032500Y-9550000D02*
X-207005000Y-9550000D01*
X-212350000Y-14895000D02*
X-212350000Y-21655000D01*
X-207005000Y-9550000D02*
X-212350000Y-14895000D01*
%TO.N,Neutral*%
X-180950000Y-14850000D02*
X-179450000Y-14850000D01*
X-174150000Y-14750000D02*
X-175550000Y-14750000D01*
X-175550000Y-14750000D02*
X-175952500Y-14347500D01*
D35*
X-175952500Y-12947500D02*
X-175952500Y-14347500D01*
D34*
X-179450000Y-14850000D02*
X-177855000Y-14850000D01*
D35*
X-175952500Y-14347500D02*
X-175952500Y-18352500D01*
D34*
X-176455000Y-14850000D02*
X-175952500Y-14347500D01*
X-197050000Y-14850000D02*
X-180950000Y-14850000D01*
X-155850000Y-14750000D02*
X-169750000Y-14750000D01*
X-169750000Y-14750000D02*
X-172350000Y-14750000D01*
X-176150000Y-18150000D02*
X-176150000Y-18550000D01*
D35*
X-175952500Y-18352500D02*
X-176150000Y-18550000D01*
D34*
X-198450000Y-16250000D02*
X-197050000Y-14850000D01*
X-132050000Y-16450000D02*
X-133650000Y-14850000D01*
X-179450000Y-14850000D02*
X-176150000Y-18150000D01*
X-198450000Y-18650000D02*
X-198450000Y-16250000D01*
X-154050000Y-18550000D02*
X-154050000Y-16550000D01*
X-154050000Y-18550000D02*
X-154050000Y-16250000D01*
X-133650000Y-14850000D02*
X-152650000Y-14850000D01*
D35*
X-175952500Y-9550000D02*
X-175952500Y-12947500D01*
D34*
X-174150000Y-14750000D02*
X-175952500Y-12947500D01*
X-152650000Y-14850000D02*
X-154050000Y-16250000D01*
X-172350000Y-14750000D02*
X-176150000Y-18550000D01*
X-180950000Y-14850000D02*
X-176455000Y-14850000D01*
X-154050000Y-16550000D02*
X-155850000Y-14750000D01*
X-177855000Y-14850000D02*
X-175952500Y-12947500D01*
X-169750000Y-14750000D02*
X-174150000Y-14750000D01*
X-132050000Y-18650000D02*
X-132050000Y-16450000D01*
%TD*%
%TA.AperFunction,Conductor*%
%TO.N,GND*%
G36*
X-204279107Y-65570002D02*
G01*
X-204232614Y-65623658D01*
X-204222510Y-65693932D01*
X-204251417Y-65757830D01*
X-204334649Y-65855283D01*
X-204339176Y-65860584D01*
X-204341755Y-65864792D01*
X-204341759Y-65864798D01*
X-204443671Y-66031104D01*
X-204463240Y-66063037D01*
X-204465133Y-66067607D01*
X-204465135Y-66067611D01*
X-204552211Y-66277833D01*
X-204554105Y-66282406D01*
X-204555260Y-66287218D01*
X-204599555Y-66471720D01*
X-204609535Y-66513289D01*
X-204628165Y-66750000D01*
X-204609535Y-66986711D01*
X-204554105Y-67217594D01*
X-204552212Y-67222165D01*
X-204552211Y-67222167D01*
X-204504370Y-67337665D01*
X-204463240Y-67436963D01*
X-204460654Y-67441183D01*
X-204341759Y-67635202D01*
X-204341755Y-67635208D01*
X-204339176Y-67639416D01*
X-204184969Y-67819969D01*
X-204004416Y-67974176D01*
X-204000208Y-67976755D01*
X-204000202Y-67976759D01*
X-203806183Y-68095654D01*
X-203801963Y-68098240D01*
X-203797393Y-68100133D01*
X-203797389Y-68100135D01*
X-203667609Y-68153891D01*
X-203582594Y-68189105D01*
X-203534651Y-68200615D01*
X-203356524Y-68243380D01*
X-203356518Y-68243381D01*
X-203351711Y-68244535D01*
X-203115000Y-68263165D01*
X-202878289Y-68244535D01*
X-202873482Y-68243381D01*
X-202873476Y-68243380D01*
X-202695349Y-68200615D01*
X-202647406Y-68189105D01*
X-202562391Y-68153891D01*
X-202432611Y-68100135D01*
X-202432607Y-68100133D01*
X-202428037Y-68098240D01*
X-202423817Y-68095654D01*
X-202229798Y-67976759D01*
X-202229792Y-67976755D01*
X-202225584Y-67974176D01*
X-202221822Y-67970963D01*
X-202221818Y-67970960D01*
X-202214639Y-67964829D01*
X-202149849Y-67935798D01*
X-202079649Y-67946403D01*
X-202027181Y-67992527D01*
X-202025615Y-67996705D01*
X-201938261Y-68113261D01*
X-201821705Y-68200615D01*
X-201685316Y-68251745D01*
X-201623134Y-68258500D01*
X-199526866Y-68258500D01*
X-199464684Y-68251745D01*
X-199328295Y-68200615D01*
X-199211739Y-68113261D01*
X-199124385Y-67996705D01*
X-199116907Y-67976759D01*
X-199079150Y-67876041D01*
X-199036509Y-67819276D01*
X-198969947Y-67794576D01*
X-198900598Y-67809783D01*
X-198865358Y-67838439D01*
X-198768648Y-67951670D01*
X-198768641Y-67951677D01*
X-198765433Y-67955433D01*
X-198761677Y-67958641D01*
X-198589048Y-68106081D01*
X-198578896Y-68114752D01*
X-198574673Y-68117340D01*
X-198574670Y-68117342D01*
X-198540474Y-68138297D01*
X-198369732Y-68242927D01*
X-198225033Y-68302864D01*
X-198147665Y-68334911D01*
X-198147663Y-68334912D01*
X-198143092Y-68336805D01*
X-198108003Y-68345229D01*
X-197909370Y-68392917D01*
X-197909364Y-68392918D01*
X-197904557Y-68394072D01*
X-197660000Y-68413319D01*
X-197415443Y-68394072D01*
X-197410636Y-68392918D01*
X-197410630Y-68392917D01*
X-197211997Y-68345229D01*
X-197176908Y-68336805D01*
X-197172337Y-68334912D01*
X-197172335Y-68334911D01*
X-197094967Y-68302864D01*
X-196950268Y-68242927D01*
X-196779526Y-68138297D01*
X-196745330Y-68117342D01*
X-196745327Y-68117340D01*
X-196741104Y-68114752D01*
X-196730951Y-68106081D01*
X-196558323Y-67958641D01*
X-196554567Y-67955433D01*
X-196506899Y-67899622D01*
X-196398465Y-67772663D01*
X-196398463Y-67772660D01*
X-196395248Y-67768896D01*
X-196267073Y-67559732D01*
X-196173195Y-67333092D01*
X-196115928Y-67094557D01*
X-196096681Y-66850000D01*
X-196115928Y-66605443D01*
X-196136867Y-66518223D01*
X-196172040Y-66371720D01*
X-196173195Y-66366908D01*
X-196267073Y-66140268D01*
X-196267049Y-66140258D01*
X-196279882Y-66071927D01*
X-196253183Y-66006142D01*
X-196195155Y-65965235D01*
X-196154511Y-65958500D01*
X-196038541Y-65958500D01*
X-195617326Y-65920590D01*
X-195201204Y-65845075D01*
X-194793527Y-65732563D01*
X-194653555Y-65680031D01*
X-194400215Y-65584952D01*
X-194400204Y-65584947D01*
X-194397576Y-65583961D01*
X-194352966Y-65562478D01*
X-194298297Y-65550000D01*
X-191716990Y-65550000D01*
X-191648869Y-65570002D01*
X-191602376Y-65623658D01*
X-191592901Y-65689558D01*
X-191591745Y-65689684D01*
X-191598500Y-65751866D01*
X-191598500Y-67948134D01*
X-191591745Y-68010316D01*
X-191540615Y-68146705D01*
X-191453261Y-68263261D01*
X-191336705Y-68350615D01*
X-191200316Y-68401745D01*
X-191138134Y-68408500D01*
X-188941866Y-68408500D01*
X-188879684Y-68401745D01*
X-188743295Y-68350615D01*
X-188626739Y-68263261D01*
X-188539385Y-68146705D01*
X-188488255Y-68010316D01*
X-188481500Y-67948134D01*
X-188481500Y-65751866D01*
X-188488255Y-65689684D01*
X-188484783Y-65689307D01*
X-188481854Y-65634142D01*
X-188440358Y-65576535D01*
X-188374304Y-65550507D01*
X-188363010Y-65550000D01*
X-181947228Y-65550000D01*
X-181879107Y-65570002D01*
X-181832614Y-65623658D01*
X-181822510Y-65693932D01*
X-181851417Y-65757830D01*
X-181934649Y-65855283D01*
X-181939176Y-65860584D01*
X-181941755Y-65864792D01*
X-181941759Y-65864798D01*
X-182043671Y-66031104D01*
X-182063240Y-66063037D01*
X-182065133Y-66067607D01*
X-182065135Y-66067611D01*
X-182152211Y-66277833D01*
X-182154105Y-66282406D01*
X-182155260Y-66287218D01*
X-182199555Y-66471720D01*
X-182209535Y-66513289D01*
X-182228165Y-66750000D01*
X-182209535Y-66986711D01*
X-182154105Y-67217594D01*
X-182152212Y-67222165D01*
X-182152211Y-67222167D01*
X-182104370Y-67337665D01*
X-182063240Y-67436963D01*
X-182060654Y-67441183D01*
X-181941759Y-67635202D01*
X-181941755Y-67635208D01*
X-181939176Y-67639416D01*
X-181784969Y-67819969D01*
X-181604416Y-67974176D01*
X-181600208Y-67976755D01*
X-181600202Y-67976759D01*
X-181406183Y-68095654D01*
X-181401963Y-68098240D01*
X-181397393Y-68100133D01*
X-181397389Y-68100135D01*
X-181267609Y-68153891D01*
X-181182594Y-68189105D01*
X-181134651Y-68200615D01*
X-180956524Y-68243380D01*
X-180956518Y-68243381D01*
X-180951711Y-68244535D01*
X-180715000Y-68263165D01*
X-180478289Y-68244535D01*
X-180473482Y-68243381D01*
X-180473476Y-68243380D01*
X-180295349Y-68200615D01*
X-180247406Y-68189105D01*
X-180162391Y-68153891D01*
X-180032611Y-68100135D01*
X-180032607Y-68100133D01*
X-180028037Y-68098240D01*
X-180023817Y-68095654D01*
X-179829798Y-67976759D01*
X-179829792Y-67976755D01*
X-179825584Y-67974176D01*
X-179821822Y-67970963D01*
X-179821818Y-67970960D01*
X-179814639Y-67964829D01*
X-179749849Y-67935798D01*
X-179679649Y-67946403D01*
X-179627181Y-67992527D01*
X-179625615Y-67996705D01*
X-179538261Y-68113261D01*
X-179421705Y-68200615D01*
X-179285316Y-68251745D01*
X-179223134Y-68258500D01*
X-177126866Y-68258500D01*
X-177064684Y-68251745D01*
X-176928295Y-68200615D01*
X-176811739Y-68113261D01*
X-176724385Y-67996705D01*
X-176716907Y-67976759D01*
X-176679150Y-67876041D01*
X-176636509Y-67819276D01*
X-176569947Y-67794576D01*
X-176500598Y-67809783D01*
X-176465358Y-67838439D01*
X-176368648Y-67951670D01*
X-176368641Y-67951677D01*
X-176365433Y-67955433D01*
X-176361677Y-67958641D01*
X-176189048Y-68106081D01*
X-176178896Y-68114752D01*
X-176174673Y-68117340D01*
X-176174670Y-68117342D01*
X-176140474Y-68138297D01*
X-175969732Y-68242927D01*
X-175825033Y-68302864D01*
X-175747665Y-68334911D01*
X-175747663Y-68334912D01*
X-175743092Y-68336805D01*
X-175708003Y-68345229D01*
X-175509370Y-68392917D01*
X-175509364Y-68392918D01*
X-175504557Y-68394072D01*
X-175260000Y-68413319D01*
X-175015443Y-68394072D01*
X-175010636Y-68392918D01*
X-175010630Y-68392917D01*
X-174811997Y-68345229D01*
X-174776908Y-68336805D01*
X-174772337Y-68334912D01*
X-174772335Y-68334911D01*
X-174694967Y-68302864D01*
X-174550268Y-68242927D01*
X-174379526Y-68138297D01*
X-174345330Y-68117342D01*
X-174345327Y-68117340D01*
X-174341104Y-68114752D01*
X-174330951Y-68106081D01*
X-174158323Y-67958641D01*
X-174154567Y-67955433D01*
X-174106899Y-67899622D01*
X-173998465Y-67772663D01*
X-173998463Y-67772660D01*
X-173995248Y-67768896D01*
X-173867073Y-67559732D01*
X-173773195Y-67333092D01*
X-173715928Y-67094557D01*
X-173696681Y-66850000D01*
X-173715928Y-66605443D01*
X-173736867Y-66518223D01*
X-173772040Y-66371720D01*
X-173773195Y-66366908D01*
X-173867073Y-66140268D01*
X-173945172Y-66012821D01*
X-173963710Y-65944288D01*
X-173942253Y-65876611D01*
X-173887614Y-65831278D01*
X-173843477Y-65821118D01*
X-173660311Y-65812768D01*
X-173474987Y-65804320D01*
X-173472155Y-65803931D01*
X-173472149Y-65803930D01*
X-173056938Y-65746831D01*
X-173056933Y-65746830D01*
X-173054089Y-65746439D01*
X-172640203Y-65650505D01*
X-172355009Y-65556352D01*
X-172315509Y-65550000D01*
X-169316990Y-65550000D01*
X-169248869Y-65570002D01*
X-169202376Y-65623658D01*
X-169192901Y-65689558D01*
X-169191745Y-65689684D01*
X-169198500Y-65751866D01*
X-169198500Y-67948134D01*
X-169191745Y-68010316D01*
X-169140615Y-68146705D01*
X-169053261Y-68263261D01*
X-168936705Y-68350615D01*
X-168800316Y-68401745D01*
X-168738134Y-68408500D01*
X-166541866Y-68408500D01*
X-166479684Y-68401745D01*
X-166343295Y-68350615D01*
X-166226739Y-68263261D01*
X-166139385Y-68146705D01*
X-166088255Y-68010316D01*
X-166081500Y-67948134D01*
X-166081500Y-65751866D01*
X-166088255Y-65689684D01*
X-166084783Y-65689307D01*
X-166081854Y-65634142D01*
X-166040358Y-65576535D01*
X-165974304Y-65550507D01*
X-165963010Y-65550000D01*
X-159522228Y-65550000D01*
X-159454107Y-65570002D01*
X-159407614Y-65623658D01*
X-159397510Y-65693932D01*
X-159426417Y-65757830D01*
X-159509649Y-65855283D01*
X-159514176Y-65860584D01*
X-159516755Y-65864792D01*
X-159516759Y-65864798D01*
X-159618671Y-66031104D01*
X-159638240Y-66063037D01*
X-159640133Y-66067607D01*
X-159640135Y-66067611D01*
X-159727211Y-66277833D01*
X-159729105Y-66282406D01*
X-159730260Y-66287218D01*
X-159774555Y-66471720D01*
X-159784535Y-66513289D01*
X-159803165Y-66750000D01*
X-159784535Y-66986711D01*
X-159729105Y-67217594D01*
X-159727212Y-67222165D01*
X-159727211Y-67222167D01*
X-159679370Y-67337665D01*
X-159638240Y-67436963D01*
X-159635654Y-67441183D01*
X-159516759Y-67635202D01*
X-159516755Y-67635208D01*
X-159514176Y-67639416D01*
X-159359969Y-67819969D01*
X-159179416Y-67974176D01*
X-159175208Y-67976755D01*
X-159175202Y-67976759D01*
X-158981183Y-68095654D01*
X-158976963Y-68098240D01*
X-158972393Y-68100133D01*
X-158972389Y-68100135D01*
X-158842609Y-68153891D01*
X-158757594Y-68189105D01*
X-158709651Y-68200615D01*
X-158531524Y-68243380D01*
X-158531518Y-68243381D01*
X-158526711Y-68244535D01*
X-158290000Y-68263165D01*
X-158053289Y-68244535D01*
X-158048482Y-68243381D01*
X-158048476Y-68243380D01*
X-157870349Y-68200615D01*
X-157822406Y-68189105D01*
X-157737391Y-68153891D01*
X-157607611Y-68100135D01*
X-157607607Y-68100133D01*
X-157603037Y-68098240D01*
X-157598817Y-68095654D01*
X-157404798Y-67976759D01*
X-157404792Y-67976755D01*
X-157400584Y-67974176D01*
X-157396822Y-67970963D01*
X-157396818Y-67970960D01*
X-157389639Y-67964829D01*
X-157324849Y-67935798D01*
X-157254649Y-67946403D01*
X-157202181Y-67992527D01*
X-157200615Y-67996705D01*
X-157113261Y-68113261D01*
X-156996705Y-68200615D01*
X-156860316Y-68251745D01*
X-156798134Y-68258500D01*
X-154701866Y-68258500D01*
X-154639684Y-68251745D01*
X-154503295Y-68200615D01*
X-154386739Y-68113261D01*
X-154299385Y-67996705D01*
X-154248255Y-67860316D01*
X-154245745Y-67837212D01*
X-154218502Y-67771650D01*
X-154160139Y-67731224D01*
X-154089185Y-67728770D01*
X-154024673Y-67768989D01*
X-153865433Y-67955433D01*
X-153861677Y-67958641D01*
X-153689048Y-68106081D01*
X-153678896Y-68114752D01*
X-153674673Y-68117340D01*
X-153674670Y-68117342D01*
X-153640474Y-68138297D01*
X-153469732Y-68242927D01*
X-153325033Y-68302864D01*
X-153247665Y-68334911D01*
X-153247663Y-68334912D01*
X-153243092Y-68336805D01*
X-153208003Y-68345229D01*
X-153009370Y-68392917D01*
X-153009364Y-68392918D01*
X-153004557Y-68394072D01*
X-152760000Y-68413319D01*
X-152515443Y-68394072D01*
X-152510636Y-68392918D01*
X-152510630Y-68392917D01*
X-152311997Y-68345229D01*
X-152276908Y-68336805D01*
X-152272337Y-68334912D01*
X-152272335Y-68334911D01*
X-152194967Y-68302864D01*
X-152050268Y-68242927D01*
X-151879526Y-68138297D01*
X-151845330Y-68117342D01*
X-151845327Y-68117340D01*
X-151841104Y-68114752D01*
X-151830951Y-68106081D01*
X-151658323Y-67958641D01*
X-151654567Y-67955433D01*
X-151606899Y-67899622D01*
X-151498465Y-67772663D01*
X-151498463Y-67772660D01*
X-151495248Y-67768896D01*
X-151367073Y-67559732D01*
X-151273195Y-67333092D01*
X-151215928Y-67094557D01*
X-151196681Y-66850000D01*
X-151215928Y-66605443D01*
X-151236867Y-66518223D01*
X-151272040Y-66371720D01*
X-151273195Y-66366908D01*
X-151367073Y-66140268D01*
X-151433822Y-66031343D01*
X-151452359Y-65962812D01*
X-151430903Y-65895136D01*
X-151376263Y-65849803D01*
X-151337683Y-65840018D01*
X-151130762Y-65821395D01*
X-150723479Y-65747484D01*
X-150324460Y-65637362D01*
X-150245903Y-65607879D01*
X-150113091Y-65558034D01*
X-150068818Y-65550000D01*
X-146816990Y-65550000D01*
X-146748869Y-65570002D01*
X-146702376Y-65623658D01*
X-146692901Y-65689558D01*
X-146691745Y-65689684D01*
X-146698500Y-65751866D01*
X-146698500Y-67948134D01*
X-146691745Y-68010316D01*
X-146640615Y-68146705D01*
X-146553261Y-68263261D01*
X-146436705Y-68350615D01*
X-146300316Y-68401745D01*
X-146238134Y-68408500D01*
X-144041866Y-68408500D01*
X-143979684Y-68401745D01*
X-143843295Y-68350615D01*
X-143726739Y-68263261D01*
X-143639385Y-68146705D01*
X-143588255Y-68010316D01*
X-143581500Y-67948134D01*
X-143581500Y-65751866D01*
X-143588255Y-65689684D01*
X-143584783Y-65689307D01*
X-143581854Y-65634142D01*
X-143540358Y-65576535D01*
X-143474304Y-65550507D01*
X-143463010Y-65550000D01*
X-137322228Y-65550000D01*
X-137254107Y-65570002D01*
X-137207614Y-65623658D01*
X-137197510Y-65693932D01*
X-137226417Y-65757830D01*
X-137309649Y-65855283D01*
X-137314176Y-65860584D01*
X-137316755Y-65864792D01*
X-137316759Y-65864798D01*
X-137418671Y-66031104D01*
X-137438240Y-66063037D01*
X-137440133Y-66067607D01*
X-137440135Y-66067611D01*
X-137527211Y-66277833D01*
X-137529105Y-66282406D01*
X-137530260Y-66287218D01*
X-137574555Y-66471720D01*
X-137584535Y-66513289D01*
X-137603165Y-66750000D01*
X-137584535Y-66986711D01*
X-137529105Y-67217594D01*
X-137527212Y-67222165D01*
X-137527211Y-67222167D01*
X-137479370Y-67337665D01*
X-137438240Y-67436963D01*
X-137435654Y-67441183D01*
X-137316759Y-67635202D01*
X-137316755Y-67635208D01*
X-137314176Y-67639416D01*
X-137159969Y-67819969D01*
X-136979416Y-67974176D01*
X-136975208Y-67976755D01*
X-136975202Y-67976759D01*
X-136781183Y-68095654D01*
X-136776963Y-68098240D01*
X-136772393Y-68100133D01*
X-136772389Y-68100135D01*
X-136642609Y-68153891D01*
X-136557594Y-68189105D01*
X-136509651Y-68200615D01*
X-136331524Y-68243380D01*
X-136331518Y-68243381D01*
X-136326711Y-68244535D01*
X-136090000Y-68263165D01*
X-135853289Y-68244535D01*
X-135848482Y-68243381D01*
X-135848476Y-68243380D01*
X-135670349Y-68200615D01*
X-135622406Y-68189105D01*
X-135537391Y-68153891D01*
X-135407611Y-68100135D01*
X-135407607Y-68100133D01*
X-135403037Y-68098240D01*
X-135398817Y-68095654D01*
X-135204798Y-67976759D01*
X-135204792Y-67976755D01*
X-135200584Y-67974176D01*
X-135196822Y-67970963D01*
X-135196818Y-67970960D01*
X-135189639Y-67964829D01*
X-135124849Y-67935798D01*
X-135054649Y-67946403D01*
X-135002181Y-67992527D01*
X-135000615Y-67996705D01*
X-134913261Y-68113261D01*
X-134796705Y-68200615D01*
X-134660316Y-68251745D01*
X-134598134Y-68258500D01*
X-132501866Y-68258500D01*
X-132439684Y-68251745D01*
X-132303295Y-68200615D01*
X-132186739Y-68113261D01*
X-132099385Y-67996705D01*
X-132096231Y-67988293D01*
X-132087827Y-67965877D01*
X-132045185Y-67909113D01*
X-131978623Y-67884414D01*
X-131909275Y-67899622D01*
X-131874036Y-67928276D01*
X-131765433Y-68055433D01*
X-131761677Y-68058641D01*
X-131595448Y-68200615D01*
X-131578896Y-68214752D01*
X-131574673Y-68217340D01*
X-131574670Y-68217342D01*
X-131532918Y-68242927D01*
X-131369732Y-68342927D01*
X-131249046Y-68392917D01*
X-131147665Y-68434911D01*
X-131147663Y-68434912D01*
X-131143092Y-68436805D01*
X-131108003Y-68445229D01*
X-130909370Y-68492917D01*
X-130909364Y-68492918D01*
X-130904557Y-68494072D01*
X-130660000Y-68513319D01*
X-130415443Y-68494072D01*
X-130410636Y-68492918D01*
X-130410630Y-68492917D01*
X-130211997Y-68445229D01*
X-130176908Y-68436805D01*
X-130172337Y-68434912D01*
X-130172335Y-68434911D01*
X-130070954Y-68392917D01*
X-129950268Y-68342927D01*
X-129787082Y-68242927D01*
X-129745330Y-68217342D01*
X-129745327Y-68217340D01*
X-129741104Y-68214752D01*
X-129724551Y-68200615D01*
X-129558323Y-68058641D01*
X-129554567Y-68055433D01*
X-129545415Y-68044717D01*
X-129398465Y-67872663D01*
X-129398463Y-67872660D01*
X-129395248Y-67868896D01*
X-129367231Y-67823177D01*
X-129310883Y-67731224D01*
X-129267073Y-67659732D01*
X-129173195Y-67433092D01*
X-129148032Y-67328280D01*
X-129117083Y-67199370D01*
X-129117082Y-67199364D01*
X-129115928Y-67194557D01*
X-129096681Y-66950000D01*
X-129115928Y-66705443D01*
X-129173195Y-66466908D01*
X-129267073Y-66240268D01*
X-129383465Y-66050333D01*
X-129402002Y-65981801D01*
X-129380545Y-65914124D01*
X-129325906Y-65868791D01*
X-129276031Y-65858500D01*
X-129243032Y-65858500D01*
X-128830762Y-65821395D01*
X-128423479Y-65747484D01*
X-128024460Y-65637362D01*
X-127945903Y-65607879D01*
X-127813091Y-65558034D01*
X-127768818Y-65550000D01*
X-124683690Y-65550000D01*
X-124615569Y-65570002D01*
X-124569076Y-65623658D01*
X-124558972Y-65693932D01*
X-124565708Y-65720229D01*
X-124588971Y-65782282D01*
X-124588973Y-65782288D01*
X-124591745Y-65789684D01*
X-124598500Y-65851866D01*
X-124598500Y-68048134D01*
X-124591745Y-68110316D01*
X-124540615Y-68246705D01*
X-124453261Y-68363261D01*
X-124336705Y-68450615D01*
X-124200316Y-68501745D01*
X-124138134Y-68508500D01*
X-121941866Y-68508500D01*
X-121879684Y-68501745D01*
X-121743295Y-68450615D01*
X-121626739Y-68363261D01*
X-121539385Y-68246705D01*
X-121488255Y-68110316D01*
X-121481500Y-68048134D01*
X-121481500Y-65851866D01*
X-121488255Y-65789684D01*
X-121491027Y-65782288D01*
X-121491029Y-65782282D01*
X-121514292Y-65720229D01*
X-121519475Y-65649422D01*
X-121485554Y-65587053D01*
X-121423298Y-65552924D01*
X-121396310Y-65550000D01*
X-118984500Y-65550000D01*
X-118916379Y-65570002D01*
X-118869886Y-65623658D01*
X-118858500Y-65676000D01*
X-118858500Y-70634094D01*
X-118878502Y-70702215D01*
X-118932158Y-70748708D01*
X-119002432Y-70758812D01*
X-119063171Y-70732516D01*
X-119068100Y-70728576D01*
X-119081546Y-70735644D01*
X-119783090Y-71437188D01*
X-119790704Y-71451132D01*
X-119790573Y-71452965D01*
X-119786322Y-71459580D01*
X-119080825Y-72165077D01*
X-119069050Y-72171507D01*
X-119061599Y-72165743D01*
X-118995481Y-72139880D01*
X-118925876Y-72153870D01*
X-118874884Y-72203269D01*
X-118858500Y-72265401D01*
X-118858500Y-98597228D01*
X-118878502Y-98665349D01*
X-118932158Y-98711842D01*
X-119002432Y-98721946D01*
X-119067012Y-98692452D01*
X-119090173Y-98665852D01*
X-119205866Y-98487700D01*
X-119207668Y-98484925D01*
X-119439098Y-98199133D01*
X-119699133Y-97939098D01*
X-119984925Y-97707668D01*
X-120293342Y-97507380D01*
X-120296276Y-97505885D01*
X-120296283Y-97505881D01*
X-120618066Y-97341925D01*
X-120621006Y-97340427D01*
X-120964326Y-97208639D01*
X-121319541Y-97113459D01*
X-121512558Y-97082888D01*
X-121679511Y-97056445D01*
X-121679519Y-97056444D01*
X-121682759Y-97055931D01*
X-122050000Y-97036685D01*
X-122417241Y-97055931D01*
X-122420481Y-97056444D01*
X-122420489Y-97056445D01*
X-122587442Y-97082888D01*
X-122780459Y-97113459D01*
X-123135674Y-97208639D01*
X-123478994Y-97340427D01*
X-123481934Y-97341925D01*
X-123803716Y-97505881D01*
X-123803723Y-97505885D01*
X-123806657Y-97507380D01*
X-124115075Y-97707668D01*
X-124400867Y-97939098D01*
X-124660902Y-98199133D01*
X-124892332Y-98484925D01*
X-124894134Y-98487700D01*
X-125046254Y-98721946D01*
X-125092620Y-98793343D01*
X-125259573Y-99121006D01*
X-125391361Y-99464326D01*
X-125486541Y-99819541D01*
X-125508350Y-99957240D01*
X-125534592Y-100122926D01*
X-125544069Y-100182759D01*
X-125563315Y-100550000D01*
X-125544069Y-100917241D01*
X-125486541Y-101280459D01*
X-125391361Y-101635674D01*
X-125390176Y-101638762D01*
X-125390175Y-101638764D01*
X-125340098Y-101769218D01*
X-125259573Y-101978994D01*
X-125258075Y-101981934D01*
X-125094194Y-102303567D01*
X-125092620Y-102306657D01*
X-125090824Y-102309423D01*
X-125090822Y-102309426D01*
X-125089311Y-102311753D01*
X-124892332Y-102615075D01*
X-124660902Y-102900867D01*
X-124400867Y-103160902D01*
X-124398292Y-103162987D01*
X-124207386Y-103317580D01*
X-124167034Y-103375994D01*
X-124164668Y-103446951D01*
X-124201041Y-103507923D01*
X-124264604Y-103539551D01*
X-124286680Y-103541500D01*
X-212513320Y-103541500D01*
X-212581441Y-103521498D01*
X-212627934Y-103467842D01*
X-212638038Y-103397568D01*
X-212608544Y-103332988D01*
X-212592614Y-103317580D01*
X-212401708Y-103162987D01*
X-212399133Y-103160902D01*
X-212139098Y-102900867D01*
X-211907668Y-102615075D01*
X-211710689Y-102311753D01*
X-211709178Y-102309426D01*
X-211709176Y-102309423D01*
X-211707380Y-102306657D01*
X-211705805Y-102303567D01*
X-211541925Y-101981934D01*
X-211540427Y-101978994D01*
X-211490195Y-101848134D01*
X-159348500Y-101848134D01*
X-159341745Y-101910316D01*
X-159290615Y-102046705D01*
X-159203261Y-102163261D01*
X-159086705Y-102250615D01*
X-158950316Y-102301745D01*
X-158888134Y-102308500D01*
X-157091866Y-102308500D01*
X-157029684Y-102301745D01*
X-156893295Y-102250615D01*
X-156776739Y-102163261D01*
X-156689385Y-102046705D01*
X-156645202Y-101928848D01*
X-156602560Y-101872084D01*
X-156535999Y-101847384D01*
X-156466650Y-101862592D01*
X-156431983Y-101890580D01*
X-156406782Y-101919673D01*
X-156399420Y-101926883D01*
X-156235566Y-102062916D01*
X-156227119Y-102068831D01*
X-156043244Y-102176279D01*
X-156033958Y-102180729D01*
X-155834999Y-102256703D01*
X-155825101Y-102259579D01*
X-155721750Y-102280606D01*
X-155707701Y-102279410D01*
X-155704000Y-102269065D01*
X-155704000Y-102268517D01*
X-155196000Y-102268517D01*
X-155191936Y-102282359D01*
X-155178522Y-102284393D01*
X-155171816Y-102283534D01*
X-155161738Y-102281392D01*
X-154957745Y-102220191D01*
X-154948158Y-102216433D01*
X-154756905Y-102122739D01*
X-154748055Y-102117464D01*
X-154574672Y-101993792D01*
X-154566800Y-101987139D01*
X-154415948Y-101836812D01*
X-154409270Y-101828965D01*
X-154284997Y-101656020D01*
X-154279687Y-101647183D01*
X-154185330Y-101456267D01*
X-154181531Y-101446672D01*
X-154119623Y-101242910D01*
X-154117445Y-101232837D01*
X-154116014Y-101221962D01*
X-154118225Y-101207778D01*
X-154131383Y-101204000D01*
X-155177885Y-101204000D01*
X-155193124Y-101208475D01*
X-155194329Y-101209865D01*
X-155196000Y-101217548D01*
X-155196000Y-102268517D01*
X-155704000Y-102268517D01*
X-155704000Y-100916695D01*
X-151832749Y-100916695D01*
X-151819890Y-101139715D01*
X-151818753Y-101144761D01*
X-151818752Y-101144767D01*
X-151805403Y-101204000D01*
X-151770778Y-101357639D01*
X-151686734Y-101564616D01*
X-151649315Y-101625678D01*
X-151572709Y-101750688D01*
X-151570013Y-101755088D01*
X-151423750Y-101923938D01*
X-151251874Y-102066632D01*
X-151059000Y-102179338D01*
X-150850308Y-102259030D01*
X-150845240Y-102260061D01*
X-150845237Y-102260062D01*
X-150750138Y-102279410D01*
X-150631403Y-102303567D01*
X-150626228Y-102303757D01*
X-150626226Y-102303757D01*
X-150413327Y-102311564D01*
X-150413323Y-102311564D01*
X-150408163Y-102311753D01*
X-150403043Y-102311097D01*
X-150403041Y-102311097D01*
X-150191712Y-102284025D01*
X-150191711Y-102284025D01*
X-150186584Y-102283368D01*
X-150181634Y-102281883D01*
X-149977571Y-102220661D01*
X-149977566Y-102220659D01*
X-149972616Y-102219174D01*
X-149772006Y-102120896D01*
X-149590140Y-101991173D01*
X-149580868Y-101981934D01*
X-149489195Y-101890580D01*
X-149431904Y-101833489D01*
X-149372406Y-101750689D01*
X-149301547Y-101652077D01*
X-149300224Y-101653028D01*
X-149253355Y-101609857D01*
X-149183420Y-101597625D01*
X-149117974Y-101625144D01*
X-149090125Y-101656994D01*
X-149030013Y-101755088D01*
X-148883750Y-101923938D01*
X-148711874Y-102066632D01*
X-148519000Y-102179338D01*
X-148310308Y-102259030D01*
X-148305240Y-102260061D01*
X-148305237Y-102260062D01*
X-148210138Y-102279410D01*
X-148091403Y-102303567D01*
X-148086228Y-102303757D01*
X-148086226Y-102303757D01*
X-147873327Y-102311564D01*
X-147873323Y-102311564D01*
X-147868163Y-102311753D01*
X-147863043Y-102311097D01*
X-147863041Y-102311097D01*
X-147651712Y-102284025D01*
X-147651711Y-102284025D01*
X-147646584Y-102283368D01*
X-147641634Y-102281883D01*
X-147437571Y-102220661D01*
X-147437566Y-102220659D01*
X-147432616Y-102219174D01*
X-147232006Y-102120896D01*
X-147050140Y-101991173D01*
X-147040868Y-101981934D01*
X-146949195Y-101890580D01*
X-146891904Y-101833489D01*
X-146832406Y-101750689D01*
X-146761547Y-101652077D01*
X-146760224Y-101653028D01*
X-146713355Y-101609857D01*
X-146643420Y-101597625D01*
X-146577974Y-101625144D01*
X-146550125Y-101656994D01*
X-146490013Y-101755088D01*
X-146343750Y-101923938D01*
X-146171874Y-102066632D01*
X-145979000Y-102179338D01*
X-145770308Y-102259030D01*
X-145765240Y-102260061D01*
X-145765237Y-102260062D01*
X-145670138Y-102279410D01*
X-145551403Y-102303567D01*
X-145546228Y-102303757D01*
X-145546226Y-102303757D01*
X-145333327Y-102311564D01*
X-145333323Y-102311564D01*
X-145328163Y-102311753D01*
X-145323043Y-102311097D01*
X-145323041Y-102311097D01*
X-145111712Y-102284025D01*
X-145111711Y-102284025D01*
X-145106584Y-102283368D01*
X-145101634Y-102281883D01*
X-144897571Y-102220661D01*
X-144897566Y-102220659D01*
X-144892616Y-102219174D01*
X-144692006Y-102120896D01*
X-144510140Y-101991173D01*
X-144401909Y-101883319D01*
X-144339538Y-101849404D01*
X-144268732Y-101854592D01*
X-144211970Y-101897238D01*
X-144194988Y-101928341D01*
X-144150615Y-102046705D01*
X-144063261Y-102163261D01*
X-143946705Y-102250615D01*
X-143810316Y-102301745D01*
X-143748134Y-102308500D01*
X-141951866Y-102308500D01*
X-141889684Y-102301745D01*
X-141753295Y-102250615D01*
X-141636739Y-102163261D01*
X-141549385Y-102046705D01*
X-141498255Y-101910316D01*
X-141491500Y-101848134D01*
X-141491500Y-100051866D01*
X-141498255Y-99989684D01*
X-141549385Y-99853295D01*
X-141636739Y-99736739D01*
X-141753295Y-99649385D01*
X-141889684Y-99598255D01*
X-141951866Y-99591500D01*
X-143748134Y-99591500D01*
X-143810316Y-99598255D01*
X-143946705Y-99649385D01*
X-144063261Y-99736739D01*
X-144150615Y-99853295D01*
X-144153767Y-99861703D01*
X-144195081Y-99971907D01*
X-144237723Y-100028671D01*
X-144304284Y-100053371D01*
X-144373633Y-100038163D01*
X-144406257Y-100012476D01*
X-144456849Y-99956875D01*
X-144456858Y-99956866D01*
X-144460330Y-99953051D01*
X-144464381Y-99949852D01*
X-144464385Y-99949848D01*
X-144631586Y-99817800D01*
X-144631590Y-99817798D01*
X-144635641Y-99814598D01*
X-144671972Y-99794542D01*
X-144687864Y-99785769D01*
X-144831211Y-99706638D01*
X-144836080Y-99704914D01*
X-144836084Y-99704912D01*
X-145036913Y-99633795D01*
X-145036917Y-99633794D01*
X-145041788Y-99632069D01*
X-145046881Y-99631162D01*
X-145046884Y-99631161D01*
X-145256627Y-99593800D01*
X-145256633Y-99593799D01*
X-145261716Y-99592894D01*
X-145335548Y-99591992D01*
X-145479919Y-99590228D01*
X-145479921Y-99590228D01*
X-145485089Y-99590165D01*
X-145705909Y-99623955D01*
X-145918244Y-99693357D01*
X-146116393Y-99796507D01*
X-146120526Y-99799610D01*
X-146120529Y-99799612D01*
X-146290900Y-99927530D01*
X-146295035Y-99930635D01*
X-146320459Y-99957240D01*
X-146388720Y-100028671D01*
X-146449371Y-100092138D01*
X-146556799Y-100249621D01*
X-146611707Y-100294621D01*
X-146682232Y-100302792D01*
X-146745979Y-100271538D01*
X-146766676Y-100247054D01*
X-146847178Y-100122617D01*
X-146847180Y-100122614D01*
X-146849986Y-100118277D01*
X-147000330Y-99953051D01*
X-147004381Y-99949852D01*
X-147004385Y-99949848D01*
X-147171586Y-99817800D01*
X-147171590Y-99817798D01*
X-147175641Y-99814598D01*
X-147211972Y-99794542D01*
X-147227864Y-99785769D01*
X-147371211Y-99706638D01*
X-147376080Y-99704914D01*
X-147376084Y-99704912D01*
X-147576913Y-99633795D01*
X-147576917Y-99633794D01*
X-147581788Y-99632069D01*
X-147586881Y-99631162D01*
X-147586884Y-99631161D01*
X-147796627Y-99593800D01*
X-147796633Y-99593799D01*
X-147801716Y-99592894D01*
X-147875548Y-99591992D01*
X-148019919Y-99590228D01*
X-148019921Y-99590228D01*
X-148025089Y-99590165D01*
X-148245909Y-99623955D01*
X-148458244Y-99693357D01*
X-148656393Y-99796507D01*
X-148660526Y-99799610D01*
X-148660529Y-99799612D01*
X-148830900Y-99927530D01*
X-148835035Y-99930635D01*
X-148860459Y-99957240D01*
X-148928720Y-100028671D01*
X-148989371Y-100092138D01*
X-149096799Y-100249621D01*
X-149151707Y-100294621D01*
X-149222232Y-100302792D01*
X-149285979Y-100271538D01*
X-149306676Y-100247054D01*
X-149387178Y-100122617D01*
X-149387180Y-100122614D01*
X-149389986Y-100118277D01*
X-149540330Y-99953051D01*
X-149544381Y-99949852D01*
X-149544385Y-99949848D01*
X-149711586Y-99817800D01*
X-149711590Y-99817798D01*
X-149715641Y-99814598D01*
X-149751972Y-99794542D01*
X-149767864Y-99785769D01*
X-149911211Y-99706638D01*
X-149916080Y-99704914D01*
X-149916084Y-99704912D01*
X-150116913Y-99633795D01*
X-150116917Y-99633794D01*
X-150121788Y-99632069D01*
X-150126881Y-99631162D01*
X-150126884Y-99631161D01*
X-150336627Y-99593800D01*
X-150336633Y-99593799D01*
X-150341716Y-99592894D01*
X-150415548Y-99591992D01*
X-150559919Y-99590228D01*
X-150559921Y-99590228D01*
X-150565089Y-99590165D01*
X-150785909Y-99623955D01*
X-150998244Y-99693357D01*
X-151196393Y-99796507D01*
X-151200526Y-99799610D01*
X-151200529Y-99799612D01*
X-151370900Y-99927530D01*
X-151375035Y-99930635D01*
X-151400459Y-99957240D01*
X-151468720Y-100028671D01*
X-151529371Y-100092138D01*
X-151655257Y-100276680D01*
X-151749312Y-100479305D01*
X-151809011Y-100694570D01*
X-151832749Y-100916695D01*
X-155704000Y-100916695D01*
X-155704000Y-100677885D01*
X-155196000Y-100677885D01*
X-155191525Y-100693124D01*
X-155190135Y-100694329D01*
X-155182452Y-100696000D01*
X-154131656Y-100696000D01*
X-154118125Y-100692027D01*
X-154116820Y-100682947D01*
X-154158786Y-100515875D01*
X-154162106Y-100506124D01*
X-154247028Y-100310814D01*
X-154251895Y-100301739D01*
X-154367574Y-100122926D01*
X-154373864Y-100114757D01*
X-154517194Y-99957240D01*
X-154524727Y-99950215D01*
X-154691861Y-99818222D01*
X-154700448Y-99812517D01*
X-154886883Y-99709599D01*
X-154896295Y-99705369D01*
X-155097041Y-99634280D01*
X-155107012Y-99631646D01*
X-155178163Y-99618972D01*
X-155191460Y-99620432D01*
X-155196000Y-99634989D01*
X-155196000Y-100677885D01*
X-155704000Y-100677885D01*
X-155704000Y-99633102D01*
X-155707918Y-99619758D01*
X-155722194Y-99617771D01*
X-155760676Y-99623660D01*
X-155770712Y-99626051D01*
X-155973132Y-99692212D01*
X-155982641Y-99696209D01*
X-156171537Y-99794542D01*
X-156180262Y-99800036D01*
X-156350567Y-99927905D01*
X-156358274Y-99934748D01*
X-156435522Y-100015584D01*
X-156497046Y-100051014D01*
X-156567958Y-100047557D01*
X-156625745Y-100006311D01*
X-156644598Y-99972763D01*
X-156686233Y-99861703D01*
X-156689385Y-99853295D01*
X-156776739Y-99736739D01*
X-156893295Y-99649385D01*
X-157029684Y-99598255D01*
X-157091866Y-99591500D01*
X-158888134Y-99591500D01*
X-158950316Y-99598255D01*
X-159086705Y-99649385D01*
X-159203261Y-99736739D01*
X-159290615Y-99853295D01*
X-159341745Y-99989684D01*
X-159348500Y-100051866D01*
X-159348500Y-101848134D01*
X-211490195Y-101848134D01*
X-211459902Y-101769218D01*
X-211409825Y-101638764D01*
X-211409824Y-101638762D01*
X-211408639Y-101635674D01*
X-211313459Y-101280459D01*
X-211255931Y-100917241D01*
X-211236685Y-100550000D01*
X-211255931Y-100182759D01*
X-211265407Y-100122926D01*
X-211291650Y-99957240D01*
X-211313459Y-99819541D01*
X-211408639Y-99464326D01*
X-211540427Y-99121006D01*
X-211707380Y-98793343D01*
X-211753745Y-98721946D01*
X-211905866Y-98487700D01*
X-211907668Y-98484925D01*
X-212139098Y-98199133D01*
X-212399133Y-97939098D01*
X-212684925Y-97707668D01*
X-212993342Y-97507380D01*
X-212996276Y-97505885D01*
X-212996283Y-97505881D01*
X-213318066Y-97341925D01*
X-213321006Y-97340427D01*
X-213664326Y-97208639D01*
X-214019541Y-97113459D01*
X-214212558Y-97082888D01*
X-214379511Y-97056445D01*
X-214379519Y-97056444D01*
X-214382759Y-97055931D01*
X-214750000Y-97036685D01*
X-215117241Y-97055931D01*
X-215120481Y-97056444D01*
X-215120489Y-97056445D01*
X-215287442Y-97082888D01*
X-215480459Y-97113459D01*
X-215835674Y-97208639D01*
X-216178994Y-97340427D01*
X-216181934Y-97341925D01*
X-216503716Y-97505881D01*
X-216503723Y-97505885D01*
X-216506657Y-97507380D01*
X-216815075Y-97707668D01*
X-217100867Y-97939098D01*
X-217360902Y-98199133D01*
X-217592332Y-98484925D01*
X-217594134Y-98487700D01*
X-217609827Y-98511865D01*
X-217663704Y-98558102D01*
X-217734025Y-98567872D01*
X-217798465Y-98538072D01*
X-217836564Y-98478164D01*
X-217841500Y-98443241D01*
X-217841500Y-93498134D01*
X-183758500Y-93498134D01*
X-183751745Y-93560316D01*
X-183700615Y-93696705D01*
X-183613261Y-93813261D01*
X-183496705Y-93900615D01*
X-183360316Y-93951745D01*
X-183298134Y-93958500D01*
X-181601866Y-93958500D01*
X-181539684Y-93951745D01*
X-181403295Y-93900615D01*
X-181286739Y-93813261D01*
X-181199385Y-93696705D01*
X-181148255Y-93560316D01*
X-181147083Y-93549526D01*
X-181146197Y-93547394D01*
X-181145575Y-93544778D01*
X-181145152Y-93544879D01*
X-181119845Y-93483965D01*
X-181061483Y-93443537D01*
X-180990529Y-93441078D01*
X-180929510Y-93477371D01*
X-180922511Y-93486031D01*
X-180919357Y-93489789D01*
X-180916198Y-93494300D01*
X-180754300Y-93656198D01*
X-180749792Y-93659355D01*
X-180749789Y-93659357D01*
X-180686188Y-93703891D01*
X-180566749Y-93787523D01*
X-180561767Y-93789846D01*
X-180561762Y-93789849D01*
X-180365235Y-93881490D01*
X-180359243Y-93884284D01*
X-180353935Y-93885706D01*
X-180353933Y-93885707D01*
X-180143402Y-93942119D01*
X-180143400Y-93942119D01*
X-180138087Y-93943543D01*
X-179910000Y-93963498D01*
X-179681913Y-93943543D01*
X-179676600Y-93942119D01*
X-179676598Y-93942119D01*
X-179466067Y-93885707D01*
X-179466065Y-93885706D01*
X-179460757Y-93884284D01*
X-179454765Y-93881490D01*
X-179258238Y-93789849D01*
X-179258233Y-93789846D01*
X-179253251Y-93787523D01*
X-179133812Y-93703891D01*
X-179070211Y-93659357D01*
X-179070208Y-93659355D01*
X-179065700Y-93656198D01*
X-178903802Y-93494300D01*
X-178772477Y-93306749D01*
X-178770154Y-93301767D01*
X-178770151Y-93301762D01*
X-178754195Y-93267543D01*
X-178707278Y-93214258D01*
X-178639001Y-93194797D01*
X-178571041Y-93215339D01*
X-178525805Y-93267543D01*
X-178509849Y-93301762D01*
X-178509846Y-93301767D01*
X-178507523Y-93306749D01*
X-178376198Y-93494300D01*
X-178214300Y-93656198D01*
X-178209792Y-93659355D01*
X-178209789Y-93659357D01*
X-178146188Y-93703891D01*
X-178026749Y-93787523D01*
X-178021767Y-93789846D01*
X-178021762Y-93789849D01*
X-177825235Y-93881490D01*
X-177819243Y-93884284D01*
X-177813935Y-93885706D01*
X-177813933Y-93885707D01*
X-177603402Y-93942119D01*
X-177603400Y-93942119D01*
X-177598087Y-93943543D01*
X-177370000Y-93963498D01*
X-177141913Y-93943543D01*
X-177136600Y-93942119D01*
X-177136598Y-93942119D01*
X-176926067Y-93885707D01*
X-176926065Y-93885706D01*
X-176920757Y-93884284D01*
X-176914765Y-93881490D01*
X-176718238Y-93789849D01*
X-176718233Y-93789846D01*
X-176713251Y-93787523D01*
X-176593812Y-93703891D01*
X-176530211Y-93659357D01*
X-176530208Y-93659355D01*
X-176525700Y-93656198D01*
X-176363802Y-93494300D01*
X-176232477Y-93306749D01*
X-176230154Y-93301767D01*
X-176230151Y-93301762D01*
X-176214195Y-93267543D01*
X-176167278Y-93214258D01*
X-176099001Y-93194797D01*
X-176031041Y-93215339D01*
X-175985805Y-93267543D01*
X-175969849Y-93301762D01*
X-175969846Y-93301767D01*
X-175967523Y-93306749D01*
X-175836198Y-93494300D01*
X-175674300Y-93656198D01*
X-175669792Y-93659355D01*
X-175669789Y-93659357D01*
X-175606188Y-93703891D01*
X-175486749Y-93787523D01*
X-175481767Y-93789846D01*
X-175481762Y-93789849D01*
X-175285235Y-93881490D01*
X-175279243Y-93884284D01*
X-175273935Y-93885706D01*
X-175273933Y-93885707D01*
X-175063402Y-93942119D01*
X-175063400Y-93942119D01*
X-175058087Y-93943543D01*
X-174830000Y-93963498D01*
X-174601913Y-93943543D01*
X-174596600Y-93942119D01*
X-174596598Y-93942119D01*
X-174386067Y-93885707D01*
X-174386065Y-93885706D01*
X-174380757Y-93884284D01*
X-174374765Y-93881490D01*
X-174178238Y-93789849D01*
X-174178233Y-93789846D01*
X-174173251Y-93787523D01*
X-174053812Y-93703891D01*
X-173990211Y-93659357D01*
X-173990208Y-93659355D01*
X-173985700Y-93656198D01*
X-173823802Y-93494300D01*
X-173692477Y-93306749D01*
X-173690154Y-93301767D01*
X-173690151Y-93301762D01*
X-173674195Y-93267543D01*
X-173627278Y-93214258D01*
X-173559001Y-93194797D01*
X-173491041Y-93215339D01*
X-173445805Y-93267543D01*
X-173429849Y-93301762D01*
X-173429846Y-93301767D01*
X-173427523Y-93306749D01*
X-173296198Y-93494300D01*
X-173134300Y-93656198D01*
X-173129792Y-93659355D01*
X-173129789Y-93659357D01*
X-173066188Y-93703891D01*
X-172946749Y-93787523D01*
X-172941767Y-93789846D01*
X-172941762Y-93789849D01*
X-172745235Y-93881490D01*
X-172739243Y-93884284D01*
X-172733935Y-93885706D01*
X-172733933Y-93885707D01*
X-172523402Y-93942119D01*
X-172523400Y-93942119D01*
X-172518087Y-93943543D01*
X-172290000Y-93963498D01*
X-172061913Y-93943543D01*
X-172056600Y-93942119D01*
X-172056598Y-93942119D01*
X-171846067Y-93885707D01*
X-171846065Y-93885706D01*
X-171840757Y-93884284D01*
X-171834765Y-93881490D01*
X-171638238Y-93789849D01*
X-171638233Y-93789846D01*
X-171633251Y-93787523D01*
X-171513812Y-93703891D01*
X-171450211Y-93659357D01*
X-171450208Y-93659355D01*
X-171445700Y-93656198D01*
X-171283802Y-93494300D01*
X-171152477Y-93306749D01*
X-171150154Y-93301767D01*
X-171150151Y-93301762D01*
X-171134195Y-93267543D01*
X-171087278Y-93214258D01*
X-171019001Y-93194797D01*
X-170951041Y-93215339D01*
X-170905805Y-93267543D01*
X-170889849Y-93301762D01*
X-170889846Y-93301767D01*
X-170887523Y-93306749D01*
X-170756198Y-93494300D01*
X-170594300Y-93656198D01*
X-170589792Y-93659355D01*
X-170589789Y-93659357D01*
X-170526188Y-93703891D01*
X-170406749Y-93787523D01*
X-170401767Y-93789846D01*
X-170401762Y-93789849D01*
X-170205235Y-93881490D01*
X-170199243Y-93884284D01*
X-170193935Y-93885706D01*
X-170193933Y-93885707D01*
X-169983402Y-93942119D01*
X-169983400Y-93942119D01*
X-169978087Y-93943543D01*
X-169750000Y-93963498D01*
X-169521913Y-93943543D01*
X-169516600Y-93942119D01*
X-169516598Y-93942119D01*
X-169306067Y-93885707D01*
X-169306065Y-93885706D01*
X-169300757Y-93884284D01*
X-169294765Y-93881490D01*
X-169098238Y-93789849D01*
X-169098233Y-93789846D01*
X-169093251Y-93787523D01*
X-168973812Y-93703891D01*
X-168910211Y-93659357D01*
X-168910208Y-93659355D01*
X-168905700Y-93656198D01*
X-168743802Y-93494300D01*
X-168612477Y-93306749D01*
X-168610154Y-93301767D01*
X-168610151Y-93301762D01*
X-168594195Y-93267543D01*
X-168547278Y-93214258D01*
X-168479001Y-93194797D01*
X-168411041Y-93215339D01*
X-168365805Y-93267543D01*
X-168349849Y-93301762D01*
X-168349846Y-93301767D01*
X-168347523Y-93306749D01*
X-168216198Y-93494300D01*
X-168054300Y-93656198D01*
X-168049792Y-93659355D01*
X-168049789Y-93659357D01*
X-167986188Y-93703891D01*
X-167866749Y-93787523D01*
X-167861767Y-93789846D01*
X-167861762Y-93789849D01*
X-167665235Y-93881490D01*
X-167659243Y-93884284D01*
X-167653935Y-93885706D01*
X-167653933Y-93885707D01*
X-167443402Y-93942119D01*
X-167443400Y-93942119D01*
X-167438087Y-93943543D01*
X-167210000Y-93963498D01*
X-166981913Y-93943543D01*
X-166976600Y-93942119D01*
X-166976598Y-93942119D01*
X-166766067Y-93885707D01*
X-166766065Y-93885706D01*
X-166760757Y-93884284D01*
X-166754765Y-93881490D01*
X-166558238Y-93789849D01*
X-166558233Y-93789846D01*
X-166553251Y-93787523D01*
X-166433812Y-93703891D01*
X-166370211Y-93659357D01*
X-166370208Y-93659355D01*
X-166365700Y-93656198D01*
X-166203802Y-93494300D01*
X-166072477Y-93306749D01*
X-166070154Y-93301767D01*
X-166070151Y-93301762D01*
X-166053919Y-93266951D01*
X-166007002Y-93213666D01*
X-165938725Y-93194205D01*
X-165870765Y-93214747D01*
X-165825529Y-93266951D01*
X-165809414Y-93301511D01*
X-165803931Y-93311007D01*
X-165678972Y-93489467D01*
X-165671916Y-93497875D01*
X-165517875Y-93651916D01*
X-165509467Y-93658972D01*
X-165331007Y-93783931D01*
X-165321511Y-93789414D01*
X-165124053Y-93881490D01*
X-165113761Y-93885236D01*
X-164941497Y-93931394D01*
X-164927401Y-93931058D01*
X-164924000Y-93923116D01*
X-164924000Y-93917967D01*
X-164416000Y-93917967D01*
X-164412027Y-93931498D01*
X-164403478Y-93932727D01*
X-164226239Y-93885236D01*
X-164215947Y-93881490D01*
X-164018489Y-93789414D01*
X-164008993Y-93783931D01*
X-163830533Y-93658972D01*
X-163822125Y-93651916D01*
X-163668084Y-93497875D01*
X-163661028Y-93489467D01*
X-163536069Y-93311007D01*
X-163530586Y-93301511D01*
X-163438510Y-93104053D01*
X-163434764Y-93093761D01*
X-163378375Y-92883312D01*
X-163376472Y-92872519D01*
X-163362238Y-92709830D01*
X-163362000Y-92704365D01*
X-163362000Y-92522115D01*
X-163366475Y-92506876D01*
X-163367865Y-92505671D01*
X-163375548Y-92504000D01*
X-164397885Y-92504000D01*
X-164413124Y-92508475D01*
X-164414329Y-92509865D01*
X-164416000Y-92517548D01*
X-164416000Y-93917967D01*
X-164924000Y-93917967D01*
X-164924000Y-91977885D01*
X-164416000Y-91977885D01*
X-164411525Y-91993124D01*
X-164410135Y-91994329D01*
X-164402452Y-91996000D01*
X-163380115Y-91996000D01*
X-163364876Y-91991525D01*
X-163363671Y-91990135D01*
X-163362000Y-91982452D01*
X-163362000Y-91795635D01*
X-163362238Y-91790170D01*
X-163376472Y-91627481D01*
X-163378375Y-91616688D01*
X-163434764Y-91406239D01*
X-163438510Y-91395947D01*
X-163530586Y-91198489D01*
X-163536069Y-91188993D01*
X-163661028Y-91010533D01*
X-163668084Y-91002125D01*
X-163822125Y-90848084D01*
X-163830533Y-90841028D01*
X-164008993Y-90716069D01*
X-164018489Y-90710586D01*
X-164215947Y-90618510D01*
X-164226239Y-90614764D01*
X-164398503Y-90568606D01*
X-164412599Y-90568942D01*
X-164416000Y-90576884D01*
X-164416000Y-91977885D01*
X-164924000Y-91977885D01*
X-164924000Y-90582033D01*
X-164927973Y-90568502D01*
X-164936522Y-90567273D01*
X-165113761Y-90614764D01*
X-165124053Y-90618510D01*
X-165321511Y-90710586D01*
X-165331007Y-90716069D01*
X-165509467Y-90841028D01*
X-165517875Y-90848084D01*
X-165671916Y-91002125D01*
X-165678972Y-91010533D01*
X-165803931Y-91188993D01*
X-165809414Y-91198489D01*
X-165825529Y-91233049D01*
X-165872446Y-91286334D01*
X-165940723Y-91305795D01*
X-166008683Y-91285253D01*
X-166053919Y-91233049D01*
X-166070151Y-91198238D01*
X-166070154Y-91198233D01*
X-166072477Y-91193251D01*
X-166203802Y-91005700D01*
X-166365700Y-90843802D01*
X-166370208Y-90840645D01*
X-166370211Y-90840643D01*
X-166448389Y-90785902D01*
X-166553251Y-90712477D01*
X-166558233Y-90710154D01*
X-166558238Y-90710151D01*
X-166755775Y-90618039D01*
X-166755776Y-90618039D01*
X-166760757Y-90615716D01*
X-166766065Y-90614294D01*
X-166766067Y-90614293D01*
X-166976598Y-90557881D01*
X-166976600Y-90557881D01*
X-166981913Y-90556457D01*
X-167210000Y-90536502D01*
X-167438087Y-90556457D01*
X-167443400Y-90557881D01*
X-167443402Y-90557881D01*
X-167653933Y-90614293D01*
X-167653935Y-90614294D01*
X-167659243Y-90615716D01*
X-167664224Y-90618039D01*
X-167664225Y-90618039D01*
X-167861762Y-90710151D01*
X-167861767Y-90710154D01*
X-167866749Y-90712477D01*
X-167971611Y-90785902D01*
X-168049789Y-90840643D01*
X-168049792Y-90840645D01*
X-168054300Y-90843802D01*
X-168216198Y-91005700D01*
X-168347523Y-91193251D01*
X-168349846Y-91198233D01*
X-168349849Y-91198238D01*
X-168365805Y-91232457D01*
X-168412722Y-91285742D01*
X-168480999Y-91305203D01*
X-168548959Y-91284661D01*
X-168594195Y-91232457D01*
X-168610151Y-91198238D01*
X-168610154Y-91198233D01*
X-168612477Y-91193251D01*
X-168743802Y-91005700D01*
X-168905700Y-90843802D01*
X-168910208Y-90840645D01*
X-168910211Y-90840643D01*
X-168988389Y-90785902D01*
X-169093251Y-90712477D01*
X-169098233Y-90710154D01*
X-169098238Y-90710151D01*
X-169295775Y-90618039D01*
X-169295776Y-90618039D01*
X-169300757Y-90615716D01*
X-169306065Y-90614294D01*
X-169306067Y-90614293D01*
X-169516598Y-90557881D01*
X-169516600Y-90557881D01*
X-169521913Y-90556457D01*
X-169750000Y-90536502D01*
X-169978087Y-90556457D01*
X-169983400Y-90557881D01*
X-169983402Y-90557881D01*
X-170193933Y-90614293D01*
X-170193935Y-90614294D01*
X-170199243Y-90615716D01*
X-170204224Y-90618039D01*
X-170204225Y-90618039D01*
X-170401762Y-90710151D01*
X-170401767Y-90710154D01*
X-170406749Y-90712477D01*
X-170511611Y-90785902D01*
X-170589789Y-90840643D01*
X-170589792Y-90840645D01*
X-170594300Y-90843802D01*
X-170756198Y-91005700D01*
X-170887523Y-91193251D01*
X-170889846Y-91198233D01*
X-170889849Y-91198238D01*
X-170905805Y-91232457D01*
X-170952722Y-91285742D01*
X-171020999Y-91305203D01*
X-171088959Y-91284661D01*
X-171134195Y-91232457D01*
X-171150151Y-91198238D01*
X-171150154Y-91198233D01*
X-171152477Y-91193251D01*
X-171283802Y-91005700D01*
X-171445700Y-90843802D01*
X-171450208Y-90840645D01*
X-171450211Y-90840643D01*
X-171528389Y-90785902D01*
X-171633251Y-90712477D01*
X-171638233Y-90710154D01*
X-171638238Y-90710151D01*
X-171835775Y-90618039D01*
X-171835776Y-90618039D01*
X-171840757Y-90615716D01*
X-171846065Y-90614294D01*
X-171846067Y-90614293D01*
X-172056598Y-90557881D01*
X-172056600Y-90557881D01*
X-172061913Y-90556457D01*
X-172290000Y-90536502D01*
X-172518087Y-90556457D01*
X-172523400Y-90557881D01*
X-172523402Y-90557881D01*
X-172733933Y-90614293D01*
X-172733935Y-90614294D01*
X-172739243Y-90615716D01*
X-172744224Y-90618039D01*
X-172744225Y-90618039D01*
X-172941762Y-90710151D01*
X-172941767Y-90710154D01*
X-172946749Y-90712477D01*
X-173051611Y-90785902D01*
X-173129789Y-90840643D01*
X-173129792Y-90840645D01*
X-173134300Y-90843802D01*
X-173296198Y-91005700D01*
X-173427523Y-91193251D01*
X-173429846Y-91198233D01*
X-173429849Y-91198238D01*
X-173445805Y-91232457D01*
X-173492722Y-91285742D01*
X-173560999Y-91305203D01*
X-173628959Y-91284661D01*
X-173674195Y-91232457D01*
X-173690151Y-91198238D01*
X-173690154Y-91198233D01*
X-173692477Y-91193251D01*
X-173823802Y-91005700D01*
X-173985700Y-90843802D01*
X-173990208Y-90840645D01*
X-173990211Y-90840643D01*
X-174068389Y-90785902D01*
X-174173251Y-90712477D01*
X-174178233Y-90710154D01*
X-174178238Y-90710151D01*
X-174375775Y-90618039D01*
X-174375776Y-90618039D01*
X-174380757Y-90615716D01*
X-174386065Y-90614294D01*
X-174386067Y-90614293D01*
X-174596598Y-90557881D01*
X-174596600Y-90557881D01*
X-174601913Y-90556457D01*
X-174830000Y-90536502D01*
X-175058087Y-90556457D01*
X-175063400Y-90557881D01*
X-175063402Y-90557881D01*
X-175273933Y-90614293D01*
X-175273935Y-90614294D01*
X-175279243Y-90615716D01*
X-175284224Y-90618039D01*
X-175284225Y-90618039D01*
X-175481762Y-90710151D01*
X-175481767Y-90710154D01*
X-175486749Y-90712477D01*
X-175591611Y-90785902D01*
X-175669789Y-90840643D01*
X-175669792Y-90840645D01*
X-175674300Y-90843802D01*
X-175836198Y-91005700D01*
X-175967523Y-91193251D01*
X-175969846Y-91198233D01*
X-175969849Y-91198238D01*
X-175985805Y-91232457D01*
X-176032722Y-91285742D01*
X-176100999Y-91305203D01*
X-176168959Y-91284661D01*
X-176214195Y-91232457D01*
X-176230151Y-91198238D01*
X-176230154Y-91198233D01*
X-176232477Y-91193251D01*
X-176363802Y-91005700D01*
X-176525700Y-90843802D01*
X-176530208Y-90840645D01*
X-176530211Y-90840643D01*
X-176608389Y-90785902D01*
X-176713251Y-90712477D01*
X-176718233Y-90710154D01*
X-176718238Y-90710151D01*
X-176915775Y-90618039D01*
X-176915776Y-90618039D01*
X-176920757Y-90615716D01*
X-176926065Y-90614294D01*
X-176926067Y-90614293D01*
X-177136598Y-90557881D01*
X-177136600Y-90557881D01*
X-177141913Y-90556457D01*
X-177370000Y-90536502D01*
X-177598087Y-90556457D01*
X-177603400Y-90557881D01*
X-177603402Y-90557881D01*
X-177813933Y-90614293D01*
X-177813935Y-90614294D01*
X-177819243Y-90615716D01*
X-177824224Y-90618039D01*
X-177824225Y-90618039D01*
X-178021762Y-90710151D01*
X-178021767Y-90710154D01*
X-178026749Y-90712477D01*
X-178131611Y-90785902D01*
X-178209789Y-90840643D01*
X-178209792Y-90840645D01*
X-178214300Y-90843802D01*
X-178376198Y-91005700D01*
X-178507523Y-91193251D01*
X-178509846Y-91198233D01*
X-178509849Y-91198238D01*
X-178525805Y-91232457D01*
X-178572722Y-91285742D01*
X-178640999Y-91305203D01*
X-178708959Y-91284661D01*
X-178754195Y-91232457D01*
X-178770151Y-91198238D01*
X-178770154Y-91198233D01*
X-178772477Y-91193251D01*
X-178903802Y-91005700D01*
X-179065700Y-90843802D01*
X-179070208Y-90840645D01*
X-179070211Y-90840643D01*
X-179148389Y-90785902D01*
X-179253251Y-90712477D01*
X-179258233Y-90710154D01*
X-179258238Y-90710151D01*
X-179455775Y-90618039D01*
X-179455776Y-90618039D01*
X-179460757Y-90615716D01*
X-179466065Y-90614294D01*
X-179466067Y-90614293D01*
X-179676598Y-90557881D01*
X-179676600Y-90557881D01*
X-179681913Y-90556457D01*
X-179910000Y-90536502D01*
X-180138087Y-90556457D01*
X-180143400Y-90557881D01*
X-180143402Y-90557881D01*
X-180353933Y-90614293D01*
X-180353935Y-90614294D01*
X-180359243Y-90615716D01*
X-180364224Y-90618039D01*
X-180364225Y-90618039D01*
X-180561762Y-90710151D01*
X-180561767Y-90710154D01*
X-180566749Y-90712477D01*
X-180671611Y-90785902D01*
X-180749789Y-90840643D01*
X-180749792Y-90840645D01*
X-180754300Y-90843802D01*
X-180916198Y-91005700D01*
X-180919357Y-91010211D01*
X-180922892Y-91014424D01*
X-180924026Y-91013473D01*
X-180974071Y-91053471D01*
X-181044690Y-91060776D01*
X-181108049Y-91028742D01*
X-181144030Y-90967538D01*
X-181147082Y-90950483D01*
X-181148255Y-90939684D01*
X-181199385Y-90803295D01*
X-181286739Y-90686739D01*
X-181403295Y-90599385D01*
X-181539684Y-90548255D01*
X-181601866Y-90541500D01*
X-183298134Y-90541500D01*
X-183360316Y-90548255D01*
X-183496705Y-90599385D01*
X-183613261Y-90686739D01*
X-183700615Y-90803295D01*
X-183751745Y-90939684D01*
X-183758500Y-91001866D01*
X-183758500Y-93498134D01*
X-217841500Y-93498134D01*
X-217841500Y-71150000D01*
X-204843165Y-71150000D01*
X-204824535Y-71386711D01*
X-204823381Y-71391518D01*
X-204823380Y-71391524D01*
X-204807041Y-71459580D01*
X-204769105Y-71617594D01*
X-204767212Y-71622165D01*
X-204767211Y-71622167D01*
X-204685767Y-71818790D01*
X-204678240Y-71836963D01*
X-204675654Y-71841183D01*
X-204556759Y-72035202D01*
X-204556755Y-72035208D01*
X-204554176Y-72039416D01*
X-204399969Y-72219969D01*
X-204219416Y-72374176D01*
X-204215208Y-72376755D01*
X-204215202Y-72376759D01*
X-204034961Y-72487211D01*
X-204016963Y-72498240D01*
X-204012393Y-72500133D01*
X-204012389Y-72500135D01*
X-203802167Y-72587211D01*
X-203797594Y-72589105D01*
X-203717391Y-72608360D01*
X-203571524Y-72643380D01*
X-203571518Y-72643381D01*
X-203566711Y-72644535D01*
X-203330000Y-72663165D01*
X-203093289Y-72644535D01*
X-203088482Y-72643381D01*
X-203088476Y-72643380D01*
X-202942609Y-72608360D01*
X-202862406Y-72589105D01*
X-202857833Y-72587211D01*
X-202647611Y-72500135D01*
X-202647607Y-72500133D01*
X-202643037Y-72498240D01*
X-202625039Y-72487211D01*
X-202444798Y-72376759D01*
X-202444792Y-72376755D01*
X-202440584Y-72374176D01*
X-202260031Y-72219969D01*
X-202105824Y-72039416D01*
X-202103245Y-72035208D01*
X-202103241Y-72035202D01*
X-201984346Y-71841183D01*
X-201981760Y-71836963D01*
X-201974232Y-71818790D01*
X-201892789Y-71622167D01*
X-201892788Y-71622165D01*
X-201890895Y-71617594D01*
X-201852959Y-71459580D01*
X-201836620Y-71391524D01*
X-201836619Y-71391518D01*
X-201835465Y-71386711D01*
X-201816835Y-71150000D01*
X-194683165Y-71150000D01*
X-194664535Y-71386711D01*
X-194663381Y-71391518D01*
X-194663380Y-71391524D01*
X-194647041Y-71459580D01*
X-194609105Y-71617594D01*
X-194607212Y-71622165D01*
X-194607211Y-71622167D01*
X-194525767Y-71818790D01*
X-194518240Y-71836963D01*
X-194515654Y-71841183D01*
X-194396759Y-72035202D01*
X-194396755Y-72035208D01*
X-194394176Y-72039416D01*
X-194239969Y-72219969D01*
X-194059416Y-72374176D01*
X-194055208Y-72376755D01*
X-194055202Y-72376759D01*
X-193874961Y-72487211D01*
X-193856963Y-72498240D01*
X-193852393Y-72500133D01*
X-193852389Y-72500135D01*
X-193642167Y-72587211D01*
X-193637594Y-72589105D01*
X-193557391Y-72608360D01*
X-193411524Y-72643380D01*
X-193411518Y-72643381D01*
X-193406711Y-72644535D01*
X-193170000Y-72663165D01*
X-192933289Y-72644535D01*
X-192928482Y-72643381D01*
X-192928476Y-72643380D01*
X-192782609Y-72608360D01*
X-192702406Y-72589105D01*
X-192697833Y-72587211D01*
X-192487611Y-72500135D01*
X-192487607Y-72500133D01*
X-192483037Y-72498240D01*
X-192465039Y-72487211D01*
X-192284798Y-72376759D01*
X-192284792Y-72376755D01*
X-192280584Y-72374176D01*
X-192191550Y-72298134D01*
X-191363612Y-72298134D01*
X-191356857Y-72360316D01*
X-191354085Y-72367709D01*
X-191354085Y-72367711D01*
X-191321630Y-72454284D01*
X-191313612Y-72498513D01*
X-191313612Y-74853492D01*
X-191314690Y-74869939D01*
X-191317591Y-74891974D01*
X-191315287Y-74940819D01*
X-191313752Y-74973376D01*
X-191313612Y-74979312D01*
X-191313612Y-75001887D01*
X-191313362Y-75004684D01*
X-191311293Y-75027876D01*
X-191310934Y-75033136D01*
X-191307008Y-75116376D01*
X-191305758Y-75121835D01*
X-191305757Y-75121840D01*
X-191303004Y-75133858D01*
X-191300323Y-75150787D01*
X-191298729Y-75168650D01*
X-191297247Y-75174066D01*
X-191297247Y-75174068D01*
X-191276742Y-75249021D01*
X-191275456Y-75254139D01*
X-191270447Y-75276007D01*
X-191256854Y-75335358D01*
X-191254652Y-75340520D01*
X-191249818Y-75351855D01*
X-191244185Y-75368030D01*
X-191239449Y-75385339D01*
X-191237033Y-75390404D01*
X-191203573Y-75460555D01*
X-191201402Y-75465364D01*
X-191168715Y-75541997D01*
X-191158861Y-75556998D01*
X-191150458Y-75571913D01*
X-191142734Y-75588106D01*
X-191139464Y-75592657D01*
X-191139462Y-75592660D01*
X-191094113Y-75655769D01*
X-191091123Y-75660120D01*
X-191047916Y-75725898D01*
X-191047910Y-75725906D01*
X-191045377Y-75729762D01*
X-191026855Y-75750550D01*
X-191018622Y-75760827D01*
X-191011641Y-75770542D01*
X-191007614Y-75774444D01*
X-190934858Y-75844950D01*
X-190933448Y-75846339D01*
X-189604525Y-77175263D01*
X-189593658Y-77187653D01*
X-189580123Y-77205292D01*
X-189575977Y-77209065D01*
X-189575972Y-77209070D01*
X-189519836Y-77260149D01*
X-189515541Y-77264247D01*
X-189499590Y-77280198D01*
X-189479564Y-77296942D01*
X-189475609Y-77300392D01*
X-189413964Y-77356485D01*
X-189409210Y-77359467D01*
X-189398770Y-77366016D01*
X-189384910Y-77376085D01*
X-189371147Y-77387593D01*
X-189366266Y-77390377D01*
X-189298782Y-77428869D01*
X-189294252Y-77431579D01*
X-189223656Y-77475864D01*
X-189218452Y-77477956D01*
X-189207017Y-77482553D01*
X-189191587Y-77490012D01*
X-189180881Y-77496119D01*
X-189180872Y-77496123D01*
X-189176007Y-77498898D01*
X-189097462Y-77526712D01*
X-189092550Y-77528568D01*
X-189015217Y-77559656D01*
X-188997639Y-77563296D01*
X-188981146Y-77567902D01*
X-188964241Y-77573888D01*
X-188958707Y-77574794D01*
X-188958704Y-77574795D01*
X-188882023Y-77587352D01*
X-188876851Y-77588311D01*
X-188795233Y-77605213D01*
X-188784672Y-77605822D01*
X-188767437Y-77606816D01*
X-188754331Y-77608263D01*
X-188748086Y-77609286D01*
X-188748079Y-77609287D01*
X-188742543Y-77610193D01*
X-188736929Y-77610105D01*
X-188736927Y-77610105D01*
X-188635770Y-77608516D01*
X-188633791Y-77608500D01*
X-169141396Y-77608500D01*
X-169124949Y-77609578D01*
X-169108484Y-77611746D01*
X-169108480Y-77611746D01*
X-169102914Y-77612479D01*
X-169021511Y-77608640D01*
X-169015576Y-77608500D01*
X-166569926Y-77608500D01*
X-166501805Y-77628502D01*
X-166480831Y-77645404D01*
X-165965405Y-78160829D01*
X-165931380Y-78223142D01*
X-165928500Y-78249925D01*
X-165928500Y-83379251D01*
X-165948502Y-83447372D01*
X-166002158Y-83493865D01*
X-166072432Y-83503969D01*
X-166137012Y-83474475D01*
X-166157713Y-83451522D01*
X-166200643Y-83390211D01*
X-166200645Y-83390208D01*
X-166203802Y-83385700D01*
X-166365700Y-83223802D01*
X-166370208Y-83220645D01*
X-166370211Y-83220643D01*
X-166448389Y-83165902D01*
X-166553251Y-83092477D01*
X-166558233Y-83090154D01*
X-166558238Y-83090151D01*
X-166755775Y-82998039D01*
X-166755776Y-82998039D01*
X-166760757Y-82995716D01*
X-166766065Y-82994294D01*
X-166766067Y-82994293D01*
X-166976598Y-82937881D01*
X-166976600Y-82937881D01*
X-166981913Y-82936457D01*
X-167210000Y-82916502D01*
X-167438087Y-82936457D01*
X-167443400Y-82937881D01*
X-167443402Y-82937881D01*
X-167653933Y-82994293D01*
X-167653935Y-82994294D01*
X-167659243Y-82995716D01*
X-167664224Y-82998039D01*
X-167664225Y-82998039D01*
X-167861762Y-83090151D01*
X-167861767Y-83090154D01*
X-167866749Y-83092477D01*
X-167971611Y-83165902D01*
X-168049789Y-83220643D01*
X-168049792Y-83220645D01*
X-168054300Y-83223802D01*
X-168216198Y-83385700D01*
X-168347523Y-83573251D01*
X-168349846Y-83578233D01*
X-168349849Y-83578238D01*
X-168365805Y-83612457D01*
X-168412722Y-83665742D01*
X-168480999Y-83685203D01*
X-168548959Y-83664661D01*
X-168594195Y-83612457D01*
X-168610151Y-83578238D01*
X-168610154Y-83578233D01*
X-168612477Y-83573251D01*
X-168743802Y-83385700D01*
X-168905700Y-83223802D01*
X-168910208Y-83220645D01*
X-168910211Y-83220643D01*
X-168988389Y-83165902D01*
X-169093251Y-83092477D01*
X-169098233Y-83090154D01*
X-169098238Y-83090151D01*
X-169295775Y-82998039D01*
X-169295776Y-82998039D01*
X-169300757Y-82995716D01*
X-169306065Y-82994294D01*
X-169306067Y-82994293D01*
X-169516598Y-82937881D01*
X-169516600Y-82937881D01*
X-169521913Y-82936457D01*
X-169750000Y-82916502D01*
X-169978087Y-82936457D01*
X-169983400Y-82937881D01*
X-169983402Y-82937881D01*
X-170193933Y-82994293D01*
X-170193935Y-82994294D01*
X-170199243Y-82995716D01*
X-170204224Y-82998039D01*
X-170204225Y-82998039D01*
X-170401762Y-83090151D01*
X-170401767Y-83090154D01*
X-170406749Y-83092477D01*
X-170511611Y-83165902D01*
X-170589789Y-83220643D01*
X-170589792Y-83220645D01*
X-170594300Y-83223802D01*
X-170756198Y-83385700D01*
X-170887523Y-83573251D01*
X-170889846Y-83578233D01*
X-170889849Y-83578238D01*
X-170905805Y-83612457D01*
X-170952722Y-83665742D01*
X-171020999Y-83685203D01*
X-171088959Y-83664661D01*
X-171134195Y-83612457D01*
X-171150151Y-83578238D01*
X-171150154Y-83578233D01*
X-171152477Y-83573251D01*
X-171283802Y-83385700D01*
X-171445700Y-83223802D01*
X-171450208Y-83220645D01*
X-171450211Y-83220643D01*
X-171528389Y-83165902D01*
X-171633251Y-83092477D01*
X-171638233Y-83090154D01*
X-171638238Y-83090151D01*
X-171835775Y-82998039D01*
X-171835776Y-82998039D01*
X-171840757Y-82995716D01*
X-171846065Y-82994294D01*
X-171846067Y-82994293D01*
X-172056598Y-82937881D01*
X-172056600Y-82937881D01*
X-172061913Y-82936457D01*
X-172290000Y-82916502D01*
X-172518087Y-82936457D01*
X-172523400Y-82937881D01*
X-172523402Y-82937881D01*
X-172733933Y-82994293D01*
X-172733935Y-82994294D01*
X-172739243Y-82995716D01*
X-172744224Y-82998039D01*
X-172744225Y-82998039D01*
X-172941762Y-83090151D01*
X-172941767Y-83090154D01*
X-172946749Y-83092477D01*
X-173051611Y-83165902D01*
X-173129789Y-83220643D01*
X-173129792Y-83220645D01*
X-173134300Y-83223802D01*
X-173296198Y-83385700D01*
X-173427523Y-83573251D01*
X-173429846Y-83578233D01*
X-173429849Y-83578238D01*
X-173445805Y-83612457D01*
X-173492722Y-83665742D01*
X-173560999Y-83685203D01*
X-173628959Y-83664661D01*
X-173674195Y-83612457D01*
X-173690151Y-83578238D01*
X-173690154Y-83578233D01*
X-173692477Y-83573251D01*
X-173823802Y-83385700D01*
X-173985700Y-83223802D01*
X-173990208Y-83220645D01*
X-173990211Y-83220643D01*
X-174068389Y-83165902D01*
X-174173251Y-83092477D01*
X-174178233Y-83090154D01*
X-174178238Y-83090151D01*
X-174375775Y-82998039D01*
X-174375776Y-82998039D01*
X-174380757Y-82995716D01*
X-174386065Y-82994294D01*
X-174386067Y-82994293D01*
X-174596598Y-82937881D01*
X-174596600Y-82937881D01*
X-174601913Y-82936457D01*
X-174830000Y-82916502D01*
X-175058087Y-82936457D01*
X-175063400Y-82937881D01*
X-175063402Y-82937881D01*
X-175273933Y-82994293D01*
X-175273935Y-82994294D01*
X-175279243Y-82995716D01*
X-175284224Y-82998039D01*
X-175284225Y-82998039D01*
X-175481762Y-83090151D01*
X-175481767Y-83090154D01*
X-175486749Y-83092477D01*
X-175591611Y-83165902D01*
X-175669789Y-83220643D01*
X-175669792Y-83220645D01*
X-175674300Y-83223802D01*
X-175836198Y-83385700D01*
X-175967523Y-83573251D01*
X-175969846Y-83578233D01*
X-175969849Y-83578238D01*
X-175985805Y-83612457D01*
X-176032722Y-83665742D01*
X-176100999Y-83685203D01*
X-176168959Y-83664661D01*
X-176214195Y-83612457D01*
X-176230151Y-83578238D01*
X-176230154Y-83578233D01*
X-176232477Y-83573251D01*
X-176363802Y-83385700D01*
X-176525700Y-83223802D01*
X-176530208Y-83220645D01*
X-176530211Y-83220643D01*
X-176608389Y-83165902D01*
X-176713251Y-83092477D01*
X-176718233Y-83090154D01*
X-176718238Y-83090151D01*
X-176915775Y-82998039D01*
X-176915776Y-82998039D01*
X-176920757Y-82995716D01*
X-176926065Y-82994294D01*
X-176926067Y-82994293D01*
X-177136598Y-82937881D01*
X-177136600Y-82937881D01*
X-177141913Y-82936457D01*
X-177370000Y-82916502D01*
X-177598087Y-82936457D01*
X-177603400Y-82937881D01*
X-177603402Y-82937881D01*
X-177813933Y-82994293D01*
X-177813935Y-82994294D01*
X-177819243Y-82995716D01*
X-177824224Y-82998039D01*
X-177824225Y-82998039D01*
X-178021762Y-83090151D01*
X-178021767Y-83090154D01*
X-178026749Y-83092477D01*
X-178131611Y-83165902D01*
X-178209789Y-83220643D01*
X-178209792Y-83220645D01*
X-178214300Y-83223802D01*
X-178376198Y-83385700D01*
X-178507523Y-83573251D01*
X-178509846Y-83578233D01*
X-178509849Y-83578238D01*
X-178525805Y-83612457D01*
X-178572722Y-83665742D01*
X-178640999Y-83685203D01*
X-178708959Y-83664661D01*
X-178754195Y-83612457D01*
X-178770151Y-83578238D01*
X-178770154Y-83578233D01*
X-178772477Y-83573251D01*
X-178903802Y-83385700D01*
X-179065700Y-83223802D01*
X-179070208Y-83220645D01*
X-179070211Y-83220643D01*
X-179148389Y-83165902D01*
X-179253251Y-83092477D01*
X-179258233Y-83090154D01*
X-179258238Y-83090151D01*
X-179455775Y-82998039D01*
X-179455776Y-82998039D01*
X-179460757Y-82995716D01*
X-179466065Y-82994294D01*
X-179466067Y-82994293D01*
X-179676598Y-82937881D01*
X-179676600Y-82937881D01*
X-179681913Y-82936457D01*
X-179910000Y-82916502D01*
X-180138087Y-82936457D01*
X-180143400Y-82937881D01*
X-180143402Y-82937881D01*
X-180353933Y-82994293D01*
X-180353935Y-82994294D01*
X-180359243Y-82995716D01*
X-180364224Y-82998039D01*
X-180364225Y-82998039D01*
X-180561762Y-83090151D01*
X-180561767Y-83090154D01*
X-180566749Y-83092477D01*
X-180671611Y-83165902D01*
X-180749789Y-83220643D01*
X-180749792Y-83220645D01*
X-180754300Y-83223802D01*
X-180916198Y-83385700D01*
X-181047523Y-83573251D01*
X-181049846Y-83578233D01*
X-181049849Y-83578238D01*
X-181065805Y-83612457D01*
X-181112722Y-83665742D01*
X-181180999Y-83685203D01*
X-181248959Y-83664661D01*
X-181294195Y-83612457D01*
X-181310151Y-83578238D01*
X-181310154Y-83578233D01*
X-181312477Y-83573251D01*
X-181443802Y-83385700D01*
X-181605700Y-83223802D01*
X-181610208Y-83220645D01*
X-181610211Y-83220643D01*
X-181688389Y-83165902D01*
X-181793251Y-83092477D01*
X-181798233Y-83090154D01*
X-181798238Y-83090151D01*
X-181995775Y-82998039D01*
X-181995776Y-82998039D01*
X-182000757Y-82995716D01*
X-182006065Y-82994294D01*
X-182006067Y-82994293D01*
X-182216598Y-82937881D01*
X-182216600Y-82937881D01*
X-182221913Y-82936457D01*
X-182450000Y-82916502D01*
X-182678087Y-82936457D01*
X-182683400Y-82937881D01*
X-182683402Y-82937881D01*
X-182893933Y-82994293D01*
X-182893935Y-82994294D01*
X-182899243Y-82995716D01*
X-182904224Y-82998039D01*
X-182904225Y-82998039D01*
X-183101762Y-83090151D01*
X-183101767Y-83090154D01*
X-183106749Y-83092477D01*
X-183211611Y-83165902D01*
X-183289789Y-83220643D01*
X-183289792Y-83220645D01*
X-183294300Y-83223802D01*
X-183456198Y-83385700D01*
X-183587523Y-83573251D01*
X-183589846Y-83578233D01*
X-183589849Y-83578238D01*
X-183605805Y-83612457D01*
X-183684284Y-83780757D01*
X-183685706Y-83786065D01*
X-183685707Y-83786067D01*
X-183720000Y-83914050D01*
X-183743543Y-84001913D01*
X-183744022Y-84007392D01*
X-183744022Y-84007393D01*
X-183757142Y-84157354D01*
X-183758500Y-84172873D01*
X-183758500Y-85087127D01*
X-183743543Y-85258087D01*
X-183684284Y-85479243D01*
X-183681961Y-85484224D01*
X-183681961Y-85484225D01*
X-183589849Y-85681762D01*
X-183589846Y-85681767D01*
X-183587523Y-85686749D01*
X-183456198Y-85874300D01*
X-183294300Y-86036198D01*
X-183289792Y-86039355D01*
X-183289789Y-86039357D01*
X-183211611Y-86094098D01*
X-183106749Y-86167523D01*
X-183101767Y-86169846D01*
X-183101762Y-86169849D01*
X-182904225Y-86261961D01*
X-182899243Y-86264284D01*
X-182893935Y-86265706D01*
X-182893933Y-86265707D01*
X-182683402Y-86322119D01*
X-182683400Y-86322119D01*
X-182678087Y-86323543D01*
X-182450000Y-86343498D01*
X-182221913Y-86323543D01*
X-182216600Y-86322119D01*
X-182216598Y-86322119D01*
X-182006067Y-86265707D01*
X-182006065Y-86265706D01*
X-182000757Y-86264284D01*
X-181995775Y-86261961D01*
X-181798238Y-86169849D01*
X-181798233Y-86169846D01*
X-181793251Y-86167523D01*
X-181688389Y-86094098D01*
X-181610211Y-86039357D01*
X-181610208Y-86039355D01*
X-181605700Y-86036198D01*
X-181443802Y-85874300D01*
X-181312477Y-85686749D01*
X-181310154Y-85681767D01*
X-181310151Y-85681762D01*
X-181294195Y-85647543D01*
X-181247278Y-85594258D01*
X-181179001Y-85574797D01*
X-181111041Y-85595339D01*
X-181065805Y-85647543D01*
X-181049849Y-85681762D01*
X-181049846Y-85681767D01*
X-181047523Y-85686749D01*
X-180916198Y-85874300D01*
X-180754300Y-86036198D01*
X-180749792Y-86039355D01*
X-180749789Y-86039357D01*
X-180671611Y-86094098D01*
X-180566749Y-86167523D01*
X-180561767Y-86169846D01*
X-180561762Y-86169849D01*
X-180364225Y-86261961D01*
X-180359243Y-86264284D01*
X-180353935Y-86265706D01*
X-180353933Y-86265707D01*
X-180143402Y-86322119D01*
X-180143400Y-86322119D01*
X-180138087Y-86323543D01*
X-179910000Y-86343498D01*
X-179681913Y-86323543D01*
X-179676600Y-86322119D01*
X-179676598Y-86322119D01*
X-179466067Y-86265707D01*
X-179466065Y-86265706D01*
X-179460757Y-86264284D01*
X-179455775Y-86261961D01*
X-179258238Y-86169849D01*
X-179258233Y-86169846D01*
X-179253251Y-86167523D01*
X-179148389Y-86094098D01*
X-179070211Y-86039357D01*
X-179070208Y-86039355D01*
X-179065700Y-86036198D01*
X-178903802Y-85874300D01*
X-178772477Y-85686749D01*
X-178770154Y-85681767D01*
X-178770151Y-85681762D01*
X-178754195Y-85647543D01*
X-178707278Y-85594258D01*
X-178639001Y-85574797D01*
X-178571041Y-85595339D01*
X-178525805Y-85647543D01*
X-178509849Y-85681762D01*
X-178509846Y-85681767D01*
X-178507523Y-85686749D01*
X-178376198Y-85874300D01*
X-178214300Y-86036198D01*
X-178209792Y-86039355D01*
X-178209789Y-86039357D01*
X-178131611Y-86094098D01*
X-178026749Y-86167523D01*
X-178021767Y-86169846D01*
X-178021762Y-86169849D01*
X-177824225Y-86261961D01*
X-177819243Y-86264284D01*
X-177813935Y-86265706D01*
X-177813933Y-86265707D01*
X-177603402Y-86322119D01*
X-177603400Y-86322119D01*
X-177598087Y-86323543D01*
X-177370000Y-86343498D01*
X-177141913Y-86323543D01*
X-177136600Y-86322119D01*
X-177136598Y-86322119D01*
X-176926067Y-86265707D01*
X-176926065Y-86265706D01*
X-176920757Y-86264284D01*
X-176915775Y-86261961D01*
X-176718238Y-86169849D01*
X-176718233Y-86169846D01*
X-176713251Y-86167523D01*
X-176608389Y-86094098D01*
X-176530211Y-86039357D01*
X-176530208Y-86039355D01*
X-176525700Y-86036198D01*
X-176363802Y-85874300D01*
X-176232477Y-85686749D01*
X-176230154Y-85681767D01*
X-176230151Y-85681762D01*
X-176214195Y-85647543D01*
X-176167278Y-85594258D01*
X-176099001Y-85574797D01*
X-176031041Y-85595339D01*
X-175985805Y-85647543D01*
X-175969849Y-85681762D01*
X-175969846Y-85681767D01*
X-175967523Y-85686749D01*
X-175836198Y-85874300D01*
X-175674300Y-86036198D01*
X-175669792Y-86039355D01*
X-175669789Y-86039357D01*
X-175591611Y-86094098D01*
X-175486749Y-86167523D01*
X-175481767Y-86169846D01*
X-175481762Y-86169849D01*
X-175284225Y-86261961D01*
X-175279243Y-86264284D01*
X-175273935Y-86265706D01*
X-175273933Y-86265707D01*
X-175063402Y-86322119D01*
X-175063400Y-86322119D01*
X-175058087Y-86323543D01*
X-174830000Y-86343498D01*
X-174601913Y-86323543D01*
X-174596600Y-86322119D01*
X-174596598Y-86322119D01*
X-174386067Y-86265707D01*
X-174386065Y-86265706D01*
X-174380757Y-86264284D01*
X-174375775Y-86261961D01*
X-174178238Y-86169849D01*
X-174178233Y-86169846D01*
X-174173251Y-86167523D01*
X-174068389Y-86094098D01*
X-173990211Y-86039357D01*
X-173990208Y-86039355D01*
X-173985700Y-86036198D01*
X-173823802Y-85874300D01*
X-173692477Y-85686749D01*
X-173690154Y-85681767D01*
X-173690151Y-85681762D01*
X-173674195Y-85647543D01*
X-173627278Y-85594258D01*
X-173559001Y-85574797D01*
X-173491041Y-85595339D01*
X-173445805Y-85647543D01*
X-173429849Y-85681762D01*
X-173429846Y-85681767D01*
X-173427523Y-85686749D01*
X-173296198Y-85874300D01*
X-173134300Y-86036198D01*
X-173129792Y-86039355D01*
X-173129789Y-86039357D01*
X-173051611Y-86094098D01*
X-172946749Y-86167523D01*
X-172941767Y-86169846D01*
X-172941762Y-86169849D01*
X-172744225Y-86261961D01*
X-172739243Y-86264284D01*
X-172733935Y-86265706D01*
X-172733933Y-86265707D01*
X-172523402Y-86322119D01*
X-172523400Y-86322119D01*
X-172518087Y-86323543D01*
X-172290000Y-86343498D01*
X-172061913Y-86323543D01*
X-172056600Y-86322119D01*
X-172056598Y-86322119D01*
X-171846067Y-86265707D01*
X-171846065Y-86265706D01*
X-171840757Y-86264284D01*
X-171835775Y-86261961D01*
X-171638238Y-86169849D01*
X-171638233Y-86169846D01*
X-171633251Y-86167523D01*
X-171528389Y-86094098D01*
X-171450211Y-86039357D01*
X-171450208Y-86039355D01*
X-171445700Y-86036198D01*
X-171283802Y-85874300D01*
X-171152477Y-85686749D01*
X-171150154Y-85681767D01*
X-171150151Y-85681762D01*
X-171134195Y-85647543D01*
X-171087278Y-85594258D01*
X-171019001Y-85574797D01*
X-170951041Y-85595339D01*
X-170905805Y-85647543D01*
X-170889849Y-85681762D01*
X-170889846Y-85681767D01*
X-170887523Y-85686749D01*
X-170756198Y-85874300D01*
X-170594300Y-86036198D01*
X-170589792Y-86039355D01*
X-170589789Y-86039357D01*
X-170511611Y-86094098D01*
X-170406749Y-86167523D01*
X-170401767Y-86169846D01*
X-170401762Y-86169849D01*
X-170204225Y-86261961D01*
X-170199243Y-86264284D01*
X-170193935Y-86265706D01*
X-170193933Y-86265707D01*
X-169983402Y-86322119D01*
X-169983400Y-86322119D01*
X-169978087Y-86323543D01*
X-169750000Y-86343498D01*
X-169521913Y-86323543D01*
X-169516600Y-86322119D01*
X-169516598Y-86322119D01*
X-169306067Y-86265707D01*
X-169306065Y-86265706D01*
X-169300757Y-86264284D01*
X-169295775Y-86261961D01*
X-169098238Y-86169849D01*
X-169098233Y-86169846D01*
X-169093251Y-86167523D01*
X-168988389Y-86094098D01*
X-168910211Y-86039357D01*
X-168910208Y-86039355D01*
X-168905700Y-86036198D01*
X-168743802Y-85874300D01*
X-168612477Y-85686749D01*
X-168610154Y-85681767D01*
X-168610151Y-85681762D01*
X-168594195Y-85647543D01*
X-168547278Y-85594258D01*
X-168479001Y-85574797D01*
X-168411041Y-85595339D01*
X-168365805Y-85647543D01*
X-168349849Y-85681762D01*
X-168349846Y-85681767D01*
X-168347523Y-85686749D01*
X-168216198Y-85874300D01*
X-168054300Y-86036198D01*
X-168049792Y-86039355D01*
X-168049789Y-86039357D01*
X-167971611Y-86094098D01*
X-167866749Y-86167523D01*
X-167861767Y-86169846D01*
X-167861762Y-86169849D01*
X-167664225Y-86261961D01*
X-167659243Y-86264284D01*
X-167653935Y-86265706D01*
X-167653933Y-86265707D01*
X-167443402Y-86322119D01*
X-167443400Y-86322119D01*
X-167438087Y-86323543D01*
X-167210000Y-86343498D01*
X-166981913Y-86323543D01*
X-166976600Y-86322119D01*
X-166976598Y-86322119D01*
X-166766067Y-86265707D01*
X-166766065Y-86265706D01*
X-166760757Y-86264284D01*
X-166755775Y-86261961D01*
X-166558238Y-86169849D01*
X-166558233Y-86169846D01*
X-166553251Y-86167523D01*
X-166448389Y-86094098D01*
X-166370211Y-86039357D01*
X-166370208Y-86039355D01*
X-166365700Y-86036198D01*
X-166203802Y-85874300D01*
X-166072477Y-85686749D01*
X-166070154Y-85681767D01*
X-166070151Y-85681762D01*
X-166054195Y-85647543D01*
X-166007278Y-85594258D01*
X-165939001Y-85574797D01*
X-165871041Y-85595339D01*
X-165825805Y-85647543D01*
X-165809849Y-85681762D01*
X-165809846Y-85681767D01*
X-165807523Y-85686749D01*
X-165676198Y-85874300D01*
X-165514300Y-86036198D01*
X-165509792Y-86039355D01*
X-165509789Y-86039357D01*
X-165431611Y-86094098D01*
X-165326749Y-86167523D01*
X-165321767Y-86169846D01*
X-165321762Y-86169849D01*
X-165124225Y-86261961D01*
X-165119243Y-86264284D01*
X-165113935Y-86265706D01*
X-165113933Y-86265707D01*
X-165045859Y-86283947D01*
X-164898087Y-86323543D01*
X-164788329Y-86333145D01*
X-164722212Y-86359008D01*
X-164710216Y-86369571D01*
X-161298056Y-89781732D01*
X-161264030Y-89844044D01*
X-161261151Y-89870827D01*
X-161261151Y-92395198D01*
X-161281153Y-92463319D01*
X-161311586Y-92496024D01*
X-161365912Y-92536739D01*
X-161453266Y-92653295D01*
X-161504396Y-92789684D01*
X-161511151Y-92851866D01*
X-161511151Y-94948134D01*
X-161504396Y-95010316D01*
X-161453266Y-95146705D01*
X-161365912Y-95263261D01*
X-161249356Y-95350615D01*
X-161112967Y-95401745D01*
X-161050785Y-95408500D01*
X-158954517Y-95408500D01*
X-158892335Y-95401745D01*
X-158755946Y-95350615D01*
X-158639390Y-95263261D01*
X-158552036Y-95146705D01*
X-158546775Y-95132670D01*
X-155870491Y-95132670D01*
X-155864764Y-95140320D01*
X-155693609Y-95245205D01*
X-155684814Y-95249687D01*
X-155474663Y-95336734D01*
X-155465278Y-95339783D01*
X-155244097Y-95392885D01*
X-155234350Y-95394428D01*
X-155007581Y-95412275D01*
X-154997721Y-95412275D01*
X-154770952Y-95394428D01*
X-154761205Y-95392885D01*
X-154540024Y-95339783D01*
X-154530639Y-95336734D01*
X-154320488Y-95249687D01*
X-154311693Y-95245205D01*
X-154144206Y-95142568D01*
X-154134744Y-95132110D01*
X-154138527Y-95123334D01*
X-154989839Y-94272022D01*
X-155003783Y-94264408D01*
X-155005616Y-94264539D01*
X-155012231Y-94268790D01*
X-155863731Y-95120290D01*
X-155870491Y-95132670D01*
X-158546775Y-95132670D01*
X-158500906Y-95010316D01*
X-158494151Y-94948134D01*
X-158494151Y-93904930D01*
X-156514926Y-93904930D01*
X-156497079Y-94131699D01*
X-156495536Y-94141446D01*
X-156442434Y-94362627D01*
X-156439385Y-94372012D01*
X-156352338Y-94582163D01*
X-156347856Y-94590958D01*
X-156245219Y-94758445D01*
X-156234761Y-94767907D01*
X-156225985Y-94764124D01*
X-155374673Y-93912812D01*
X-155368295Y-93901132D01*
X-154638243Y-93901132D01*
X-154638112Y-93902965D01*
X-154633861Y-93909580D01*
X-153782361Y-94761080D01*
X-153769981Y-94767840D01*
X-153762331Y-94762113D01*
X-153754908Y-94750000D01*
X-152023165Y-94750000D01*
X-152004535Y-94986711D01*
X-152003381Y-94991518D01*
X-152003380Y-94991524D01*
X-151972466Y-95120290D01*
X-151949105Y-95217594D01*
X-151947212Y-95222165D01*
X-151947211Y-95222167D01*
X-151872474Y-95402598D01*
X-151858240Y-95436963D01*
X-151855654Y-95441183D01*
X-151736759Y-95635202D01*
X-151736755Y-95635208D01*
X-151734176Y-95639416D01*
X-151579969Y-95819969D01*
X-151399416Y-95974176D01*
X-151395208Y-95976755D01*
X-151395202Y-95976759D01*
X-151201183Y-96095654D01*
X-151196963Y-96098240D01*
X-151192393Y-96100133D01*
X-151192389Y-96100135D01*
X-150982167Y-96187211D01*
X-150977594Y-96189105D01*
X-150918367Y-96203324D01*
X-150751524Y-96243380D01*
X-150751518Y-96243381D01*
X-150746711Y-96244535D01*
X-150510000Y-96263165D01*
X-150273289Y-96244535D01*
X-150268482Y-96243381D01*
X-150268476Y-96243380D01*
X-150101633Y-96203324D01*
X-150042406Y-96189105D01*
X-150037833Y-96187211D01*
X-149827611Y-96100135D01*
X-149827607Y-96100133D01*
X-149823037Y-96098240D01*
X-149818817Y-96095654D01*
X-149624798Y-95976759D01*
X-149624792Y-95976755D01*
X-149620584Y-95974176D01*
X-149440031Y-95819969D01*
X-149436823Y-95816213D01*
X-149436818Y-95816208D01*
X-149335811Y-95697944D01*
X-149276361Y-95659134D01*
X-149205366Y-95658628D01*
X-149144189Y-95697944D01*
X-149043182Y-95816208D01*
X-149043177Y-95816213D01*
X-149039969Y-95819969D01*
X-148859416Y-95974176D01*
X-148855208Y-95976755D01*
X-148855202Y-95976759D01*
X-148661183Y-96095654D01*
X-148656963Y-96098240D01*
X-148652393Y-96100133D01*
X-148652389Y-96100135D01*
X-148442167Y-96187211D01*
X-148437594Y-96189105D01*
X-148378367Y-96203324D01*
X-148211524Y-96243380D01*
X-148211518Y-96243381D01*
X-148206711Y-96244535D01*
X-147970000Y-96263165D01*
X-147733289Y-96244535D01*
X-147728482Y-96243381D01*
X-147728476Y-96243380D01*
X-147561633Y-96203324D01*
X-147502406Y-96189105D01*
X-147497833Y-96187211D01*
X-147287611Y-96100135D01*
X-147287607Y-96100133D01*
X-147283037Y-96098240D01*
X-147278817Y-96095654D01*
X-147084798Y-95976759D01*
X-147084792Y-95976755D01*
X-147080584Y-95974176D01*
X-146900031Y-95819969D01*
X-146896823Y-95816213D01*
X-146896818Y-95816208D01*
X-146795811Y-95697944D01*
X-146736361Y-95659134D01*
X-146665366Y-95658628D01*
X-146604189Y-95697944D01*
X-146503182Y-95816208D01*
X-146503177Y-95816213D01*
X-146499969Y-95819969D01*
X-146319416Y-95974176D01*
X-146315208Y-95976755D01*
X-146315202Y-95976759D01*
X-146121183Y-96095654D01*
X-146116963Y-96098240D01*
X-146112393Y-96100133D01*
X-146112389Y-96100135D01*
X-145902167Y-96187211D01*
X-145897594Y-96189105D01*
X-145838367Y-96203324D01*
X-145671524Y-96243380D01*
X-145671518Y-96243381D01*
X-145666711Y-96244535D01*
X-145430000Y-96263165D01*
X-145193289Y-96244535D01*
X-145188482Y-96243381D01*
X-145188476Y-96243380D01*
X-145021633Y-96203324D01*
X-144962406Y-96189105D01*
X-144957833Y-96187211D01*
X-144747611Y-96100135D01*
X-144747607Y-96100133D01*
X-144743037Y-96098240D01*
X-144738817Y-96095654D01*
X-144544798Y-95976759D01*
X-144544792Y-95976755D01*
X-144540584Y-95974176D01*
X-144360031Y-95819969D01*
X-144356823Y-95816213D01*
X-144356818Y-95816208D01*
X-144255811Y-95697944D01*
X-144196361Y-95659134D01*
X-144125366Y-95658628D01*
X-144064189Y-95697944D01*
X-143963182Y-95816208D01*
X-143963177Y-95816213D01*
X-143959969Y-95819969D01*
X-143779416Y-95974176D01*
X-143775208Y-95976755D01*
X-143775202Y-95976759D01*
X-143581183Y-96095654D01*
X-143576963Y-96098240D01*
X-143572393Y-96100133D01*
X-143572389Y-96100135D01*
X-143362167Y-96187211D01*
X-143357594Y-96189105D01*
X-143298367Y-96203324D01*
X-143131524Y-96243380D01*
X-143131518Y-96243381D01*
X-143126711Y-96244535D01*
X-142890000Y-96263165D01*
X-142653289Y-96244535D01*
X-142648482Y-96243381D01*
X-142648476Y-96243380D01*
X-142481633Y-96203324D01*
X-142422406Y-96189105D01*
X-142417833Y-96187211D01*
X-142207611Y-96100135D01*
X-142207607Y-96100133D01*
X-142203037Y-96098240D01*
X-142198817Y-96095654D01*
X-142004798Y-95976759D01*
X-142004792Y-95976755D01*
X-142000584Y-95974176D01*
X-141989248Y-95964494D01*
X-141924459Y-95935462D01*
X-141854258Y-95946066D01*
X-141800935Y-95992940D01*
X-141796895Y-95999797D01*
X-141794787Y-96003647D01*
X-141718285Y-96105724D01*
X-141705724Y-96118285D01*
X-141603649Y-96194786D01*
X-141588054Y-96203324D01*
X-141467606Y-96248478D01*
X-141452351Y-96252105D01*
X-141401486Y-96257631D01*
X-141394672Y-96258000D01*
X-140622115Y-96258000D01*
X-140606876Y-96253525D01*
X-140605671Y-96252135D01*
X-140604000Y-96244452D01*
X-140604000Y-96239884D01*
X-140096000Y-96239884D01*
X-140091525Y-96255123D01*
X-140090135Y-96256328D01*
X-140082452Y-96257999D01*
X-139305331Y-96257999D01*
X-139298510Y-96257629D01*
X-139247648Y-96252105D01*
X-139232396Y-96248479D01*
X-139111946Y-96203324D01*
X-139096351Y-96194786D01*
X-138994276Y-96118285D01*
X-138981715Y-96105724D01*
X-138905214Y-96003649D01*
X-138896676Y-95988054D01*
X-138851522Y-95867606D01*
X-138847895Y-95852351D01*
X-138842369Y-95801486D01*
X-138842000Y-95794672D01*
X-138842000Y-95022115D01*
X-138846475Y-95006876D01*
X-138847865Y-95005671D01*
X-138855548Y-95004000D01*
X-140077885Y-95004000D01*
X-140093124Y-95008475D01*
X-140094329Y-95009865D01*
X-140096000Y-95017548D01*
X-140096000Y-96239884D01*
X-140604000Y-96239884D01*
X-140604000Y-94477885D01*
X-140096000Y-94477885D01*
X-140091525Y-94493124D01*
X-140090135Y-94494329D01*
X-140082452Y-94496000D01*
X-138860116Y-94496000D01*
X-138844877Y-94491525D01*
X-138843672Y-94490135D01*
X-138842001Y-94482452D01*
X-138842001Y-93705331D01*
X-138842371Y-93698510D01*
X-138847895Y-93647648D01*
X-138851521Y-93632396D01*
X-138896676Y-93511946D01*
X-138905214Y-93496351D01*
X-138981715Y-93394276D01*
X-138994276Y-93381715D01*
X-139096351Y-93305214D01*
X-139111946Y-93296676D01*
X-139232394Y-93251522D01*
X-139247649Y-93247895D01*
X-139298514Y-93242369D01*
X-139305328Y-93242000D01*
X-140077885Y-93242000D01*
X-140093124Y-93246475D01*
X-140094329Y-93247865D01*
X-140096000Y-93255548D01*
X-140096000Y-94477885D01*
X-140604000Y-94477885D01*
X-140604000Y-93260116D01*
X-140608475Y-93244877D01*
X-140609865Y-93243672D01*
X-140617548Y-93242001D01*
X-141394669Y-93242001D01*
X-141401490Y-93242371D01*
X-141452352Y-93247895D01*
X-141467604Y-93251521D01*
X-141588054Y-93296676D01*
X-141603649Y-93305214D01*
X-141705724Y-93381715D01*
X-141718285Y-93394276D01*
X-141794787Y-93496353D01*
X-141796895Y-93500203D01*
X-141799978Y-93503280D01*
X-141800172Y-93503538D01*
X-141800209Y-93503510D01*
X-141847152Y-93550350D01*
X-141916543Y-93565365D01*
X-141983036Y-93540481D01*
X-141989231Y-93535521D01*
X-142000584Y-93525824D01*
X-142203037Y-93401760D01*
X-142207607Y-93399867D01*
X-142207611Y-93399865D01*
X-142417833Y-93312789D01*
X-142417835Y-93312788D01*
X-142422406Y-93310895D01*
X-142502609Y-93291640D01*
X-142648476Y-93256620D01*
X-142648482Y-93256619D01*
X-142653289Y-93255465D01*
X-142890000Y-93236835D01*
X-143126711Y-93255465D01*
X-143131518Y-93256619D01*
X-143131524Y-93256620D01*
X-143277391Y-93291640D01*
X-143357594Y-93310895D01*
X-143362165Y-93312788D01*
X-143362167Y-93312789D01*
X-143572389Y-93399865D01*
X-143572393Y-93399867D01*
X-143576963Y-93401760D01*
X-143581183Y-93404346D01*
X-143775202Y-93523241D01*
X-143775208Y-93523245D01*
X-143779416Y-93525824D01*
X-143959969Y-93680031D01*
X-143963177Y-93683787D01*
X-143963182Y-93683792D01*
X-144064189Y-93802056D01*
X-144123639Y-93840866D01*
X-144194634Y-93841372D01*
X-144255811Y-93802056D01*
X-144356818Y-93683792D01*
X-144356823Y-93683787D01*
X-144360031Y-93680031D01*
X-144540584Y-93525824D01*
X-144544792Y-93523245D01*
X-144544798Y-93523241D01*
X-144738817Y-93404346D01*
X-144743037Y-93401760D01*
X-144747607Y-93399867D01*
X-144747611Y-93399865D01*
X-144957833Y-93312789D01*
X-144957835Y-93312788D01*
X-144962406Y-93310895D01*
X-145042609Y-93291640D01*
X-145188476Y-93256620D01*
X-145188482Y-93256619D01*
X-145193289Y-93255465D01*
X-145430000Y-93236835D01*
X-145666711Y-93255465D01*
X-145671518Y-93256619D01*
X-145671524Y-93256620D01*
X-145817391Y-93291640D01*
X-145897594Y-93310895D01*
X-145902165Y-93312788D01*
X-145902167Y-93312789D01*
X-146112389Y-93399865D01*
X-146112393Y-93399867D01*
X-146116963Y-93401760D01*
X-146121183Y-93404346D01*
X-146315202Y-93523241D01*
X-146315208Y-93523245D01*
X-146319416Y-93525824D01*
X-146499969Y-93680031D01*
X-146503177Y-93683787D01*
X-146503182Y-93683792D01*
X-146604189Y-93802056D01*
X-146663639Y-93840866D01*
X-146734634Y-93841372D01*
X-146795811Y-93802056D01*
X-146896818Y-93683792D01*
X-146896823Y-93683787D01*
X-146900031Y-93680031D01*
X-147080584Y-93525824D01*
X-147084792Y-93523245D01*
X-147084798Y-93523241D01*
X-147278817Y-93404346D01*
X-147283037Y-93401760D01*
X-147287607Y-93399867D01*
X-147287611Y-93399865D01*
X-147497833Y-93312789D01*
X-147497835Y-93312788D01*
X-147502406Y-93310895D01*
X-147582609Y-93291640D01*
X-147728476Y-93256620D01*
X-147728482Y-93256619D01*
X-147733289Y-93255465D01*
X-147970000Y-93236835D01*
X-148206711Y-93255465D01*
X-148211518Y-93256619D01*
X-148211524Y-93256620D01*
X-148357391Y-93291640D01*
X-148437594Y-93310895D01*
X-148442165Y-93312788D01*
X-148442167Y-93312789D01*
X-148652389Y-93399865D01*
X-148652393Y-93399867D01*
X-148656963Y-93401760D01*
X-148661183Y-93404346D01*
X-148855202Y-93523241D01*
X-148855208Y-93523245D01*
X-148859416Y-93525824D01*
X-149039969Y-93680031D01*
X-149043177Y-93683787D01*
X-149043182Y-93683792D01*
X-149144189Y-93802056D01*
X-149203639Y-93840866D01*
X-149274634Y-93841372D01*
X-149335811Y-93802056D01*
X-149436818Y-93683792D01*
X-149436823Y-93683787D01*
X-149440031Y-93680031D01*
X-149620584Y-93525824D01*
X-149624792Y-93523245D01*
X-149624798Y-93523241D01*
X-149818817Y-93404346D01*
X-149823037Y-93401760D01*
X-149827607Y-93399867D01*
X-149827611Y-93399865D01*
X-150037833Y-93312789D01*
X-150037835Y-93312788D01*
X-150042406Y-93310895D01*
X-150122609Y-93291640D01*
X-150268476Y-93256620D01*
X-150268482Y-93256619D01*
X-150273289Y-93255465D01*
X-150510000Y-93236835D01*
X-150746711Y-93255465D01*
X-150751518Y-93256619D01*
X-150751524Y-93256620D01*
X-150897391Y-93291640D01*
X-150977594Y-93310895D01*
X-150982165Y-93312788D01*
X-150982167Y-93312789D01*
X-151192389Y-93399865D01*
X-151192393Y-93399867D01*
X-151196963Y-93401760D01*
X-151201183Y-93404346D01*
X-151395202Y-93523241D01*
X-151395208Y-93523245D01*
X-151399416Y-93525824D01*
X-151579969Y-93680031D01*
X-151734176Y-93860584D01*
X-151736755Y-93864792D01*
X-151736759Y-93864798D01*
X-151796949Y-93963019D01*
X-151858240Y-94063037D01*
X-151949105Y-94282406D01*
X-151950260Y-94287218D01*
X-152000384Y-94496000D01*
X-152004535Y-94513289D01*
X-152023165Y-94750000D01*
X-153754908Y-94750000D01*
X-153657446Y-94590958D01*
X-153652964Y-94582163D01*
X-153565917Y-94372012D01*
X-153562868Y-94362627D01*
X-153509766Y-94141446D01*
X-153508223Y-94131699D01*
X-153490376Y-93904930D01*
X-153490376Y-93895070D01*
X-153508223Y-93668301D01*
X-153509766Y-93658554D01*
X-153562868Y-93437373D01*
X-153565917Y-93427988D01*
X-153652964Y-93217837D01*
X-153657446Y-93209042D01*
X-153760083Y-93041555D01*
X-153770541Y-93032093D01*
X-153779317Y-93035876D01*
X-154630629Y-93887188D01*
X-154638243Y-93901132D01*
X-155368295Y-93901132D01*
X-155367059Y-93898868D01*
X-155367190Y-93897035D01*
X-155371441Y-93890420D01*
X-156222941Y-93038920D01*
X-156235321Y-93032160D01*
X-156242971Y-93037887D01*
X-156347856Y-93209042D01*
X-156352338Y-93217837D01*
X-156439385Y-93427988D01*
X-156442434Y-93437373D01*
X-156495536Y-93658554D01*
X-156497079Y-93668301D01*
X-156514926Y-93895070D01*
X-156514926Y-93904930D01*
X-158494151Y-93904930D01*
X-158494151Y-92851866D01*
X-158500906Y-92789684D01*
X-158546565Y-92667890D01*
X-155870558Y-92667890D01*
X-155866775Y-92676666D01*
X-155015463Y-93527978D01*
X-155001519Y-93535592D01*
X-154999686Y-93535461D01*
X-154993071Y-93531210D01*
X-154141571Y-92679710D01*
X-154134811Y-92667330D01*
X-154140538Y-92659680D01*
X-154311693Y-92554795D01*
X-154320488Y-92550313D01*
X-154530639Y-92463266D01*
X-154540024Y-92460217D01*
X-154761205Y-92407115D01*
X-154770952Y-92405572D01*
X-154997721Y-92387725D01*
X-155007581Y-92387725D01*
X-155234350Y-92405572D01*
X-155244097Y-92407115D01*
X-155465278Y-92460217D01*
X-155474663Y-92463266D01*
X-155684814Y-92550313D01*
X-155693609Y-92554795D01*
X-155861096Y-92657432D01*
X-155870558Y-92667890D01*
X-158546565Y-92667890D01*
X-158552036Y-92653295D01*
X-158639390Y-92536739D01*
X-158693716Y-92496024D01*
X-158736231Y-92439165D01*
X-158744151Y-92395198D01*
X-158744151Y-91170000D01*
X-152163165Y-91170000D01*
X-152144535Y-91406711D01*
X-152143381Y-91411518D01*
X-152143380Y-91411524D01*
X-152116817Y-91522167D01*
X-152089105Y-91637594D01*
X-152087212Y-91642165D01*
X-152087211Y-91642167D01*
X-152004776Y-91841183D01*
X-151998240Y-91856963D01*
X-151995654Y-91861183D01*
X-151876759Y-92055202D01*
X-151876755Y-92055208D01*
X-151874176Y-92059416D01*
X-151719969Y-92239969D01*
X-151539416Y-92394176D01*
X-151535208Y-92396755D01*
X-151535202Y-92396759D01*
X-151357474Y-92505671D01*
X-151336963Y-92518240D01*
X-151332393Y-92520133D01*
X-151332389Y-92520135D01*
X-151122167Y-92607211D01*
X-151117594Y-92609105D01*
X-151037391Y-92628360D01*
X-150891524Y-92663380D01*
X-150891518Y-92663381D01*
X-150886711Y-92664535D01*
X-150650000Y-92683165D01*
X-150413289Y-92664535D01*
X-150408482Y-92663381D01*
X-150408476Y-92663380D01*
X-150262609Y-92628360D01*
X-150182406Y-92609105D01*
X-150177833Y-92607211D01*
X-149967611Y-92520135D01*
X-149967607Y-92520133D01*
X-149963037Y-92518240D01*
X-149942526Y-92505671D01*
X-149764798Y-92396759D01*
X-149764792Y-92396755D01*
X-149760584Y-92394176D01*
X-149580031Y-92239969D01*
X-149425824Y-92059416D01*
X-149423245Y-92055208D01*
X-149423241Y-92055202D01*
X-149304346Y-91861183D01*
X-149301760Y-91856963D01*
X-149295223Y-91841183D01*
X-149212789Y-91642167D01*
X-149212788Y-91642165D01*
X-149210895Y-91637594D01*
X-149183183Y-91522167D01*
X-149156620Y-91411524D01*
X-149156619Y-91411518D01*
X-149155465Y-91406711D01*
X-149136835Y-91170000D01*
X-149138409Y-91150000D01*
X-148863165Y-91150000D01*
X-148844535Y-91386711D01*
X-148843381Y-91391518D01*
X-148843380Y-91391524D01*
X-148838578Y-91411524D01*
X-148789105Y-91617594D01*
X-148787212Y-91622165D01*
X-148787211Y-91622167D01*
X-148717622Y-91790170D01*
X-148698240Y-91836963D01*
X-148695654Y-91841183D01*
X-148576759Y-92035202D01*
X-148576755Y-92035208D01*
X-148574176Y-92039416D01*
X-148419969Y-92219969D01*
X-148239416Y-92374176D01*
X-148235208Y-92376755D01*
X-148235202Y-92376759D01*
X-148099011Y-92460217D01*
X-148036963Y-92498240D01*
X-148032393Y-92500133D01*
X-148032389Y-92500135D01*
X-147822167Y-92587211D01*
X-147817594Y-92589105D01*
X-147742177Y-92607211D01*
X-147591524Y-92643380D01*
X-147591518Y-92643381D01*
X-147586711Y-92644535D01*
X-147350000Y-92663165D01*
X-147113289Y-92644535D01*
X-147108482Y-92643381D01*
X-147108476Y-92643380D01*
X-146957823Y-92607211D01*
X-146882406Y-92589105D01*
X-146877833Y-92587211D01*
X-146667611Y-92500135D01*
X-146667607Y-92500133D01*
X-146663037Y-92498240D01*
X-146600989Y-92460217D01*
X-146464798Y-92376759D01*
X-146464792Y-92376755D01*
X-146460584Y-92374176D01*
X-146280031Y-92219969D01*
X-146125824Y-92039416D01*
X-146123245Y-92035208D01*
X-146123241Y-92035202D01*
X-146004346Y-91841183D01*
X-146001760Y-91836963D01*
X-145982377Y-91790170D01*
X-145912789Y-91622167D01*
X-145912788Y-91622165D01*
X-145910895Y-91617594D01*
X-145861422Y-91411524D01*
X-145856620Y-91391524D01*
X-145856619Y-91391518D01*
X-145855465Y-91386711D01*
X-145836835Y-91150000D01*
X-145844705Y-91050000D01*
X-145463165Y-91050000D01*
X-145444535Y-91286711D01*
X-145443381Y-91291518D01*
X-145443380Y-91291524D01*
X-145421712Y-91381777D01*
X-145389105Y-91517594D01*
X-145298240Y-91736963D01*
X-145295654Y-91741183D01*
X-145176759Y-91935202D01*
X-145176755Y-91935208D01*
X-145174176Y-91939416D01*
X-145019969Y-92119969D01*
X-144839416Y-92274176D01*
X-144835208Y-92276755D01*
X-144835202Y-92276759D01*
X-144681472Y-92370965D01*
X-144636963Y-92398240D01*
X-144632393Y-92400133D01*
X-144632389Y-92400135D01*
X-144422167Y-92487211D01*
X-144417594Y-92489105D01*
X-144343572Y-92506876D01*
X-144191524Y-92543380D01*
X-144191518Y-92543381D01*
X-144186711Y-92544535D01*
X-143950000Y-92563165D01*
X-143713289Y-92544535D01*
X-143708482Y-92543381D01*
X-143708476Y-92543380D01*
X-143556428Y-92506876D01*
X-143482406Y-92489105D01*
X-143477833Y-92487211D01*
X-143267611Y-92400135D01*
X-143267607Y-92400133D01*
X-143263037Y-92398240D01*
X-143218528Y-92370965D01*
X-143064798Y-92276759D01*
X-143064792Y-92276755D01*
X-143060584Y-92274176D01*
X-142880031Y-92119969D01*
X-142725824Y-91939416D01*
X-142723245Y-91935208D01*
X-142723241Y-91935202D01*
X-142604346Y-91741183D01*
X-142601760Y-91736963D01*
X-142510895Y-91517594D01*
X-142478288Y-91381777D01*
X-142456620Y-91291524D01*
X-142456619Y-91291518D01*
X-142455465Y-91286711D01*
X-142444705Y-91150000D01*
X-142163165Y-91150000D01*
X-142144535Y-91386711D01*
X-142143381Y-91391518D01*
X-142143380Y-91391524D01*
X-142138578Y-91411524D01*
X-142089105Y-91617594D01*
X-142087212Y-91622165D01*
X-142087211Y-91622167D01*
X-142017622Y-91790170D01*
X-141998240Y-91836963D01*
X-141995654Y-91841183D01*
X-141876759Y-92035202D01*
X-141876755Y-92035208D01*
X-141874176Y-92039416D01*
X-141719969Y-92219969D01*
X-141539416Y-92374176D01*
X-141535208Y-92376755D01*
X-141535202Y-92376759D01*
X-141399011Y-92460217D01*
X-141336963Y-92498240D01*
X-141332393Y-92500133D01*
X-141332389Y-92500135D01*
X-141122167Y-92587211D01*
X-141117594Y-92589105D01*
X-141042177Y-92607211D01*
X-140891524Y-92643380D01*
X-140891518Y-92643381D01*
X-140886711Y-92644535D01*
X-140650000Y-92663165D01*
X-140413289Y-92644535D01*
X-140408482Y-92643381D01*
X-140408476Y-92643380D01*
X-140257823Y-92607211D01*
X-140182406Y-92589105D01*
X-140177833Y-92587211D01*
X-139967611Y-92500135D01*
X-139967607Y-92500133D01*
X-139963037Y-92498240D01*
X-139900989Y-92460217D01*
X-139764798Y-92376759D01*
X-139764792Y-92376755D01*
X-139760584Y-92374176D01*
X-139580031Y-92219969D01*
X-139425824Y-92039416D01*
X-139423245Y-92035208D01*
X-139423241Y-92035202D01*
X-139304346Y-91841183D01*
X-139301760Y-91836963D01*
X-139282377Y-91790170D01*
X-139212789Y-91622167D01*
X-139212788Y-91622165D01*
X-139210895Y-91617594D01*
X-139161422Y-91411524D01*
X-139156620Y-91391524D01*
X-139156619Y-91391518D01*
X-139155465Y-91386711D01*
X-139136835Y-91150000D01*
X-139155465Y-90913289D01*
X-139171211Y-90847699D01*
X-139204938Y-90707218D01*
X-139210895Y-90682406D01*
X-139237361Y-90618510D01*
X-139299865Y-90467611D01*
X-139299867Y-90467607D01*
X-139301760Y-90463037D01*
X-139365626Y-90358817D01*
X-139423241Y-90264798D01*
X-139423245Y-90264792D01*
X-139425824Y-90260584D01*
X-139580031Y-90080031D01*
X-139760584Y-89925824D01*
X-139764792Y-89923245D01*
X-139764798Y-89923241D01*
X-139958817Y-89804346D01*
X-139963037Y-89801760D01*
X-139967607Y-89799867D01*
X-139967611Y-89799865D01*
X-140177833Y-89712789D01*
X-140177835Y-89712788D01*
X-140182406Y-89710895D01*
X-140262609Y-89691640D01*
X-140408476Y-89656620D01*
X-140408482Y-89656619D01*
X-140413289Y-89655465D01*
X-140650000Y-89636835D01*
X-140886711Y-89655465D01*
X-140891518Y-89656619D01*
X-140891524Y-89656620D01*
X-141037391Y-89691640D01*
X-141117594Y-89710895D01*
X-141122165Y-89712788D01*
X-141122167Y-89712789D01*
X-141332389Y-89799865D01*
X-141332393Y-89799867D01*
X-141336963Y-89801760D01*
X-141341183Y-89804346D01*
X-141535202Y-89923241D01*
X-141535208Y-89923245D01*
X-141539416Y-89925824D01*
X-141719969Y-90080031D01*
X-141874176Y-90260584D01*
X-141876755Y-90264792D01*
X-141876759Y-90264798D01*
X-141934374Y-90358817D01*
X-141998240Y-90463037D01*
X-142000133Y-90467607D01*
X-142000135Y-90467611D01*
X-142062639Y-90618510D01*
X-142089105Y-90682406D01*
X-142095062Y-90707218D01*
X-142128788Y-90847699D01*
X-142144535Y-90913289D01*
X-142163165Y-91150000D01*
X-142444705Y-91150000D01*
X-142436835Y-91050000D01*
X-142455465Y-90813289D01*
X-142459589Y-90796109D01*
X-142506819Y-90599385D01*
X-142510895Y-90582406D01*
X-142517163Y-90567273D01*
X-142599865Y-90367611D01*
X-142599867Y-90367607D01*
X-142601760Y-90363037D01*
X-142649705Y-90284798D01*
X-142723241Y-90164798D01*
X-142723245Y-90164792D01*
X-142725824Y-90160584D01*
X-142880031Y-89980031D01*
X-143060584Y-89825824D01*
X-143064792Y-89823245D01*
X-143064798Y-89823241D01*
X-143258817Y-89704346D01*
X-143263037Y-89701760D01*
X-143267607Y-89699867D01*
X-143267611Y-89699865D01*
X-143477833Y-89612789D01*
X-143477835Y-89612788D01*
X-143482406Y-89610895D01*
X-143562609Y-89591640D01*
X-143708476Y-89556620D01*
X-143708482Y-89556619D01*
X-143713289Y-89555465D01*
X-143950000Y-89536835D01*
X-144186711Y-89555465D01*
X-144191518Y-89556619D01*
X-144191524Y-89556620D01*
X-144337391Y-89591640D01*
X-144417594Y-89610895D01*
X-144422165Y-89612788D01*
X-144422167Y-89612789D01*
X-144632389Y-89699865D01*
X-144632393Y-89699867D01*
X-144636963Y-89701760D01*
X-144641183Y-89704346D01*
X-144835202Y-89823241D01*
X-144835208Y-89823245D01*
X-144839416Y-89825824D01*
X-145019969Y-89980031D01*
X-145174176Y-90160584D01*
X-145176755Y-90164792D01*
X-145176759Y-90164798D01*
X-145250295Y-90284798D01*
X-145298240Y-90363037D01*
X-145300133Y-90367607D01*
X-145300135Y-90367611D01*
X-145382837Y-90567273D01*
X-145389105Y-90582406D01*
X-145393181Y-90599385D01*
X-145440410Y-90796109D01*
X-145444535Y-90813289D01*
X-145463165Y-91050000D01*
X-145844705Y-91050000D01*
X-145855465Y-90913289D01*
X-145871211Y-90847699D01*
X-145904938Y-90707218D01*
X-145910895Y-90682406D01*
X-145937361Y-90618510D01*
X-145999865Y-90467611D01*
X-145999867Y-90467607D01*
X-146001760Y-90463037D01*
X-146065626Y-90358817D01*
X-146123241Y-90264798D01*
X-146123245Y-90264792D01*
X-146125824Y-90260584D01*
X-146280031Y-90080031D01*
X-146460584Y-89925824D01*
X-146464792Y-89923245D01*
X-146464798Y-89923241D01*
X-146658817Y-89804346D01*
X-146663037Y-89801760D01*
X-146667607Y-89799867D01*
X-146667611Y-89799865D01*
X-146877833Y-89712789D01*
X-146877835Y-89712788D01*
X-146882406Y-89710895D01*
X-146962609Y-89691640D01*
X-147108476Y-89656620D01*
X-147108482Y-89656619D01*
X-147113289Y-89655465D01*
X-147350000Y-89636835D01*
X-147586711Y-89655465D01*
X-147591518Y-89656619D01*
X-147591524Y-89656620D01*
X-147737391Y-89691640D01*
X-147817594Y-89710895D01*
X-147822165Y-89712788D01*
X-147822167Y-89712789D01*
X-148032389Y-89799865D01*
X-148032393Y-89799867D01*
X-148036963Y-89801760D01*
X-148041183Y-89804346D01*
X-148235202Y-89923241D01*
X-148235208Y-89923245D01*
X-148239416Y-89925824D01*
X-148419969Y-90080031D01*
X-148574176Y-90260584D01*
X-148576755Y-90264792D01*
X-148576759Y-90264798D01*
X-148634374Y-90358817D01*
X-148698240Y-90463037D01*
X-148700133Y-90467607D01*
X-148700135Y-90467611D01*
X-148762639Y-90618510D01*
X-148789105Y-90682406D01*
X-148795062Y-90707218D01*
X-148828788Y-90847699D01*
X-148844535Y-90913289D01*
X-148863165Y-91150000D01*
X-149138409Y-91150000D01*
X-149155465Y-90933289D01*
X-149160266Y-90913289D01*
X-149209740Y-90707218D01*
X-149210895Y-90702406D01*
X-149221073Y-90677833D01*
X-149299865Y-90487611D01*
X-149299867Y-90487607D01*
X-149301760Y-90483037D01*
X-149316602Y-90458817D01*
X-149423241Y-90284798D01*
X-149423245Y-90284792D01*
X-149425824Y-90280584D01*
X-149580031Y-90100031D01*
X-149760584Y-89945824D01*
X-149764792Y-89943245D01*
X-149764798Y-89943241D01*
X-149958817Y-89824346D01*
X-149963037Y-89821760D01*
X-149967607Y-89819867D01*
X-149967611Y-89819865D01*
X-150177833Y-89732789D01*
X-150177835Y-89732788D01*
X-150182406Y-89730895D01*
X-150270523Y-89709740D01*
X-150408476Y-89676620D01*
X-150408482Y-89676619D01*
X-150413289Y-89675465D01*
X-150650000Y-89656835D01*
X-150886711Y-89675465D01*
X-150891518Y-89676619D01*
X-150891524Y-89676620D01*
X-151029477Y-89709740D01*
X-151117594Y-89730895D01*
X-151122165Y-89732788D01*
X-151122167Y-89732789D01*
X-151332389Y-89819865D01*
X-151332393Y-89819867D01*
X-151336963Y-89821760D01*
X-151341183Y-89824346D01*
X-151535202Y-89943241D01*
X-151535208Y-89943245D01*
X-151539416Y-89945824D01*
X-151719969Y-90100031D01*
X-151874176Y-90280584D01*
X-151876755Y-90284792D01*
X-151876759Y-90284798D01*
X-151983398Y-90458817D01*
X-151998240Y-90483037D01*
X-152000133Y-90487607D01*
X-152000135Y-90487611D01*
X-152078927Y-90677833D01*
X-152089105Y-90702406D01*
X-152090260Y-90707218D01*
X-152139733Y-90913289D01*
X-152144535Y-90933289D01*
X-152163165Y-91170000D01*
X-158744151Y-91170000D01*
X-158744151Y-89388744D01*
X-158743073Y-89372297D01*
X-158740905Y-89355832D01*
X-158740905Y-89355828D01*
X-158740172Y-89350262D01*
X-158744011Y-89268860D01*
X-158744151Y-89262925D01*
X-158744151Y-89240350D01*
X-158746470Y-89214360D01*
X-158746829Y-89209098D01*
X-158750491Y-89131462D01*
X-158750755Y-89125861D01*
X-158754759Y-89108379D01*
X-158757440Y-89091449D01*
X-158758535Y-89079181D01*
X-158759034Y-89073587D01*
X-158781021Y-88993216D01*
X-158782307Y-88988098D01*
X-158799656Y-88912349D01*
X-158799657Y-88912347D01*
X-158800909Y-88906879D01*
X-158807945Y-88890382D01*
X-158813578Y-88874207D01*
X-158816833Y-88862310D01*
X-158816834Y-88862306D01*
X-158818314Y-88856898D01*
X-158854190Y-88781682D01*
X-158856361Y-88776873D01*
X-158886847Y-88705400D01*
X-158886847Y-88705399D01*
X-158889048Y-88700240D01*
X-158898902Y-88685239D01*
X-158907308Y-88670319D01*
X-158912616Y-88659190D01*
X-158915029Y-88654131D01*
X-158918297Y-88649583D01*
X-158918300Y-88649578D01*
X-158963653Y-88586463D01*
X-158966642Y-88582114D01*
X-159012386Y-88512474D01*
X-159030904Y-88491690D01*
X-159039153Y-88481394D01*
X-159042847Y-88476253D01*
X-159046122Y-88471695D01*
X-159122874Y-88397317D01*
X-159124284Y-88395928D01*
X-163330429Y-84189783D01*
X-163364455Y-84127471D01*
X-163366855Y-84111669D01*
X-163375978Y-84007392D01*
X-163376457Y-84001913D01*
X-163407207Y-83887152D01*
X-163411500Y-83854543D01*
X-163411500Y-81010000D01*
X-152163165Y-81010000D01*
X-152144535Y-81246711D01*
X-152143381Y-81251518D01*
X-152143380Y-81251524D01*
X-152116817Y-81362167D01*
X-152089105Y-81477594D01*
X-152087212Y-81482165D01*
X-152087211Y-81482167D01*
X-152004776Y-81681183D01*
X-151998240Y-81696963D01*
X-151995654Y-81701183D01*
X-151876759Y-81895202D01*
X-151876755Y-81895208D01*
X-151874176Y-81899416D01*
X-151719969Y-82079969D01*
X-151539416Y-82234176D01*
X-151535208Y-82236755D01*
X-151535202Y-82236759D01*
X-151384507Y-82329105D01*
X-151336963Y-82358240D01*
X-151332393Y-82360133D01*
X-151332389Y-82360135D01*
X-151122167Y-82447211D01*
X-151117594Y-82449105D01*
X-151037391Y-82468360D01*
X-150891524Y-82503380D01*
X-150891518Y-82503381D01*
X-150886711Y-82504535D01*
X-150650000Y-82523165D01*
X-150413289Y-82504535D01*
X-150408482Y-82503381D01*
X-150408476Y-82503380D01*
X-150262609Y-82468360D01*
X-150182406Y-82449105D01*
X-150177833Y-82447211D01*
X-149967611Y-82360135D01*
X-149967607Y-82360133D01*
X-149963037Y-82358240D01*
X-149915493Y-82329105D01*
X-149764798Y-82236759D01*
X-149764792Y-82236755D01*
X-149760584Y-82234176D01*
X-149580031Y-82079969D01*
X-149425824Y-81899416D01*
X-149423245Y-81895208D01*
X-149423241Y-81895202D01*
X-149304346Y-81701183D01*
X-149301760Y-81696963D01*
X-149295223Y-81681183D01*
X-149212789Y-81482167D01*
X-149212788Y-81482165D01*
X-149210895Y-81477594D01*
X-149183183Y-81362167D01*
X-149156620Y-81251524D01*
X-149156619Y-81251518D01*
X-149155465Y-81246711D01*
X-149136835Y-81010000D01*
X-149138409Y-80990000D01*
X-148863165Y-80990000D01*
X-148844535Y-81226711D01*
X-148843381Y-81231518D01*
X-148843380Y-81231524D01*
X-148838578Y-81251524D01*
X-148789105Y-81457594D01*
X-148698240Y-81676963D01*
X-148695654Y-81681183D01*
X-148576759Y-81875202D01*
X-148576755Y-81875208D01*
X-148574176Y-81879416D01*
X-148419969Y-82059969D01*
X-148239416Y-82214176D01*
X-148235208Y-82216755D01*
X-148235202Y-82216759D01*
X-148054961Y-82327211D01*
X-148036963Y-82338240D01*
X-148032393Y-82340133D01*
X-148032389Y-82340135D01*
X-147822167Y-82427211D01*
X-147817594Y-82429105D01*
X-147742177Y-82447211D01*
X-147591524Y-82483380D01*
X-147591518Y-82483381D01*
X-147586711Y-82484535D01*
X-147350000Y-82503165D01*
X-147113289Y-82484535D01*
X-147108482Y-82483381D01*
X-147108476Y-82483380D01*
X-146957823Y-82447211D01*
X-146882406Y-82429105D01*
X-146877833Y-82427211D01*
X-146667611Y-82340135D01*
X-146667607Y-82340133D01*
X-146663037Y-82338240D01*
X-146645039Y-82327211D01*
X-146464798Y-82216759D01*
X-146464792Y-82216755D01*
X-146460584Y-82214176D01*
X-146280031Y-82059969D01*
X-146125824Y-81879416D01*
X-146123245Y-81875208D01*
X-146123241Y-81875202D01*
X-146004346Y-81681183D01*
X-146001760Y-81676963D01*
X-145910895Y-81457594D01*
X-145861422Y-81251524D01*
X-145856620Y-81231524D01*
X-145856619Y-81231518D01*
X-145855465Y-81226711D01*
X-145836835Y-80990000D01*
X-145844705Y-80890000D01*
X-145463165Y-80890000D01*
X-145444535Y-81126711D01*
X-145389105Y-81357594D01*
X-145298240Y-81576963D01*
X-145295654Y-81581183D01*
X-145176759Y-81775202D01*
X-145176755Y-81775208D01*
X-145174176Y-81779416D01*
X-145019969Y-81959969D01*
X-144839416Y-82114176D01*
X-144835208Y-82116755D01*
X-144835202Y-82116759D01*
X-144681472Y-82210965D01*
X-144636963Y-82238240D01*
X-144632393Y-82240133D01*
X-144632389Y-82240135D01*
X-144422167Y-82327211D01*
X-144417594Y-82329105D01*
X-144337391Y-82348360D01*
X-144191524Y-82383380D01*
X-144191518Y-82383381D01*
X-144186711Y-82384535D01*
X-143950000Y-82403165D01*
X-143713289Y-82384535D01*
X-143708482Y-82383381D01*
X-143708476Y-82383380D01*
X-143562609Y-82348360D01*
X-143482406Y-82329105D01*
X-143477833Y-82327211D01*
X-143267611Y-82240135D01*
X-143267607Y-82240133D01*
X-143263037Y-82238240D01*
X-143218528Y-82210965D01*
X-143064798Y-82116759D01*
X-143064792Y-82116755D01*
X-143060584Y-82114176D01*
X-142880031Y-81959969D01*
X-142725824Y-81779416D01*
X-142723245Y-81775208D01*
X-142723241Y-81775202D01*
X-142604346Y-81581183D01*
X-142601760Y-81576963D01*
X-142510895Y-81357594D01*
X-142455465Y-81126711D01*
X-142444705Y-80990000D01*
X-142163165Y-80990000D01*
X-142144535Y-81226711D01*
X-142143381Y-81231518D01*
X-142143380Y-81231524D01*
X-142138578Y-81251524D01*
X-142089105Y-81457594D01*
X-141998240Y-81676963D01*
X-141995654Y-81681183D01*
X-141876759Y-81875202D01*
X-141876755Y-81875208D01*
X-141874176Y-81879416D01*
X-141719969Y-82059969D01*
X-141539416Y-82214176D01*
X-141535208Y-82216755D01*
X-141535202Y-82216759D01*
X-141354961Y-82327211D01*
X-141336963Y-82338240D01*
X-141332393Y-82340133D01*
X-141332389Y-82340135D01*
X-141122167Y-82427211D01*
X-141117594Y-82429105D01*
X-141042177Y-82447211D01*
X-140891524Y-82483380D01*
X-140891518Y-82483381D01*
X-140886711Y-82484535D01*
X-140650000Y-82503165D01*
X-140413289Y-82484535D01*
X-140408482Y-82483381D01*
X-140408476Y-82483380D01*
X-140257823Y-82447211D01*
X-140182406Y-82429105D01*
X-140177833Y-82427211D01*
X-139967611Y-82340135D01*
X-139967607Y-82340133D01*
X-139963037Y-82338240D01*
X-139945039Y-82327211D01*
X-139764798Y-82216759D01*
X-139764792Y-82216755D01*
X-139760584Y-82214176D01*
X-139580031Y-82059969D01*
X-139425824Y-81879416D01*
X-139423245Y-81875208D01*
X-139423241Y-81875202D01*
X-139304346Y-81681183D01*
X-139301760Y-81676963D01*
X-139210895Y-81457594D01*
X-139161422Y-81251524D01*
X-139156620Y-81231524D01*
X-139156619Y-81231518D01*
X-139155465Y-81226711D01*
X-139136835Y-80990000D01*
X-139155465Y-80753289D01*
X-139210895Y-80522406D01*
X-139291581Y-80327611D01*
X-139299865Y-80307611D01*
X-139299867Y-80307607D01*
X-139301760Y-80303037D01*
X-139365626Y-80198817D01*
X-139423241Y-80104798D01*
X-139423245Y-80104792D01*
X-139425824Y-80100584D01*
X-139580031Y-79920031D01*
X-139760584Y-79765824D01*
X-139764792Y-79763245D01*
X-139764798Y-79763241D01*
X-139958817Y-79644346D01*
X-139963037Y-79641760D01*
X-139967607Y-79639867D01*
X-139967611Y-79639865D01*
X-140177833Y-79552789D01*
X-140177835Y-79552788D01*
X-140182406Y-79550895D01*
X-140262609Y-79531640D01*
X-140408476Y-79496620D01*
X-140408482Y-79496619D01*
X-140413289Y-79495465D01*
X-140650000Y-79476835D01*
X-140886711Y-79495465D01*
X-140891518Y-79496619D01*
X-140891524Y-79496620D01*
X-141037391Y-79531640D01*
X-141117594Y-79550895D01*
X-141122165Y-79552788D01*
X-141122167Y-79552789D01*
X-141332389Y-79639865D01*
X-141332393Y-79639867D01*
X-141336963Y-79641760D01*
X-141341183Y-79644346D01*
X-141535202Y-79763241D01*
X-141535208Y-79763245D01*
X-141539416Y-79765824D01*
X-141719969Y-79920031D01*
X-141874176Y-80100584D01*
X-141876755Y-80104792D01*
X-141876759Y-80104798D01*
X-141934374Y-80198817D01*
X-141998240Y-80303037D01*
X-142000133Y-80307607D01*
X-142000135Y-80307611D01*
X-142008419Y-80327611D01*
X-142089105Y-80522406D01*
X-142144535Y-80753289D01*
X-142163165Y-80990000D01*
X-142444705Y-80990000D01*
X-142436835Y-80890000D01*
X-142455465Y-80653289D01*
X-142482085Y-80542406D01*
X-142509740Y-80427218D01*
X-142510895Y-80422406D01*
X-142550160Y-80327611D01*
X-142599865Y-80207611D01*
X-142599867Y-80207607D01*
X-142601760Y-80203037D01*
X-142649705Y-80124798D01*
X-142723241Y-80004798D01*
X-142723245Y-80004792D01*
X-142725824Y-80000584D01*
X-142880031Y-79820031D01*
X-143060584Y-79665824D01*
X-143064792Y-79663245D01*
X-143064798Y-79663241D01*
X-143258817Y-79544346D01*
X-143263037Y-79541760D01*
X-143267607Y-79539867D01*
X-143267611Y-79539865D01*
X-143477833Y-79452789D01*
X-143477835Y-79452788D01*
X-143482406Y-79450895D01*
X-143562609Y-79431640D01*
X-143708476Y-79396620D01*
X-143708482Y-79396619D01*
X-143713289Y-79395465D01*
X-143950000Y-79376835D01*
X-144186711Y-79395465D01*
X-144191518Y-79396619D01*
X-144191524Y-79396620D01*
X-144337391Y-79431640D01*
X-144417594Y-79450895D01*
X-144422165Y-79452788D01*
X-144422167Y-79452789D01*
X-144632389Y-79539865D01*
X-144632393Y-79539867D01*
X-144636963Y-79541760D01*
X-144641183Y-79544346D01*
X-144835202Y-79663241D01*
X-144835208Y-79663245D01*
X-144839416Y-79665824D01*
X-145019969Y-79820031D01*
X-145174176Y-80000584D01*
X-145176755Y-80004792D01*
X-145176759Y-80004798D01*
X-145250295Y-80124798D01*
X-145298240Y-80203037D01*
X-145300133Y-80207607D01*
X-145300135Y-80207611D01*
X-145349840Y-80327611D01*
X-145389105Y-80422406D01*
X-145390260Y-80427218D01*
X-145417914Y-80542406D01*
X-145444535Y-80653289D01*
X-145463165Y-80890000D01*
X-145844705Y-80890000D01*
X-145855465Y-80753289D01*
X-145910895Y-80522406D01*
X-145991581Y-80327611D01*
X-145999865Y-80307611D01*
X-145999867Y-80307607D01*
X-146001760Y-80303037D01*
X-146065626Y-80198817D01*
X-146123241Y-80104798D01*
X-146123245Y-80104792D01*
X-146125824Y-80100584D01*
X-146280031Y-79920031D01*
X-146460584Y-79765824D01*
X-146464792Y-79763245D01*
X-146464798Y-79763241D01*
X-146658817Y-79644346D01*
X-146663037Y-79641760D01*
X-146667607Y-79639867D01*
X-146667611Y-79639865D01*
X-146877833Y-79552789D01*
X-146877835Y-79552788D01*
X-146882406Y-79550895D01*
X-146962609Y-79531640D01*
X-147108476Y-79496620D01*
X-147108482Y-79496619D01*
X-147113289Y-79495465D01*
X-147350000Y-79476835D01*
X-147586711Y-79495465D01*
X-147591518Y-79496619D01*
X-147591524Y-79496620D01*
X-147737391Y-79531640D01*
X-147817594Y-79550895D01*
X-147822165Y-79552788D01*
X-147822167Y-79552789D01*
X-148032389Y-79639865D01*
X-148032393Y-79639867D01*
X-148036963Y-79641760D01*
X-148041183Y-79644346D01*
X-148235202Y-79763241D01*
X-148235208Y-79763245D01*
X-148239416Y-79765824D01*
X-148419969Y-79920031D01*
X-148574176Y-80100584D01*
X-148576755Y-80104792D01*
X-148576759Y-80104798D01*
X-148634374Y-80198817D01*
X-148698240Y-80303037D01*
X-148700133Y-80307607D01*
X-148700135Y-80307611D01*
X-148708419Y-80327611D01*
X-148789105Y-80522406D01*
X-148844535Y-80753289D01*
X-148863165Y-80990000D01*
X-149138409Y-80990000D01*
X-149155465Y-80773289D01*
X-149160266Y-80753289D01*
X-149209740Y-80547218D01*
X-149210895Y-80542406D01*
X-149301760Y-80323037D01*
X-149316602Y-80298817D01*
X-149423241Y-80124798D01*
X-149423245Y-80124792D01*
X-149425824Y-80120584D01*
X-149580031Y-79940031D01*
X-149760584Y-79785824D01*
X-149764792Y-79783245D01*
X-149764798Y-79783241D01*
X-149958817Y-79664346D01*
X-149963037Y-79661760D01*
X-149967607Y-79659867D01*
X-149967611Y-79659865D01*
X-150177833Y-79572789D01*
X-150177835Y-79572788D01*
X-150182406Y-79570895D01*
X-150270523Y-79549740D01*
X-150408476Y-79516620D01*
X-150408482Y-79516619D01*
X-150413289Y-79515465D01*
X-150650000Y-79496835D01*
X-150886711Y-79515465D01*
X-150891518Y-79516619D01*
X-150891524Y-79516620D01*
X-151029477Y-79549740D01*
X-151117594Y-79570895D01*
X-151122165Y-79572788D01*
X-151122167Y-79572789D01*
X-151332389Y-79659865D01*
X-151332393Y-79659867D01*
X-151336963Y-79661760D01*
X-151341183Y-79664346D01*
X-151535202Y-79783241D01*
X-151535208Y-79783245D01*
X-151539416Y-79785824D01*
X-151719969Y-79940031D01*
X-151874176Y-80120584D01*
X-151876755Y-80124792D01*
X-151876759Y-80124798D01*
X-151983398Y-80298817D01*
X-151998240Y-80323037D01*
X-152089105Y-80542406D01*
X-152090260Y-80547218D01*
X-152139733Y-80753289D01*
X-152144535Y-80773289D01*
X-152163165Y-81010000D01*
X-163411500Y-81010000D01*
X-163411500Y-78089926D01*
X-163391498Y-78021805D01*
X-163374596Y-78000831D01*
X-163019171Y-77645405D01*
X-162956858Y-77611380D01*
X-162930075Y-77608500D01*
X-146541396Y-77608500D01*
X-146524949Y-77609578D01*
X-146508484Y-77611746D01*
X-146508480Y-77611746D01*
X-146502914Y-77612479D01*
X-146421511Y-77608640D01*
X-146415576Y-77608500D01*
X-124341396Y-77608500D01*
X-124324949Y-77609578D01*
X-124308484Y-77611746D01*
X-124308480Y-77611746D01*
X-124302914Y-77612479D01*
X-124221511Y-77608640D01*
X-124215576Y-77608500D01*
X-124193001Y-77608500D01*
X-124167011Y-77606181D01*
X-124161752Y-77605822D01*
X-124078512Y-77601896D01*
X-124073053Y-77600646D01*
X-124073048Y-77600645D01*
X-124061030Y-77597892D01*
X-124044101Y-77595211D01*
X-124026238Y-77593617D01*
X-124020822Y-77592135D01*
X-124020820Y-77592135D01*
X-123945867Y-77571630D01*
X-123940749Y-77570344D01*
X-123865000Y-77552995D01*
X-123864998Y-77552994D01*
X-123859530Y-77551742D01*
X-123849030Y-77547263D01*
X-123843033Y-77544706D01*
X-123826858Y-77539073D01*
X-123814961Y-77535818D01*
X-123814957Y-77535817D01*
X-123809549Y-77534337D01*
X-123739174Y-77500770D01*
X-123734333Y-77498461D01*
X-123729524Y-77496290D01*
X-123658051Y-77465804D01*
X-123658050Y-77465804D01*
X-123652891Y-77463603D01*
X-123637890Y-77453749D01*
X-123622975Y-77445346D01*
X-123606782Y-77437622D01*
X-123602231Y-77434352D01*
X-123602228Y-77434350D01*
X-123569004Y-77410476D01*
X-123539108Y-77388994D01*
X-123534768Y-77386011D01*
X-123468990Y-77342804D01*
X-123468982Y-77342798D01*
X-123465126Y-77340265D01*
X-123444338Y-77321743D01*
X-123434061Y-77313510D01*
X-123424346Y-77306529D01*
X-123349937Y-77229745D01*
X-123348548Y-77228335D01*
X-121789353Y-75669140D01*
X-121784078Y-75664159D01*
X-121777069Y-75657914D01*
X-121728886Y-75614984D01*
X-121725430Y-75610577D01*
X-121725421Y-75610567D01*
X-121673012Y-75543727D01*
X-121670521Y-75540651D01*
X-121616010Y-75475457D01*
X-121616007Y-75475453D01*
X-121612406Y-75471146D01*
X-121607127Y-75461891D01*
X-121596835Y-75446576D01*
X-121593734Y-75442622D01*
X-121593730Y-75442616D01*
X-121590266Y-75438198D01*
X-121547866Y-75358119D01*
X-121545988Y-75354703D01*
X-121544363Y-75351855D01*
X-121501101Y-75276007D01*
X-121497544Y-75265962D01*
X-121490131Y-75249074D01*
X-121485146Y-75239659D01*
X-121483439Y-75234310D01*
X-121483436Y-75234303D01*
X-121457609Y-75153375D01*
X-121456362Y-75149667D01*
X-121426111Y-75064241D01*
X-121424391Y-75053737D01*
X-121420084Y-75035797D01*
X-121418551Y-75030993D01*
X-121418550Y-75030989D01*
X-121416844Y-75025643D01*
X-121414084Y-75004684D01*
X-121405021Y-74935840D01*
X-121404443Y-74931925D01*
X-121394292Y-74869939D01*
X-121389806Y-74842542D01*
X-121389973Y-74831899D01*
X-121388911Y-74813476D01*
X-121388254Y-74808488D01*
X-121388254Y-74808476D01*
X-121387521Y-74802913D01*
X-121391788Y-74712427D01*
X-121391912Y-74708472D01*
X-121393247Y-74623532D01*
X-121393335Y-74617919D01*
X-121394415Y-74612413D01*
X-121395002Y-74606828D01*
X-121394878Y-74606815D01*
X-121396612Y-74588972D01*
X-121396612Y-72536062D01*
X-120876619Y-72536062D01*
X-120867323Y-72548077D01*
X-120816118Y-72583931D01*
X-120806623Y-72589414D01*
X-120609165Y-72681490D01*
X-120598873Y-72685236D01*
X-120388424Y-72741625D01*
X-120377631Y-72743528D01*
X-120160587Y-72762517D01*
X-120149637Y-72762517D01*
X-119932593Y-72743528D01*
X-119921800Y-72741625D01*
X-119711351Y-72685236D01*
X-119701059Y-72681490D01*
X-119503601Y-72589414D01*
X-119494106Y-72583931D01*
X-119442064Y-72547491D01*
X-119433688Y-72537012D01*
X-119440756Y-72523566D01*
X-120142300Y-71822022D01*
X-120156244Y-71814408D01*
X-120158077Y-71814539D01*
X-120164692Y-71818790D01*
X-120870189Y-72524287D01*
X-120876619Y-72536062D01*
X-121396612Y-72536062D01*
X-121396612Y-72498513D01*
X-121388594Y-72454284D01*
X-121356139Y-72367711D01*
X-121356139Y-72367709D01*
X-121353367Y-72360316D01*
X-121346612Y-72298134D01*
X-121346612Y-72294815D01*
X-121322959Y-72227890D01*
X-121276956Y-72192196D01*
X-121277971Y-72190266D01*
X-121267112Y-72184558D01*
X-121266867Y-72184368D01*
X-121266709Y-72184347D01*
X-121228678Y-72164356D01*
X-120527134Y-71462812D01*
X-120519520Y-71448868D01*
X-120519651Y-71447035D01*
X-120523902Y-71440420D01*
X-121229399Y-70734923D01*
X-121271141Y-70712129D01*
X-121281141Y-70709953D01*
X-121331339Y-70659747D01*
X-121346563Y-70606186D01*
X-121346612Y-70605281D01*
X-121346612Y-70601866D01*
X-121353367Y-70539684D01*
X-121404497Y-70403295D01*
X-121434705Y-70362988D01*
X-120876536Y-70362988D01*
X-120869468Y-70376434D01*
X-120167924Y-71077978D01*
X-120153980Y-71085592D01*
X-120152147Y-71085461D01*
X-120145532Y-71081210D01*
X-119440035Y-70375713D01*
X-119433605Y-70363938D01*
X-119442901Y-70351923D01*
X-119494106Y-70316069D01*
X-119503601Y-70310586D01*
X-119701059Y-70218510D01*
X-119711351Y-70214764D01*
X-119921800Y-70158375D01*
X-119932593Y-70156472D01*
X-120149637Y-70137483D01*
X-120160587Y-70137483D01*
X-120377631Y-70156472D01*
X-120388424Y-70158375D01*
X-120598873Y-70214764D01*
X-120609165Y-70218510D01*
X-120806623Y-70310586D01*
X-120816118Y-70316069D01*
X-120868160Y-70352509D01*
X-120876536Y-70362988D01*
X-121434705Y-70362988D01*
X-121491851Y-70286739D01*
X-121608407Y-70199385D01*
X-121744796Y-70148255D01*
X-121806978Y-70141500D01*
X-123503246Y-70141500D01*
X-123565428Y-70148255D01*
X-123701817Y-70199385D01*
X-123818373Y-70286739D01*
X-123905727Y-70403295D01*
X-123956857Y-70539684D01*
X-123963612Y-70601866D01*
X-123963612Y-72298134D01*
X-123956857Y-72360316D01*
X-123954085Y-72367709D01*
X-123954085Y-72367711D01*
X-123921630Y-72454284D01*
X-123913612Y-72498513D01*
X-123913612Y-74181634D01*
X-123933614Y-74249755D01*
X-123950517Y-74270729D01*
X-124734383Y-75054595D01*
X-124796695Y-75088621D01*
X-124823478Y-75091500D01*
X-143670193Y-75091500D01*
X-143738314Y-75071498D01*
X-143784807Y-75017842D01*
X-143796177Y-74967480D01*
X-143796596Y-74940819D01*
X-143796612Y-74938839D01*
X-143796612Y-72636062D01*
X-143276619Y-72636062D01*
X-143267323Y-72648077D01*
X-143216118Y-72683931D01*
X-143206623Y-72689414D01*
X-143009165Y-72781490D01*
X-142998873Y-72785236D01*
X-142788424Y-72841625D01*
X-142777631Y-72843528D01*
X-142560587Y-72862517D01*
X-142549637Y-72862517D01*
X-142332593Y-72843528D01*
X-142321800Y-72841625D01*
X-142111351Y-72785236D01*
X-142101059Y-72781490D01*
X-141903601Y-72689414D01*
X-141894106Y-72683931D01*
X-141842064Y-72647491D01*
X-141833688Y-72637012D01*
X-141840756Y-72623566D01*
X-142542300Y-71922022D01*
X-142556244Y-71914408D01*
X-142558077Y-71914539D01*
X-142564692Y-71918790D01*
X-143270189Y-72624287D01*
X-143276619Y-72636062D01*
X-143796612Y-72636062D01*
X-143796612Y-72598513D01*
X-143788594Y-72554284D01*
X-143756139Y-72467711D01*
X-143756139Y-72467709D01*
X-143753367Y-72460316D01*
X-143751652Y-72444535D01*
X-143746979Y-72401514D01*
X-143746979Y-72401511D01*
X-143746612Y-72398134D01*
X-143746612Y-72394815D01*
X-143722959Y-72327890D01*
X-143676956Y-72292196D01*
X-143677971Y-72290266D01*
X-143667112Y-72284558D01*
X-143666867Y-72284368D01*
X-143666709Y-72284347D01*
X-143628678Y-72264356D01*
X-142927134Y-71562812D01*
X-142920756Y-71551132D01*
X-142190704Y-71551132D01*
X-142190573Y-71552965D01*
X-142186322Y-71559580D01*
X-141480825Y-72265077D01*
X-141469050Y-72271507D01*
X-141457035Y-72262211D01*
X-141421181Y-72211006D01*
X-141415698Y-72201511D01*
X-141323622Y-72004053D01*
X-141319876Y-71993761D01*
X-141263487Y-71783312D01*
X-141261584Y-71772519D01*
X-141242595Y-71555475D01*
X-141242595Y-71544525D01*
X-141261584Y-71327481D01*
X-141263487Y-71316688D01*
X-141319876Y-71106239D01*
X-141323622Y-71095947D01*
X-141391678Y-70950000D01*
X-137643165Y-70950000D01*
X-137624535Y-71186711D01*
X-137623381Y-71191518D01*
X-137623380Y-71191524D01*
X-137614747Y-71227481D01*
X-137569105Y-71417594D01*
X-137567212Y-71422165D01*
X-137567211Y-71422167D01*
X-137511993Y-71555475D01*
X-137478240Y-71636963D01*
X-137475654Y-71641183D01*
X-137356759Y-71835202D01*
X-137356755Y-71835208D01*
X-137354176Y-71839416D01*
X-137199969Y-72019969D01*
X-137019416Y-72174176D01*
X-137015208Y-72176755D01*
X-137015202Y-72176759D01*
X-136871080Y-72265077D01*
X-136816963Y-72298240D01*
X-136812393Y-72300133D01*
X-136812389Y-72300135D01*
X-136602167Y-72387211D01*
X-136597594Y-72389105D01*
X-136517391Y-72408360D01*
X-136371524Y-72443380D01*
X-136371518Y-72443381D01*
X-136366711Y-72444535D01*
X-136130000Y-72463165D01*
X-135893289Y-72444535D01*
X-135888482Y-72443381D01*
X-135888476Y-72443380D01*
X-135742609Y-72408360D01*
X-135662406Y-72389105D01*
X-135657833Y-72387211D01*
X-135447611Y-72300135D01*
X-135447607Y-72300133D01*
X-135443037Y-72298240D01*
X-135388920Y-72265077D01*
X-135244798Y-72176759D01*
X-135244792Y-72176755D01*
X-135240584Y-72174176D01*
X-135060031Y-72019969D01*
X-134905824Y-71839416D01*
X-134903245Y-71835208D01*
X-134903241Y-71835202D01*
X-134784346Y-71641183D01*
X-134781760Y-71636963D01*
X-134748006Y-71555475D01*
X-134692789Y-71422167D01*
X-134692788Y-71422165D01*
X-134690895Y-71417594D01*
X-134645253Y-71227481D01*
X-134636620Y-71191524D01*
X-134636619Y-71191518D01*
X-134635465Y-71186711D01*
X-134616835Y-70950000D01*
X-127483165Y-70950000D01*
X-127464535Y-71186711D01*
X-127463381Y-71191518D01*
X-127463380Y-71191524D01*
X-127454747Y-71227481D01*
X-127409105Y-71417594D01*
X-127407212Y-71422165D01*
X-127407211Y-71422167D01*
X-127351993Y-71555475D01*
X-127318240Y-71636963D01*
X-127315654Y-71641183D01*
X-127196759Y-71835202D01*
X-127196755Y-71835208D01*
X-127194176Y-71839416D01*
X-127039969Y-72019969D01*
X-126859416Y-72174176D01*
X-126855208Y-72176755D01*
X-126855202Y-72176759D01*
X-126711080Y-72265077D01*
X-126656963Y-72298240D01*
X-126652393Y-72300133D01*
X-126652389Y-72300135D01*
X-126442167Y-72387211D01*
X-126437594Y-72389105D01*
X-126357391Y-72408360D01*
X-126211524Y-72443380D01*
X-126211518Y-72443381D01*
X-126206711Y-72444535D01*
X-125970000Y-72463165D01*
X-125733289Y-72444535D01*
X-125728482Y-72443381D01*
X-125728476Y-72443380D01*
X-125582609Y-72408360D01*
X-125502406Y-72389105D01*
X-125497833Y-72387211D01*
X-125287611Y-72300135D01*
X-125287607Y-72300133D01*
X-125283037Y-72298240D01*
X-125228920Y-72265077D01*
X-125084798Y-72176759D01*
X-125084792Y-72176755D01*
X-125080584Y-72174176D01*
X-124900031Y-72019969D01*
X-124745824Y-71839416D01*
X-124743245Y-71835208D01*
X-124743241Y-71835202D01*
X-124624346Y-71641183D01*
X-124621760Y-71636963D01*
X-124588006Y-71555475D01*
X-124532789Y-71422167D01*
X-124532788Y-71422165D01*
X-124530895Y-71417594D01*
X-124485253Y-71227481D01*
X-124476620Y-71191524D01*
X-124476619Y-71191518D01*
X-124475465Y-71186711D01*
X-124456835Y-70950000D01*
X-124475465Y-70713289D01*
X-124478123Y-70702215D01*
X-124518920Y-70532285D01*
X-124530895Y-70482406D01*
X-124532789Y-70477833D01*
X-124619865Y-70267611D01*
X-124619867Y-70267607D01*
X-124621760Y-70263037D01*
X-124625783Y-70256472D01*
X-124743241Y-70064798D01*
X-124743245Y-70064792D01*
X-124745824Y-70060584D01*
X-124900031Y-69880031D01*
X-125080584Y-69725824D01*
X-125084792Y-69723245D01*
X-125084798Y-69723241D01*
X-125278817Y-69604346D01*
X-125283037Y-69601760D01*
X-125287607Y-69599867D01*
X-125287611Y-69599865D01*
X-125497833Y-69512789D01*
X-125497835Y-69512788D01*
X-125502406Y-69510895D01*
X-125582609Y-69491640D01*
X-125728476Y-69456620D01*
X-125728482Y-69456619D01*
X-125733289Y-69455465D01*
X-125970000Y-69436835D01*
X-126206711Y-69455465D01*
X-126211518Y-69456619D01*
X-126211524Y-69456620D01*
X-126357391Y-69491640D01*
X-126437594Y-69510895D01*
X-126442165Y-69512788D01*
X-126442167Y-69512789D01*
X-126652389Y-69599865D01*
X-126652393Y-69599867D01*
X-126656963Y-69601760D01*
X-126661183Y-69604346D01*
X-126855202Y-69723241D01*
X-126855208Y-69723245D01*
X-126859416Y-69725824D01*
X-127039969Y-69880031D01*
X-127194176Y-70060584D01*
X-127196755Y-70064792D01*
X-127196759Y-70064798D01*
X-127314217Y-70256472D01*
X-127318240Y-70263037D01*
X-127320133Y-70267607D01*
X-127320135Y-70267611D01*
X-127407211Y-70477833D01*
X-127409105Y-70482406D01*
X-127421080Y-70532285D01*
X-127461876Y-70702215D01*
X-127464535Y-70713289D01*
X-127483165Y-70950000D01*
X-134616835Y-70950000D01*
X-134635465Y-70713289D01*
X-134638123Y-70702215D01*
X-134678920Y-70532285D01*
X-134690895Y-70482406D01*
X-134692789Y-70477833D01*
X-134779865Y-70267611D01*
X-134779867Y-70267607D01*
X-134781760Y-70263037D01*
X-134785783Y-70256472D01*
X-134903241Y-70064798D01*
X-134903245Y-70064792D01*
X-134905824Y-70060584D01*
X-135060031Y-69880031D01*
X-135240584Y-69725824D01*
X-135244792Y-69723245D01*
X-135244798Y-69723241D01*
X-135438817Y-69604346D01*
X-135443037Y-69601760D01*
X-135447607Y-69599867D01*
X-135447611Y-69599865D01*
X-135657833Y-69512789D01*
X-135657835Y-69512788D01*
X-135662406Y-69510895D01*
X-135742609Y-69491640D01*
X-135888476Y-69456620D01*
X-135888482Y-69456619D01*
X-135893289Y-69455465D01*
X-136130000Y-69436835D01*
X-136366711Y-69455465D01*
X-136371518Y-69456619D01*
X-136371524Y-69456620D01*
X-136517391Y-69491640D01*
X-136597594Y-69510895D01*
X-136602165Y-69512788D01*
X-136602167Y-69512789D01*
X-136812389Y-69599865D01*
X-136812393Y-69599867D01*
X-136816963Y-69601760D01*
X-136821183Y-69604346D01*
X-137015202Y-69723241D01*
X-137015208Y-69723245D01*
X-137019416Y-69725824D01*
X-137199969Y-69880031D01*
X-137354176Y-70060584D01*
X-137356755Y-70064792D01*
X-137356759Y-70064798D01*
X-137474217Y-70256472D01*
X-137478240Y-70263037D01*
X-137480133Y-70267607D01*
X-137480135Y-70267611D01*
X-137567211Y-70477833D01*
X-137569105Y-70482406D01*
X-137581080Y-70532285D01*
X-137621876Y-70702215D01*
X-137624535Y-70713289D01*
X-137643165Y-70950000D01*
X-141391678Y-70950000D01*
X-141415698Y-70898489D01*
X-141421181Y-70888994D01*
X-141457621Y-70836952D01*
X-141468100Y-70828576D01*
X-141481546Y-70835644D01*
X-142183090Y-71537188D01*
X-142190704Y-71551132D01*
X-142920756Y-71551132D01*
X-142919520Y-71548868D01*
X-142919651Y-71547035D01*
X-142923902Y-71540420D01*
X-143629399Y-70834923D01*
X-143671141Y-70812129D01*
X-143681141Y-70809953D01*
X-143731339Y-70759747D01*
X-143746563Y-70706186D01*
X-143746612Y-70705281D01*
X-143746612Y-70701866D01*
X-143753367Y-70639684D01*
X-143804497Y-70503295D01*
X-143834705Y-70462988D01*
X-143276536Y-70462988D01*
X-143269468Y-70476434D01*
X-142567924Y-71177978D01*
X-142553980Y-71185592D01*
X-142552147Y-71185461D01*
X-142545532Y-71181210D01*
X-141840035Y-70475713D01*
X-141833605Y-70463938D01*
X-141842901Y-70451923D01*
X-141894106Y-70416069D01*
X-141903601Y-70410586D01*
X-142101059Y-70318510D01*
X-142111351Y-70314764D01*
X-142321800Y-70258375D01*
X-142332593Y-70256472D01*
X-142549637Y-70237483D01*
X-142560587Y-70237483D01*
X-142777631Y-70256472D01*
X-142788424Y-70258375D01*
X-142998873Y-70314764D01*
X-143009165Y-70318510D01*
X-143206623Y-70410586D01*
X-143216118Y-70416069D01*
X-143268160Y-70452509D01*
X-143276536Y-70462988D01*
X-143834705Y-70462988D01*
X-143891851Y-70386739D01*
X-144008407Y-70299385D01*
X-144144796Y-70248255D01*
X-144206978Y-70241500D01*
X-145903246Y-70241500D01*
X-145965428Y-70248255D01*
X-146101817Y-70299385D01*
X-146218373Y-70386739D01*
X-146305727Y-70503295D01*
X-146356857Y-70639684D01*
X-146363612Y-70701866D01*
X-146363612Y-72398134D01*
X-146363243Y-72401531D01*
X-146358571Y-72444535D01*
X-146356857Y-72460316D01*
X-146354085Y-72467709D01*
X-146354085Y-72467711D01*
X-146321630Y-72554284D01*
X-146313612Y-72598513D01*
X-146313612Y-74381634D01*
X-146333614Y-74449755D01*
X-146350517Y-74470729D01*
X-146934383Y-75054595D01*
X-146996695Y-75088621D01*
X-147023478Y-75091500D01*
X-164636862Y-75091500D01*
X-164646289Y-75090733D01*
X-164646318Y-75091124D01*
X-164651921Y-75090713D01*
X-164657457Y-75089806D01*
X-164663070Y-75089894D01*
X-164663072Y-75089894D01*
X-164764264Y-75091484D01*
X-164766243Y-75091500D01*
X-166270193Y-75091500D01*
X-166338314Y-75071498D01*
X-166384807Y-75017842D01*
X-166396177Y-74967480D01*
X-166396596Y-74940819D01*
X-166396612Y-74938839D01*
X-166396612Y-72536062D01*
X-165876619Y-72536062D01*
X-165867323Y-72548077D01*
X-165816118Y-72583931D01*
X-165806623Y-72589414D01*
X-165609165Y-72681490D01*
X-165598873Y-72685236D01*
X-165388424Y-72741625D01*
X-165377631Y-72743528D01*
X-165160587Y-72762517D01*
X-165149637Y-72762517D01*
X-164932593Y-72743528D01*
X-164921800Y-72741625D01*
X-164711351Y-72685236D01*
X-164701059Y-72681490D01*
X-164503601Y-72589414D01*
X-164494106Y-72583931D01*
X-164442064Y-72547491D01*
X-164433688Y-72537012D01*
X-164440756Y-72523566D01*
X-165142300Y-71822022D01*
X-165156244Y-71814408D01*
X-165158077Y-71814539D01*
X-165164692Y-71818790D01*
X-165870189Y-72524287D01*
X-165876619Y-72536062D01*
X-166396612Y-72536062D01*
X-166396612Y-72498513D01*
X-166388594Y-72454284D01*
X-166356139Y-72367711D01*
X-166356139Y-72367709D01*
X-166353367Y-72360316D01*
X-166346612Y-72298134D01*
X-166346612Y-72294815D01*
X-166322959Y-72227890D01*
X-166276956Y-72192196D01*
X-166277971Y-72190266D01*
X-166267112Y-72184558D01*
X-166266867Y-72184368D01*
X-166266709Y-72184347D01*
X-166228678Y-72164356D01*
X-165527134Y-71462812D01*
X-165520756Y-71451132D01*
X-164790704Y-71451132D01*
X-164790573Y-71452965D01*
X-164786322Y-71459580D01*
X-164080825Y-72165077D01*
X-164069050Y-72171507D01*
X-164057035Y-72162211D01*
X-164021181Y-72111006D01*
X-164015698Y-72101511D01*
X-163923622Y-71904053D01*
X-163919876Y-71893761D01*
X-163863487Y-71683312D01*
X-163861584Y-71672519D01*
X-163842595Y-71455475D01*
X-163842595Y-71444525D01*
X-163861584Y-71227481D01*
X-163863487Y-71216688D01*
X-163908150Y-71050000D01*
X-160043165Y-71050000D01*
X-160024535Y-71286711D01*
X-160023381Y-71291518D01*
X-160023380Y-71291524D01*
X-160014747Y-71327481D01*
X-159969105Y-71517594D01*
X-159967212Y-71522165D01*
X-159967211Y-71522167D01*
X-159904933Y-71672519D01*
X-159878240Y-71736963D01*
X-159875654Y-71741183D01*
X-159756759Y-71935202D01*
X-159756755Y-71935208D01*
X-159754176Y-71939416D01*
X-159599969Y-72119969D01*
X-159419416Y-72274176D01*
X-159415208Y-72276755D01*
X-159415202Y-72276759D01*
X-159291659Y-72352466D01*
X-159216963Y-72398240D01*
X-159212393Y-72400133D01*
X-159212389Y-72400135D01*
X-159002167Y-72487211D01*
X-158997594Y-72489105D01*
X-158917391Y-72508360D01*
X-158771524Y-72543380D01*
X-158771518Y-72543381D01*
X-158766711Y-72544535D01*
X-158530000Y-72563165D01*
X-158293289Y-72544535D01*
X-158288482Y-72543381D01*
X-158288476Y-72543380D01*
X-158142609Y-72508360D01*
X-158062406Y-72489105D01*
X-158057833Y-72487211D01*
X-157847611Y-72400135D01*
X-157847607Y-72400133D01*
X-157843037Y-72398240D01*
X-157768341Y-72352466D01*
X-157644798Y-72276759D01*
X-157644792Y-72276755D01*
X-157640584Y-72274176D01*
X-157460031Y-72119969D01*
X-157305824Y-71939416D01*
X-157303245Y-71935208D01*
X-157303241Y-71935202D01*
X-157184346Y-71741183D01*
X-157181760Y-71736963D01*
X-157155066Y-71672519D01*
X-157092789Y-71522167D01*
X-157092788Y-71522165D01*
X-157090895Y-71517594D01*
X-157045253Y-71327481D01*
X-157036620Y-71291524D01*
X-157036619Y-71291518D01*
X-157035465Y-71286711D01*
X-157016835Y-71050000D01*
X-149883165Y-71050000D01*
X-149864535Y-71286711D01*
X-149863381Y-71291518D01*
X-149863380Y-71291524D01*
X-149854747Y-71327481D01*
X-149809105Y-71517594D01*
X-149807212Y-71522165D01*
X-149807211Y-71522167D01*
X-149744933Y-71672519D01*
X-149718240Y-71736963D01*
X-149715654Y-71741183D01*
X-149596759Y-71935202D01*
X-149596755Y-71935208D01*
X-149594176Y-71939416D01*
X-149439969Y-72119969D01*
X-149259416Y-72274176D01*
X-149255208Y-72276755D01*
X-149255202Y-72276759D01*
X-149131659Y-72352466D01*
X-149056963Y-72398240D01*
X-149052393Y-72400133D01*
X-149052389Y-72400135D01*
X-148842167Y-72487211D01*
X-148837594Y-72489105D01*
X-148757391Y-72508360D01*
X-148611524Y-72543380D01*
X-148611518Y-72543381D01*
X-148606711Y-72544535D01*
X-148370000Y-72563165D01*
X-148133289Y-72544535D01*
X-148128482Y-72543381D01*
X-148128476Y-72543380D01*
X-147982609Y-72508360D01*
X-147902406Y-72489105D01*
X-147897833Y-72487211D01*
X-147687611Y-72400135D01*
X-147687607Y-72400133D01*
X-147683037Y-72398240D01*
X-147608341Y-72352466D01*
X-147484798Y-72276759D01*
X-147484792Y-72276755D01*
X-147480584Y-72274176D01*
X-147300031Y-72119969D01*
X-147145824Y-71939416D01*
X-147143245Y-71935208D01*
X-147143241Y-71935202D01*
X-147024346Y-71741183D01*
X-147021760Y-71736963D01*
X-146995066Y-71672519D01*
X-146932789Y-71522167D01*
X-146932788Y-71522165D01*
X-146930895Y-71517594D01*
X-146885253Y-71327481D01*
X-146876620Y-71291524D01*
X-146876619Y-71291518D01*
X-146875465Y-71286711D01*
X-146856835Y-71050000D01*
X-146875465Y-70813289D01*
X-146881297Y-70788994D01*
X-146929740Y-70587218D01*
X-146930895Y-70582406D01*
X-146948591Y-70539684D01*
X-147019865Y-70367611D01*
X-147019867Y-70367607D01*
X-147021760Y-70363037D01*
X-147053902Y-70310586D01*
X-147143241Y-70164798D01*
X-147143245Y-70164792D01*
X-147145824Y-70160584D01*
X-147300031Y-69980031D01*
X-147480584Y-69825824D01*
X-147484792Y-69823245D01*
X-147484798Y-69823241D01*
X-147678817Y-69704346D01*
X-147683037Y-69701760D01*
X-147687607Y-69699867D01*
X-147687611Y-69699865D01*
X-147897833Y-69612789D01*
X-147897835Y-69612788D01*
X-147902406Y-69610895D01*
X-147982609Y-69591640D01*
X-148128476Y-69556620D01*
X-148128482Y-69556619D01*
X-148133289Y-69555465D01*
X-148370000Y-69536835D01*
X-148606711Y-69555465D01*
X-148611518Y-69556619D01*
X-148611524Y-69556620D01*
X-148757391Y-69591640D01*
X-148837594Y-69610895D01*
X-148842165Y-69612788D01*
X-148842167Y-69612789D01*
X-149052389Y-69699865D01*
X-149052393Y-69699867D01*
X-149056963Y-69701760D01*
X-149061183Y-69704346D01*
X-149255202Y-69823241D01*
X-149255208Y-69823245D01*
X-149259416Y-69825824D01*
X-149439969Y-69980031D01*
X-149594176Y-70160584D01*
X-149596755Y-70164792D01*
X-149596759Y-70164798D01*
X-149686098Y-70310586D01*
X-149718240Y-70363037D01*
X-149720133Y-70367607D01*
X-149720135Y-70367611D01*
X-149791409Y-70539684D01*
X-149809105Y-70582406D01*
X-149810260Y-70587218D01*
X-149858702Y-70788994D01*
X-149864535Y-70813289D01*
X-149883165Y-71050000D01*
X-157016835Y-71050000D01*
X-157035465Y-70813289D01*
X-157041297Y-70788994D01*
X-157089740Y-70587218D01*
X-157090895Y-70582406D01*
X-157108591Y-70539684D01*
X-157179865Y-70367611D01*
X-157179867Y-70367607D01*
X-157181760Y-70363037D01*
X-157213902Y-70310586D01*
X-157303241Y-70164798D01*
X-157303245Y-70164792D01*
X-157305824Y-70160584D01*
X-157460031Y-69980031D01*
X-157640584Y-69825824D01*
X-157644792Y-69823245D01*
X-157644798Y-69823241D01*
X-157838817Y-69704346D01*
X-157843037Y-69701760D01*
X-157847607Y-69699867D01*
X-157847611Y-69699865D01*
X-158057833Y-69612789D01*
X-158057835Y-69612788D01*
X-158062406Y-69610895D01*
X-158142609Y-69591640D01*
X-158288476Y-69556620D01*
X-158288482Y-69556619D01*
X-158293289Y-69555465D01*
X-158530000Y-69536835D01*
X-158766711Y-69555465D01*
X-158771518Y-69556619D01*
X-158771524Y-69556620D01*
X-158917391Y-69591640D01*
X-158997594Y-69610895D01*
X-159002165Y-69612788D01*
X-159002167Y-69612789D01*
X-159212389Y-69699865D01*
X-159212393Y-69699867D01*
X-159216963Y-69701760D01*
X-159221183Y-69704346D01*
X-159415202Y-69823241D01*
X-159415208Y-69823245D01*
X-159419416Y-69825824D01*
X-159599969Y-69980031D01*
X-159754176Y-70160584D01*
X-159756755Y-70164792D01*
X-159756759Y-70164798D01*
X-159846098Y-70310586D01*
X-159878240Y-70363037D01*
X-159880133Y-70367607D01*
X-159880135Y-70367611D01*
X-159951409Y-70539684D01*
X-159969105Y-70582406D01*
X-159970260Y-70587218D01*
X-160018702Y-70788994D01*
X-160024535Y-70813289D01*
X-160043165Y-71050000D01*
X-163908150Y-71050000D01*
X-163919876Y-71006239D01*
X-163923622Y-70995947D01*
X-164015698Y-70798489D01*
X-164021181Y-70788994D01*
X-164057621Y-70736952D01*
X-164068100Y-70728576D01*
X-164081546Y-70735644D01*
X-164783090Y-71437188D01*
X-164790704Y-71451132D01*
X-165520756Y-71451132D01*
X-165519520Y-71448868D01*
X-165519651Y-71447035D01*
X-165523902Y-71440420D01*
X-166229399Y-70734923D01*
X-166271141Y-70712129D01*
X-166281141Y-70709953D01*
X-166331339Y-70659747D01*
X-166346563Y-70606186D01*
X-166346612Y-70605281D01*
X-166346612Y-70601866D01*
X-166353367Y-70539684D01*
X-166404497Y-70403295D01*
X-166434705Y-70362988D01*
X-165876536Y-70362988D01*
X-165869468Y-70376434D01*
X-165167924Y-71077978D01*
X-165153980Y-71085592D01*
X-165152147Y-71085461D01*
X-165145532Y-71081210D01*
X-164440035Y-70375713D01*
X-164433605Y-70363938D01*
X-164442901Y-70351923D01*
X-164494106Y-70316069D01*
X-164503601Y-70310586D01*
X-164701059Y-70218510D01*
X-164711351Y-70214764D01*
X-164921800Y-70158375D01*
X-164932593Y-70156472D01*
X-165149637Y-70137483D01*
X-165160587Y-70137483D01*
X-165377631Y-70156472D01*
X-165388424Y-70158375D01*
X-165598873Y-70214764D01*
X-165609165Y-70218510D01*
X-165806623Y-70310586D01*
X-165816118Y-70316069D01*
X-165868160Y-70352509D01*
X-165876536Y-70362988D01*
X-166434705Y-70362988D01*
X-166491851Y-70286739D01*
X-166608407Y-70199385D01*
X-166744796Y-70148255D01*
X-166806978Y-70141500D01*
X-168503246Y-70141500D01*
X-168565428Y-70148255D01*
X-168701817Y-70199385D01*
X-168818373Y-70286739D01*
X-168905727Y-70403295D01*
X-168956857Y-70539684D01*
X-168963612Y-70601866D01*
X-168963612Y-72298134D01*
X-168956857Y-72360316D01*
X-168954085Y-72367709D01*
X-168954085Y-72367711D01*
X-168921630Y-72454284D01*
X-168913612Y-72498513D01*
X-168913612Y-74381634D01*
X-168933614Y-74449755D01*
X-168950517Y-74470729D01*
X-169534383Y-75054595D01*
X-169596695Y-75088621D01*
X-169623478Y-75091500D01*
X-188076522Y-75091500D01*
X-188144643Y-75071498D01*
X-188165617Y-75054595D01*
X-188759707Y-74460505D01*
X-188793733Y-74398193D01*
X-188796612Y-74371410D01*
X-188796612Y-72536062D01*
X-188276619Y-72536062D01*
X-188267323Y-72548077D01*
X-188216118Y-72583931D01*
X-188206623Y-72589414D01*
X-188009165Y-72681490D01*
X-187998873Y-72685236D01*
X-187788424Y-72741625D01*
X-187777631Y-72743528D01*
X-187560587Y-72762517D01*
X-187549637Y-72762517D01*
X-187332593Y-72743528D01*
X-187321800Y-72741625D01*
X-187111351Y-72685236D01*
X-187101059Y-72681490D01*
X-186903601Y-72589414D01*
X-186894106Y-72583931D01*
X-186842064Y-72547491D01*
X-186833688Y-72537012D01*
X-186840756Y-72523566D01*
X-187542300Y-71822022D01*
X-187556244Y-71814408D01*
X-187558077Y-71814539D01*
X-187564692Y-71818790D01*
X-188270189Y-72524287D01*
X-188276619Y-72536062D01*
X-188796612Y-72536062D01*
X-188796612Y-72498513D01*
X-188788594Y-72454284D01*
X-188756139Y-72367711D01*
X-188756139Y-72367709D01*
X-188753367Y-72360316D01*
X-188746612Y-72298134D01*
X-188746612Y-72294815D01*
X-188722959Y-72227890D01*
X-188676956Y-72192196D01*
X-188677971Y-72190266D01*
X-188667112Y-72184558D01*
X-188666867Y-72184368D01*
X-188666709Y-72184347D01*
X-188628678Y-72164356D01*
X-187927134Y-71462812D01*
X-187920756Y-71451132D01*
X-187190704Y-71451132D01*
X-187190573Y-71452965D01*
X-187186322Y-71459580D01*
X-186480825Y-72165077D01*
X-186469050Y-72171507D01*
X-186457035Y-72162211D01*
X-186421181Y-72111006D01*
X-186415698Y-72101511D01*
X-186323622Y-71904053D01*
X-186319876Y-71893761D01*
X-186263487Y-71683312D01*
X-186261584Y-71672519D01*
X-186242595Y-71455475D01*
X-186242595Y-71444525D01*
X-186261584Y-71227481D01*
X-186263487Y-71216688D01*
X-186308150Y-71050000D01*
X-182443165Y-71050000D01*
X-182424535Y-71286711D01*
X-182423381Y-71291518D01*
X-182423380Y-71291524D01*
X-182414747Y-71327481D01*
X-182369105Y-71517594D01*
X-182367212Y-71522165D01*
X-182367211Y-71522167D01*
X-182304933Y-71672519D01*
X-182278240Y-71736963D01*
X-182275654Y-71741183D01*
X-182156759Y-71935202D01*
X-182156755Y-71935208D01*
X-182154176Y-71939416D01*
X-181999969Y-72119969D01*
X-181819416Y-72274176D01*
X-181815208Y-72276755D01*
X-181815202Y-72276759D01*
X-181691659Y-72352466D01*
X-181616963Y-72398240D01*
X-181612393Y-72400133D01*
X-181612389Y-72400135D01*
X-181402167Y-72487211D01*
X-181397594Y-72489105D01*
X-181317391Y-72508360D01*
X-181171524Y-72543380D01*
X-181171518Y-72543381D01*
X-181166711Y-72544535D01*
X-180930000Y-72563165D01*
X-180693289Y-72544535D01*
X-180688482Y-72543381D01*
X-180688476Y-72543380D01*
X-180542609Y-72508360D01*
X-180462406Y-72489105D01*
X-180457833Y-72487211D01*
X-180247611Y-72400135D01*
X-180247607Y-72400133D01*
X-180243037Y-72398240D01*
X-180168341Y-72352466D01*
X-180044798Y-72276759D01*
X-180044792Y-72276755D01*
X-180040584Y-72274176D01*
X-179860031Y-72119969D01*
X-179705824Y-71939416D01*
X-179703245Y-71935208D01*
X-179703241Y-71935202D01*
X-179584346Y-71741183D01*
X-179581760Y-71736963D01*
X-179555066Y-71672519D01*
X-179492789Y-71522167D01*
X-179492788Y-71522165D01*
X-179490895Y-71517594D01*
X-179445253Y-71327481D01*
X-179436620Y-71291524D01*
X-179436619Y-71291518D01*
X-179435465Y-71286711D01*
X-179416835Y-71050000D01*
X-172283165Y-71050000D01*
X-172264535Y-71286711D01*
X-172263381Y-71291518D01*
X-172263380Y-71291524D01*
X-172254747Y-71327481D01*
X-172209105Y-71517594D01*
X-172207212Y-71522165D01*
X-172207211Y-71522167D01*
X-172144933Y-71672519D01*
X-172118240Y-71736963D01*
X-172115654Y-71741183D01*
X-171996759Y-71935202D01*
X-171996755Y-71935208D01*
X-171994176Y-71939416D01*
X-171839969Y-72119969D01*
X-171659416Y-72274176D01*
X-171655208Y-72276755D01*
X-171655202Y-72276759D01*
X-171531659Y-72352466D01*
X-171456963Y-72398240D01*
X-171452393Y-72400133D01*
X-171452389Y-72400135D01*
X-171242167Y-72487211D01*
X-171237594Y-72489105D01*
X-171157391Y-72508360D01*
X-171011524Y-72543380D01*
X-171011518Y-72543381D01*
X-171006711Y-72544535D01*
X-170770000Y-72563165D01*
X-170533289Y-72544535D01*
X-170528482Y-72543381D01*
X-170528476Y-72543380D01*
X-170382609Y-72508360D01*
X-170302406Y-72489105D01*
X-170297833Y-72487211D01*
X-170087611Y-72400135D01*
X-170087607Y-72400133D01*
X-170083037Y-72398240D01*
X-170008341Y-72352466D01*
X-169884798Y-72276759D01*
X-169884792Y-72276755D01*
X-169880584Y-72274176D01*
X-169700031Y-72119969D01*
X-169545824Y-71939416D01*
X-169543245Y-71935208D01*
X-169543241Y-71935202D01*
X-169424346Y-71741183D01*
X-169421760Y-71736963D01*
X-169395066Y-71672519D01*
X-169332789Y-71522167D01*
X-169332788Y-71522165D01*
X-169330895Y-71517594D01*
X-169285253Y-71327481D01*
X-169276620Y-71291524D01*
X-169276619Y-71291518D01*
X-169275465Y-71286711D01*
X-169256835Y-71050000D01*
X-169275465Y-70813289D01*
X-169281297Y-70788994D01*
X-169329740Y-70587218D01*
X-169330895Y-70582406D01*
X-169348591Y-70539684D01*
X-169419865Y-70367611D01*
X-169419867Y-70367607D01*
X-169421760Y-70363037D01*
X-169453902Y-70310586D01*
X-169543241Y-70164798D01*
X-169543245Y-70164792D01*
X-169545824Y-70160584D01*
X-169700031Y-69980031D01*
X-169880584Y-69825824D01*
X-169884792Y-69823245D01*
X-169884798Y-69823241D01*
X-170078817Y-69704346D01*
X-170083037Y-69701760D01*
X-170087607Y-69699867D01*
X-170087611Y-69699865D01*
X-170297833Y-69612789D01*
X-170297835Y-69612788D01*
X-170302406Y-69610895D01*
X-170382609Y-69591640D01*
X-170528476Y-69556620D01*
X-170528482Y-69556619D01*
X-170533289Y-69555465D01*
X-170770000Y-69536835D01*
X-171006711Y-69555465D01*
X-171011518Y-69556619D01*
X-171011524Y-69556620D01*
X-171157391Y-69591640D01*
X-171237594Y-69610895D01*
X-171242165Y-69612788D01*
X-171242167Y-69612789D01*
X-171452389Y-69699865D01*
X-171452393Y-69699867D01*
X-171456963Y-69701760D01*
X-171461183Y-69704346D01*
X-171655202Y-69823241D01*
X-171655208Y-69823245D01*
X-171659416Y-69825824D01*
X-171839969Y-69980031D01*
X-171994176Y-70160584D01*
X-171996755Y-70164792D01*
X-171996759Y-70164798D01*
X-172086098Y-70310586D01*
X-172118240Y-70363037D01*
X-172120133Y-70367607D01*
X-172120135Y-70367611D01*
X-172191409Y-70539684D01*
X-172209105Y-70582406D01*
X-172210260Y-70587218D01*
X-172258702Y-70788994D01*
X-172264535Y-70813289D01*
X-172283165Y-71050000D01*
X-179416835Y-71050000D01*
X-179435465Y-70813289D01*
X-179441297Y-70788994D01*
X-179489740Y-70587218D01*
X-179490895Y-70582406D01*
X-179508591Y-70539684D01*
X-179579865Y-70367611D01*
X-179579867Y-70367607D01*
X-179581760Y-70363037D01*
X-179613902Y-70310586D01*
X-179703241Y-70164798D01*
X-179703245Y-70164792D01*
X-179705824Y-70160584D01*
X-179860031Y-69980031D01*
X-180040584Y-69825824D01*
X-180044792Y-69823245D01*
X-180044798Y-69823241D01*
X-180238817Y-69704346D01*
X-180243037Y-69701760D01*
X-180247607Y-69699867D01*
X-180247611Y-69699865D01*
X-180457833Y-69612789D01*
X-180457835Y-69612788D01*
X-180462406Y-69610895D01*
X-180542609Y-69591640D01*
X-180688476Y-69556620D01*
X-180688482Y-69556619D01*
X-180693289Y-69555465D01*
X-180930000Y-69536835D01*
X-181166711Y-69555465D01*
X-181171518Y-69556619D01*
X-181171524Y-69556620D01*
X-181317391Y-69591640D01*
X-181397594Y-69610895D01*
X-181402165Y-69612788D01*
X-181402167Y-69612789D01*
X-181612389Y-69699865D01*
X-181612393Y-69699867D01*
X-181616963Y-69701760D01*
X-181621183Y-69704346D01*
X-181815202Y-69823241D01*
X-181815208Y-69823245D01*
X-181819416Y-69825824D01*
X-181999969Y-69980031D01*
X-182154176Y-70160584D01*
X-182156755Y-70164792D01*
X-182156759Y-70164798D01*
X-182246098Y-70310586D01*
X-182278240Y-70363037D01*
X-182280133Y-70367607D01*
X-182280135Y-70367611D01*
X-182351409Y-70539684D01*
X-182369105Y-70582406D01*
X-182370260Y-70587218D01*
X-182418702Y-70788994D01*
X-182424535Y-70813289D01*
X-182443165Y-71050000D01*
X-186308150Y-71050000D01*
X-186319876Y-71006239D01*
X-186323622Y-70995947D01*
X-186415698Y-70798489D01*
X-186421181Y-70788994D01*
X-186457621Y-70736952D01*
X-186468100Y-70728576D01*
X-186481546Y-70735644D01*
X-187183090Y-71437188D01*
X-187190704Y-71451132D01*
X-187920756Y-71451132D01*
X-187919520Y-71448868D01*
X-187919651Y-71447035D01*
X-187923902Y-71440420D01*
X-188629399Y-70734923D01*
X-188671141Y-70712129D01*
X-188681141Y-70709953D01*
X-188731339Y-70659747D01*
X-188746563Y-70606186D01*
X-188746612Y-70605281D01*
X-188746612Y-70601866D01*
X-188753367Y-70539684D01*
X-188804497Y-70403295D01*
X-188834705Y-70362988D01*
X-188276536Y-70362988D01*
X-188269468Y-70376434D01*
X-187567924Y-71077978D01*
X-187553980Y-71085592D01*
X-187552147Y-71085461D01*
X-187545532Y-71081210D01*
X-186840035Y-70375713D01*
X-186833605Y-70363938D01*
X-186842901Y-70351923D01*
X-186894106Y-70316069D01*
X-186903601Y-70310586D01*
X-187101059Y-70218510D01*
X-187111351Y-70214764D01*
X-187321800Y-70158375D01*
X-187332593Y-70156472D01*
X-187549637Y-70137483D01*
X-187560587Y-70137483D01*
X-187777631Y-70156472D01*
X-187788424Y-70158375D01*
X-187998873Y-70214764D01*
X-188009165Y-70218510D01*
X-188206623Y-70310586D01*
X-188216118Y-70316069D01*
X-188268160Y-70352509D01*
X-188276536Y-70362988D01*
X-188834705Y-70362988D01*
X-188891851Y-70286739D01*
X-189008407Y-70199385D01*
X-189144796Y-70148255D01*
X-189206978Y-70141500D01*
X-190903246Y-70141500D01*
X-190965428Y-70148255D01*
X-191101817Y-70199385D01*
X-191218373Y-70286739D01*
X-191305727Y-70403295D01*
X-191356857Y-70539684D01*
X-191363612Y-70601866D01*
X-191363612Y-72298134D01*
X-192191550Y-72298134D01*
X-192100031Y-72219969D01*
X-191945824Y-72039416D01*
X-191943245Y-72035208D01*
X-191943241Y-72035202D01*
X-191824346Y-71841183D01*
X-191821760Y-71836963D01*
X-191814232Y-71818790D01*
X-191732789Y-71622167D01*
X-191732788Y-71622165D01*
X-191730895Y-71617594D01*
X-191692959Y-71459580D01*
X-191676620Y-71391524D01*
X-191676619Y-71391518D01*
X-191675465Y-71386711D01*
X-191656835Y-71150000D01*
X-191675465Y-70913289D01*
X-191681297Y-70888994D01*
X-191729740Y-70687218D01*
X-191730895Y-70682406D01*
X-191732789Y-70677833D01*
X-191819865Y-70467611D01*
X-191819867Y-70467607D01*
X-191821760Y-70463037D01*
X-191850542Y-70416069D01*
X-191943241Y-70264798D01*
X-191943245Y-70264792D01*
X-191945824Y-70260584D01*
X-192100031Y-70080031D01*
X-192280584Y-69925824D01*
X-192284792Y-69923245D01*
X-192284798Y-69923241D01*
X-192478817Y-69804346D01*
X-192483037Y-69801760D01*
X-192487607Y-69799867D01*
X-192487611Y-69799865D01*
X-192697833Y-69712789D01*
X-192697835Y-69712788D01*
X-192702406Y-69710895D01*
X-192782609Y-69691640D01*
X-192928476Y-69656620D01*
X-192928482Y-69656619D01*
X-192933289Y-69655465D01*
X-193170000Y-69636835D01*
X-193406711Y-69655465D01*
X-193411518Y-69656619D01*
X-193411524Y-69656620D01*
X-193557391Y-69691640D01*
X-193637594Y-69710895D01*
X-193642165Y-69712788D01*
X-193642167Y-69712789D01*
X-193852389Y-69799865D01*
X-193852393Y-69799867D01*
X-193856963Y-69801760D01*
X-193861183Y-69804346D01*
X-194055202Y-69923241D01*
X-194055208Y-69923245D01*
X-194059416Y-69925824D01*
X-194239969Y-70080031D01*
X-194394176Y-70260584D01*
X-194396755Y-70264792D01*
X-194396759Y-70264798D01*
X-194489458Y-70416069D01*
X-194518240Y-70463037D01*
X-194520133Y-70467607D01*
X-194520135Y-70467611D01*
X-194607211Y-70677833D01*
X-194609105Y-70682406D01*
X-194610260Y-70687218D01*
X-194658702Y-70888994D01*
X-194664535Y-70913289D01*
X-194683165Y-71150000D01*
X-201816835Y-71150000D01*
X-201835465Y-70913289D01*
X-201841297Y-70888994D01*
X-201889740Y-70687218D01*
X-201890895Y-70682406D01*
X-201892789Y-70677833D01*
X-201979865Y-70467611D01*
X-201979867Y-70467607D01*
X-201981760Y-70463037D01*
X-202010542Y-70416069D01*
X-202103241Y-70264798D01*
X-202103245Y-70264792D01*
X-202105824Y-70260584D01*
X-202260031Y-70080031D01*
X-202440584Y-69925824D01*
X-202444792Y-69923245D01*
X-202444798Y-69923241D01*
X-202638817Y-69804346D01*
X-202643037Y-69801760D01*
X-202647607Y-69799867D01*
X-202647611Y-69799865D01*
X-202857833Y-69712789D01*
X-202857835Y-69712788D01*
X-202862406Y-69710895D01*
X-202942609Y-69691640D01*
X-203088476Y-69656620D01*
X-203088482Y-69656619D01*
X-203093289Y-69655465D01*
X-203330000Y-69636835D01*
X-203566711Y-69655465D01*
X-203571518Y-69656619D01*
X-203571524Y-69656620D01*
X-203717391Y-69691640D01*
X-203797594Y-69710895D01*
X-203802165Y-69712788D01*
X-203802167Y-69712789D01*
X-204012389Y-69799865D01*
X-204012393Y-69799867D01*
X-204016963Y-69801760D01*
X-204021183Y-69804346D01*
X-204215202Y-69923241D01*
X-204215208Y-69923245D01*
X-204219416Y-69925824D01*
X-204399969Y-70080031D01*
X-204554176Y-70260584D01*
X-204556755Y-70264792D01*
X-204556759Y-70264798D01*
X-204649458Y-70416069D01*
X-204678240Y-70463037D01*
X-204680133Y-70467607D01*
X-204680135Y-70467611D01*
X-204767211Y-70677833D01*
X-204769105Y-70682406D01*
X-204770260Y-70687218D01*
X-204818702Y-70888994D01*
X-204824535Y-70913289D01*
X-204843165Y-71150000D01*
X-217841500Y-71150000D01*
X-217841500Y-65676000D01*
X-217821498Y-65607879D01*
X-217767842Y-65561386D01*
X-217715500Y-65550000D01*
X-204347228Y-65550000D01*
X-204279107Y-65570002D01*
G37*
%TD.AperFunction*%
%TD*%
M02*
