%TF.GenerationSoftware,KiCad,Pcbnew,(6.0.8)*%
%TF.CreationDate,2023-03-03T00:40:04+05:30*%
%TF.ProjectId,STM32DryerPCB,53544d33-3244-4727-9965-725043422e6b,rev?*%
%TF.SameCoordinates,Original*%
%TF.FileFunction,Legend,Top*%
%TF.FilePolarity,Positive*%
%FSLAX46Y46*%
G04 Gerber Fmt 4.6, Leading zero omitted, Abs format (unit mm)*
G04 Created by KiCad (PCBNEW (6.0.8)) date 2023-03-03 00:40:04*
%MOMM*%
%LPD*%
G01*
G04 APERTURE LIST*
%ADD10C,0.150000*%
%ADD11C,0.120000*%
G04 APERTURE END LIST*
D10*
X-185447619Y-10550000D02*
X-185447619Y-10359523D01*
X-185400000Y-10264285D01*
X-185304761Y-10169047D01*
X-185114285Y-10121428D01*
X-184780952Y-10121428D01*
X-184590476Y-10169047D01*
X-184495238Y-10264285D01*
X-184447619Y-10359523D01*
X-184447619Y-10550000D01*
X-184495238Y-10645238D01*
X-184590476Y-10740476D01*
X-184780952Y-10788095D01*
X-185114285Y-10788095D01*
X-185304761Y-10740476D01*
X-185400000Y-10645238D01*
X-185447619Y-10550000D01*
X-185447619Y-9692857D02*
X-184638095Y-9692857D01*
X-184542857Y-9645238D01*
X-184495238Y-9597619D01*
X-184447619Y-9502380D01*
X-184447619Y-9311904D01*
X-184495238Y-9216666D01*
X-184542857Y-9169047D01*
X-184638095Y-9121428D01*
X-185447619Y-9121428D01*
X-185447619Y-8788095D02*
X-185447619Y-8216666D01*
X-184447619Y-8502380D02*
X-185447619Y-8502380D01*
X-140647619Y-102464285D02*
X-139838095Y-102464285D01*
X-139742857Y-102416666D01*
X-139695238Y-102369047D01*
X-139647619Y-102273809D01*
X-139647619Y-102083333D01*
X-139695238Y-101988095D01*
X-139742857Y-101940476D01*
X-139838095Y-101892857D01*
X-140647619Y-101892857D01*
X-139647619Y-100940476D02*
X-139647619Y-101416666D01*
X-140647619Y-101416666D01*
X-139647619Y-100607142D02*
X-140647619Y-100607142D01*
X-139647619Y-100035714D01*
X-140647619Y-100035714D01*
X-161197619Y-101140476D02*
X-161197619Y-101616666D01*
X-160721428Y-101664285D01*
X-160769047Y-101616666D01*
X-160816666Y-101521428D01*
X-160816666Y-101283333D01*
X-160769047Y-101188095D01*
X-160721428Y-101140476D01*
X-160626190Y-101092857D01*
X-160388095Y-101092857D01*
X-160292857Y-101140476D01*
X-160245238Y-101188095D01*
X-160197619Y-101283333D01*
X-160197619Y-101521428D01*
X-160245238Y-101616666D01*
X-160292857Y-101664285D01*
X-161197619Y-100807142D02*
X-160197619Y-100473809D01*
X-161197619Y-100140476D01*
%TO.C,C402*%
X-198092857Y-27269047D02*
X-198045238Y-27316666D01*
X-197997619Y-27459523D01*
X-197997619Y-27554761D01*
X-198045238Y-27697619D01*
X-198140476Y-27792857D01*
X-198235714Y-27840476D01*
X-198426190Y-27888095D01*
X-198569047Y-27888095D01*
X-198759523Y-27840476D01*
X-198854761Y-27792857D01*
X-198950000Y-27697619D01*
X-198997619Y-27554761D01*
X-198997619Y-27459523D01*
X-198950000Y-27316666D01*
X-198902380Y-27269047D01*
X-198664285Y-26411904D02*
X-197997619Y-26411904D01*
X-199045238Y-26650000D02*
X-198330952Y-26888095D01*
X-198330952Y-26269047D01*
X-198997619Y-25697619D02*
X-198997619Y-25602380D01*
X-198950000Y-25507142D01*
X-198902380Y-25459523D01*
X-198807142Y-25411904D01*
X-198616666Y-25364285D01*
X-198378571Y-25364285D01*
X-198188095Y-25411904D01*
X-198092857Y-25459523D01*
X-198045238Y-25507142D01*
X-197997619Y-25602380D01*
X-197997619Y-25697619D01*
X-198045238Y-25792857D01*
X-198092857Y-25840476D01*
X-198188095Y-25888095D01*
X-198378571Y-25935714D01*
X-198616666Y-25935714D01*
X-198807142Y-25888095D01*
X-198902380Y-25840476D01*
X-198950000Y-25792857D01*
X-198997619Y-25697619D01*
X-198902380Y-24983333D02*
X-198950000Y-24935714D01*
X-198997619Y-24840476D01*
X-198997619Y-24602380D01*
X-198950000Y-24507142D01*
X-198902380Y-24459523D01*
X-198807142Y-24411904D01*
X-198711904Y-24411904D01*
X-198569047Y-24459523D01*
X-197997619Y-25030952D01*
X-197997619Y-24411904D01*
%TO.C,R307*%
X-146877619Y-87069047D02*
X-147353809Y-87402380D01*
X-146877619Y-87640476D02*
X-147877619Y-87640476D01*
X-147877619Y-87259523D01*
X-147830000Y-87164285D01*
X-147782380Y-87116666D01*
X-147687142Y-87069047D01*
X-147544285Y-87069047D01*
X-147449047Y-87116666D01*
X-147401428Y-87164285D01*
X-147353809Y-87259523D01*
X-147353809Y-87640476D01*
X-147877619Y-86735714D02*
X-147877619Y-86116666D01*
X-147496666Y-86450000D01*
X-147496666Y-86307142D01*
X-147449047Y-86211904D01*
X-147401428Y-86164285D01*
X-147306190Y-86116666D01*
X-147068095Y-86116666D01*
X-146972857Y-86164285D01*
X-146925238Y-86211904D01*
X-146877619Y-86307142D01*
X-146877619Y-86592857D01*
X-146925238Y-86688095D01*
X-146972857Y-86735714D01*
X-147877619Y-85497619D02*
X-147877619Y-85402380D01*
X-147830000Y-85307142D01*
X-147782380Y-85259523D01*
X-147687142Y-85211904D01*
X-147496666Y-85164285D01*
X-147258571Y-85164285D01*
X-147068095Y-85211904D01*
X-146972857Y-85259523D01*
X-146925238Y-85307142D01*
X-146877619Y-85402380D01*
X-146877619Y-85497619D01*
X-146925238Y-85592857D01*
X-146972857Y-85640476D01*
X-147068095Y-85688095D01*
X-147258571Y-85735714D01*
X-147496666Y-85735714D01*
X-147687142Y-85688095D01*
X-147782380Y-85640476D01*
X-147830000Y-85592857D01*
X-147877619Y-85497619D01*
X-147877619Y-84830952D02*
X-147877619Y-84164285D01*
X-146877619Y-84592857D01*
%TO.C,R407*%
X-132169047Y-71402380D02*
X-132502380Y-70926190D01*
X-132740476Y-71402380D02*
X-132740476Y-70402380D01*
X-132359523Y-70402380D01*
X-132264285Y-70450000D01*
X-132216666Y-70497619D01*
X-132169047Y-70592857D01*
X-132169047Y-70735714D01*
X-132216666Y-70830952D01*
X-132264285Y-70878571D01*
X-132359523Y-70926190D01*
X-132740476Y-70926190D01*
X-131311904Y-70735714D02*
X-131311904Y-71402380D01*
X-131550000Y-70354761D02*
X-131788095Y-71069047D01*
X-131169047Y-71069047D01*
X-130597619Y-70402380D02*
X-130502380Y-70402380D01*
X-130407142Y-70450000D01*
X-130359523Y-70497619D01*
X-130311904Y-70592857D01*
X-130264285Y-70783333D01*
X-130264285Y-71021428D01*
X-130311904Y-71211904D01*
X-130359523Y-71307142D01*
X-130407142Y-71354761D01*
X-130502380Y-71402380D01*
X-130597619Y-71402380D01*
X-130692857Y-71354761D01*
X-130740476Y-71307142D01*
X-130788095Y-71211904D01*
X-130835714Y-71021428D01*
X-130835714Y-70783333D01*
X-130788095Y-70592857D01*
X-130740476Y-70497619D01*
X-130692857Y-70450000D01*
X-130597619Y-70402380D01*
X-129930952Y-70402380D02*
X-129264285Y-70402380D01*
X-129692857Y-71402380D01*
%TO.C,D408*%
X-128940476Y-67402380D02*
X-128940476Y-66402380D01*
X-128702380Y-66402380D01*
X-128559523Y-66450000D01*
X-128464285Y-66545238D01*
X-128416666Y-66640476D01*
X-128369047Y-66830952D01*
X-128369047Y-66973809D01*
X-128416666Y-67164285D01*
X-128464285Y-67259523D01*
X-128559523Y-67354761D01*
X-128702380Y-67402380D01*
X-128940476Y-67402380D01*
X-127511904Y-66735714D02*
X-127511904Y-67402380D01*
X-127750000Y-66354761D02*
X-127988095Y-67069047D01*
X-127369047Y-67069047D01*
X-126797619Y-66402380D02*
X-126702380Y-66402380D01*
X-126607142Y-66450000D01*
X-126559523Y-66497619D01*
X-126511904Y-66592857D01*
X-126464285Y-66783333D01*
X-126464285Y-67021428D01*
X-126511904Y-67211904D01*
X-126559523Y-67307142D01*
X-126607142Y-67354761D01*
X-126702380Y-67402380D01*
X-126797619Y-67402380D01*
X-126892857Y-67354761D01*
X-126940476Y-67307142D01*
X-126988095Y-67211904D01*
X-127035714Y-67021428D01*
X-127035714Y-66783333D01*
X-126988095Y-66592857D01*
X-126940476Y-66497619D01*
X-126892857Y-66450000D01*
X-126797619Y-66402380D01*
X-125892857Y-66830952D02*
X-125988095Y-66783333D01*
X-126035714Y-66735714D01*
X-126083333Y-66640476D01*
X-126083333Y-66592857D01*
X-126035714Y-66497619D01*
X-125988095Y-66450000D01*
X-125892857Y-66402380D01*
X-125702380Y-66402380D01*
X-125607142Y-66450000D01*
X-125559523Y-66497619D01*
X-125511904Y-66592857D01*
X-125511904Y-66640476D01*
X-125559523Y-66735714D01*
X-125607142Y-66783333D01*
X-125702380Y-66830952D01*
X-125892857Y-66830952D01*
X-125988095Y-66878571D01*
X-126035714Y-66926190D01*
X-126083333Y-67021428D01*
X-126083333Y-67211904D01*
X-126035714Y-67307142D01*
X-125988095Y-67354761D01*
X-125892857Y-67402380D01*
X-125702380Y-67402380D01*
X-125607142Y-67354761D01*
X-125559523Y-67307142D01*
X-125511904Y-67211904D01*
X-125511904Y-67021428D01*
X-125559523Y-66926190D01*
X-125607142Y-66878571D01*
X-125702380Y-66830952D01*
%TO.C,R305*%
X-140197619Y-87189047D02*
X-140673809Y-87522380D01*
X-140197619Y-87760476D02*
X-141197619Y-87760476D01*
X-141197619Y-87379523D01*
X-141150000Y-87284285D01*
X-141102380Y-87236666D01*
X-141007142Y-87189047D01*
X-140864285Y-87189047D01*
X-140769047Y-87236666D01*
X-140721428Y-87284285D01*
X-140673809Y-87379523D01*
X-140673809Y-87760476D01*
X-141197619Y-86855714D02*
X-141197619Y-86236666D01*
X-140816666Y-86570000D01*
X-140816666Y-86427142D01*
X-140769047Y-86331904D01*
X-140721428Y-86284285D01*
X-140626190Y-86236666D01*
X-140388095Y-86236666D01*
X-140292857Y-86284285D01*
X-140245238Y-86331904D01*
X-140197619Y-86427142D01*
X-140197619Y-86712857D01*
X-140245238Y-86808095D01*
X-140292857Y-86855714D01*
X-141197619Y-85617619D02*
X-141197619Y-85522380D01*
X-141150000Y-85427142D01*
X-141102380Y-85379523D01*
X-141007142Y-85331904D01*
X-140816666Y-85284285D01*
X-140578571Y-85284285D01*
X-140388095Y-85331904D01*
X-140292857Y-85379523D01*
X-140245238Y-85427142D01*
X-140197619Y-85522380D01*
X-140197619Y-85617619D01*
X-140245238Y-85712857D01*
X-140292857Y-85760476D01*
X-140388095Y-85808095D01*
X-140578571Y-85855714D01*
X-140816666Y-85855714D01*
X-141007142Y-85808095D01*
X-141102380Y-85760476D01*
X-141150000Y-85712857D01*
X-141197619Y-85617619D01*
X-141197619Y-84379523D02*
X-141197619Y-84855714D01*
X-140721428Y-84903333D01*
X-140769047Y-84855714D01*
X-140816666Y-84760476D01*
X-140816666Y-84522380D01*
X-140769047Y-84427142D01*
X-140721428Y-84379523D01*
X-140626190Y-84331904D01*
X-140388095Y-84331904D01*
X-140292857Y-84379523D01*
X-140245238Y-84427142D01*
X-140197619Y-84522380D01*
X-140197619Y-84760476D01*
X-140245238Y-84855714D01*
X-140292857Y-84903333D01*
%TO.C,U1*%
X-185327619Y-89201904D02*
X-184518095Y-89201904D01*
X-184422857Y-89154285D01*
X-184375238Y-89106666D01*
X-184327619Y-89011428D01*
X-184327619Y-88820952D01*
X-184375238Y-88725714D01*
X-184422857Y-88678095D01*
X-184518095Y-88630476D01*
X-185327619Y-88630476D01*
X-184327619Y-87630476D02*
X-184327619Y-88201904D01*
X-184327619Y-87916190D02*
X-185327619Y-87916190D01*
X-185184761Y-88011428D01*
X-185089523Y-88106666D01*
X-185041904Y-88201904D01*
%TO.C,D403*%
X-182197619Y-68940476D02*
X-183197619Y-68940476D01*
X-183197619Y-68702380D01*
X-183150000Y-68559523D01*
X-183054761Y-68464285D01*
X-182959523Y-68416666D01*
X-182769047Y-68369047D01*
X-182626190Y-68369047D01*
X-182435714Y-68416666D01*
X-182340476Y-68464285D01*
X-182245238Y-68559523D01*
X-182197619Y-68702380D01*
X-182197619Y-68940476D01*
X-182864285Y-67511904D02*
X-182197619Y-67511904D01*
X-183245238Y-67750000D02*
X-182530952Y-67988095D01*
X-182530952Y-67369047D01*
X-183197619Y-66797619D02*
X-183197619Y-66702380D01*
X-183150000Y-66607142D01*
X-183102380Y-66559523D01*
X-183007142Y-66511904D01*
X-182816666Y-66464285D01*
X-182578571Y-66464285D01*
X-182388095Y-66511904D01*
X-182292857Y-66559523D01*
X-182245238Y-66607142D01*
X-182197619Y-66702380D01*
X-182197619Y-66797619D01*
X-182245238Y-66892857D01*
X-182292857Y-66940476D01*
X-182388095Y-66988095D01*
X-182578571Y-67035714D01*
X-182816666Y-67035714D01*
X-183007142Y-66988095D01*
X-183102380Y-66940476D01*
X-183150000Y-66892857D01*
X-183197619Y-66797619D01*
X-183197619Y-66130952D02*
X-183197619Y-65511904D01*
X-182816666Y-65845238D01*
X-182816666Y-65702380D01*
X-182769047Y-65607142D01*
X-182721428Y-65559523D01*
X-182626190Y-65511904D01*
X-182388095Y-65511904D01*
X-182292857Y-65559523D01*
X-182245238Y-65607142D01*
X-182197619Y-65702380D01*
X-182197619Y-65988095D01*
X-182245238Y-66083333D01*
X-182292857Y-66130952D01*
%TO.C,R308*%
X-150177619Y-87089047D02*
X-150653809Y-87422380D01*
X-150177619Y-87660476D02*
X-151177619Y-87660476D01*
X-151177619Y-87279523D01*
X-151130000Y-87184285D01*
X-151082380Y-87136666D01*
X-150987142Y-87089047D01*
X-150844285Y-87089047D01*
X-150749047Y-87136666D01*
X-150701428Y-87184285D01*
X-150653809Y-87279523D01*
X-150653809Y-87660476D01*
X-151177619Y-86755714D02*
X-151177619Y-86136666D01*
X-150796666Y-86470000D01*
X-150796666Y-86327142D01*
X-150749047Y-86231904D01*
X-150701428Y-86184285D01*
X-150606190Y-86136666D01*
X-150368095Y-86136666D01*
X-150272857Y-86184285D01*
X-150225238Y-86231904D01*
X-150177619Y-86327142D01*
X-150177619Y-86612857D01*
X-150225238Y-86708095D01*
X-150272857Y-86755714D01*
X-151177619Y-85517619D02*
X-151177619Y-85422380D01*
X-151130000Y-85327142D01*
X-151082380Y-85279523D01*
X-150987142Y-85231904D01*
X-150796666Y-85184285D01*
X-150558571Y-85184285D01*
X-150368095Y-85231904D01*
X-150272857Y-85279523D01*
X-150225238Y-85327142D01*
X-150177619Y-85422380D01*
X-150177619Y-85517619D01*
X-150225238Y-85612857D01*
X-150272857Y-85660476D01*
X-150368095Y-85708095D01*
X-150558571Y-85755714D01*
X-150796666Y-85755714D01*
X-150987142Y-85708095D01*
X-151082380Y-85660476D01*
X-151130000Y-85612857D01*
X-151177619Y-85517619D01*
X-150749047Y-84612857D02*
X-150796666Y-84708095D01*
X-150844285Y-84755714D01*
X-150939523Y-84803333D01*
X-150987142Y-84803333D01*
X-151082380Y-84755714D01*
X-151130000Y-84708095D01*
X-151177619Y-84612857D01*
X-151177619Y-84422380D01*
X-151130000Y-84327142D01*
X-151082380Y-84279523D01*
X-150987142Y-84231904D01*
X-150939523Y-84231904D01*
X-150844285Y-84279523D01*
X-150796666Y-84327142D01*
X-150749047Y-84422380D01*
X-150749047Y-84612857D01*
X-150701428Y-84708095D01*
X-150653809Y-84755714D01*
X-150558571Y-84803333D01*
X-150368095Y-84803333D01*
X-150272857Y-84755714D01*
X-150225238Y-84708095D01*
X-150177619Y-84612857D01*
X-150177619Y-84422380D01*
X-150225238Y-84327142D01*
X-150272857Y-84279523D01*
X-150368095Y-84231904D01*
X-150558571Y-84231904D01*
X-150653809Y-84279523D01*
X-150701428Y-84327142D01*
X-150749047Y-84422380D01*
%TO.C,K402*%
X-164297619Y-56140476D02*
X-165297619Y-56140476D01*
X-164297619Y-55569047D02*
X-164869047Y-55997619D01*
X-165297619Y-55569047D02*
X-164726190Y-56140476D01*
X-164964285Y-54711904D02*
X-164297619Y-54711904D01*
X-165345238Y-54950000D02*
X-164630952Y-55188095D01*
X-164630952Y-54569047D01*
X-165297619Y-53997619D02*
X-165297619Y-53902380D01*
X-165250000Y-53807142D01*
X-165202380Y-53759523D01*
X-165107142Y-53711904D01*
X-164916666Y-53664285D01*
X-164678571Y-53664285D01*
X-164488095Y-53711904D01*
X-164392857Y-53759523D01*
X-164345238Y-53807142D01*
X-164297619Y-53902380D01*
X-164297619Y-53997619D01*
X-164345238Y-54092857D01*
X-164392857Y-54140476D01*
X-164488095Y-54188095D01*
X-164678571Y-54235714D01*
X-164916666Y-54235714D01*
X-165107142Y-54188095D01*
X-165202380Y-54140476D01*
X-165250000Y-54092857D01*
X-165297619Y-53997619D01*
X-165202380Y-53283333D02*
X-165250000Y-53235714D01*
X-165297619Y-53140476D01*
X-165297619Y-52902380D01*
X-165250000Y-52807142D01*
X-165202380Y-52759523D01*
X-165107142Y-52711904D01*
X-165011904Y-52711904D01*
X-164869047Y-52759523D01*
X-164297619Y-53330952D01*
X-164297619Y-52711904D01*
%TO.C,C405*%
X-144969047Y-75507142D02*
X-145016666Y-75554761D01*
X-145159523Y-75602380D01*
X-145254761Y-75602380D01*
X-145397619Y-75554761D01*
X-145492857Y-75459523D01*
X-145540476Y-75364285D01*
X-145588095Y-75173809D01*
X-145588095Y-75030952D01*
X-145540476Y-74840476D01*
X-145492857Y-74745238D01*
X-145397619Y-74650000D01*
X-145254761Y-74602380D01*
X-145159523Y-74602380D01*
X-145016666Y-74650000D01*
X-144969047Y-74697619D01*
X-144111904Y-74935714D02*
X-144111904Y-75602380D01*
X-144350000Y-74554761D02*
X-144588095Y-75269047D01*
X-143969047Y-75269047D01*
X-143397619Y-74602380D02*
X-143302380Y-74602380D01*
X-143207142Y-74650000D01*
X-143159523Y-74697619D01*
X-143111904Y-74792857D01*
X-143064285Y-74983333D01*
X-143064285Y-75221428D01*
X-143111904Y-75411904D01*
X-143159523Y-75507142D01*
X-143207142Y-75554761D01*
X-143302380Y-75602380D01*
X-143397619Y-75602380D01*
X-143492857Y-75554761D01*
X-143540476Y-75507142D01*
X-143588095Y-75411904D01*
X-143635714Y-75221428D01*
X-143635714Y-74983333D01*
X-143588095Y-74792857D01*
X-143540476Y-74697619D01*
X-143492857Y-74650000D01*
X-143397619Y-74602380D01*
X-142159523Y-74602380D02*
X-142635714Y-74602380D01*
X-142683333Y-75078571D01*
X-142635714Y-75030952D01*
X-142540476Y-74983333D01*
X-142302380Y-74983333D01*
X-142207142Y-75030952D01*
X-142159523Y-75078571D01*
X-142111904Y-75173809D01*
X-142111904Y-75411904D01*
X-142159523Y-75507142D01*
X-142207142Y-75554761D01*
X-142302380Y-75602380D01*
X-142540476Y-75602380D01*
X-142635714Y-75554761D01*
X-142683333Y-75507142D01*
%TO.C,D402*%
X-196040476Y-67302380D02*
X-196040476Y-66302380D01*
X-195802380Y-66302380D01*
X-195659523Y-66350000D01*
X-195564285Y-66445238D01*
X-195516666Y-66540476D01*
X-195469047Y-66730952D01*
X-195469047Y-66873809D01*
X-195516666Y-67064285D01*
X-195564285Y-67159523D01*
X-195659523Y-67254761D01*
X-195802380Y-67302380D01*
X-196040476Y-67302380D01*
X-194611904Y-66635714D02*
X-194611904Y-67302380D01*
X-194850000Y-66254761D02*
X-195088095Y-66969047D01*
X-194469047Y-66969047D01*
X-193897619Y-66302380D02*
X-193802380Y-66302380D01*
X-193707142Y-66350000D01*
X-193659523Y-66397619D01*
X-193611904Y-66492857D01*
X-193564285Y-66683333D01*
X-193564285Y-66921428D01*
X-193611904Y-67111904D01*
X-193659523Y-67207142D01*
X-193707142Y-67254761D01*
X-193802380Y-67302380D01*
X-193897619Y-67302380D01*
X-193992857Y-67254761D01*
X-194040476Y-67207142D01*
X-194088095Y-67111904D01*
X-194135714Y-66921428D01*
X-194135714Y-66683333D01*
X-194088095Y-66492857D01*
X-194040476Y-66397619D01*
X-193992857Y-66350000D01*
X-193897619Y-66302380D01*
X-193183333Y-66397619D02*
X-193135714Y-66350000D01*
X-193040476Y-66302380D01*
X-192802380Y-66302380D01*
X-192707142Y-66350000D01*
X-192659523Y-66397619D01*
X-192611904Y-66492857D01*
X-192611904Y-66588095D01*
X-192659523Y-66730952D01*
X-193230952Y-67302380D01*
X-192611904Y-67302380D01*
%TO.C,R401*%
X-199469047Y-71602380D02*
X-199802380Y-71126190D01*
X-200040476Y-71602380D02*
X-200040476Y-70602380D01*
X-199659523Y-70602380D01*
X-199564285Y-70650000D01*
X-199516666Y-70697619D01*
X-199469047Y-70792857D01*
X-199469047Y-70935714D01*
X-199516666Y-71030952D01*
X-199564285Y-71078571D01*
X-199659523Y-71126190D01*
X-200040476Y-71126190D01*
X-198611904Y-70935714D02*
X-198611904Y-71602380D01*
X-198850000Y-70554761D02*
X-199088095Y-71269047D01*
X-198469047Y-71269047D01*
X-197897619Y-70602380D02*
X-197802380Y-70602380D01*
X-197707142Y-70650000D01*
X-197659523Y-70697619D01*
X-197611904Y-70792857D01*
X-197564285Y-70983333D01*
X-197564285Y-71221428D01*
X-197611904Y-71411904D01*
X-197659523Y-71507142D01*
X-197707142Y-71554761D01*
X-197802380Y-71602380D01*
X-197897619Y-71602380D01*
X-197992857Y-71554761D01*
X-198040476Y-71507142D01*
X-198088095Y-71411904D01*
X-198135714Y-71221428D01*
X-198135714Y-70983333D01*
X-198088095Y-70792857D01*
X-198040476Y-70697619D01*
X-197992857Y-70650000D01*
X-197897619Y-70602380D01*
X-196611904Y-71602380D02*
X-197183333Y-71602380D01*
X-196897619Y-71602380D02*
X-196897619Y-70602380D01*
X-196992857Y-70745238D01*
X-197088095Y-70840476D01*
X-197183333Y-70888095D01*
%TO.C,R406*%
X-145097619Y-27549047D02*
X-145573809Y-27882380D01*
X-145097619Y-28120476D02*
X-146097619Y-28120476D01*
X-146097619Y-27739523D01*
X-146050000Y-27644285D01*
X-146002380Y-27596666D01*
X-145907142Y-27549047D01*
X-145764285Y-27549047D01*
X-145669047Y-27596666D01*
X-145621428Y-27644285D01*
X-145573809Y-27739523D01*
X-145573809Y-28120476D01*
X-145764285Y-26691904D02*
X-145097619Y-26691904D01*
X-146145238Y-26930000D02*
X-145430952Y-27168095D01*
X-145430952Y-26549047D01*
X-146097619Y-25977619D02*
X-146097619Y-25882380D01*
X-146050000Y-25787142D01*
X-146002380Y-25739523D01*
X-145907142Y-25691904D01*
X-145716666Y-25644285D01*
X-145478571Y-25644285D01*
X-145288095Y-25691904D01*
X-145192857Y-25739523D01*
X-145145238Y-25787142D01*
X-145097619Y-25882380D01*
X-145097619Y-25977619D01*
X-145145238Y-26072857D01*
X-145192857Y-26120476D01*
X-145288095Y-26168095D01*
X-145478571Y-26215714D01*
X-145716666Y-26215714D01*
X-145907142Y-26168095D01*
X-146002380Y-26120476D01*
X-146050000Y-26072857D01*
X-146097619Y-25977619D01*
X-146097619Y-24787142D02*
X-146097619Y-24977619D01*
X-146050000Y-25072857D01*
X-146002380Y-25120476D01*
X-145859523Y-25215714D01*
X-145669047Y-25263333D01*
X-145288095Y-25263333D01*
X-145192857Y-25215714D01*
X-145145238Y-25168095D01*
X-145097619Y-25072857D01*
X-145097619Y-24882380D01*
X-145145238Y-24787142D01*
X-145192857Y-24739523D01*
X-145288095Y-24691904D01*
X-145526190Y-24691904D01*
X-145621428Y-24739523D01*
X-145669047Y-24787142D01*
X-145716666Y-24882380D01*
X-145716666Y-25072857D01*
X-145669047Y-25168095D01*
X-145621428Y-25215714D01*
X-145526190Y-25263333D01*
%TO.C,RV401*%
X-197097619Y-42197619D02*
X-197573809Y-42530952D01*
X-197097619Y-42769047D02*
X-198097619Y-42769047D01*
X-198097619Y-42388095D01*
X-198050000Y-42292857D01*
X-198002380Y-42245238D01*
X-197907142Y-42197619D01*
X-197764285Y-42197619D01*
X-197669047Y-42245238D01*
X-197621428Y-42292857D01*
X-197573809Y-42388095D01*
X-197573809Y-42769047D01*
X-198097619Y-41911904D02*
X-197097619Y-41578571D01*
X-198097619Y-41245238D01*
X-197764285Y-40483333D02*
X-197097619Y-40483333D01*
X-198145238Y-40721428D02*
X-197430952Y-40959523D01*
X-197430952Y-40340476D01*
X-198097619Y-39769047D02*
X-198097619Y-39673809D01*
X-198050000Y-39578571D01*
X-198002380Y-39530952D01*
X-197907142Y-39483333D01*
X-197716666Y-39435714D01*
X-197478571Y-39435714D01*
X-197288095Y-39483333D01*
X-197192857Y-39530952D01*
X-197145238Y-39578571D01*
X-197097619Y-39673809D01*
X-197097619Y-39769047D01*
X-197145238Y-39864285D01*
X-197192857Y-39911904D01*
X-197288095Y-39959523D01*
X-197478571Y-40007142D01*
X-197716666Y-40007142D01*
X-197907142Y-39959523D01*
X-198002380Y-39911904D01*
X-198050000Y-39864285D01*
X-198097619Y-39769047D01*
X-197097619Y-38483333D02*
X-197097619Y-39054761D01*
X-197097619Y-38769047D02*
X-198097619Y-38769047D01*
X-197954761Y-38864285D01*
X-197859523Y-38959523D01*
X-197811904Y-39054761D01*
%TO.C,R405*%
X-154569047Y-71502380D02*
X-154902380Y-71026190D01*
X-155140476Y-71502380D02*
X-155140476Y-70502380D01*
X-154759523Y-70502380D01*
X-154664285Y-70550000D01*
X-154616666Y-70597619D01*
X-154569047Y-70692857D01*
X-154569047Y-70835714D01*
X-154616666Y-70930952D01*
X-154664285Y-70978571D01*
X-154759523Y-71026190D01*
X-155140476Y-71026190D01*
X-153711904Y-70835714D02*
X-153711904Y-71502380D01*
X-153950000Y-70454761D02*
X-154188095Y-71169047D01*
X-153569047Y-71169047D01*
X-152997619Y-70502380D02*
X-152902380Y-70502380D01*
X-152807142Y-70550000D01*
X-152759523Y-70597619D01*
X-152711904Y-70692857D01*
X-152664285Y-70883333D01*
X-152664285Y-71121428D01*
X-152711904Y-71311904D01*
X-152759523Y-71407142D01*
X-152807142Y-71454761D01*
X-152902380Y-71502380D01*
X-152997619Y-71502380D01*
X-153092857Y-71454761D01*
X-153140476Y-71407142D01*
X-153188095Y-71311904D01*
X-153235714Y-71121428D01*
X-153235714Y-70883333D01*
X-153188095Y-70692857D01*
X-153140476Y-70597619D01*
X-153092857Y-70550000D01*
X-152997619Y-70502380D01*
X-151759523Y-70502380D02*
X-152235714Y-70502380D01*
X-152283333Y-70978571D01*
X-152235714Y-70930952D01*
X-152140476Y-70883333D01*
X-151902380Y-70883333D01*
X-151807142Y-70930952D01*
X-151759523Y-70978571D01*
X-151711904Y-71073809D01*
X-151711904Y-71311904D01*
X-151759523Y-71407142D01*
X-151807142Y-71454761D01*
X-151902380Y-71502380D01*
X-152140476Y-71502380D01*
X-152235714Y-71454761D01*
X-152283333Y-71407142D01*
%TO.C,D401*%
X-204697619Y-68940476D02*
X-205697619Y-68940476D01*
X-205697619Y-68702380D01*
X-205650000Y-68559523D01*
X-205554761Y-68464285D01*
X-205459523Y-68416666D01*
X-205269047Y-68369047D01*
X-205126190Y-68369047D01*
X-204935714Y-68416666D01*
X-204840476Y-68464285D01*
X-204745238Y-68559523D01*
X-204697619Y-68702380D01*
X-204697619Y-68940476D01*
X-205364285Y-67511904D02*
X-204697619Y-67511904D01*
X-205745238Y-67750000D02*
X-205030952Y-67988095D01*
X-205030952Y-67369047D01*
X-205697619Y-66797619D02*
X-205697619Y-66702380D01*
X-205650000Y-66607142D01*
X-205602380Y-66559523D01*
X-205507142Y-66511904D01*
X-205316666Y-66464285D01*
X-205078571Y-66464285D01*
X-204888095Y-66511904D01*
X-204792857Y-66559523D01*
X-204745238Y-66607142D01*
X-204697619Y-66702380D01*
X-204697619Y-66797619D01*
X-204745238Y-66892857D01*
X-204792857Y-66940476D01*
X-204888095Y-66988095D01*
X-205078571Y-67035714D01*
X-205316666Y-67035714D01*
X-205507142Y-66988095D01*
X-205602380Y-66940476D01*
X-205650000Y-66892857D01*
X-205697619Y-66797619D01*
X-204697619Y-65511904D02*
X-204697619Y-66083333D01*
X-204697619Y-65797619D02*
X-205697619Y-65797619D01*
X-205554761Y-65892857D01*
X-205459523Y-65988095D01*
X-205411904Y-66083333D01*
%TO.C,RV402*%
X-174797619Y-42397619D02*
X-175273809Y-42730952D01*
X-174797619Y-42969047D02*
X-175797619Y-42969047D01*
X-175797619Y-42588095D01*
X-175750000Y-42492857D01*
X-175702380Y-42445238D01*
X-175607142Y-42397619D01*
X-175464285Y-42397619D01*
X-175369047Y-42445238D01*
X-175321428Y-42492857D01*
X-175273809Y-42588095D01*
X-175273809Y-42969047D01*
X-175797619Y-42111904D02*
X-174797619Y-41778571D01*
X-175797619Y-41445238D01*
X-175464285Y-40683333D02*
X-174797619Y-40683333D01*
X-175845238Y-40921428D02*
X-175130952Y-41159523D01*
X-175130952Y-40540476D01*
X-175797619Y-39969047D02*
X-175797619Y-39873809D01*
X-175750000Y-39778571D01*
X-175702380Y-39730952D01*
X-175607142Y-39683333D01*
X-175416666Y-39635714D01*
X-175178571Y-39635714D01*
X-174988095Y-39683333D01*
X-174892857Y-39730952D01*
X-174845238Y-39778571D01*
X-174797619Y-39873809D01*
X-174797619Y-39969047D01*
X-174845238Y-40064285D01*
X-174892857Y-40111904D01*
X-174988095Y-40159523D01*
X-175178571Y-40207142D01*
X-175416666Y-40207142D01*
X-175607142Y-40159523D01*
X-175702380Y-40111904D01*
X-175750000Y-40064285D01*
X-175797619Y-39969047D01*
X-175702380Y-39254761D02*
X-175750000Y-39207142D01*
X-175797619Y-39111904D01*
X-175797619Y-38873809D01*
X-175750000Y-38778571D01*
X-175702380Y-38730952D01*
X-175607142Y-38683333D01*
X-175511904Y-38683333D01*
X-175369047Y-38730952D01*
X-174797619Y-39302380D01*
X-174797619Y-38683333D01*
%TO.C,K403*%
X-142097619Y-56140476D02*
X-143097619Y-56140476D01*
X-142097619Y-55569047D02*
X-142669047Y-55997619D01*
X-143097619Y-55569047D02*
X-142526190Y-56140476D01*
X-142764285Y-54711904D02*
X-142097619Y-54711904D01*
X-143145238Y-54950000D02*
X-142430952Y-55188095D01*
X-142430952Y-54569047D01*
X-143097619Y-53997619D02*
X-143097619Y-53902380D01*
X-143050000Y-53807142D01*
X-143002380Y-53759523D01*
X-142907142Y-53711904D01*
X-142716666Y-53664285D01*
X-142478571Y-53664285D01*
X-142288095Y-53711904D01*
X-142192857Y-53759523D01*
X-142145238Y-53807142D01*
X-142097619Y-53902380D01*
X-142097619Y-53997619D01*
X-142145238Y-54092857D01*
X-142192857Y-54140476D01*
X-142288095Y-54188095D01*
X-142478571Y-54235714D01*
X-142716666Y-54235714D01*
X-142907142Y-54188095D01*
X-143002380Y-54140476D01*
X-143050000Y-54092857D01*
X-143097619Y-53997619D01*
X-143097619Y-53330952D02*
X-143097619Y-52711904D01*
X-142716666Y-53045238D01*
X-142716666Y-52902380D01*
X-142669047Y-52807142D01*
X-142621428Y-52759523D01*
X-142526190Y-52711904D01*
X-142288095Y-52711904D01*
X-142192857Y-52759523D01*
X-142145238Y-52807142D01*
X-142097619Y-52902380D01*
X-142097619Y-53188095D01*
X-142145238Y-53283333D01*
X-142192857Y-53330952D01*
%TO.C,R404*%
X-167397619Y-27519047D02*
X-167873809Y-27852380D01*
X-167397619Y-28090476D02*
X-168397619Y-28090476D01*
X-168397619Y-27709523D01*
X-168350000Y-27614285D01*
X-168302380Y-27566666D01*
X-168207142Y-27519047D01*
X-168064285Y-27519047D01*
X-167969047Y-27566666D01*
X-167921428Y-27614285D01*
X-167873809Y-27709523D01*
X-167873809Y-28090476D01*
X-168064285Y-26661904D02*
X-167397619Y-26661904D01*
X-168445238Y-26900000D02*
X-167730952Y-27138095D01*
X-167730952Y-26519047D01*
X-168397619Y-25947619D02*
X-168397619Y-25852380D01*
X-168350000Y-25757142D01*
X-168302380Y-25709523D01*
X-168207142Y-25661904D01*
X-168016666Y-25614285D01*
X-167778571Y-25614285D01*
X-167588095Y-25661904D01*
X-167492857Y-25709523D01*
X-167445238Y-25757142D01*
X-167397619Y-25852380D01*
X-167397619Y-25947619D01*
X-167445238Y-26042857D01*
X-167492857Y-26090476D01*
X-167588095Y-26138095D01*
X-167778571Y-26185714D01*
X-168016666Y-26185714D01*
X-168207142Y-26138095D01*
X-168302380Y-26090476D01*
X-168350000Y-26042857D01*
X-168397619Y-25947619D01*
X-168064285Y-24757142D02*
X-167397619Y-24757142D01*
X-168445238Y-24995238D02*
X-167730952Y-25233333D01*
X-167730952Y-24614285D01*
%TO.C,K401*%
X-186597619Y-56140476D02*
X-187597619Y-56140476D01*
X-186597619Y-55569047D02*
X-187169047Y-55997619D01*
X-187597619Y-55569047D02*
X-187026190Y-56140476D01*
X-187264285Y-54711904D02*
X-186597619Y-54711904D01*
X-187645238Y-54950000D02*
X-186930952Y-55188095D01*
X-186930952Y-54569047D01*
X-187597619Y-53997619D02*
X-187597619Y-53902380D01*
X-187550000Y-53807142D01*
X-187502380Y-53759523D01*
X-187407142Y-53711904D01*
X-187216666Y-53664285D01*
X-186978571Y-53664285D01*
X-186788095Y-53711904D01*
X-186692857Y-53759523D01*
X-186645238Y-53807142D01*
X-186597619Y-53902380D01*
X-186597619Y-53997619D01*
X-186645238Y-54092857D01*
X-186692857Y-54140476D01*
X-186788095Y-54188095D01*
X-186978571Y-54235714D01*
X-187216666Y-54235714D01*
X-187407142Y-54188095D01*
X-187502380Y-54140476D01*
X-187550000Y-54092857D01*
X-187597619Y-53997619D01*
X-186597619Y-52711904D02*
X-186597619Y-53283333D01*
X-186597619Y-52997619D02*
X-187597619Y-52997619D01*
X-187454761Y-53092857D01*
X-187359523Y-53188095D01*
X-187311904Y-53283333D01*
%TO.C,C407*%
X-122574159Y-75407142D02*
X-122621778Y-75454761D01*
X-122764635Y-75502380D01*
X-122859873Y-75502380D01*
X-123002731Y-75454761D01*
X-123097969Y-75359523D01*
X-123145588Y-75264285D01*
X-123193207Y-75073809D01*
X-123193207Y-74930952D01*
X-123145588Y-74740476D01*
X-123097969Y-74645238D01*
X-123002731Y-74550000D01*
X-122859873Y-74502380D01*
X-122764635Y-74502380D01*
X-122621778Y-74550000D01*
X-122574159Y-74597619D01*
X-121717016Y-74835714D02*
X-121717016Y-75502380D01*
X-121955112Y-74454761D02*
X-122193207Y-75169047D01*
X-121574159Y-75169047D01*
X-121002731Y-74502380D02*
X-120907492Y-74502380D01*
X-120812254Y-74550000D01*
X-120764635Y-74597619D01*
X-120717016Y-74692857D01*
X-120669397Y-74883333D01*
X-120669397Y-75121428D01*
X-120717016Y-75311904D01*
X-120764635Y-75407142D01*
X-120812254Y-75454761D01*
X-120907492Y-75502380D01*
X-121002731Y-75502380D01*
X-121097969Y-75454761D01*
X-121145588Y-75407142D01*
X-121193207Y-75311904D01*
X-121240826Y-75121428D01*
X-121240826Y-74883333D01*
X-121193207Y-74692857D01*
X-121145588Y-74597619D01*
X-121097969Y-74550000D01*
X-121002731Y-74502380D01*
X-120336064Y-74502380D02*
X-119669397Y-74502380D01*
X-120097969Y-75502380D01*
%TO.C,R306*%
X-143497619Y-86889047D02*
X-143973809Y-87222380D01*
X-143497619Y-87460476D02*
X-144497619Y-87460476D01*
X-144497619Y-87079523D01*
X-144450000Y-86984285D01*
X-144402380Y-86936666D01*
X-144307142Y-86889047D01*
X-144164285Y-86889047D01*
X-144069047Y-86936666D01*
X-144021428Y-86984285D01*
X-143973809Y-87079523D01*
X-143973809Y-87460476D01*
X-144497619Y-86555714D02*
X-144497619Y-85936666D01*
X-144116666Y-86270000D01*
X-144116666Y-86127142D01*
X-144069047Y-86031904D01*
X-144021428Y-85984285D01*
X-143926190Y-85936666D01*
X-143688095Y-85936666D01*
X-143592857Y-85984285D01*
X-143545238Y-86031904D01*
X-143497619Y-86127142D01*
X-143497619Y-86412857D01*
X-143545238Y-86508095D01*
X-143592857Y-86555714D01*
X-144497619Y-85317619D02*
X-144497619Y-85222380D01*
X-144450000Y-85127142D01*
X-144402380Y-85079523D01*
X-144307142Y-85031904D01*
X-144116666Y-84984285D01*
X-143878571Y-84984285D01*
X-143688095Y-85031904D01*
X-143592857Y-85079523D01*
X-143545238Y-85127142D01*
X-143497619Y-85222380D01*
X-143497619Y-85317619D01*
X-143545238Y-85412857D01*
X-143592857Y-85460476D01*
X-143688095Y-85508095D01*
X-143878571Y-85555714D01*
X-144116666Y-85555714D01*
X-144307142Y-85508095D01*
X-144402380Y-85460476D01*
X-144450000Y-85412857D01*
X-144497619Y-85317619D01*
X-144497619Y-84127142D02*
X-144497619Y-84317619D01*
X-144450000Y-84412857D01*
X-144402380Y-84460476D01*
X-144259523Y-84555714D01*
X-144069047Y-84603333D01*
X-143688095Y-84603333D01*
X-143592857Y-84555714D01*
X-143545238Y-84508095D01*
X-143497619Y-84412857D01*
X-143497619Y-84222380D01*
X-143545238Y-84127142D01*
X-143592857Y-84079523D01*
X-143688095Y-84031904D01*
X-143926190Y-84031904D01*
X-144021428Y-84079523D01*
X-144069047Y-84127142D01*
X-144116666Y-84222380D01*
X-144116666Y-84412857D01*
X-144069047Y-84508095D01*
X-144021428Y-84555714D01*
X-143926190Y-84603333D01*
%TO.C,C408*%
X-131692857Y-27169047D02*
X-131645238Y-27216666D01*
X-131597619Y-27359523D01*
X-131597619Y-27454761D01*
X-131645238Y-27597619D01*
X-131740476Y-27692857D01*
X-131835714Y-27740476D01*
X-132026190Y-27788095D01*
X-132169047Y-27788095D01*
X-132359523Y-27740476D01*
X-132454761Y-27692857D01*
X-132550000Y-27597619D01*
X-132597619Y-27454761D01*
X-132597619Y-27359523D01*
X-132550000Y-27216666D01*
X-132502380Y-27169047D01*
X-132264285Y-26311904D02*
X-131597619Y-26311904D01*
X-132645238Y-26550000D02*
X-131930952Y-26788095D01*
X-131930952Y-26169047D01*
X-132597619Y-25597619D02*
X-132597619Y-25502380D01*
X-132550000Y-25407142D01*
X-132502380Y-25359523D01*
X-132407142Y-25311904D01*
X-132216666Y-25264285D01*
X-131978571Y-25264285D01*
X-131788095Y-25311904D01*
X-131692857Y-25359523D01*
X-131645238Y-25407142D01*
X-131597619Y-25502380D01*
X-131597619Y-25597619D01*
X-131645238Y-25692857D01*
X-131692857Y-25740476D01*
X-131788095Y-25788095D01*
X-131978571Y-25835714D01*
X-132216666Y-25835714D01*
X-132407142Y-25788095D01*
X-132502380Y-25740476D01*
X-132550000Y-25692857D01*
X-132597619Y-25597619D01*
X-132169047Y-24692857D02*
X-132216666Y-24788095D01*
X-132264285Y-24835714D01*
X-132359523Y-24883333D01*
X-132407142Y-24883333D01*
X-132502380Y-24835714D01*
X-132550000Y-24788095D01*
X-132597619Y-24692857D01*
X-132597619Y-24502380D01*
X-132550000Y-24407142D01*
X-132502380Y-24359523D01*
X-132407142Y-24311904D01*
X-132359523Y-24311904D01*
X-132264285Y-24359523D01*
X-132216666Y-24407142D01*
X-132169047Y-24502380D01*
X-132169047Y-24692857D01*
X-132121428Y-24788095D01*
X-132073809Y-24835714D01*
X-131978571Y-24883333D01*
X-131788095Y-24883333D01*
X-131692857Y-24835714D01*
X-131645238Y-24788095D01*
X-131597619Y-24692857D01*
X-131597619Y-24502380D01*
X-131645238Y-24407142D01*
X-131692857Y-24359523D01*
X-131788095Y-24311904D01*
X-131978571Y-24311904D01*
X-132073809Y-24359523D01*
X-132121428Y-24407142D01*
X-132169047Y-24502380D01*
%TO.C,C403*%
X-167569047Y-75507142D02*
X-167616666Y-75554761D01*
X-167759523Y-75602380D01*
X-167854761Y-75602380D01*
X-167997619Y-75554761D01*
X-168092857Y-75459523D01*
X-168140476Y-75364285D01*
X-168188095Y-75173809D01*
X-168188095Y-75030952D01*
X-168140476Y-74840476D01*
X-168092857Y-74745238D01*
X-167997619Y-74650000D01*
X-167854761Y-74602380D01*
X-167759523Y-74602380D01*
X-167616666Y-74650000D01*
X-167569047Y-74697619D01*
X-166711904Y-74935714D02*
X-166711904Y-75602380D01*
X-166950000Y-74554761D02*
X-167188095Y-75269047D01*
X-166569047Y-75269047D01*
X-165997619Y-74602380D02*
X-165902380Y-74602380D01*
X-165807142Y-74650000D01*
X-165759523Y-74697619D01*
X-165711904Y-74792857D01*
X-165664285Y-74983333D01*
X-165664285Y-75221428D01*
X-165711904Y-75411904D01*
X-165759523Y-75507142D01*
X-165807142Y-75554761D01*
X-165902380Y-75602380D01*
X-165997619Y-75602380D01*
X-166092857Y-75554761D01*
X-166140476Y-75507142D01*
X-166188095Y-75411904D01*
X-166235714Y-75221428D01*
X-166235714Y-74983333D01*
X-166188095Y-74792857D01*
X-166140476Y-74697619D01*
X-166092857Y-74650000D01*
X-165997619Y-74602380D01*
X-165330952Y-74602380D02*
X-164711904Y-74602380D01*
X-165045238Y-74983333D01*
X-164902380Y-74983333D01*
X-164807142Y-75030952D01*
X-164759523Y-75078571D01*
X-164711904Y-75173809D01*
X-164711904Y-75411904D01*
X-164759523Y-75507142D01*
X-164807142Y-75554761D01*
X-164902380Y-75602380D01*
X-165188095Y-75602380D01*
X-165283333Y-75554761D01*
X-165330952Y-75507142D01*
%TO.C,R403*%
X-176969047Y-71502380D02*
X-177302380Y-71026190D01*
X-177540476Y-71502380D02*
X-177540476Y-70502380D01*
X-177159523Y-70502380D01*
X-177064285Y-70550000D01*
X-177016666Y-70597619D01*
X-176969047Y-70692857D01*
X-176969047Y-70835714D01*
X-177016666Y-70930952D01*
X-177064285Y-70978571D01*
X-177159523Y-71026190D01*
X-177540476Y-71026190D01*
X-176111904Y-70835714D02*
X-176111904Y-71502380D01*
X-176350000Y-70454761D02*
X-176588095Y-71169047D01*
X-175969047Y-71169047D01*
X-175397619Y-70502380D02*
X-175302380Y-70502380D01*
X-175207142Y-70550000D01*
X-175159523Y-70597619D01*
X-175111904Y-70692857D01*
X-175064285Y-70883333D01*
X-175064285Y-71121428D01*
X-175111904Y-71311904D01*
X-175159523Y-71407142D01*
X-175207142Y-71454761D01*
X-175302380Y-71502380D01*
X-175397619Y-71502380D01*
X-175492857Y-71454761D01*
X-175540476Y-71407142D01*
X-175588095Y-71311904D01*
X-175635714Y-71121428D01*
X-175635714Y-70883333D01*
X-175588095Y-70692857D01*
X-175540476Y-70597619D01*
X-175492857Y-70550000D01*
X-175397619Y-70502380D01*
X-174730952Y-70502380D02*
X-174111904Y-70502380D01*
X-174445238Y-70883333D01*
X-174302380Y-70883333D01*
X-174207142Y-70930952D01*
X-174159523Y-70978571D01*
X-174111904Y-71073809D01*
X-174111904Y-71311904D01*
X-174159523Y-71407142D01*
X-174207142Y-71454761D01*
X-174302380Y-71502380D01*
X-174588095Y-71502380D01*
X-174683333Y-71454761D01*
X-174730952Y-71407142D01*
%TO.C,R402*%
X-189797619Y-27639047D02*
X-190273809Y-27972380D01*
X-189797619Y-28210476D02*
X-190797619Y-28210476D01*
X-190797619Y-27829523D01*
X-190750000Y-27734285D01*
X-190702380Y-27686666D01*
X-190607142Y-27639047D01*
X-190464285Y-27639047D01*
X-190369047Y-27686666D01*
X-190321428Y-27734285D01*
X-190273809Y-27829523D01*
X-190273809Y-28210476D01*
X-190464285Y-26781904D02*
X-189797619Y-26781904D01*
X-190845238Y-27020000D02*
X-190130952Y-27258095D01*
X-190130952Y-26639047D01*
X-190797619Y-26067619D02*
X-190797619Y-25972380D01*
X-190750000Y-25877142D01*
X-190702380Y-25829523D01*
X-190607142Y-25781904D01*
X-190416666Y-25734285D01*
X-190178571Y-25734285D01*
X-189988095Y-25781904D01*
X-189892857Y-25829523D01*
X-189845238Y-25877142D01*
X-189797619Y-25972380D01*
X-189797619Y-26067619D01*
X-189845238Y-26162857D01*
X-189892857Y-26210476D01*
X-189988095Y-26258095D01*
X-190178571Y-26305714D01*
X-190416666Y-26305714D01*
X-190607142Y-26258095D01*
X-190702380Y-26210476D01*
X-190750000Y-26162857D01*
X-190797619Y-26067619D01*
X-190702380Y-25353333D02*
X-190750000Y-25305714D01*
X-190797619Y-25210476D01*
X-190797619Y-24972380D01*
X-190750000Y-24877142D01*
X-190702380Y-24829523D01*
X-190607142Y-24781904D01*
X-190511904Y-24781904D01*
X-190369047Y-24829523D01*
X-189797619Y-25400952D01*
X-189797619Y-24781904D01*
%TO.C,F601*%
X-216921428Y-27735714D02*
X-216921428Y-28069047D01*
X-216397619Y-28069047D02*
X-217397619Y-28069047D01*
X-217397619Y-27592857D01*
X-217397619Y-26783333D02*
X-217397619Y-26973809D01*
X-217350000Y-27069047D01*
X-217302380Y-27116666D01*
X-217159523Y-27211904D01*
X-216969047Y-27259523D01*
X-216588095Y-27259523D01*
X-216492857Y-27211904D01*
X-216445238Y-27164285D01*
X-216397619Y-27069047D01*
X-216397619Y-26878571D01*
X-216445238Y-26783333D01*
X-216492857Y-26735714D01*
X-216588095Y-26688095D01*
X-216826190Y-26688095D01*
X-216921428Y-26735714D01*
X-216969047Y-26783333D01*
X-217016666Y-26878571D01*
X-217016666Y-27069047D01*
X-216969047Y-27164285D01*
X-216921428Y-27211904D01*
X-216826190Y-27259523D01*
X-217397619Y-26069047D02*
X-217397619Y-25973809D01*
X-217350000Y-25878571D01*
X-217302380Y-25830952D01*
X-217207142Y-25783333D01*
X-217016666Y-25735714D01*
X-216778571Y-25735714D01*
X-216588095Y-25783333D01*
X-216492857Y-25830952D01*
X-216445238Y-25878571D01*
X-216397619Y-25973809D01*
X-216397619Y-26069047D01*
X-216445238Y-26164285D01*
X-216492857Y-26211904D01*
X-216588095Y-26259523D01*
X-216778571Y-26307142D01*
X-217016666Y-26307142D01*
X-217207142Y-26259523D01*
X-217302380Y-26211904D01*
X-217350000Y-26164285D01*
X-217397619Y-26069047D01*
X-216397619Y-24783333D02*
X-216397619Y-25354761D01*
X-216397619Y-25069047D02*
X-217397619Y-25069047D01*
X-217254761Y-25164285D01*
X-217159523Y-25259523D01*
X-217111904Y-25354761D01*
%TO.C,RN301*%
X-148342857Y-97602380D02*
X-148676190Y-97126190D01*
X-148914285Y-97602380D02*
X-148914285Y-96602380D01*
X-148533333Y-96602380D01*
X-148438095Y-96650000D01*
X-148390476Y-96697619D01*
X-148342857Y-96792857D01*
X-148342857Y-96935714D01*
X-148390476Y-97030952D01*
X-148438095Y-97078571D01*
X-148533333Y-97126190D01*
X-148914285Y-97126190D01*
X-147914285Y-97602380D02*
X-147914285Y-96602380D01*
X-147342857Y-97602380D01*
X-147342857Y-96602380D01*
X-146961904Y-96602380D02*
X-146342857Y-96602380D01*
X-146676190Y-96983333D01*
X-146533333Y-96983333D01*
X-146438095Y-97030952D01*
X-146390476Y-97078571D01*
X-146342857Y-97173809D01*
X-146342857Y-97411904D01*
X-146390476Y-97507142D01*
X-146438095Y-97554761D01*
X-146533333Y-97602380D01*
X-146819047Y-97602380D01*
X-146914285Y-97554761D01*
X-146961904Y-97507142D01*
X-145723809Y-96602380D02*
X-145628571Y-96602380D01*
X-145533333Y-96650000D01*
X-145485714Y-96697619D01*
X-145438095Y-96792857D01*
X-145390476Y-96983333D01*
X-145390476Y-97221428D01*
X-145438095Y-97411904D01*
X-145485714Y-97507142D01*
X-145533333Y-97554761D01*
X-145628571Y-97602380D01*
X-145723809Y-97602380D01*
X-145819047Y-97554761D01*
X-145866666Y-97507142D01*
X-145914285Y-97411904D01*
X-145961904Y-97221428D01*
X-145961904Y-96983333D01*
X-145914285Y-96792857D01*
X-145866666Y-96697619D01*
X-145819047Y-96650000D01*
X-145723809Y-96602380D01*
X-144438095Y-97602380D02*
X-145009523Y-97602380D01*
X-144723809Y-97602380D02*
X-144723809Y-96602380D01*
X-144819047Y-96745238D01*
X-144914285Y-96840476D01*
X-145009523Y-96888095D01*
%TO.C,C401*%
X-189969047Y-75507142D02*
X-190016666Y-75554761D01*
X-190159523Y-75602380D01*
X-190254761Y-75602380D01*
X-190397619Y-75554761D01*
X-190492857Y-75459523D01*
X-190540476Y-75364285D01*
X-190588095Y-75173809D01*
X-190588095Y-75030952D01*
X-190540476Y-74840476D01*
X-190492857Y-74745238D01*
X-190397619Y-74650000D01*
X-190254761Y-74602380D01*
X-190159523Y-74602380D01*
X-190016666Y-74650000D01*
X-189969047Y-74697619D01*
X-189111904Y-74935714D02*
X-189111904Y-75602380D01*
X-189350000Y-74554761D02*
X-189588095Y-75269047D01*
X-188969047Y-75269047D01*
X-188397619Y-74602380D02*
X-188302380Y-74602380D01*
X-188207142Y-74650000D01*
X-188159523Y-74697619D01*
X-188111904Y-74792857D01*
X-188064285Y-74983333D01*
X-188064285Y-75221428D01*
X-188111904Y-75411904D01*
X-188159523Y-75507142D01*
X-188207142Y-75554761D01*
X-188302380Y-75602380D01*
X-188397619Y-75602380D01*
X-188492857Y-75554761D01*
X-188540476Y-75507142D01*
X-188588095Y-75411904D01*
X-188635714Y-75221428D01*
X-188635714Y-74983333D01*
X-188588095Y-74792857D01*
X-188540476Y-74697619D01*
X-188492857Y-74650000D01*
X-188397619Y-74602380D01*
X-187111904Y-75602380D02*
X-187683333Y-75602380D01*
X-187397619Y-75602380D02*
X-187397619Y-74602380D01*
X-187492857Y-74745238D01*
X-187588095Y-74840476D01*
X-187683333Y-74888095D01*
%TO.C,K404*%
X-119797619Y-56140476D02*
X-120797619Y-56140476D01*
X-119797619Y-55569047D02*
X-120369047Y-55997619D01*
X-120797619Y-55569047D02*
X-120226190Y-56140476D01*
X-120464285Y-54711904D02*
X-119797619Y-54711904D01*
X-120845238Y-54950000D02*
X-120130952Y-55188095D01*
X-120130952Y-54569047D01*
X-120797619Y-53997619D02*
X-120797619Y-53902380D01*
X-120750000Y-53807142D01*
X-120702380Y-53759523D01*
X-120607142Y-53711904D01*
X-120416666Y-53664285D01*
X-120178571Y-53664285D01*
X-119988095Y-53711904D01*
X-119892857Y-53759523D01*
X-119845238Y-53807142D01*
X-119797619Y-53902380D01*
X-119797619Y-53997619D01*
X-119845238Y-54092857D01*
X-119892857Y-54140476D01*
X-119988095Y-54188095D01*
X-120178571Y-54235714D01*
X-120416666Y-54235714D01*
X-120607142Y-54188095D01*
X-120702380Y-54140476D01*
X-120750000Y-54092857D01*
X-120797619Y-53997619D01*
X-120464285Y-52807142D02*
X-119797619Y-52807142D01*
X-120845238Y-53045238D02*
X-120130952Y-53283333D01*
X-120130952Y-52664285D01*
%TO.C,RV404*%
X-130497619Y-42397619D02*
X-130973809Y-42730952D01*
X-130497619Y-42969047D02*
X-131497619Y-42969047D01*
X-131497619Y-42588095D01*
X-131450000Y-42492857D01*
X-131402380Y-42445238D01*
X-131307142Y-42397619D01*
X-131164285Y-42397619D01*
X-131069047Y-42445238D01*
X-131021428Y-42492857D01*
X-130973809Y-42588095D01*
X-130973809Y-42969047D01*
X-131497619Y-42111904D02*
X-130497619Y-41778571D01*
X-131497619Y-41445238D01*
X-131164285Y-40683333D02*
X-130497619Y-40683333D01*
X-131545238Y-40921428D02*
X-130830952Y-41159523D01*
X-130830952Y-40540476D01*
X-131497619Y-39969047D02*
X-131497619Y-39873809D01*
X-131450000Y-39778571D01*
X-131402380Y-39730952D01*
X-131307142Y-39683333D01*
X-131116666Y-39635714D01*
X-130878571Y-39635714D01*
X-130688095Y-39683333D01*
X-130592857Y-39730952D01*
X-130545238Y-39778571D01*
X-130497619Y-39873809D01*
X-130497619Y-39969047D01*
X-130545238Y-40064285D01*
X-130592857Y-40111904D01*
X-130688095Y-40159523D01*
X-130878571Y-40207142D01*
X-131116666Y-40207142D01*
X-131307142Y-40159523D01*
X-131402380Y-40111904D01*
X-131450000Y-40064285D01*
X-131497619Y-39969047D01*
X-131164285Y-38778571D02*
X-130497619Y-38778571D01*
X-131545238Y-39016666D02*
X-130830952Y-39254761D01*
X-130830952Y-38635714D01*
%TO.C,R408*%
X-122997619Y-27649047D02*
X-123473809Y-27982380D01*
X-122997619Y-28220476D02*
X-123997619Y-28220476D01*
X-123997619Y-27839523D01*
X-123950000Y-27744285D01*
X-123902380Y-27696666D01*
X-123807142Y-27649047D01*
X-123664285Y-27649047D01*
X-123569047Y-27696666D01*
X-123521428Y-27744285D01*
X-123473809Y-27839523D01*
X-123473809Y-28220476D01*
X-123664285Y-26791904D02*
X-122997619Y-26791904D01*
X-124045238Y-27030000D02*
X-123330952Y-27268095D01*
X-123330952Y-26649047D01*
X-123997619Y-26077619D02*
X-123997619Y-25982380D01*
X-123950000Y-25887142D01*
X-123902380Y-25839523D01*
X-123807142Y-25791904D01*
X-123616666Y-25744285D01*
X-123378571Y-25744285D01*
X-123188095Y-25791904D01*
X-123092857Y-25839523D01*
X-123045238Y-25887142D01*
X-122997619Y-25982380D01*
X-122997619Y-26077619D01*
X-123045238Y-26172857D01*
X-123092857Y-26220476D01*
X-123188095Y-26268095D01*
X-123378571Y-26315714D01*
X-123616666Y-26315714D01*
X-123807142Y-26268095D01*
X-123902380Y-26220476D01*
X-123950000Y-26172857D01*
X-123997619Y-26077619D01*
X-123569047Y-25172857D02*
X-123616666Y-25268095D01*
X-123664285Y-25315714D01*
X-123759523Y-25363333D01*
X-123807142Y-25363333D01*
X-123902380Y-25315714D01*
X-123950000Y-25268095D01*
X-123997619Y-25172857D01*
X-123997619Y-24982380D01*
X-123950000Y-24887142D01*
X-123902380Y-24839523D01*
X-123807142Y-24791904D01*
X-123759523Y-24791904D01*
X-123664285Y-24839523D01*
X-123616666Y-24887142D01*
X-123569047Y-24982380D01*
X-123569047Y-25172857D01*
X-123521428Y-25268095D01*
X-123473809Y-25315714D01*
X-123378571Y-25363333D01*
X-123188095Y-25363333D01*
X-123092857Y-25315714D01*
X-123045238Y-25268095D01*
X-122997619Y-25172857D01*
X-122997619Y-24982380D01*
X-123045238Y-24887142D01*
X-123092857Y-24839523D01*
X-123188095Y-24791904D01*
X-123378571Y-24791904D01*
X-123473809Y-24839523D01*
X-123521428Y-24887142D01*
X-123569047Y-24982380D01*
%TO.C,D407*%
X-137697619Y-67740476D02*
X-138697619Y-67740476D01*
X-138697619Y-67502380D01*
X-138650000Y-67359523D01*
X-138554761Y-67264285D01*
X-138459523Y-67216666D01*
X-138269047Y-67169047D01*
X-138126190Y-67169047D01*
X-137935714Y-67216666D01*
X-137840476Y-67264285D01*
X-137745238Y-67359523D01*
X-137697619Y-67502380D01*
X-137697619Y-67740476D01*
X-138364285Y-66311904D02*
X-137697619Y-66311904D01*
X-138745238Y-66550000D02*
X-138030952Y-66788095D01*
X-138030952Y-66169047D01*
X-138697619Y-65597619D02*
X-138697619Y-65502380D01*
X-138650000Y-65407142D01*
X-138602380Y-65359523D01*
X-138507142Y-65311904D01*
X-138316666Y-65264285D01*
X-138078571Y-65264285D01*
X-137888095Y-65311904D01*
X-137792857Y-65359523D01*
X-137745238Y-65407142D01*
X-137697619Y-65502380D01*
X-137697619Y-65597619D01*
X-137745238Y-65692857D01*
X-137792857Y-65740476D01*
X-137888095Y-65788095D01*
X-138078571Y-65835714D01*
X-138316666Y-65835714D01*
X-138507142Y-65788095D01*
X-138602380Y-65740476D01*
X-138650000Y-65692857D01*
X-138697619Y-65597619D01*
X-138697619Y-64930952D02*
X-138697619Y-64264285D01*
X-137697619Y-64692857D01*
%TO.C,D404*%
X-173640476Y-67402380D02*
X-173640476Y-66402380D01*
X-173402380Y-66402380D01*
X-173259523Y-66450000D01*
X-173164285Y-66545238D01*
X-173116666Y-66640476D01*
X-173069047Y-66830952D01*
X-173069047Y-66973809D01*
X-173116666Y-67164285D01*
X-173164285Y-67259523D01*
X-173259523Y-67354761D01*
X-173402380Y-67402380D01*
X-173640476Y-67402380D01*
X-172211904Y-66735714D02*
X-172211904Y-67402380D01*
X-172450000Y-66354761D02*
X-172688095Y-67069047D01*
X-172069047Y-67069047D01*
X-171497619Y-66402380D02*
X-171402380Y-66402380D01*
X-171307142Y-66450000D01*
X-171259523Y-66497619D01*
X-171211904Y-66592857D01*
X-171164285Y-66783333D01*
X-171164285Y-67021428D01*
X-171211904Y-67211904D01*
X-171259523Y-67307142D01*
X-171307142Y-67354761D01*
X-171402380Y-67402380D01*
X-171497619Y-67402380D01*
X-171592857Y-67354761D01*
X-171640476Y-67307142D01*
X-171688095Y-67211904D01*
X-171735714Y-67021428D01*
X-171735714Y-66783333D01*
X-171688095Y-66592857D01*
X-171640476Y-66497619D01*
X-171592857Y-66450000D01*
X-171497619Y-66402380D01*
X-170307142Y-66735714D02*
X-170307142Y-67402380D01*
X-170545238Y-66354761D02*
X-170783333Y-67069047D01*
X-170164285Y-67069047D01*
%TO.C,C406*%
X-153692857Y-27169047D02*
X-153645238Y-27216666D01*
X-153597619Y-27359523D01*
X-153597619Y-27454761D01*
X-153645238Y-27597619D01*
X-153740476Y-27692857D01*
X-153835714Y-27740476D01*
X-154026190Y-27788095D01*
X-154169047Y-27788095D01*
X-154359523Y-27740476D01*
X-154454761Y-27692857D01*
X-154550000Y-27597619D01*
X-154597619Y-27454761D01*
X-154597619Y-27359523D01*
X-154550000Y-27216666D01*
X-154502380Y-27169047D01*
X-154264285Y-26311904D02*
X-153597619Y-26311904D01*
X-154645238Y-26550000D02*
X-153930952Y-26788095D01*
X-153930952Y-26169047D01*
X-154597619Y-25597619D02*
X-154597619Y-25502380D01*
X-154550000Y-25407142D01*
X-154502380Y-25359523D01*
X-154407142Y-25311904D01*
X-154216666Y-25264285D01*
X-153978571Y-25264285D01*
X-153788095Y-25311904D01*
X-153692857Y-25359523D01*
X-153645238Y-25407142D01*
X-153597619Y-25502380D01*
X-153597619Y-25597619D01*
X-153645238Y-25692857D01*
X-153692857Y-25740476D01*
X-153788095Y-25788095D01*
X-153978571Y-25835714D01*
X-154216666Y-25835714D01*
X-154407142Y-25788095D01*
X-154502380Y-25740476D01*
X-154550000Y-25692857D01*
X-154597619Y-25597619D01*
X-154597619Y-24407142D02*
X-154597619Y-24597619D01*
X-154550000Y-24692857D01*
X-154502380Y-24740476D01*
X-154359523Y-24835714D01*
X-154169047Y-24883333D01*
X-153788095Y-24883333D01*
X-153692857Y-24835714D01*
X-153645238Y-24788095D01*
X-153597619Y-24692857D01*
X-153597619Y-24502380D01*
X-153645238Y-24407142D01*
X-153692857Y-24359523D01*
X-153788095Y-24311904D01*
X-154026190Y-24311904D01*
X-154121428Y-24359523D01*
X-154169047Y-24407142D01*
X-154216666Y-24502380D01*
X-154216666Y-24692857D01*
X-154169047Y-24788095D01*
X-154121428Y-24835714D01*
X-154026190Y-24883333D01*
%TO.C,RV403*%
X-152597619Y-42397619D02*
X-153073809Y-42730952D01*
X-152597619Y-42969047D02*
X-153597619Y-42969047D01*
X-153597619Y-42588095D01*
X-153550000Y-42492857D01*
X-153502380Y-42445238D01*
X-153407142Y-42397619D01*
X-153264285Y-42397619D01*
X-153169047Y-42445238D01*
X-153121428Y-42492857D01*
X-153073809Y-42588095D01*
X-153073809Y-42969047D01*
X-153597619Y-42111904D02*
X-152597619Y-41778571D01*
X-153597619Y-41445238D01*
X-153264285Y-40683333D02*
X-152597619Y-40683333D01*
X-153645238Y-40921428D02*
X-152930952Y-41159523D01*
X-152930952Y-40540476D01*
X-153597619Y-39969047D02*
X-153597619Y-39873809D01*
X-153550000Y-39778571D01*
X-153502380Y-39730952D01*
X-153407142Y-39683333D01*
X-153216666Y-39635714D01*
X-152978571Y-39635714D01*
X-152788095Y-39683333D01*
X-152692857Y-39730952D01*
X-152645238Y-39778571D01*
X-152597619Y-39873809D01*
X-152597619Y-39969047D01*
X-152645238Y-40064285D01*
X-152692857Y-40111904D01*
X-152788095Y-40159523D01*
X-152978571Y-40207142D01*
X-153216666Y-40207142D01*
X-153407142Y-40159523D01*
X-153502380Y-40111904D01*
X-153550000Y-40064285D01*
X-153597619Y-39969047D01*
X-153597619Y-39302380D02*
X-153597619Y-38683333D01*
X-153216666Y-39016666D01*
X-153216666Y-38873809D01*
X-153169047Y-38778571D01*
X-153121428Y-38730952D01*
X-153026190Y-38683333D01*
X-152788095Y-38683333D01*
X-152692857Y-38730952D01*
X-152645238Y-38778571D01*
X-152597619Y-38873809D01*
X-152597619Y-39159523D01*
X-152645238Y-39254761D01*
X-152692857Y-39302380D01*
%TO.C,D405*%
X-163665476Y-67302380D02*
X-163665476Y-66302380D01*
X-163427380Y-66302380D01*
X-163284523Y-66350000D01*
X-163189285Y-66445238D01*
X-163141666Y-66540476D01*
X-163094047Y-66730952D01*
X-163094047Y-66873809D01*
X-163141666Y-67064285D01*
X-163189285Y-67159523D01*
X-163284523Y-67254761D01*
X-163427380Y-67302380D01*
X-163665476Y-67302380D01*
X-162236904Y-66635714D02*
X-162236904Y-67302380D01*
X-162475000Y-66254761D02*
X-162713095Y-66969047D01*
X-162094047Y-66969047D01*
X-161522619Y-66302380D02*
X-161427380Y-66302380D01*
X-161332142Y-66350000D01*
X-161284523Y-66397619D01*
X-161236904Y-66492857D01*
X-161189285Y-66683333D01*
X-161189285Y-66921428D01*
X-161236904Y-67111904D01*
X-161284523Y-67207142D01*
X-161332142Y-67254761D01*
X-161427380Y-67302380D01*
X-161522619Y-67302380D01*
X-161617857Y-67254761D01*
X-161665476Y-67207142D01*
X-161713095Y-67111904D01*
X-161760714Y-66921428D01*
X-161760714Y-66683333D01*
X-161713095Y-66492857D01*
X-161665476Y-66397619D01*
X-161617857Y-66350000D01*
X-161522619Y-66302380D01*
X-160284523Y-66302380D02*
X-160760714Y-66302380D01*
X-160808333Y-66778571D01*
X-160760714Y-66730952D01*
X-160665476Y-66683333D01*
X-160427380Y-66683333D01*
X-160332142Y-66730952D01*
X-160284523Y-66778571D01*
X-160236904Y-66873809D01*
X-160236904Y-67111904D01*
X-160284523Y-67207142D01*
X-160332142Y-67254761D01*
X-160427380Y-67302380D01*
X-160665476Y-67302380D01*
X-160760714Y-67254761D01*
X-160808333Y-67207142D01*
%TO.C,C601*%
X-158621698Y-89007142D02*
X-158669317Y-89054761D01*
X-158812174Y-89102380D01*
X-158907412Y-89102380D01*
X-159050270Y-89054761D01*
X-159145508Y-88959523D01*
X-159193127Y-88864285D01*
X-159240746Y-88673809D01*
X-159240746Y-88530952D01*
X-159193127Y-88340476D01*
X-159145508Y-88245238D01*
X-159050270Y-88150000D01*
X-158907412Y-88102380D01*
X-158812174Y-88102380D01*
X-158669317Y-88150000D01*
X-158621698Y-88197619D01*
X-157764555Y-88102380D02*
X-157955031Y-88102380D01*
X-158050270Y-88150000D01*
X-158097889Y-88197619D01*
X-158193127Y-88340476D01*
X-158240746Y-88530952D01*
X-158240746Y-88911904D01*
X-158193127Y-89007142D01*
X-158145508Y-89054761D01*
X-158050270Y-89102380D01*
X-157859793Y-89102380D01*
X-157764555Y-89054761D01*
X-157716936Y-89007142D01*
X-157669317Y-88911904D01*
X-157669317Y-88673809D01*
X-157716936Y-88578571D01*
X-157764555Y-88530952D01*
X-157859793Y-88483333D01*
X-158050270Y-88483333D01*
X-158145508Y-88530952D01*
X-158193127Y-88578571D01*
X-158240746Y-88673809D01*
X-157050270Y-88102380D02*
X-156955031Y-88102380D01*
X-156859793Y-88150000D01*
X-156812174Y-88197619D01*
X-156764555Y-88292857D01*
X-156716936Y-88483333D01*
X-156716936Y-88721428D01*
X-156764555Y-88911904D01*
X-156812174Y-89007142D01*
X-156859793Y-89054761D01*
X-156955031Y-89102380D01*
X-157050270Y-89102380D01*
X-157145508Y-89054761D01*
X-157193127Y-89007142D01*
X-157240746Y-88911904D01*
X-157288365Y-88721428D01*
X-157288365Y-88483333D01*
X-157240746Y-88292857D01*
X-157193127Y-88197619D01*
X-157145508Y-88150000D01*
X-157050270Y-88102380D01*
X-155764555Y-89102380D02*
X-156335984Y-89102380D01*
X-156050270Y-89102380D02*
X-156050270Y-88102380D01*
X-156145508Y-88245238D01*
X-156240746Y-88340476D01*
X-156335984Y-88388095D01*
%TO.C,D406*%
X-151040476Y-67302380D02*
X-151040476Y-66302380D01*
X-150802380Y-66302380D01*
X-150659523Y-66350000D01*
X-150564285Y-66445238D01*
X-150516666Y-66540476D01*
X-150469047Y-66730952D01*
X-150469047Y-66873809D01*
X-150516666Y-67064285D01*
X-150564285Y-67159523D01*
X-150659523Y-67254761D01*
X-150802380Y-67302380D01*
X-151040476Y-67302380D01*
X-149611904Y-66635714D02*
X-149611904Y-67302380D01*
X-149850000Y-66254761D02*
X-150088095Y-66969047D01*
X-149469047Y-66969047D01*
X-148897619Y-66302380D02*
X-148802380Y-66302380D01*
X-148707142Y-66350000D01*
X-148659523Y-66397619D01*
X-148611904Y-66492857D01*
X-148564285Y-66683333D01*
X-148564285Y-66921428D01*
X-148611904Y-67111904D01*
X-148659523Y-67207142D01*
X-148707142Y-67254761D01*
X-148802380Y-67302380D01*
X-148897619Y-67302380D01*
X-148992857Y-67254761D01*
X-149040476Y-67207142D01*
X-149088095Y-67111904D01*
X-149135714Y-66921428D01*
X-149135714Y-66683333D01*
X-149088095Y-66492857D01*
X-149040476Y-66397619D01*
X-148992857Y-66350000D01*
X-148897619Y-66302380D01*
X-147707142Y-66302380D02*
X-147897619Y-66302380D01*
X-147992857Y-66350000D01*
X-148040476Y-66397619D01*
X-148135714Y-66540476D01*
X-148183333Y-66730952D01*
X-148183333Y-67111904D01*
X-148135714Y-67207142D01*
X-148088095Y-67254761D01*
X-147992857Y-67302380D01*
X-147802380Y-67302380D01*
X-147707142Y-67254761D01*
X-147659523Y-67207142D01*
X-147611904Y-67111904D01*
X-147611904Y-66873809D01*
X-147659523Y-66778571D01*
X-147707142Y-66730952D01*
X-147802380Y-66683333D01*
X-147992857Y-66683333D01*
X-148088095Y-66730952D01*
X-148135714Y-66778571D01*
X-148183333Y-66873809D01*
%TO.C,C404*%
X-175792857Y-27169047D02*
X-175745238Y-27216666D01*
X-175697619Y-27359523D01*
X-175697619Y-27454761D01*
X-175745238Y-27597619D01*
X-175840476Y-27692857D01*
X-175935714Y-27740476D01*
X-176126190Y-27788095D01*
X-176269047Y-27788095D01*
X-176459523Y-27740476D01*
X-176554761Y-27692857D01*
X-176650000Y-27597619D01*
X-176697619Y-27454761D01*
X-176697619Y-27359523D01*
X-176650000Y-27216666D01*
X-176602380Y-27169047D01*
X-176364285Y-26311904D02*
X-175697619Y-26311904D01*
X-176745238Y-26550000D02*
X-176030952Y-26788095D01*
X-176030952Y-26169047D01*
X-176697619Y-25597619D02*
X-176697619Y-25502380D01*
X-176650000Y-25407142D01*
X-176602380Y-25359523D01*
X-176507142Y-25311904D01*
X-176316666Y-25264285D01*
X-176078571Y-25264285D01*
X-175888095Y-25311904D01*
X-175792857Y-25359523D01*
X-175745238Y-25407142D01*
X-175697619Y-25502380D01*
X-175697619Y-25597619D01*
X-175745238Y-25692857D01*
X-175792857Y-25740476D01*
X-175888095Y-25788095D01*
X-176078571Y-25835714D01*
X-176316666Y-25835714D01*
X-176507142Y-25788095D01*
X-176602380Y-25740476D01*
X-176650000Y-25692857D01*
X-176697619Y-25597619D01*
X-176364285Y-24407142D02*
X-175697619Y-24407142D01*
X-176745238Y-24645238D02*
X-176030952Y-24883333D01*
X-176030952Y-24264285D01*
%TO.C,G\u002A\u002A\u002A*%
G36*
X-213046239Y-89046799D02*
G01*
X-213154333Y-88804116D01*
X-213247800Y-88455699D01*
X-213289725Y-88047101D01*
X-213280109Y-87624143D01*
X-213218951Y-87232642D01*
X-213154333Y-87023726D01*
X-212886227Y-86497626D01*
X-212508420Y-85994752D01*
X-212027450Y-85518809D01*
X-211449854Y-85073506D01*
X-210782169Y-84662547D01*
X-210030934Y-84289642D01*
X-209202685Y-83958495D01*
X-208303960Y-83672815D01*
X-207341296Y-83436309D01*
X-206573317Y-83292122D01*
X-206041603Y-83210052D01*
X-205558276Y-83148064D01*
X-205091125Y-83103759D01*
X-204607941Y-83074736D01*
X-204076511Y-83058597D01*
X-203464626Y-83052942D01*
X-203361484Y-83052850D01*
X-202456883Y-83066061D01*
X-201636284Y-83108039D01*
X-200868561Y-83182304D01*
X-200122588Y-83292374D01*
X-199367236Y-83441766D01*
X-198853132Y-83562455D01*
X-197909481Y-83829066D01*
X-197039244Y-84141759D01*
X-196248186Y-84496753D01*
X-195542072Y-84890267D01*
X-194926665Y-85318522D01*
X-194407732Y-85777738D01*
X-193991036Y-86264133D01*
X-193682343Y-86773927D01*
X-193575039Y-87023652D01*
X-193438175Y-87548941D01*
X-193417443Y-88076585D01*
X-193511365Y-88601200D01*
X-193718463Y-89117404D01*
X-194037259Y-89619814D01*
X-194403698Y-90040871D01*
X-194992761Y-90559624D01*
X-195685794Y-91030562D01*
X-196478248Y-91451866D01*
X-197365572Y-91821719D01*
X-198343217Y-92138302D01*
X-199406634Y-92399795D01*
X-200551272Y-92604382D01*
X-200958119Y-92660651D01*
X-201221368Y-92687228D01*
X-201572029Y-92712075D01*
X-201986594Y-92734498D01*
X-202441556Y-92753803D01*
X-202913407Y-92769296D01*
X-203378641Y-92780282D01*
X-203813749Y-92786067D01*
X-204195226Y-92785956D01*
X-204499564Y-92779256D01*
X-204658004Y-92769937D01*
X-205440028Y-92693603D01*
X-206132563Y-92607926D01*
X-206763877Y-92508608D01*
X-207362240Y-92391352D01*
X-207781438Y-92295130D01*
X-208736727Y-92029690D01*
X-209618575Y-91716625D01*
X-210421248Y-91359661D01*
X-211139010Y-90962526D01*
X-211766125Y-90528946D01*
X-212296859Y-90062647D01*
X-212320352Y-90035499D01*
X-210901955Y-90035499D01*
X-209611645Y-90035499D01*
X-209516901Y-89709592D01*
X-209422158Y-89383686D01*
X-208708708Y-89400196D01*
X-207995258Y-89416705D01*
X-207893653Y-89711369D01*
X-207792048Y-90006032D01*
X-207133886Y-90022739D01*
X-206848278Y-90028644D01*
X-206661493Y-90027244D01*
X-206554577Y-90015853D01*
X-206508577Y-89991790D01*
X-206504541Y-89952369D01*
X-206509570Y-89934339D01*
X-206537824Y-89856002D01*
X-206602816Y-89680901D01*
X-206699495Y-89422481D01*
X-206822813Y-89094188D01*
X-206849300Y-89023866D01*
X-206053522Y-89023866D01*
X-205976928Y-89334759D01*
X-205802491Y-89611954D01*
X-205540223Y-89838839D01*
X-205246706Y-89982979D01*
X-205063859Y-90039042D01*
X-204879173Y-90070627D01*
X-204655416Y-90081378D01*
X-204355355Y-90074938D01*
X-204321044Y-90073544D01*
X-204020152Y-90056305D01*
X-203796505Y-90028428D01*
X-203609504Y-89981425D01*
X-203418551Y-89906807D01*
X-203329837Y-89866331D01*
X-202940787Y-89684272D01*
X-202635474Y-89891574D01*
X-202330162Y-90098876D01*
X-202077759Y-89816723D01*
X-201898058Y-89612321D01*
X-201793886Y-89473389D01*
X-201761653Y-89378035D01*
X-201797767Y-89304365D01*
X-201898638Y-89230486D01*
X-201974223Y-89185463D01*
X-202130759Y-89087177D01*
X-202241506Y-89005554D01*
X-202270412Y-88976032D01*
X-202267586Y-88892969D01*
X-202218781Y-88752361D01*
X-202192621Y-88696801D01*
X-202083689Y-88473287D01*
X-202035570Y-88330833D01*
X-202054708Y-88245919D01*
X-202147551Y-88195026D01*
X-202320545Y-88154636D01*
X-202342413Y-88150287D01*
X-202543808Y-88109107D01*
X-202706646Y-88073604D01*
X-202775961Y-88056692D01*
X-202870255Y-88087913D01*
X-202954209Y-88212470D01*
X-203040256Y-88394159D01*
X-203318736Y-88149032D01*
X-203463651Y-88015210D01*
X-203564367Y-87910240D01*
X-203597215Y-87861324D01*
X-203552933Y-87806635D01*
X-203438862Y-87710767D01*
X-203331795Y-87631659D01*
X-203051363Y-87382703D01*
X-202885170Y-87110527D01*
X-202831310Y-86817648D01*
X-202883524Y-86521006D01*
X-203036932Y-86278419D01*
X-203285805Y-86094350D01*
X-203481434Y-86024392D01*
X-201454351Y-86024392D01*
X-201453843Y-86075760D01*
X-201448403Y-86101740D01*
X-201425217Y-86206647D01*
X-201382364Y-86401082D01*
X-201325482Y-86659454D01*
X-201260205Y-86956173D01*
X-201243986Y-87029930D01*
X-201169587Y-87367336D01*
X-201078503Y-87778953D01*
X-200979782Y-88223972D01*
X-200882472Y-88661584D01*
X-200830348Y-88895463D01*
X-200755007Y-89235068D01*
X-200689439Y-89534255D01*
X-200637672Y-89774347D01*
X-200603732Y-89936664D01*
X-200591647Y-90002445D01*
X-200536784Y-90016081D01*
X-200388286Y-90024256D01*
X-200170291Y-90026191D01*
X-199963473Y-90022759D01*
X-199335300Y-90006032D01*
X-199009312Y-88812645D01*
X-198910705Y-88457863D01*
X-198820520Y-88145047D01*
X-198743829Y-87890854D01*
X-198685701Y-87711938D01*
X-198651207Y-87624955D01*
X-198646003Y-87619257D01*
X-198619041Y-87673147D01*
X-198567015Y-87822804D01*
X-198495603Y-88050209D01*
X-198410480Y-88337342D01*
X-198325750Y-88635847D01*
X-198230300Y-88978601D01*
X-198142199Y-89294584D01*
X-198067803Y-89561032D01*
X-198013466Y-89755180D01*
X-197988477Y-89843967D01*
X-197934135Y-90035499D01*
X-197319234Y-90035499D01*
X-197044061Y-90034158D01*
X-196864598Y-90027105D01*
X-196758696Y-90009797D01*
X-196704206Y-89977687D01*
X-196678979Y-89926232D01*
X-196672984Y-89902900D01*
X-196649220Y-89798181D01*
X-196605550Y-89601695D01*
X-196545519Y-89329665D01*
X-196472672Y-88998317D01*
X-196390551Y-88623874D01*
X-196302700Y-88222559D01*
X-196212664Y-87810598D01*
X-196123985Y-87404214D01*
X-196040209Y-87019631D01*
X-195964877Y-86673072D01*
X-195901536Y-86380763D01*
X-195853727Y-86158927D01*
X-195824995Y-86023788D01*
X-195818097Y-85989080D01*
X-195872855Y-85980682D01*
X-196020436Y-85974031D01*
X-196235800Y-85969978D01*
X-196403198Y-85969141D01*
X-196988298Y-85969141D01*
X-197053578Y-86278538D01*
X-197090167Y-86457773D01*
X-197141758Y-86718152D01*
X-197201542Y-87024990D01*
X-197262709Y-87343602D01*
X-197263694Y-87348774D01*
X-197318914Y-87632713D01*
X-197367596Y-87871656D01*
X-197405060Y-88043434D01*
X-197426624Y-88125881D01*
X-197428600Y-88129683D01*
X-197449641Y-88082175D01*
X-197496271Y-87937957D01*
X-197563375Y-87714118D01*
X-197645838Y-87427744D01*
X-197738546Y-87095922D01*
X-197744532Y-87074181D01*
X-198040394Y-85998608D01*
X-199253566Y-85998608D01*
X-199365516Y-86411137D01*
X-199503231Y-86917356D01*
X-199613585Y-87319821D01*
X-199699507Y-87628683D01*
X-199763930Y-87854092D01*
X-199809785Y-88006201D01*
X-199840001Y-88095160D01*
X-199857510Y-88131122D01*
X-199862466Y-88132352D01*
X-199879736Y-88070253D01*
X-199914136Y-87911751D01*
X-199961688Y-87676403D01*
X-200018413Y-87383765D01*
X-200063684Y-87143290D01*
X-200125717Y-86813363D01*
X-200182311Y-86518957D01*
X-200229182Y-86281855D01*
X-200262045Y-86123843D01*
X-200274326Y-86072274D01*
X-200302909Y-86024537D01*
X-200369129Y-85994047D01*
X-200494946Y-85977133D01*
X-200702320Y-85970124D01*
X-200891405Y-85969141D01*
X-201157799Y-85970160D01*
X-201326785Y-85976461D01*
X-201418817Y-85992915D01*
X-201454351Y-86024392D01*
X-203481434Y-86024392D01*
X-203624412Y-85973262D01*
X-203979888Y-85923099D01*
X-204421250Y-85932255D01*
X-204797506Y-86016662D01*
X-205099119Y-86171097D01*
X-205316552Y-86390337D01*
X-205440267Y-86669159D01*
X-205452574Y-86729518D01*
X-205449449Y-86970059D01*
X-205381520Y-87240431D01*
X-205265880Y-87485701D01*
X-205183147Y-87595381D01*
X-205064014Y-87722192D01*
X-205385294Y-87903512D01*
X-205674207Y-88101487D01*
X-205870369Y-88328332D01*
X-205998873Y-88615260D01*
X-206022263Y-88695891D01*
X-206053522Y-89023866D01*
X-206849300Y-89023866D01*
X-206967721Y-88709467D01*
X-207129170Y-88281765D01*
X-207268272Y-87913921D01*
X-207993127Y-85998608D01*
X-209393120Y-85998608D01*
X-209555400Y-86440603D01*
X-209658816Y-86720772D01*
X-209770789Y-87021824D01*
X-209862218Y-87265661D01*
X-209930721Y-87447850D01*
X-210030398Y-87713784D01*
X-210151257Y-88036765D01*
X-210283305Y-88390096D01*
X-210391546Y-88680046D01*
X-210517695Y-89017825D01*
X-210633494Y-89327274D01*
X-210731110Y-89587513D01*
X-210802711Y-89777660D01*
X-210839145Y-89873434D01*
X-210901955Y-90035499D01*
X-212320352Y-90035499D01*
X-212725475Y-89567356D01*
X-213046239Y-89046799D01*
G37*
G36*
X-204534005Y-88362130D02*
G01*
X-204418771Y-88450596D01*
X-204387240Y-88477828D01*
X-204238694Y-88606830D01*
X-204055132Y-88763213D01*
X-203965545Y-88838524D01*
X-203827579Y-88961389D01*
X-203736610Y-89056906D01*
X-203715081Y-89093275D01*
X-203766389Y-89146087D01*
X-203895014Y-89209603D01*
X-204063006Y-89269909D01*
X-204232415Y-89313097D01*
X-204349800Y-89325946D01*
X-204523170Y-89295087D01*
X-204671256Y-89236442D01*
X-204858924Y-89079652D01*
X-204947368Y-88875110D01*
X-204952668Y-88806308D01*
X-204918920Y-88699939D01*
X-204836649Y-88560888D01*
X-204734308Y-88428205D01*
X-204640353Y-88340941D01*
X-204602999Y-88326450D01*
X-204534005Y-88362130D01*
G37*
G36*
X-203954002Y-86538641D02*
G01*
X-203807610Y-86630581D01*
X-203743440Y-86738756D01*
X-203751594Y-86890991D01*
X-203847433Y-87062431D01*
X-204012147Y-87221771D01*
X-204049390Y-87247904D01*
X-204142377Y-87294128D01*
X-204215196Y-87266676D01*
X-204295455Y-87175259D01*
X-204427141Y-86967429D01*
X-204460091Y-86795393D01*
X-204423837Y-86679256D01*
X-204301987Y-86559492D01*
X-204132085Y-86513782D01*
X-203954002Y-86538641D01*
G37*
G36*
X-208673125Y-87159409D02*
G01*
X-208623775Y-87309296D01*
X-208556752Y-87523169D01*
X-208500587Y-87707656D01*
X-208422372Y-87964325D01*
X-208352977Y-88186238D01*
X-208301631Y-88344191D01*
X-208281755Y-88400116D01*
X-208271978Y-88452231D01*
X-208308816Y-88483169D01*
X-208413719Y-88498313D01*
X-208608141Y-88503050D01*
X-208692561Y-88503248D01*
X-208920900Y-88500484D01*
X-209053448Y-88488613D01*
X-209112221Y-88462262D01*
X-209119237Y-88416061D01*
X-209115294Y-88400116D01*
X-209032196Y-88116285D01*
X-208945462Y-87830616D01*
X-208862030Y-87564696D01*
X-208788836Y-87340114D01*
X-208732818Y-87178458D01*
X-208700911Y-87101315D01*
X-208696907Y-87098024D01*
X-208673125Y-87159409D01*
G37*
D11*
%TO.C,J613*%
X-172372500Y-11700000D02*
X-172372500Y-7400000D01*
X-180282500Y-7400000D02*
X-179532500Y-7400000D01*
X-167292500Y-11700000D02*
X-167292500Y-7400000D01*
X-162212500Y-7400000D02*
X-161462500Y-7400000D01*
X-181782500Y-7050000D02*
X-182282500Y-7050000D01*
X-164292500Y-11700000D02*
X-165042500Y-11700000D01*
X-164542500Y-7050000D02*
X-165042500Y-7050000D01*
X-159962500Y-7050000D02*
X-159962500Y-7400000D01*
X-166542500Y-11700000D02*
X-167292500Y-11700000D01*
X-177452500Y-6050000D02*
X-174452500Y-6050000D01*
X-171622500Y-11700000D02*
X-172372500Y-11700000D01*
X-159212500Y-6050000D02*
X-159462500Y-7050000D01*
X-169622500Y-7050000D02*
X-170122500Y-7050000D01*
X-179532500Y-11700000D02*
X-180282500Y-11700000D01*
X-156382500Y-7400000D02*
X-156382500Y-7050000D01*
X-176702500Y-11700000D02*
X-177452500Y-11700000D01*
X-169372500Y-6050000D02*
X-169622500Y-7050000D01*
X-159962500Y-7400000D02*
X-159212500Y-7400000D01*
X-179782500Y-7050000D02*
X-180282500Y-7050000D01*
X-170122500Y-7400000D02*
X-169372500Y-7400000D01*
X-161462500Y-7400000D02*
X-161462500Y-7050000D01*
X-156382500Y-11700000D02*
X-157132500Y-11700000D01*
X-182532500Y-11700000D02*
X-182532500Y-7400000D01*
X-175202500Y-7400000D02*
X-174452500Y-7400000D01*
X-156382500Y-7050000D02*
X-156882500Y-7050000D01*
X-177452500Y-7400000D02*
X-176702500Y-7400000D01*
X-169372500Y-7400000D02*
X-169372500Y-11700000D01*
X-174702500Y-7050000D02*
X-175202500Y-7050000D01*
X-169372500Y-11700000D02*
X-170122500Y-11700000D01*
X-182532500Y-6050000D02*
X-179532500Y-6050000D01*
X-175202500Y-7050000D02*
X-175202500Y-7400000D01*
X-157132500Y-7400000D02*
X-156382500Y-7400000D01*
X-154882500Y-7050000D02*
X-154882500Y-7400000D01*
X-174452500Y-11700000D02*
X-175202500Y-11700000D01*
X-162212500Y-11700000D02*
X-162212500Y-7400000D01*
X-154132500Y-7400000D02*
X-154132500Y-11700000D01*
X-162212500Y-6050000D02*
X-159212500Y-6050000D01*
X-157132500Y-6050000D02*
X-154132500Y-6050000D01*
X-159462500Y-7050000D02*
X-159962500Y-7050000D01*
X-161462500Y-7050000D02*
X-161962500Y-7050000D01*
X-167292500Y-6050000D02*
X-164292500Y-6050000D01*
X-179532500Y-6050000D02*
X-179782500Y-7050000D01*
X-159212500Y-7400000D02*
X-159212500Y-11700000D01*
X-172372500Y-7400000D02*
X-171622500Y-7400000D01*
X-180282500Y-7050000D02*
X-180282500Y-7400000D01*
X-183682500Y-5090000D02*
X-183682500Y-12560000D01*
X-156882500Y-7050000D02*
X-157132500Y-6050000D01*
X-174452500Y-6050000D02*
X-174702500Y-7050000D01*
X-170122500Y-7050000D02*
X-170122500Y-7400000D01*
X-164292500Y-6050000D02*
X-164542500Y-7050000D01*
X-167292500Y-7400000D02*
X-166542500Y-7400000D01*
X-171622500Y-7400000D02*
X-171622500Y-7050000D01*
X-164292500Y-7400000D02*
X-164292500Y-11700000D01*
X-166542500Y-7050000D02*
X-167042500Y-7050000D01*
X-176702500Y-7400000D02*
X-176702500Y-7050000D01*
X-182532500Y-7400000D02*
X-181782500Y-7400000D01*
X-176702500Y-7050000D02*
X-177202500Y-7050000D01*
X-154382500Y-7050000D02*
X-154882500Y-7050000D01*
X-152982500Y-5090000D02*
X-183682500Y-5090000D01*
X-177452500Y-11700000D02*
X-177452500Y-7400000D01*
X-161462500Y-11700000D02*
X-162212500Y-11700000D01*
X-167042500Y-7050000D02*
X-167292500Y-6050000D01*
X-174452500Y-7400000D02*
X-174452500Y-11700000D01*
X-184072500Y-5950000D02*
X-184072500Y-4700000D01*
X-165042500Y-7400000D02*
X-164292500Y-7400000D01*
X-182282500Y-7050000D02*
X-182532500Y-6050000D01*
X-159212500Y-11700000D02*
X-159962500Y-11700000D01*
X-161962500Y-7050000D02*
X-162212500Y-6050000D01*
X-154132500Y-6050000D02*
X-154382500Y-7050000D01*
X-172372500Y-6050000D02*
X-169372500Y-6050000D01*
X-154882500Y-7400000D02*
X-154132500Y-7400000D01*
X-183682500Y-12560000D02*
X-152982500Y-12560000D01*
X-177202500Y-7050000D02*
X-177452500Y-6050000D01*
X-166542500Y-7400000D02*
X-166542500Y-7050000D01*
X-184072500Y-4700000D02*
X-182072500Y-4700000D01*
X-172122500Y-7050000D02*
X-172372500Y-6050000D01*
X-171622500Y-7050000D02*
X-172122500Y-7050000D01*
X-152982500Y-12560000D02*
X-152982500Y-5090000D01*
X-157132500Y-11700000D02*
X-157132500Y-7400000D01*
X-154132500Y-11700000D02*
X-154882500Y-11700000D01*
X-179532500Y-7400000D02*
X-179532500Y-11700000D01*
X-181782500Y-11700000D02*
X-182532500Y-11700000D01*
X-181782500Y-7400000D02*
X-181782500Y-7050000D01*
X-165042500Y-7050000D02*
X-165042500Y-7400000D01*
X-180282853Y-11699845D02*
G75*
G03*
X-181782500Y-11700000I-749647J-1700155D01*
G01*
X-165042853Y-11699845D02*
G75*
G03*
X-166542500Y-11700000I-749647J-1700155D01*
G01*
X-154882853Y-11699845D02*
G75*
G03*
X-156382500Y-11700000I-749647J-1700155D01*
G01*
X-159962853Y-11699845D02*
G75*
G03*
X-161462500Y-11700000I-749647J-1700155D01*
G01*
X-170122853Y-11699845D02*
G75*
G03*
X-171622500Y-11700000I-749647J-1700155D01*
G01*
X-175202853Y-11699845D02*
G75*
G03*
X-176702500Y-11700000I-749647J-1700155D01*
G01*
%TO.C,C402*%
X-203070000Y-35770000D02*
X-193830000Y-35770000D01*
X-203070000Y-35770000D02*
X-203070000Y-16530000D01*
X-203070000Y-16530000D02*
X-193830000Y-16530000D01*
X-193830000Y-35770000D02*
X-193830000Y-16530000D01*
%TO.C,R307*%
X-147350000Y-82030000D02*
X-147350000Y-82800000D01*
X-148720000Y-89340000D02*
X-145980000Y-89340000D01*
X-148720000Y-82800000D02*
X-148720000Y-89340000D01*
X-145980000Y-82800000D02*
X-148720000Y-82800000D01*
X-147350000Y-90110000D02*
X-147350000Y-89340000D01*
X-145980000Y-89340000D02*
X-145980000Y-82800000D01*
%TO.C,R407*%
X-127780000Y-69580000D02*
X-134320000Y-69580000D01*
X-134320000Y-69580000D02*
X-134320000Y-72320000D01*
X-134320000Y-72320000D02*
X-127780000Y-72320000D01*
X-127010000Y-70950000D02*
X-127780000Y-70950000D01*
X-127780000Y-72320000D02*
X-127780000Y-69580000D01*
X-135090000Y-70950000D02*
X-134320000Y-70950000D01*
%TO.C,D408*%
X-125150000Y-68420000D02*
X-125150000Y-65480000D01*
X-124130000Y-68090000D02*
X-124130000Y-68420000D01*
X-129570000Y-68420000D02*
X-129570000Y-68090000D01*
X-124130000Y-65810000D02*
X-124130000Y-65480000D01*
X-125030000Y-68420000D02*
X-125030000Y-65480000D01*
X-124130000Y-68420000D02*
X-129570000Y-68420000D01*
X-124130000Y-65480000D02*
X-129570000Y-65480000D01*
X-124910000Y-68420000D02*
X-124910000Y-65480000D01*
X-129570000Y-65480000D02*
X-129570000Y-65810000D01*
%TO.C,R305*%
X-139280000Y-82800000D02*
X-142020000Y-82800000D01*
X-142020000Y-82800000D02*
X-142020000Y-89340000D01*
X-140650000Y-90110000D02*
X-140650000Y-89340000D01*
X-142020000Y-89340000D02*
X-139280000Y-89340000D01*
X-139280000Y-89340000D02*
X-139280000Y-82800000D01*
X-140650000Y-82030000D02*
X-140650000Y-82800000D01*
%TO.C,U1*%
X-163340000Y-86190000D02*
X-183780000Y-86190000D01*
X-163280000Y-83190000D02*
X-183840000Y-83190000D01*
X-183780000Y-86190000D02*
X-183780000Y-87440000D01*
X-163340000Y-90690000D02*
X-163340000Y-86190000D01*
X-183840000Y-83190000D02*
X-183840000Y-93690000D01*
X-183780000Y-90690000D02*
X-163340000Y-90690000D01*
X-163280000Y-93690000D02*
X-163280000Y-83190000D01*
X-183780000Y-89440000D02*
X-183780000Y-90690000D01*
X-183840000Y-93690000D02*
X-163280000Y-93690000D01*
X-183780000Y-89440000D02*
G75*
G03*
X-183780000Y-87440000I0J1000000D01*
G01*
%TO.C,D403*%
X-177885000Y-67986000D02*
X-177885000Y-67830000D01*
X-177885000Y-65670000D02*
X-177885000Y-65514000D01*
X-181117335Y-67828608D02*
G75*
G03*
X-177885000Y-67985516I1672335J1078608D01*
G01*
X-178404039Y-65670000D02*
G75*
G03*
X-180486130Y-65670163I-1040961J-1080000D01*
G01*
X-177885000Y-65514484D02*
G75*
G03*
X-181117335Y-65671392I-1560000J-1235516D01*
G01*
X-180486130Y-67829837D02*
G75*
G03*
X-178404039Y-67830000I1041130J1079837D01*
G01*
%TO.C,R308*%
X-150650000Y-90130000D02*
X-150650000Y-89360000D01*
X-149280000Y-89360000D02*
X-149280000Y-82820000D01*
X-149280000Y-82820000D02*
X-152020000Y-82820000D01*
X-152020000Y-82820000D02*
X-152020000Y-89360000D01*
X-152020000Y-89360000D02*
X-149280000Y-89360000D01*
X-150650000Y-82050000D02*
X-150650000Y-82820000D01*
%TO.C,K402*%
X-166150000Y-44150000D02*
X-166150000Y-63950000D01*
X-173900000Y-59900000D02*
X-170300000Y-59900000D01*
X-181750000Y-44150000D02*
X-166150000Y-44150000D01*
X-181750000Y-63950000D02*
X-175150000Y-63950000D01*
X-172100000Y-54500000D02*
X-175700000Y-58500000D01*
X-173900000Y-51600000D02*
X-176400000Y-47000000D01*
X-173900000Y-53100000D02*
X-173900000Y-51600000D01*
X-172100000Y-56500000D02*
X-167900000Y-56500000D01*
X-167900000Y-59000000D02*
X-167900000Y-56500000D01*
X-169750000Y-48400000D02*
X-172200000Y-48400000D01*
X-172100000Y-54500000D02*
X-172100000Y-58500000D01*
X-179900000Y-56500000D02*
X-179900000Y-59000000D01*
X-181750000Y-63950000D02*
X-181750000Y-44150000D01*
X-179900000Y-56500000D02*
X-175700000Y-56500000D01*
X-178150000Y-48400000D02*
X-175650000Y-48400000D01*
X-175700000Y-54500000D02*
X-172100000Y-54500000D01*
X-175700000Y-58500000D02*
X-175700000Y-54500000D01*
X-172100000Y-58500000D02*
X-175700000Y-58500000D01*
X-172750000Y-63950000D02*
X-166150000Y-63950000D01*
X-170300000Y-53100000D02*
X-170300000Y-59900000D01*
X-173900000Y-53100000D02*
X-170300000Y-53100000D01*
X-173900000Y-59900000D02*
X-173900000Y-60700000D01*
%TO.C,C405*%
X-141764112Y-69945000D02*
X-141764112Y-70510000D01*
X-141204112Y-71266000D02*
X-141204112Y-71834000D01*
X-141244112Y-71032000D02*
X-141244112Y-72068000D01*
X-142804112Y-72590000D02*
X-142804112Y-73932000D01*
X-142524112Y-69303000D02*
X-142524112Y-70510000D01*
X-143004112Y-69095000D02*
X-143004112Y-70510000D01*
X-141524112Y-70299000D02*
X-141524112Y-70510000D01*
X-142044112Y-69649000D02*
X-142044112Y-70510000D01*
X-143325112Y-72590000D02*
X-143325112Y-74086000D01*
X-142284112Y-69455000D02*
X-142284112Y-70510000D01*
X-142564112Y-69282000D02*
X-142564112Y-70510000D01*
X-142244112Y-72590000D02*
X-142244112Y-73615000D01*
X-142204112Y-72590000D02*
X-142204112Y-73585000D01*
X-143004112Y-72590000D02*
X-143004112Y-74005000D01*
X-141604112Y-70167000D02*
X-141604112Y-70510000D01*
X-142404112Y-69375000D02*
X-142404112Y-70510000D01*
X-142724112Y-72590000D02*
X-142724112Y-73898000D01*
X-142124112Y-69579000D02*
X-142124112Y-70510000D01*
X-143205112Y-72590000D02*
X-143205112Y-74061000D01*
X-142324112Y-72590000D02*
X-142324112Y-73672000D01*
X-142924112Y-69122000D02*
X-142924112Y-70510000D01*
X-142124112Y-72590000D02*
X-142124112Y-73521000D01*
X-141964112Y-72590000D02*
X-141964112Y-73376000D01*
X-142604112Y-69260000D02*
X-142604112Y-70510000D01*
X-142884112Y-69136000D02*
X-142884112Y-70510000D01*
X-143044112Y-72590000D02*
X-143044112Y-74018000D01*
X-141524112Y-72590000D02*
X-141524112Y-72801000D01*
X-141844112Y-69851000D02*
X-141844112Y-70510000D01*
X-143525112Y-72590000D02*
X-143525112Y-74115000D01*
X-142164112Y-69546000D02*
X-142164112Y-70510000D01*
X-141324112Y-70745000D02*
X-141324112Y-72355000D01*
X-142644112Y-69240000D02*
X-142644112Y-70510000D01*
X-142924112Y-72590000D02*
X-142924112Y-73978000D01*
X-142044112Y-72590000D02*
X-142044112Y-73451000D01*
X-142244112Y-69485000D02*
X-142244112Y-70510000D01*
X-142644112Y-72590000D02*
X-142644112Y-73860000D01*
X-142204112Y-69515000D02*
X-142204112Y-70510000D01*
X-142004112Y-72590000D02*
X-142004112Y-73414000D01*
X-143525112Y-68985000D02*
X-143525112Y-70510000D01*
X-142604112Y-72590000D02*
X-142604112Y-73840000D01*
X-142964112Y-69108000D02*
X-142964112Y-70510000D01*
X-141884112Y-72590000D02*
X-141884112Y-73293000D01*
X-141564112Y-70231000D02*
X-141564112Y-70510000D01*
X-141644112Y-72590000D02*
X-141644112Y-72993000D01*
X-143605112Y-68977000D02*
X-143605112Y-74123000D01*
X-143165112Y-69049000D02*
X-143165112Y-70510000D01*
X-142324112Y-69428000D02*
X-142324112Y-70510000D01*
X-142164112Y-72590000D02*
X-142164112Y-73554000D01*
X-143405112Y-72590000D02*
X-143405112Y-74100000D01*
X-142484112Y-72590000D02*
X-142484112Y-73774000D01*
X-141804112Y-69897000D02*
X-141804112Y-70510000D01*
X-141564112Y-72590000D02*
X-141564112Y-72869000D01*
X-142084112Y-69613000D02*
X-142084112Y-70510000D01*
X-141884112Y-69807000D02*
X-141884112Y-70510000D01*
X-143245112Y-69030000D02*
X-143245112Y-70510000D01*
X-141924112Y-72590000D02*
X-141924112Y-73335000D01*
X-143765112Y-68970000D02*
X-143765112Y-74130000D01*
X-143405112Y-69000000D02*
X-143405112Y-70510000D01*
X-143165112Y-72590000D02*
X-143165112Y-74051000D01*
X-143445112Y-72590000D02*
X-143445112Y-74106000D01*
X-143445112Y-68994000D02*
X-143445112Y-70510000D01*
X-142964112Y-72590000D02*
X-142964112Y-73992000D01*
X-142524112Y-72590000D02*
X-142524112Y-73797000D01*
X-141924112Y-69765000D02*
X-141924112Y-70510000D01*
X-146359887Y-69825000D02*
X-146359887Y-70325000D01*
X-143565112Y-68981000D02*
X-143565112Y-70510000D01*
X-141764112Y-72590000D02*
X-141764112Y-73155000D01*
X-143285112Y-72590000D02*
X-143285112Y-74078000D01*
X-143365112Y-72590000D02*
X-143365112Y-74093000D01*
X-142404112Y-72590000D02*
X-142404112Y-73725000D01*
X-141804112Y-72590000D02*
X-141804112Y-73203000D01*
X-141604112Y-72590000D02*
X-141604112Y-72933000D01*
X-143805112Y-68970000D02*
X-143805112Y-74130000D01*
X-143485112Y-72590000D02*
X-143485112Y-74111000D01*
X-143205112Y-69039000D02*
X-143205112Y-70510000D01*
X-143365112Y-69007000D02*
X-143365112Y-70510000D01*
X-141684112Y-70050000D02*
X-141684112Y-70510000D01*
X-141684112Y-72590000D02*
X-141684112Y-73050000D01*
X-142004112Y-69686000D02*
X-142004112Y-70510000D01*
X-142484112Y-69326000D02*
X-142484112Y-70510000D01*
X-142684112Y-69221000D02*
X-142684112Y-70510000D01*
X-142804112Y-69168000D02*
X-142804112Y-70510000D01*
X-142684112Y-72590000D02*
X-142684112Y-73879000D01*
X-143645112Y-68974000D02*
X-143645112Y-74126000D01*
X-142564112Y-72590000D02*
X-142564112Y-73818000D01*
X-143044112Y-69082000D02*
X-143044112Y-70510000D01*
X-142884112Y-72590000D02*
X-142884112Y-73964000D01*
X-141404112Y-70539000D02*
X-141404112Y-72561000D01*
X-142844112Y-72590000D02*
X-142844112Y-73948000D01*
X-143565112Y-72590000D02*
X-143565112Y-74119000D01*
X-142084112Y-72590000D02*
X-142084112Y-73487000D01*
X-146609887Y-70075000D02*
X-146109887Y-70075000D01*
X-143084112Y-72590000D02*
X-143084112Y-74030000D01*
X-141724112Y-72590000D02*
X-141724112Y-73104000D01*
X-141844112Y-72590000D02*
X-141844112Y-73249000D01*
X-142764112Y-69185000D02*
X-142764112Y-70510000D01*
X-141364112Y-70635000D02*
X-141364112Y-72465000D01*
X-141284112Y-70873000D02*
X-141284112Y-72227000D01*
X-143685112Y-68972000D02*
X-143685112Y-74128000D01*
X-142724112Y-69202000D02*
X-142724112Y-70510000D01*
X-143125112Y-72590000D02*
X-143125112Y-74041000D01*
X-143285112Y-69022000D02*
X-143285112Y-70510000D01*
X-143325112Y-69014000D02*
X-143325112Y-70510000D01*
X-142444112Y-72590000D02*
X-142444112Y-73750000D01*
X-141724112Y-69996000D02*
X-141724112Y-70510000D01*
X-141644112Y-70107000D02*
X-141644112Y-70510000D01*
X-142764112Y-72590000D02*
X-142764112Y-73915000D01*
X-142844112Y-69152000D02*
X-142844112Y-70510000D01*
X-142364112Y-69401000D02*
X-142364112Y-70510000D01*
X-143084112Y-69070000D02*
X-143084112Y-70510000D01*
X-143485112Y-68989000D02*
X-143485112Y-70510000D01*
X-141964112Y-69724000D02*
X-141964112Y-70510000D01*
X-143725112Y-68971000D02*
X-143725112Y-74129000D01*
X-143125112Y-69059000D02*
X-143125112Y-70510000D01*
X-143245112Y-72590000D02*
X-143245112Y-74070000D01*
X-142364112Y-72590000D02*
X-142364112Y-73699000D01*
X-142284112Y-72590000D02*
X-142284112Y-73645000D01*
X-142444112Y-69350000D02*
X-142444112Y-70510000D01*
X-141484112Y-70372000D02*
X-141484112Y-72728000D01*
X-141444112Y-70452000D02*
X-141444112Y-72648000D01*
X-141185112Y-71550000D02*
G75*
G03*
X-141185112Y-71550000I-2620000J0D01*
G01*
%TO.C,D402*%
X-191130000Y-65710000D02*
X-191130000Y-65380000D01*
X-196570000Y-65380000D02*
X-196570000Y-65710000D01*
X-196570000Y-68320000D02*
X-196570000Y-67990000D01*
X-192030000Y-68320000D02*
X-192030000Y-65380000D01*
X-191130000Y-68320000D02*
X-196570000Y-68320000D01*
X-192150000Y-68320000D02*
X-192150000Y-65380000D01*
X-191910000Y-68320000D02*
X-191910000Y-65380000D01*
X-191130000Y-67990000D02*
X-191130000Y-68320000D01*
X-191130000Y-65380000D02*
X-196570000Y-65380000D01*
%TO.C,R401*%
X-194980000Y-69780000D02*
X-201520000Y-69780000D01*
X-201520000Y-69780000D02*
X-201520000Y-72520000D01*
X-201520000Y-72520000D02*
X-194980000Y-72520000D01*
X-194980000Y-72520000D02*
X-194980000Y-69780000D01*
X-194210000Y-71150000D02*
X-194980000Y-71150000D01*
X-202290000Y-71150000D02*
X-201520000Y-71150000D01*
%TO.C,R406*%
X-143280000Y-32300000D02*
X-143280000Y-20500000D01*
X-148020000Y-32300000D02*
X-143280000Y-32300000D01*
X-148020000Y-20500000D02*
X-148020000Y-32300000D01*
X-143280000Y-20500000D02*
X-148020000Y-20500000D01*
D10*
%TO.C,RV401*%
X-196500000Y-37100000D02*
X-196500000Y-42800000D01*
X-196500000Y-42800000D02*
X-189000000Y-42800000D01*
X-189000000Y-37100000D02*
X-189000000Y-42800000D01*
X-196500000Y-37100000D02*
X-189000000Y-37100000D01*
D11*
%TO.C,R405*%
X-150180000Y-72420000D02*
X-150180000Y-69680000D01*
X-149410000Y-71050000D02*
X-150180000Y-71050000D01*
X-156720000Y-72420000D02*
X-150180000Y-72420000D01*
X-156720000Y-69680000D02*
X-156720000Y-72420000D01*
X-157490000Y-71050000D02*
X-156720000Y-71050000D01*
X-150180000Y-69680000D02*
X-156720000Y-69680000D01*
%TO.C,D401*%
X-200285000Y-67986000D02*
X-200285000Y-67830000D01*
X-200285000Y-65670000D02*
X-200285000Y-65514000D01*
X-202886130Y-67829837D02*
G75*
G03*
X-200804039Y-67830000I1041130J1079837D01*
G01*
X-200285000Y-65514484D02*
G75*
G03*
X-203517335Y-65671392I-1560000J-1235516D01*
G01*
X-200804039Y-65670000D02*
G75*
G03*
X-202886130Y-65670163I-1040961J-1080000D01*
G01*
X-203517335Y-67828608D02*
G75*
G03*
X-200285000Y-67985516I1672335J1078608D01*
G01*
D10*
%TO.C,RV402*%
X-174100000Y-42800000D02*
X-166600000Y-42800000D01*
X-166600000Y-37100000D02*
X-166600000Y-42800000D01*
X-174100000Y-37100000D02*
X-174100000Y-42800000D01*
X-174100000Y-37100000D02*
X-166600000Y-37100000D01*
D11*
%TO.C,K403*%
X-151700000Y-53100000D02*
X-148100000Y-53100000D01*
X-155950000Y-48400000D02*
X-153450000Y-48400000D01*
X-149900000Y-56500000D02*
X-145700000Y-56500000D01*
X-145700000Y-59000000D02*
X-145700000Y-56500000D01*
X-159550000Y-63950000D02*
X-159550000Y-44150000D01*
X-147550000Y-48400000D02*
X-150000000Y-48400000D01*
X-151700000Y-59900000D02*
X-151700000Y-60700000D01*
X-148100000Y-53100000D02*
X-148100000Y-59900000D01*
X-159550000Y-63950000D02*
X-152950000Y-63950000D01*
X-159550000Y-44150000D02*
X-143950000Y-44150000D01*
X-149900000Y-58500000D02*
X-153500000Y-58500000D01*
X-150550000Y-63950000D02*
X-143950000Y-63950000D01*
X-149900000Y-54500000D02*
X-149900000Y-58500000D01*
X-151700000Y-51600000D02*
X-154200000Y-47000000D01*
X-151700000Y-53100000D02*
X-151700000Y-51600000D01*
X-153500000Y-54500000D02*
X-149900000Y-54500000D01*
X-157700000Y-56500000D02*
X-157700000Y-59000000D01*
X-143950000Y-44150000D02*
X-143950000Y-63950000D01*
X-153500000Y-58500000D02*
X-153500000Y-54500000D01*
X-157700000Y-56500000D02*
X-153500000Y-56500000D01*
X-149900000Y-54500000D02*
X-153500000Y-58500000D01*
X-151700000Y-59900000D02*
X-148100000Y-59900000D01*
%TO.C,J614*%
X-151800000Y-99620000D02*
X-151800000Y-102280000D01*
X-141520000Y-99620000D02*
X-141520000Y-100950000D01*
X-144120000Y-99620000D02*
X-151800000Y-99620000D01*
X-144120000Y-99620000D02*
X-144120000Y-102280000D01*
X-142850000Y-99620000D02*
X-141520000Y-99620000D01*
X-144120000Y-102280000D02*
X-151800000Y-102280000D01*
%TO.C,R404*%
X-165480000Y-20500000D02*
X-170220000Y-20500000D01*
X-170220000Y-20500000D02*
X-170220000Y-32300000D01*
X-165480000Y-32300000D02*
X-165480000Y-20500000D01*
X-170220000Y-32300000D02*
X-165480000Y-32300000D01*
%TO.C,K401*%
X-196200000Y-51600000D02*
X-198700000Y-47000000D01*
X-198000000Y-54500000D02*
X-194400000Y-54500000D01*
X-200450000Y-48400000D02*
X-197950000Y-48400000D01*
X-202200000Y-56500000D02*
X-202200000Y-59000000D01*
X-190200000Y-59000000D02*
X-190200000Y-56500000D01*
X-204050000Y-44150000D02*
X-188450000Y-44150000D01*
X-194400000Y-54500000D02*
X-194400000Y-58500000D01*
X-204050000Y-63950000D02*
X-204050000Y-44150000D01*
X-194400000Y-58500000D02*
X-198000000Y-58500000D01*
X-196200000Y-53100000D02*
X-192600000Y-53100000D01*
X-195050000Y-63950000D02*
X-188450000Y-63950000D01*
X-194400000Y-54500000D02*
X-198000000Y-58500000D01*
X-196200000Y-53100000D02*
X-196200000Y-51600000D01*
X-204050000Y-63950000D02*
X-197450000Y-63950000D01*
X-196200000Y-59900000D02*
X-196200000Y-60700000D01*
X-198000000Y-58500000D02*
X-198000000Y-54500000D01*
X-196200000Y-59900000D02*
X-192600000Y-59900000D01*
X-194400000Y-56500000D02*
X-190200000Y-56500000D01*
X-188450000Y-44150000D02*
X-188450000Y-63950000D01*
X-192600000Y-53100000D02*
X-192600000Y-59900000D01*
X-192050000Y-48400000D02*
X-194500000Y-48400000D01*
X-202200000Y-56500000D02*
X-198000000Y-56500000D01*
%TO.C,C407*%
X-119444112Y-72490000D02*
X-119444112Y-73149000D01*
X-120124112Y-69203000D02*
X-120124112Y-70410000D01*
X-120925112Y-72490000D02*
X-120925112Y-73986000D01*
X-120564112Y-72490000D02*
X-120564112Y-73892000D01*
X-119444112Y-69751000D02*
X-119444112Y-70410000D01*
X-120725112Y-68959000D02*
X-120725112Y-70410000D01*
X-119804112Y-72490000D02*
X-119804112Y-73485000D01*
X-119404112Y-69797000D02*
X-119404112Y-70410000D01*
X-119604112Y-72490000D02*
X-119604112Y-73314000D01*
X-118804112Y-71166000D02*
X-118804112Y-71734000D01*
X-120404112Y-72490000D02*
X-120404112Y-73832000D01*
X-120684112Y-72490000D02*
X-120684112Y-73930000D01*
X-120004112Y-69275000D02*
X-120004112Y-70410000D01*
X-119924112Y-69328000D02*
X-119924112Y-70410000D01*
X-119564112Y-72490000D02*
X-119564112Y-73276000D01*
X-119284112Y-72490000D02*
X-119284112Y-72950000D01*
X-120805112Y-68939000D02*
X-120805112Y-70410000D01*
X-119924112Y-72490000D02*
X-119924112Y-73572000D01*
X-119124112Y-72490000D02*
X-119124112Y-72701000D01*
X-118884112Y-70773000D02*
X-118884112Y-72127000D01*
X-119484112Y-69707000D02*
X-119484112Y-70410000D01*
X-121045112Y-68894000D02*
X-121045112Y-70410000D01*
X-121165112Y-72490000D02*
X-121165112Y-74019000D01*
X-124209887Y-69975000D02*
X-123709887Y-69975000D01*
X-120044112Y-72490000D02*
X-120044112Y-73650000D01*
X-119484112Y-72490000D02*
X-119484112Y-73193000D01*
X-120965112Y-72490000D02*
X-120965112Y-73993000D01*
X-119884112Y-69355000D02*
X-119884112Y-70410000D01*
X-120725112Y-72490000D02*
X-120725112Y-73941000D01*
X-119524112Y-72490000D02*
X-119524112Y-73235000D01*
X-119044112Y-70352000D02*
X-119044112Y-72548000D01*
X-121165112Y-68881000D02*
X-121165112Y-70410000D01*
X-121125112Y-72490000D02*
X-121125112Y-74015000D01*
X-119284112Y-69950000D02*
X-119284112Y-70410000D01*
X-120204112Y-69160000D02*
X-120204112Y-70410000D01*
X-119964112Y-72490000D02*
X-119964112Y-73599000D01*
X-121325112Y-68871000D02*
X-121325112Y-74029000D01*
X-119964112Y-69301000D02*
X-119964112Y-70410000D01*
X-120604112Y-72490000D02*
X-120604112Y-73905000D01*
X-120444112Y-69052000D02*
X-120444112Y-70410000D01*
X-120885112Y-72490000D02*
X-120885112Y-73978000D01*
X-119404112Y-72490000D02*
X-119404112Y-73103000D01*
X-120364112Y-69085000D02*
X-120364112Y-70410000D01*
X-120364112Y-72490000D02*
X-120364112Y-73815000D01*
X-119724112Y-72490000D02*
X-119724112Y-73421000D01*
X-119764112Y-69446000D02*
X-119764112Y-70410000D01*
X-120084112Y-69226000D02*
X-120084112Y-70410000D01*
X-120644112Y-68982000D02*
X-120644112Y-70410000D01*
X-121405112Y-68870000D02*
X-121405112Y-74030000D01*
X-121085112Y-72490000D02*
X-121085112Y-74011000D01*
X-119164112Y-70131000D02*
X-119164112Y-70410000D01*
X-118924112Y-70645000D02*
X-118924112Y-72255000D01*
X-119844112Y-69385000D02*
X-119844112Y-70410000D01*
X-120965112Y-68907000D02*
X-120965112Y-70410000D01*
X-119004112Y-70439000D02*
X-119004112Y-72461000D01*
X-119204112Y-72490000D02*
X-119204112Y-72833000D01*
X-119204112Y-70067000D02*
X-119204112Y-70410000D01*
X-119684112Y-69513000D02*
X-119684112Y-70410000D01*
X-120044112Y-69250000D02*
X-120044112Y-70410000D01*
X-120004112Y-72490000D02*
X-120004112Y-73625000D01*
X-120644112Y-72490000D02*
X-120644112Y-73918000D01*
X-121125112Y-68885000D02*
X-121125112Y-70410000D01*
X-121205112Y-68877000D02*
X-121205112Y-74023000D01*
X-120164112Y-69182000D02*
X-120164112Y-70410000D01*
X-119644112Y-69549000D02*
X-119644112Y-70410000D01*
X-119364112Y-69845000D02*
X-119364112Y-70410000D01*
X-123959887Y-69725000D02*
X-123959887Y-70225000D01*
X-120524112Y-72490000D02*
X-120524112Y-73878000D01*
X-120805112Y-72490000D02*
X-120805112Y-73961000D01*
X-120444112Y-72490000D02*
X-120444112Y-73848000D01*
X-121285112Y-68872000D02*
X-121285112Y-74028000D01*
X-121085112Y-68889000D02*
X-121085112Y-70410000D01*
X-119124112Y-70199000D02*
X-119124112Y-70410000D01*
X-120524112Y-69022000D02*
X-120524112Y-70410000D01*
X-119844112Y-72490000D02*
X-119844112Y-73515000D01*
X-118964112Y-70535000D02*
X-118964112Y-72365000D01*
X-119644112Y-72490000D02*
X-119644112Y-73351000D01*
X-120324112Y-69102000D02*
X-120324112Y-70410000D01*
X-118844112Y-70932000D02*
X-118844112Y-71968000D01*
X-120124112Y-72490000D02*
X-120124112Y-73697000D01*
X-120084112Y-72490000D02*
X-120084112Y-73674000D01*
X-120324112Y-72490000D02*
X-120324112Y-73798000D01*
X-119724112Y-69479000D02*
X-119724112Y-70410000D01*
X-119884112Y-72490000D02*
X-119884112Y-73545000D01*
X-119164112Y-72490000D02*
X-119164112Y-72769000D01*
X-119324112Y-69896000D02*
X-119324112Y-70410000D01*
X-119244112Y-72490000D02*
X-119244112Y-72893000D01*
X-120244112Y-69140000D02*
X-120244112Y-70410000D01*
X-121045112Y-72490000D02*
X-121045112Y-74006000D01*
X-120845112Y-68930000D02*
X-120845112Y-70410000D01*
X-119324112Y-72490000D02*
X-119324112Y-73004000D01*
X-120164112Y-72490000D02*
X-120164112Y-73718000D01*
X-120244112Y-72490000D02*
X-120244112Y-73760000D01*
X-119804112Y-69415000D02*
X-119804112Y-70410000D01*
X-120845112Y-72490000D02*
X-120845112Y-73970000D01*
X-120404112Y-69068000D02*
X-120404112Y-70410000D01*
X-121005112Y-72490000D02*
X-121005112Y-74000000D01*
X-120284112Y-69121000D02*
X-120284112Y-70410000D01*
X-119564112Y-69624000D02*
X-119564112Y-70410000D01*
X-120484112Y-69036000D02*
X-120484112Y-70410000D01*
X-120765112Y-72490000D02*
X-120765112Y-73951000D01*
X-120604112Y-68995000D02*
X-120604112Y-70410000D01*
X-121245112Y-68874000D02*
X-121245112Y-74026000D01*
X-119084112Y-70272000D02*
X-119084112Y-72628000D01*
X-120925112Y-68914000D02*
X-120925112Y-70410000D01*
X-120765112Y-68949000D02*
X-120765112Y-70410000D01*
X-120284112Y-72490000D02*
X-120284112Y-73779000D01*
X-120885112Y-68922000D02*
X-120885112Y-70410000D01*
X-119764112Y-72490000D02*
X-119764112Y-73454000D01*
X-119604112Y-69586000D02*
X-119604112Y-70410000D01*
X-119244112Y-70007000D02*
X-119244112Y-70410000D01*
X-121365112Y-68870000D02*
X-121365112Y-74030000D01*
X-120564112Y-69008000D02*
X-120564112Y-70410000D01*
X-119524112Y-69665000D02*
X-119524112Y-70410000D01*
X-119684112Y-72490000D02*
X-119684112Y-73387000D01*
X-119364112Y-72490000D02*
X-119364112Y-73055000D01*
X-121005112Y-68900000D02*
X-121005112Y-70410000D01*
X-120484112Y-72490000D02*
X-120484112Y-73864000D01*
X-120684112Y-68970000D02*
X-120684112Y-70410000D01*
X-120204112Y-72490000D02*
X-120204112Y-73740000D01*
X-118785112Y-71450000D02*
G75*
G03*
X-118785112Y-71450000I-2620000J0D01*
G01*
%TO.C,R306*%
X-143950000Y-81930000D02*
X-143950000Y-82700000D01*
X-142580000Y-82700000D02*
X-145320000Y-82700000D01*
X-145320000Y-82700000D02*
X-145320000Y-89240000D01*
X-142580000Y-89240000D02*
X-142580000Y-82700000D01*
X-143950000Y-90010000D02*
X-143950000Y-89240000D01*
X-145320000Y-89240000D02*
X-142580000Y-89240000D01*
%TO.C,C408*%
X-136670000Y-35770000D02*
X-127430000Y-35770000D01*
X-136670000Y-16530000D02*
X-127430000Y-16530000D01*
X-127430000Y-35770000D02*
X-127430000Y-16530000D01*
X-136670000Y-35770000D02*
X-136670000Y-16530000D01*
%TO.C,C403*%
X-168959887Y-69725000D02*
X-168959887Y-70225000D01*
X-165124112Y-69203000D02*
X-165124112Y-70410000D01*
X-164164112Y-70131000D02*
X-164164112Y-70410000D01*
X-164004112Y-70439000D02*
X-164004112Y-72461000D01*
X-164324112Y-72490000D02*
X-164324112Y-73004000D01*
X-164284112Y-72490000D02*
X-164284112Y-72950000D01*
X-165885112Y-68922000D02*
X-165885112Y-70410000D01*
X-164124112Y-70199000D02*
X-164124112Y-70410000D01*
X-164884112Y-72490000D02*
X-164884112Y-73545000D01*
X-165244112Y-69140000D02*
X-165244112Y-70410000D01*
X-164444112Y-69751000D02*
X-164444112Y-70410000D01*
X-166005112Y-68900000D02*
X-166005112Y-70410000D01*
X-164804112Y-72490000D02*
X-164804112Y-73485000D01*
X-165284112Y-72490000D02*
X-165284112Y-73779000D01*
X-165324112Y-72490000D02*
X-165324112Y-73798000D01*
X-164404112Y-69797000D02*
X-164404112Y-70410000D01*
X-165284112Y-69121000D02*
X-165284112Y-70410000D01*
X-165965112Y-68907000D02*
X-165965112Y-70410000D01*
X-165604112Y-72490000D02*
X-165604112Y-73905000D01*
X-164684112Y-72490000D02*
X-164684112Y-73387000D01*
X-166045112Y-72490000D02*
X-166045112Y-74006000D01*
X-165725112Y-68959000D02*
X-165725112Y-70410000D01*
X-165684112Y-68970000D02*
X-165684112Y-70410000D01*
X-165805112Y-68939000D02*
X-165805112Y-70410000D01*
X-164244112Y-72490000D02*
X-164244112Y-72893000D01*
X-165845112Y-68930000D02*
X-165845112Y-70410000D01*
X-165164112Y-72490000D02*
X-165164112Y-73718000D01*
X-164644112Y-72490000D02*
X-164644112Y-73351000D01*
X-165805112Y-72490000D02*
X-165805112Y-73961000D01*
X-164284112Y-69950000D02*
X-164284112Y-70410000D01*
X-164204112Y-72490000D02*
X-164204112Y-72833000D01*
X-163844112Y-70932000D02*
X-163844112Y-71968000D01*
X-166125112Y-68885000D02*
X-166125112Y-70410000D01*
X-165725112Y-72490000D02*
X-165725112Y-73941000D01*
X-165404112Y-72490000D02*
X-165404112Y-73832000D01*
X-164924112Y-72490000D02*
X-164924112Y-73572000D01*
X-164844112Y-69385000D02*
X-164844112Y-70410000D01*
X-165444112Y-72490000D02*
X-165444112Y-73848000D01*
X-164204112Y-70067000D02*
X-164204112Y-70410000D01*
X-165244112Y-72490000D02*
X-165244112Y-73760000D01*
X-166205112Y-68877000D02*
X-166205112Y-74023000D01*
X-164844112Y-72490000D02*
X-164844112Y-73515000D01*
X-164364112Y-69845000D02*
X-164364112Y-70410000D01*
X-164684112Y-69513000D02*
X-164684112Y-70410000D01*
X-165204112Y-72490000D02*
X-165204112Y-73740000D01*
X-164244112Y-70007000D02*
X-164244112Y-70410000D01*
X-164444112Y-72490000D02*
X-164444112Y-73149000D01*
X-165044112Y-69250000D02*
X-165044112Y-70410000D01*
X-164324112Y-69896000D02*
X-164324112Y-70410000D01*
X-164884112Y-69355000D02*
X-164884112Y-70410000D01*
X-165404112Y-69068000D02*
X-165404112Y-70410000D01*
X-164964112Y-72490000D02*
X-164964112Y-73599000D01*
X-165124112Y-72490000D02*
X-165124112Y-73697000D01*
X-166405112Y-68870000D02*
X-166405112Y-74030000D01*
X-164044112Y-70352000D02*
X-164044112Y-72548000D01*
X-164084112Y-70272000D02*
X-164084112Y-72628000D01*
X-165364112Y-69085000D02*
X-165364112Y-70410000D01*
X-165004112Y-69275000D02*
X-165004112Y-70410000D01*
X-165044112Y-72490000D02*
X-165044112Y-73650000D01*
X-165684112Y-72490000D02*
X-165684112Y-73930000D01*
X-163884112Y-70773000D02*
X-163884112Y-72127000D01*
X-164404112Y-72490000D02*
X-164404112Y-73103000D01*
X-164724112Y-69479000D02*
X-164724112Y-70410000D01*
X-165524112Y-69022000D02*
X-165524112Y-70410000D01*
X-165885112Y-72490000D02*
X-165885112Y-73978000D01*
X-165925112Y-68914000D02*
X-165925112Y-70410000D01*
X-165084112Y-69226000D02*
X-165084112Y-70410000D01*
X-164804112Y-69415000D02*
X-164804112Y-70410000D01*
X-169209887Y-69975000D02*
X-168709887Y-69975000D01*
X-164604112Y-69586000D02*
X-164604112Y-70410000D01*
X-165324112Y-69102000D02*
X-165324112Y-70410000D01*
X-165925112Y-72490000D02*
X-165925112Y-73986000D01*
X-164164112Y-72490000D02*
X-164164112Y-72769000D01*
X-164484112Y-72490000D02*
X-164484112Y-73193000D01*
X-165644112Y-68982000D02*
X-165644112Y-70410000D01*
X-165164112Y-69182000D02*
X-165164112Y-70410000D01*
X-165484112Y-69036000D02*
X-165484112Y-70410000D01*
X-164524112Y-69665000D02*
X-164524112Y-70410000D01*
X-165564112Y-72490000D02*
X-165564112Y-73892000D01*
X-165604112Y-68995000D02*
X-165604112Y-70410000D01*
X-165484112Y-72490000D02*
X-165484112Y-73864000D01*
X-165644112Y-72490000D02*
X-165644112Y-73918000D01*
X-164724112Y-72490000D02*
X-164724112Y-73421000D01*
X-164124112Y-72490000D02*
X-164124112Y-72701000D01*
X-166085112Y-72490000D02*
X-166085112Y-74011000D01*
X-164364112Y-72490000D02*
X-164364112Y-73055000D01*
X-165004112Y-72490000D02*
X-165004112Y-73625000D01*
X-165084112Y-72490000D02*
X-165084112Y-73674000D01*
X-164764112Y-69446000D02*
X-164764112Y-70410000D01*
X-164524112Y-72490000D02*
X-164524112Y-73235000D01*
X-165564112Y-69008000D02*
X-165564112Y-70410000D01*
X-165845112Y-72490000D02*
X-165845112Y-73970000D01*
X-164564112Y-72490000D02*
X-164564112Y-73276000D01*
X-165765112Y-68949000D02*
X-165765112Y-70410000D01*
X-164604112Y-72490000D02*
X-164604112Y-73314000D01*
X-165965112Y-72490000D02*
X-165965112Y-73993000D01*
X-163804112Y-71166000D02*
X-163804112Y-71734000D01*
X-166245112Y-68874000D02*
X-166245112Y-74026000D01*
X-166005112Y-72490000D02*
X-166005112Y-74000000D01*
X-164484112Y-69707000D02*
X-164484112Y-70410000D01*
X-165444112Y-69052000D02*
X-165444112Y-70410000D01*
X-166285112Y-68872000D02*
X-166285112Y-74028000D01*
X-166085112Y-68889000D02*
X-166085112Y-70410000D01*
X-165765112Y-72490000D02*
X-165765112Y-73951000D01*
X-164644112Y-69549000D02*
X-164644112Y-70410000D01*
X-165204112Y-69160000D02*
X-165204112Y-70410000D01*
X-165524112Y-72490000D02*
X-165524112Y-73878000D01*
X-166165112Y-68881000D02*
X-166165112Y-70410000D01*
X-166165112Y-72490000D02*
X-166165112Y-74019000D01*
X-165364112Y-72490000D02*
X-165364112Y-73815000D01*
X-166125112Y-72490000D02*
X-166125112Y-74015000D01*
X-164924112Y-69328000D02*
X-164924112Y-70410000D01*
X-164564112Y-69624000D02*
X-164564112Y-70410000D01*
X-163964112Y-70535000D02*
X-163964112Y-72365000D01*
X-164964112Y-69301000D02*
X-164964112Y-70410000D01*
X-163924112Y-70645000D02*
X-163924112Y-72255000D01*
X-166365112Y-68870000D02*
X-166365112Y-74030000D01*
X-164764112Y-72490000D02*
X-164764112Y-73454000D01*
X-166045112Y-68894000D02*
X-166045112Y-70410000D01*
X-166325112Y-68871000D02*
X-166325112Y-74029000D01*
X-163785112Y-71450000D02*
G75*
G03*
X-163785112Y-71450000I-2620000J0D01*
G01*
%TO.C,R403*%
X-171810000Y-71050000D02*
X-172580000Y-71050000D01*
X-179120000Y-69680000D02*
X-179120000Y-72420000D01*
X-172580000Y-69680000D02*
X-179120000Y-69680000D01*
X-179120000Y-72420000D02*
X-172580000Y-72420000D01*
X-179890000Y-71050000D02*
X-179120000Y-71050000D01*
X-172580000Y-72420000D02*
X-172580000Y-69680000D01*
%TO.C,R402*%
X-192620000Y-32420000D02*
X-187880000Y-32420000D01*
X-187880000Y-32420000D02*
X-187880000Y-20620000D01*
X-192620000Y-20620000D02*
X-192620000Y-32420000D01*
X-187880000Y-20620000D02*
X-192620000Y-20620000D01*
%TO.C,F601*%
X-215525000Y-31500000D02*
X-215525000Y-37750000D01*
X-214350000Y-15150000D02*
X-215525000Y-15150000D01*
X-209175000Y-37750000D02*
X-210350000Y-37750000D01*
X-215525000Y-31500000D02*
X-213950000Y-31500000D01*
X-215525000Y-21400000D02*
X-213950000Y-21400000D01*
X-215525000Y-15150000D02*
X-215525000Y-21400000D01*
X-209175000Y-31500000D02*
X-209175000Y-37750000D01*
X-209175000Y-21400000D02*
X-209175000Y-15150000D01*
X-209175000Y-31500000D02*
X-210750000Y-31500000D01*
X-209175000Y-21400000D02*
X-210750000Y-21400000D01*
X-214850000Y-21400000D02*
X-214850000Y-31500000D01*
X-210350000Y-15150000D02*
X-209175000Y-15150000D01*
X-209850000Y-21400000D02*
X-209850000Y-31500000D01*
X-215525000Y-37750000D02*
X-214350000Y-37750000D01*
%TO.C,RN301*%
X-138910000Y-93350000D02*
X-151950000Y-93350000D01*
X-151950000Y-96150000D02*
X-138910000Y-96150000D01*
X-138910000Y-96150000D02*
X-138910000Y-93350000D01*
X-151950000Y-93350000D02*
X-151950000Y-96150000D01*
X-141620000Y-96150000D02*
X-141620000Y-93350000D01*
%TO.C,C401*%
X-186764112Y-69845000D02*
X-186764112Y-70410000D01*
X-188165112Y-68949000D02*
X-188165112Y-70410000D01*
X-188044112Y-68982000D02*
X-188044112Y-70410000D01*
X-186884112Y-69707000D02*
X-186884112Y-70410000D01*
X-186564112Y-72490000D02*
X-186564112Y-72769000D01*
X-188645112Y-68874000D02*
X-188645112Y-74026000D01*
X-187724112Y-69102000D02*
X-187724112Y-70410000D01*
X-187804112Y-72490000D02*
X-187804112Y-73832000D01*
X-186724112Y-72490000D02*
X-186724112Y-73004000D01*
X-186724112Y-69896000D02*
X-186724112Y-70410000D01*
X-187204112Y-72490000D02*
X-187204112Y-73485000D01*
X-188285112Y-72490000D02*
X-188285112Y-73978000D01*
X-186764112Y-72490000D02*
X-186764112Y-73055000D01*
X-187164112Y-69446000D02*
X-187164112Y-70410000D01*
X-187564112Y-69182000D02*
X-187564112Y-70410000D01*
X-188325112Y-68914000D02*
X-188325112Y-70410000D01*
X-187564112Y-72490000D02*
X-187564112Y-73718000D01*
X-188325112Y-72490000D02*
X-188325112Y-73986000D01*
X-188405112Y-68900000D02*
X-188405112Y-70410000D01*
X-186964112Y-69624000D02*
X-186964112Y-70410000D01*
X-187764112Y-72490000D02*
X-187764112Y-73815000D01*
X-187844112Y-72490000D02*
X-187844112Y-73848000D01*
X-188725112Y-68871000D02*
X-188725112Y-74029000D01*
X-188685112Y-68872000D02*
X-188685112Y-74028000D01*
X-188044112Y-72490000D02*
X-188044112Y-73918000D01*
X-187964112Y-69008000D02*
X-187964112Y-70410000D01*
X-188285112Y-68922000D02*
X-188285112Y-70410000D01*
X-186564112Y-70131000D02*
X-186564112Y-70410000D01*
X-187084112Y-69513000D02*
X-187084112Y-70410000D01*
X-188765112Y-68870000D02*
X-188765112Y-74030000D01*
X-187244112Y-72490000D02*
X-187244112Y-73515000D01*
X-186604112Y-72490000D02*
X-186604112Y-72833000D01*
X-187124112Y-69479000D02*
X-187124112Y-70410000D01*
X-188525112Y-68885000D02*
X-188525112Y-70410000D01*
X-186324112Y-70645000D02*
X-186324112Y-72255000D01*
X-187044112Y-72490000D02*
X-187044112Y-73351000D01*
X-186284112Y-70773000D02*
X-186284112Y-72127000D01*
X-188405112Y-72490000D02*
X-188405112Y-74000000D01*
X-187444112Y-72490000D02*
X-187444112Y-73650000D01*
X-187204112Y-69415000D02*
X-187204112Y-70410000D01*
X-186684112Y-72490000D02*
X-186684112Y-72950000D01*
X-191359887Y-69725000D02*
X-191359887Y-70225000D01*
X-187284112Y-69355000D02*
X-187284112Y-70410000D01*
X-187724112Y-72490000D02*
X-187724112Y-73798000D01*
X-186924112Y-72490000D02*
X-186924112Y-73235000D01*
X-187364112Y-69301000D02*
X-187364112Y-70410000D01*
X-187604112Y-72490000D02*
X-187604112Y-73740000D01*
X-188205112Y-72490000D02*
X-188205112Y-73961000D01*
X-186404112Y-70439000D02*
X-186404112Y-72461000D01*
X-187404112Y-69275000D02*
X-187404112Y-70410000D01*
X-187684112Y-72490000D02*
X-187684112Y-73779000D01*
X-187164112Y-72490000D02*
X-187164112Y-73454000D01*
X-188485112Y-72490000D02*
X-188485112Y-74011000D01*
X-187444112Y-69250000D02*
X-187444112Y-70410000D01*
X-187644112Y-72490000D02*
X-187644112Y-73760000D01*
X-187524112Y-69203000D02*
X-187524112Y-70410000D01*
X-187524112Y-72490000D02*
X-187524112Y-73697000D01*
X-186524112Y-72490000D02*
X-186524112Y-72701000D01*
X-186644112Y-72490000D02*
X-186644112Y-72893000D01*
X-188565112Y-72490000D02*
X-188565112Y-74019000D01*
X-186204112Y-71166000D02*
X-186204112Y-71734000D01*
X-188245112Y-68930000D02*
X-188245112Y-70410000D01*
X-186964112Y-72490000D02*
X-186964112Y-73276000D01*
X-188004112Y-68995000D02*
X-188004112Y-70410000D01*
X-187484112Y-72490000D02*
X-187484112Y-73674000D01*
X-191609887Y-69975000D02*
X-191109887Y-69975000D01*
X-187244112Y-69385000D02*
X-187244112Y-70410000D01*
X-186804112Y-72490000D02*
X-186804112Y-73103000D01*
X-187884112Y-72490000D02*
X-187884112Y-73864000D01*
X-186444112Y-70352000D02*
X-186444112Y-72548000D01*
X-187924112Y-69022000D02*
X-187924112Y-70410000D01*
X-186484112Y-70272000D02*
X-186484112Y-72628000D01*
X-188445112Y-72490000D02*
X-188445112Y-74006000D01*
X-188084112Y-68970000D02*
X-188084112Y-70410000D01*
X-188485112Y-68889000D02*
X-188485112Y-70410000D01*
X-187924112Y-72490000D02*
X-187924112Y-73878000D01*
X-188805112Y-68870000D02*
X-188805112Y-74030000D01*
X-187084112Y-72490000D02*
X-187084112Y-73387000D01*
X-188245112Y-72490000D02*
X-188245112Y-73970000D01*
X-186844112Y-72490000D02*
X-186844112Y-73149000D01*
X-187404112Y-72490000D02*
X-187404112Y-73625000D01*
X-187364112Y-72490000D02*
X-187364112Y-73599000D01*
X-188565112Y-68881000D02*
X-188565112Y-70410000D01*
X-187804112Y-69068000D02*
X-187804112Y-70410000D01*
X-186244112Y-70932000D02*
X-186244112Y-71968000D01*
X-188165112Y-72490000D02*
X-188165112Y-73951000D01*
X-188605112Y-68877000D02*
X-188605112Y-74023000D01*
X-187004112Y-69586000D02*
X-187004112Y-70410000D01*
X-188205112Y-68939000D02*
X-188205112Y-70410000D01*
X-187124112Y-72490000D02*
X-187124112Y-73421000D01*
X-188004112Y-72490000D02*
X-188004112Y-73905000D01*
X-186364112Y-70535000D02*
X-186364112Y-72365000D01*
X-187844112Y-69052000D02*
X-187844112Y-70410000D01*
X-187684112Y-69121000D02*
X-187684112Y-70410000D01*
X-187484112Y-69226000D02*
X-187484112Y-70410000D01*
X-187644112Y-69140000D02*
X-187644112Y-70410000D01*
X-186844112Y-69751000D02*
X-186844112Y-70410000D01*
X-187004112Y-72490000D02*
X-187004112Y-73314000D01*
X-186524112Y-70199000D02*
X-186524112Y-70410000D01*
X-188084112Y-72490000D02*
X-188084112Y-73930000D01*
X-186604112Y-70067000D02*
X-186604112Y-70410000D01*
X-187044112Y-69549000D02*
X-187044112Y-70410000D01*
X-187284112Y-72490000D02*
X-187284112Y-73545000D01*
X-186884112Y-72490000D02*
X-186884112Y-73193000D01*
X-188525112Y-72490000D02*
X-188525112Y-74015000D01*
X-187884112Y-69036000D02*
X-187884112Y-70410000D01*
X-188365112Y-68907000D02*
X-188365112Y-70410000D01*
X-187324112Y-72490000D02*
X-187324112Y-73572000D01*
X-188365112Y-72490000D02*
X-188365112Y-73993000D01*
X-187764112Y-69085000D02*
X-187764112Y-70410000D01*
X-186924112Y-69665000D02*
X-186924112Y-70410000D01*
X-186684112Y-69950000D02*
X-186684112Y-70410000D01*
X-186804112Y-69797000D02*
X-186804112Y-70410000D01*
X-187964112Y-72490000D02*
X-187964112Y-73892000D01*
X-188125112Y-68959000D02*
X-188125112Y-70410000D01*
X-187604112Y-69160000D02*
X-187604112Y-70410000D01*
X-188445112Y-68894000D02*
X-188445112Y-70410000D01*
X-186644112Y-70007000D02*
X-186644112Y-70410000D01*
X-187324112Y-69328000D02*
X-187324112Y-70410000D01*
X-188125112Y-72490000D02*
X-188125112Y-73941000D01*
X-186185112Y-71450000D02*
G75*
G03*
X-186185112Y-71450000I-2620000J0D01*
G01*
%TO.C,J612*%
X-156720000Y-102280000D02*
X-156720000Y-99620000D01*
X-156720000Y-99620000D02*
X-154120000Y-99620000D01*
X-159320000Y-102280000D02*
X-159320000Y-100950000D01*
X-157990000Y-102280000D02*
X-159320000Y-102280000D01*
X-154120000Y-102280000D02*
X-154120000Y-99620000D01*
X-156720000Y-102280000D02*
X-154120000Y-102280000D01*
%TO.C,K404*%
X-129400000Y-59900000D02*
X-125800000Y-59900000D01*
X-137250000Y-63950000D02*
X-137250000Y-44150000D01*
X-127600000Y-56500000D02*
X-123400000Y-56500000D01*
X-135400000Y-56500000D02*
X-131200000Y-56500000D01*
X-128250000Y-63950000D02*
X-121650000Y-63950000D01*
X-125250000Y-48400000D02*
X-127700000Y-48400000D01*
X-127600000Y-58500000D02*
X-131200000Y-58500000D01*
X-131200000Y-58500000D02*
X-131200000Y-54500000D01*
X-125800000Y-53100000D02*
X-125800000Y-59900000D01*
X-131200000Y-54500000D02*
X-127600000Y-54500000D01*
X-129400000Y-59900000D02*
X-129400000Y-60700000D01*
X-127600000Y-54500000D02*
X-127600000Y-58500000D01*
X-129400000Y-53100000D02*
X-125800000Y-53100000D01*
X-127600000Y-54500000D02*
X-131200000Y-58500000D01*
X-135400000Y-56500000D02*
X-135400000Y-59000000D01*
X-121650000Y-44150000D02*
X-121650000Y-63950000D01*
X-123400000Y-59000000D02*
X-123400000Y-56500000D01*
X-129400000Y-53100000D02*
X-129400000Y-51600000D01*
X-137250000Y-63950000D02*
X-130650000Y-63950000D01*
X-133650000Y-48400000D02*
X-131150000Y-48400000D01*
X-129400000Y-51600000D02*
X-131900000Y-47000000D01*
X-137250000Y-44150000D02*
X-121650000Y-44150000D01*
D10*
%TO.C,RV404*%
X-129700000Y-42800000D02*
X-122200000Y-42800000D01*
X-122200000Y-37100000D02*
X-122200000Y-42800000D01*
X-129700000Y-37100000D02*
X-122200000Y-37100000D01*
X-129700000Y-37100000D02*
X-129700000Y-42800000D01*
D11*
%TO.C,R408*%
X-125820000Y-20500000D02*
X-125820000Y-32300000D01*
X-121080000Y-32300000D02*
X-121080000Y-20500000D01*
X-125820000Y-32300000D02*
X-121080000Y-32300000D01*
X-121080000Y-20500000D02*
X-125820000Y-20500000D01*
%TO.C,D407*%
X-133260000Y-65670000D02*
X-133260000Y-65514000D01*
X-133260000Y-67986000D02*
X-133260000Y-67830000D01*
X-133260000Y-65514484D02*
G75*
G03*
X-136492335Y-65671392I-1560000J-1235516D01*
G01*
X-133779039Y-65670000D02*
G75*
G03*
X-135861130Y-65670163I-1040961J-1080000D01*
G01*
X-136492335Y-67828608D02*
G75*
G03*
X-133260000Y-67985516I1672335J1078608D01*
G01*
X-135861130Y-67829837D02*
G75*
G03*
X-133779039Y-67830000I1041130J1079837D01*
G01*
%TO.C,D404*%
X-169750000Y-68320000D02*
X-169750000Y-65380000D01*
X-174170000Y-68320000D02*
X-174170000Y-67990000D01*
X-168730000Y-68320000D02*
X-174170000Y-68320000D01*
X-168730000Y-65710000D02*
X-168730000Y-65380000D01*
X-174170000Y-65380000D02*
X-174170000Y-65710000D01*
X-168730000Y-65380000D02*
X-174170000Y-65380000D01*
X-169630000Y-68320000D02*
X-169630000Y-65380000D01*
X-168730000Y-67990000D02*
X-168730000Y-68320000D01*
X-169510000Y-68320000D02*
X-169510000Y-65380000D01*
%TO.C,C406*%
X-158670000Y-16430000D02*
X-149430000Y-16430000D01*
X-158670000Y-35670000D02*
X-149430000Y-35670000D01*
X-149430000Y-35670000D02*
X-149430000Y-16430000D01*
X-158670000Y-35670000D02*
X-158670000Y-16430000D01*
D10*
%TO.C,RV403*%
X-151900000Y-42800000D02*
X-144400000Y-42800000D01*
X-151900000Y-37100000D02*
X-151900000Y-42800000D01*
X-144400000Y-37100000D02*
X-144400000Y-42800000D01*
X-151900000Y-37100000D02*
X-144400000Y-37100000D01*
D11*
%TO.C,D405*%
X-155460000Y-67986000D02*
X-155460000Y-67830000D01*
X-155460000Y-65670000D02*
X-155460000Y-65514000D01*
X-155460000Y-65514484D02*
G75*
G03*
X-158692335Y-65671392I-1560000J-1235516D01*
G01*
X-158692335Y-67828608D02*
G75*
G03*
X-155460000Y-67985516I1672335J1078608D01*
G01*
X-158061130Y-67829837D02*
G75*
G03*
X-155979039Y-67830000I1041130J1079837D01*
G01*
X-155979039Y-65670000D02*
G75*
G03*
X-158061130Y-65670163I-1040961J-1080000D01*
G01*
%TO.C,C601*%
X-156302651Y-97500000D02*
X-155552651Y-97500000D01*
X-157382651Y-89821000D02*
X-157382651Y-97979000D01*
X-156421651Y-89964000D02*
X-156421651Y-97836000D01*
X-156541651Y-89933000D02*
X-156541651Y-97867000D01*
X-156302651Y-95400000D02*
X-153702651Y-95400000D01*
X-156942651Y-89858000D02*
X-156942651Y-97942000D01*
X-156302651Y-96400000D02*
X-154252651Y-96400000D01*
X-156302651Y-91600000D02*
X-154102651Y-91600000D01*
X-156982651Y-89852000D02*
X-156982651Y-97948000D01*
X-156341651Y-90000000D02*
X-156341651Y-97800000D01*
X-157142651Y-89835000D02*
X-157142651Y-97965000D01*
X-156302651Y-97100000D02*
X-155002651Y-97100000D01*
X-156352651Y-96800000D02*
X-154602651Y-96800000D01*
X-156501651Y-89943000D02*
X-156501651Y-97857000D01*
X-157022651Y-89848000D02*
X-157022651Y-97952000D01*
X-157462651Y-89820000D02*
X-157462651Y-97980000D01*
X-157502651Y-89820000D02*
X-157502651Y-97980000D01*
X-161912349Y-91585000D02*
X-161112349Y-91585000D01*
X-156302651Y-91800000D02*
X-153952651Y-91800000D01*
X-156781651Y-89883000D02*
X-156781651Y-97917000D01*
X-156741651Y-89890000D02*
X-156741651Y-97910000D01*
X-156302651Y-95900000D02*
X-153902651Y-95900000D01*
X-156352651Y-91200000D02*
X-154402651Y-91200000D01*
X-156302651Y-91400000D02*
X-154302651Y-91400000D01*
X-156302651Y-90800000D02*
X-154852651Y-90800000D01*
X-156352651Y-96600000D02*
X-154452651Y-96600000D01*
X-156302651Y-96500000D02*
X-154302651Y-96500000D01*
X-156302651Y-92400000D02*
X-153702651Y-92400000D01*
X-156302651Y-96700000D02*
X-154552651Y-96700000D01*
X-156302651Y-92200000D02*
X-153802651Y-92200000D01*
X-156302651Y-90700000D02*
X-155002651Y-90700000D01*
X-156621651Y-89915000D02*
X-156621651Y-97885000D01*
X-157302651Y-89824000D02*
X-157302651Y-97976000D01*
X-156302651Y-90500000D02*
X-155252651Y-90500000D01*
X-153502651Y-92950000D02*
X-153552651Y-94750000D01*
X-156302651Y-96000000D02*
X-154002651Y-96000000D01*
X-156302651Y-95300000D02*
X-153652651Y-95300000D01*
X-156352651Y-96900000D02*
X-154702651Y-96900000D01*
X-153602651Y-92650000D02*
X-153602651Y-95100000D01*
X-156302651Y-95700000D02*
X-153852651Y-95700000D01*
X-156701651Y-89898000D02*
X-156701651Y-97902000D01*
X-157102651Y-89839000D02*
X-157102651Y-97961000D01*
X-157262651Y-89826000D02*
X-157262651Y-97974000D01*
X-156302651Y-92500000D02*
X-153702651Y-92500000D01*
X-156302651Y-95800000D02*
X-153902651Y-95800000D01*
X-156581651Y-89924000D02*
X-156581651Y-97876000D01*
X-156302651Y-91500000D02*
X-154202651Y-91500000D01*
X-156302651Y-97000000D02*
X-154852651Y-97000000D01*
X-157342651Y-89823000D02*
X-157342651Y-97977000D01*
X-156302651Y-95500000D02*
X-153752651Y-95500000D01*
X-156341651Y-89986000D02*
X-156341651Y-97814000D01*
X-156302651Y-90900000D02*
X-154752651Y-90900000D01*
X-156302651Y-92100000D02*
X-153852651Y-92100000D01*
X-157222651Y-89829000D02*
X-157222651Y-97971000D01*
X-156902651Y-89863000D02*
X-156902651Y-97937000D01*
X-156302651Y-91100000D02*
X-154502651Y-91100000D01*
X-156302651Y-96100000D02*
X-154052651Y-96100000D01*
X-156352651Y-90200000D02*
X-155752651Y-90200000D01*
X-156461651Y-89953000D02*
X-156461651Y-97847000D01*
X-157062651Y-89843000D02*
X-157062651Y-97957000D01*
X-153702651Y-92550000D02*
X-153702651Y-95150000D01*
X-156302651Y-95200000D02*
X-153602651Y-95200000D01*
X-156302651Y-95600000D02*
X-153802651Y-95600000D01*
X-153452651Y-93400000D02*
X-153452651Y-94500000D01*
X-156302651Y-90400000D02*
X-155402651Y-90400000D01*
X-156302651Y-97600000D02*
X-155802651Y-97600000D01*
X-157182651Y-89832000D02*
X-157182651Y-97968000D01*
X-156302651Y-96200000D02*
X-154102651Y-96200000D01*
X-156302651Y-91300000D02*
X-154352651Y-91300000D01*
X-156302651Y-96300000D02*
X-154202651Y-96300000D01*
X-156862651Y-89870000D02*
X-156862651Y-97930000D01*
X-161512349Y-91185000D02*
X-161512349Y-91985000D01*
X-156352651Y-92000000D02*
X-153902651Y-92000000D01*
X-157422651Y-89820000D02*
X-157422651Y-97980000D01*
X-156302651Y-91900000D02*
X-153952651Y-91900000D01*
X-156352651Y-90300000D02*
X-155502651Y-90300000D01*
X-156381651Y-89975000D02*
X-156381651Y-97825000D01*
X-156302651Y-97300000D02*
X-155252651Y-97300000D01*
X-156002651Y-97700000D02*
X-156302651Y-97750000D01*
X-156302651Y-90600000D02*
X-155102651Y-90600000D01*
X-156302651Y-91000000D02*
X-154602651Y-91000000D01*
X-156302651Y-97400000D02*
X-155402651Y-97400000D01*
X-156302651Y-97200000D02*
X-155102651Y-97200000D01*
X-156352651Y-97700000D02*
X-156002651Y-97700000D01*
X-156352651Y-92300000D02*
X-153752651Y-92300000D01*
X-156661651Y-89906000D02*
X-156661651Y-97894000D01*
X-156302651Y-92600000D02*
X-153652651Y-92600000D01*
X-156302651Y-90100000D02*
X-155952651Y-90100000D01*
X-156822651Y-89876000D02*
X-156822651Y-97924000D01*
X-156302651Y-91700000D02*
X-154052651Y-91700000D01*
X-156341651Y-90000000D02*
X-156202651Y-90050000D01*
X-153382651Y-93900000D02*
G75*
G03*
X-153382651Y-93900000I-4120000J0D01*
G01*
%TO.C,D406*%
X-146230000Y-65710000D02*
X-146230000Y-65380000D01*
X-146230000Y-65380000D02*
X-151670000Y-65380000D01*
X-151670000Y-68320000D02*
X-151670000Y-67990000D01*
X-147010000Y-68320000D02*
X-147010000Y-65380000D01*
X-151670000Y-65380000D02*
X-151670000Y-65710000D01*
X-146230000Y-68320000D02*
X-151670000Y-68320000D01*
X-147250000Y-68320000D02*
X-147250000Y-65380000D01*
X-147130000Y-68320000D02*
X-147130000Y-65380000D01*
X-146230000Y-67990000D02*
X-146230000Y-68320000D01*
%TO.C,C404*%
X-171530000Y-35670000D02*
X-171530000Y-16430000D01*
X-180770000Y-35670000D02*
X-180770000Y-16430000D01*
X-180770000Y-16430000D02*
X-171530000Y-16430000D01*
X-180770000Y-35670000D02*
X-171530000Y-35670000D01*
%TD*%
M02*
