M48
; DRILL file {KiCad (6.0.8)} date Fri Mar  3 00:45:10 2023
; FORMAT={-:-/ absolute / metric / decimal}
; #@! TF.CreationDate,2023-03-03T00:45:10+05:30
; #@! TF.GenerationSoftware,Kicad,Pcbnew,(6.0.8)
; #@! TF.FileFunction,Plated,1,2,PTH
FMAT,2
METRIC
; #@! TA.AperFunction,Plated,PTH,ViaDrill
T1C0.400
; #@! TA.AperFunction,Plated,PTH,ComponentDrill
T2C0.762
; #@! TA.AperFunction,Plated,PTH,ComponentDrill
T3C0.800
; #@! TA.AperFunction,Plated,PTH,ComponentDrill
T4C0.900
; #@! TA.AperFunction,Plated,PTH,ComponentDrill
T5C1.000
; #@! TA.AperFunction,Plated,PTH,ComponentDrill
T6C1.100
; #@! TA.AperFunction,Plated,PTH,ComponentDrill
T7C1.700
; #@! TA.AperFunction,Plated,PTH,ComponentDrill
T8C3.000
%
G90
G05
T1
X-193.692Y-94.787
X-190.56Y-71.49
X-190.56Y-74.03
X-190.56Y-76.57
X-176.59Y-76.57
X-176.59Y-77.84
X-176.59Y-79.11
X-174.05Y-84.19
X-173.492Y-129.688
X-172.78Y-84.19
X-171.51Y-84.19
X-165.492Y-129.188
X-163.992Y-131.887
X-161.35Y-133.72
X-161.35Y-134.99
X-161.35Y-136.26
X-158.093Y-127.188
X-154.593Y-125.587
X-134.68Y-48.63
X-134.68Y-49.9
X-134.68Y-51.17
X-133.41Y-68.95
X-132.14Y-68.95
X-130.87Y-68.95
X-129.6Y-68.95
X-128.33Y-68.95
X-128.33Y-99.43
X-127.06Y-68.95
X-127.06Y-99.43
X-125.79Y-99.43
X-124.52Y-99.43
X-123.25Y-95.62
X-123.25Y-96.89
X-123.25Y-98.16
X-123.25Y-99.43
T2
X-174.257Y-81.267
X-174.257Y-96.507
X-171.718Y-81.267
X-171.718Y-96.507
X-169.177Y-81.267
X-169.177Y-96.507
X-166.637Y-81.267
X-166.637Y-96.507
X-164.097Y-81.267
X-164.097Y-96.507
X-161.558Y-81.267
X-161.558Y-96.507
X-159.017Y-81.267
X-159.017Y-96.507
X-156.477Y-81.267
X-156.477Y-96.507
X-153.938Y-81.267
X-153.938Y-96.507
X-151.397Y-81.267
X-151.397Y-96.507
X-148.857Y-81.267
X-148.857Y-96.507
X-146.317Y-81.267
X-146.317Y-96.507
X-143.778Y-81.267
X-143.778Y-96.507
X-141.237Y-81.267
X-141.237Y-96.507
X-138.697Y-81.267
X-138.697Y-96.507
X-136.157Y-81.267
X-136.157Y-96.507
X-133.618Y-81.267
X-133.618Y-96.507
X-131.077Y-81.267
X-131.077Y-96.507
X-128.537Y-81.267
X-128.537Y-96.507
X-125.997Y-81.267
X-125.997Y-96.507
T3
X-198.117Y-55.762
X-198.117Y-60.842
X-195.577Y-58.302
X-179.157Y-126.063
X-179.157Y-133.683
X-178.892Y-105.567
X-178.892Y-113.188
X-176.617Y-126.063
X-176.617Y-133.683
X-176.352Y-105.567
X-176.352Y-113.188
X-174.292Y-77.188
X-169.657Y-126.063
X-169.657Y-133.683
X-169.593Y-105.767
X-169.593Y-113.387
X-169.292Y-77.188
X-167.117Y-126.063
X-167.117Y-133.683
X-167.052Y-105.767
X-167.052Y-113.387
X-153.192Y-129.287
X-153.192Y-134.287
X-142.368Y-124.492
X-142.368Y-132.112
X-139.827Y-124.492
X-139.827Y-132.112
X-134.767Y-56.192
X-134.767Y-63.813
X-132.792Y-124.567
X-132.792Y-132.188
X-132.227Y-56.192
X-132.227Y-63.813
X-130.252Y-124.567
X-130.252Y-132.188
X-128.667Y-56.192
X-128.667Y-63.813
X-126.127Y-56.192
X-126.127Y-63.813
X-123.292Y-124.667
X-123.292Y-132.287
X-122.567Y-56.192
X-122.567Y-63.813
X-120.752Y-124.667
X-120.752Y-132.287
X-120.027Y-56.192
X-120.027Y-63.813
X-116.367Y-56.192
X-116.367Y-63.813
X-113.992Y-124.867
X-113.992Y-132.487
X-113.828Y-56.192
X-113.828Y-63.813
X-111.453Y-124.867
X-111.453Y-132.487
T4
X-198.112Y-83.248
X-196.933Y-77.772
X-196.933Y-80.313
X-187.952Y-83.248
X-187.692Y-113.587
X-187.692Y-116.127
X-187.692Y-118.667
X-187.692Y-121.207
X-187.692Y-123.747
X-182.593Y-124.007
X-182.593Y-134.167
X-182.517Y-103.483
X-182.517Y-113.642
X-173.093Y-124.087
X-173.093Y-134.248
X-173.017Y-103.502
X-173.017Y-113.662
X-145.993Y-122.427
X-145.993Y-132.588
X-141.892Y-55.508
X-141.892Y-65.668
X-138.493Y-55.508
X-138.493Y-65.668
X-138.352Y-137.787
X-136.317Y-122.502
X-136.317Y-132.662
X-135.813Y-137.787
X-133.273Y-137.787
X-130.732Y-137.787
X-128.192Y-137.787
X-126.817Y-122.402
X-126.817Y-132.563
X-117.417Y-122.682
X-117.417Y-132.843
X-110.392Y-55.707
X-110.392Y-65.867
X-107.093Y-55.707
X-107.093Y-65.867
T5
X-197.292Y-87.987
X-197.292Y-90.527
X-197.292Y-93.067
X-197.292Y-95.608
X-190.572Y-59.447
X-187.232Y-75.147
X-185.492Y-59.457
X-184.093Y-90.487
X-184.093Y-98.087
X-183.892Y-50.087
X-182.232Y-75.147
X-181.352Y-50.087
X-178.813Y-50.087
X-176.272Y-50.087
X-173.732Y-50.087
X-171.192Y-50.087
X-168.653Y-50.087
X-166.112Y-50.087
X-163.572Y-50.087
X-161.032Y-50.087
X-158.493Y-50.087
X-155.952Y-50.087
X-153.412Y-50.087
X-150.873Y-50.087
X-148.332Y-50.087
X-145.792Y-50.087
X-139.532Y-50.188
X-139.452Y-144.188
X-136.993Y-50.188
X-136.912Y-144.188
X-134.373Y-144.188
X-131.993Y-50.188
X-131.832Y-144.188
X-129.452Y-50.188
X-129.292Y-144.188
X-126.912Y-50.188
X-124.372Y-50.188
T6
X-189.343Y-64.847
X-189.343Y-68.447
X-181.722Y-64.847
X-181.722Y-68.447
T7
X-196.075Y-66.725
X-196.075Y-71.805
X-195.992Y-101.087
X-195.992Y-106.167
X-195.992Y-111.247
X-195.992Y-116.328
X-195.992Y-121.407
X-195.992Y-126.487
X-195.992Y-131.567
X-195.992Y-136.648
X-160.15Y-142.045
X-155.07Y-142.045
T8
X-196.392Y-143.6
X-196.3Y-50.6
X-103.593Y-50.6
X-103.45Y-143.6
T0
M30
