%TF.GenerationSoftware,KiCad,Pcbnew,(6.0.8)*%
%TF.CreationDate,2023-03-03T00:45:07+05:30*%
%TF.ProjectId,STM32DryerPCB,53544d33-3244-4727-9965-725043422e6b,rev?*%
%TF.SameCoordinates,Original*%
%TF.FileFunction,Soldermask,Top*%
%TF.FilePolarity,Negative*%
%FSLAX46Y46*%
G04 Gerber Fmt 4.6, Leading zero omitted, Abs format (unit mm)*
G04 Created by KiCad (PCBNEW (6.0.8)) date 2023-03-03 00:45:07*
%MOMM*%
%LPD*%
G01*
G04 APERTURE LIST*
G04 Aperture macros list*
%AMRoundRect*
0 Rectangle with rounded corners*
0 $1 Rounding radius*
0 $2 $3 $4 $5 $6 $7 $8 $9 X,Y pos of 4 corners*
0 Add a 4 corners polygon primitive as box body*
4,1,4,$2,$3,$4,$5,$6,$7,$8,$9,$2,$3,0*
0 Add four circle primitives for the rounded corners*
1,1,$1+$1,$2,$3*
1,1,$1+$1,$4,$5*
1,1,$1+$1,$6,$7*
1,1,$1+$1,$8,$9*
0 Add four rect primitives between the rounded corners*
20,1,$1+$1,$2,$3,$4,$5,0*
20,1,$1+$1,$4,$5,$6,$7,0*
20,1,$1+$1,$6,$7,$8,$9,0*
20,1,$1+$1,$8,$9,$2,$3,0*%
G04 Aperture macros list end*
%ADD10C,1.440000*%
%ADD11R,1.700000X1.700000*%
%ADD12O,1.700000X1.700000*%
%ADD13C,2.000000*%
%ADD14R,1.600000X2.400000*%
%ADD15O,1.600000X2.400000*%
%ADD16C,6.000000*%
%ADD17RoundRect,0.150000X0.150000X-0.825000X0.150000X0.825000X-0.150000X0.825000X-0.150000X-0.825000X0*%
%ADD18R,2.000000X2.000000*%
%ADD19RoundRect,0.416667X1.083333X1.583333X-1.083333X1.583333X-1.083333X-1.583333X1.083333X-1.583333X0*%
%ADD20RoundRect,0.416667X-1.583333X1.083333X-1.583333X-1.083333X1.583333X-1.083333X1.583333X1.083333X0*%
%ADD21R,4.000000X3.000000*%
%ADD22C,1.700000*%
%ADD23R,2.100000X2.100000*%
%ADD24C,2.100000*%
G04 APERTURE END LIST*
D10*
%TO.C,RV601*%
X-198117500Y-55762500D03*
X-195577500Y-58302500D03*
X-198117500Y-60842500D03*
%TD*%
D11*
%TO.C,J610*%
X-129292500Y-144187500D03*
D12*
X-131832500Y-144187500D03*
X-134372500Y-144187500D03*
X-136912500Y-144187500D03*
X-139452500Y-144187500D03*
%TD*%
D13*
%TO.C,R302*%
X-110392500Y-65867500D03*
X-110392500Y-55707500D03*
%TD*%
D14*
%TO.C,U206*%
X-132792500Y-132187500D03*
D15*
X-130252500Y-132187500D03*
X-130252500Y-124567500D03*
X-132792500Y-124567500D03*
%TD*%
D13*
%TO.C,R201*%
X-182592500Y-124007500D03*
X-182592500Y-134167500D03*
%TD*%
D11*
%TO.C,J606*%
X-197292500Y-87987500D03*
D12*
X-197292500Y-90527500D03*
X-197292500Y-93067500D03*
X-197292500Y-95607500D03*
%TD*%
D16*
%TO.C,H606*%
X-103592500Y-50600000D03*
%TD*%
D13*
%TO.C,C102*%
X-169292500Y-77187500D03*
X-174292500Y-77187500D03*
%TD*%
D17*
%TO.C,U501*%
X-159597500Y-134162500D03*
X-158327500Y-134162500D03*
X-157057500Y-134162500D03*
X-155787500Y-134162500D03*
X-155787500Y-129212500D03*
X-157057500Y-129212500D03*
X-158327500Y-129212500D03*
X-159597500Y-129212500D03*
%TD*%
D14*
%TO.C,U304*%
X-134767500Y-63812500D03*
D15*
X-132227500Y-63812500D03*
X-132227500Y-56192500D03*
X-134767500Y-56192500D03*
%TD*%
D18*
%TO.C,RN201*%
X-187692500Y-113587500D03*
D13*
X-187692500Y-116127500D03*
X-187692500Y-118667500D03*
X-187692500Y-121207500D03*
X-187692500Y-123747500D03*
%TD*%
%TO.C,R203*%
X-173092500Y-124087500D03*
X-173092500Y-134247500D03*
%TD*%
D11*
%TO.C,J607*%
X-124372500Y-50187500D03*
D12*
X-126912500Y-50187500D03*
X-129452500Y-50187500D03*
X-131992500Y-50187500D03*
%TD*%
D13*
%TO.C,C501*%
X-153192500Y-129287500D03*
X-153192500Y-134287500D03*
%TD*%
D18*
%TO.C,RN202*%
X-128192500Y-137787500D03*
D13*
X-130732500Y-137787500D03*
X-133272500Y-137787500D03*
X-135812500Y-137787500D03*
X-138352500Y-137787500D03*
%TD*%
D11*
%TO.C,J605*%
X-139532500Y-50187500D03*
D12*
X-136992500Y-50187500D03*
%TD*%
D13*
%TO.C,R207*%
X-126817500Y-132562500D03*
X-126817500Y-122402500D03*
%TD*%
%TO.C,R205*%
X-145992500Y-132587500D03*
X-145992500Y-122427500D03*
%TD*%
%TO.C,R206*%
X-136317500Y-132662500D03*
X-136317500Y-122502500D03*
%TD*%
D18*
%TO.C,BZ601*%
X-184092500Y-90487500D03*
D13*
X-184092500Y-98087500D03*
%TD*%
D14*
%TO.C,U202*%
X-169592500Y-113387500D03*
D15*
X-167052500Y-113387500D03*
X-167052500Y-105767500D03*
X-169592500Y-105767500D03*
%TD*%
D13*
%TO.C,R204*%
X-182517500Y-113642500D03*
X-182517500Y-103482500D03*
%TD*%
D19*
%TO.C,J611*%
X-155070000Y-142045000D03*
X-160150000Y-142045000D03*
%TD*%
D14*
%TO.C,U302*%
X-122567500Y-63812500D03*
D15*
X-120027500Y-63812500D03*
X-120027500Y-56192500D03*
X-122567500Y-56192500D03*
%TD*%
D13*
%TO.C,R304*%
X-141892500Y-65667500D03*
X-141892500Y-55507500D03*
%TD*%
D20*
%TO.C,J608*%
X-195992500Y-101087500D03*
D21*
X-195992500Y-106167500D03*
X-195992500Y-111247500D03*
X-195992500Y-116327500D03*
X-195992500Y-121407500D03*
X-195992500Y-126487500D03*
X-195992500Y-131567500D03*
X-195992500Y-136647500D03*
%TD*%
D14*
%TO.C,U201*%
X-176617500Y-126062500D03*
D15*
X-179157500Y-126062500D03*
X-179157500Y-133682500D03*
X-176617500Y-133682500D03*
%TD*%
D14*
%TO.C,U203*%
X-167117500Y-126062500D03*
D15*
X-169657500Y-126062500D03*
X-169657500Y-133682500D03*
X-167117500Y-133682500D03*
%TD*%
D22*
%TO.C,U101*%
X-174257500Y-96507500D03*
X-171717500Y-96507500D03*
X-169177500Y-96507500D03*
X-166637500Y-96507500D03*
X-164097500Y-96507500D03*
X-161557500Y-96507500D03*
X-159017500Y-96507500D03*
X-156477500Y-96507500D03*
X-153937500Y-96507500D03*
X-151397500Y-96507500D03*
X-148857500Y-96507500D03*
X-146317500Y-96507500D03*
X-143777500Y-96507500D03*
X-141237500Y-96507500D03*
X-138697500Y-96507500D03*
X-136157500Y-96507500D03*
X-133617500Y-96507500D03*
X-131077500Y-96507500D03*
X-128537500Y-96507500D03*
X-125997500Y-96507500D03*
X-125997500Y-81267500D03*
X-128537500Y-81267500D03*
X-131077500Y-81267500D03*
X-133617500Y-81267500D03*
X-136157500Y-81267500D03*
X-138697500Y-81267500D03*
X-141237500Y-81267500D03*
X-143777500Y-81267500D03*
X-146317500Y-81267500D03*
X-148857500Y-81267500D03*
X-151397500Y-81267500D03*
X-153937500Y-81267500D03*
X-156477500Y-81267500D03*
X-159017500Y-81267500D03*
X-161557500Y-81267500D03*
X-164097500Y-81267500D03*
X-166637500Y-81267500D03*
X-169177500Y-81267500D03*
X-171717500Y-81267500D03*
X-174257500Y-81267500D03*
%TD*%
D23*
%TO.C,D101*%
X-181722500Y-68447500D03*
D24*
X-189342500Y-68447500D03*
%TD*%
D14*
%TO.C,U301*%
X-116367500Y-63812500D03*
D15*
X-113827500Y-63812500D03*
X-113827500Y-56192500D03*
X-116367500Y-56192500D03*
%TD*%
D13*
%TO.C,R208*%
X-117417500Y-132842500D03*
X-117417500Y-122682500D03*
%TD*%
D16*
%TO.C,H607*%
X-196392500Y-143600000D03*
%TD*%
D18*
%TO.C,D102*%
X-196932500Y-77772500D03*
D13*
X-196932500Y-80312500D03*
%TD*%
D14*
%TO.C,U303*%
X-128667500Y-63812500D03*
D15*
X-126127500Y-63812500D03*
X-126127500Y-56192500D03*
X-128667500Y-56192500D03*
%TD*%
D14*
%TO.C,U207*%
X-123292500Y-132287500D03*
D15*
X-120752500Y-132287500D03*
X-120752500Y-124667500D03*
X-123292500Y-124667500D03*
%TD*%
D14*
%TO.C,U204*%
X-178892500Y-113187500D03*
D15*
X-176352500Y-113187500D03*
X-176352500Y-105567500D03*
X-178892500Y-105567500D03*
%TD*%
D14*
%TO.C,U208*%
X-113992500Y-132487500D03*
D15*
X-111452500Y-132487500D03*
X-111452500Y-124867500D03*
X-113992500Y-124867500D03*
%TD*%
D16*
%TO.C,H605*%
X-196300000Y-50600000D03*
%TD*%
D23*
%TO.C,D101*%
X-181722500Y-64847500D03*
D24*
X-189342500Y-64847500D03*
%TD*%
D20*
%TO.C,J101*%
X-196075000Y-66725000D03*
X-196075000Y-71805000D03*
%TD*%
D13*
%TO.C,R303*%
X-138492500Y-65667500D03*
X-138492500Y-55507500D03*
%TD*%
D14*
%TO.C,U205*%
X-142367500Y-132112500D03*
D15*
X-139827500Y-132112500D03*
X-139827500Y-124492500D03*
X-142367500Y-124492500D03*
%TD*%
D16*
%TO.C,H608*%
X-103450000Y-143600000D03*
%TD*%
D13*
%TO.C,R202*%
X-173017500Y-113662500D03*
X-173017500Y-103502500D03*
%TD*%
%TO.C,F101*%
X-190572500Y-59447500D03*
X-185492500Y-59457500D03*
%TD*%
D18*
%TO.C,C101*%
X-182232500Y-75147500D03*
D13*
X-187232500Y-75147500D03*
%TD*%
%TO.C,R101*%
X-198112500Y-83247500D03*
X-187952500Y-83247500D03*
%TD*%
%TO.C,R301*%
X-107092500Y-65867500D03*
X-107092500Y-55707500D03*
%TD*%
D11*
%TO.C,J609*%
X-183892500Y-50087500D03*
D12*
X-181352500Y-50087500D03*
X-178812500Y-50087500D03*
X-176272500Y-50087500D03*
X-173732500Y-50087500D03*
X-171192500Y-50087500D03*
X-168652500Y-50087500D03*
X-166112500Y-50087500D03*
X-163572500Y-50087500D03*
X-161032500Y-50087500D03*
X-158492500Y-50087500D03*
X-155952500Y-50087500D03*
X-153412500Y-50087500D03*
X-150872500Y-50087500D03*
X-148332500Y-50087500D03*
X-145792500Y-50087500D03*
%TD*%
M02*
