%TF.GenerationSoftware,KiCad,Pcbnew,(6.0.8)*%
%TF.CreationDate,2023-03-03T00:45:11+05:30*%
%TF.ProjectId,STM32DryerPCB,53544d33-3244-4727-9965-725043422e6b,rev?*%
%TF.SameCoordinates,Original*%
%TF.FileFunction,Drillmap*%
%TF.FilePolarity,Positive*%
%FSLAX45Y45*%
G04 Gerber Fmt 4.5, Leading zero omitted, Abs format (unit mm)*
G04 Created by KiCad (PCBNEW (6.0.8)) date 2023-03-03 00:45:11*
%MOMM*%
%LPD*%
G01*
G04 APERTURE LIST*
%ADD10C,0.100000*%
%ADD11C,0.200000*%
%ADD12C,0.040000*%
%ADD13C,0.076200*%
%ADD14C,0.080000*%
%ADD15C,0.090000*%
%ADD16C,0.110000*%
%ADD17C,0.170000*%
%ADD18C,0.300000*%
G04 APERTURE END LIST*
D10*
X-19990000Y-4710000D02*
X-9990000Y-4710000D01*
X-9990000Y-4710000D02*
X-9990000Y-14710000D01*
X-9990000Y-14710000D02*
X-19990000Y-14710000D01*
X-19990000Y-14710000D02*
X-19990000Y-4710000D01*
D11*
D12*
X-19389250Y-9458750D02*
X-19349250Y-9498750D01*
X-19349250Y-9458750D02*
X-19389250Y-9498750D01*
X-19076000Y-7129000D02*
X-19036000Y-7169000D01*
X-19036000Y-7129000D02*
X-19076000Y-7169000D01*
X-19076000Y-7383000D02*
X-19036000Y-7423000D01*
X-19036000Y-7383000D02*
X-19076000Y-7423000D01*
X-19076000Y-7637000D02*
X-19036000Y-7677000D01*
X-19036000Y-7637000D02*
X-19076000Y-7677000D01*
X-17679000Y-7637000D02*
X-17639000Y-7677000D01*
X-17639000Y-7637000D02*
X-17679000Y-7677000D01*
X-17679000Y-7764000D02*
X-17639000Y-7804000D01*
X-17639000Y-7764000D02*
X-17679000Y-7804000D01*
X-17679000Y-7891000D02*
X-17639000Y-7931000D01*
X-17639000Y-7891000D02*
X-17679000Y-7931000D01*
X-17425000Y-8399000D02*
X-17385000Y-8439000D01*
X-17385000Y-8399000D02*
X-17425000Y-8439000D01*
X-17369250Y-12948750D02*
X-17329250Y-12988750D01*
X-17329250Y-12948750D02*
X-17369250Y-12988750D01*
X-17298000Y-8399000D02*
X-17258000Y-8439000D01*
X-17258000Y-8399000D02*
X-17298000Y-8439000D01*
X-17171000Y-8399000D02*
X-17131000Y-8439000D01*
X-17131000Y-8399000D02*
X-17171000Y-8439000D01*
X-16569250Y-12898750D02*
X-16529250Y-12938750D01*
X-16529250Y-12898750D02*
X-16569250Y-12938750D01*
X-16419250Y-13168750D02*
X-16379250Y-13208750D01*
X-16379250Y-13168750D02*
X-16419250Y-13208750D01*
X-16155000Y-13352000D02*
X-16115000Y-13392000D01*
X-16115000Y-13352000D02*
X-16155000Y-13392000D01*
X-16155000Y-13479000D02*
X-16115000Y-13519000D01*
X-16115000Y-13479000D02*
X-16155000Y-13519000D01*
X-16155000Y-13606000D02*
X-16115000Y-13646000D01*
X-16115000Y-13606000D02*
X-16155000Y-13646000D01*
X-15829250Y-12698750D02*
X-15789250Y-12738750D01*
X-15789250Y-12698750D02*
X-15829250Y-12738750D01*
X-15479250Y-12538750D02*
X-15439250Y-12578750D01*
X-15439250Y-12538750D02*
X-15479250Y-12578750D01*
X-13488000Y-4843000D02*
X-13448000Y-4883000D01*
X-13448000Y-4843000D02*
X-13488000Y-4883000D01*
X-13488000Y-4970000D02*
X-13448000Y-5010000D01*
X-13448000Y-4970000D02*
X-13488000Y-5010000D01*
X-13488000Y-5097000D02*
X-13448000Y-5137000D01*
X-13448000Y-5097000D02*
X-13488000Y-5137000D01*
X-13361000Y-6875000D02*
X-13321000Y-6915000D01*
X-13321000Y-6875000D02*
X-13361000Y-6915000D01*
X-13234000Y-6875000D02*
X-13194000Y-6915000D01*
X-13194000Y-6875000D02*
X-13234000Y-6915000D01*
X-13107000Y-6875000D02*
X-13067000Y-6915000D01*
X-13067000Y-6875000D02*
X-13107000Y-6915000D01*
X-12980000Y-6875000D02*
X-12940000Y-6915000D01*
X-12940000Y-6875000D02*
X-12980000Y-6915000D01*
X-12853000Y-6875000D02*
X-12813000Y-6915000D01*
X-12813000Y-6875000D02*
X-12853000Y-6915000D01*
X-12853000Y-9923000D02*
X-12813000Y-9963000D01*
X-12813000Y-9923000D02*
X-12853000Y-9963000D01*
X-12726000Y-6875000D02*
X-12686000Y-6915000D01*
X-12686000Y-6875000D02*
X-12726000Y-6915000D01*
X-12726000Y-9923000D02*
X-12686000Y-9963000D01*
X-12686000Y-9923000D02*
X-12726000Y-9963000D01*
X-12599000Y-9923000D02*
X-12559000Y-9963000D01*
X-12559000Y-9923000D02*
X-12599000Y-9963000D01*
X-12472000Y-9923000D02*
X-12432000Y-9963000D01*
X-12432000Y-9923000D02*
X-12472000Y-9963000D01*
X-12345000Y-9542000D02*
X-12305000Y-9582000D01*
X-12305000Y-9542000D02*
X-12345000Y-9582000D01*
X-12345000Y-9669000D02*
X-12305000Y-9709000D01*
X-12305000Y-9669000D02*
X-12345000Y-9709000D01*
X-12345000Y-9796000D02*
X-12305000Y-9836000D01*
X-12305000Y-9796000D02*
X-12345000Y-9836000D01*
X-12345000Y-9923000D02*
X-12305000Y-9963000D01*
X-12305000Y-9923000D02*
X-12345000Y-9963000D01*
D13*
X-17387650Y-8126750D02*
G75*
G03*
X-17387650Y-8126750I-38100J0D01*
G01*
X-17387650Y-9650750D02*
G75*
G03*
X-17387650Y-9650750I-38100J0D01*
G01*
X-17133650Y-8126750D02*
G75*
G03*
X-17133650Y-8126750I-38100J0D01*
G01*
X-17133650Y-9650750D02*
G75*
G03*
X-17133650Y-9650750I-38100J0D01*
G01*
X-16879650Y-8126750D02*
G75*
G03*
X-16879650Y-8126750I-38100J0D01*
G01*
X-16879650Y-9650750D02*
G75*
G03*
X-16879650Y-9650750I-38100J0D01*
G01*
X-16625650Y-8126750D02*
G75*
G03*
X-16625650Y-8126750I-38100J0D01*
G01*
X-16625650Y-9650750D02*
G75*
G03*
X-16625650Y-9650750I-38100J0D01*
G01*
X-16371650Y-8126750D02*
G75*
G03*
X-16371650Y-8126750I-38100J0D01*
G01*
X-16371650Y-9650750D02*
G75*
G03*
X-16371650Y-9650750I-38100J0D01*
G01*
X-16117650Y-8126750D02*
G75*
G03*
X-16117650Y-8126750I-38100J0D01*
G01*
X-16117650Y-9650750D02*
G75*
G03*
X-16117650Y-9650750I-38100J0D01*
G01*
X-15863650Y-8126750D02*
G75*
G03*
X-15863650Y-8126750I-38100J0D01*
G01*
X-15863650Y-9650750D02*
G75*
G03*
X-15863650Y-9650750I-38100J0D01*
G01*
X-15609650Y-8126750D02*
G75*
G03*
X-15609650Y-8126750I-38100J0D01*
G01*
X-15609650Y-9650750D02*
G75*
G03*
X-15609650Y-9650750I-38100J0D01*
G01*
X-15355650Y-8126750D02*
G75*
G03*
X-15355650Y-8126750I-38100J0D01*
G01*
X-15355650Y-9650750D02*
G75*
G03*
X-15355650Y-9650750I-38100J0D01*
G01*
X-15101650Y-8126750D02*
G75*
G03*
X-15101650Y-8126750I-38100J0D01*
G01*
X-15101650Y-9650750D02*
G75*
G03*
X-15101650Y-9650750I-38100J0D01*
G01*
X-14847650Y-8126750D02*
G75*
G03*
X-14847650Y-8126750I-38100J0D01*
G01*
X-14847650Y-9650750D02*
G75*
G03*
X-14847650Y-9650750I-38100J0D01*
G01*
X-14593650Y-8126750D02*
G75*
G03*
X-14593650Y-8126750I-38100J0D01*
G01*
X-14593650Y-9650750D02*
G75*
G03*
X-14593650Y-9650750I-38100J0D01*
G01*
X-14339650Y-8126750D02*
G75*
G03*
X-14339650Y-8126750I-38100J0D01*
G01*
X-14339650Y-9650750D02*
G75*
G03*
X-14339650Y-9650750I-38100J0D01*
G01*
X-14085650Y-8126750D02*
G75*
G03*
X-14085650Y-8126750I-38100J0D01*
G01*
X-14085650Y-9650750D02*
G75*
G03*
X-14085650Y-9650750I-38100J0D01*
G01*
X-13831650Y-8126750D02*
G75*
G03*
X-13831650Y-8126750I-38100J0D01*
G01*
X-13831650Y-9650750D02*
G75*
G03*
X-13831650Y-9650750I-38100J0D01*
G01*
X-13577650Y-8126750D02*
G75*
G03*
X-13577650Y-8126750I-38100J0D01*
G01*
X-13577650Y-9650750D02*
G75*
G03*
X-13577650Y-9650750I-38100J0D01*
G01*
X-13323650Y-8126750D02*
G75*
G03*
X-13323650Y-8126750I-38100J0D01*
G01*
X-13323650Y-9650750D02*
G75*
G03*
X-13323650Y-9650750I-38100J0D01*
G01*
X-13069650Y-8126750D02*
G75*
G03*
X-13069650Y-8126750I-38100J0D01*
G01*
X-13069650Y-9650750D02*
G75*
G03*
X-13069650Y-9650750I-38100J0D01*
G01*
X-12815650Y-8126750D02*
G75*
G03*
X-12815650Y-8126750I-38100J0D01*
G01*
X-12815650Y-9650750D02*
G75*
G03*
X-12815650Y-9650750I-38100J0D01*
G01*
X-12561650Y-8126750D02*
G75*
G03*
X-12561650Y-8126750I-38100J0D01*
G01*
X-12561650Y-9650750D02*
G75*
G03*
X-12561650Y-9650750I-38100J0D01*
G01*
D14*
X-19811750Y-5536250D02*
X-19811750Y-5616250D01*
X-19851750Y-5576250D02*
X-19771750Y-5576250D01*
X-19811750Y-6044250D02*
X-19811750Y-6124250D01*
X-19851750Y-6084250D02*
X-19771750Y-6084250D01*
X-19557750Y-5790250D02*
X-19557750Y-5870250D01*
X-19597750Y-5830250D02*
X-19517750Y-5830250D01*
X-17915750Y-12566250D02*
X-17915750Y-12646250D01*
X-17955750Y-12606250D02*
X-17875750Y-12606250D01*
X-17915750Y-13328250D02*
X-17915750Y-13408250D01*
X-17955750Y-13368250D02*
X-17875750Y-13368250D01*
X-17889250Y-10516750D02*
X-17889250Y-10596750D01*
X-17929250Y-10556750D02*
X-17849250Y-10556750D01*
X-17889250Y-11278750D02*
X-17889250Y-11358750D01*
X-17929250Y-11318750D02*
X-17849250Y-11318750D01*
X-17661750Y-12566250D02*
X-17661750Y-12646250D01*
X-17701750Y-12606250D02*
X-17621750Y-12606250D01*
X-17661750Y-13328250D02*
X-17661750Y-13408250D01*
X-17701750Y-13368250D02*
X-17621750Y-13368250D01*
X-17635250Y-10516750D02*
X-17635250Y-10596750D01*
X-17675250Y-10556750D02*
X-17595250Y-10556750D01*
X-17635250Y-11278750D02*
X-17635250Y-11358750D01*
X-17675250Y-11318750D02*
X-17595250Y-11318750D01*
X-17429250Y-7678750D02*
X-17429250Y-7758750D01*
X-17469250Y-7718750D02*
X-17389250Y-7718750D01*
X-16965750Y-12566250D02*
X-16965750Y-12646250D01*
X-17005750Y-12606250D02*
X-16925750Y-12606250D01*
X-16965750Y-13328250D02*
X-16965750Y-13408250D01*
X-17005750Y-13368250D02*
X-16925750Y-13368250D01*
X-16959250Y-10536750D02*
X-16959250Y-10616750D01*
X-16999250Y-10576750D02*
X-16919250Y-10576750D01*
X-16959250Y-11298750D02*
X-16959250Y-11378750D01*
X-16999250Y-11338750D02*
X-16919250Y-11338750D01*
X-16929250Y-7678750D02*
X-16929250Y-7758750D01*
X-16969250Y-7718750D02*
X-16889250Y-7718750D01*
X-16711750Y-12566250D02*
X-16711750Y-12646250D01*
X-16751750Y-12606250D02*
X-16671750Y-12606250D01*
X-16711750Y-13328250D02*
X-16711750Y-13408250D01*
X-16751750Y-13368250D02*
X-16671750Y-13368250D01*
X-16705250Y-10536750D02*
X-16705250Y-10616750D01*
X-16745250Y-10576750D02*
X-16665250Y-10576750D01*
X-16705250Y-11298750D02*
X-16705250Y-11378750D01*
X-16745250Y-11338750D02*
X-16665250Y-11338750D01*
X-15319250Y-12888750D02*
X-15319250Y-12968750D01*
X-15359250Y-12928750D02*
X-15279250Y-12928750D01*
X-15319250Y-13388750D02*
X-15319250Y-13468750D01*
X-15359250Y-13428750D02*
X-15279250Y-13428750D01*
X-14236750Y-12409250D02*
X-14236750Y-12489250D01*
X-14276750Y-12449250D02*
X-14196750Y-12449250D01*
X-14236750Y-13171250D02*
X-14236750Y-13251250D01*
X-14276750Y-13211250D02*
X-14196750Y-13211250D01*
X-13982750Y-12409250D02*
X-13982750Y-12489250D01*
X-14022750Y-12449250D02*
X-13942750Y-12449250D01*
X-13982750Y-13171250D02*
X-13982750Y-13251250D01*
X-14022750Y-13211250D02*
X-13942750Y-13211250D01*
X-13476750Y-5579250D02*
X-13476750Y-5659250D01*
X-13516750Y-5619250D02*
X-13436750Y-5619250D01*
X-13476750Y-6341250D02*
X-13476750Y-6421250D01*
X-13516750Y-6381250D02*
X-13436750Y-6381250D01*
X-13279250Y-12416750D02*
X-13279250Y-12496750D01*
X-13319250Y-12456750D02*
X-13239250Y-12456750D01*
X-13279250Y-13178750D02*
X-13279250Y-13258750D01*
X-13319250Y-13218750D02*
X-13239250Y-13218750D01*
X-13222750Y-5579250D02*
X-13222750Y-5659250D01*
X-13262750Y-5619250D02*
X-13182750Y-5619250D01*
X-13222750Y-6341250D02*
X-13222750Y-6421250D01*
X-13262750Y-6381250D02*
X-13182750Y-6381250D01*
X-13025250Y-12416750D02*
X-13025250Y-12496750D01*
X-13065250Y-12456750D02*
X-12985250Y-12456750D01*
X-13025250Y-13178750D02*
X-13025250Y-13258750D01*
X-13065250Y-13218750D02*
X-12985250Y-13218750D01*
X-12866750Y-5579250D02*
X-12866750Y-5659250D01*
X-12906750Y-5619250D02*
X-12826750Y-5619250D01*
X-12866750Y-6341250D02*
X-12866750Y-6421250D01*
X-12906750Y-6381250D02*
X-12826750Y-6381250D01*
X-12612750Y-5579250D02*
X-12612750Y-5659250D01*
X-12652750Y-5619250D02*
X-12572750Y-5619250D01*
X-12612750Y-6341250D02*
X-12612750Y-6421250D01*
X-12652750Y-6381250D02*
X-12572750Y-6381250D01*
X-12329250Y-12426750D02*
X-12329250Y-12506750D01*
X-12369250Y-12466750D02*
X-12289250Y-12466750D01*
X-12329250Y-13188750D02*
X-12329250Y-13268750D01*
X-12369250Y-13228750D02*
X-12289250Y-13228750D01*
X-12256750Y-5579250D02*
X-12256750Y-5659250D01*
X-12296750Y-5619250D02*
X-12216750Y-5619250D01*
X-12256750Y-6341250D02*
X-12256750Y-6421250D01*
X-12296750Y-6381250D02*
X-12216750Y-6381250D01*
X-12075250Y-12426750D02*
X-12075250Y-12506750D01*
X-12115250Y-12466750D02*
X-12035250Y-12466750D01*
X-12075250Y-13188750D02*
X-12075250Y-13268750D01*
X-12115250Y-13228750D02*
X-12035250Y-13228750D01*
X-12002750Y-5579250D02*
X-12002750Y-5659250D01*
X-12042750Y-5619250D02*
X-11962750Y-5619250D01*
X-12002750Y-6341250D02*
X-12002750Y-6421250D01*
X-12042750Y-6381250D02*
X-11962750Y-6381250D01*
X-11636750Y-5579250D02*
X-11636750Y-5659250D01*
X-11676750Y-5619250D02*
X-11596750Y-5619250D01*
X-11636750Y-6341250D02*
X-11636750Y-6421250D01*
X-11676750Y-6381250D02*
X-11596750Y-6381250D01*
X-11399250Y-12446750D02*
X-11399250Y-12526750D01*
X-11439250Y-12486750D02*
X-11359250Y-12486750D01*
X-11399250Y-13208750D02*
X-11399250Y-13288750D01*
X-11439250Y-13248750D02*
X-11359250Y-13248750D01*
X-11382750Y-5579250D02*
X-11382750Y-5659250D01*
X-11422750Y-5619250D02*
X-11342750Y-5619250D01*
X-11382750Y-6341250D02*
X-11382750Y-6421250D01*
X-11422750Y-6381250D02*
X-11342750Y-6381250D01*
X-11145250Y-12446750D02*
X-11145250Y-12526750D01*
X-11185250Y-12486750D02*
X-11105250Y-12486750D01*
X-11145250Y-13208750D02*
X-11145250Y-13288750D01*
X-11185250Y-13248750D02*
X-11105250Y-13248750D01*
D15*
X-19779430Y-8356570D02*
X-19779430Y-8292930D01*
X-19843070Y-8292930D01*
X-19843070Y-8356570D01*
X-19779430Y-8356570D01*
X-19661430Y-7809070D02*
X-19661430Y-7745430D01*
X-19725070Y-7745430D01*
X-19725070Y-7809070D01*
X-19661430Y-7809070D01*
X-19661430Y-8063070D02*
X-19661430Y-7999430D01*
X-19725070Y-7999430D01*
X-19725070Y-8063070D01*
X-19661430Y-8063070D01*
X-18763430Y-8356570D02*
X-18763430Y-8292930D01*
X-18827070Y-8292930D01*
X-18827070Y-8356570D01*
X-18763430Y-8356570D01*
X-18737430Y-11390570D02*
X-18737430Y-11326930D01*
X-18801070Y-11326930D01*
X-18801070Y-11390570D01*
X-18737430Y-11390570D01*
X-18737430Y-11644570D02*
X-18737430Y-11580930D01*
X-18801070Y-11580930D01*
X-18801070Y-11644570D01*
X-18737430Y-11644570D01*
X-18737430Y-11898570D02*
X-18737430Y-11834930D01*
X-18801070Y-11834930D01*
X-18801070Y-11898570D01*
X-18737430Y-11898570D01*
X-18737430Y-12152570D02*
X-18737430Y-12088930D01*
X-18801070Y-12088930D01*
X-18801070Y-12152570D01*
X-18737430Y-12152570D01*
X-18737430Y-12406570D02*
X-18737430Y-12342930D01*
X-18801070Y-12342930D01*
X-18801070Y-12406570D01*
X-18737430Y-12406570D01*
X-18227430Y-12432570D02*
X-18227430Y-12368930D01*
X-18291070Y-12368930D01*
X-18291070Y-12432570D01*
X-18227430Y-12432570D01*
X-18227430Y-13448570D02*
X-18227430Y-13384930D01*
X-18291070Y-13384930D01*
X-18291070Y-13448570D01*
X-18227430Y-13448570D01*
X-18219930Y-10380070D02*
X-18219930Y-10316430D01*
X-18283570Y-10316430D01*
X-18283570Y-10380070D01*
X-18219930Y-10380070D01*
X-18219930Y-11396070D02*
X-18219930Y-11332430D01*
X-18283570Y-11332430D01*
X-18283570Y-11396070D01*
X-18219930Y-11396070D01*
X-17277430Y-12440570D02*
X-17277430Y-12376930D01*
X-17341070Y-12376930D01*
X-17341070Y-12440570D01*
X-17277430Y-12440570D01*
X-17277430Y-13456570D02*
X-17277430Y-13392930D01*
X-17341070Y-13392930D01*
X-17341070Y-13456570D01*
X-17277430Y-13456570D01*
X-17269930Y-10382070D02*
X-17269930Y-10318430D01*
X-17333570Y-10318430D01*
X-17333570Y-10382070D01*
X-17269930Y-10382070D01*
X-17269930Y-11398070D02*
X-17269930Y-11334430D01*
X-17333570Y-11334430D01*
X-17333570Y-11398070D01*
X-17269930Y-11398070D01*
X-14567430Y-12274570D02*
X-14567430Y-12210930D01*
X-14631070Y-12210930D01*
X-14631070Y-12274570D01*
X-14567430Y-12274570D01*
X-14567430Y-13290570D02*
X-14567430Y-13226930D01*
X-14631070Y-13226930D01*
X-14631070Y-13290570D01*
X-14567430Y-13290570D01*
X-14157430Y-5582570D02*
X-14157430Y-5518930D01*
X-14221070Y-5518930D01*
X-14221070Y-5582570D01*
X-14157430Y-5582570D01*
X-14157430Y-6598570D02*
X-14157430Y-6534930D01*
X-14221070Y-6534930D01*
X-14221070Y-6598570D01*
X-14157430Y-6598570D01*
X-13817430Y-5582570D02*
X-13817430Y-5518930D01*
X-13881070Y-5518930D01*
X-13881070Y-5582570D01*
X-13817430Y-5582570D01*
X-13817430Y-6598570D02*
X-13817430Y-6534930D01*
X-13881070Y-6534930D01*
X-13881070Y-6598570D01*
X-13817430Y-6598570D01*
X-13803430Y-13810570D02*
X-13803430Y-13746930D01*
X-13867070Y-13746930D01*
X-13867070Y-13810570D01*
X-13803430Y-13810570D01*
X-13599930Y-12282070D02*
X-13599930Y-12218430D01*
X-13663570Y-12218430D01*
X-13663570Y-12282070D01*
X-13599930Y-12282070D01*
X-13599930Y-13298070D02*
X-13599930Y-13234430D01*
X-13663570Y-13234430D01*
X-13663570Y-13298070D01*
X-13599930Y-13298070D01*
X-13549430Y-13810570D02*
X-13549430Y-13746930D01*
X-13613070Y-13746930D01*
X-13613070Y-13810570D01*
X-13549430Y-13810570D01*
X-13295430Y-13810570D02*
X-13295430Y-13746930D01*
X-13359070Y-13746930D01*
X-13359070Y-13810570D01*
X-13295430Y-13810570D01*
X-13041430Y-13810570D02*
X-13041430Y-13746930D01*
X-13105070Y-13746930D01*
X-13105070Y-13810570D01*
X-13041430Y-13810570D01*
X-12787430Y-13810570D02*
X-12787430Y-13746930D01*
X-12851070Y-13746930D01*
X-12851070Y-13810570D01*
X-12787430Y-13810570D01*
X-12649930Y-12272070D02*
X-12649930Y-12208430D01*
X-12713570Y-12208430D01*
X-12713570Y-12272070D01*
X-12649930Y-12272070D01*
X-12649930Y-13288070D02*
X-12649930Y-13224430D01*
X-12713570Y-13224430D01*
X-12713570Y-13288070D01*
X-12649930Y-13288070D01*
X-11709930Y-12300070D02*
X-11709930Y-12236430D01*
X-11773570Y-12236430D01*
X-11773570Y-12300070D01*
X-11709930Y-12300070D01*
X-11709930Y-13316070D02*
X-11709930Y-13252430D01*
X-11773570Y-13252430D01*
X-11773570Y-13316070D01*
X-11709930Y-13316070D01*
X-11007430Y-5602570D02*
X-11007430Y-5538930D01*
X-11071070Y-5538930D01*
X-11071070Y-5602570D01*
X-11007430Y-5602570D01*
X-11007430Y-6618570D02*
X-11007430Y-6554930D01*
X-11071070Y-6554930D01*
X-11071070Y-6618570D01*
X-11007430Y-6618570D01*
X-10677430Y-5602570D02*
X-10677430Y-5538930D01*
X-10741070Y-5538930D01*
X-10741070Y-5602570D01*
X-10677430Y-5602570D01*
X-10677430Y-6618570D02*
X-10677430Y-6554930D01*
X-10741070Y-6554930D01*
X-10741070Y-6618570D01*
X-10677430Y-6618570D01*
D10*
X-19729250Y-8848750D02*
X-19679250Y-8798750D01*
X-19729250Y-8748750D01*
X-19779250Y-8798750D01*
X-19729250Y-8848750D01*
X-19729250Y-9102750D02*
X-19679250Y-9052750D01*
X-19729250Y-9002750D01*
X-19779250Y-9052750D01*
X-19729250Y-9102750D01*
X-19729250Y-9356750D02*
X-19679250Y-9306750D01*
X-19729250Y-9256750D01*
X-19779250Y-9306750D01*
X-19729250Y-9356750D01*
X-19729250Y-9610750D02*
X-19679250Y-9560750D01*
X-19729250Y-9510750D01*
X-19779250Y-9560750D01*
X-19729250Y-9610750D01*
X-19057250Y-5994750D02*
X-19007250Y-5944750D01*
X-19057250Y-5894750D01*
X-19107250Y-5944750D01*
X-19057250Y-5994750D01*
X-18723250Y-7564750D02*
X-18673250Y-7514750D01*
X-18723250Y-7464750D01*
X-18773250Y-7514750D01*
X-18723250Y-7564750D01*
X-18549250Y-5995750D02*
X-18499250Y-5945750D01*
X-18549250Y-5895750D01*
X-18599250Y-5945750D01*
X-18549250Y-5995750D01*
X-18409250Y-9098750D02*
X-18359250Y-9048750D01*
X-18409250Y-8998750D01*
X-18459250Y-9048750D01*
X-18409250Y-9098750D01*
X-18409250Y-9858750D02*
X-18359250Y-9808750D01*
X-18409250Y-9758750D01*
X-18459250Y-9808750D01*
X-18409250Y-9858750D01*
X-18389250Y-5058750D02*
X-18339250Y-5008750D01*
X-18389250Y-4958750D01*
X-18439250Y-5008750D01*
X-18389250Y-5058750D01*
X-18223250Y-7564750D02*
X-18173250Y-7514750D01*
X-18223250Y-7464750D01*
X-18273250Y-7514750D01*
X-18223250Y-7564750D01*
X-18135250Y-5058750D02*
X-18085250Y-5008750D01*
X-18135250Y-4958750D01*
X-18185250Y-5008750D01*
X-18135250Y-5058750D01*
X-17881250Y-5058750D02*
X-17831250Y-5008750D01*
X-17881250Y-4958750D01*
X-17931250Y-5008750D01*
X-17881250Y-5058750D01*
X-17627250Y-5058750D02*
X-17577250Y-5008750D01*
X-17627250Y-4958750D01*
X-17677250Y-5008750D01*
X-17627250Y-5058750D01*
X-17373250Y-5058750D02*
X-17323250Y-5008750D01*
X-17373250Y-4958750D01*
X-17423250Y-5008750D01*
X-17373250Y-5058750D01*
X-17119250Y-5058750D02*
X-17069250Y-5008750D01*
X-17119250Y-4958750D01*
X-17169250Y-5008750D01*
X-17119250Y-5058750D01*
X-16865250Y-5058750D02*
X-16815250Y-5008750D01*
X-16865250Y-4958750D01*
X-16915250Y-5008750D01*
X-16865250Y-5058750D01*
X-16611250Y-5058750D02*
X-16561250Y-5008750D01*
X-16611250Y-4958750D01*
X-16661250Y-5008750D01*
X-16611250Y-5058750D01*
X-16357250Y-5058750D02*
X-16307250Y-5008750D01*
X-16357250Y-4958750D01*
X-16407250Y-5008750D01*
X-16357250Y-5058750D01*
X-16103250Y-5058750D02*
X-16053250Y-5008750D01*
X-16103250Y-4958750D01*
X-16153250Y-5008750D01*
X-16103250Y-5058750D01*
X-15849250Y-5058750D02*
X-15799250Y-5008750D01*
X-15849250Y-4958750D01*
X-15899250Y-5008750D01*
X-15849250Y-5058750D01*
X-15595250Y-5058750D02*
X-15545250Y-5008750D01*
X-15595250Y-4958750D01*
X-15645250Y-5008750D01*
X-15595250Y-5058750D01*
X-15341250Y-5058750D02*
X-15291250Y-5008750D01*
X-15341250Y-4958750D01*
X-15391250Y-5008750D01*
X-15341250Y-5058750D01*
X-15087250Y-5058750D02*
X-15037250Y-5008750D01*
X-15087250Y-4958750D01*
X-15137250Y-5008750D01*
X-15087250Y-5058750D01*
X-14833250Y-5058750D02*
X-14783250Y-5008750D01*
X-14833250Y-4958750D01*
X-14883250Y-5008750D01*
X-14833250Y-5058750D01*
X-14579250Y-5058750D02*
X-14529250Y-5008750D01*
X-14579250Y-4958750D01*
X-14629250Y-5008750D01*
X-14579250Y-5058750D01*
X-13953250Y-5068750D02*
X-13903250Y-5018750D01*
X-13953250Y-4968750D01*
X-14003250Y-5018750D01*
X-13953250Y-5068750D01*
X-13945250Y-14468750D02*
X-13895250Y-14418750D01*
X-13945250Y-14368750D01*
X-13995250Y-14418750D01*
X-13945250Y-14468750D01*
X-13699250Y-5068750D02*
X-13649250Y-5018750D01*
X-13699250Y-4968750D01*
X-13749250Y-5018750D01*
X-13699250Y-5068750D01*
X-13691250Y-14468750D02*
X-13641250Y-14418750D01*
X-13691250Y-14368750D01*
X-13741250Y-14418750D01*
X-13691250Y-14468750D01*
X-13437250Y-14468750D02*
X-13387250Y-14418750D01*
X-13437250Y-14368750D01*
X-13487250Y-14418750D01*
X-13437250Y-14468750D01*
X-13199250Y-5068750D02*
X-13149250Y-5018750D01*
X-13199250Y-4968750D01*
X-13249250Y-5018750D01*
X-13199250Y-5068750D01*
X-13183250Y-14468750D02*
X-13133250Y-14418750D01*
X-13183250Y-14368750D01*
X-13233250Y-14418750D01*
X-13183250Y-14468750D01*
X-12945250Y-5068750D02*
X-12895250Y-5018750D01*
X-12945250Y-4968750D01*
X-12995250Y-5018750D01*
X-12945250Y-5068750D01*
X-12929250Y-14468750D02*
X-12879250Y-14418750D01*
X-12929250Y-14368750D01*
X-12979250Y-14418750D01*
X-12929250Y-14468750D01*
X-12691250Y-5068750D02*
X-12641250Y-5018750D01*
X-12691250Y-4968750D01*
X-12741250Y-5018750D01*
X-12691250Y-5068750D01*
X-12437250Y-5068750D02*
X-12387250Y-5018750D01*
X-12437250Y-4968750D01*
X-12487250Y-5018750D01*
X-12437250Y-5068750D01*
D16*
X-18989250Y-6429750D02*
X-18879250Y-6539750D01*
X-18879250Y-6429750D02*
X-18989250Y-6539750D01*
X-18879250Y-6484750D02*
G75*
G03*
X-18879250Y-6484750I-55000J0D01*
G01*
X-18989250Y-6789750D02*
X-18879250Y-6899750D01*
X-18879250Y-6789750D02*
X-18989250Y-6899750D01*
X-18879250Y-6844750D02*
G75*
G03*
X-18879250Y-6844750I-55000J0D01*
G01*
X-18227250Y-6429750D02*
X-18117250Y-6539750D01*
X-18117250Y-6429750D02*
X-18227250Y-6539750D01*
X-18117250Y-6484750D02*
G75*
G03*
X-18117250Y-6484750I-55000J0D01*
G01*
X-18227250Y-6789750D02*
X-18117250Y-6899750D01*
X-18117250Y-6789750D02*
X-18227250Y-6899750D01*
X-18117250Y-6844750D02*
G75*
G03*
X-18117250Y-6844750I-55000J0D01*
G01*
D17*
X-19692500Y-6587500D02*
X-19522500Y-6757500D01*
X-19522500Y-6587500D02*
X-19692500Y-6757500D01*
X-19607500Y-6587500D02*
X-19607500Y-6757500D01*
X-19692500Y-6672500D02*
X-19522500Y-6672500D01*
X-19692500Y-7095500D02*
X-19522500Y-7265500D01*
X-19522500Y-7095500D02*
X-19692500Y-7265500D01*
X-19607500Y-7095500D02*
X-19607500Y-7265500D01*
X-19692500Y-7180500D02*
X-19522500Y-7180500D01*
X-19684250Y-10023750D02*
X-19514250Y-10193750D01*
X-19514250Y-10023750D02*
X-19684250Y-10193750D01*
X-19599250Y-10023750D02*
X-19599250Y-10193750D01*
X-19684250Y-10108750D02*
X-19514250Y-10108750D01*
X-19684250Y-10531750D02*
X-19514250Y-10701750D01*
X-19514250Y-10531750D02*
X-19684250Y-10701750D01*
X-19599250Y-10531750D02*
X-19599250Y-10701750D01*
X-19684250Y-10616750D02*
X-19514250Y-10616750D01*
X-19684250Y-11039750D02*
X-19514250Y-11209750D01*
X-19514250Y-11039750D02*
X-19684250Y-11209750D01*
X-19599250Y-11039750D02*
X-19599250Y-11209750D01*
X-19684250Y-11124750D02*
X-19514250Y-11124750D01*
X-19684250Y-11547750D02*
X-19514250Y-11717750D01*
X-19514250Y-11547750D02*
X-19684250Y-11717750D01*
X-19599250Y-11547750D02*
X-19599250Y-11717750D01*
X-19684250Y-11632750D02*
X-19514250Y-11632750D01*
X-19684250Y-12055750D02*
X-19514250Y-12225750D01*
X-19514250Y-12055750D02*
X-19684250Y-12225750D01*
X-19599250Y-12055750D02*
X-19599250Y-12225750D01*
X-19684250Y-12140750D02*
X-19514250Y-12140750D01*
X-19684250Y-12563750D02*
X-19514250Y-12733750D01*
X-19514250Y-12563750D02*
X-19684250Y-12733750D01*
X-19599250Y-12563750D02*
X-19599250Y-12733750D01*
X-19684250Y-12648750D02*
X-19514250Y-12648750D01*
X-19684250Y-13071750D02*
X-19514250Y-13241750D01*
X-19514250Y-13071750D02*
X-19684250Y-13241750D01*
X-19599250Y-13071750D02*
X-19599250Y-13241750D01*
X-19684250Y-13156750D02*
X-19514250Y-13156750D01*
X-19684250Y-13579750D02*
X-19514250Y-13749750D01*
X-19514250Y-13579750D02*
X-19684250Y-13749750D01*
X-19599250Y-13579750D02*
X-19599250Y-13749750D01*
X-19684250Y-13664750D02*
X-19514250Y-13664750D01*
X-16100000Y-14119500D02*
X-15930000Y-14289500D01*
X-15930000Y-14119500D02*
X-16100000Y-14289500D01*
X-16015000Y-14119500D02*
X-16015000Y-14289500D01*
X-16100000Y-14204500D02*
X-15930000Y-14204500D01*
X-15592000Y-14119500D02*
X-15422000Y-14289500D01*
X-15422000Y-14119500D02*
X-15592000Y-14289500D01*
X-15507000Y-14119500D02*
X-15507000Y-14289500D01*
X-15592000Y-14204500D02*
X-15422000Y-14204500D01*
D18*
X-19789250Y-14210000D02*
X-19489250Y-14510000D01*
X-19489250Y-14210000D02*
X-19789250Y-14510000D01*
X-19533183Y-14466067D02*
X-19533183Y-14253933D01*
X-19745317Y-14253933D01*
X-19745317Y-14466067D01*
X-19533183Y-14466067D01*
X-19780000Y-4910000D02*
X-19480000Y-5210000D01*
X-19480000Y-4910000D02*
X-19780000Y-5210000D01*
X-19523933Y-5166067D02*
X-19523933Y-4953933D01*
X-19736067Y-4953933D01*
X-19736067Y-5166067D01*
X-19523933Y-5166067D01*
X-10509250Y-4910000D02*
X-10209250Y-5210000D01*
X-10209250Y-4910000D02*
X-10509250Y-5210000D01*
X-10253183Y-5166067D02*
X-10253183Y-4953933D01*
X-10465317Y-4953933D01*
X-10465317Y-5166067D01*
X-10253183Y-5166067D01*
X-10495000Y-14210000D02*
X-10195000Y-14510000D01*
X-10195000Y-14210000D02*
X-10495000Y-14510000D01*
X-10238933Y-14466067D02*
X-10238933Y-14253933D01*
X-10451067Y-14253933D01*
X-10451067Y-14466067D01*
X-10238933Y-14466067D01*
D11*
X-19737381Y-15025476D02*
X-19737381Y-14825476D01*
X-19689762Y-14825476D01*
X-19661190Y-14835000D01*
X-19642143Y-14854048D01*
X-19632619Y-14873095D01*
X-19623095Y-14911190D01*
X-19623095Y-14939762D01*
X-19632619Y-14977857D01*
X-19642143Y-14996905D01*
X-19661190Y-15015952D01*
X-19689762Y-15025476D01*
X-19737381Y-15025476D01*
X-19537381Y-15025476D02*
X-19537381Y-14892143D01*
X-19537381Y-14930238D02*
X-19527857Y-14911190D01*
X-19518333Y-14901667D01*
X-19499286Y-14892143D01*
X-19480238Y-14892143D01*
X-19413571Y-15025476D02*
X-19413571Y-14892143D01*
X-19413571Y-14825476D02*
X-19423095Y-14835000D01*
X-19413571Y-14844524D01*
X-19404048Y-14835000D01*
X-19413571Y-14825476D01*
X-19413571Y-14844524D01*
X-19289762Y-15025476D02*
X-19308810Y-15015952D01*
X-19318333Y-14996905D01*
X-19318333Y-14825476D01*
X-19185000Y-15025476D02*
X-19204048Y-15015952D01*
X-19213571Y-14996905D01*
X-19213571Y-14825476D01*
X-18956429Y-15025476D02*
X-18956429Y-14825476D01*
X-18889762Y-14968333D01*
X-18823095Y-14825476D01*
X-18823095Y-15025476D01*
X-18642143Y-15025476D02*
X-18642143Y-14920714D01*
X-18651667Y-14901667D01*
X-18670714Y-14892143D01*
X-18708810Y-14892143D01*
X-18727857Y-14901667D01*
X-18642143Y-15015952D02*
X-18661190Y-15025476D01*
X-18708810Y-15025476D01*
X-18727857Y-15015952D01*
X-18737381Y-14996905D01*
X-18737381Y-14977857D01*
X-18727857Y-14958809D01*
X-18708810Y-14949286D01*
X-18661190Y-14949286D01*
X-18642143Y-14939762D01*
X-18546905Y-14892143D02*
X-18546905Y-15092143D01*
X-18546905Y-14901667D02*
X-18527857Y-14892143D01*
X-18489762Y-14892143D01*
X-18470714Y-14901667D01*
X-18461190Y-14911190D01*
X-18451667Y-14930238D01*
X-18451667Y-14987381D01*
X-18461190Y-15006428D01*
X-18470714Y-15015952D01*
X-18489762Y-15025476D01*
X-18527857Y-15025476D01*
X-18546905Y-15015952D01*
X-18365952Y-15006428D02*
X-18356429Y-15015952D01*
X-18365952Y-15025476D01*
X-18375476Y-15015952D01*
X-18365952Y-15006428D01*
X-18365952Y-15025476D01*
X-18365952Y-14901667D02*
X-18356429Y-14911190D01*
X-18365952Y-14920714D01*
X-18375476Y-14911190D01*
X-18365952Y-14901667D01*
X-18365952Y-14920714D01*
D12*
X-20035000Y-15335000D02*
X-19995000Y-15375000D01*
X-19995000Y-15335000D02*
X-20035000Y-15375000D01*
D11*
X-19699286Y-15245476D02*
X-19680238Y-15245476D01*
X-19661190Y-15255000D01*
X-19651667Y-15264524D01*
X-19642143Y-15283571D01*
X-19632619Y-15321667D01*
X-19632619Y-15369286D01*
X-19642143Y-15407381D01*
X-19651667Y-15426428D01*
X-19661190Y-15435952D01*
X-19680238Y-15445476D01*
X-19699286Y-15445476D01*
X-19718333Y-15435952D01*
X-19727857Y-15426428D01*
X-19737381Y-15407381D01*
X-19746905Y-15369286D01*
X-19746905Y-15321667D01*
X-19737381Y-15283571D01*
X-19727857Y-15264524D01*
X-19718333Y-15255000D01*
X-19699286Y-15245476D01*
X-19546905Y-15426428D02*
X-19537381Y-15435952D01*
X-19546905Y-15445476D01*
X-19556429Y-15435952D01*
X-19546905Y-15426428D01*
X-19546905Y-15445476D01*
X-19365952Y-15312143D02*
X-19365952Y-15445476D01*
X-19413571Y-15235952D02*
X-19461190Y-15378809D01*
X-19337381Y-15378809D01*
X-19223095Y-15245476D02*
X-19204048Y-15245476D01*
X-19185000Y-15255000D01*
X-19175476Y-15264524D01*
X-19165952Y-15283571D01*
X-19156429Y-15321667D01*
X-19156429Y-15369286D01*
X-19165952Y-15407381D01*
X-19175476Y-15426428D01*
X-19185000Y-15435952D01*
X-19204048Y-15445476D01*
X-19223095Y-15445476D01*
X-19242143Y-15435952D01*
X-19251667Y-15426428D01*
X-19261190Y-15407381D01*
X-19270714Y-15369286D01*
X-19270714Y-15321667D01*
X-19261190Y-15283571D01*
X-19251667Y-15264524D01*
X-19242143Y-15255000D01*
X-19223095Y-15245476D01*
X-19032619Y-15245476D02*
X-19013571Y-15245476D01*
X-18994524Y-15255000D01*
X-18985000Y-15264524D01*
X-18975476Y-15283571D01*
X-18965952Y-15321667D01*
X-18965952Y-15369286D01*
X-18975476Y-15407381D01*
X-18985000Y-15426428D01*
X-18994524Y-15435952D01*
X-19013571Y-15445476D01*
X-19032619Y-15445476D01*
X-19051667Y-15435952D01*
X-19061190Y-15426428D01*
X-19070714Y-15407381D01*
X-19080238Y-15369286D01*
X-19080238Y-15321667D01*
X-19070714Y-15283571D01*
X-19061190Y-15264524D01*
X-19051667Y-15255000D01*
X-19032619Y-15245476D01*
X-18880238Y-15445476D02*
X-18880238Y-15312143D01*
X-18880238Y-15331190D02*
X-18870714Y-15321667D01*
X-18851667Y-15312143D01*
X-18823095Y-15312143D01*
X-18804048Y-15321667D01*
X-18794524Y-15340714D01*
X-18794524Y-15445476D01*
X-18794524Y-15340714D02*
X-18785000Y-15321667D01*
X-18765952Y-15312143D01*
X-18737381Y-15312143D01*
X-18718333Y-15321667D01*
X-18708810Y-15340714D01*
X-18708810Y-15445476D01*
X-18613571Y-15445476D02*
X-18613571Y-15312143D01*
X-18613571Y-15331190D02*
X-18604048Y-15321667D01*
X-18585000Y-15312143D01*
X-18556429Y-15312143D01*
X-18537381Y-15321667D01*
X-18527857Y-15340714D01*
X-18527857Y-15445476D01*
X-18527857Y-15340714D02*
X-18518333Y-15321667D01*
X-18499286Y-15312143D01*
X-18470714Y-15312143D01*
X-18451667Y-15321667D01*
X-18442143Y-15340714D01*
X-18442143Y-15445476D01*
X-18051667Y-15235952D02*
X-18223095Y-15493095D01*
X-17794524Y-15245476D02*
X-17775476Y-15245476D01*
X-17756429Y-15255000D01*
X-17746905Y-15264524D01*
X-17737381Y-15283571D01*
X-17727857Y-15321667D01*
X-17727857Y-15369286D01*
X-17737381Y-15407381D01*
X-17746905Y-15426428D01*
X-17756429Y-15435952D01*
X-17775476Y-15445476D01*
X-17794524Y-15445476D01*
X-17813571Y-15435952D01*
X-17823095Y-15426428D01*
X-17832619Y-15407381D01*
X-17842143Y-15369286D01*
X-17842143Y-15321667D01*
X-17832619Y-15283571D01*
X-17823095Y-15264524D01*
X-17813571Y-15255000D01*
X-17794524Y-15245476D01*
X-17642143Y-15426428D02*
X-17632619Y-15435952D01*
X-17642143Y-15445476D01*
X-17651667Y-15435952D01*
X-17642143Y-15426428D01*
X-17642143Y-15445476D01*
X-17508810Y-15245476D02*
X-17489762Y-15245476D01*
X-17470714Y-15255000D01*
X-17461190Y-15264524D01*
X-17451667Y-15283571D01*
X-17442143Y-15321667D01*
X-17442143Y-15369286D01*
X-17451667Y-15407381D01*
X-17461190Y-15426428D01*
X-17470714Y-15435952D01*
X-17489762Y-15445476D01*
X-17508810Y-15445476D01*
X-17527857Y-15435952D01*
X-17537381Y-15426428D01*
X-17546905Y-15407381D01*
X-17556429Y-15369286D01*
X-17556429Y-15321667D01*
X-17546905Y-15283571D01*
X-17537381Y-15264524D01*
X-17527857Y-15255000D01*
X-17508810Y-15245476D01*
X-17251667Y-15445476D02*
X-17365952Y-15445476D01*
X-17308810Y-15445476D02*
X-17308810Y-15245476D01*
X-17327857Y-15274048D01*
X-17346905Y-15293095D01*
X-17365952Y-15302619D01*
X-17070714Y-15245476D02*
X-17165952Y-15245476D01*
X-17175476Y-15340714D01*
X-17165952Y-15331190D01*
X-17146905Y-15321667D01*
X-17099286Y-15321667D01*
X-17080238Y-15331190D01*
X-17070714Y-15340714D01*
X-17061190Y-15359762D01*
X-17061190Y-15407381D01*
X-17070714Y-15426428D01*
X-17080238Y-15435952D01*
X-17099286Y-15445476D01*
X-17146905Y-15445476D01*
X-17165952Y-15435952D01*
X-17175476Y-15426428D01*
X-16994524Y-15245476D02*
X-16861190Y-15245476D01*
X-16946905Y-15445476D01*
X-16794524Y-15245476D02*
X-16794524Y-15283571D01*
X-16718333Y-15245476D02*
X-16718333Y-15283571D01*
X-16423095Y-15521667D02*
X-16432619Y-15512143D01*
X-16451667Y-15483571D01*
X-16461190Y-15464524D01*
X-16470714Y-15435952D01*
X-16480238Y-15388333D01*
X-16480238Y-15350238D01*
X-16470714Y-15302619D01*
X-16461190Y-15274048D01*
X-16451667Y-15255000D01*
X-16432619Y-15226428D01*
X-16423095Y-15216905D01*
X-16365952Y-15245476D02*
X-16242143Y-15245476D01*
X-16308809Y-15321667D01*
X-16280238Y-15321667D01*
X-16261190Y-15331190D01*
X-16251667Y-15340714D01*
X-16242143Y-15359762D01*
X-16242143Y-15407381D01*
X-16251667Y-15426428D01*
X-16261190Y-15435952D01*
X-16280238Y-15445476D01*
X-16337381Y-15445476D01*
X-16356428Y-15435952D01*
X-16365952Y-15426428D01*
X-16061190Y-15245476D02*
X-16156428Y-15245476D01*
X-16165952Y-15340714D01*
X-16156428Y-15331190D01*
X-16137381Y-15321667D01*
X-16089762Y-15321667D01*
X-16070714Y-15331190D01*
X-16061190Y-15340714D01*
X-16051667Y-15359762D01*
X-16051667Y-15407381D01*
X-16061190Y-15426428D01*
X-16070714Y-15435952D01*
X-16089762Y-15445476D01*
X-16137381Y-15445476D01*
X-16156428Y-15435952D01*
X-16165952Y-15426428D01*
X-15813571Y-15445476D02*
X-15813571Y-15245476D01*
X-15727857Y-15445476D02*
X-15727857Y-15340714D01*
X-15737381Y-15321667D01*
X-15756428Y-15312143D01*
X-15785000Y-15312143D01*
X-15804048Y-15321667D01*
X-15813571Y-15331190D01*
X-15604048Y-15445476D02*
X-15623095Y-15435952D01*
X-15632619Y-15426428D01*
X-15642143Y-15407381D01*
X-15642143Y-15350238D01*
X-15632619Y-15331190D01*
X-15623095Y-15321667D01*
X-15604048Y-15312143D01*
X-15575476Y-15312143D01*
X-15556428Y-15321667D01*
X-15546905Y-15331190D01*
X-15537381Y-15350238D01*
X-15537381Y-15407381D01*
X-15546905Y-15426428D01*
X-15556428Y-15435952D01*
X-15575476Y-15445476D01*
X-15604048Y-15445476D01*
X-15423095Y-15445476D02*
X-15442143Y-15435952D01*
X-15451667Y-15416905D01*
X-15451667Y-15245476D01*
X-15270714Y-15435952D02*
X-15289762Y-15445476D01*
X-15327857Y-15445476D01*
X-15346905Y-15435952D01*
X-15356428Y-15416905D01*
X-15356428Y-15340714D01*
X-15346905Y-15321667D01*
X-15327857Y-15312143D01*
X-15289762Y-15312143D01*
X-15270714Y-15321667D01*
X-15261190Y-15340714D01*
X-15261190Y-15359762D01*
X-15356428Y-15378809D01*
X-15185000Y-15435952D02*
X-15165952Y-15445476D01*
X-15127857Y-15445476D01*
X-15108809Y-15435952D01*
X-15099286Y-15416905D01*
X-15099286Y-15407381D01*
X-15108809Y-15388333D01*
X-15127857Y-15378809D01*
X-15156428Y-15378809D01*
X-15175476Y-15369286D01*
X-15185000Y-15350238D01*
X-15185000Y-15340714D01*
X-15175476Y-15321667D01*
X-15156428Y-15312143D01*
X-15127857Y-15312143D01*
X-15108809Y-15321667D01*
X-15032619Y-15521667D02*
X-15023095Y-15512143D01*
X-15004048Y-15483571D01*
X-14994524Y-15464524D01*
X-14985000Y-15435952D01*
X-14975476Y-15388333D01*
X-14975476Y-15350238D01*
X-14985000Y-15302619D01*
X-14994524Y-15274048D01*
X-15004048Y-15255000D01*
X-15023095Y-15226428D01*
X-15032619Y-15216905D01*
D13*
X-19995000Y-15619000D02*
G75*
G03*
X-19995000Y-15619000I-38100J0D01*
G01*
D11*
X-19699286Y-15509476D02*
X-19680238Y-15509476D01*
X-19661190Y-15519000D01*
X-19651667Y-15528524D01*
X-19642143Y-15547571D01*
X-19632619Y-15585667D01*
X-19632619Y-15633286D01*
X-19642143Y-15671381D01*
X-19651667Y-15690428D01*
X-19661190Y-15699952D01*
X-19680238Y-15709476D01*
X-19699286Y-15709476D01*
X-19718333Y-15699952D01*
X-19727857Y-15690428D01*
X-19737381Y-15671381D01*
X-19746905Y-15633286D01*
X-19746905Y-15585667D01*
X-19737381Y-15547571D01*
X-19727857Y-15528524D01*
X-19718333Y-15519000D01*
X-19699286Y-15509476D01*
X-19546905Y-15690428D02*
X-19537381Y-15699952D01*
X-19546905Y-15709476D01*
X-19556429Y-15699952D01*
X-19546905Y-15690428D01*
X-19546905Y-15709476D01*
X-19470714Y-15509476D02*
X-19337381Y-15509476D01*
X-19423095Y-15709476D01*
X-19175476Y-15509476D02*
X-19213571Y-15509476D01*
X-19232619Y-15519000D01*
X-19242143Y-15528524D01*
X-19261190Y-15557095D01*
X-19270714Y-15595190D01*
X-19270714Y-15671381D01*
X-19261190Y-15690428D01*
X-19251667Y-15699952D01*
X-19232619Y-15709476D01*
X-19194524Y-15709476D01*
X-19175476Y-15699952D01*
X-19165952Y-15690428D01*
X-19156429Y-15671381D01*
X-19156429Y-15623762D01*
X-19165952Y-15604714D01*
X-19175476Y-15595190D01*
X-19194524Y-15585667D01*
X-19232619Y-15585667D01*
X-19251667Y-15595190D01*
X-19261190Y-15604714D01*
X-19270714Y-15623762D01*
X-19080238Y-15528524D02*
X-19070714Y-15519000D01*
X-19051667Y-15509476D01*
X-19004048Y-15509476D01*
X-18985000Y-15519000D01*
X-18975476Y-15528524D01*
X-18965952Y-15547571D01*
X-18965952Y-15566619D01*
X-18975476Y-15595190D01*
X-19089762Y-15709476D01*
X-18965952Y-15709476D01*
X-18880238Y-15709476D02*
X-18880238Y-15576143D01*
X-18880238Y-15595190D02*
X-18870714Y-15585667D01*
X-18851667Y-15576143D01*
X-18823095Y-15576143D01*
X-18804048Y-15585667D01*
X-18794524Y-15604714D01*
X-18794524Y-15709476D01*
X-18794524Y-15604714D02*
X-18785000Y-15585667D01*
X-18765952Y-15576143D01*
X-18737381Y-15576143D01*
X-18718333Y-15585667D01*
X-18708810Y-15604714D01*
X-18708810Y-15709476D01*
X-18613571Y-15709476D02*
X-18613571Y-15576143D01*
X-18613571Y-15595190D02*
X-18604048Y-15585667D01*
X-18585000Y-15576143D01*
X-18556429Y-15576143D01*
X-18537381Y-15585667D01*
X-18527857Y-15604714D01*
X-18527857Y-15709476D01*
X-18527857Y-15604714D02*
X-18518333Y-15585667D01*
X-18499286Y-15576143D01*
X-18470714Y-15576143D01*
X-18451667Y-15585667D01*
X-18442143Y-15604714D01*
X-18442143Y-15709476D01*
X-18051667Y-15499952D02*
X-18223095Y-15757095D01*
X-17794524Y-15509476D02*
X-17775476Y-15509476D01*
X-17756429Y-15519000D01*
X-17746905Y-15528524D01*
X-17737381Y-15547571D01*
X-17727857Y-15585667D01*
X-17727857Y-15633286D01*
X-17737381Y-15671381D01*
X-17746905Y-15690428D01*
X-17756429Y-15699952D01*
X-17775476Y-15709476D01*
X-17794524Y-15709476D01*
X-17813571Y-15699952D01*
X-17823095Y-15690428D01*
X-17832619Y-15671381D01*
X-17842143Y-15633286D01*
X-17842143Y-15585667D01*
X-17832619Y-15547571D01*
X-17823095Y-15528524D01*
X-17813571Y-15519000D01*
X-17794524Y-15509476D01*
X-17642143Y-15690428D02*
X-17632619Y-15699952D01*
X-17642143Y-15709476D01*
X-17651667Y-15699952D01*
X-17642143Y-15690428D01*
X-17642143Y-15709476D01*
X-17508810Y-15509476D02*
X-17489762Y-15509476D01*
X-17470714Y-15519000D01*
X-17461190Y-15528524D01*
X-17451667Y-15547571D01*
X-17442143Y-15585667D01*
X-17442143Y-15633286D01*
X-17451667Y-15671381D01*
X-17461190Y-15690428D01*
X-17470714Y-15699952D01*
X-17489762Y-15709476D01*
X-17508810Y-15709476D01*
X-17527857Y-15699952D01*
X-17537381Y-15690428D01*
X-17546905Y-15671381D01*
X-17556429Y-15633286D01*
X-17556429Y-15585667D01*
X-17546905Y-15547571D01*
X-17537381Y-15528524D01*
X-17527857Y-15519000D01*
X-17508810Y-15509476D01*
X-17375476Y-15509476D02*
X-17251667Y-15509476D01*
X-17318333Y-15585667D01*
X-17289762Y-15585667D01*
X-17270714Y-15595190D01*
X-17261190Y-15604714D01*
X-17251667Y-15623762D01*
X-17251667Y-15671381D01*
X-17261190Y-15690428D01*
X-17270714Y-15699952D01*
X-17289762Y-15709476D01*
X-17346905Y-15709476D01*
X-17365952Y-15699952D01*
X-17375476Y-15690428D01*
X-17127857Y-15509476D02*
X-17108810Y-15509476D01*
X-17089762Y-15519000D01*
X-17080238Y-15528524D01*
X-17070714Y-15547571D01*
X-17061190Y-15585667D01*
X-17061190Y-15633286D01*
X-17070714Y-15671381D01*
X-17080238Y-15690428D01*
X-17089762Y-15699952D01*
X-17108810Y-15709476D01*
X-17127857Y-15709476D01*
X-17146905Y-15699952D01*
X-17156429Y-15690428D01*
X-17165952Y-15671381D01*
X-17175476Y-15633286D01*
X-17175476Y-15585667D01*
X-17165952Y-15547571D01*
X-17156429Y-15528524D01*
X-17146905Y-15519000D01*
X-17127857Y-15509476D01*
X-16937381Y-15509476D02*
X-16918333Y-15509476D01*
X-16899286Y-15519000D01*
X-16889762Y-15528524D01*
X-16880238Y-15547571D01*
X-16870714Y-15585667D01*
X-16870714Y-15633286D01*
X-16880238Y-15671381D01*
X-16889762Y-15690428D01*
X-16899286Y-15699952D01*
X-16918333Y-15709476D01*
X-16937381Y-15709476D01*
X-16956429Y-15699952D01*
X-16965952Y-15690428D01*
X-16975476Y-15671381D01*
X-16985000Y-15633286D01*
X-16985000Y-15585667D01*
X-16975476Y-15547571D01*
X-16965952Y-15528524D01*
X-16956429Y-15519000D01*
X-16937381Y-15509476D01*
X-16794524Y-15509476D02*
X-16794524Y-15547571D01*
X-16718333Y-15509476D02*
X-16718333Y-15547571D01*
X-16423095Y-15785667D02*
X-16432619Y-15776143D01*
X-16451667Y-15747571D01*
X-16461190Y-15728524D01*
X-16470714Y-15699952D01*
X-16480238Y-15652333D01*
X-16480238Y-15614238D01*
X-16470714Y-15566619D01*
X-16461190Y-15538048D01*
X-16451667Y-15519000D01*
X-16432619Y-15490428D01*
X-16423095Y-15480905D01*
X-16261190Y-15576143D02*
X-16261190Y-15709476D01*
X-16308809Y-15499952D02*
X-16356428Y-15642809D01*
X-16232619Y-15642809D01*
X-16118333Y-15509476D02*
X-16099286Y-15509476D01*
X-16080238Y-15519000D01*
X-16070714Y-15528524D01*
X-16061190Y-15547571D01*
X-16051667Y-15585667D01*
X-16051667Y-15633286D01*
X-16061190Y-15671381D01*
X-16070714Y-15690428D01*
X-16080238Y-15699952D01*
X-16099286Y-15709476D01*
X-16118333Y-15709476D01*
X-16137381Y-15699952D01*
X-16146905Y-15690428D01*
X-16156428Y-15671381D01*
X-16165952Y-15633286D01*
X-16165952Y-15585667D01*
X-16156428Y-15547571D01*
X-16146905Y-15528524D01*
X-16137381Y-15519000D01*
X-16118333Y-15509476D01*
X-15813571Y-15709476D02*
X-15813571Y-15509476D01*
X-15727857Y-15709476D02*
X-15727857Y-15604714D01*
X-15737381Y-15585667D01*
X-15756428Y-15576143D01*
X-15785000Y-15576143D01*
X-15804048Y-15585667D01*
X-15813571Y-15595190D01*
X-15604048Y-15709476D02*
X-15623095Y-15699952D01*
X-15632619Y-15690428D01*
X-15642143Y-15671381D01*
X-15642143Y-15614238D01*
X-15632619Y-15595190D01*
X-15623095Y-15585667D01*
X-15604048Y-15576143D01*
X-15575476Y-15576143D01*
X-15556428Y-15585667D01*
X-15546905Y-15595190D01*
X-15537381Y-15614238D01*
X-15537381Y-15671381D01*
X-15546905Y-15690428D01*
X-15556428Y-15699952D01*
X-15575476Y-15709476D01*
X-15604048Y-15709476D01*
X-15423095Y-15709476D02*
X-15442143Y-15699952D01*
X-15451667Y-15680905D01*
X-15451667Y-15509476D01*
X-15270714Y-15699952D02*
X-15289762Y-15709476D01*
X-15327857Y-15709476D01*
X-15346905Y-15699952D01*
X-15356428Y-15680905D01*
X-15356428Y-15604714D01*
X-15346905Y-15585667D01*
X-15327857Y-15576143D01*
X-15289762Y-15576143D01*
X-15270714Y-15585667D01*
X-15261190Y-15604714D01*
X-15261190Y-15623762D01*
X-15356428Y-15642809D01*
X-15185000Y-15699952D02*
X-15165952Y-15709476D01*
X-15127857Y-15709476D01*
X-15108809Y-15699952D01*
X-15099286Y-15680905D01*
X-15099286Y-15671381D01*
X-15108809Y-15652333D01*
X-15127857Y-15642809D01*
X-15156428Y-15642809D01*
X-15175476Y-15633286D01*
X-15185000Y-15614238D01*
X-15185000Y-15604714D01*
X-15175476Y-15585667D01*
X-15156428Y-15576143D01*
X-15127857Y-15576143D01*
X-15108809Y-15585667D01*
X-15032619Y-15785667D02*
X-15023095Y-15776143D01*
X-15004048Y-15747571D01*
X-14994524Y-15728524D01*
X-14985000Y-15699952D01*
X-14975476Y-15652333D01*
X-14975476Y-15614238D01*
X-14985000Y-15566619D01*
X-14994524Y-15538048D01*
X-15004048Y-15519000D01*
X-15023095Y-15490428D01*
X-15032619Y-15480905D01*
D14*
X-20035000Y-15843000D02*
X-20035000Y-15923000D01*
X-20075000Y-15883000D02*
X-19995000Y-15883000D01*
D11*
X-19699286Y-15773476D02*
X-19680238Y-15773476D01*
X-19661190Y-15783000D01*
X-19651667Y-15792524D01*
X-19642143Y-15811571D01*
X-19632619Y-15849667D01*
X-19632619Y-15897286D01*
X-19642143Y-15935381D01*
X-19651667Y-15954428D01*
X-19661190Y-15963952D01*
X-19680238Y-15973476D01*
X-19699286Y-15973476D01*
X-19718333Y-15963952D01*
X-19727857Y-15954428D01*
X-19737381Y-15935381D01*
X-19746905Y-15897286D01*
X-19746905Y-15849667D01*
X-19737381Y-15811571D01*
X-19727857Y-15792524D01*
X-19718333Y-15783000D01*
X-19699286Y-15773476D01*
X-19546905Y-15954428D02*
X-19537381Y-15963952D01*
X-19546905Y-15973476D01*
X-19556429Y-15963952D01*
X-19546905Y-15954428D01*
X-19546905Y-15973476D01*
X-19423095Y-15859190D02*
X-19442143Y-15849667D01*
X-19451667Y-15840143D01*
X-19461190Y-15821095D01*
X-19461190Y-15811571D01*
X-19451667Y-15792524D01*
X-19442143Y-15783000D01*
X-19423095Y-15773476D01*
X-19385000Y-15773476D01*
X-19365952Y-15783000D01*
X-19356429Y-15792524D01*
X-19346905Y-15811571D01*
X-19346905Y-15821095D01*
X-19356429Y-15840143D01*
X-19365952Y-15849667D01*
X-19385000Y-15859190D01*
X-19423095Y-15859190D01*
X-19442143Y-15868714D01*
X-19451667Y-15878238D01*
X-19461190Y-15897286D01*
X-19461190Y-15935381D01*
X-19451667Y-15954428D01*
X-19442143Y-15963952D01*
X-19423095Y-15973476D01*
X-19385000Y-15973476D01*
X-19365952Y-15963952D01*
X-19356429Y-15954428D01*
X-19346905Y-15935381D01*
X-19346905Y-15897286D01*
X-19356429Y-15878238D01*
X-19365952Y-15868714D01*
X-19385000Y-15859190D01*
X-19223095Y-15773476D02*
X-19204048Y-15773476D01*
X-19185000Y-15783000D01*
X-19175476Y-15792524D01*
X-19165952Y-15811571D01*
X-19156429Y-15849667D01*
X-19156429Y-15897286D01*
X-19165952Y-15935381D01*
X-19175476Y-15954428D01*
X-19185000Y-15963952D01*
X-19204048Y-15973476D01*
X-19223095Y-15973476D01*
X-19242143Y-15963952D01*
X-19251667Y-15954428D01*
X-19261190Y-15935381D01*
X-19270714Y-15897286D01*
X-19270714Y-15849667D01*
X-19261190Y-15811571D01*
X-19251667Y-15792524D01*
X-19242143Y-15783000D01*
X-19223095Y-15773476D01*
X-19032619Y-15773476D02*
X-19013571Y-15773476D01*
X-18994524Y-15783000D01*
X-18985000Y-15792524D01*
X-18975476Y-15811571D01*
X-18965952Y-15849667D01*
X-18965952Y-15897286D01*
X-18975476Y-15935381D01*
X-18985000Y-15954428D01*
X-18994524Y-15963952D01*
X-19013571Y-15973476D01*
X-19032619Y-15973476D01*
X-19051667Y-15963952D01*
X-19061190Y-15954428D01*
X-19070714Y-15935381D01*
X-19080238Y-15897286D01*
X-19080238Y-15849667D01*
X-19070714Y-15811571D01*
X-19061190Y-15792524D01*
X-19051667Y-15783000D01*
X-19032619Y-15773476D01*
X-18880238Y-15973476D02*
X-18880238Y-15840143D01*
X-18880238Y-15859190D02*
X-18870714Y-15849667D01*
X-18851667Y-15840143D01*
X-18823095Y-15840143D01*
X-18804048Y-15849667D01*
X-18794524Y-15868714D01*
X-18794524Y-15973476D01*
X-18794524Y-15868714D02*
X-18785000Y-15849667D01*
X-18765952Y-15840143D01*
X-18737381Y-15840143D01*
X-18718333Y-15849667D01*
X-18708810Y-15868714D01*
X-18708810Y-15973476D01*
X-18613571Y-15973476D02*
X-18613571Y-15840143D01*
X-18613571Y-15859190D02*
X-18604048Y-15849667D01*
X-18585000Y-15840143D01*
X-18556429Y-15840143D01*
X-18537381Y-15849667D01*
X-18527857Y-15868714D01*
X-18527857Y-15973476D01*
X-18527857Y-15868714D02*
X-18518333Y-15849667D01*
X-18499286Y-15840143D01*
X-18470714Y-15840143D01*
X-18451667Y-15849667D01*
X-18442143Y-15868714D01*
X-18442143Y-15973476D01*
X-18051667Y-15763952D02*
X-18223095Y-16021095D01*
X-17794524Y-15773476D02*
X-17775476Y-15773476D01*
X-17756429Y-15783000D01*
X-17746905Y-15792524D01*
X-17737381Y-15811571D01*
X-17727857Y-15849667D01*
X-17727857Y-15897286D01*
X-17737381Y-15935381D01*
X-17746905Y-15954428D01*
X-17756429Y-15963952D01*
X-17775476Y-15973476D01*
X-17794524Y-15973476D01*
X-17813571Y-15963952D01*
X-17823095Y-15954428D01*
X-17832619Y-15935381D01*
X-17842143Y-15897286D01*
X-17842143Y-15849667D01*
X-17832619Y-15811571D01*
X-17823095Y-15792524D01*
X-17813571Y-15783000D01*
X-17794524Y-15773476D01*
X-17642143Y-15954428D02*
X-17632619Y-15963952D01*
X-17642143Y-15973476D01*
X-17651667Y-15963952D01*
X-17642143Y-15954428D01*
X-17642143Y-15973476D01*
X-17508810Y-15773476D02*
X-17489762Y-15773476D01*
X-17470714Y-15783000D01*
X-17461190Y-15792524D01*
X-17451667Y-15811571D01*
X-17442143Y-15849667D01*
X-17442143Y-15897286D01*
X-17451667Y-15935381D01*
X-17461190Y-15954428D01*
X-17470714Y-15963952D01*
X-17489762Y-15973476D01*
X-17508810Y-15973476D01*
X-17527857Y-15963952D01*
X-17537381Y-15954428D01*
X-17546905Y-15935381D01*
X-17556429Y-15897286D01*
X-17556429Y-15849667D01*
X-17546905Y-15811571D01*
X-17537381Y-15792524D01*
X-17527857Y-15783000D01*
X-17508810Y-15773476D01*
X-17375476Y-15773476D02*
X-17251667Y-15773476D01*
X-17318333Y-15849667D01*
X-17289762Y-15849667D01*
X-17270714Y-15859190D01*
X-17261190Y-15868714D01*
X-17251667Y-15887762D01*
X-17251667Y-15935381D01*
X-17261190Y-15954428D01*
X-17270714Y-15963952D01*
X-17289762Y-15973476D01*
X-17346905Y-15973476D01*
X-17365952Y-15963952D01*
X-17375476Y-15954428D01*
X-17061190Y-15973476D02*
X-17175476Y-15973476D01*
X-17118333Y-15973476D02*
X-17118333Y-15773476D01*
X-17137381Y-15802048D01*
X-17156429Y-15821095D01*
X-17175476Y-15830619D01*
X-16880238Y-15773476D02*
X-16975476Y-15773476D01*
X-16985000Y-15868714D01*
X-16975476Y-15859190D01*
X-16956429Y-15849667D01*
X-16908810Y-15849667D01*
X-16889762Y-15859190D01*
X-16880238Y-15868714D01*
X-16870714Y-15887762D01*
X-16870714Y-15935381D01*
X-16880238Y-15954428D01*
X-16889762Y-15963952D01*
X-16908810Y-15973476D01*
X-16956429Y-15973476D01*
X-16975476Y-15963952D01*
X-16985000Y-15954428D01*
X-16794524Y-15773476D02*
X-16794524Y-15811571D01*
X-16718333Y-15773476D02*
X-16718333Y-15811571D01*
X-16423095Y-16049667D02*
X-16432619Y-16040143D01*
X-16451667Y-16011571D01*
X-16461190Y-15992524D01*
X-16470714Y-15963952D01*
X-16480238Y-15916333D01*
X-16480238Y-15878238D01*
X-16470714Y-15830619D01*
X-16461190Y-15802048D01*
X-16451667Y-15783000D01*
X-16432619Y-15754428D01*
X-16423095Y-15744905D01*
X-16251667Y-15773476D02*
X-16346905Y-15773476D01*
X-16356428Y-15868714D01*
X-16346905Y-15859190D01*
X-16327857Y-15849667D01*
X-16280238Y-15849667D01*
X-16261190Y-15859190D01*
X-16251667Y-15868714D01*
X-16242143Y-15887762D01*
X-16242143Y-15935381D01*
X-16251667Y-15954428D01*
X-16261190Y-15963952D01*
X-16280238Y-15973476D01*
X-16327857Y-15973476D01*
X-16346905Y-15963952D01*
X-16356428Y-15954428D01*
X-16061190Y-15773476D02*
X-16156428Y-15773476D01*
X-16165952Y-15868714D01*
X-16156428Y-15859190D01*
X-16137381Y-15849667D01*
X-16089762Y-15849667D01*
X-16070714Y-15859190D01*
X-16061190Y-15868714D01*
X-16051667Y-15887762D01*
X-16051667Y-15935381D01*
X-16061190Y-15954428D01*
X-16070714Y-15963952D01*
X-16089762Y-15973476D01*
X-16137381Y-15973476D01*
X-16156428Y-15963952D01*
X-16165952Y-15954428D01*
X-15813571Y-15973476D02*
X-15813571Y-15773476D01*
X-15727857Y-15973476D02*
X-15727857Y-15868714D01*
X-15737381Y-15849667D01*
X-15756428Y-15840143D01*
X-15785000Y-15840143D01*
X-15804048Y-15849667D01*
X-15813571Y-15859190D01*
X-15604048Y-15973476D02*
X-15623095Y-15963952D01*
X-15632619Y-15954428D01*
X-15642143Y-15935381D01*
X-15642143Y-15878238D01*
X-15632619Y-15859190D01*
X-15623095Y-15849667D01*
X-15604048Y-15840143D01*
X-15575476Y-15840143D01*
X-15556428Y-15849667D01*
X-15546905Y-15859190D01*
X-15537381Y-15878238D01*
X-15537381Y-15935381D01*
X-15546905Y-15954428D01*
X-15556428Y-15963952D01*
X-15575476Y-15973476D01*
X-15604048Y-15973476D01*
X-15423095Y-15973476D02*
X-15442143Y-15963952D01*
X-15451667Y-15944905D01*
X-15451667Y-15773476D01*
X-15270714Y-15963952D02*
X-15289762Y-15973476D01*
X-15327857Y-15973476D01*
X-15346905Y-15963952D01*
X-15356428Y-15944905D01*
X-15356428Y-15868714D01*
X-15346905Y-15849667D01*
X-15327857Y-15840143D01*
X-15289762Y-15840143D01*
X-15270714Y-15849667D01*
X-15261190Y-15868714D01*
X-15261190Y-15887762D01*
X-15356428Y-15906809D01*
X-15185000Y-15963952D02*
X-15165952Y-15973476D01*
X-15127857Y-15973476D01*
X-15108809Y-15963952D01*
X-15099286Y-15944905D01*
X-15099286Y-15935381D01*
X-15108809Y-15916333D01*
X-15127857Y-15906809D01*
X-15156428Y-15906809D01*
X-15175476Y-15897286D01*
X-15185000Y-15878238D01*
X-15185000Y-15868714D01*
X-15175476Y-15849667D01*
X-15156428Y-15840143D01*
X-15127857Y-15840143D01*
X-15108809Y-15849667D01*
X-15032619Y-16049667D02*
X-15023095Y-16040143D01*
X-15004048Y-16011571D01*
X-14994524Y-15992524D01*
X-14985000Y-15963952D01*
X-14975476Y-15916333D01*
X-14975476Y-15878238D01*
X-14985000Y-15830619D01*
X-14994524Y-15802048D01*
X-15004048Y-15783000D01*
X-15023095Y-15754428D01*
X-15032619Y-15744905D01*
D15*
X-20008180Y-16178820D02*
X-20008180Y-16115180D01*
X-20071820Y-16115180D01*
X-20071820Y-16178820D01*
X-20008180Y-16178820D01*
D11*
X-19699286Y-16037476D02*
X-19680238Y-16037476D01*
X-19661190Y-16047000D01*
X-19651667Y-16056524D01*
X-19642143Y-16075571D01*
X-19632619Y-16113667D01*
X-19632619Y-16161286D01*
X-19642143Y-16199381D01*
X-19651667Y-16218428D01*
X-19661190Y-16227952D01*
X-19680238Y-16237476D01*
X-19699286Y-16237476D01*
X-19718333Y-16227952D01*
X-19727857Y-16218428D01*
X-19737381Y-16199381D01*
X-19746905Y-16161286D01*
X-19746905Y-16113667D01*
X-19737381Y-16075571D01*
X-19727857Y-16056524D01*
X-19718333Y-16047000D01*
X-19699286Y-16037476D01*
X-19546905Y-16218428D02*
X-19537381Y-16227952D01*
X-19546905Y-16237476D01*
X-19556429Y-16227952D01*
X-19546905Y-16218428D01*
X-19546905Y-16237476D01*
X-19442143Y-16237476D02*
X-19404048Y-16237476D01*
X-19385000Y-16227952D01*
X-19375476Y-16218428D01*
X-19356429Y-16189857D01*
X-19346905Y-16151762D01*
X-19346905Y-16075571D01*
X-19356429Y-16056524D01*
X-19365952Y-16047000D01*
X-19385000Y-16037476D01*
X-19423095Y-16037476D01*
X-19442143Y-16047000D01*
X-19451667Y-16056524D01*
X-19461190Y-16075571D01*
X-19461190Y-16123190D01*
X-19451667Y-16142238D01*
X-19442143Y-16151762D01*
X-19423095Y-16161286D01*
X-19385000Y-16161286D01*
X-19365952Y-16151762D01*
X-19356429Y-16142238D01*
X-19346905Y-16123190D01*
X-19223095Y-16037476D02*
X-19204048Y-16037476D01*
X-19185000Y-16047000D01*
X-19175476Y-16056524D01*
X-19165952Y-16075571D01*
X-19156429Y-16113667D01*
X-19156429Y-16161286D01*
X-19165952Y-16199381D01*
X-19175476Y-16218428D01*
X-19185000Y-16227952D01*
X-19204048Y-16237476D01*
X-19223095Y-16237476D01*
X-19242143Y-16227952D01*
X-19251667Y-16218428D01*
X-19261190Y-16199381D01*
X-19270714Y-16161286D01*
X-19270714Y-16113667D01*
X-19261190Y-16075571D01*
X-19251667Y-16056524D01*
X-19242143Y-16047000D01*
X-19223095Y-16037476D01*
X-19032619Y-16037476D02*
X-19013571Y-16037476D01*
X-18994524Y-16047000D01*
X-18985000Y-16056524D01*
X-18975476Y-16075571D01*
X-18965952Y-16113667D01*
X-18965952Y-16161286D01*
X-18975476Y-16199381D01*
X-18985000Y-16218428D01*
X-18994524Y-16227952D01*
X-19013571Y-16237476D01*
X-19032619Y-16237476D01*
X-19051667Y-16227952D01*
X-19061190Y-16218428D01*
X-19070714Y-16199381D01*
X-19080238Y-16161286D01*
X-19080238Y-16113667D01*
X-19070714Y-16075571D01*
X-19061190Y-16056524D01*
X-19051667Y-16047000D01*
X-19032619Y-16037476D01*
X-18880238Y-16237476D02*
X-18880238Y-16104143D01*
X-18880238Y-16123190D02*
X-18870714Y-16113667D01*
X-18851667Y-16104143D01*
X-18823095Y-16104143D01*
X-18804048Y-16113667D01*
X-18794524Y-16132714D01*
X-18794524Y-16237476D01*
X-18794524Y-16132714D02*
X-18785000Y-16113667D01*
X-18765952Y-16104143D01*
X-18737381Y-16104143D01*
X-18718333Y-16113667D01*
X-18708810Y-16132714D01*
X-18708810Y-16237476D01*
X-18613571Y-16237476D02*
X-18613571Y-16104143D01*
X-18613571Y-16123190D02*
X-18604048Y-16113667D01*
X-18585000Y-16104143D01*
X-18556429Y-16104143D01*
X-18537381Y-16113667D01*
X-18527857Y-16132714D01*
X-18527857Y-16237476D01*
X-18527857Y-16132714D02*
X-18518333Y-16113667D01*
X-18499286Y-16104143D01*
X-18470714Y-16104143D01*
X-18451667Y-16113667D01*
X-18442143Y-16132714D01*
X-18442143Y-16237476D01*
X-18051667Y-16027952D02*
X-18223095Y-16285095D01*
X-17794524Y-16037476D02*
X-17775476Y-16037476D01*
X-17756429Y-16047000D01*
X-17746905Y-16056524D01*
X-17737381Y-16075571D01*
X-17727857Y-16113667D01*
X-17727857Y-16161286D01*
X-17737381Y-16199381D01*
X-17746905Y-16218428D01*
X-17756429Y-16227952D01*
X-17775476Y-16237476D01*
X-17794524Y-16237476D01*
X-17813571Y-16227952D01*
X-17823095Y-16218428D01*
X-17832619Y-16199381D01*
X-17842143Y-16161286D01*
X-17842143Y-16113667D01*
X-17832619Y-16075571D01*
X-17823095Y-16056524D01*
X-17813571Y-16047000D01*
X-17794524Y-16037476D01*
X-17642143Y-16218428D02*
X-17632619Y-16227952D01*
X-17642143Y-16237476D01*
X-17651667Y-16227952D01*
X-17642143Y-16218428D01*
X-17642143Y-16237476D01*
X-17508810Y-16037476D02*
X-17489762Y-16037476D01*
X-17470714Y-16047000D01*
X-17461190Y-16056524D01*
X-17451667Y-16075571D01*
X-17442143Y-16113667D01*
X-17442143Y-16161286D01*
X-17451667Y-16199381D01*
X-17461190Y-16218428D01*
X-17470714Y-16227952D01*
X-17489762Y-16237476D01*
X-17508810Y-16237476D01*
X-17527857Y-16227952D01*
X-17537381Y-16218428D01*
X-17546905Y-16199381D01*
X-17556429Y-16161286D01*
X-17556429Y-16113667D01*
X-17546905Y-16075571D01*
X-17537381Y-16056524D01*
X-17527857Y-16047000D01*
X-17508810Y-16037476D01*
X-17375476Y-16037476D02*
X-17251667Y-16037476D01*
X-17318333Y-16113667D01*
X-17289762Y-16113667D01*
X-17270714Y-16123190D01*
X-17261190Y-16132714D01*
X-17251667Y-16151762D01*
X-17251667Y-16199381D01*
X-17261190Y-16218428D01*
X-17270714Y-16227952D01*
X-17289762Y-16237476D01*
X-17346905Y-16237476D01*
X-17365952Y-16227952D01*
X-17375476Y-16218428D01*
X-17070714Y-16037476D02*
X-17165952Y-16037476D01*
X-17175476Y-16132714D01*
X-17165952Y-16123190D01*
X-17146905Y-16113667D01*
X-17099286Y-16113667D01*
X-17080238Y-16123190D01*
X-17070714Y-16132714D01*
X-17061190Y-16151762D01*
X-17061190Y-16199381D01*
X-17070714Y-16218428D01*
X-17080238Y-16227952D01*
X-17099286Y-16237476D01*
X-17146905Y-16237476D01*
X-17165952Y-16227952D01*
X-17175476Y-16218428D01*
X-16889762Y-16104143D02*
X-16889762Y-16237476D01*
X-16937381Y-16027952D02*
X-16985000Y-16170809D01*
X-16861190Y-16170809D01*
X-16794524Y-16037476D02*
X-16794524Y-16075571D01*
X-16718333Y-16037476D02*
X-16718333Y-16075571D01*
X-16423095Y-16313667D02*
X-16432619Y-16304143D01*
X-16451667Y-16275571D01*
X-16461190Y-16256524D01*
X-16470714Y-16227952D01*
X-16480238Y-16180333D01*
X-16480238Y-16142238D01*
X-16470714Y-16094619D01*
X-16461190Y-16066048D01*
X-16451667Y-16047000D01*
X-16432619Y-16018428D01*
X-16423095Y-16008905D01*
X-16365952Y-16037476D02*
X-16242143Y-16037476D01*
X-16308809Y-16113667D01*
X-16280238Y-16113667D01*
X-16261190Y-16123190D01*
X-16251667Y-16132714D01*
X-16242143Y-16151762D01*
X-16242143Y-16199381D01*
X-16251667Y-16218428D01*
X-16261190Y-16227952D01*
X-16280238Y-16237476D01*
X-16337381Y-16237476D01*
X-16356428Y-16227952D01*
X-16365952Y-16218428D01*
X-16127857Y-16123190D02*
X-16146905Y-16113667D01*
X-16156428Y-16104143D01*
X-16165952Y-16085095D01*
X-16165952Y-16075571D01*
X-16156428Y-16056524D01*
X-16146905Y-16047000D01*
X-16127857Y-16037476D01*
X-16089762Y-16037476D01*
X-16070714Y-16047000D01*
X-16061190Y-16056524D01*
X-16051667Y-16075571D01*
X-16051667Y-16085095D01*
X-16061190Y-16104143D01*
X-16070714Y-16113667D01*
X-16089762Y-16123190D01*
X-16127857Y-16123190D01*
X-16146905Y-16132714D01*
X-16156428Y-16142238D01*
X-16165952Y-16161286D01*
X-16165952Y-16199381D01*
X-16156428Y-16218428D01*
X-16146905Y-16227952D01*
X-16127857Y-16237476D01*
X-16089762Y-16237476D01*
X-16070714Y-16227952D01*
X-16061190Y-16218428D01*
X-16051667Y-16199381D01*
X-16051667Y-16161286D01*
X-16061190Y-16142238D01*
X-16070714Y-16132714D01*
X-16089762Y-16123190D01*
X-15813571Y-16237476D02*
X-15813571Y-16037476D01*
X-15727857Y-16237476D02*
X-15727857Y-16132714D01*
X-15737381Y-16113667D01*
X-15756428Y-16104143D01*
X-15785000Y-16104143D01*
X-15804048Y-16113667D01*
X-15813571Y-16123190D01*
X-15604048Y-16237476D02*
X-15623095Y-16227952D01*
X-15632619Y-16218428D01*
X-15642143Y-16199381D01*
X-15642143Y-16142238D01*
X-15632619Y-16123190D01*
X-15623095Y-16113667D01*
X-15604048Y-16104143D01*
X-15575476Y-16104143D01*
X-15556428Y-16113667D01*
X-15546905Y-16123190D01*
X-15537381Y-16142238D01*
X-15537381Y-16199381D01*
X-15546905Y-16218428D01*
X-15556428Y-16227952D01*
X-15575476Y-16237476D01*
X-15604048Y-16237476D01*
X-15423095Y-16237476D02*
X-15442143Y-16227952D01*
X-15451667Y-16208905D01*
X-15451667Y-16037476D01*
X-15270714Y-16227952D02*
X-15289762Y-16237476D01*
X-15327857Y-16237476D01*
X-15346905Y-16227952D01*
X-15356428Y-16208905D01*
X-15356428Y-16132714D01*
X-15346905Y-16113667D01*
X-15327857Y-16104143D01*
X-15289762Y-16104143D01*
X-15270714Y-16113667D01*
X-15261190Y-16132714D01*
X-15261190Y-16151762D01*
X-15356428Y-16170809D01*
X-15185000Y-16227952D02*
X-15165952Y-16237476D01*
X-15127857Y-16237476D01*
X-15108809Y-16227952D01*
X-15099286Y-16208905D01*
X-15099286Y-16199381D01*
X-15108809Y-16180333D01*
X-15127857Y-16170809D01*
X-15156428Y-16170809D01*
X-15175476Y-16161286D01*
X-15185000Y-16142238D01*
X-15185000Y-16132714D01*
X-15175476Y-16113667D01*
X-15156428Y-16104143D01*
X-15127857Y-16104143D01*
X-15108809Y-16113667D01*
X-15032619Y-16313667D02*
X-15023095Y-16304143D01*
X-15004048Y-16275571D01*
X-14994524Y-16256524D01*
X-14985000Y-16227952D01*
X-14975476Y-16180333D01*
X-14975476Y-16142238D01*
X-14985000Y-16094619D01*
X-14994524Y-16066048D01*
X-15004048Y-16047000D01*
X-15023095Y-16018428D01*
X-15032619Y-16008905D01*
D10*
X-20045000Y-16461000D02*
X-19995000Y-16411000D01*
X-20045000Y-16361000D01*
X-20095000Y-16411000D01*
X-20045000Y-16461000D01*
D11*
X-19632619Y-16501476D02*
X-19746905Y-16501476D01*
X-19689762Y-16501476D02*
X-19689762Y-16301476D01*
X-19708810Y-16330048D01*
X-19727857Y-16349095D01*
X-19746905Y-16358619D01*
X-19546905Y-16482428D02*
X-19537381Y-16491952D01*
X-19546905Y-16501476D01*
X-19556429Y-16491952D01*
X-19546905Y-16482428D01*
X-19546905Y-16501476D01*
X-19413571Y-16301476D02*
X-19394524Y-16301476D01*
X-19375476Y-16311000D01*
X-19365952Y-16320524D01*
X-19356429Y-16339571D01*
X-19346905Y-16377667D01*
X-19346905Y-16425286D01*
X-19356429Y-16463381D01*
X-19365952Y-16482428D01*
X-19375476Y-16491952D01*
X-19394524Y-16501476D01*
X-19413571Y-16501476D01*
X-19432619Y-16491952D01*
X-19442143Y-16482428D01*
X-19451667Y-16463381D01*
X-19461190Y-16425286D01*
X-19461190Y-16377667D01*
X-19451667Y-16339571D01*
X-19442143Y-16320524D01*
X-19432619Y-16311000D01*
X-19413571Y-16301476D01*
X-19223095Y-16301476D02*
X-19204048Y-16301476D01*
X-19185000Y-16311000D01*
X-19175476Y-16320524D01*
X-19165952Y-16339571D01*
X-19156429Y-16377667D01*
X-19156429Y-16425286D01*
X-19165952Y-16463381D01*
X-19175476Y-16482428D01*
X-19185000Y-16491952D01*
X-19204048Y-16501476D01*
X-19223095Y-16501476D01*
X-19242143Y-16491952D01*
X-19251667Y-16482428D01*
X-19261190Y-16463381D01*
X-19270714Y-16425286D01*
X-19270714Y-16377667D01*
X-19261190Y-16339571D01*
X-19251667Y-16320524D01*
X-19242143Y-16311000D01*
X-19223095Y-16301476D01*
X-19032619Y-16301476D02*
X-19013571Y-16301476D01*
X-18994524Y-16311000D01*
X-18985000Y-16320524D01*
X-18975476Y-16339571D01*
X-18965952Y-16377667D01*
X-18965952Y-16425286D01*
X-18975476Y-16463381D01*
X-18985000Y-16482428D01*
X-18994524Y-16491952D01*
X-19013571Y-16501476D01*
X-19032619Y-16501476D01*
X-19051667Y-16491952D01*
X-19061190Y-16482428D01*
X-19070714Y-16463381D01*
X-19080238Y-16425286D01*
X-19080238Y-16377667D01*
X-19070714Y-16339571D01*
X-19061190Y-16320524D01*
X-19051667Y-16311000D01*
X-19032619Y-16301476D01*
X-18880238Y-16501476D02*
X-18880238Y-16368143D01*
X-18880238Y-16387190D02*
X-18870714Y-16377667D01*
X-18851667Y-16368143D01*
X-18823095Y-16368143D01*
X-18804048Y-16377667D01*
X-18794524Y-16396714D01*
X-18794524Y-16501476D01*
X-18794524Y-16396714D02*
X-18785000Y-16377667D01*
X-18765952Y-16368143D01*
X-18737381Y-16368143D01*
X-18718333Y-16377667D01*
X-18708810Y-16396714D01*
X-18708810Y-16501476D01*
X-18613571Y-16501476D02*
X-18613571Y-16368143D01*
X-18613571Y-16387190D02*
X-18604048Y-16377667D01*
X-18585000Y-16368143D01*
X-18556429Y-16368143D01*
X-18537381Y-16377667D01*
X-18527857Y-16396714D01*
X-18527857Y-16501476D01*
X-18527857Y-16396714D02*
X-18518333Y-16377667D01*
X-18499286Y-16368143D01*
X-18470714Y-16368143D01*
X-18451667Y-16377667D01*
X-18442143Y-16396714D01*
X-18442143Y-16501476D01*
X-18051667Y-16291952D02*
X-18223095Y-16549095D01*
X-17794524Y-16301476D02*
X-17775476Y-16301476D01*
X-17756429Y-16311000D01*
X-17746905Y-16320524D01*
X-17737381Y-16339571D01*
X-17727857Y-16377667D01*
X-17727857Y-16425286D01*
X-17737381Y-16463381D01*
X-17746905Y-16482428D01*
X-17756429Y-16491952D01*
X-17775476Y-16501476D01*
X-17794524Y-16501476D01*
X-17813571Y-16491952D01*
X-17823095Y-16482428D01*
X-17832619Y-16463381D01*
X-17842143Y-16425286D01*
X-17842143Y-16377667D01*
X-17832619Y-16339571D01*
X-17823095Y-16320524D01*
X-17813571Y-16311000D01*
X-17794524Y-16301476D01*
X-17642143Y-16482428D02*
X-17632619Y-16491952D01*
X-17642143Y-16501476D01*
X-17651667Y-16491952D01*
X-17642143Y-16482428D01*
X-17642143Y-16501476D01*
X-17508810Y-16301476D02*
X-17489762Y-16301476D01*
X-17470714Y-16311000D01*
X-17461190Y-16320524D01*
X-17451667Y-16339571D01*
X-17442143Y-16377667D01*
X-17442143Y-16425286D01*
X-17451667Y-16463381D01*
X-17461190Y-16482428D01*
X-17470714Y-16491952D01*
X-17489762Y-16501476D01*
X-17508810Y-16501476D01*
X-17527857Y-16491952D01*
X-17537381Y-16482428D01*
X-17546905Y-16463381D01*
X-17556429Y-16425286D01*
X-17556429Y-16377667D01*
X-17546905Y-16339571D01*
X-17537381Y-16320524D01*
X-17527857Y-16311000D01*
X-17508810Y-16301476D01*
X-17375476Y-16301476D02*
X-17251667Y-16301476D01*
X-17318333Y-16377667D01*
X-17289762Y-16377667D01*
X-17270714Y-16387190D01*
X-17261190Y-16396714D01*
X-17251667Y-16415762D01*
X-17251667Y-16463381D01*
X-17261190Y-16482428D01*
X-17270714Y-16491952D01*
X-17289762Y-16501476D01*
X-17346905Y-16501476D01*
X-17365952Y-16491952D01*
X-17375476Y-16482428D01*
X-17156429Y-16501476D02*
X-17118333Y-16501476D01*
X-17099286Y-16491952D01*
X-17089762Y-16482428D01*
X-17070714Y-16453857D01*
X-17061190Y-16415762D01*
X-17061190Y-16339571D01*
X-17070714Y-16320524D01*
X-17080238Y-16311000D01*
X-17099286Y-16301476D01*
X-17137381Y-16301476D01*
X-17156429Y-16311000D01*
X-17165952Y-16320524D01*
X-17175476Y-16339571D01*
X-17175476Y-16387190D01*
X-17165952Y-16406238D01*
X-17156429Y-16415762D01*
X-17137381Y-16425286D01*
X-17099286Y-16425286D01*
X-17080238Y-16415762D01*
X-17070714Y-16406238D01*
X-17061190Y-16387190D01*
X-16889762Y-16368143D02*
X-16889762Y-16501476D01*
X-16937381Y-16291952D02*
X-16985000Y-16434809D01*
X-16861190Y-16434809D01*
X-16794524Y-16301476D02*
X-16794524Y-16339571D01*
X-16718333Y-16301476D02*
X-16718333Y-16339571D01*
X-16423095Y-16577667D02*
X-16432619Y-16568143D01*
X-16451667Y-16539571D01*
X-16461190Y-16520524D01*
X-16470714Y-16491952D01*
X-16480238Y-16444333D01*
X-16480238Y-16406238D01*
X-16470714Y-16358619D01*
X-16461190Y-16330048D01*
X-16451667Y-16311000D01*
X-16432619Y-16282428D01*
X-16423095Y-16272905D01*
X-16365952Y-16301476D02*
X-16242143Y-16301476D01*
X-16308809Y-16377667D01*
X-16280238Y-16377667D01*
X-16261190Y-16387190D01*
X-16251667Y-16396714D01*
X-16242143Y-16415762D01*
X-16242143Y-16463381D01*
X-16251667Y-16482428D01*
X-16261190Y-16491952D01*
X-16280238Y-16501476D01*
X-16337381Y-16501476D01*
X-16356428Y-16491952D01*
X-16365952Y-16482428D01*
X-16175476Y-16301476D02*
X-16042143Y-16301476D01*
X-16127857Y-16501476D01*
X-15813571Y-16501476D02*
X-15813571Y-16301476D01*
X-15727857Y-16501476D02*
X-15727857Y-16396714D01*
X-15737381Y-16377667D01*
X-15756428Y-16368143D01*
X-15785000Y-16368143D01*
X-15804048Y-16377667D01*
X-15813571Y-16387190D01*
X-15604048Y-16501476D02*
X-15623095Y-16491952D01*
X-15632619Y-16482428D01*
X-15642143Y-16463381D01*
X-15642143Y-16406238D01*
X-15632619Y-16387190D01*
X-15623095Y-16377667D01*
X-15604048Y-16368143D01*
X-15575476Y-16368143D01*
X-15556428Y-16377667D01*
X-15546905Y-16387190D01*
X-15537381Y-16406238D01*
X-15537381Y-16463381D01*
X-15546905Y-16482428D01*
X-15556428Y-16491952D01*
X-15575476Y-16501476D01*
X-15604048Y-16501476D01*
X-15423095Y-16501476D02*
X-15442143Y-16491952D01*
X-15451667Y-16472905D01*
X-15451667Y-16301476D01*
X-15270714Y-16491952D02*
X-15289762Y-16501476D01*
X-15327857Y-16501476D01*
X-15346905Y-16491952D01*
X-15356428Y-16472905D01*
X-15356428Y-16396714D01*
X-15346905Y-16377667D01*
X-15327857Y-16368143D01*
X-15289762Y-16368143D01*
X-15270714Y-16377667D01*
X-15261190Y-16396714D01*
X-15261190Y-16415762D01*
X-15356428Y-16434809D01*
X-15185000Y-16491952D02*
X-15165952Y-16501476D01*
X-15127857Y-16501476D01*
X-15108809Y-16491952D01*
X-15099286Y-16472905D01*
X-15099286Y-16463381D01*
X-15108809Y-16444333D01*
X-15127857Y-16434809D01*
X-15156428Y-16434809D01*
X-15175476Y-16425286D01*
X-15185000Y-16406238D01*
X-15185000Y-16396714D01*
X-15175476Y-16377667D01*
X-15156428Y-16368143D01*
X-15127857Y-16368143D01*
X-15108809Y-16377667D01*
X-15032619Y-16577667D02*
X-15023095Y-16568143D01*
X-15004048Y-16539571D01*
X-14994524Y-16520524D01*
X-14985000Y-16491952D01*
X-14975476Y-16444333D01*
X-14975476Y-16406238D01*
X-14985000Y-16358619D01*
X-14994524Y-16330048D01*
X-15004048Y-16311000D01*
X-15023095Y-16282428D01*
X-15032619Y-16272905D01*
D16*
X-20105000Y-16620000D02*
X-19995000Y-16730000D01*
X-19995000Y-16620000D02*
X-20105000Y-16730000D01*
X-19995000Y-16675000D02*
G75*
G03*
X-19995000Y-16675000I-55000J0D01*
G01*
D11*
X-19632619Y-16765476D02*
X-19746905Y-16765476D01*
X-19689762Y-16765476D02*
X-19689762Y-16565476D01*
X-19708810Y-16594048D01*
X-19727857Y-16613095D01*
X-19746905Y-16622619D01*
X-19546905Y-16746428D02*
X-19537381Y-16755952D01*
X-19546905Y-16765476D01*
X-19556429Y-16755952D01*
X-19546905Y-16746428D01*
X-19546905Y-16765476D01*
X-19346905Y-16765476D02*
X-19461190Y-16765476D01*
X-19404048Y-16765476D02*
X-19404048Y-16565476D01*
X-19423095Y-16594048D01*
X-19442143Y-16613095D01*
X-19461190Y-16622619D01*
X-19223095Y-16565476D02*
X-19204048Y-16565476D01*
X-19185000Y-16575000D01*
X-19175476Y-16584524D01*
X-19165952Y-16603571D01*
X-19156429Y-16641667D01*
X-19156429Y-16689286D01*
X-19165952Y-16727381D01*
X-19175476Y-16746428D01*
X-19185000Y-16755952D01*
X-19204048Y-16765476D01*
X-19223095Y-16765476D01*
X-19242143Y-16755952D01*
X-19251667Y-16746428D01*
X-19261190Y-16727381D01*
X-19270714Y-16689286D01*
X-19270714Y-16641667D01*
X-19261190Y-16603571D01*
X-19251667Y-16584524D01*
X-19242143Y-16575000D01*
X-19223095Y-16565476D01*
X-19032619Y-16565476D02*
X-19013571Y-16565476D01*
X-18994524Y-16575000D01*
X-18985000Y-16584524D01*
X-18975476Y-16603571D01*
X-18965952Y-16641667D01*
X-18965952Y-16689286D01*
X-18975476Y-16727381D01*
X-18985000Y-16746428D01*
X-18994524Y-16755952D01*
X-19013571Y-16765476D01*
X-19032619Y-16765476D01*
X-19051667Y-16755952D01*
X-19061190Y-16746428D01*
X-19070714Y-16727381D01*
X-19080238Y-16689286D01*
X-19080238Y-16641667D01*
X-19070714Y-16603571D01*
X-19061190Y-16584524D01*
X-19051667Y-16575000D01*
X-19032619Y-16565476D01*
X-18880238Y-16765476D02*
X-18880238Y-16632143D01*
X-18880238Y-16651190D02*
X-18870714Y-16641667D01*
X-18851667Y-16632143D01*
X-18823095Y-16632143D01*
X-18804048Y-16641667D01*
X-18794524Y-16660714D01*
X-18794524Y-16765476D01*
X-18794524Y-16660714D02*
X-18785000Y-16641667D01*
X-18765952Y-16632143D01*
X-18737381Y-16632143D01*
X-18718333Y-16641667D01*
X-18708810Y-16660714D01*
X-18708810Y-16765476D01*
X-18613571Y-16765476D02*
X-18613571Y-16632143D01*
X-18613571Y-16651190D02*
X-18604048Y-16641667D01*
X-18585000Y-16632143D01*
X-18556429Y-16632143D01*
X-18537381Y-16641667D01*
X-18527857Y-16660714D01*
X-18527857Y-16765476D01*
X-18527857Y-16660714D02*
X-18518333Y-16641667D01*
X-18499286Y-16632143D01*
X-18470714Y-16632143D01*
X-18451667Y-16641667D01*
X-18442143Y-16660714D01*
X-18442143Y-16765476D01*
X-18051667Y-16555952D02*
X-18223095Y-16813095D01*
X-17794524Y-16565476D02*
X-17775476Y-16565476D01*
X-17756429Y-16575000D01*
X-17746905Y-16584524D01*
X-17737381Y-16603571D01*
X-17727857Y-16641667D01*
X-17727857Y-16689286D01*
X-17737381Y-16727381D01*
X-17746905Y-16746428D01*
X-17756429Y-16755952D01*
X-17775476Y-16765476D01*
X-17794524Y-16765476D01*
X-17813571Y-16755952D01*
X-17823095Y-16746428D01*
X-17832619Y-16727381D01*
X-17842143Y-16689286D01*
X-17842143Y-16641667D01*
X-17832619Y-16603571D01*
X-17823095Y-16584524D01*
X-17813571Y-16575000D01*
X-17794524Y-16565476D01*
X-17642143Y-16746428D02*
X-17632619Y-16755952D01*
X-17642143Y-16765476D01*
X-17651667Y-16755952D01*
X-17642143Y-16746428D01*
X-17642143Y-16765476D01*
X-17508810Y-16565476D02*
X-17489762Y-16565476D01*
X-17470714Y-16575000D01*
X-17461190Y-16584524D01*
X-17451667Y-16603571D01*
X-17442143Y-16641667D01*
X-17442143Y-16689286D01*
X-17451667Y-16727381D01*
X-17461190Y-16746428D01*
X-17470714Y-16755952D01*
X-17489762Y-16765476D01*
X-17508810Y-16765476D01*
X-17527857Y-16755952D01*
X-17537381Y-16746428D01*
X-17546905Y-16727381D01*
X-17556429Y-16689286D01*
X-17556429Y-16641667D01*
X-17546905Y-16603571D01*
X-17537381Y-16584524D01*
X-17527857Y-16575000D01*
X-17508810Y-16565476D01*
X-17270714Y-16632143D02*
X-17270714Y-16765476D01*
X-17318333Y-16555952D02*
X-17365952Y-16698809D01*
X-17242143Y-16698809D01*
X-17185000Y-16565476D02*
X-17061190Y-16565476D01*
X-17127857Y-16641667D01*
X-17099286Y-16641667D01*
X-17080238Y-16651190D01*
X-17070714Y-16660714D01*
X-17061190Y-16679762D01*
X-17061190Y-16727381D01*
X-17070714Y-16746428D01*
X-17080238Y-16755952D01*
X-17099286Y-16765476D01*
X-17156429Y-16765476D01*
X-17175476Y-16755952D01*
X-17185000Y-16746428D01*
X-16994524Y-16565476D02*
X-16870714Y-16565476D01*
X-16937381Y-16641667D01*
X-16908810Y-16641667D01*
X-16889762Y-16651190D01*
X-16880238Y-16660714D01*
X-16870714Y-16679762D01*
X-16870714Y-16727381D01*
X-16880238Y-16746428D01*
X-16889762Y-16755952D01*
X-16908810Y-16765476D01*
X-16965952Y-16765476D01*
X-16985000Y-16755952D01*
X-16994524Y-16746428D01*
X-16794524Y-16565476D02*
X-16794524Y-16603571D01*
X-16718333Y-16565476D02*
X-16718333Y-16603571D01*
X-16423095Y-16841667D02*
X-16432619Y-16832143D01*
X-16451667Y-16803571D01*
X-16461190Y-16784524D01*
X-16470714Y-16755952D01*
X-16480238Y-16708333D01*
X-16480238Y-16670238D01*
X-16470714Y-16622619D01*
X-16461190Y-16594048D01*
X-16451667Y-16575000D01*
X-16432619Y-16546428D01*
X-16423095Y-16536905D01*
X-16261190Y-16632143D02*
X-16261190Y-16765476D01*
X-16308809Y-16555952D02*
X-16356428Y-16698809D01*
X-16232619Y-16698809D01*
X-16004048Y-16765476D02*
X-16004048Y-16565476D01*
X-15918333Y-16765476D02*
X-15918333Y-16660714D01*
X-15927857Y-16641667D01*
X-15946905Y-16632143D01*
X-15975476Y-16632143D01*
X-15994524Y-16641667D01*
X-16004048Y-16651190D01*
X-15794524Y-16765476D02*
X-15813571Y-16755952D01*
X-15823095Y-16746428D01*
X-15832619Y-16727381D01*
X-15832619Y-16670238D01*
X-15823095Y-16651190D01*
X-15813571Y-16641667D01*
X-15794524Y-16632143D01*
X-15765952Y-16632143D01*
X-15746905Y-16641667D01*
X-15737381Y-16651190D01*
X-15727857Y-16670238D01*
X-15727857Y-16727381D01*
X-15737381Y-16746428D01*
X-15746905Y-16755952D01*
X-15765952Y-16765476D01*
X-15794524Y-16765476D01*
X-15613571Y-16765476D02*
X-15632619Y-16755952D01*
X-15642143Y-16736905D01*
X-15642143Y-16565476D01*
X-15461190Y-16755952D02*
X-15480238Y-16765476D01*
X-15518333Y-16765476D01*
X-15537381Y-16755952D01*
X-15546905Y-16736905D01*
X-15546905Y-16660714D01*
X-15537381Y-16641667D01*
X-15518333Y-16632143D01*
X-15480238Y-16632143D01*
X-15461190Y-16641667D01*
X-15451667Y-16660714D01*
X-15451667Y-16679762D01*
X-15546905Y-16698809D01*
X-15375476Y-16755952D02*
X-15356428Y-16765476D01*
X-15318333Y-16765476D01*
X-15299286Y-16755952D01*
X-15289762Y-16736905D01*
X-15289762Y-16727381D01*
X-15299286Y-16708333D01*
X-15318333Y-16698809D01*
X-15346905Y-16698809D01*
X-15365952Y-16689286D01*
X-15375476Y-16670238D01*
X-15375476Y-16660714D01*
X-15365952Y-16641667D01*
X-15346905Y-16632143D01*
X-15318333Y-16632143D01*
X-15299286Y-16641667D01*
X-15223095Y-16841667D02*
X-15213571Y-16832143D01*
X-15194524Y-16803571D01*
X-15185000Y-16784524D01*
X-15175476Y-16755952D01*
X-15165952Y-16708333D01*
X-15165952Y-16670238D01*
X-15175476Y-16622619D01*
X-15185000Y-16594048D01*
X-15194524Y-16575000D01*
X-15213571Y-16546428D01*
X-15223095Y-16536905D01*
D17*
X-20165000Y-16854000D02*
X-19995000Y-17024000D01*
X-19995000Y-16854000D02*
X-20165000Y-17024000D01*
X-20080000Y-16854000D02*
X-20080000Y-17024000D01*
X-20165000Y-16939000D02*
X-19995000Y-16939000D01*
D11*
X-19632619Y-17029476D02*
X-19746905Y-17029476D01*
X-19689762Y-17029476D02*
X-19689762Y-16829476D01*
X-19708810Y-16858048D01*
X-19727857Y-16877095D01*
X-19746905Y-16886619D01*
X-19546905Y-17010429D02*
X-19537381Y-17019952D01*
X-19546905Y-17029476D01*
X-19556429Y-17019952D01*
X-19546905Y-17010429D01*
X-19546905Y-17029476D01*
X-19470714Y-16829476D02*
X-19337381Y-16829476D01*
X-19423095Y-17029476D01*
X-19223095Y-16829476D02*
X-19204048Y-16829476D01*
X-19185000Y-16839000D01*
X-19175476Y-16848524D01*
X-19165952Y-16867571D01*
X-19156429Y-16905667D01*
X-19156429Y-16953286D01*
X-19165952Y-16991381D01*
X-19175476Y-17010429D01*
X-19185000Y-17019952D01*
X-19204048Y-17029476D01*
X-19223095Y-17029476D01*
X-19242143Y-17019952D01*
X-19251667Y-17010429D01*
X-19261190Y-16991381D01*
X-19270714Y-16953286D01*
X-19270714Y-16905667D01*
X-19261190Y-16867571D01*
X-19251667Y-16848524D01*
X-19242143Y-16839000D01*
X-19223095Y-16829476D01*
X-19032619Y-16829476D02*
X-19013571Y-16829476D01*
X-18994524Y-16839000D01*
X-18985000Y-16848524D01*
X-18975476Y-16867571D01*
X-18965952Y-16905667D01*
X-18965952Y-16953286D01*
X-18975476Y-16991381D01*
X-18985000Y-17010429D01*
X-18994524Y-17019952D01*
X-19013571Y-17029476D01*
X-19032619Y-17029476D01*
X-19051667Y-17019952D01*
X-19061190Y-17010429D01*
X-19070714Y-16991381D01*
X-19080238Y-16953286D01*
X-19080238Y-16905667D01*
X-19070714Y-16867571D01*
X-19061190Y-16848524D01*
X-19051667Y-16839000D01*
X-19032619Y-16829476D01*
X-18880238Y-17029476D02*
X-18880238Y-16896143D01*
X-18880238Y-16915190D02*
X-18870714Y-16905667D01*
X-18851667Y-16896143D01*
X-18823095Y-16896143D01*
X-18804048Y-16905667D01*
X-18794524Y-16924714D01*
X-18794524Y-17029476D01*
X-18794524Y-16924714D02*
X-18785000Y-16905667D01*
X-18765952Y-16896143D01*
X-18737381Y-16896143D01*
X-18718333Y-16905667D01*
X-18708810Y-16924714D01*
X-18708810Y-17029476D01*
X-18613571Y-17029476D02*
X-18613571Y-16896143D01*
X-18613571Y-16915190D02*
X-18604048Y-16905667D01*
X-18585000Y-16896143D01*
X-18556429Y-16896143D01*
X-18537381Y-16905667D01*
X-18527857Y-16924714D01*
X-18527857Y-17029476D01*
X-18527857Y-16924714D02*
X-18518333Y-16905667D01*
X-18499286Y-16896143D01*
X-18470714Y-16896143D01*
X-18451667Y-16905667D01*
X-18442143Y-16924714D01*
X-18442143Y-17029476D01*
X-18051667Y-16819952D02*
X-18223095Y-17077095D01*
X-17794524Y-16829476D02*
X-17775476Y-16829476D01*
X-17756429Y-16839000D01*
X-17746905Y-16848524D01*
X-17737381Y-16867571D01*
X-17727857Y-16905667D01*
X-17727857Y-16953286D01*
X-17737381Y-16991381D01*
X-17746905Y-17010429D01*
X-17756429Y-17019952D01*
X-17775476Y-17029476D01*
X-17794524Y-17029476D01*
X-17813571Y-17019952D01*
X-17823095Y-17010429D01*
X-17832619Y-16991381D01*
X-17842143Y-16953286D01*
X-17842143Y-16905667D01*
X-17832619Y-16867571D01*
X-17823095Y-16848524D01*
X-17813571Y-16839000D01*
X-17794524Y-16829476D01*
X-17642143Y-17010429D02*
X-17632619Y-17019952D01*
X-17642143Y-17029476D01*
X-17651667Y-17019952D01*
X-17642143Y-17010429D01*
X-17642143Y-17029476D01*
X-17508810Y-16829476D02*
X-17489762Y-16829476D01*
X-17470714Y-16839000D01*
X-17461190Y-16848524D01*
X-17451667Y-16867571D01*
X-17442143Y-16905667D01*
X-17442143Y-16953286D01*
X-17451667Y-16991381D01*
X-17461190Y-17010429D01*
X-17470714Y-17019952D01*
X-17489762Y-17029476D01*
X-17508810Y-17029476D01*
X-17527857Y-17019952D01*
X-17537381Y-17010429D01*
X-17546905Y-16991381D01*
X-17556429Y-16953286D01*
X-17556429Y-16905667D01*
X-17546905Y-16867571D01*
X-17537381Y-16848524D01*
X-17527857Y-16839000D01*
X-17508810Y-16829476D01*
X-17270714Y-16829476D02*
X-17308810Y-16829476D01*
X-17327857Y-16839000D01*
X-17337381Y-16848524D01*
X-17356429Y-16877095D01*
X-17365952Y-16915190D01*
X-17365952Y-16991381D01*
X-17356429Y-17010429D01*
X-17346905Y-17019952D01*
X-17327857Y-17029476D01*
X-17289762Y-17029476D01*
X-17270714Y-17019952D01*
X-17261190Y-17010429D01*
X-17251667Y-16991381D01*
X-17251667Y-16943762D01*
X-17261190Y-16924714D01*
X-17270714Y-16915190D01*
X-17289762Y-16905667D01*
X-17327857Y-16905667D01*
X-17346905Y-16915190D01*
X-17356429Y-16924714D01*
X-17365952Y-16943762D01*
X-17080238Y-16829476D02*
X-17118333Y-16829476D01*
X-17137381Y-16839000D01*
X-17146905Y-16848524D01*
X-17165952Y-16877095D01*
X-17175476Y-16915190D01*
X-17175476Y-16991381D01*
X-17165952Y-17010429D01*
X-17156429Y-17019952D01*
X-17137381Y-17029476D01*
X-17099286Y-17029476D01*
X-17080238Y-17019952D01*
X-17070714Y-17010429D01*
X-17061190Y-16991381D01*
X-17061190Y-16943762D01*
X-17070714Y-16924714D01*
X-17080238Y-16915190D01*
X-17099286Y-16905667D01*
X-17137381Y-16905667D01*
X-17156429Y-16915190D01*
X-17165952Y-16924714D01*
X-17175476Y-16943762D01*
X-16965952Y-17029476D02*
X-16927857Y-17029476D01*
X-16908810Y-17019952D01*
X-16899286Y-17010429D01*
X-16880238Y-16981857D01*
X-16870714Y-16943762D01*
X-16870714Y-16867571D01*
X-16880238Y-16848524D01*
X-16889762Y-16839000D01*
X-16908810Y-16829476D01*
X-16946905Y-16829476D01*
X-16965952Y-16839000D01*
X-16975476Y-16848524D01*
X-16985000Y-16867571D01*
X-16985000Y-16915190D01*
X-16975476Y-16934238D01*
X-16965952Y-16943762D01*
X-16946905Y-16953286D01*
X-16908810Y-16953286D01*
X-16889762Y-16943762D01*
X-16880238Y-16934238D01*
X-16870714Y-16915190D01*
X-16794524Y-16829476D02*
X-16794524Y-16867571D01*
X-16718333Y-16829476D02*
X-16718333Y-16867571D01*
X-16423095Y-17105667D02*
X-16432619Y-17096143D01*
X-16451667Y-17067571D01*
X-16461190Y-17048524D01*
X-16470714Y-17019952D01*
X-16480238Y-16972333D01*
X-16480238Y-16934238D01*
X-16470714Y-16886619D01*
X-16461190Y-16858048D01*
X-16451667Y-16839000D01*
X-16432619Y-16810429D01*
X-16423095Y-16800905D01*
X-16242143Y-17029476D02*
X-16356428Y-17029476D01*
X-16299286Y-17029476D02*
X-16299286Y-16829476D01*
X-16318333Y-16858048D01*
X-16337381Y-16877095D01*
X-16356428Y-16886619D01*
X-16165952Y-16848524D02*
X-16156428Y-16839000D01*
X-16137381Y-16829476D01*
X-16089762Y-16829476D01*
X-16070714Y-16839000D01*
X-16061190Y-16848524D01*
X-16051667Y-16867571D01*
X-16051667Y-16886619D01*
X-16061190Y-16915190D01*
X-16175476Y-17029476D01*
X-16051667Y-17029476D01*
X-15813571Y-17029476D02*
X-15813571Y-16829476D01*
X-15727857Y-17029476D02*
X-15727857Y-16924714D01*
X-15737381Y-16905667D01*
X-15756428Y-16896143D01*
X-15785000Y-16896143D01*
X-15804048Y-16905667D01*
X-15813571Y-16915190D01*
X-15604048Y-17029476D02*
X-15623095Y-17019952D01*
X-15632619Y-17010429D01*
X-15642143Y-16991381D01*
X-15642143Y-16934238D01*
X-15632619Y-16915190D01*
X-15623095Y-16905667D01*
X-15604048Y-16896143D01*
X-15575476Y-16896143D01*
X-15556428Y-16905667D01*
X-15546905Y-16915190D01*
X-15537381Y-16934238D01*
X-15537381Y-16991381D01*
X-15546905Y-17010429D01*
X-15556428Y-17019952D01*
X-15575476Y-17029476D01*
X-15604048Y-17029476D01*
X-15423095Y-17029476D02*
X-15442143Y-17019952D01*
X-15451667Y-17000905D01*
X-15451667Y-16829476D01*
X-15270714Y-17019952D02*
X-15289762Y-17029476D01*
X-15327857Y-17029476D01*
X-15346905Y-17019952D01*
X-15356428Y-17000905D01*
X-15356428Y-16924714D01*
X-15346905Y-16905667D01*
X-15327857Y-16896143D01*
X-15289762Y-16896143D01*
X-15270714Y-16905667D01*
X-15261190Y-16924714D01*
X-15261190Y-16943762D01*
X-15356428Y-16962810D01*
X-15185000Y-17019952D02*
X-15165952Y-17029476D01*
X-15127857Y-17029476D01*
X-15108809Y-17019952D01*
X-15099286Y-17000905D01*
X-15099286Y-16991381D01*
X-15108809Y-16972333D01*
X-15127857Y-16962810D01*
X-15156428Y-16962810D01*
X-15175476Y-16953286D01*
X-15185000Y-16934238D01*
X-15185000Y-16924714D01*
X-15175476Y-16905667D01*
X-15156428Y-16896143D01*
X-15127857Y-16896143D01*
X-15108809Y-16905667D01*
X-15032619Y-17105667D02*
X-15023095Y-17096143D01*
X-15004048Y-17067571D01*
X-14994524Y-17048524D01*
X-14985000Y-17019952D01*
X-14975476Y-16972333D01*
X-14975476Y-16934238D01*
X-14985000Y-16886619D01*
X-14994524Y-16858048D01*
X-15004048Y-16839000D01*
X-15023095Y-16810429D01*
X-15032619Y-16800905D01*
X-20195000Y-17129000D02*
X-19995000Y-17329000D01*
X-19995000Y-17129000D02*
X-20195000Y-17329000D01*
X-20024289Y-17299711D02*
X-20024289Y-17158289D01*
X-20165711Y-17158289D01*
X-20165711Y-17299711D01*
X-20024289Y-17299711D01*
X-19756429Y-17119476D02*
X-19632619Y-17119476D01*
X-19699286Y-17195667D01*
X-19670714Y-17195667D01*
X-19651667Y-17205190D01*
X-19642143Y-17214714D01*
X-19632619Y-17233762D01*
X-19632619Y-17281381D01*
X-19642143Y-17300429D01*
X-19651667Y-17309952D01*
X-19670714Y-17319476D01*
X-19727857Y-17319476D01*
X-19746905Y-17309952D01*
X-19756429Y-17300429D01*
X-19546905Y-17300429D02*
X-19537381Y-17309952D01*
X-19546905Y-17319476D01*
X-19556429Y-17309952D01*
X-19546905Y-17300429D01*
X-19546905Y-17319476D01*
X-19413571Y-17119476D02*
X-19394524Y-17119476D01*
X-19375476Y-17129000D01*
X-19365952Y-17138524D01*
X-19356429Y-17157571D01*
X-19346905Y-17195667D01*
X-19346905Y-17243286D01*
X-19356429Y-17281381D01*
X-19365952Y-17300429D01*
X-19375476Y-17309952D01*
X-19394524Y-17319476D01*
X-19413571Y-17319476D01*
X-19432619Y-17309952D01*
X-19442143Y-17300429D01*
X-19451667Y-17281381D01*
X-19461190Y-17243286D01*
X-19461190Y-17195667D01*
X-19451667Y-17157571D01*
X-19442143Y-17138524D01*
X-19432619Y-17129000D01*
X-19413571Y-17119476D01*
X-19223095Y-17119476D02*
X-19204048Y-17119476D01*
X-19185000Y-17129000D01*
X-19175476Y-17138524D01*
X-19165952Y-17157571D01*
X-19156429Y-17195667D01*
X-19156429Y-17243286D01*
X-19165952Y-17281381D01*
X-19175476Y-17300429D01*
X-19185000Y-17309952D01*
X-19204048Y-17319476D01*
X-19223095Y-17319476D01*
X-19242143Y-17309952D01*
X-19251667Y-17300429D01*
X-19261190Y-17281381D01*
X-19270714Y-17243286D01*
X-19270714Y-17195667D01*
X-19261190Y-17157571D01*
X-19251667Y-17138524D01*
X-19242143Y-17129000D01*
X-19223095Y-17119476D01*
X-19032619Y-17119476D02*
X-19013571Y-17119476D01*
X-18994524Y-17129000D01*
X-18985000Y-17138524D01*
X-18975476Y-17157571D01*
X-18965952Y-17195667D01*
X-18965952Y-17243286D01*
X-18975476Y-17281381D01*
X-18985000Y-17300429D01*
X-18994524Y-17309952D01*
X-19013571Y-17319476D01*
X-19032619Y-17319476D01*
X-19051667Y-17309952D01*
X-19061190Y-17300429D01*
X-19070714Y-17281381D01*
X-19080238Y-17243286D01*
X-19080238Y-17195667D01*
X-19070714Y-17157571D01*
X-19061190Y-17138524D01*
X-19051667Y-17129000D01*
X-19032619Y-17119476D01*
X-18880238Y-17319476D02*
X-18880238Y-17186143D01*
X-18880238Y-17205190D02*
X-18870714Y-17195667D01*
X-18851667Y-17186143D01*
X-18823095Y-17186143D01*
X-18804048Y-17195667D01*
X-18794524Y-17214714D01*
X-18794524Y-17319476D01*
X-18794524Y-17214714D02*
X-18785000Y-17195667D01*
X-18765952Y-17186143D01*
X-18737381Y-17186143D01*
X-18718333Y-17195667D01*
X-18708810Y-17214714D01*
X-18708810Y-17319476D01*
X-18613571Y-17319476D02*
X-18613571Y-17186143D01*
X-18613571Y-17205190D02*
X-18604048Y-17195667D01*
X-18585000Y-17186143D01*
X-18556429Y-17186143D01*
X-18537381Y-17195667D01*
X-18527857Y-17214714D01*
X-18527857Y-17319476D01*
X-18527857Y-17214714D02*
X-18518333Y-17195667D01*
X-18499286Y-17186143D01*
X-18470714Y-17186143D01*
X-18451667Y-17195667D01*
X-18442143Y-17214714D01*
X-18442143Y-17319476D01*
X-18051667Y-17109952D02*
X-18223095Y-17367095D01*
X-17794524Y-17119476D02*
X-17775476Y-17119476D01*
X-17756429Y-17129000D01*
X-17746905Y-17138524D01*
X-17737381Y-17157571D01*
X-17727857Y-17195667D01*
X-17727857Y-17243286D01*
X-17737381Y-17281381D01*
X-17746905Y-17300429D01*
X-17756429Y-17309952D01*
X-17775476Y-17319476D01*
X-17794524Y-17319476D01*
X-17813571Y-17309952D01*
X-17823095Y-17300429D01*
X-17832619Y-17281381D01*
X-17842143Y-17243286D01*
X-17842143Y-17195667D01*
X-17832619Y-17157571D01*
X-17823095Y-17138524D01*
X-17813571Y-17129000D01*
X-17794524Y-17119476D01*
X-17642143Y-17300429D02*
X-17632619Y-17309952D01*
X-17642143Y-17319476D01*
X-17651667Y-17309952D01*
X-17642143Y-17300429D01*
X-17642143Y-17319476D01*
X-17442143Y-17319476D02*
X-17556429Y-17319476D01*
X-17499286Y-17319476D02*
X-17499286Y-17119476D01*
X-17518333Y-17148048D01*
X-17537381Y-17167095D01*
X-17556429Y-17176619D01*
X-17251667Y-17319476D02*
X-17365952Y-17319476D01*
X-17308810Y-17319476D02*
X-17308810Y-17119476D01*
X-17327857Y-17148048D01*
X-17346905Y-17167095D01*
X-17365952Y-17176619D01*
X-17137381Y-17205190D02*
X-17156429Y-17195667D01*
X-17165952Y-17186143D01*
X-17175476Y-17167095D01*
X-17175476Y-17157571D01*
X-17165952Y-17138524D01*
X-17156429Y-17129000D01*
X-17137381Y-17119476D01*
X-17099286Y-17119476D01*
X-17080238Y-17129000D01*
X-17070714Y-17138524D01*
X-17061190Y-17157571D01*
X-17061190Y-17167095D01*
X-17070714Y-17186143D01*
X-17080238Y-17195667D01*
X-17099286Y-17205190D01*
X-17137381Y-17205190D01*
X-17156429Y-17214714D01*
X-17165952Y-17224238D01*
X-17175476Y-17243286D01*
X-17175476Y-17281381D01*
X-17165952Y-17300429D01*
X-17156429Y-17309952D01*
X-17137381Y-17319476D01*
X-17099286Y-17319476D01*
X-17080238Y-17309952D01*
X-17070714Y-17300429D01*
X-17061190Y-17281381D01*
X-17061190Y-17243286D01*
X-17070714Y-17224238D01*
X-17080238Y-17214714D01*
X-17099286Y-17205190D01*
X-16870714Y-17319476D02*
X-16985000Y-17319476D01*
X-16927857Y-17319476D02*
X-16927857Y-17119476D01*
X-16946905Y-17148048D01*
X-16965952Y-17167095D01*
X-16985000Y-17176619D01*
X-16794524Y-17119476D02*
X-16794524Y-17157571D01*
X-16718333Y-17119476D02*
X-16718333Y-17157571D01*
X-16423095Y-17395667D02*
X-16432619Y-17386143D01*
X-16451667Y-17357571D01*
X-16461190Y-17338524D01*
X-16470714Y-17309952D01*
X-16480238Y-17262333D01*
X-16480238Y-17224238D01*
X-16470714Y-17176619D01*
X-16461190Y-17148048D01*
X-16451667Y-17129000D01*
X-16432619Y-17100429D01*
X-16423095Y-17090905D01*
X-16261190Y-17186143D02*
X-16261190Y-17319476D01*
X-16308809Y-17109952D02*
X-16356428Y-17252810D01*
X-16232619Y-17252810D01*
X-16004048Y-17319476D02*
X-16004048Y-17119476D01*
X-15918333Y-17319476D02*
X-15918333Y-17214714D01*
X-15927857Y-17195667D01*
X-15946905Y-17186143D01*
X-15975476Y-17186143D01*
X-15994524Y-17195667D01*
X-16004048Y-17205190D01*
X-15794524Y-17319476D02*
X-15813571Y-17309952D01*
X-15823095Y-17300429D01*
X-15832619Y-17281381D01*
X-15832619Y-17224238D01*
X-15823095Y-17205190D01*
X-15813571Y-17195667D01*
X-15794524Y-17186143D01*
X-15765952Y-17186143D01*
X-15746905Y-17195667D01*
X-15737381Y-17205190D01*
X-15727857Y-17224238D01*
X-15727857Y-17281381D01*
X-15737381Y-17300429D01*
X-15746905Y-17309952D01*
X-15765952Y-17319476D01*
X-15794524Y-17319476D01*
X-15613571Y-17319476D02*
X-15632619Y-17309952D01*
X-15642143Y-17290905D01*
X-15642143Y-17119476D01*
X-15461190Y-17309952D02*
X-15480238Y-17319476D01*
X-15518333Y-17319476D01*
X-15537381Y-17309952D01*
X-15546905Y-17290905D01*
X-15546905Y-17214714D01*
X-15537381Y-17195667D01*
X-15518333Y-17186143D01*
X-15480238Y-17186143D01*
X-15461190Y-17195667D01*
X-15451667Y-17214714D01*
X-15451667Y-17233762D01*
X-15546905Y-17252810D01*
X-15375476Y-17309952D02*
X-15356428Y-17319476D01*
X-15318333Y-17319476D01*
X-15299286Y-17309952D01*
X-15289762Y-17290905D01*
X-15289762Y-17281381D01*
X-15299286Y-17262333D01*
X-15318333Y-17252810D01*
X-15346905Y-17252810D01*
X-15365952Y-17243286D01*
X-15375476Y-17224238D01*
X-15375476Y-17214714D01*
X-15365952Y-17195667D01*
X-15346905Y-17186143D01*
X-15318333Y-17186143D01*
X-15299286Y-17195667D01*
X-15223095Y-17395667D02*
X-15213571Y-17386143D01*
X-15194524Y-17357571D01*
X-15185000Y-17338524D01*
X-15175476Y-17309952D01*
X-15165952Y-17262333D01*
X-15165952Y-17224238D01*
X-15175476Y-17176619D01*
X-15185000Y-17148048D01*
X-15194524Y-17129000D01*
X-15213571Y-17100429D01*
X-15223095Y-17090905D01*
M02*
