%TF.GenerationSoftware,KiCad,Pcbnew,(6.0.8)*%
%TF.CreationDate,2023-03-03T00:45:07+05:30*%
%TF.ProjectId,STM32DryerPCB,53544d33-3244-4727-9965-725043422e6b,rev?*%
%TF.SameCoordinates,Original*%
%TF.FileFunction,Legend,Top*%
%TF.FilePolarity,Positive*%
%FSLAX46Y46*%
G04 Gerber Fmt 4.6, Leading zero omitted, Abs format (unit mm)*
G04 Created by KiCad (PCBNEW (6.0.8)) date 2023-03-03 00:45:07*
%MOMM*%
%LPD*%
G01*
G04 APERTURE LIST*
%ADD10C,0.150000*%
%ADD11C,0.120000*%
G04 APERTURE END LIST*
D10*
%TO.C,RV601*%
X-198840119Y-63339880D02*
X-199173452Y-62863690D01*
X-199411547Y-63339880D02*
X-199411547Y-62339880D01*
X-199030595Y-62339880D01*
X-198935357Y-62387500D01*
X-198887738Y-62435119D01*
X-198840119Y-62530357D01*
X-198840119Y-62673214D01*
X-198887738Y-62768452D01*
X-198935357Y-62816071D01*
X-199030595Y-62863690D01*
X-199411547Y-62863690D01*
X-198554404Y-62339880D02*
X-198221071Y-63339880D01*
X-197887738Y-62339880D01*
X-197125833Y-62339880D02*
X-197316309Y-62339880D01*
X-197411547Y-62387500D01*
X-197459166Y-62435119D01*
X-197554404Y-62577976D01*
X-197602023Y-62768452D01*
X-197602023Y-63149404D01*
X-197554404Y-63244642D01*
X-197506785Y-63292261D01*
X-197411547Y-63339880D01*
X-197221071Y-63339880D01*
X-197125833Y-63292261D01*
X-197078214Y-63244642D01*
X-197030595Y-63149404D01*
X-197030595Y-62911309D01*
X-197078214Y-62816071D01*
X-197125833Y-62768452D01*
X-197221071Y-62720833D01*
X-197411547Y-62720833D01*
X-197506785Y-62768452D01*
X-197554404Y-62816071D01*
X-197602023Y-62911309D01*
X-196411547Y-62339880D02*
X-196316309Y-62339880D01*
X-196221071Y-62387500D01*
X-196173452Y-62435119D01*
X-196125833Y-62530357D01*
X-196078214Y-62720833D01*
X-196078214Y-62958928D01*
X-196125833Y-63149404D01*
X-196173452Y-63244642D01*
X-196221071Y-63292261D01*
X-196316309Y-63339880D01*
X-196411547Y-63339880D01*
X-196506785Y-63292261D01*
X-196554404Y-63244642D01*
X-196602023Y-63149404D01*
X-196649642Y-62958928D01*
X-196649642Y-62720833D01*
X-196602023Y-62530357D01*
X-196554404Y-62435119D01*
X-196506785Y-62387500D01*
X-196411547Y-62339880D01*
X-195125833Y-63339880D02*
X-195697261Y-63339880D01*
X-195411547Y-63339880D02*
X-195411547Y-62339880D01*
X-195506785Y-62482738D01*
X-195602023Y-62577976D01*
X-195697261Y-62625595D01*
%TO.C,J610*%
X-127240119Y-145673214D02*
X-126525833Y-145673214D01*
X-126382976Y-145720833D01*
X-126287738Y-145816071D01*
X-126240119Y-145958928D01*
X-126240119Y-146054166D01*
X-127240119Y-144768452D02*
X-127240119Y-144958928D01*
X-127192500Y-145054166D01*
X-127144880Y-145101785D01*
X-127002023Y-145197023D01*
X-126811547Y-145244642D01*
X-126430595Y-145244642D01*
X-126335357Y-145197023D01*
X-126287738Y-145149404D01*
X-126240119Y-145054166D01*
X-126240119Y-144863690D01*
X-126287738Y-144768452D01*
X-126335357Y-144720833D01*
X-126430595Y-144673214D01*
X-126668690Y-144673214D01*
X-126763928Y-144720833D01*
X-126811547Y-144768452D01*
X-126859166Y-144863690D01*
X-126859166Y-145054166D01*
X-126811547Y-145149404D01*
X-126763928Y-145197023D01*
X-126668690Y-145244642D01*
X-126240119Y-143720833D02*
X-126240119Y-144292261D01*
X-126240119Y-144006547D02*
X-127240119Y-144006547D01*
X-127097261Y-144101785D01*
X-127002023Y-144197023D01*
X-126954404Y-144292261D01*
X-127240119Y-143101785D02*
X-127240119Y-143006547D01*
X-127192500Y-142911309D01*
X-127144880Y-142863690D01*
X-127049642Y-142816071D01*
X-126859166Y-142768452D01*
X-126621071Y-142768452D01*
X-126430595Y-142816071D01*
X-126335357Y-142863690D01*
X-126287738Y-142911309D01*
X-126240119Y-143006547D01*
X-126240119Y-143101785D01*
X-126287738Y-143197023D01*
X-126335357Y-143244642D01*
X-126430595Y-143292261D01*
X-126621071Y-143339880D01*
X-126859166Y-143339880D01*
X-127049642Y-143292261D01*
X-127144880Y-143244642D01*
X-127192500Y-143197023D01*
X-127240119Y-143101785D01*
%TO.C,R302*%
X-109940119Y-61906547D02*
X-110416309Y-62239880D01*
X-109940119Y-62477976D02*
X-110940119Y-62477976D01*
X-110940119Y-62097023D01*
X-110892500Y-62001785D01*
X-110844880Y-61954166D01*
X-110749642Y-61906547D01*
X-110606785Y-61906547D01*
X-110511547Y-61954166D01*
X-110463928Y-62001785D01*
X-110416309Y-62097023D01*
X-110416309Y-62477976D01*
X-110940119Y-61573214D02*
X-110940119Y-60954166D01*
X-110559166Y-61287500D01*
X-110559166Y-61144642D01*
X-110511547Y-61049404D01*
X-110463928Y-61001785D01*
X-110368690Y-60954166D01*
X-110130595Y-60954166D01*
X-110035357Y-61001785D01*
X-109987738Y-61049404D01*
X-109940119Y-61144642D01*
X-109940119Y-61430357D01*
X-109987738Y-61525595D01*
X-110035357Y-61573214D01*
X-110940119Y-60335119D02*
X-110940119Y-60239880D01*
X-110892500Y-60144642D01*
X-110844880Y-60097023D01*
X-110749642Y-60049404D01*
X-110559166Y-60001785D01*
X-110321071Y-60001785D01*
X-110130595Y-60049404D01*
X-110035357Y-60097023D01*
X-109987738Y-60144642D01*
X-109940119Y-60239880D01*
X-109940119Y-60335119D01*
X-109987738Y-60430357D01*
X-110035357Y-60477976D01*
X-110130595Y-60525595D01*
X-110321071Y-60573214D01*
X-110559166Y-60573214D01*
X-110749642Y-60525595D01*
X-110844880Y-60477976D01*
X-110892500Y-60430357D01*
X-110940119Y-60335119D01*
X-110844880Y-59620833D02*
X-110892500Y-59573214D01*
X-110940119Y-59477976D01*
X-110940119Y-59239880D01*
X-110892500Y-59144642D01*
X-110844880Y-59097023D01*
X-110749642Y-59049404D01*
X-110654404Y-59049404D01*
X-110511547Y-59097023D01*
X-109940119Y-59668452D01*
X-109940119Y-59049404D01*
%TO.C,U206*%
X-131965119Y-130091785D02*
X-131155595Y-130091785D01*
X-131060357Y-130044166D01*
X-131012738Y-129996547D01*
X-130965119Y-129901309D01*
X-130965119Y-129710833D01*
X-131012738Y-129615595D01*
X-131060357Y-129567976D01*
X-131155595Y-129520357D01*
X-131965119Y-129520357D01*
X-131869880Y-129091785D02*
X-131917500Y-129044166D01*
X-131965119Y-128948928D01*
X-131965119Y-128710833D01*
X-131917500Y-128615595D01*
X-131869880Y-128567976D01*
X-131774642Y-128520357D01*
X-131679404Y-128520357D01*
X-131536547Y-128567976D01*
X-130965119Y-129139404D01*
X-130965119Y-128520357D01*
X-131965119Y-127901309D02*
X-131965119Y-127806071D01*
X-131917500Y-127710833D01*
X-131869880Y-127663214D01*
X-131774642Y-127615595D01*
X-131584166Y-127567976D01*
X-131346071Y-127567976D01*
X-131155595Y-127615595D01*
X-131060357Y-127663214D01*
X-131012738Y-127710833D01*
X-130965119Y-127806071D01*
X-130965119Y-127901309D01*
X-131012738Y-127996547D01*
X-131060357Y-128044166D01*
X-131155595Y-128091785D01*
X-131346071Y-128139404D01*
X-131584166Y-128139404D01*
X-131774642Y-128091785D01*
X-131869880Y-128044166D01*
X-131917500Y-127996547D01*
X-131965119Y-127901309D01*
X-131965119Y-126710833D02*
X-131965119Y-126901309D01*
X-131917500Y-126996547D01*
X-131869880Y-127044166D01*
X-131727023Y-127139404D01*
X-131536547Y-127187023D01*
X-131155595Y-127187023D01*
X-131060357Y-127139404D01*
X-131012738Y-127091785D01*
X-130965119Y-126996547D01*
X-130965119Y-126806071D01*
X-131012738Y-126710833D01*
X-131060357Y-126663214D01*
X-131155595Y-126615595D01*
X-131393690Y-126615595D01*
X-131488928Y-126663214D01*
X-131536547Y-126710833D01*
X-131584166Y-126806071D01*
X-131584166Y-126996547D01*
X-131536547Y-127091785D01*
X-131488928Y-127139404D01*
X-131393690Y-127187023D01*
%TO.C,R201*%
X-182040119Y-130106547D02*
X-182516309Y-130439880D01*
X-182040119Y-130677976D02*
X-183040119Y-130677976D01*
X-183040119Y-130297023D01*
X-182992500Y-130201785D01*
X-182944880Y-130154166D01*
X-182849642Y-130106547D01*
X-182706785Y-130106547D01*
X-182611547Y-130154166D01*
X-182563928Y-130201785D01*
X-182516309Y-130297023D01*
X-182516309Y-130677976D01*
X-182944880Y-129725595D02*
X-182992500Y-129677976D01*
X-183040119Y-129582738D01*
X-183040119Y-129344642D01*
X-182992500Y-129249404D01*
X-182944880Y-129201785D01*
X-182849642Y-129154166D01*
X-182754404Y-129154166D01*
X-182611547Y-129201785D01*
X-182040119Y-129773214D01*
X-182040119Y-129154166D01*
X-183040119Y-128535119D02*
X-183040119Y-128439880D01*
X-182992500Y-128344642D01*
X-182944880Y-128297023D01*
X-182849642Y-128249404D01*
X-182659166Y-128201785D01*
X-182421071Y-128201785D01*
X-182230595Y-128249404D01*
X-182135357Y-128297023D01*
X-182087738Y-128344642D01*
X-182040119Y-128439880D01*
X-182040119Y-128535119D01*
X-182087738Y-128630357D01*
X-182135357Y-128677976D01*
X-182230595Y-128725595D01*
X-182421071Y-128773214D01*
X-182659166Y-128773214D01*
X-182849642Y-128725595D01*
X-182944880Y-128677976D01*
X-182992500Y-128630357D01*
X-183040119Y-128535119D01*
X-182040119Y-127249404D02*
X-182040119Y-127820833D01*
X-182040119Y-127535119D02*
X-183040119Y-127535119D01*
X-182897261Y-127630357D01*
X-182802023Y-127725595D01*
X-182754404Y-127820833D01*
%TO.C,J606*%
X-198578214Y-85109880D02*
X-198578214Y-85824166D01*
X-198625833Y-85967023D01*
X-198721071Y-86062261D01*
X-198863928Y-86109880D01*
X-198959166Y-86109880D01*
X-197673452Y-85109880D02*
X-197863928Y-85109880D01*
X-197959166Y-85157500D01*
X-198006785Y-85205119D01*
X-198102023Y-85347976D01*
X-198149642Y-85538452D01*
X-198149642Y-85919404D01*
X-198102023Y-86014642D01*
X-198054404Y-86062261D01*
X-197959166Y-86109880D01*
X-197768690Y-86109880D01*
X-197673452Y-86062261D01*
X-197625833Y-86014642D01*
X-197578214Y-85919404D01*
X-197578214Y-85681309D01*
X-197625833Y-85586071D01*
X-197673452Y-85538452D01*
X-197768690Y-85490833D01*
X-197959166Y-85490833D01*
X-198054404Y-85538452D01*
X-198102023Y-85586071D01*
X-198149642Y-85681309D01*
X-196959166Y-85109880D02*
X-196863928Y-85109880D01*
X-196768690Y-85157500D01*
X-196721071Y-85205119D01*
X-196673452Y-85300357D01*
X-196625833Y-85490833D01*
X-196625833Y-85728928D01*
X-196673452Y-85919404D01*
X-196721071Y-86014642D01*
X-196768690Y-86062261D01*
X-196863928Y-86109880D01*
X-196959166Y-86109880D01*
X-197054404Y-86062261D01*
X-197102023Y-86014642D01*
X-197149642Y-85919404D01*
X-197197261Y-85728928D01*
X-197197261Y-85490833D01*
X-197149642Y-85300357D01*
X-197102023Y-85205119D01*
X-197054404Y-85157500D01*
X-196959166Y-85109880D01*
X-195768690Y-85109880D02*
X-195959166Y-85109880D01*
X-196054404Y-85157500D01*
X-196102023Y-85205119D01*
X-196197261Y-85347976D01*
X-196244880Y-85538452D01*
X-196244880Y-85919404D01*
X-196197261Y-86014642D01*
X-196149642Y-86062261D01*
X-196054404Y-86109880D01*
X-195863928Y-86109880D01*
X-195768690Y-86062261D01*
X-195721071Y-86014642D01*
X-195673452Y-85919404D01*
X-195673452Y-85681309D01*
X-195721071Y-85586071D01*
X-195768690Y-85538452D01*
X-195863928Y-85490833D01*
X-196054404Y-85490833D01*
X-196149642Y-85538452D01*
X-196197261Y-85586071D01*
X-196244880Y-85681309D01*
%TO.C,C102*%
X-173011547Y-75544642D02*
X-173059166Y-75592261D01*
X-173202023Y-75639880D01*
X-173297261Y-75639880D01*
X-173440119Y-75592261D01*
X-173535357Y-75497023D01*
X-173582976Y-75401785D01*
X-173630595Y-75211309D01*
X-173630595Y-75068452D01*
X-173582976Y-74877976D01*
X-173535357Y-74782738D01*
X-173440119Y-74687500D01*
X-173297261Y-74639880D01*
X-173202023Y-74639880D01*
X-173059166Y-74687500D01*
X-173011547Y-74735119D01*
X-172059166Y-75639880D02*
X-172630595Y-75639880D01*
X-172344880Y-75639880D02*
X-172344880Y-74639880D01*
X-172440119Y-74782738D01*
X-172535357Y-74877976D01*
X-172630595Y-74925595D01*
X-171440119Y-74639880D02*
X-171344880Y-74639880D01*
X-171249642Y-74687500D01*
X-171202023Y-74735119D01*
X-171154404Y-74830357D01*
X-171106785Y-75020833D01*
X-171106785Y-75258928D01*
X-171154404Y-75449404D01*
X-171202023Y-75544642D01*
X-171249642Y-75592261D01*
X-171344880Y-75639880D01*
X-171440119Y-75639880D01*
X-171535357Y-75592261D01*
X-171582976Y-75544642D01*
X-171630595Y-75449404D01*
X-171678214Y-75258928D01*
X-171678214Y-75020833D01*
X-171630595Y-74830357D01*
X-171582976Y-74735119D01*
X-171535357Y-74687500D01*
X-171440119Y-74639880D01*
X-170725833Y-74735119D02*
X-170678214Y-74687500D01*
X-170582976Y-74639880D01*
X-170344880Y-74639880D01*
X-170249642Y-74687500D01*
X-170202023Y-74735119D01*
X-170154404Y-74830357D01*
X-170154404Y-74925595D01*
X-170202023Y-75068452D01*
X-170773452Y-75639880D01*
X-170154404Y-75639880D01*
%TO.C,U501*%
X-161640119Y-133401785D02*
X-160830595Y-133401785D01*
X-160735357Y-133354166D01*
X-160687738Y-133306547D01*
X-160640119Y-133211309D01*
X-160640119Y-133020833D01*
X-160687738Y-132925595D01*
X-160735357Y-132877976D01*
X-160830595Y-132830357D01*
X-161640119Y-132830357D01*
X-161640119Y-131877976D02*
X-161640119Y-132354166D01*
X-161163928Y-132401785D01*
X-161211547Y-132354166D01*
X-161259166Y-132258928D01*
X-161259166Y-132020833D01*
X-161211547Y-131925595D01*
X-161163928Y-131877976D01*
X-161068690Y-131830357D01*
X-160830595Y-131830357D01*
X-160735357Y-131877976D01*
X-160687738Y-131925595D01*
X-160640119Y-132020833D01*
X-160640119Y-132258928D01*
X-160687738Y-132354166D01*
X-160735357Y-132401785D01*
X-161640119Y-131211309D02*
X-161640119Y-131116071D01*
X-161592500Y-131020833D01*
X-161544880Y-130973214D01*
X-161449642Y-130925595D01*
X-161259166Y-130877976D01*
X-161021071Y-130877976D01*
X-160830595Y-130925595D01*
X-160735357Y-130973214D01*
X-160687738Y-131020833D01*
X-160640119Y-131116071D01*
X-160640119Y-131211309D01*
X-160687738Y-131306547D01*
X-160735357Y-131354166D01*
X-160830595Y-131401785D01*
X-161021071Y-131449404D01*
X-161259166Y-131449404D01*
X-161449642Y-131401785D01*
X-161544880Y-131354166D01*
X-161592500Y-131306547D01*
X-161640119Y-131211309D01*
X-160640119Y-129925595D02*
X-160640119Y-130497023D01*
X-160640119Y-130211309D02*
X-161640119Y-130211309D01*
X-161497261Y-130306547D01*
X-161402023Y-130401785D01*
X-161354404Y-130497023D01*
%TO.C,U304*%
X-133940119Y-61716785D02*
X-133130595Y-61716785D01*
X-133035357Y-61669166D01*
X-132987738Y-61621547D01*
X-132940119Y-61526309D01*
X-132940119Y-61335833D01*
X-132987738Y-61240595D01*
X-133035357Y-61192976D01*
X-133130595Y-61145357D01*
X-133940119Y-61145357D01*
X-133940119Y-60764404D02*
X-133940119Y-60145357D01*
X-133559166Y-60478690D01*
X-133559166Y-60335833D01*
X-133511547Y-60240595D01*
X-133463928Y-60192976D01*
X-133368690Y-60145357D01*
X-133130595Y-60145357D01*
X-133035357Y-60192976D01*
X-132987738Y-60240595D01*
X-132940119Y-60335833D01*
X-132940119Y-60621547D01*
X-132987738Y-60716785D01*
X-133035357Y-60764404D01*
X-133940119Y-59526309D02*
X-133940119Y-59431071D01*
X-133892500Y-59335833D01*
X-133844880Y-59288214D01*
X-133749642Y-59240595D01*
X-133559166Y-59192976D01*
X-133321071Y-59192976D01*
X-133130595Y-59240595D01*
X-133035357Y-59288214D01*
X-132987738Y-59335833D01*
X-132940119Y-59431071D01*
X-132940119Y-59526309D01*
X-132987738Y-59621547D01*
X-133035357Y-59669166D01*
X-133130595Y-59716785D01*
X-133321071Y-59764404D01*
X-133559166Y-59764404D01*
X-133749642Y-59716785D01*
X-133844880Y-59669166D01*
X-133892500Y-59621547D01*
X-133940119Y-59526309D01*
X-133606785Y-58335833D02*
X-132940119Y-58335833D01*
X-133987738Y-58573928D02*
X-133273452Y-58812023D01*
X-133273452Y-58192976D01*
%TO.C,RN201*%
X-184840119Y-121580357D02*
X-185316309Y-121913690D01*
X-184840119Y-122151785D02*
X-185840119Y-122151785D01*
X-185840119Y-121770833D01*
X-185792500Y-121675595D01*
X-185744880Y-121627976D01*
X-185649642Y-121580357D01*
X-185506785Y-121580357D01*
X-185411547Y-121627976D01*
X-185363928Y-121675595D01*
X-185316309Y-121770833D01*
X-185316309Y-122151785D01*
X-184840119Y-121151785D02*
X-185840119Y-121151785D01*
X-184840119Y-120580357D01*
X-185840119Y-120580357D01*
X-185744880Y-120151785D02*
X-185792500Y-120104166D01*
X-185840119Y-120008928D01*
X-185840119Y-119770833D01*
X-185792500Y-119675595D01*
X-185744880Y-119627976D01*
X-185649642Y-119580357D01*
X-185554404Y-119580357D01*
X-185411547Y-119627976D01*
X-184840119Y-120199404D01*
X-184840119Y-119580357D01*
X-185840119Y-118961309D02*
X-185840119Y-118866071D01*
X-185792500Y-118770833D01*
X-185744880Y-118723214D01*
X-185649642Y-118675595D01*
X-185459166Y-118627976D01*
X-185221071Y-118627976D01*
X-185030595Y-118675595D01*
X-184935357Y-118723214D01*
X-184887738Y-118770833D01*
X-184840119Y-118866071D01*
X-184840119Y-118961309D01*
X-184887738Y-119056547D01*
X-184935357Y-119104166D01*
X-185030595Y-119151785D01*
X-185221071Y-119199404D01*
X-185459166Y-119199404D01*
X-185649642Y-119151785D01*
X-185744880Y-119104166D01*
X-185792500Y-119056547D01*
X-185840119Y-118961309D01*
X-184840119Y-117675595D02*
X-184840119Y-118247023D01*
X-184840119Y-117961309D02*
X-185840119Y-117961309D01*
X-185697261Y-118056547D01*
X-185602023Y-118151785D01*
X-185554404Y-118247023D01*
%TO.C,R203*%
X-172640119Y-130386547D02*
X-173116309Y-130719880D01*
X-172640119Y-130957976D02*
X-173640119Y-130957976D01*
X-173640119Y-130577023D01*
X-173592500Y-130481785D01*
X-173544880Y-130434166D01*
X-173449642Y-130386547D01*
X-173306785Y-130386547D01*
X-173211547Y-130434166D01*
X-173163928Y-130481785D01*
X-173116309Y-130577023D01*
X-173116309Y-130957976D01*
X-173544880Y-130005595D02*
X-173592500Y-129957976D01*
X-173640119Y-129862738D01*
X-173640119Y-129624642D01*
X-173592500Y-129529404D01*
X-173544880Y-129481785D01*
X-173449642Y-129434166D01*
X-173354404Y-129434166D01*
X-173211547Y-129481785D01*
X-172640119Y-130053214D01*
X-172640119Y-129434166D01*
X-173640119Y-128815119D02*
X-173640119Y-128719880D01*
X-173592500Y-128624642D01*
X-173544880Y-128577023D01*
X-173449642Y-128529404D01*
X-173259166Y-128481785D01*
X-173021071Y-128481785D01*
X-172830595Y-128529404D01*
X-172735357Y-128577023D01*
X-172687738Y-128624642D01*
X-172640119Y-128719880D01*
X-172640119Y-128815119D01*
X-172687738Y-128910357D01*
X-172735357Y-128957976D01*
X-172830595Y-129005595D01*
X-173021071Y-129053214D01*
X-173259166Y-129053214D01*
X-173449642Y-129005595D01*
X-173544880Y-128957976D01*
X-173592500Y-128910357D01*
X-173640119Y-128815119D01*
X-173640119Y-128148452D02*
X-173640119Y-127529404D01*
X-173259166Y-127862738D01*
X-173259166Y-127719880D01*
X-173211547Y-127624642D01*
X-173163928Y-127577023D01*
X-173068690Y-127529404D01*
X-172830595Y-127529404D01*
X-172735357Y-127577023D01*
X-172687738Y-127624642D01*
X-172640119Y-127719880D01*
X-172640119Y-128005595D01*
X-172687738Y-128100833D01*
X-172735357Y-128148452D01*
%TO.C,J607*%
X-122590119Y-51473214D02*
X-121875833Y-51473214D01*
X-121732976Y-51520833D01*
X-121637738Y-51616071D01*
X-121590119Y-51758928D01*
X-121590119Y-51854166D01*
X-122590119Y-50568452D02*
X-122590119Y-50758928D01*
X-122542500Y-50854166D01*
X-122494880Y-50901785D01*
X-122352023Y-50997023D01*
X-122161547Y-51044642D01*
X-121780595Y-51044642D01*
X-121685357Y-50997023D01*
X-121637738Y-50949404D01*
X-121590119Y-50854166D01*
X-121590119Y-50663690D01*
X-121637738Y-50568452D01*
X-121685357Y-50520833D01*
X-121780595Y-50473214D01*
X-122018690Y-50473214D01*
X-122113928Y-50520833D01*
X-122161547Y-50568452D01*
X-122209166Y-50663690D01*
X-122209166Y-50854166D01*
X-122161547Y-50949404D01*
X-122113928Y-50997023D01*
X-122018690Y-51044642D01*
X-122590119Y-49854166D02*
X-122590119Y-49758928D01*
X-122542500Y-49663690D01*
X-122494880Y-49616071D01*
X-122399642Y-49568452D01*
X-122209166Y-49520833D01*
X-121971071Y-49520833D01*
X-121780595Y-49568452D01*
X-121685357Y-49616071D01*
X-121637738Y-49663690D01*
X-121590119Y-49758928D01*
X-121590119Y-49854166D01*
X-121637738Y-49949404D01*
X-121685357Y-49997023D01*
X-121780595Y-50044642D01*
X-121971071Y-50092261D01*
X-122209166Y-50092261D01*
X-122399642Y-50044642D01*
X-122494880Y-49997023D01*
X-122542500Y-49949404D01*
X-122590119Y-49854166D01*
X-122590119Y-49187500D02*
X-122590119Y-48520833D01*
X-121590119Y-48949404D01*
%TO.C,C501*%
X-150635357Y-132906547D02*
X-150587738Y-132954166D01*
X-150540119Y-133097023D01*
X-150540119Y-133192261D01*
X-150587738Y-133335119D01*
X-150682976Y-133430357D01*
X-150778214Y-133477976D01*
X-150968690Y-133525595D01*
X-151111547Y-133525595D01*
X-151302023Y-133477976D01*
X-151397261Y-133430357D01*
X-151492500Y-133335119D01*
X-151540119Y-133192261D01*
X-151540119Y-133097023D01*
X-151492500Y-132954166D01*
X-151444880Y-132906547D01*
X-151540119Y-132001785D02*
X-151540119Y-132477976D01*
X-151063928Y-132525595D01*
X-151111547Y-132477976D01*
X-151159166Y-132382738D01*
X-151159166Y-132144642D01*
X-151111547Y-132049404D01*
X-151063928Y-132001785D01*
X-150968690Y-131954166D01*
X-150730595Y-131954166D01*
X-150635357Y-132001785D01*
X-150587738Y-132049404D01*
X-150540119Y-132144642D01*
X-150540119Y-132382738D01*
X-150587738Y-132477976D01*
X-150635357Y-132525595D01*
X-151540119Y-131335119D02*
X-151540119Y-131239880D01*
X-151492500Y-131144642D01*
X-151444880Y-131097023D01*
X-151349642Y-131049404D01*
X-151159166Y-131001785D01*
X-150921071Y-131001785D01*
X-150730595Y-131049404D01*
X-150635357Y-131097023D01*
X-150587738Y-131144642D01*
X-150540119Y-131239880D01*
X-150540119Y-131335119D01*
X-150587738Y-131430357D01*
X-150635357Y-131477976D01*
X-150730595Y-131525595D01*
X-150921071Y-131573214D01*
X-151159166Y-131573214D01*
X-151349642Y-131525595D01*
X-151444880Y-131477976D01*
X-151492500Y-131430357D01*
X-151540119Y-131335119D01*
X-150540119Y-130049404D02*
X-150540119Y-130620833D01*
X-150540119Y-130335119D02*
X-151540119Y-130335119D01*
X-151397261Y-130430357D01*
X-151302023Y-130525595D01*
X-151254404Y-130620833D01*
%TO.C,RN202*%
X-136185357Y-140639880D02*
X-136518690Y-140163690D01*
X-136756785Y-140639880D02*
X-136756785Y-139639880D01*
X-136375833Y-139639880D01*
X-136280595Y-139687500D01*
X-136232976Y-139735119D01*
X-136185357Y-139830357D01*
X-136185357Y-139973214D01*
X-136232976Y-140068452D01*
X-136280595Y-140116071D01*
X-136375833Y-140163690D01*
X-136756785Y-140163690D01*
X-135756785Y-140639880D02*
X-135756785Y-139639880D01*
X-135185357Y-140639880D01*
X-135185357Y-139639880D01*
X-134756785Y-139735119D02*
X-134709166Y-139687500D01*
X-134613928Y-139639880D01*
X-134375833Y-139639880D01*
X-134280595Y-139687500D01*
X-134232976Y-139735119D01*
X-134185357Y-139830357D01*
X-134185357Y-139925595D01*
X-134232976Y-140068452D01*
X-134804404Y-140639880D01*
X-134185357Y-140639880D01*
X-133566309Y-139639880D02*
X-133471071Y-139639880D01*
X-133375833Y-139687500D01*
X-133328214Y-139735119D01*
X-133280595Y-139830357D01*
X-133232976Y-140020833D01*
X-133232976Y-140258928D01*
X-133280595Y-140449404D01*
X-133328214Y-140544642D01*
X-133375833Y-140592261D01*
X-133471071Y-140639880D01*
X-133566309Y-140639880D01*
X-133661547Y-140592261D01*
X-133709166Y-140544642D01*
X-133756785Y-140449404D01*
X-133804404Y-140258928D01*
X-133804404Y-140020833D01*
X-133756785Y-139830357D01*
X-133709166Y-139735119D01*
X-133661547Y-139687500D01*
X-133566309Y-139639880D01*
X-132852023Y-139735119D02*
X-132804404Y-139687500D01*
X-132709166Y-139639880D01*
X-132471071Y-139639880D01*
X-132375833Y-139687500D01*
X-132328214Y-139735119D01*
X-132280595Y-139830357D01*
X-132280595Y-139925595D01*
X-132328214Y-140068452D01*
X-132899642Y-140639880D01*
X-132280595Y-140639880D01*
%TO.C,J605*%
X-142540119Y-51473214D02*
X-141825833Y-51473214D01*
X-141682976Y-51520833D01*
X-141587738Y-51616071D01*
X-141540119Y-51758928D01*
X-141540119Y-51854166D01*
X-142540119Y-50568452D02*
X-142540119Y-50758928D01*
X-142492500Y-50854166D01*
X-142444880Y-50901785D01*
X-142302023Y-50997023D01*
X-142111547Y-51044642D01*
X-141730595Y-51044642D01*
X-141635357Y-50997023D01*
X-141587738Y-50949404D01*
X-141540119Y-50854166D01*
X-141540119Y-50663690D01*
X-141587738Y-50568452D01*
X-141635357Y-50520833D01*
X-141730595Y-50473214D01*
X-141968690Y-50473214D01*
X-142063928Y-50520833D01*
X-142111547Y-50568452D01*
X-142159166Y-50663690D01*
X-142159166Y-50854166D01*
X-142111547Y-50949404D01*
X-142063928Y-50997023D01*
X-141968690Y-51044642D01*
X-142540119Y-49854166D02*
X-142540119Y-49758928D01*
X-142492500Y-49663690D01*
X-142444880Y-49616071D01*
X-142349642Y-49568452D01*
X-142159166Y-49520833D01*
X-141921071Y-49520833D01*
X-141730595Y-49568452D01*
X-141635357Y-49616071D01*
X-141587738Y-49663690D01*
X-141540119Y-49758928D01*
X-141540119Y-49854166D01*
X-141587738Y-49949404D01*
X-141635357Y-49997023D01*
X-141730595Y-50044642D01*
X-141921071Y-50092261D01*
X-142159166Y-50092261D01*
X-142349642Y-50044642D01*
X-142444880Y-49997023D01*
X-142492500Y-49949404D01*
X-142540119Y-49854166D01*
X-142540119Y-48616071D02*
X-142540119Y-49092261D01*
X-142063928Y-49139880D01*
X-142111547Y-49092261D01*
X-142159166Y-48997023D01*
X-142159166Y-48758928D01*
X-142111547Y-48663690D01*
X-142063928Y-48616071D01*
X-141968690Y-48568452D01*
X-141730595Y-48568452D01*
X-141635357Y-48616071D01*
X-141587738Y-48663690D01*
X-141540119Y-48758928D01*
X-141540119Y-48997023D01*
X-141587738Y-49092261D01*
X-141635357Y-49139880D01*
%TO.C,R207*%
X-126265119Y-128701547D02*
X-126741309Y-129034880D01*
X-126265119Y-129272976D02*
X-127265119Y-129272976D01*
X-127265119Y-128892023D01*
X-127217500Y-128796785D01*
X-127169880Y-128749166D01*
X-127074642Y-128701547D01*
X-126931785Y-128701547D01*
X-126836547Y-128749166D01*
X-126788928Y-128796785D01*
X-126741309Y-128892023D01*
X-126741309Y-129272976D01*
X-127169880Y-128320595D02*
X-127217500Y-128272976D01*
X-127265119Y-128177738D01*
X-127265119Y-127939642D01*
X-127217500Y-127844404D01*
X-127169880Y-127796785D01*
X-127074642Y-127749166D01*
X-126979404Y-127749166D01*
X-126836547Y-127796785D01*
X-126265119Y-128368214D01*
X-126265119Y-127749166D01*
X-127265119Y-127130119D02*
X-127265119Y-127034880D01*
X-127217500Y-126939642D01*
X-127169880Y-126892023D01*
X-127074642Y-126844404D01*
X-126884166Y-126796785D01*
X-126646071Y-126796785D01*
X-126455595Y-126844404D01*
X-126360357Y-126892023D01*
X-126312738Y-126939642D01*
X-126265119Y-127034880D01*
X-126265119Y-127130119D01*
X-126312738Y-127225357D01*
X-126360357Y-127272976D01*
X-126455595Y-127320595D01*
X-126646071Y-127368214D01*
X-126884166Y-127368214D01*
X-127074642Y-127320595D01*
X-127169880Y-127272976D01*
X-127217500Y-127225357D01*
X-127265119Y-127130119D01*
X-127265119Y-126463452D02*
X-127265119Y-125796785D01*
X-126265119Y-126225357D01*
%TO.C,R205*%
X-145540119Y-128726547D02*
X-146016309Y-129059880D01*
X-145540119Y-129297976D02*
X-146540119Y-129297976D01*
X-146540119Y-128917023D01*
X-146492500Y-128821785D01*
X-146444880Y-128774166D01*
X-146349642Y-128726547D01*
X-146206785Y-128726547D01*
X-146111547Y-128774166D01*
X-146063928Y-128821785D01*
X-146016309Y-128917023D01*
X-146016309Y-129297976D01*
X-146444880Y-128345595D02*
X-146492500Y-128297976D01*
X-146540119Y-128202738D01*
X-146540119Y-127964642D01*
X-146492500Y-127869404D01*
X-146444880Y-127821785D01*
X-146349642Y-127774166D01*
X-146254404Y-127774166D01*
X-146111547Y-127821785D01*
X-145540119Y-128393214D01*
X-145540119Y-127774166D01*
X-146540119Y-127155119D02*
X-146540119Y-127059880D01*
X-146492500Y-126964642D01*
X-146444880Y-126917023D01*
X-146349642Y-126869404D01*
X-146159166Y-126821785D01*
X-145921071Y-126821785D01*
X-145730595Y-126869404D01*
X-145635357Y-126917023D01*
X-145587738Y-126964642D01*
X-145540119Y-127059880D01*
X-145540119Y-127155119D01*
X-145587738Y-127250357D01*
X-145635357Y-127297976D01*
X-145730595Y-127345595D01*
X-145921071Y-127393214D01*
X-146159166Y-127393214D01*
X-146349642Y-127345595D01*
X-146444880Y-127297976D01*
X-146492500Y-127250357D01*
X-146540119Y-127155119D01*
X-146540119Y-125917023D02*
X-146540119Y-126393214D01*
X-146063928Y-126440833D01*
X-146111547Y-126393214D01*
X-146159166Y-126297976D01*
X-146159166Y-126059880D01*
X-146111547Y-125964642D01*
X-146063928Y-125917023D01*
X-145968690Y-125869404D01*
X-145730595Y-125869404D01*
X-145635357Y-125917023D01*
X-145587738Y-125964642D01*
X-145540119Y-126059880D01*
X-145540119Y-126297976D01*
X-145587738Y-126393214D01*
X-145635357Y-126440833D01*
%TO.C,R206*%
X-135865119Y-128901547D02*
X-136341309Y-129234880D01*
X-135865119Y-129472976D02*
X-136865119Y-129472976D01*
X-136865119Y-129092023D01*
X-136817500Y-128996785D01*
X-136769880Y-128949166D01*
X-136674642Y-128901547D01*
X-136531785Y-128901547D01*
X-136436547Y-128949166D01*
X-136388928Y-128996785D01*
X-136341309Y-129092023D01*
X-136341309Y-129472976D01*
X-136769880Y-128520595D02*
X-136817500Y-128472976D01*
X-136865119Y-128377738D01*
X-136865119Y-128139642D01*
X-136817500Y-128044404D01*
X-136769880Y-127996785D01*
X-136674642Y-127949166D01*
X-136579404Y-127949166D01*
X-136436547Y-127996785D01*
X-135865119Y-128568214D01*
X-135865119Y-127949166D01*
X-136865119Y-127330119D02*
X-136865119Y-127234880D01*
X-136817500Y-127139642D01*
X-136769880Y-127092023D01*
X-136674642Y-127044404D01*
X-136484166Y-126996785D01*
X-136246071Y-126996785D01*
X-136055595Y-127044404D01*
X-135960357Y-127092023D01*
X-135912738Y-127139642D01*
X-135865119Y-127234880D01*
X-135865119Y-127330119D01*
X-135912738Y-127425357D01*
X-135960357Y-127472976D01*
X-136055595Y-127520595D01*
X-136246071Y-127568214D01*
X-136484166Y-127568214D01*
X-136674642Y-127520595D01*
X-136769880Y-127472976D01*
X-136817500Y-127425357D01*
X-136865119Y-127330119D01*
X-136865119Y-126139642D02*
X-136865119Y-126330119D01*
X-136817500Y-126425357D01*
X-136769880Y-126472976D01*
X-136627023Y-126568214D01*
X-136436547Y-126615833D01*
X-136055595Y-126615833D01*
X-135960357Y-126568214D01*
X-135912738Y-126520595D01*
X-135865119Y-126425357D01*
X-135865119Y-126234880D01*
X-135912738Y-126139642D01*
X-135960357Y-126092023D01*
X-136055595Y-126044404D01*
X-136293690Y-126044404D01*
X-136388928Y-126092023D01*
X-136436547Y-126139642D01*
X-136484166Y-126234880D01*
X-136484166Y-126425357D01*
X-136436547Y-126520595D01*
X-136388928Y-126568214D01*
X-136293690Y-126615833D01*
%TO.C,BZ601*%
X-176963928Y-96120833D02*
X-176916309Y-95977976D01*
X-176868690Y-95930357D01*
X-176773452Y-95882738D01*
X-176630595Y-95882738D01*
X-176535357Y-95930357D01*
X-176487738Y-95977976D01*
X-176440119Y-96073214D01*
X-176440119Y-96454166D01*
X-177440119Y-96454166D01*
X-177440119Y-96120833D01*
X-177392500Y-96025595D01*
X-177344880Y-95977976D01*
X-177249642Y-95930357D01*
X-177154404Y-95930357D01*
X-177059166Y-95977976D01*
X-177011547Y-96025595D01*
X-176963928Y-96120833D01*
X-176963928Y-96454166D01*
X-177440119Y-95549404D02*
X-177440119Y-94882738D01*
X-176440119Y-95549404D01*
X-176440119Y-94882738D01*
X-177440119Y-94073214D02*
X-177440119Y-94263690D01*
X-177392500Y-94358928D01*
X-177344880Y-94406547D01*
X-177202023Y-94501785D01*
X-177011547Y-94549404D01*
X-176630595Y-94549404D01*
X-176535357Y-94501785D01*
X-176487738Y-94454166D01*
X-176440119Y-94358928D01*
X-176440119Y-94168452D01*
X-176487738Y-94073214D01*
X-176535357Y-94025595D01*
X-176630595Y-93977976D01*
X-176868690Y-93977976D01*
X-176963928Y-94025595D01*
X-177011547Y-94073214D01*
X-177059166Y-94168452D01*
X-177059166Y-94358928D01*
X-177011547Y-94454166D01*
X-176963928Y-94501785D01*
X-176868690Y-94549404D01*
X-177440119Y-93358928D02*
X-177440119Y-93263690D01*
X-177392500Y-93168452D01*
X-177344880Y-93120833D01*
X-177249642Y-93073214D01*
X-177059166Y-93025595D01*
X-176821071Y-93025595D01*
X-176630595Y-93073214D01*
X-176535357Y-93120833D01*
X-176487738Y-93168452D01*
X-176440119Y-93263690D01*
X-176440119Y-93358928D01*
X-176487738Y-93454166D01*
X-176535357Y-93501785D01*
X-176630595Y-93549404D01*
X-176821071Y-93597023D01*
X-177059166Y-93597023D01*
X-177249642Y-93549404D01*
X-177344880Y-93501785D01*
X-177392500Y-93454166D01*
X-177440119Y-93358928D01*
X-176440119Y-92073214D02*
X-176440119Y-92644642D01*
X-176440119Y-92358928D02*
X-177440119Y-92358928D01*
X-177297261Y-92454166D01*
X-177202023Y-92549404D01*
X-177154404Y-92644642D01*
X-181481071Y-90858452D02*
X-181481071Y-90096547D01*
X-181100119Y-90477500D02*
X-181862023Y-90477500D01*
%TO.C,U202*%
X-168765119Y-111276785D02*
X-167955595Y-111276785D01*
X-167860357Y-111229166D01*
X-167812738Y-111181547D01*
X-167765119Y-111086309D01*
X-167765119Y-110895833D01*
X-167812738Y-110800595D01*
X-167860357Y-110752976D01*
X-167955595Y-110705357D01*
X-168765119Y-110705357D01*
X-168669880Y-110276785D02*
X-168717500Y-110229166D01*
X-168765119Y-110133928D01*
X-168765119Y-109895833D01*
X-168717500Y-109800595D01*
X-168669880Y-109752976D01*
X-168574642Y-109705357D01*
X-168479404Y-109705357D01*
X-168336547Y-109752976D01*
X-167765119Y-110324404D01*
X-167765119Y-109705357D01*
X-168765119Y-109086309D02*
X-168765119Y-108991071D01*
X-168717500Y-108895833D01*
X-168669880Y-108848214D01*
X-168574642Y-108800595D01*
X-168384166Y-108752976D01*
X-168146071Y-108752976D01*
X-167955595Y-108800595D01*
X-167860357Y-108848214D01*
X-167812738Y-108895833D01*
X-167765119Y-108991071D01*
X-167765119Y-109086309D01*
X-167812738Y-109181547D01*
X-167860357Y-109229166D01*
X-167955595Y-109276785D01*
X-168146071Y-109324404D01*
X-168384166Y-109324404D01*
X-168574642Y-109276785D01*
X-168669880Y-109229166D01*
X-168717500Y-109181547D01*
X-168765119Y-109086309D01*
X-168669880Y-108372023D02*
X-168717500Y-108324404D01*
X-168765119Y-108229166D01*
X-168765119Y-107991071D01*
X-168717500Y-107895833D01*
X-168669880Y-107848214D01*
X-168574642Y-107800595D01*
X-168479404Y-107800595D01*
X-168336547Y-107848214D01*
X-167765119Y-108419642D01*
X-167765119Y-107800595D01*
%TO.C,R204*%
X-182165119Y-109681547D02*
X-182641309Y-110014880D01*
X-182165119Y-110252976D02*
X-183165119Y-110252976D01*
X-183165119Y-109872023D01*
X-183117500Y-109776785D01*
X-183069880Y-109729166D01*
X-182974642Y-109681547D01*
X-182831785Y-109681547D01*
X-182736547Y-109729166D01*
X-182688928Y-109776785D01*
X-182641309Y-109872023D01*
X-182641309Y-110252976D01*
X-183069880Y-109300595D02*
X-183117500Y-109252976D01*
X-183165119Y-109157738D01*
X-183165119Y-108919642D01*
X-183117500Y-108824404D01*
X-183069880Y-108776785D01*
X-182974642Y-108729166D01*
X-182879404Y-108729166D01*
X-182736547Y-108776785D01*
X-182165119Y-109348214D01*
X-182165119Y-108729166D01*
X-183165119Y-108110119D02*
X-183165119Y-108014880D01*
X-183117500Y-107919642D01*
X-183069880Y-107872023D01*
X-182974642Y-107824404D01*
X-182784166Y-107776785D01*
X-182546071Y-107776785D01*
X-182355595Y-107824404D01*
X-182260357Y-107872023D01*
X-182212738Y-107919642D01*
X-182165119Y-108014880D01*
X-182165119Y-108110119D01*
X-182212738Y-108205357D01*
X-182260357Y-108252976D01*
X-182355595Y-108300595D01*
X-182546071Y-108348214D01*
X-182784166Y-108348214D01*
X-182974642Y-108300595D01*
X-183069880Y-108252976D01*
X-183117500Y-108205357D01*
X-183165119Y-108110119D01*
X-182831785Y-106919642D02*
X-182165119Y-106919642D01*
X-183212738Y-107157738D02*
X-182498452Y-107395833D01*
X-182498452Y-106776785D01*
%TO.C,J611*%
X-162778214Y-137139880D02*
X-162778214Y-137854166D01*
X-162825833Y-137997023D01*
X-162921071Y-138092261D01*
X-163063928Y-138139880D01*
X-163159166Y-138139880D01*
X-161873452Y-137139880D02*
X-162063928Y-137139880D01*
X-162159166Y-137187500D01*
X-162206785Y-137235119D01*
X-162302023Y-137377976D01*
X-162349642Y-137568452D01*
X-162349642Y-137949404D01*
X-162302023Y-138044642D01*
X-162254404Y-138092261D01*
X-162159166Y-138139880D01*
X-161968690Y-138139880D01*
X-161873452Y-138092261D01*
X-161825833Y-138044642D01*
X-161778214Y-137949404D01*
X-161778214Y-137711309D01*
X-161825833Y-137616071D01*
X-161873452Y-137568452D01*
X-161968690Y-137520833D01*
X-162159166Y-137520833D01*
X-162254404Y-137568452D01*
X-162302023Y-137616071D01*
X-162349642Y-137711309D01*
X-160825833Y-138139880D02*
X-161397261Y-138139880D01*
X-161111547Y-138139880D02*
X-161111547Y-137139880D01*
X-161206785Y-137282738D01*
X-161302023Y-137377976D01*
X-161397261Y-137425595D01*
X-159873452Y-138139880D02*
X-160444880Y-138139880D01*
X-160159166Y-138139880D02*
X-160159166Y-137139880D01*
X-160254404Y-137282738D01*
X-160349642Y-137377976D01*
X-160444880Y-137425595D01*
%TO.C,U302*%
X-121840119Y-61716785D02*
X-121030595Y-61716785D01*
X-120935357Y-61669166D01*
X-120887738Y-61621547D01*
X-120840119Y-61526309D01*
X-120840119Y-61335833D01*
X-120887738Y-61240595D01*
X-120935357Y-61192976D01*
X-121030595Y-61145357D01*
X-121840119Y-61145357D01*
X-121840119Y-60764404D02*
X-121840119Y-60145357D01*
X-121459166Y-60478690D01*
X-121459166Y-60335833D01*
X-121411547Y-60240595D01*
X-121363928Y-60192976D01*
X-121268690Y-60145357D01*
X-121030595Y-60145357D01*
X-120935357Y-60192976D01*
X-120887738Y-60240595D01*
X-120840119Y-60335833D01*
X-120840119Y-60621547D01*
X-120887738Y-60716785D01*
X-120935357Y-60764404D01*
X-121840119Y-59526309D02*
X-121840119Y-59431071D01*
X-121792500Y-59335833D01*
X-121744880Y-59288214D01*
X-121649642Y-59240595D01*
X-121459166Y-59192976D01*
X-121221071Y-59192976D01*
X-121030595Y-59240595D01*
X-120935357Y-59288214D01*
X-120887738Y-59335833D01*
X-120840119Y-59431071D01*
X-120840119Y-59526309D01*
X-120887738Y-59621547D01*
X-120935357Y-59669166D01*
X-121030595Y-59716785D01*
X-121221071Y-59764404D01*
X-121459166Y-59764404D01*
X-121649642Y-59716785D01*
X-121744880Y-59669166D01*
X-121792500Y-59621547D01*
X-121840119Y-59526309D01*
X-121744880Y-58812023D02*
X-121792500Y-58764404D01*
X-121840119Y-58669166D01*
X-121840119Y-58431071D01*
X-121792500Y-58335833D01*
X-121744880Y-58288214D01*
X-121649642Y-58240595D01*
X-121554404Y-58240595D01*
X-121411547Y-58288214D01*
X-120840119Y-58859642D01*
X-120840119Y-58240595D01*
%TO.C,R304*%
X-141440119Y-61806547D02*
X-141916309Y-62139880D01*
X-141440119Y-62377976D02*
X-142440119Y-62377976D01*
X-142440119Y-61997023D01*
X-142392500Y-61901785D01*
X-142344880Y-61854166D01*
X-142249642Y-61806547D01*
X-142106785Y-61806547D01*
X-142011547Y-61854166D01*
X-141963928Y-61901785D01*
X-141916309Y-61997023D01*
X-141916309Y-62377976D01*
X-142440119Y-61473214D02*
X-142440119Y-60854166D01*
X-142059166Y-61187500D01*
X-142059166Y-61044642D01*
X-142011547Y-60949404D01*
X-141963928Y-60901785D01*
X-141868690Y-60854166D01*
X-141630595Y-60854166D01*
X-141535357Y-60901785D01*
X-141487738Y-60949404D01*
X-141440119Y-61044642D01*
X-141440119Y-61330357D01*
X-141487738Y-61425595D01*
X-141535357Y-61473214D01*
X-142440119Y-60235119D02*
X-142440119Y-60139880D01*
X-142392500Y-60044642D01*
X-142344880Y-59997023D01*
X-142249642Y-59949404D01*
X-142059166Y-59901785D01*
X-141821071Y-59901785D01*
X-141630595Y-59949404D01*
X-141535357Y-59997023D01*
X-141487738Y-60044642D01*
X-141440119Y-60139880D01*
X-141440119Y-60235119D01*
X-141487738Y-60330357D01*
X-141535357Y-60377976D01*
X-141630595Y-60425595D01*
X-141821071Y-60473214D01*
X-142059166Y-60473214D01*
X-142249642Y-60425595D01*
X-142344880Y-60377976D01*
X-142392500Y-60330357D01*
X-142440119Y-60235119D01*
X-142106785Y-59044642D02*
X-141440119Y-59044642D01*
X-142487738Y-59282738D02*
X-141773452Y-59520833D01*
X-141773452Y-58901785D01*
%TO.C,J608*%
X-190990119Y-120153214D02*
X-190275833Y-120153214D01*
X-190132976Y-120200833D01*
X-190037738Y-120296071D01*
X-189990119Y-120438928D01*
X-189990119Y-120534166D01*
X-190990119Y-119248452D02*
X-190990119Y-119438928D01*
X-190942500Y-119534166D01*
X-190894880Y-119581785D01*
X-190752023Y-119677023D01*
X-190561547Y-119724642D01*
X-190180595Y-119724642D01*
X-190085357Y-119677023D01*
X-190037738Y-119629404D01*
X-189990119Y-119534166D01*
X-189990119Y-119343690D01*
X-190037738Y-119248452D01*
X-190085357Y-119200833D01*
X-190180595Y-119153214D01*
X-190418690Y-119153214D01*
X-190513928Y-119200833D01*
X-190561547Y-119248452D01*
X-190609166Y-119343690D01*
X-190609166Y-119534166D01*
X-190561547Y-119629404D01*
X-190513928Y-119677023D01*
X-190418690Y-119724642D01*
X-190990119Y-118534166D02*
X-190990119Y-118438928D01*
X-190942500Y-118343690D01*
X-190894880Y-118296071D01*
X-190799642Y-118248452D01*
X-190609166Y-118200833D01*
X-190371071Y-118200833D01*
X-190180595Y-118248452D01*
X-190085357Y-118296071D01*
X-190037738Y-118343690D01*
X-189990119Y-118438928D01*
X-189990119Y-118534166D01*
X-190037738Y-118629404D01*
X-190085357Y-118677023D01*
X-190180595Y-118724642D01*
X-190371071Y-118772261D01*
X-190609166Y-118772261D01*
X-190799642Y-118724642D01*
X-190894880Y-118677023D01*
X-190942500Y-118629404D01*
X-190990119Y-118534166D01*
X-190561547Y-117629404D02*
X-190609166Y-117724642D01*
X-190656785Y-117772261D01*
X-190752023Y-117819880D01*
X-190799642Y-117819880D01*
X-190894880Y-117772261D01*
X-190942500Y-117724642D01*
X-190990119Y-117629404D01*
X-190990119Y-117438928D01*
X-190942500Y-117343690D01*
X-190894880Y-117296071D01*
X-190799642Y-117248452D01*
X-190752023Y-117248452D01*
X-190656785Y-117296071D01*
X-190609166Y-117343690D01*
X-190561547Y-117438928D01*
X-190561547Y-117629404D01*
X-190513928Y-117724642D01*
X-190466309Y-117772261D01*
X-190371071Y-117819880D01*
X-190180595Y-117819880D01*
X-190085357Y-117772261D01*
X-190037738Y-117724642D01*
X-189990119Y-117629404D01*
X-189990119Y-117438928D01*
X-190037738Y-117343690D01*
X-190085357Y-117296071D01*
X-190180595Y-117248452D01*
X-190371071Y-117248452D01*
X-190466309Y-117296071D01*
X-190513928Y-117343690D01*
X-190561547Y-117438928D01*
%TO.C,U201*%
X-178540119Y-131501785D02*
X-177730595Y-131501785D01*
X-177635357Y-131454166D01*
X-177587738Y-131406547D01*
X-177540119Y-131311309D01*
X-177540119Y-131120833D01*
X-177587738Y-131025595D01*
X-177635357Y-130977976D01*
X-177730595Y-130930357D01*
X-178540119Y-130930357D01*
X-178444880Y-130501785D02*
X-178492500Y-130454166D01*
X-178540119Y-130358928D01*
X-178540119Y-130120833D01*
X-178492500Y-130025595D01*
X-178444880Y-129977976D01*
X-178349642Y-129930357D01*
X-178254404Y-129930357D01*
X-178111547Y-129977976D01*
X-177540119Y-130549404D01*
X-177540119Y-129930357D01*
X-178540119Y-129311309D02*
X-178540119Y-129216071D01*
X-178492500Y-129120833D01*
X-178444880Y-129073214D01*
X-178349642Y-129025595D01*
X-178159166Y-128977976D01*
X-177921071Y-128977976D01*
X-177730595Y-129025595D01*
X-177635357Y-129073214D01*
X-177587738Y-129120833D01*
X-177540119Y-129216071D01*
X-177540119Y-129311309D01*
X-177587738Y-129406547D01*
X-177635357Y-129454166D01*
X-177730595Y-129501785D01*
X-177921071Y-129549404D01*
X-178159166Y-129549404D01*
X-178349642Y-129501785D01*
X-178444880Y-129454166D01*
X-178492500Y-129406547D01*
X-178540119Y-129311309D01*
X-177540119Y-128025595D02*
X-177540119Y-128597023D01*
X-177540119Y-128311309D02*
X-178540119Y-128311309D01*
X-178397261Y-128406547D01*
X-178302023Y-128501785D01*
X-178254404Y-128597023D01*
%TO.C,U203*%
X-169040119Y-131586785D02*
X-168230595Y-131586785D01*
X-168135357Y-131539166D01*
X-168087738Y-131491547D01*
X-168040119Y-131396309D01*
X-168040119Y-131205833D01*
X-168087738Y-131110595D01*
X-168135357Y-131062976D01*
X-168230595Y-131015357D01*
X-169040119Y-131015357D01*
X-168944880Y-130586785D02*
X-168992500Y-130539166D01*
X-169040119Y-130443928D01*
X-169040119Y-130205833D01*
X-168992500Y-130110595D01*
X-168944880Y-130062976D01*
X-168849642Y-130015357D01*
X-168754404Y-130015357D01*
X-168611547Y-130062976D01*
X-168040119Y-130634404D01*
X-168040119Y-130015357D01*
X-169040119Y-129396309D02*
X-169040119Y-129301071D01*
X-168992500Y-129205833D01*
X-168944880Y-129158214D01*
X-168849642Y-129110595D01*
X-168659166Y-129062976D01*
X-168421071Y-129062976D01*
X-168230595Y-129110595D01*
X-168135357Y-129158214D01*
X-168087738Y-129205833D01*
X-168040119Y-129301071D01*
X-168040119Y-129396309D01*
X-168087738Y-129491547D01*
X-168135357Y-129539166D01*
X-168230595Y-129586785D01*
X-168421071Y-129634404D01*
X-168659166Y-129634404D01*
X-168849642Y-129586785D01*
X-168944880Y-129539166D01*
X-168992500Y-129491547D01*
X-169040119Y-129396309D01*
X-169040119Y-128729642D02*
X-169040119Y-128110595D01*
X-168659166Y-128443928D01*
X-168659166Y-128301071D01*
X-168611547Y-128205833D01*
X-168563928Y-128158214D01*
X-168468690Y-128110595D01*
X-168230595Y-128110595D01*
X-168135357Y-128158214D01*
X-168087738Y-128205833D01*
X-168040119Y-128301071D01*
X-168040119Y-128586785D01*
X-168087738Y-128682023D01*
X-168135357Y-128729642D01*
%TO.C,U101*%
X-122909880Y-80188214D02*
X-123719404Y-80188214D01*
X-123814642Y-80235833D01*
X-123862261Y-80283452D01*
X-123909880Y-80378690D01*
X-123909880Y-80569166D01*
X-123862261Y-80664404D01*
X-123814642Y-80712023D01*
X-123719404Y-80759642D01*
X-122909880Y-80759642D01*
X-123909880Y-81759642D02*
X-123909880Y-81188214D01*
X-123909880Y-81473928D02*
X-122909880Y-81473928D01*
X-123052738Y-81378690D01*
X-123147976Y-81283452D01*
X-123195595Y-81188214D01*
X-122909880Y-82378690D02*
X-122909880Y-82473928D01*
X-122957500Y-82569166D01*
X-123005119Y-82616785D01*
X-123100357Y-82664404D01*
X-123290833Y-82712023D01*
X-123528928Y-82712023D01*
X-123719404Y-82664404D01*
X-123814642Y-82616785D01*
X-123862261Y-82569166D01*
X-123909880Y-82473928D01*
X-123909880Y-82378690D01*
X-123862261Y-82283452D01*
X-123814642Y-82235833D01*
X-123719404Y-82188214D01*
X-123528928Y-82140595D01*
X-123290833Y-82140595D01*
X-123100357Y-82188214D01*
X-123005119Y-82235833D01*
X-122957500Y-82283452D01*
X-122909880Y-82378690D01*
X-123909880Y-83664404D02*
X-123909880Y-83092976D01*
X-123909880Y-83378690D02*
X-122909880Y-83378690D01*
X-123052738Y-83283452D01*
X-123147976Y-83188214D01*
X-123195595Y-83092976D01*
X-125449880Y-87625595D02*
X-126259404Y-87625595D01*
X-126354642Y-87673214D01*
X-126402261Y-87720833D01*
X-126449880Y-87816071D01*
X-126449880Y-88006547D01*
X-126402261Y-88101785D01*
X-126354642Y-88149404D01*
X-126259404Y-88197023D01*
X-125449880Y-88197023D01*
X-126402261Y-88625595D02*
X-126449880Y-88768452D01*
X-126449880Y-89006547D01*
X-126402261Y-89101785D01*
X-126354642Y-89149404D01*
X-126259404Y-89197023D01*
X-126164166Y-89197023D01*
X-126068928Y-89149404D01*
X-126021309Y-89101785D01*
X-125973690Y-89006547D01*
X-125926071Y-88816071D01*
X-125878452Y-88720833D01*
X-125830833Y-88673214D01*
X-125735595Y-88625595D01*
X-125640357Y-88625595D01*
X-125545119Y-88673214D01*
X-125497500Y-88720833D01*
X-125449880Y-88816071D01*
X-125449880Y-89054166D01*
X-125497500Y-89197023D01*
X-125926071Y-89958928D02*
X-125973690Y-90101785D01*
X-126021309Y-90149404D01*
X-126116547Y-90197023D01*
X-126259404Y-90197023D01*
X-126354642Y-90149404D01*
X-126402261Y-90101785D01*
X-126449880Y-90006547D01*
X-126449880Y-89625595D01*
X-125449880Y-89625595D01*
X-125449880Y-89958928D01*
X-125497500Y-90054166D01*
X-125545119Y-90101785D01*
X-125640357Y-90149404D01*
X-125735595Y-90149404D01*
X-125830833Y-90101785D01*
X-125878452Y-90054166D01*
X-125926071Y-89958928D01*
X-125926071Y-89625595D01*
%TO.C,D101*%
X-187722976Y-68799880D02*
X-187722976Y-67799880D01*
X-187484880Y-67799880D01*
X-187342023Y-67847500D01*
X-187246785Y-67942738D01*
X-187199166Y-68037976D01*
X-187151547Y-68228452D01*
X-187151547Y-68371309D01*
X-187199166Y-68561785D01*
X-187246785Y-68657023D01*
X-187342023Y-68752261D01*
X-187484880Y-68799880D01*
X-187722976Y-68799880D01*
X-186199166Y-68799880D02*
X-186770595Y-68799880D01*
X-186484880Y-68799880D02*
X-186484880Y-67799880D01*
X-186580119Y-67942738D01*
X-186675357Y-68037976D01*
X-186770595Y-68085595D01*
X-185580119Y-67799880D02*
X-185484880Y-67799880D01*
X-185389642Y-67847500D01*
X-185342023Y-67895119D01*
X-185294404Y-67990357D01*
X-185246785Y-68180833D01*
X-185246785Y-68418928D01*
X-185294404Y-68609404D01*
X-185342023Y-68704642D01*
X-185389642Y-68752261D01*
X-185484880Y-68799880D01*
X-185580119Y-68799880D01*
X-185675357Y-68752261D01*
X-185722976Y-68704642D01*
X-185770595Y-68609404D01*
X-185818214Y-68418928D01*
X-185818214Y-68180833D01*
X-185770595Y-67990357D01*
X-185722976Y-67895119D01*
X-185675357Y-67847500D01*
X-185580119Y-67799880D01*
X-184294404Y-68799880D02*
X-184865833Y-68799880D01*
X-184580119Y-68799880D02*
X-184580119Y-67799880D01*
X-184675357Y-67942738D01*
X-184770595Y-68037976D01*
X-184865833Y-68085595D01*
%TO.C,U301*%
X-115640119Y-61701785D02*
X-114830595Y-61701785D01*
X-114735357Y-61654166D01*
X-114687738Y-61606547D01*
X-114640119Y-61511309D01*
X-114640119Y-61320833D01*
X-114687738Y-61225595D01*
X-114735357Y-61177976D01*
X-114830595Y-61130357D01*
X-115640119Y-61130357D01*
X-115640119Y-60749404D02*
X-115640119Y-60130357D01*
X-115259166Y-60463690D01*
X-115259166Y-60320833D01*
X-115211547Y-60225595D01*
X-115163928Y-60177976D01*
X-115068690Y-60130357D01*
X-114830595Y-60130357D01*
X-114735357Y-60177976D01*
X-114687738Y-60225595D01*
X-114640119Y-60320833D01*
X-114640119Y-60606547D01*
X-114687738Y-60701785D01*
X-114735357Y-60749404D01*
X-115640119Y-59511309D02*
X-115640119Y-59416071D01*
X-115592500Y-59320833D01*
X-115544880Y-59273214D01*
X-115449642Y-59225595D01*
X-115259166Y-59177976D01*
X-115021071Y-59177976D01*
X-114830595Y-59225595D01*
X-114735357Y-59273214D01*
X-114687738Y-59320833D01*
X-114640119Y-59416071D01*
X-114640119Y-59511309D01*
X-114687738Y-59606547D01*
X-114735357Y-59654166D01*
X-114830595Y-59701785D01*
X-115021071Y-59749404D01*
X-115259166Y-59749404D01*
X-115449642Y-59701785D01*
X-115544880Y-59654166D01*
X-115592500Y-59606547D01*
X-115640119Y-59511309D01*
X-114640119Y-58225595D02*
X-114640119Y-58797023D01*
X-114640119Y-58511309D02*
X-115640119Y-58511309D01*
X-115497261Y-58606547D01*
X-115402023Y-58701785D01*
X-115354404Y-58797023D01*
%TO.C,R208*%
X-116965119Y-128881547D02*
X-117441309Y-129214880D01*
X-116965119Y-129452976D02*
X-117965119Y-129452976D01*
X-117965119Y-129072023D01*
X-117917500Y-128976785D01*
X-117869880Y-128929166D01*
X-117774642Y-128881547D01*
X-117631785Y-128881547D01*
X-117536547Y-128929166D01*
X-117488928Y-128976785D01*
X-117441309Y-129072023D01*
X-117441309Y-129452976D01*
X-117869880Y-128500595D02*
X-117917500Y-128452976D01*
X-117965119Y-128357738D01*
X-117965119Y-128119642D01*
X-117917500Y-128024404D01*
X-117869880Y-127976785D01*
X-117774642Y-127929166D01*
X-117679404Y-127929166D01*
X-117536547Y-127976785D01*
X-116965119Y-128548214D01*
X-116965119Y-127929166D01*
X-117965119Y-127310119D02*
X-117965119Y-127214880D01*
X-117917500Y-127119642D01*
X-117869880Y-127072023D01*
X-117774642Y-127024404D01*
X-117584166Y-126976785D01*
X-117346071Y-126976785D01*
X-117155595Y-127024404D01*
X-117060357Y-127072023D01*
X-117012738Y-127119642D01*
X-116965119Y-127214880D01*
X-116965119Y-127310119D01*
X-117012738Y-127405357D01*
X-117060357Y-127452976D01*
X-117155595Y-127500595D01*
X-117346071Y-127548214D01*
X-117584166Y-127548214D01*
X-117774642Y-127500595D01*
X-117869880Y-127452976D01*
X-117917500Y-127405357D01*
X-117965119Y-127310119D01*
X-117536547Y-126405357D02*
X-117584166Y-126500595D01*
X-117631785Y-126548214D01*
X-117727023Y-126595833D01*
X-117774642Y-126595833D01*
X-117869880Y-126548214D01*
X-117917500Y-126500595D01*
X-117965119Y-126405357D01*
X-117965119Y-126214880D01*
X-117917500Y-126119642D01*
X-117869880Y-126072023D01*
X-117774642Y-126024404D01*
X-117727023Y-126024404D01*
X-117631785Y-126072023D01*
X-117584166Y-126119642D01*
X-117536547Y-126214880D01*
X-117536547Y-126405357D01*
X-117488928Y-126500595D01*
X-117441309Y-126548214D01*
X-117346071Y-126595833D01*
X-117155595Y-126595833D01*
X-117060357Y-126548214D01*
X-117012738Y-126500595D01*
X-116965119Y-126405357D01*
X-116965119Y-126214880D01*
X-117012738Y-126119642D01*
X-117060357Y-126072023D01*
X-117155595Y-126024404D01*
X-117346071Y-126024404D01*
X-117441309Y-126072023D01*
X-117488928Y-126119642D01*
X-117536547Y-126214880D01*
%TO.C,D102*%
X-193380119Y-80137976D02*
X-194380119Y-80137976D01*
X-194380119Y-79899880D01*
X-194332500Y-79757023D01*
X-194237261Y-79661785D01*
X-194142023Y-79614166D01*
X-193951547Y-79566547D01*
X-193808690Y-79566547D01*
X-193618214Y-79614166D01*
X-193522976Y-79661785D01*
X-193427738Y-79757023D01*
X-193380119Y-79899880D01*
X-193380119Y-80137976D01*
X-193380119Y-78614166D02*
X-193380119Y-79185595D01*
X-193380119Y-78899880D02*
X-194380119Y-78899880D01*
X-194237261Y-78995119D01*
X-194142023Y-79090357D01*
X-194094404Y-79185595D01*
X-194380119Y-77995119D02*
X-194380119Y-77899880D01*
X-194332500Y-77804642D01*
X-194284880Y-77757023D01*
X-194189642Y-77709404D01*
X-193999166Y-77661785D01*
X-193761071Y-77661785D01*
X-193570595Y-77709404D01*
X-193475357Y-77757023D01*
X-193427738Y-77804642D01*
X-193380119Y-77899880D01*
X-193380119Y-77995119D01*
X-193427738Y-78090357D01*
X-193475357Y-78137976D01*
X-193570595Y-78185595D01*
X-193761071Y-78233214D01*
X-193999166Y-78233214D01*
X-194189642Y-78185595D01*
X-194284880Y-78137976D01*
X-194332500Y-78090357D01*
X-194380119Y-77995119D01*
X-194284880Y-77280833D02*
X-194332500Y-77233214D01*
X-194380119Y-77137976D01*
X-194380119Y-76899880D01*
X-194332500Y-76804642D01*
X-194284880Y-76757023D01*
X-194189642Y-76709404D01*
X-194094404Y-76709404D01*
X-193951547Y-76757023D01*
X-193380119Y-77328452D01*
X-193380119Y-76709404D01*
%TO.C,U303*%
X-127740119Y-61801785D02*
X-126930595Y-61801785D01*
X-126835357Y-61754166D01*
X-126787738Y-61706547D01*
X-126740119Y-61611309D01*
X-126740119Y-61420833D01*
X-126787738Y-61325595D01*
X-126835357Y-61277976D01*
X-126930595Y-61230357D01*
X-127740119Y-61230357D01*
X-127740119Y-60849404D02*
X-127740119Y-60230357D01*
X-127359166Y-60563690D01*
X-127359166Y-60420833D01*
X-127311547Y-60325595D01*
X-127263928Y-60277976D01*
X-127168690Y-60230357D01*
X-126930595Y-60230357D01*
X-126835357Y-60277976D01*
X-126787738Y-60325595D01*
X-126740119Y-60420833D01*
X-126740119Y-60706547D01*
X-126787738Y-60801785D01*
X-126835357Y-60849404D01*
X-127740119Y-59611309D02*
X-127740119Y-59516071D01*
X-127692500Y-59420833D01*
X-127644880Y-59373214D01*
X-127549642Y-59325595D01*
X-127359166Y-59277976D01*
X-127121071Y-59277976D01*
X-126930595Y-59325595D01*
X-126835357Y-59373214D01*
X-126787738Y-59420833D01*
X-126740119Y-59516071D01*
X-126740119Y-59611309D01*
X-126787738Y-59706547D01*
X-126835357Y-59754166D01*
X-126930595Y-59801785D01*
X-127121071Y-59849404D01*
X-127359166Y-59849404D01*
X-127549642Y-59801785D01*
X-127644880Y-59754166D01*
X-127692500Y-59706547D01*
X-127740119Y-59611309D01*
X-127740119Y-58944642D02*
X-127740119Y-58325595D01*
X-127359166Y-58658928D01*
X-127359166Y-58516071D01*
X-127311547Y-58420833D01*
X-127263928Y-58373214D01*
X-127168690Y-58325595D01*
X-126930595Y-58325595D01*
X-126835357Y-58373214D01*
X-126787738Y-58420833D01*
X-126740119Y-58516071D01*
X-126740119Y-58801785D01*
X-126787738Y-58897023D01*
X-126835357Y-58944642D01*
%TO.C,U207*%
X-122465119Y-130276785D02*
X-121655595Y-130276785D01*
X-121560357Y-130229166D01*
X-121512738Y-130181547D01*
X-121465119Y-130086309D01*
X-121465119Y-129895833D01*
X-121512738Y-129800595D01*
X-121560357Y-129752976D01*
X-121655595Y-129705357D01*
X-122465119Y-129705357D01*
X-122369880Y-129276785D02*
X-122417500Y-129229166D01*
X-122465119Y-129133928D01*
X-122465119Y-128895833D01*
X-122417500Y-128800595D01*
X-122369880Y-128752976D01*
X-122274642Y-128705357D01*
X-122179404Y-128705357D01*
X-122036547Y-128752976D01*
X-121465119Y-129324404D01*
X-121465119Y-128705357D01*
X-122465119Y-128086309D02*
X-122465119Y-127991071D01*
X-122417500Y-127895833D01*
X-122369880Y-127848214D01*
X-122274642Y-127800595D01*
X-122084166Y-127752976D01*
X-121846071Y-127752976D01*
X-121655595Y-127800595D01*
X-121560357Y-127848214D01*
X-121512738Y-127895833D01*
X-121465119Y-127991071D01*
X-121465119Y-128086309D01*
X-121512738Y-128181547D01*
X-121560357Y-128229166D01*
X-121655595Y-128276785D01*
X-121846071Y-128324404D01*
X-122084166Y-128324404D01*
X-122274642Y-128276785D01*
X-122369880Y-128229166D01*
X-122417500Y-128181547D01*
X-122465119Y-128086309D01*
X-122465119Y-127419642D02*
X-122465119Y-126752976D01*
X-121465119Y-127181547D01*
%TO.C,U204*%
X-178065119Y-111076785D02*
X-177255595Y-111076785D01*
X-177160357Y-111029166D01*
X-177112738Y-110981547D01*
X-177065119Y-110886309D01*
X-177065119Y-110695833D01*
X-177112738Y-110600595D01*
X-177160357Y-110552976D01*
X-177255595Y-110505357D01*
X-178065119Y-110505357D01*
X-177969880Y-110076785D02*
X-178017500Y-110029166D01*
X-178065119Y-109933928D01*
X-178065119Y-109695833D01*
X-178017500Y-109600595D01*
X-177969880Y-109552976D01*
X-177874642Y-109505357D01*
X-177779404Y-109505357D01*
X-177636547Y-109552976D01*
X-177065119Y-110124404D01*
X-177065119Y-109505357D01*
X-178065119Y-108886309D02*
X-178065119Y-108791071D01*
X-178017500Y-108695833D01*
X-177969880Y-108648214D01*
X-177874642Y-108600595D01*
X-177684166Y-108552976D01*
X-177446071Y-108552976D01*
X-177255595Y-108600595D01*
X-177160357Y-108648214D01*
X-177112738Y-108695833D01*
X-177065119Y-108791071D01*
X-177065119Y-108886309D01*
X-177112738Y-108981547D01*
X-177160357Y-109029166D01*
X-177255595Y-109076785D01*
X-177446071Y-109124404D01*
X-177684166Y-109124404D01*
X-177874642Y-109076785D01*
X-177969880Y-109029166D01*
X-178017500Y-108981547D01*
X-178065119Y-108886309D01*
X-177731785Y-107695833D02*
X-177065119Y-107695833D01*
X-178112738Y-107933928D02*
X-177398452Y-108172023D01*
X-177398452Y-107552976D01*
%TO.C,U208*%
X-113165119Y-130376785D02*
X-112355595Y-130376785D01*
X-112260357Y-130329166D01*
X-112212738Y-130281547D01*
X-112165119Y-130186309D01*
X-112165119Y-129995833D01*
X-112212738Y-129900595D01*
X-112260357Y-129852976D01*
X-112355595Y-129805357D01*
X-113165119Y-129805357D01*
X-113069880Y-129376785D02*
X-113117500Y-129329166D01*
X-113165119Y-129233928D01*
X-113165119Y-128995833D01*
X-113117500Y-128900595D01*
X-113069880Y-128852976D01*
X-112974642Y-128805357D01*
X-112879404Y-128805357D01*
X-112736547Y-128852976D01*
X-112165119Y-129424404D01*
X-112165119Y-128805357D01*
X-113165119Y-128186309D02*
X-113165119Y-128091071D01*
X-113117500Y-127995833D01*
X-113069880Y-127948214D01*
X-112974642Y-127900595D01*
X-112784166Y-127852976D01*
X-112546071Y-127852976D01*
X-112355595Y-127900595D01*
X-112260357Y-127948214D01*
X-112212738Y-127995833D01*
X-112165119Y-128091071D01*
X-112165119Y-128186309D01*
X-112212738Y-128281547D01*
X-112260357Y-128329166D01*
X-112355595Y-128376785D01*
X-112546071Y-128424404D01*
X-112784166Y-128424404D01*
X-112974642Y-128376785D01*
X-113069880Y-128329166D01*
X-113117500Y-128281547D01*
X-113165119Y-128186309D01*
X-112736547Y-127281547D02*
X-112784166Y-127376785D01*
X-112831785Y-127424404D01*
X-112927023Y-127472023D01*
X-112974642Y-127472023D01*
X-113069880Y-127424404D01*
X-113117500Y-127376785D01*
X-113165119Y-127281547D01*
X-113165119Y-127091071D01*
X-113117500Y-126995833D01*
X-113069880Y-126948214D01*
X-112974642Y-126900595D01*
X-112927023Y-126900595D01*
X-112831785Y-126948214D01*
X-112784166Y-126995833D01*
X-112736547Y-127091071D01*
X-112736547Y-127281547D01*
X-112688928Y-127376785D01*
X-112641309Y-127424404D01*
X-112546071Y-127472023D01*
X-112355595Y-127472023D01*
X-112260357Y-127424404D01*
X-112212738Y-127376785D01*
X-112165119Y-127281547D01*
X-112165119Y-127091071D01*
X-112212738Y-126995833D01*
X-112260357Y-126948214D01*
X-112355595Y-126900595D01*
X-112546071Y-126900595D01*
X-112641309Y-126948214D01*
X-112688928Y-126995833D01*
X-112736547Y-127091071D01*
%TO.C,D101*%
X-187622976Y-65299880D02*
X-187622976Y-64299880D01*
X-187384880Y-64299880D01*
X-187242023Y-64347500D01*
X-187146785Y-64442738D01*
X-187099166Y-64537976D01*
X-187051547Y-64728452D01*
X-187051547Y-64871309D01*
X-187099166Y-65061785D01*
X-187146785Y-65157023D01*
X-187242023Y-65252261D01*
X-187384880Y-65299880D01*
X-187622976Y-65299880D01*
X-186099166Y-65299880D02*
X-186670595Y-65299880D01*
X-186384880Y-65299880D02*
X-186384880Y-64299880D01*
X-186480119Y-64442738D01*
X-186575357Y-64537976D01*
X-186670595Y-64585595D01*
X-185480119Y-64299880D02*
X-185384880Y-64299880D01*
X-185289642Y-64347500D01*
X-185242023Y-64395119D01*
X-185194404Y-64490357D01*
X-185146785Y-64680833D01*
X-185146785Y-64918928D01*
X-185194404Y-65109404D01*
X-185242023Y-65204642D01*
X-185289642Y-65252261D01*
X-185384880Y-65299880D01*
X-185480119Y-65299880D01*
X-185575357Y-65252261D01*
X-185622976Y-65204642D01*
X-185670595Y-65109404D01*
X-185718214Y-64918928D01*
X-185718214Y-64680833D01*
X-185670595Y-64490357D01*
X-185622976Y-64395119D01*
X-185575357Y-64347500D01*
X-185480119Y-64299880D01*
X-184194404Y-65299880D02*
X-184765833Y-65299880D01*
X-184480119Y-65299880D02*
X-184480119Y-64299880D01*
X-184575357Y-64442738D01*
X-184670595Y-64537976D01*
X-184765833Y-64585595D01*
%TO.C,J101*%
X-198918214Y-75099880D02*
X-198918214Y-75814166D01*
X-198965833Y-75957023D01*
X-199061071Y-76052261D01*
X-199203928Y-76099880D01*
X-199299166Y-76099880D01*
X-197918214Y-76099880D02*
X-198489642Y-76099880D01*
X-198203928Y-76099880D02*
X-198203928Y-75099880D01*
X-198299166Y-75242738D01*
X-198394404Y-75337976D01*
X-198489642Y-75385595D01*
X-197299166Y-75099880D02*
X-197203928Y-75099880D01*
X-197108690Y-75147500D01*
X-197061071Y-75195119D01*
X-197013452Y-75290357D01*
X-196965833Y-75480833D01*
X-196965833Y-75718928D01*
X-197013452Y-75909404D01*
X-197061071Y-76004642D01*
X-197108690Y-76052261D01*
X-197203928Y-76099880D01*
X-197299166Y-76099880D01*
X-197394404Y-76052261D01*
X-197442023Y-76004642D01*
X-197489642Y-75909404D01*
X-197537261Y-75718928D01*
X-197537261Y-75480833D01*
X-197489642Y-75290357D01*
X-197442023Y-75195119D01*
X-197394404Y-75147500D01*
X-197299166Y-75099880D01*
X-196013452Y-76099880D02*
X-196584880Y-76099880D01*
X-196299166Y-76099880D02*
X-196299166Y-75099880D01*
X-196394404Y-75242738D01*
X-196489642Y-75337976D01*
X-196584880Y-75385595D01*
%TO.C,R303*%
X-138040119Y-61906547D02*
X-138516309Y-62239880D01*
X-138040119Y-62477976D02*
X-139040119Y-62477976D01*
X-139040119Y-62097023D01*
X-138992500Y-62001785D01*
X-138944880Y-61954166D01*
X-138849642Y-61906547D01*
X-138706785Y-61906547D01*
X-138611547Y-61954166D01*
X-138563928Y-62001785D01*
X-138516309Y-62097023D01*
X-138516309Y-62477976D01*
X-139040119Y-61573214D02*
X-139040119Y-60954166D01*
X-138659166Y-61287500D01*
X-138659166Y-61144642D01*
X-138611547Y-61049404D01*
X-138563928Y-61001785D01*
X-138468690Y-60954166D01*
X-138230595Y-60954166D01*
X-138135357Y-61001785D01*
X-138087738Y-61049404D01*
X-138040119Y-61144642D01*
X-138040119Y-61430357D01*
X-138087738Y-61525595D01*
X-138135357Y-61573214D01*
X-139040119Y-60335119D02*
X-139040119Y-60239880D01*
X-138992500Y-60144642D01*
X-138944880Y-60097023D01*
X-138849642Y-60049404D01*
X-138659166Y-60001785D01*
X-138421071Y-60001785D01*
X-138230595Y-60049404D01*
X-138135357Y-60097023D01*
X-138087738Y-60144642D01*
X-138040119Y-60239880D01*
X-138040119Y-60335119D01*
X-138087738Y-60430357D01*
X-138135357Y-60477976D01*
X-138230595Y-60525595D01*
X-138421071Y-60573214D01*
X-138659166Y-60573214D01*
X-138849642Y-60525595D01*
X-138944880Y-60477976D01*
X-138992500Y-60430357D01*
X-139040119Y-60335119D01*
X-139040119Y-59668452D02*
X-139040119Y-59049404D01*
X-138659166Y-59382738D01*
X-138659166Y-59239880D01*
X-138611547Y-59144642D01*
X-138563928Y-59097023D01*
X-138468690Y-59049404D01*
X-138230595Y-59049404D01*
X-138135357Y-59097023D01*
X-138087738Y-59144642D01*
X-138040119Y-59239880D01*
X-138040119Y-59525595D01*
X-138087738Y-59620833D01*
X-138135357Y-59668452D01*
%TO.C,U205*%
X-141640119Y-130016785D02*
X-140830595Y-130016785D01*
X-140735357Y-129969166D01*
X-140687738Y-129921547D01*
X-140640119Y-129826309D01*
X-140640119Y-129635833D01*
X-140687738Y-129540595D01*
X-140735357Y-129492976D01*
X-140830595Y-129445357D01*
X-141640119Y-129445357D01*
X-141544880Y-129016785D02*
X-141592500Y-128969166D01*
X-141640119Y-128873928D01*
X-141640119Y-128635833D01*
X-141592500Y-128540595D01*
X-141544880Y-128492976D01*
X-141449642Y-128445357D01*
X-141354404Y-128445357D01*
X-141211547Y-128492976D01*
X-140640119Y-129064404D01*
X-140640119Y-128445357D01*
X-141640119Y-127826309D02*
X-141640119Y-127731071D01*
X-141592500Y-127635833D01*
X-141544880Y-127588214D01*
X-141449642Y-127540595D01*
X-141259166Y-127492976D01*
X-141021071Y-127492976D01*
X-140830595Y-127540595D01*
X-140735357Y-127588214D01*
X-140687738Y-127635833D01*
X-140640119Y-127731071D01*
X-140640119Y-127826309D01*
X-140687738Y-127921547D01*
X-140735357Y-127969166D01*
X-140830595Y-128016785D01*
X-141021071Y-128064404D01*
X-141259166Y-128064404D01*
X-141449642Y-128016785D01*
X-141544880Y-127969166D01*
X-141592500Y-127921547D01*
X-141640119Y-127826309D01*
X-141640119Y-126588214D02*
X-141640119Y-127064404D01*
X-141163928Y-127112023D01*
X-141211547Y-127064404D01*
X-141259166Y-126969166D01*
X-141259166Y-126731071D01*
X-141211547Y-126635833D01*
X-141163928Y-126588214D01*
X-141068690Y-126540595D01*
X-140830595Y-126540595D01*
X-140735357Y-126588214D01*
X-140687738Y-126635833D01*
X-140640119Y-126731071D01*
X-140640119Y-126969166D01*
X-140687738Y-127064404D01*
X-140735357Y-127112023D01*
%TO.C,R202*%
X-172565119Y-109601547D02*
X-173041309Y-109934880D01*
X-172565119Y-110172976D02*
X-173565119Y-110172976D01*
X-173565119Y-109792023D01*
X-173517500Y-109696785D01*
X-173469880Y-109649166D01*
X-173374642Y-109601547D01*
X-173231785Y-109601547D01*
X-173136547Y-109649166D01*
X-173088928Y-109696785D01*
X-173041309Y-109792023D01*
X-173041309Y-110172976D01*
X-173469880Y-109220595D02*
X-173517500Y-109172976D01*
X-173565119Y-109077738D01*
X-173565119Y-108839642D01*
X-173517500Y-108744404D01*
X-173469880Y-108696785D01*
X-173374642Y-108649166D01*
X-173279404Y-108649166D01*
X-173136547Y-108696785D01*
X-172565119Y-109268214D01*
X-172565119Y-108649166D01*
X-173565119Y-108030119D02*
X-173565119Y-107934880D01*
X-173517500Y-107839642D01*
X-173469880Y-107792023D01*
X-173374642Y-107744404D01*
X-173184166Y-107696785D01*
X-172946071Y-107696785D01*
X-172755595Y-107744404D01*
X-172660357Y-107792023D01*
X-172612738Y-107839642D01*
X-172565119Y-107934880D01*
X-172565119Y-108030119D01*
X-172612738Y-108125357D01*
X-172660357Y-108172976D01*
X-172755595Y-108220595D01*
X-172946071Y-108268214D01*
X-173184166Y-108268214D01*
X-173374642Y-108220595D01*
X-173469880Y-108172976D01*
X-173517500Y-108125357D01*
X-173565119Y-108030119D01*
X-173469880Y-107315833D02*
X-173517500Y-107268214D01*
X-173565119Y-107172976D01*
X-173565119Y-106934880D01*
X-173517500Y-106839642D01*
X-173469880Y-106792023D01*
X-173374642Y-106744404D01*
X-173279404Y-106744404D01*
X-173136547Y-106792023D01*
X-172565119Y-107363452D01*
X-172565119Y-106744404D01*
%TO.C,F101*%
X-192118214Y-62476071D02*
X-192451547Y-62476071D01*
X-192451547Y-62999880D02*
X-192451547Y-61999880D01*
X-191975357Y-61999880D01*
X-191070595Y-62999880D02*
X-191642023Y-62999880D01*
X-191356309Y-62999880D02*
X-191356309Y-61999880D01*
X-191451547Y-62142738D01*
X-191546785Y-62237976D01*
X-191642023Y-62285595D01*
X-190451547Y-61999880D02*
X-190356309Y-61999880D01*
X-190261071Y-62047500D01*
X-190213452Y-62095119D01*
X-190165833Y-62190357D01*
X-190118214Y-62380833D01*
X-190118214Y-62618928D01*
X-190165833Y-62809404D01*
X-190213452Y-62904642D01*
X-190261071Y-62952261D01*
X-190356309Y-62999880D01*
X-190451547Y-62999880D01*
X-190546785Y-62952261D01*
X-190594404Y-62904642D01*
X-190642023Y-62809404D01*
X-190689642Y-62618928D01*
X-190689642Y-62380833D01*
X-190642023Y-62190357D01*
X-190594404Y-62095119D01*
X-190546785Y-62047500D01*
X-190451547Y-61999880D01*
X-189165833Y-62999880D02*
X-189737261Y-62999880D01*
X-189451547Y-62999880D02*
X-189451547Y-61999880D01*
X-189546785Y-62142738D01*
X-189642023Y-62237976D01*
X-189737261Y-62285595D01*
%TO.C,C101*%
X-185851547Y-80754642D02*
X-185899166Y-80802261D01*
X-186042023Y-80849880D01*
X-186137261Y-80849880D01*
X-186280119Y-80802261D01*
X-186375357Y-80707023D01*
X-186422976Y-80611785D01*
X-186470595Y-80421309D01*
X-186470595Y-80278452D01*
X-186422976Y-80087976D01*
X-186375357Y-79992738D01*
X-186280119Y-79897500D01*
X-186137261Y-79849880D01*
X-186042023Y-79849880D01*
X-185899166Y-79897500D01*
X-185851547Y-79945119D01*
X-184899166Y-80849880D02*
X-185470595Y-80849880D01*
X-185184880Y-80849880D02*
X-185184880Y-79849880D01*
X-185280119Y-79992738D01*
X-185375357Y-80087976D01*
X-185470595Y-80135595D01*
X-184280119Y-79849880D02*
X-184184880Y-79849880D01*
X-184089642Y-79897500D01*
X-184042023Y-79945119D01*
X-183994404Y-80040357D01*
X-183946785Y-80230833D01*
X-183946785Y-80468928D01*
X-183994404Y-80659404D01*
X-184042023Y-80754642D01*
X-184089642Y-80802261D01*
X-184184880Y-80849880D01*
X-184280119Y-80849880D01*
X-184375357Y-80802261D01*
X-184422976Y-80754642D01*
X-184470595Y-80659404D01*
X-184518214Y-80468928D01*
X-184518214Y-80230833D01*
X-184470595Y-80040357D01*
X-184422976Y-79945119D01*
X-184375357Y-79897500D01*
X-184280119Y-79849880D01*
X-182994404Y-80849880D02*
X-183565833Y-80849880D01*
X-183280119Y-80849880D02*
X-183280119Y-79849880D01*
X-183375357Y-79992738D01*
X-183470595Y-80087976D01*
X-183565833Y-80135595D01*
%TO.C,R101*%
X-194151547Y-83699880D02*
X-194484880Y-83223690D01*
X-194722976Y-83699880D02*
X-194722976Y-82699880D01*
X-194342023Y-82699880D01*
X-194246785Y-82747500D01*
X-194199166Y-82795119D01*
X-194151547Y-82890357D01*
X-194151547Y-83033214D01*
X-194199166Y-83128452D01*
X-194246785Y-83176071D01*
X-194342023Y-83223690D01*
X-194722976Y-83223690D01*
X-193199166Y-83699880D02*
X-193770595Y-83699880D01*
X-193484880Y-83699880D02*
X-193484880Y-82699880D01*
X-193580119Y-82842738D01*
X-193675357Y-82937976D01*
X-193770595Y-82985595D01*
X-192580119Y-82699880D02*
X-192484880Y-82699880D01*
X-192389642Y-82747500D01*
X-192342023Y-82795119D01*
X-192294404Y-82890357D01*
X-192246785Y-83080833D01*
X-192246785Y-83318928D01*
X-192294404Y-83509404D01*
X-192342023Y-83604642D01*
X-192389642Y-83652261D01*
X-192484880Y-83699880D01*
X-192580119Y-83699880D01*
X-192675357Y-83652261D01*
X-192722976Y-83604642D01*
X-192770595Y-83509404D01*
X-192818214Y-83318928D01*
X-192818214Y-83080833D01*
X-192770595Y-82890357D01*
X-192722976Y-82795119D01*
X-192675357Y-82747500D01*
X-192580119Y-82699880D01*
X-191294404Y-83699880D02*
X-191865833Y-83699880D01*
X-191580119Y-83699880D02*
X-191580119Y-82699880D01*
X-191675357Y-82842738D01*
X-191770595Y-82937976D01*
X-191865833Y-82985595D01*
%TO.C,R301*%
X-106640119Y-62106547D02*
X-107116309Y-62439880D01*
X-106640119Y-62677976D02*
X-107640119Y-62677976D01*
X-107640119Y-62297023D01*
X-107592500Y-62201785D01*
X-107544880Y-62154166D01*
X-107449642Y-62106547D01*
X-107306785Y-62106547D01*
X-107211547Y-62154166D01*
X-107163928Y-62201785D01*
X-107116309Y-62297023D01*
X-107116309Y-62677976D01*
X-107640119Y-61773214D02*
X-107640119Y-61154166D01*
X-107259166Y-61487500D01*
X-107259166Y-61344642D01*
X-107211547Y-61249404D01*
X-107163928Y-61201785D01*
X-107068690Y-61154166D01*
X-106830595Y-61154166D01*
X-106735357Y-61201785D01*
X-106687738Y-61249404D01*
X-106640119Y-61344642D01*
X-106640119Y-61630357D01*
X-106687738Y-61725595D01*
X-106735357Y-61773214D01*
X-107640119Y-60535119D02*
X-107640119Y-60439880D01*
X-107592500Y-60344642D01*
X-107544880Y-60297023D01*
X-107449642Y-60249404D01*
X-107259166Y-60201785D01*
X-107021071Y-60201785D01*
X-106830595Y-60249404D01*
X-106735357Y-60297023D01*
X-106687738Y-60344642D01*
X-106640119Y-60439880D01*
X-106640119Y-60535119D01*
X-106687738Y-60630357D01*
X-106735357Y-60677976D01*
X-106830595Y-60725595D01*
X-107021071Y-60773214D01*
X-107259166Y-60773214D01*
X-107449642Y-60725595D01*
X-107544880Y-60677976D01*
X-107592500Y-60630357D01*
X-107640119Y-60535119D01*
X-106640119Y-59249404D02*
X-106640119Y-59820833D01*
X-106640119Y-59535119D02*
X-107640119Y-59535119D01*
X-107497261Y-59630357D01*
X-107402023Y-59725595D01*
X-107354404Y-59820833D01*
%TO.C,J609*%
X-186770119Y-51373214D02*
X-186055833Y-51373214D01*
X-185912976Y-51420833D01*
X-185817738Y-51516071D01*
X-185770119Y-51658928D01*
X-185770119Y-51754166D01*
X-186770119Y-50468452D02*
X-186770119Y-50658928D01*
X-186722500Y-50754166D01*
X-186674880Y-50801785D01*
X-186532023Y-50897023D01*
X-186341547Y-50944642D01*
X-185960595Y-50944642D01*
X-185865357Y-50897023D01*
X-185817738Y-50849404D01*
X-185770119Y-50754166D01*
X-185770119Y-50563690D01*
X-185817738Y-50468452D01*
X-185865357Y-50420833D01*
X-185960595Y-50373214D01*
X-186198690Y-50373214D01*
X-186293928Y-50420833D01*
X-186341547Y-50468452D01*
X-186389166Y-50563690D01*
X-186389166Y-50754166D01*
X-186341547Y-50849404D01*
X-186293928Y-50897023D01*
X-186198690Y-50944642D01*
X-186770119Y-49754166D02*
X-186770119Y-49658928D01*
X-186722500Y-49563690D01*
X-186674880Y-49516071D01*
X-186579642Y-49468452D01*
X-186389166Y-49420833D01*
X-186151071Y-49420833D01*
X-185960595Y-49468452D01*
X-185865357Y-49516071D01*
X-185817738Y-49563690D01*
X-185770119Y-49658928D01*
X-185770119Y-49754166D01*
X-185817738Y-49849404D01*
X-185865357Y-49897023D01*
X-185960595Y-49944642D01*
X-186151071Y-49992261D01*
X-186389166Y-49992261D01*
X-186579642Y-49944642D01*
X-186674880Y-49897023D01*
X-186722500Y-49849404D01*
X-186770119Y-49754166D01*
X-185770119Y-48944642D02*
X-185770119Y-48754166D01*
X-185817738Y-48658928D01*
X-185865357Y-48611309D01*
X-186008214Y-48516071D01*
X-186198690Y-48468452D01*
X-186579642Y-48468452D01*
X-186674880Y-48516071D01*
X-186722500Y-48563690D01*
X-186770119Y-48658928D01*
X-186770119Y-48849404D01*
X-186722500Y-48944642D01*
X-186674880Y-48992261D01*
X-186579642Y-49039880D01*
X-186341547Y-49039880D01*
X-186246309Y-48992261D01*
X-186198690Y-48944642D01*
X-186151071Y-48849404D01*
X-186151071Y-48658928D01*
X-186198690Y-48563690D01*
X-186246309Y-48516071D01*
X-186341547Y-48468452D01*
D11*
%TO.C,RV601*%
X-199257500Y-61777500D02*
X-199257500Y-54827500D01*
X-197622500Y-61777500D02*
X-194517500Y-61777500D01*
X-199257500Y-61777500D02*
X-198612500Y-61777500D01*
X-197622500Y-54827500D02*
X-194517500Y-54827500D01*
X-194517500Y-61777500D02*
X-194517500Y-54827500D01*
X-199257500Y-54827500D02*
X-198612500Y-54827500D01*
%TO.C,J610*%
X-130562500Y-142857500D02*
X-140782500Y-142857500D01*
X-130562500Y-142857500D02*
X-130562500Y-145517500D01*
X-129292500Y-142857500D02*
X-127962500Y-142857500D01*
X-127962500Y-142857500D02*
X-127962500Y-144187500D01*
X-140782500Y-142857500D02*
X-140782500Y-145517500D01*
X-130562500Y-145517500D02*
X-140782500Y-145517500D01*
%TO.C,R302*%
X-109022500Y-64057500D02*
X-109022500Y-57517500D01*
X-109022500Y-57517500D02*
X-111762500Y-57517500D01*
X-111762500Y-57517500D02*
X-111762500Y-64057500D01*
X-110392500Y-56747500D02*
X-110392500Y-57517500D01*
X-111762500Y-64057500D02*
X-109022500Y-64057500D01*
X-110392500Y-64827500D02*
X-110392500Y-64057500D01*
%TO.C,U206*%
X-134122500Y-130627500D02*
X-128922500Y-130627500D01*
X-128922500Y-126127500D02*
X-134122500Y-126127500D01*
X-134122500Y-126127500D02*
X-134122500Y-127377500D01*
X-134122500Y-129377500D02*
X-134122500Y-130627500D01*
X-128922500Y-130627500D02*
X-128922500Y-126127500D01*
X-134122500Y-129377500D02*
G75*
G03*
X-134122500Y-127377500I0J1000000D01*
G01*
%TO.C,R201*%
X-181222500Y-132357500D02*
X-181222500Y-125817500D01*
X-182592500Y-133127500D02*
X-182592500Y-132357500D01*
X-183962500Y-125817500D02*
X-183962500Y-132357500D01*
X-183962500Y-132357500D02*
X-181222500Y-132357500D01*
X-182592500Y-125047500D02*
X-182592500Y-125817500D01*
X-181222500Y-125817500D02*
X-183962500Y-125817500D01*
%TO.C,J606*%
X-198622500Y-87987500D02*
X-198622500Y-86657500D01*
X-195962500Y-89257500D02*
X-195962500Y-96937500D01*
X-198622500Y-86657500D02*
X-197292500Y-86657500D01*
X-198622500Y-89257500D02*
X-198622500Y-96937500D01*
X-198622500Y-96937500D02*
X-195962500Y-96937500D01*
X-198622500Y-89257500D02*
X-195962500Y-89257500D01*
%TO.C,C102*%
X-174062500Y-78257500D02*
X-174062500Y-78242500D01*
X-169522500Y-76117500D02*
X-174062500Y-76117500D01*
X-169522500Y-76132500D02*
X-169522500Y-76117500D01*
X-169522500Y-78257500D02*
X-174062500Y-78257500D01*
X-174062500Y-76132500D02*
X-174062500Y-76117500D01*
X-169522500Y-78257500D02*
X-169522500Y-78242500D01*
%TO.C,U501*%
X-160252500Y-131687500D02*
X-160252500Y-129737500D01*
X-155132500Y-131687500D02*
X-155132500Y-133637500D01*
X-160252500Y-131687500D02*
X-160252500Y-135137500D01*
X-155132500Y-131687500D02*
X-155132500Y-129737500D01*
%TO.C,U304*%
X-130897500Y-62252500D02*
X-130897500Y-57752500D01*
X-136097500Y-61002500D02*
X-136097500Y-62252500D01*
X-136097500Y-62252500D02*
X-130897500Y-62252500D01*
X-130897500Y-57752500D02*
X-136097500Y-57752500D01*
X-136097500Y-57752500D02*
X-136097500Y-59002500D01*
X-136097500Y-61002500D02*
G75*
G03*
X-136097500Y-59002500I0J1000000D01*
G01*
%TO.C,RN201*%
X-186292500Y-114857500D02*
X-189092500Y-114857500D01*
X-189092500Y-125187500D02*
X-186292500Y-125187500D01*
X-186292500Y-125187500D02*
X-186292500Y-112147500D01*
X-189092500Y-112147500D02*
X-189092500Y-125187500D01*
X-186292500Y-112147500D02*
X-189092500Y-112147500D01*
%TO.C,R203*%
X-173092500Y-133207500D02*
X-173092500Y-132437500D01*
X-174462500Y-125897500D02*
X-174462500Y-132437500D01*
X-171722500Y-125897500D02*
X-174462500Y-125897500D01*
X-171722500Y-132437500D02*
X-171722500Y-125897500D01*
X-173092500Y-125127500D02*
X-173092500Y-125897500D01*
X-174462500Y-132437500D02*
X-171722500Y-132437500D01*
%TO.C,J607*%
X-133322500Y-48857500D02*
X-133322500Y-51517500D01*
X-125642500Y-51517500D02*
X-133322500Y-51517500D01*
X-124372500Y-48857500D02*
X-123042500Y-48857500D01*
X-125642500Y-48857500D02*
X-133322500Y-48857500D01*
X-123042500Y-48857500D02*
X-123042500Y-50187500D01*
X-125642500Y-48857500D02*
X-125642500Y-51517500D01*
%TO.C,C501*%
X-154247500Y-134057500D02*
X-154262500Y-134057500D01*
X-152122500Y-129517500D02*
X-152122500Y-134057500D01*
X-154262500Y-129517500D02*
X-154262500Y-134057500D01*
X-154247500Y-129517500D02*
X-154262500Y-129517500D01*
X-152122500Y-134057500D02*
X-152137500Y-134057500D01*
X-152122500Y-129517500D02*
X-152137500Y-129517500D01*
%TO.C,RN202*%
X-139792500Y-139187500D02*
X-126752500Y-139187500D01*
X-126752500Y-139187500D02*
X-126752500Y-136387500D01*
X-129462500Y-139187500D02*
X-129462500Y-136387500D01*
X-126752500Y-136387500D02*
X-139792500Y-136387500D01*
X-139792500Y-136387500D02*
X-139792500Y-139187500D01*
%TO.C,J605*%
X-138262500Y-51517500D02*
X-135662500Y-51517500D01*
X-139532500Y-51517500D02*
X-140862500Y-51517500D01*
X-135662500Y-51517500D02*
X-135662500Y-48857500D01*
X-138262500Y-51517500D02*
X-138262500Y-48857500D01*
X-140862500Y-51517500D02*
X-140862500Y-50187500D01*
X-138262500Y-48857500D02*
X-135662500Y-48857500D01*
%TO.C,R207*%
X-126817500Y-123442500D02*
X-126817500Y-124212500D01*
X-128187500Y-130752500D02*
X-125447500Y-130752500D01*
X-125447500Y-130752500D02*
X-125447500Y-124212500D01*
X-125447500Y-124212500D02*
X-128187500Y-124212500D01*
X-128187500Y-124212500D02*
X-128187500Y-130752500D01*
X-126817500Y-131522500D02*
X-126817500Y-130752500D01*
%TO.C,G\u002A\u002A\u002A*%
G36*
X-116954002Y-103688641D02*
G01*
X-116807610Y-103780581D01*
X-116743440Y-103888756D01*
X-116751594Y-104040991D01*
X-116847433Y-104212431D01*
X-117012147Y-104371771D01*
X-117049390Y-104397904D01*
X-117142377Y-104444128D01*
X-117215196Y-104416676D01*
X-117295455Y-104325259D01*
X-117427141Y-104117429D01*
X-117460091Y-103945393D01*
X-117423837Y-103829256D01*
X-117301987Y-103709492D01*
X-117132085Y-103663782D01*
X-116954002Y-103688641D01*
G37*
G36*
X-126046239Y-106196799D02*
G01*
X-126154333Y-105954116D01*
X-126247800Y-105605699D01*
X-126289725Y-105197101D01*
X-126280109Y-104774143D01*
X-126218951Y-104382642D01*
X-126154333Y-104173726D01*
X-125886227Y-103647626D01*
X-125508420Y-103144752D01*
X-125027450Y-102668809D01*
X-124449854Y-102223506D01*
X-123782169Y-101812547D01*
X-123030934Y-101439642D01*
X-122202685Y-101108495D01*
X-121303960Y-100822815D01*
X-120341296Y-100586309D01*
X-119573317Y-100442122D01*
X-119041603Y-100360052D01*
X-118558276Y-100298064D01*
X-118091125Y-100253759D01*
X-117607941Y-100224736D01*
X-117076511Y-100208597D01*
X-116464626Y-100202942D01*
X-116361484Y-100202850D01*
X-115456883Y-100216061D01*
X-114636284Y-100258039D01*
X-113868561Y-100332304D01*
X-113122588Y-100442374D01*
X-112367236Y-100591766D01*
X-111853132Y-100712455D01*
X-110909481Y-100979066D01*
X-110039244Y-101291759D01*
X-109248186Y-101646753D01*
X-108542072Y-102040267D01*
X-107926665Y-102468522D01*
X-107407732Y-102927738D01*
X-106991036Y-103414133D01*
X-106682343Y-103923927D01*
X-106575039Y-104173652D01*
X-106438175Y-104698941D01*
X-106417443Y-105226585D01*
X-106511365Y-105751200D01*
X-106718463Y-106267404D01*
X-107037259Y-106769814D01*
X-107403698Y-107190871D01*
X-107992761Y-107709624D01*
X-108685794Y-108180562D01*
X-109478248Y-108601866D01*
X-110365572Y-108971719D01*
X-111343217Y-109288302D01*
X-112406634Y-109549795D01*
X-113551272Y-109754382D01*
X-113958119Y-109810651D01*
X-114221368Y-109837228D01*
X-114572029Y-109862075D01*
X-114986594Y-109884498D01*
X-115441556Y-109903803D01*
X-115913407Y-109919296D01*
X-116378641Y-109930282D01*
X-116813749Y-109936067D01*
X-117195226Y-109935956D01*
X-117499564Y-109929256D01*
X-117658004Y-109919937D01*
X-118440028Y-109843603D01*
X-119132563Y-109757926D01*
X-119763877Y-109658608D01*
X-120362240Y-109541352D01*
X-120781438Y-109445130D01*
X-121736727Y-109179690D01*
X-122618575Y-108866625D01*
X-123421248Y-108509661D01*
X-124139010Y-108112526D01*
X-124766125Y-107678946D01*
X-125296859Y-107212647D01*
X-125320352Y-107185499D01*
X-123901955Y-107185499D01*
X-122611645Y-107185499D01*
X-122516901Y-106859592D01*
X-122422158Y-106533686D01*
X-121708708Y-106550196D01*
X-120995258Y-106566705D01*
X-120893653Y-106861369D01*
X-120792048Y-107156032D01*
X-120133886Y-107172739D01*
X-119848278Y-107178644D01*
X-119661493Y-107177244D01*
X-119554577Y-107165853D01*
X-119508577Y-107141790D01*
X-119504541Y-107102369D01*
X-119509570Y-107084339D01*
X-119537824Y-107006002D01*
X-119602816Y-106830901D01*
X-119699495Y-106572481D01*
X-119822813Y-106244188D01*
X-119849300Y-106173866D01*
X-119053522Y-106173866D01*
X-118976928Y-106484759D01*
X-118802491Y-106761954D01*
X-118540223Y-106988839D01*
X-118246706Y-107132979D01*
X-118063859Y-107189042D01*
X-117879173Y-107220627D01*
X-117655416Y-107231378D01*
X-117355355Y-107224938D01*
X-117321044Y-107223544D01*
X-117020152Y-107206305D01*
X-116796505Y-107178428D01*
X-116609504Y-107131425D01*
X-116418551Y-107056807D01*
X-116329837Y-107016331D01*
X-115940787Y-106834272D01*
X-115635474Y-107041574D01*
X-115330162Y-107248876D01*
X-115077759Y-106966723D01*
X-114898058Y-106762321D01*
X-114793886Y-106623389D01*
X-114761653Y-106528035D01*
X-114797767Y-106454365D01*
X-114898638Y-106380486D01*
X-114974223Y-106335463D01*
X-115130759Y-106237177D01*
X-115241506Y-106155554D01*
X-115270412Y-106126032D01*
X-115267586Y-106042969D01*
X-115218781Y-105902361D01*
X-115192621Y-105846801D01*
X-115083689Y-105623287D01*
X-115035570Y-105480833D01*
X-115054708Y-105395919D01*
X-115147551Y-105345026D01*
X-115320545Y-105304636D01*
X-115342413Y-105300287D01*
X-115543808Y-105259107D01*
X-115706646Y-105223604D01*
X-115775961Y-105206692D01*
X-115870255Y-105237913D01*
X-115954209Y-105362470D01*
X-116040256Y-105544159D01*
X-116318736Y-105299032D01*
X-116463651Y-105165210D01*
X-116564367Y-105060240D01*
X-116597215Y-105011324D01*
X-116552933Y-104956635D01*
X-116438862Y-104860767D01*
X-116331795Y-104781659D01*
X-116051363Y-104532703D01*
X-115885170Y-104260527D01*
X-115831310Y-103967648D01*
X-115883524Y-103671006D01*
X-116036932Y-103428419D01*
X-116285805Y-103244350D01*
X-116481434Y-103174392D01*
X-114454351Y-103174392D01*
X-114453843Y-103225760D01*
X-114448403Y-103251740D01*
X-114425217Y-103356647D01*
X-114382364Y-103551082D01*
X-114325482Y-103809454D01*
X-114260205Y-104106173D01*
X-114243986Y-104179930D01*
X-114169587Y-104517336D01*
X-114078503Y-104928953D01*
X-113979782Y-105373972D01*
X-113882472Y-105811584D01*
X-113830348Y-106045463D01*
X-113755007Y-106385068D01*
X-113689439Y-106684255D01*
X-113637672Y-106924347D01*
X-113603732Y-107086664D01*
X-113591647Y-107152445D01*
X-113536784Y-107166081D01*
X-113388286Y-107174256D01*
X-113170291Y-107176191D01*
X-112963473Y-107172759D01*
X-112335300Y-107156032D01*
X-112009312Y-105962645D01*
X-111910705Y-105607863D01*
X-111820520Y-105295047D01*
X-111743829Y-105040854D01*
X-111685701Y-104861938D01*
X-111651207Y-104774955D01*
X-111646003Y-104769257D01*
X-111619041Y-104823147D01*
X-111567015Y-104972804D01*
X-111495603Y-105200209D01*
X-111410480Y-105487342D01*
X-111325750Y-105785847D01*
X-111230300Y-106128601D01*
X-111142199Y-106444584D01*
X-111067803Y-106711032D01*
X-111013466Y-106905180D01*
X-110988477Y-106993967D01*
X-110934135Y-107185499D01*
X-110319234Y-107185499D01*
X-110044061Y-107184158D01*
X-109864598Y-107177105D01*
X-109758696Y-107159797D01*
X-109704206Y-107127687D01*
X-109678979Y-107076232D01*
X-109672984Y-107052900D01*
X-109649220Y-106948181D01*
X-109605550Y-106751695D01*
X-109545519Y-106479665D01*
X-109472672Y-106148317D01*
X-109390551Y-105773874D01*
X-109302700Y-105372559D01*
X-109212664Y-104960598D01*
X-109123985Y-104554214D01*
X-109040209Y-104169631D01*
X-108964877Y-103823072D01*
X-108901536Y-103530763D01*
X-108853727Y-103308927D01*
X-108824995Y-103173788D01*
X-108818097Y-103139080D01*
X-108872855Y-103130682D01*
X-109020436Y-103124031D01*
X-109235800Y-103119978D01*
X-109403198Y-103119141D01*
X-109988298Y-103119141D01*
X-110053578Y-103428538D01*
X-110090167Y-103607773D01*
X-110141758Y-103868152D01*
X-110201542Y-104174990D01*
X-110262709Y-104493602D01*
X-110263694Y-104498774D01*
X-110318914Y-104782713D01*
X-110367596Y-105021656D01*
X-110405060Y-105193434D01*
X-110426624Y-105275881D01*
X-110428600Y-105279683D01*
X-110449641Y-105232175D01*
X-110496271Y-105087957D01*
X-110563375Y-104864118D01*
X-110645838Y-104577744D01*
X-110738546Y-104245922D01*
X-110744532Y-104224181D01*
X-111040394Y-103148608D01*
X-112253566Y-103148608D01*
X-112365516Y-103561137D01*
X-112503231Y-104067356D01*
X-112613585Y-104469821D01*
X-112699507Y-104778683D01*
X-112763930Y-105004092D01*
X-112809785Y-105156201D01*
X-112840001Y-105245160D01*
X-112857510Y-105281122D01*
X-112862466Y-105282352D01*
X-112879736Y-105220253D01*
X-112914136Y-105061751D01*
X-112961688Y-104826403D01*
X-113018413Y-104533765D01*
X-113063684Y-104293290D01*
X-113125717Y-103963363D01*
X-113182311Y-103668957D01*
X-113229182Y-103431855D01*
X-113262045Y-103273843D01*
X-113274326Y-103222274D01*
X-113302909Y-103174537D01*
X-113369129Y-103144047D01*
X-113494946Y-103127133D01*
X-113702320Y-103120124D01*
X-113891405Y-103119141D01*
X-114157799Y-103120160D01*
X-114326785Y-103126461D01*
X-114418817Y-103142915D01*
X-114454351Y-103174392D01*
X-116481434Y-103174392D01*
X-116624412Y-103123262D01*
X-116979888Y-103073099D01*
X-117421250Y-103082255D01*
X-117797506Y-103166662D01*
X-118099119Y-103321097D01*
X-118316552Y-103540337D01*
X-118440267Y-103819159D01*
X-118452574Y-103879518D01*
X-118449449Y-104120059D01*
X-118381520Y-104390431D01*
X-118265880Y-104635701D01*
X-118183147Y-104745381D01*
X-118064014Y-104872192D01*
X-118385294Y-105053512D01*
X-118674207Y-105251487D01*
X-118870369Y-105478332D01*
X-118998873Y-105765260D01*
X-119022263Y-105845891D01*
X-119053522Y-106173866D01*
X-119849300Y-106173866D01*
X-119967721Y-105859467D01*
X-120129170Y-105431765D01*
X-120268272Y-105063921D01*
X-120993127Y-103148608D01*
X-122393120Y-103148608D01*
X-122555400Y-103590603D01*
X-122658816Y-103870772D01*
X-122770789Y-104171824D01*
X-122862218Y-104415661D01*
X-122930721Y-104597850D01*
X-123030398Y-104863784D01*
X-123151257Y-105186765D01*
X-123283305Y-105540096D01*
X-123391546Y-105830046D01*
X-123517695Y-106167825D01*
X-123633494Y-106477274D01*
X-123731110Y-106737513D01*
X-123802711Y-106927660D01*
X-123839145Y-107023434D01*
X-123901955Y-107185499D01*
X-125320352Y-107185499D01*
X-125725475Y-106717356D01*
X-126046239Y-106196799D01*
G37*
G36*
X-117534005Y-105512130D02*
G01*
X-117418771Y-105600596D01*
X-117387240Y-105627828D01*
X-117238694Y-105756830D01*
X-117055132Y-105913213D01*
X-116965545Y-105988524D01*
X-116827579Y-106111389D01*
X-116736610Y-106206906D01*
X-116715081Y-106243275D01*
X-116766389Y-106296087D01*
X-116895014Y-106359603D01*
X-117063006Y-106419909D01*
X-117232415Y-106463097D01*
X-117349800Y-106475946D01*
X-117523170Y-106445087D01*
X-117671256Y-106386442D01*
X-117858924Y-106229652D01*
X-117947368Y-106025110D01*
X-117952668Y-105956308D01*
X-117918920Y-105849939D01*
X-117836649Y-105710888D01*
X-117734308Y-105578205D01*
X-117640353Y-105490941D01*
X-117602999Y-105476450D01*
X-117534005Y-105512130D01*
G37*
G36*
X-121673125Y-104309409D02*
G01*
X-121623775Y-104459296D01*
X-121556752Y-104673169D01*
X-121500587Y-104857656D01*
X-121422372Y-105114325D01*
X-121352977Y-105336238D01*
X-121301631Y-105494191D01*
X-121281755Y-105550116D01*
X-121271978Y-105602231D01*
X-121308816Y-105633169D01*
X-121413719Y-105648313D01*
X-121608141Y-105653050D01*
X-121692561Y-105653248D01*
X-121920900Y-105650484D01*
X-122053448Y-105638613D01*
X-122112221Y-105612262D01*
X-122119237Y-105566061D01*
X-122115294Y-105550116D01*
X-122032196Y-105266285D01*
X-121945462Y-104980616D01*
X-121862030Y-104714696D01*
X-121788836Y-104490114D01*
X-121732818Y-104328458D01*
X-121700911Y-104251315D01*
X-121696907Y-104248024D01*
X-121673125Y-104309409D01*
G37*
%TO.C,R205*%
X-147362500Y-130777500D02*
X-144622500Y-130777500D01*
X-147362500Y-124237500D02*
X-147362500Y-130777500D01*
X-145992500Y-131547500D02*
X-145992500Y-130777500D01*
X-144622500Y-124237500D02*
X-147362500Y-124237500D01*
X-145992500Y-123467500D02*
X-145992500Y-124237500D01*
X-144622500Y-130777500D02*
X-144622500Y-124237500D01*
%TO.C,R206*%
X-136317500Y-123542500D02*
X-136317500Y-124312500D01*
X-137687500Y-130852500D02*
X-134947500Y-130852500D01*
X-134947500Y-124312500D02*
X-137687500Y-124312500D01*
X-136317500Y-131622500D02*
X-136317500Y-130852500D01*
X-134947500Y-130852500D02*
X-134947500Y-124312500D01*
X-137687500Y-124312500D02*
X-137687500Y-130852500D01*
%TO.C,BZ601*%
X-177992500Y-94287500D02*
G75*
G03*
X-177992500Y-94287500I-6100000J0D01*
G01*
%TO.C,U202*%
X-170922500Y-110577500D02*
X-170922500Y-111827500D01*
X-165722500Y-107327500D02*
X-170922500Y-107327500D01*
X-170922500Y-107327500D02*
X-170922500Y-108577500D01*
X-165722500Y-111827500D02*
X-165722500Y-107327500D01*
X-170922500Y-111827500D02*
X-165722500Y-111827500D01*
X-170922500Y-110577500D02*
G75*
G03*
X-170922500Y-108577500I0J1000000D01*
G01*
%TO.C,R204*%
X-182517500Y-104522500D02*
X-182517500Y-105292500D01*
X-183887500Y-105292500D02*
X-183887500Y-111832500D01*
X-182517500Y-112602500D02*
X-182517500Y-111832500D01*
X-181147500Y-111832500D02*
X-181147500Y-105292500D01*
X-181147500Y-105292500D02*
X-183887500Y-105292500D01*
X-183887500Y-111832500D02*
X-181147500Y-111832500D01*
%TO.C,J611*%
X-155820000Y-144545000D02*
X-155820000Y-144195000D01*
X-156570000Y-144195000D02*
X-156570000Y-139895000D01*
X-161650000Y-139895000D02*
X-160900000Y-139895000D01*
X-152030000Y-146895000D02*
X-154030000Y-146895000D01*
X-161400000Y-144545000D02*
X-160900000Y-144545000D01*
X-152420000Y-139035000D02*
X-162800000Y-139035000D01*
X-158650000Y-139895000D02*
X-158650000Y-144195000D01*
X-159400000Y-144195000D02*
X-159400000Y-144545000D01*
X-158900000Y-144545000D02*
X-158650000Y-145545000D01*
X-153570000Y-144195000D02*
X-154320000Y-144195000D01*
X-155820000Y-144195000D02*
X-156570000Y-144195000D01*
X-153570000Y-145545000D02*
X-156570000Y-145545000D01*
X-156320000Y-144545000D02*
X-155820000Y-144545000D01*
X-153820000Y-144545000D02*
X-153570000Y-145545000D01*
X-162800000Y-139035000D02*
X-162800000Y-146505000D01*
X-152030000Y-145645000D02*
X-152030000Y-146895000D01*
X-154320000Y-144195000D02*
X-154320000Y-144545000D01*
X-154320000Y-144545000D02*
X-153820000Y-144545000D01*
X-161650000Y-145545000D02*
X-161400000Y-144545000D01*
X-161650000Y-144195000D02*
X-161650000Y-139895000D01*
X-158650000Y-145545000D02*
X-161650000Y-145545000D01*
X-156570000Y-145545000D02*
X-156320000Y-144545000D01*
X-160900000Y-144545000D02*
X-160900000Y-144195000D01*
X-162800000Y-146505000D02*
X-152420000Y-146505000D01*
X-159400000Y-144545000D02*
X-158900000Y-144545000D01*
X-154320000Y-139895000D02*
X-153570000Y-139895000D01*
X-156570000Y-139895000D02*
X-155820000Y-139895000D01*
X-159400000Y-139895000D02*
X-158650000Y-139895000D01*
X-152420000Y-146505000D02*
X-152420000Y-139035000D01*
X-160900000Y-144195000D02*
X-161650000Y-144195000D01*
X-153570000Y-139895000D02*
X-153570000Y-144195000D01*
X-158650000Y-144195000D02*
X-159400000Y-144195000D01*
X-155819647Y-139895155D02*
G75*
G03*
X-154320000Y-139895000I749647J1700155D01*
G01*
X-160899647Y-139895155D02*
G75*
G03*
X-159400000Y-139895000I749647J1700155D01*
G01*
%TO.C,U302*%
X-123897500Y-62252500D02*
X-118697500Y-62252500D01*
X-118697500Y-62252500D02*
X-118697500Y-57752500D01*
X-123897500Y-57752500D02*
X-123897500Y-59002500D01*
X-118697500Y-57752500D02*
X-123897500Y-57752500D01*
X-123897500Y-61002500D02*
X-123897500Y-62252500D01*
X-123897500Y-61002500D02*
G75*
G03*
X-123897500Y-59002500I0J1000000D01*
G01*
%TO.C,R304*%
X-141892500Y-56547500D02*
X-141892500Y-57317500D01*
X-140522500Y-57317500D02*
X-143262500Y-57317500D01*
X-140522500Y-63857500D02*
X-140522500Y-57317500D01*
X-143262500Y-63857500D02*
X-140522500Y-63857500D01*
X-141892500Y-64627500D02*
X-141892500Y-63857500D01*
X-143262500Y-57317500D02*
X-143262500Y-63857500D01*
%TO.C,J608*%
X-193492500Y-125237500D02*
X-192492500Y-124987500D01*
X-193492500Y-107417500D02*
X-193492500Y-106917500D01*
X-193842500Y-138147500D02*
X-198142500Y-138147500D01*
X-193492500Y-127737500D02*
X-193492500Y-127237500D01*
X-192492500Y-130067500D02*
X-192492500Y-133067500D01*
X-193492500Y-132317500D02*
X-193842500Y-132317500D01*
X-192492500Y-135147500D02*
X-192492500Y-138147500D01*
X-193842500Y-112747500D02*
X-198142500Y-112747500D01*
X-192492500Y-138147500D02*
X-193492500Y-137897500D01*
X-193492500Y-125737500D02*
X-193492500Y-125237500D01*
X-198142500Y-133067500D02*
X-198142500Y-132317500D01*
X-192492500Y-114827500D02*
X-192492500Y-117827500D01*
X-192492500Y-102587500D02*
X-193492500Y-102337500D01*
X-193492500Y-105417500D02*
X-193492500Y-104917500D01*
X-192492500Y-122907500D02*
X-193492500Y-122657500D01*
X-198142500Y-115577500D02*
X-198142500Y-114827500D01*
X-193492500Y-122157500D02*
X-193842500Y-122157500D01*
X-192492500Y-119907500D02*
X-192492500Y-122907500D01*
X-193842500Y-127987500D02*
X-198142500Y-127987500D01*
X-192492500Y-107667500D02*
X-193492500Y-107417500D01*
X-198142500Y-138147500D02*
X-198142500Y-137397500D01*
X-193842500Y-107667500D02*
X-198142500Y-107667500D01*
X-193842500Y-117077500D02*
X-193842500Y-117827500D01*
X-193842500Y-122157500D02*
X-193842500Y-122907500D01*
X-193842500Y-111997500D02*
X-193842500Y-112747500D01*
X-193492500Y-117077500D02*
X-193842500Y-117077500D01*
X-193492500Y-137897500D02*
X-193492500Y-137397500D01*
X-193492500Y-112497500D02*
X-193492500Y-111997500D01*
X-193492500Y-109997500D02*
X-192492500Y-109747500D01*
X-191142500Y-98047500D02*
X-191142500Y-100047500D01*
X-193842500Y-132317500D02*
X-193842500Y-133067500D01*
X-192492500Y-109747500D02*
X-192492500Y-112747500D01*
X-193492500Y-120157500D02*
X-192492500Y-119907500D01*
X-193492500Y-102337500D02*
X-193492500Y-101837500D01*
X-199002500Y-98437500D02*
X-199002500Y-139297500D01*
X-193842500Y-122907500D02*
X-198142500Y-122907500D01*
X-198142500Y-109747500D02*
X-193842500Y-109747500D01*
X-193842500Y-106917500D02*
X-193842500Y-107667500D01*
X-193492500Y-127237500D02*
X-193842500Y-127237500D01*
X-198142500Y-102587500D02*
X-198142500Y-101837500D01*
X-193842500Y-120657500D02*
X-193492500Y-120657500D01*
X-193842500Y-133067500D02*
X-198142500Y-133067500D01*
X-198142500Y-125737500D02*
X-198142500Y-124987500D01*
X-193492500Y-132817500D02*
X-193492500Y-132317500D01*
X-193842500Y-114827500D02*
X-193842500Y-115577500D01*
X-193842500Y-119907500D02*
X-193842500Y-120657500D01*
X-199002500Y-139297500D02*
X-191532500Y-139297500D01*
X-193842500Y-127237500D02*
X-193842500Y-127987500D01*
X-191532500Y-98437500D02*
X-199002500Y-98437500D01*
X-198142500Y-135147500D02*
X-193842500Y-135147500D01*
X-198142500Y-104667500D02*
X-193842500Y-104667500D01*
X-198142500Y-135897500D02*
X-198142500Y-135147500D01*
X-192492500Y-112747500D02*
X-193492500Y-112497500D01*
X-193842500Y-105417500D02*
X-193492500Y-105417500D01*
X-192492500Y-99587500D02*
X-192492500Y-102587500D01*
X-198142500Y-117827500D02*
X-198142500Y-117077500D01*
X-193842500Y-110497500D02*
X-193492500Y-110497500D01*
X-193492500Y-130317500D02*
X-192492500Y-130067500D01*
X-198142500Y-114827500D02*
X-193842500Y-114827500D01*
X-193492500Y-135397500D02*
X-192492500Y-135147500D01*
X-193492500Y-117577500D02*
X-193492500Y-117077500D01*
X-193842500Y-115577500D02*
X-193492500Y-115577500D01*
X-193842500Y-135897500D02*
X-193492500Y-135897500D01*
X-193492500Y-100337500D02*
X-193492500Y-99837500D01*
X-191532500Y-139297500D02*
X-191532500Y-98437500D01*
X-198142500Y-99587500D02*
X-193842500Y-99587500D01*
X-193842500Y-109747500D02*
X-193842500Y-110497500D01*
X-193842500Y-130817500D02*
X-193492500Y-130817500D01*
X-192492500Y-117827500D02*
X-193492500Y-117577500D01*
X-192392500Y-98047500D02*
X-191142500Y-98047500D01*
X-198142500Y-124987500D02*
X-193842500Y-124987500D01*
X-193842500Y-100337500D02*
X-193492500Y-100337500D01*
X-193492500Y-135897500D02*
X-193492500Y-135397500D01*
X-193492500Y-130817500D02*
X-193492500Y-130317500D01*
X-193492500Y-104917500D02*
X-192492500Y-104667500D01*
X-192492500Y-133067500D02*
X-193492500Y-132817500D01*
X-193842500Y-102587500D02*
X-198142500Y-102587500D01*
X-198142500Y-100337500D02*
X-198142500Y-99587500D01*
X-193492500Y-110497500D02*
X-193492500Y-109997500D01*
X-198142500Y-130817500D02*
X-198142500Y-130067500D01*
X-193492500Y-106917500D02*
X-193842500Y-106917500D01*
X-198142500Y-127987500D02*
X-198142500Y-127237500D01*
X-192492500Y-124987500D02*
X-192492500Y-127987500D01*
X-193842500Y-104667500D02*
X-193842500Y-105417500D01*
X-198142500Y-110497500D02*
X-198142500Y-109747500D01*
X-193492500Y-99837500D02*
X-192492500Y-99587500D01*
X-192492500Y-127987500D02*
X-193492500Y-127737500D01*
X-193492500Y-122657500D02*
X-193492500Y-122157500D01*
X-193842500Y-137397500D02*
X-193842500Y-138147500D01*
X-198142500Y-107667500D02*
X-198142500Y-106917500D01*
X-193842500Y-124987500D02*
X-193842500Y-125737500D01*
X-193842500Y-130067500D02*
X-193842500Y-130817500D01*
X-193492500Y-120657500D02*
X-193492500Y-120157500D01*
X-193492500Y-111997500D02*
X-193842500Y-111997500D01*
X-198142500Y-119907500D02*
X-193842500Y-119907500D01*
X-193842500Y-99587500D02*
X-193842500Y-100337500D01*
X-193842500Y-135147500D02*
X-193842500Y-135897500D01*
X-198142500Y-112747500D02*
X-198142500Y-111997500D01*
X-193842500Y-125737500D02*
X-193492500Y-125737500D01*
X-192492500Y-104667500D02*
X-192492500Y-107667500D01*
X-198142500Y-122907500D02*
X-198142500Y-122157500D01*
X-193492500Y-115077500D02*
X-192492500Y-114827500D01*
X-193842500Y-117827500D02*
X-198142500Y-117827500D01*
X-198142500Y-130067500D02*
X-193842500Y-130067500D01*
X-193492500Y-137397500D02*
X-193842500Y-137397500D01*
X-198142500Y-120657500D02*
X-198142500Y-119907500D01*
X-193842500Y-101837500D02*
X-193842500Y-102587500D01*
X-193492500Y-115577500D02*
X-193492500Y-115077500D01*
X-198142500Y-105417500D02*
X-198142500Y-104667500D01*
X-193492500Y-101837500D02*
X-193842500Y-101837500D01*
X-198142345Y-117077147D02*
G75*
G03*
X-198142500Y-115577500I-1700155J749647D01*
G01*
X-198142345Y-137397147D02*
G75*
G03*
X-198142500Y-135897500I-1700155J749647D01*
G01*
X-198142345Y-132317147D02*
G75*
G03*
X-198142500Y-130817500I-1700155J749647D01*
G01*
X-198142345Y-127237147D02*
G75*
G03*
X-198142500Y-125737500I-1700155J749647D01*
G01*
X-198142345Y-106917147D02*
G75*
G03*
X-198142500Y-105417500I-1700155J749647D01*
G01*
X-198142345Y-101837147D02*
G75*
G03*
X-198142500Y-100337500I-1700155J749647D01*
G01*
X-198142345Y-111997147D02*
G75*
G03*
X-198142500Y-110497500I-1700155J749647D01*
G01*
X-198142345Y-122157147D02*
G75*
G03*
X-198142500Y-120657500I-1700155J749647D01*
G01*
%TO.C,U201*%
X-180487500Y-127622500D02*
X-180487500Y-132122500D01*
X-175287500Y-128872500D02*
X-175287500Y-127622500D01*
X-175287500Y-132122500D02*
X-175287500Y-130872500D01*
X-175287500Y-127622500D02*
X-180487500Y-127622500D01*
X-180487500Y-132122500D02*
X-175287500Y-132122500D01*
X-175287500Y-128872500D02*
G75*
G03*
X-175287500Y-130872500I0J-1000000D01*
G01*
%TO.C,U203*%
X-165787500Y-128872500D02*
X-165787500Y-127622500D01*
X-165787500Y-127622500D02*
X-170987500Y-127622500D01*
X-165787500Y-132122500D02*
X-165787500Y-130872500D01*
X-170987500Y-127622500D02*
X-170987500Y-132122500D01*
X-170987500Y-132122500D02*
X-165787500Y-132122500D01*
X-165787500Y-128872500D02*
G75*
G03*
X-165787500Y-130872500I0J-1000000D01*
G01*
%TO.C,U101*%
X-175527500Y-79997500D02*
X-124727500Y-79997500D01*
X-124727500Y-86347500D02*
X-127267500Y-86347500D01*
X-175527500Y-82537500D02*
X-124727500Y-82537500D01*
X-124727500Y-79997500D02*
X-124727500Y-97777500D01*
X-123457500Y-86347500D02*
X-124727500Y-86347500D01*
X-175527500Y-97777500D02*
X-175527500Y-79997500D01*
X-127267500Y-91427500D02*
X-123457500Y-91427500D01*
X-175527500Y-95237500D02*
X-172987500Y-95237500D01*
X-123457500Y-91427500D02*
X-123457500Y-86347500D01*
X-172987500Y-95237500D02*
X-124727500Y-95237500D01*
X-124727500Y-97777500D02*
X-175527500Y-97777500D01*
X-127267500Y-86347500D02*
X-127267500Y-91427500D01*
X-172987500Y-95237500D02*
X-172987500Y-97777500D01*
%TO.C,D101*%
X-182812500Y-69917500D02*
X-188252500Y-69917500D01*
X-188252500Y-66977500D02*
X-188252500Y-67307500D01*
X-183592500Y-69917500D02*
X-183592500Y-66977500D01*
X-182812500Y-66977500D02*
X-188252500Y-66977500D01*
X-183712500Y-69917500D02*
X-183712500Y-66977500D01*
X-182812500Y-67307500D02*
X-182812500Y-66977500D01*
X-188252500Y-69917500D02*
X-188252500Y-69587500D01*
X-182812500Y-69587500D02*
X-182812500Y-69917500D01*
X-183832500Y-69917500D02*
X-183832500Y-66977500D01*
%TO.C,U301*%
X-117697500Y-57752500D02*
X-117697500Y-59002500D01*
X-112497500Y-62252500D02*
X-112497500Y-57752500D01*
X-112497500Y-57752500D02*
X-117697500Y-57752500D01*
X-117697500Y-62252500D02*
X-112497500Y-62252500D01*
X-117697500Y-61002500D02*
X-117697500Y-62252500D01*
X-117697500Y-61002500D02*
G75*
G03*
X-117697500Y-59002500I0J1000000D01*
G01*
%TO.C,R208*%
X-116047500Y-124492500D02*
X-118787500Y-124492500D01*
X-117417500Y-123722500D02*
X-117417500Y-124492500D01*
X-116047500Y-131032500D02*
X-116047500Y-124492500D01*
X-117417500Y-131802500D02*
X-117417500Y-131032500D01*
X-118787500Y-124492500D02*
X-118787500Y-131032500D01*
X-118787500Y-131032500D02*
X-116047500Y-131032500D01*
%TO.C,D102*%
X-198012500Y-77482500D02*
X-198168500Y-77482500D01*
X-195696500Y-77482500D02*
X-195852500Y-77482500D01*
X-195853892Y-80714835D02*
G75*
G03*
X-195696984Y-77482500I-1078608J1672335D01*
G01*
X-198168016Y-77482500D02*
G75*
G03*
X-198011108Y-80714835I1235516J-1560000D01*
G01*
X-195852663Y-80083630D02*
G75*
G03*
X-195852500Y-78001539I-1079837J1041130D01*
G01*
X-198012500Y-78001539D02*
G75*
G03*
X-198012337Y-80083630I1080000J-1040961D01*
G01*
%TO.C,U303*%
X-129997500Y-62252500D02*
X-124797500Y-62252500D01*
X-124797500Y-57752500D02*
X-129997500Y-57752500D01*
X-129997500Y-61002500D02*
X-129997500Y-62252500D01*
X-129997500Y-57752500D02*
X-129997500Y-59002500D01*
X-124797500Y-62252500D02*
X-124797500Y-57752500D01*
X-129997500Y-61002500D02*
G75*
G03*
X-129997500Y-59002500I0J1000000D01*
G01*
%TO.C,U207*%
X-119422500Y-126227500D02*
X-124622500Y-126227500D01*
X-119422500Y-130727500D02*
X-119422500Y-126227500D01*
X-124622500Y-130727500D02*
X-119422500Y-130727500D01*
X-124622500Y-126227500D02*
X-124622500Y-127477500D01*
X-124622500Y-129477500D02*
X-124622500Y-130727500D01*
X-124622500Y-129477500D02*
G75*
G03*
X-124622500Y-127477500I0J1000000D01*
G01*
%TO.C,U204*%
X-180222500Y-111627500D02*
X-175022500Y-111627500D01*
X-180222500Y-110377500D02*
X-180222500Y-111627500D01*
X-175022500Y-111627500D02*
X-175022500Y-107127500D01*
X-175022500Y-107127500D02*
X-180222500Y-107127500D01*
X-180222500Y-107127500D02*
X-180222500Y-108377500D01*
X-180222500Y-110377500D02*
G75*
G03*
X-180222500Y-108377500I0J1000000D01*
G01*
%TO.C,U208*%
X-115322500Y-126427500D02*
X-115322500Y-127677500D01*
X-110122500Y-130927500D02*
X-110122500Y-126427500D01*
X-115322500Y-129677500D02*
X-115322500Y-130927500D01*
X-110122500Y-126427500D02*
X-115322500Y-126427500D01*
X-115322500Y-130927500D02*
X-110122500Y-130927500D01*
X-115322500Y-129677500D02*
G75*
G03*
X-115322500Y-127677500I0J1000000D01*
G01*
%TO.C,D101*%
X-183832500Y-66317500D02*
X-183832500Y-63377500D01*
X-188252500Y-66317500D02*
X-188252500Y-65987500D01*
X-182812500Y-63377500D02*
X-188252500Y-63377500D01*
X-182812500Y-65987500D02*
X-182812500Y-66317500D01*
X-188252500Y-63377500D02*
X-188252500Y-63707500D01*
X-182812500Y-66317500D02*
X-188252500Y-66317500D01*
X-183592500Y-66317500D02*
X-183592500Y-63377500D01*
X-183712500Y-66317500D02*
X-183712500Y-63377500D01*
X-182812500Y-63707500D02*
X-182812500Y-63377500D01*
%TO.C,J101*%
X-192575000Y-73305000D02*
X-193575000Y-73055000D01*
X-198225000Y-73305000D02*
X-198225000Y-72555000D01*
X-198225000Y-68225000D02*
X-198225000Y-67475000D01*
X-193575000Y-70555000D02*
X-192575000Y-70305000D01*
X-191615000Y-74455000D02*
X-191615000Y-64075000D01*
X-198225000Y-65225000D02*
X-193925000Y-65225000D01*
X-193925000Y-67475000D02*
X-193925000Y-68225000D01*
X-192475000Y-63685000D02*
X-191225000Y-63685000D01*
X-193925000Y-72555000D02*
X-193925000Y-73305000D01*
X-192575000Y-65225000D02*
X-192575000Y-68225000D01*
X-193575000Y-71055000D02*
X-193575000Y-70555000D01*
X-198225000Y-65975000D02*
X-198225000Y-65225000D01*
X-193575000Y-65475000D02*
X-192575000Y-65225000D01*
X-193925000Y-65975000D02*
X-193575000Y-65975000D01*
X-193575000Y-67475000D02*
X-193925000Y-67475000D01*
X-193925000Y-70305000D02*
X-193925000Y-71055000D01*
X-199085000Y-74455000D02*
X-191615000Y-74455000D01*
X-192575000Y-70305000D02*
X-192575000Y-73305000D01*
X-193925000Y-71055000D02*
X-193575000Y-71055000D01*
X-193925000Y-73305000D02*
X-198225000Y-73305000D01*
X-193575000Y-73055000D02*
X-193575000Y-72555000D01*
X-193575000Y-65975000D02*
X-193575000Y-65475000D01*
X-191615000Y-64075000D02*
X-199085000Y-64075000D01*
X-193925000Y-65225000D02*
X-193925000Y-65975000D01*
X-192575000Y-68225000D02*
X-193575000Y-67975000D01*
X-191225000Y-63685000D02*
X-191225000Y-65685000D01*
X-199085000Y-64075000D02*
X-199085000Y-74455000D01*
X-193575000Y-67975000D02*
X-193575000Y-67475000D01*
X-193575000Y-72555000D02*
X-193925000Y-72555000D01*
X-198225000Y-70305000D02*
X-193925000Y-70305000D01*
X-193925000Y-68225000D02*
X-198225000Y-68225000D01*
X-198225000Y-71055000D02*
X-198225000Y-70305000D01*
X-198224845Y-67474647D02*
G75*
G03*
X-198225000Y-65975000I-1700155J749647D01*
G01*
X-198224845Y-72554647D02*
G75*
G03*
X-198225000Y-71055000I-1700155J749647D01*
G01*
%TO.C,R303*%
X-137122500Y-57317500D02*
X-139862500Y-57317500D01*
X-138492500Y-56547500D02*
X-138492500Y-57317500D01*
X-138492500Y-64627500D02*
X-138492500Y-63857500D01*
X-139862500Y-57317500D02*
X-139862500Y-63857500D01*
X-137122500Y-63857500D02*
X-137122500Y-57317500D01*
X-139862500Y-63857500D02*
X-137122500Y-63857500D01*
%TO.C,U205*%
X-143697500Y-126052500D02*
X-143697500Y-127302500D01*
X-138497500Y-126052500D02*
X-143697500Y-126052500D01*
X-138497500Y-130552500D02*
X-138497500Y-126052500D01*
X-143697500Y-129302500D02*
X-143697500Y-130552500D01*
X-143697500Y-130552500D02*
X-138497500Y-130552500D01*
X-143697500Y-129302500D02*
G75*
G03*
X-143697500Y-127302500I0J1000000D01*
G01*
%TO.C,R202*%
X-171647500Y-105312500D02*
X-174387500Y-105312500D01*
X-173017500Y-104542500D02*
X-173017500Y-105312500D01*
X-171647500Y-111852500D02*
X-171647500Y-105312500D01*
X-174387500Y-111852500D02*
X-171647500Y-111852500D01*
X-174387500Y-105312500D02*
X-174387500Y-111852500D01*
X-173017500Y-112622500D02*
X-173017500Y-111852500D01*
%TO.C,F101*%
X-183662500Y-61567500D02*
X-183662500Y-57327500D01*
X-183662500Y-61567500D02*
X-192402500Y-61567500D01*
X-192402500Y-57327500D02*
X-192402500Y-61567500D01*
X-192402500Y-57327500D02*
X-183662500Y-57327500D01*
%TO.C,C101*%
X-185453500Y-79164500D02*
X-185453500Y-71130500D01*
X-185932500Y-77747500D02*
X-187882500Y-77747500D01*
X-185882500Y-72147500D02*
X-187532500Y-72147500D01*
X-185932500Y-76947500D02*
X-188382500Y-76947500D01*
X-185932500Y-78347500D02*
X-187232500Y-78347500D01*
X-185882500Y-76747500D02*
X-188482500Y-76747500D01*
X-185932500Y-72347500D02*
X-187682500Y-72347500D01*
X-185332500Y-79184500D02*
X-185332500Y-71110500D01*
X-185212500Y-79199500D02*
X-185212500Y-71095500D01*
X-184892500Y-79224500D02*
X-184892500Y-71070500D01*
X-188732500Y-76097500D02*
X-188682500Y-74297500D01*
X-185932500Y-72547500D02*
X-187932500Y-72547500D01*
X-185813500Y-79083500D02*
X-185813500Y-71211500D01*
X-185882500Y-77847500D02*
X-187832500Y-77847500D01*
X-185052500Y-79215500D02*
X-185052500Y-71079500D01*
X-185372500Y-79177500D02*
X-185372500Y-71117500D01*
X-185932500Y-78447500D02*
X-187132500Y-78447500D01*
X-185932500Y-77147500D02*
X-188282500Y-77147500D01*
X-185882500Y-77047500D02*
X-188332500Y-77047500D01*
X-185132500Y-79208500D02*
X-185132500Y-71086500D01*
X-185292500Y-79189500D02*
X-185292500Y-71105500D01*
X-185932500Y-72647500D02*
X-187982500Y-72647500D01*
X-185932500Y-73047500D02*
X-188232500Y-73047500D01*
X-185932500Y-73447500D02*
X-188432500Y-73447500D01*
X-185932500Y-72047500D02*
X-187382500Y-72047500D01*
X-185932500Y-71947500D02*
X-187232500Y-71947500D01*
X-185932500Y-78047500D02*
X-187632500Y-78047500D01*
X-185893500Y-79047500D02*
X-186032500Y-78997500D01*
X-185932500Y-72747500D02*
X-188032500Y-72747500D01*
X-186232500Y-71347500D02*
X-185932500Y-71297500D01*
X-185932500Y-71747500D02*
X-186982500Y-71747500D01*
X-185932500Y-73747500D02*
X-188582500Y-73747500D01*
X-185932500Y-78547500D02*
X-186982500Y-78547500D01*
X-185893500Y-79061500D02*
X-185893500Y-71233500D01*
X-185773500Y-79094500D02*
X-185773500Y-71200500D01*
X-185932500Y-71547500D02*
X-186682500Y-71547500D01*
X-184852500Y-79226500D02*
X-184852500Y-71068500D01*
X-185932500Y-72947500D02*
X-188182500Y-72947500D01*
X-185932500Y-77247500D02*
X-188282500Y-77247500D01*
X-184812500Y-79227500D02*
X-184812500Y-71067500D01*
X-185882500Y-72447500D02*
X-187782500Y-72447500D01*
X-180722802Y-77862500D02*
X-180722802Y-77062500D01*
X-185932500Y-77547500D02*
X-188032500Y-77547500D01*
X-185853500Y-79072500D02*
X-185853500Y-71222500D01*
X-185932500Y-77447500D02*
X-188132500Y-77447500D01*
X-180322802Y-77462500D02*
X-181122802Y-77462500D01*
X-185932500Y-73547500D02*
X-188482500Y-73547500D01*
X-185932500Y-71447500D02*
X-186432500Y-71447500D01*
X-185882500Y-72247500D02*
X-187632500Y-72247500D01*
X-185573500Y-79141500D02*
X-185573500Y-71153500D01*
X-188782500Y-75647500D02*
X-188782500Y-74547500D01*
X-184772500Y-79227500D02*
X-184772500Y-71067500D01*
X-184732500Y-79227500D02*
X-184732500Y-71067500D01*
X-185932500Y-73247500D02*
X-188332500Y-73247500D01*
X-185533500Y-79149500D02*
X-185533500Y-71145500D01*
X-188532500Y-76497500D02*
X-188532500Y-73897500D01*
X-185733500Y-79104500D02*
X-185733500Y-71190500D01*
X-185252500Y-79195500D02*
X-185252500Y-71099500D01*
X-185882500Y-78847500D02*
X-186482500Y-78847500D01*
X-185932500Y-73847500D02*
X-188632500Y-73847500D01*
X-185012500Y-79218500D02*
X-185012500Y-71076500D01*
X-185932500Y-77347500D02*
X-188182500Y-77347500D01*
X-185693500Y-79114500D02*
X-185693500Y-71180500D01*
X-185893500Y-79047500D02*
X-185893500Y-71247500D01*
X-185932500Y-76647500D02*
X-188532500Y-76647500D01*
X-185882500Y-71347500D02*
X-186232500Y-71347500D01*
X-185412500Y-79171500D02*
X-185412500Y-71123500D01*
X-184972500Y-79221500D02*
X-184972500Y-71073500D01*
X-185932500Y-76547500D02*
X-188532500Y-76547500D01*
X-188632500Y-76397500D02*
X-188632500Y-73947500D01*
X-185932500Y-78247500D02*
X-187382500Y-78247500D01*
X-185932500Y-73647500D02*
X-188532500Y-73647500D01*
X-185882500Y-78747500D02*
X-186732500Y-78747500D01*
X-185613500Y-79132500D02*
X-185613500Y-71162500D01*
X-185653500Y-79123500D02*
X-185653500Y-71171500D01*
X-185932500Y-77947500D02*
X-187732500Y-77947500D01*
X-185092500Y-79212500D02*
X-185092500Y-71082500D01*
X-185493500Y-79157500D02*
X-185493500Y-71137500D01*
X-185932500Y-78647500D02*
X-186832500Y-78647500D01*
X-185932500Y-76447500D02*
X-188582500Y-76447500D01*
X-185932500Y-71847500D02*
X-187132500Y-71847500D01*
X-185932500Y-73347500D02*
X-188382500Y-73347500D01*
X-185932500Y-73147500D02*
X-188332500Y-73147500D01*
X-185932500Y-78147500D02*
X-187482500Y-78147500D01*
X-185932500Y-77647500D02*
X-187932500Y-77647500D01*
X-185932500Y-72847500D02*
X-188132500Y-72847500D01*
X-185932500Y-76847500D02*
X-188432500Y-76847500D01*
X-185932500Y-71647500D02*
X-186832500Y-71647500D01*
X-185172500Y-79204500D02*
X-185172500Y-71090500D01*
X-184932500Y-79223500D02*
X-184932500Y-71071500D01*
X-185932500Y-78947500D02*
X-186282500Y-78947500D01*
X-180612500Y-75147500D02*
G75*
G03*
X-180612500Y-75147500I-4120000J0D01*
G01*
%TO.C,R101*%
X-189762500Y-84617500D02*
X-189762500Y-81877500D01*
X-189762500Y-81877500D02*
X-196302500Y-81877500D01*
X-188992500Y-83247500D02*
X-189762500Y-83247500D01*
X-196302500Y-84617500D02*
X-189762500Y-84617500D01*
X-197072500Y-83247500D02*
X-196302500Y-83247500D01*
X-196302500Y-81877500D02*
X-196302500Y-84617500D01*
%TO.C,R301*%
X-107092500Y-56747500D02*
X-107092500Y-57517500D01*
X-107092500Y-64827500D02*
X-107092500Y-64057500D01*
X-105722500Y-64057500D02*
X-105722500Y-57517500D01*
X-108462500Y-64057500D02*
X-105722500Y-64057500D01*
X-105722500Y-57517500D02*
X-108462500Y-57517500D01*
X-108462500Y-57517500D02*
X-108462500Y-64057500D01*
%TO.C,J609*%
X-183892500Y-51417500D02*
X-185222500Y-51417500D01*
X-182622500Y-48757500D02*
X-144462500Y-48757500D01*
X-182622500Y-51417500D02*
X-182622500Y-48757500D01*
X-144462500Y-51417500D02*
X-144462500Y-48757500D01*
X-185222500Y-51417500D02*
X-185222500Y-50087500D01*
X-182622500Y-51417500D02*
X-144462500Y-51417500D01*
%TD*%
M02*
