%TF.GenerationSoftware,KiCad,Pcbnew,(6.0.8)*%
%TF.CreationDate,2023-03-03T00:49:48+05:30*%
%TF.ProjectId,STM32DryerPCB,53544d33-3244-4727-9965-725043422e6b,rev?*%
%TF.SameCoordinates,Original*%
%TF.FileFunction,Soldermask,Top*%
%TF.FilePolarity,Negative*%
%FSLAX46Y46*%
G04 Gerber Fmt 4.6, Leading zero omitted, Abs format (unit mm)*
G04 Created by KiCad (PCBNEW (6.0.8)) date 2023-03-03 00:49:48*
%MOMM*%
%LPD*%
G01*
G04 APERTURE LIST*
%ADD10C,6.000000*%
%ADD11O,3.048000X1.850000*%
%ADD12R,1.700000X1.700000*%
%ADD13O,1.700000X1.700000*%
%ADD14C,3.000000*%
G04 APERTURE END LIST*
D10*
%TO.C,H601*%
X-188400000Y-26000000D03*
%TD*%
D11*
%TO.C,SW602*%
X-124640000Y-100000000D03*
X-137140000Y-100000000D03*
X-137140000Y-105000000D03*
X-124640000Y-105000000D03*
%TD*%
D12*
%TO.C,J603*%
X-121300000Y-119600000D03*
D13*
X-123840000Y-119600000D03*
X-126380000Y-119600000D03*
X-128920000Y-119600000D03*
X-131460000Y-119600000D03*
%TD*%
D10*
%TO.C,H602*%
X-95400000Y-26000000D03*
%TD*%
%TO.C,H604*%
X-95400000Y-119000000D03*
%TD*%
D14*
%TO.C,H601*%
X-182400000Y-80000000D03*
%TD*%
D11*
%TO.C,SW604*%
X-168640000Y-100000000D03*
X-181140000Y-100000000D03*
X-168640000Y-105000000D03*
X-181140000Y-105000000D03*
%TD*%
%TO.C,SW601*%
X-102640000Y-100000000D03*
X-115140000Y-100000000D03*
X-115140000Y-105000000D03*
X-102640000Y-105000000D03*
%TD*%
%TO.C,SW603*%
X-146640000Y-100000000D03*
X-159140000Y-100000000D03*
X-146640000Y-105000000D03*
X-159140000Y-105000000D03*
%TD*%
D12*
%TO.C,J602*%
X-175900000Y-25500000D03*
D13*
X-173360000Y-25500000D03*
X-170820000Y-25500000D03*
X-168280000Y-25500000D03*
X-165740000Y-25500000D03*
X-163200000Y-25500000D03*
X-160660000Y-25500000D03*
X-158120000Y-25500000D03*
X-155580000Y-25500000D03*
X-153040000Y-25500000D03*
X-150500000Y-25500000D03*
X-147960000Y-25500000D03*
X-145420000Y-25500000D03*
X-142880000Y-25500000D03*
X-140340000Y-25500000D03*
X-137800000Y-25500000D03*
%TD*%
D14*
%TO.C,H601*%
X-182400000Y-25000000D03*
%TD*%
%TO.C,H601*%
X-101400000Y-25000000D03*
%TD*%
D10*
%TO.C,H603*%
X-188400000Y-119000000D03*
%TD*%
D14*
%TO.C,H601*%
X-101400000Y-79900000D03*
%TD*%
M02*
