%TF.GenerationSoftware,KiCad,Pcbnew,(6.0.8)*%
%TF.CreationDate,2023-03-03T00:49:53+05:30*%
%TF.ProjectId,STM32DryerPCB,53544d33-3244-4727-9965-725043422e6b,rev?*%
%TF.SameCoordinates,Original*%
%TF.FileFunction,Drillmap*%
%TF.FilePolarity,Positive*%
%FSLAX45Y45*%
G04 Gerber Fmt 4.5, Leading zero omitted, Abs format (unit mm)*
G04 Created by KiCad (PCBNEW (6.0.8)) date 2023-03-03 00:49:53*
%MOMM*%
%LPD*%
G01*
G04 APERTURE LIST*
%ADD10C,0.100000*%
%ADD11C,0.200000*%
%ADD12C,0.130000*%
%ADD13C,0.300000*%
G04 APERTURE END LIST*
D10*
X-19190000Y-3100000D02*
X-19190000Y-2250000D01*
X-19190000Y-3640000D02*
G75*
G03*
X-19190000Y-3100000I181739J270000D01*
G01*
X-9190000Y-12250000D02*
X-19190000Y-12250000D01*
X-19190000Y-12250000D02*
X-19190000Y-3640000D01*
X-9190000Y-2250000D02*
X-9190000Y-12250000D01*
X-19190000Y-2250000D02*
X-9190000Y-2250000D01*
X-17990000Y-3050000D02*
X-10290000Y-3050000D01*
X-10290000Y-3050000D02*
X-10290000Y-7450000D01*
X-10290000Y-7450000D02*
X-17990000Y-7450000D01*
X-17990000Y-7450000D02*
X-17990000Y-3050000D01*
D11*
D10*
X-17640000Y-2500000D02*
X-17540000Y-2600000D01*
X-17540000Y-2500000D02*
X-17640000Y-2600000D01*
X-17386000Y-2500000D02*
X-17286000Y-2600000D01*
X-17286000Y-2500000D02*
X-17386000Y-2600000D01*
X-17132000Y-2500000D02*
X-17032000Y-2600000D01*
X-17032000Y-2500000D02*
X-17132000Y-2600000D01*
X-16878000Y-2500000D02*
X-16778000Y-2600000D01*
X-16778000Y-2500000D02*
X-16878000Y-2600000D01*
X-16624000Y-2500000D02*
X-16524000Y-2600000D01*
X-16524000Y-2500000D02*
X-16624000Y-2600000D01*
X-16370000Y-2500000D02*
X-16270000Y-2600000D01*
X-16270000Y-2500000D02*
X-16370000Y-2600000D01*
X-16116000Y-2500000D02*
X-16016000Y-2600000D01*
X-16016000Y-2500000D02*
X-16116000Y-2600000D01*
X-15862000Y-2500000D02*
X-15762000Y-2600000D01*
X-15762000Y-2500000D02*
X-15862000Y-2600000D01*
X-15608000Y-2500000D02*
X-15508000Y-2600000D01*
X-15508000Y-2500000D02*
X-15608000Y-2600000D01*
X-15354000Y-2500000D02*
X-15254000Y-2600000D01*
X-15254000Y-2500000D02*
X-15354000Y-2600000D01*
X-15100000Y-2500000D02*
X-15000000Y-2600000D01*
X-15000000Y-2500000D02*
X-15100000Y-2600000D01*
X-14846000Y-2500000D02*
X-14746000Y-2600000D01*
X-14746000Y-2500000D02*
X-14846000Y-2600000D01*
X-14592000Y-2500000D02*
X-14492000Y-2600000D01*
X-14492000Y-2500000D02*
X-14592000Y-2600000D01*
X-14338000Y-2500000D02*
X-14238000Y-2600000D01*
X-14238000Y-2500000D02*
X-14338000Y-2600000D01*
X-14084000Y-2500000D02*
X-13984000Y-2600000D01*
X-13984000Y-2500000D02*
X-14084000Y-2600000D01*
X-13830000Y-2500000D02*
X-13730000Y-2600000D01*
X-13730000Y-2500000D02*
X-13830000Y-2600000D01*
X-13196000Y-11910000D02*
X-13096000Y-12010000D01*
X-13096000Y-11910000D02*
X-13196000Y-12010000D01*
X-12942000Y-11910000D02*
X-12842000Y-12010000D01*
X-12842000Y-11910000D02*
X-12942000Y-12010000D01*
X-12688000Y-11910000D02*
X-12588000Y-12010000D01*
X-12588000Y-11910000D02*
X-12688000Y-12010000D01*
X-12434000Y-11910000D02*
X-12334000Y-12010000D01*
X-12334000Y-11910000D02*
X-12434000Y-12010000D01*
X-12180000Y-11910000D02*
X-12080000Y-12010000D01*
X-12080000Y-11910000D02*
X-12180000Y-12010000D01*
D12*
X-18049000Y-10000000D02*
G75*
G03*
X-18049000Y-10000000I-65000J0D01*
G01*
X-18049000Y-10500000D02*
G75*
G03*
X-18049000Y-10500000I-65000J0D01*
G01*
X-16799000Y-10000000D02*
G75*
G03*
X-16799000Y-10000000I-65000J0D01*
G01*
X-16799000Y-10500000D02*
G75*
G03*
X-16799000Y-10500000I-65000J0D01*
G01*
X-15849000Y-10000000D02*
G75*
G03*
X-15849000Y-10000000I-65000J0D01*
G01*
X-15849000Y-10500000D02*
G75*
G03*
X-15849000Y-10500000I-65000J0D01*
G01*
X-14599000Y-10000000D02*
G75*
G03*
X-14599000Y-10000000I-65000J0D01*
G01*
X-14599000Y-10500000D02*
G75*
G03*
X-14599000Y-10500000I-65000J0D01*
G01*
X-13649000Y-10000000D02*
G75*
G03*
X-13649000Y-10000000I-65000J0D01*
G01*
X-13649000Y-10500000D02*
G75*
G03*
X-13649000Y-10500000I-65000J0D01*
G01*
X-12399000Y-10000000D02*
G75*
G03*
X-12399000Y-10000000I-65000J0D01*
G01*
X-12399000Y-10500000D02*
G75*
G03*
X-12399000Y-10500000I-65000J0D01*
G01*
X-11449000Y-10000000D02*
G75*
G03*
X-11449000Y-10000000I-65000J0D01*
G01*
X-11449000Y-10500000D02*
G75*
G03*
X-11449000Y-10500000I-65000J0D01*
G01*
X-10199000Y-10000000D02*
G75*
G03*
X-10199000Y-10000000I-65000J0D01*
G01*
X-10199000Y-10500000D02*
G75*
G03*
X-10199000Y-10500000I-65000J0D01*
G01*
D13*
X-18840000Y-2450000D02*
X-18840000Y-2750000D01*
X-18990000Y-2600000D02*
X-18690000Y-2600000D01*
X-18840000Y-11750000D02*
X-18840000Y-12050000D01*
X-18990000Y-11900000D02*
X-18690000Y-11900000D01*
X-9540000Y-2450000D02*
X-9540000Y-2750000D01*
X-9690000Y-2600000D02*
X-9390000Y-2600000D01*
X-9540000Y-11750000D02*
X-9540000Y-12050000D01*
X-9690000Y-11900000D02*
X-9390000Y-11900000D01*
D11*
X-18937381Y-12565476D02*
X-18937381Y-12365476D01*
X-18889762Y-12365476D01*
X-18861190Y-12375000D01*
X-18842143Y-12394048D01*
X-18832619Y-12413095D01*
X-18823095Y-12451190D01*
X-18823095Y-12479762D01*
X-18832619Y-12517857D01*
X-18842143Y-12536905D01*
X-18861190Y-12555952D01*
X-18889762Y-12565476D01*
X-18937381Y-12565476D01*
X-18737381Y-12565476D02*
X-18737381Y-12432143D01*
X-18737381Y-12470238D02*
X-18727857Y-12451190D01*
X-18718333Y-12441667D01*
X-18699286Y-12432143D01*
X-18680238Y-12432143D01*
X-18613571Y-12565476D02*
X-18613571Y-12432143D01*
X-18613571Y-12365476D02*
X-18623095Y-12375000D01*
X-18613571Y-12384524D01*
X-18604048Y-12375000D01*
X-18613571Y-12365476D01*
X-18613571Y-12384524D01*
X-18489762Y-12565476D02*
X-18508810Y-12555952D01*
X-18518333Y-12536905D01*
X-18518333Y-12365476D01*
X-18385000Y-12565476D02*
X-18404048Y-12555952D01*
X-18413571Y-12536905D01*
X-18413571Y-12365476D01*
X-18156429Y-12565476D02*
X-18156429Y-12365476D01*
X-18089762Y-12508333D01*
X-18023095Y-12365476D01*
X-18023095Y-12565476D01*
X-17842143Y-12565476D02*
X-17842143Y-12460714D01*
X-17851667Y-12441667D01*
X-17870714Y-12432143D01*
X-17908810Y-12432143D01*
X-17927857Y-12441667D01*
X-17842143Y-12555952D02*
X-17861190Y-12565476D01*
X-17908810Y-12565476D01*
X-17927857Y-12555952D01*
X-17937381Y-12536905D01*
X-17937381Y-12517857D01*
X-17927857Y-12498809D01*
X-17908810Y-12489286D01*
X-17861190Y-12489286D01*
X-17842143Y-12479762D01*
X-17746905Y-12432143D02*
X-17746905Y-12632143D01*
X-17746905Y-12441667D02*
X-17727857Y-12432143D01*
X-17689762Y-12432143D01*
X-17670714Y-12441667D01*
X-17661190Y-12451190D01*
X-17651667Y-12470238D01*
X-17651667Y-12527381D01*
X-17661190Y-12546428D01*
X-17670714Y-12555952D01*
X-17689762Y-12565476D01*
X-17727857Y-12565476D01*
X-17746905Y-12555952D01*
X-17565952Y-12546428D02*
X-17556429Y-12555952D01*
X-17565952Y-12565476D01*
X-17575476Y-12555952D01*
X-17565952Y-12546428D01*
X-17565952Y-12565476D01*
X-17565952Y-12441667D02*
X-17556429Y-12451190D01*
X-17565952Y-12460714D01*
X-17575476Y-12451190D01*
X-17565952Y-12441667D01*
X-17565952Y-12460714D01*
D10*
X-19295000Y-12845000D02*
X-19195000Y-12945000D01*
X-19195000Y-12845000D02*
X-19295000Y-12945000D01*
D11*
X-18832619Y-12985476D02*
X-18946905Y-12985476D01*
X-18889762Y-12985476D02*
X-18889762Y-12785476D01*
X-18908810Y-12814048D01*
X-18927857Y-12833095D01*
X-18946905Y-12842619D01*
X-18746905Y-12966428D02*
X-18737381Y-12975952D01*
X-18746905Y-12985476D01*
X-18756429Y-12975952D01*
X-18746905Y-12966428D01*
X-18746905Y-12985476D01*
X-18613571Y-12785476D02*
X-18594524Y-12785476D01*
X-18575476Y-12795000D01*
X-18565952Y-12804524D01*
X-18556429Y-12823571D01*
X-18546905Y-12861667D01*
X-18546905Y-12909286D01*
X-18556429Y-12947381D01*
X-18565952Y-12966428D01*
X-18575476Y-12975952D01*
X-18594524Y-12985476D01*
X-18613571Y-12985476D01*
X-18632619Y-12975952D01*
X-18642143Y-12966428D01*
X-18651667Y-12947381D01*
X-18661190Y-12909286D01*
X-18661190Y-12861667D01*
X-18651667Y-12823571D01*
X-18642143Y-12804524D01*
X-18632619Y-12795000D01*
X-18613571Y-12785476D01*
X-18423095Y-12785476D02*
X-18404048Y-12785476D01*
X-18385000Y-12795000D01*
X-18375476Y-12804524D01*
X-18365952Y-12823571D01*
X-18356429Y-12861667D01*
X-18356429Y-12909286D01*
X-18365952Y-12947381D01*
X-18375476Y-12966428D01*
X-18385000Y-12975952D01*
X-18404048Y-12985476D01*
X-18423095Y-12985476D01*
X-18442143Y-12975952D01*
X-18451667Y-12966428D01*
X-18461190Y-12947381D01*
X-18470714Y-12909286D01*
X-18470714Y-12861667D01*
X-18461190Y-12823571D01*
X-18451667Y-12804524D01*
X-18442143Y-12795000D01*
X-18423095Y-12785476D01*
X-18232619Y-12785476D02*
X-18213571Y-12785476D01*
X-18194524Y-12795000D01*
X-18185000Y-12804524D01*
X-18175476Y-12823571D01*
X-18165952Y-12861667D01*
X-18165952Y-12909286D01*
X-18175476Y-12947381D01*
X-18185000Y-12966428D01*
X-18194524Y-12975952D01*
X-18213571Y-12985476D01*
X-18232619Y-12985476D01*
X-18251667Y-12975952D01*
X-18261190Y-12966428D01*
X-18270714Y-12947381D01*
X-18280238Y-12909286D01*
X-18280238Y-12861667D01*
X-18270714Y-12823571D01*
X-18261190Y-12804524D01*
X-18251667Y-12795000D01*
X-18232619Y-12785476D01*
X-18080238Y-12985476D02*
X-18080238Y-12852143D01*
X-18080238Y-12871190D02*
X-18070714Y-12861667D01*
X-18051667Y-12852143D01*
X-18023095Y-12852143D01*
X-18004048Y-12861667D01*
X-17994524Y-12880714D01*
X-17994524Y-12985476D01*
X-17994524Y-12880714D02*
X-17985000Y-12861667D01*
X-17965952Y-12852143D01*
X-17937381Y-12852143D01*
X-17918333Y-12861667D01*
X-17908810Y-12880714D01*
X-17908810Y-12985476D01*
X-17813571Y-12985476D02*
X-17813571Y-12852143D01*
X-17813571Y-12871190D02*
X-17804048Y-12861667D01*
X-17785000Y-12852143D01*
X-17756429Y-12852143D01*
X-17737381Y-12861667D01*
X-17727857Y-12880714D01*
X-17727857Y-12985476D01*
X-17727857Y-12880714D02*
X-17718333Y-12861667D01*
X-17699286Y-12852143D01*
X-17670714Y-12852143D01*
X-17651667Y-12861667D01*
X-17642143Y-12880714D01*
X-17642143Y-12985476D01*
X-17251667Y-12775952D02*
X-17423095Y-13033095D01*
X-16994524Y-12785476D02*
X-16975476Y-12785476D01*
X-16956429Y-12795000D01*
X-16946905Y-12804524D01*
X-16937381Y-12823571D01*
X-16927857Y-12861667D01*
X-16927857Y-12909286D01*
X-16937381Y-12947381D01*
X-16946905Y-12966428D01*
X-16956429Y-12975952D01*
X-16975476Y-12985476D01*
X-16994524Y-12985476D01*
X-17013571Y-12975952D01*
X-17023095Y-12966428D01*
X-17032619Y-12947381D01*
X-17042143Y-12909286D01*
X-17042143Y-12861667D01*
X-17032619Y-12823571D01*
X-17023095Y-12804524D01*
X-17013571Y-12795000D01*
X-16994524Y-12785476D01*
X-16842143Y-12966428D02*
X-16832619Y-12975952D01*
X-16842143Y-12985476D01*
X-16851667Y-12975952D01*
X-16842143Y-12966428D01*
X-16842143Y-12985476D01*
X-16708809Y-12785476D02*
X-16689762Y-12785476D01*
X-16670714Y-12795000D01*
X-16661190Y-12804524D01*
X-16651667Y-12823571D01*
X-16642143Y-12861667D01*
X-16642143Y-12909286D01*
X-16651667Y-12947381D01*
X-16661190Y-12966428D01*
X-16670714Y-12975952D01*
X-16689762Y-12985476D01*
X-16708809Y-12985476D01*
X-16727857Y-12975952D01*
X-16737381Y-12966428D01*
X-16746905Y-12947381D01*
X-16756428Y-12909286D01*
X-16756428Y-12861667D01*
X-16746905Y-12823571D01*
X-16737381Y-12804524D01*
X-16727857Y-12795000D01*
X-16708809Y-12785476D01*
X-16575476Y-12785476D02*
X-16451667Y-12785476D01*
X-16518333Y-12861667D01*
X-16489762Y-12861667D01*
X-16470714Y-12871190D01*
X-16461190Y-12880714D01*
X-16451667Y-12899762D01*
X-16451667Y-12947381D01*
X-16461190Y-12966428D01*
X-16470714Y-12975952D01*
X-16489762Y-12985476D01*
X-16546905Y-12985476D01*
X-16565952Y-12975952D01*
X-16575476Y-12966428D01*
X-16356428Y-12985476D02*
X-16318333Y-12985476D01*
X-16299286Y-12975952D01*
X-16289762Y-12966428D01*
X-16270714Y-12937857D01*
X-16261190Y-12899762D01*
X-16261190Y-12823571D01*
X-16270714Y-12804524D01*
X-16280238Y-12795000D01*
X-16299286Y-12785476D01*
X-16337381Y-12785476D01*
X-16356428Y-12795000D01*
X-16365952Y-12804524D01*
X-16375476Y-12823571D01*
X-16375476Y-12871190D01*
X-16365952Y-12890238D01*
X-16356428Y-12899762D01*
X-16337381Y-12909286D01*
X-16299286Y-12909286D01*
X-16280238Y-12899762D01*
X-16270714Y-12890238D01*
X-16261190Y-12871190D01*
X-16089762Y-12852143D02*
X-16089762Y-12985476D01*
X-16137381Y-12775952D02*
X-16185000Y-12918809D01*
X-16061190Y-12918809D01*
X-15994524Y-12785476D02*
X-15994524Y-12823571D01*
X-15918333Y-12785476D02*
X-15918333Y-12823571D01*
X-15623095Y-13061667D02*
X-15632619Y-13052143D01*
X-15651667Y-13023571D01*
X-15661190Y-13004524D01*
X-15670714Y-12975952D01*
X-15680238Y-12928333D01*
X-15680238Y-12890238D01*
X-15670714Y-12842619D01*
X-15661190Y-12814048D01*
X-15651667Y-12795000D01*
X-15632619Y-12766428D01*
X-15623095Y-12756905D01*
X-15556428Y-12804524D02*
X-15546905Y-12795000D01*
X-15527857Y-12785476D01*
X-15480238Y-12785476D01*
X-15461190Y-12795000D01*
X-15451667Y-12804524D01*
X-15442143Y-12823571D01*
X-15442143Y-12842619D01*
X-15451667Y-12871190D01*
X-15565952Y-12985476D01*
X-15442143Y-12985476D01*
X-15251667Y-12985476D02*
X-15365952Y-12985476D01*
X-15308809Y-12985476D02*
X-15308809Y-12785476D01*
X-15327857Y-12814048D01*
X-15346905Y-12833095D01*
X-15365952Y-12842619D01*
X-15013571Y-12985476D02*
X-15013571Y-12785476D01*
X-14927857Y-12985476D02*
X-14927857Y-12880714D01*
X-14937381Y-12861667D01*
X-14956428Y-12852143D01*
X-14985000Y-12852143D01*
X-15004048Y-12861667D01*
X-15013571Y-12871190D01*
X-14804048Y-12985476D02*
X-14823095Y-12975952D01*
X-14832619Y-12966428D01*
X-14842143Y-12947381D01*
X-14842143Y-12890238D01*
X-14832619Y-12871190D01*
X-14823095Y-12861667D01*
X-14804048Y-12852143D01*
X-14775476Y-12852143D01*
X-14756428Y-12861667D01*
X-14746905Y-12871190D01*
X-14737381Y-12890238D01*
X-14737381Y-12947381D01*
X-14746905Y-12966428D01*
X-14756428Y-12975952D01*
X-14775476Y-12985476D01*
X-14804048Y-12985476D01*
X-14623095Y-12985476D02*
X-14642143Y-12975952D01*
X-14651667Y-12956905D01*
X-14651667Y-12785476D01*
X-14470714Y-12975952D02*
X-14489762Y-12985476D01*
X-14527857Y-12985476D01*
X-14546905Y-12975952D01*
X-14556428Y-12956905D01*
X-14556428Y-12880714D01*
X-14546905Y-12861667D01*
X-14527857Y-12852143D01*
X-14489762Y-12852143D01*
X-14470714Y-12861667D01*
X-14461190Y-12880714D01*
X-14461190Y-12899762D01*
X-14556428Y-12918809D01*
X-14385000Y-12975952D02*
X-14365952Y-12985476D01*
X-14327857Y-12985476D01*
X-14308809Y-12975952D01*
X-14299286Y-12956905D01*
X-14299286Y-12947381D01*
X-14308809Y-12928333D01*
X-14327857Y-12918809D01*
X-14356428Y-12918809D01*
X-14375476Y-12909286D01*
X-14385000Y-12890238D01*
X-14385000Y-12880714D01*
X-14375476Y-12861667D01*
X-14356428Y-12852143D01*
X-14327857Y-12852143D01*
X-14308809Y-12861667D01*
X-14232619Y-13061667D02*
X-14223095Y-13052143D01*
X-14204048Y-13023571D01*
X-14194524Y-13004524D01*
X-14185000Y-12975952D01*
X-14175476Y-12928333D01*
X-14175476Y-12890238D01*
X-14185000Y-12842619D01*
X-14194524Y-12814048D01*
X-14204048Y-12795000D01*
X-14223095Y-12766428D01*
X-14232619Y-12756905D01*
D12*
X-19195000Y-13159000D02*
G75*
G03*
X-19195000Y-13159000I-65000J0D01*
G01*
D11*
X-18832619Y-13249476D02*
X-18946905Y-13249476D01*
X-18889762Y-13249476D02*
X-18889762Y-13049476D01*
X-18908810Y-13078048D01*
X-18927857Y-13097095D01*
X-18946905Y-13106619D01*
X-18746905Y-13230428D02*
X-18737381Y-13239952D01*
X-18746905Y-13249476D01*
X-18756429Y-13239952D01*
X-18746905Y-13230428D01*
X-18746905Y-13249476D01*
X-18670714Y-13049476D02*
X-18546905Y-13049476D01*
X-18613571Y-13125667D01*
X-18585000Y-13125667D01*
X-18565952Y-13135190D01*
X-18556429Y-13144714D01*
X-18546905Y-13163762D01*
X-18546905Y-13211381D01*
X-18556429Y-13230428D01*
X-18565952Y-13239952D01*
X-18585000Y-13249476D01*
X-18642143Y-13249476D01*
X-18661190Y-13239952D01*
X-18670714Y-13230428D01*
X-18423095Y-13049476D02*
X-18404048Y-13049476D01*
X-18385000Y-13059000D01*
X-18375476Y-13068524D01*
X-18365952Y-13087571D01*
X-18356429Y-13125667D01*
X-18356429Y-13173286D01*
X-18365952Y-13211381D01*
X-18375476Y-13230428D01*
X-18385000Y-13239952D01*
X-18404048Y-13249476D01*
X-18423095Y-13249476D01*
X-18442143Y-13239952D01*
X-18451667Y-13230428D01*
X-18461190Y-13211381D01*
X-18470714Y-13173286D01*
X-18470714Y-13125667D01*
X-18461190Y-13087571D01*
X-18451667Y-13068524D01*
X-18442143Y-13059000D01*
X-18423095Y-13049476D01*
X-18232619Y-13049476D02*
X-18213571Y-13049476D01*
X-18194524Y-13059000D01*
X-18185000Y-13068524D01*
X-18175476Y-13087571D01*
X-18165952Y-13125667D01*
X-18165952Y-13173286D01*
X-18175476Y-13211381D01*
X-18185000Y-13230428D01*
X-18194524Y-13239952D01*
X-18213571Y-13249476D01*
X-18232619Y-13249476D01*
X-18251667Y-13239952D01*
X-18261190Y-13230428D01*
X-18270714Y-13211381D01*
X-18280238Y-13173286D01*
X-18280238Y-13125667D01*
X-18270714Y-13087571D01*
X-18261190Y-13068524D01*
X-18251667Y-13059000D01*
X-18232619Y-13049476D01*
X-18080238Y-13249476D02*
X-18080238Y-13116143D01*
X-18080238Y-13135190D02*
X-18070714Y-13125667D01*
X-18051667Y-13116143D01*
X-18023095Y-13116143D01*
X-18004048Y-13125667D01*
X-17994524Y-13144714D01*
X-17994524Y-13249476D01*
X-17994524Y-13144714D02*
X-17985000Y-13125667D01*
X-17965952Y-13116143D01*
X-17937381Y-13116143D01*
X-17918333Y-13125667D01*
X-17908810Y-13144714D01*
X-17908810Y-13249476D01*
X-17813571Y-13249476D02*
X-17813571Y-13116143D01*
X-17813571Y-13135190D02*
X-17804048Y-13125667D01*
X-17785000Y-13116143D01*
X-17756429Y-13116143D01*
X-17737381Y-13125667D01*
X-17727857Y-13144714D01*
X-17727857Y-13249476D01*
X-17727857Y-13144714D02*
X-17718333Y-13125667D01*
X-17699286Y-13116143D01*
X-17670714Y-13116143D01*
X-17651667Y-13125667D01*
X-17642143Y-13144714D01*
X-17642143Y-13249476D01*
X-17251667Y-13039952D02*
X-17423095Y-13297095D01*
X-16994524Y-13049476D02*
X-16975476Y-13049476D01*
X-16956429Y-13059000D01*
X-16946905Y-13068524D01*
X-16937381Y-13087571D01*
X-16927857Y-13125667D01*
X-16927857Y-13173286D01*
X-16937381Y-13211381D01*
X-16946905Y-13230428D01*
X-16956429Y-13239952D01*
X-16975476Y-13249476D01*
X-16994524Y-13249476D01*
X-17013571Y-13239952D01*
X-17023095Y-13230428D01*
X-17032619Y-13211381D01*
X-17042143Y-13173286D01*
X-17042143Y-13125667D01*
X-17032619Y-13087571D01*
X-17023095Y-13068524D01*
X-17013571Y-13059000D01*
X-16994524Y-13049476D01*
X-16842143Y-13230428D02*
X-16832619Y-13239952D01*
X-16842143Y-13249476D01*
X-16851667Y-13239952D01*
X-16842143Y-13230428D01*
X-16842143Y-13249476D01*
X-16708809Y-13049476D02*
X-16689762Y-13049476D01*
X-16670714Y-13059000D01*
X-16661190Y-13068524D01*
X-16651667Y-13087571D01*
X-16642143Y-13125667D01*
X-16642143Y-13173286D01*
X-16651667Y-13211381D01*
X-16661190Y-13230428D01*
X-16670714Y-13239952D01*
X-16689762Y-13249476D01*
X-16708809Y-13249476D01*
X-16727857Y-13239952D01*
X-16737381Y-13230428D01*
X-16746905Y-13211381D01*
X-16756428Y-13173286D01*
X-16756428Y-13125667D01*
X-16746905Y-13087571D01*
X-16737381Y-13068524D01*
X-16727857Y-13059000D01*
X-16708809Y-13049476D01*
X-16461190Y-13049476D02*
X-16556428Y-13049476D01*
X-16565952Y-13144714D01*
X-16556428Y-13135190D01*
X-16537381Y-13125667D01*
X-16489762Y-13125667D01*
X-16470714Y-13135190D01*
X-16461190Y-13144714D01*
X-16451667Y-13163762D01*
X-16451667Y-13211381D01*
X-16461190Y-13230428D01*
X-16470714Y-13239952D01*
X-16489762Y-13249476D01*
X-16537381Y-13249476D01*
X-16556428Y-13239952D01*
X-16565952Y-13230428D01*
X-16261190Y-13249476D02*
X-16375476Y-13249476D01*
X-16318333Y-13249476D02*
X-16318333Y-13049476D01*
X-16337381Y-13078048D01*
X-16356428Y-13097095D01*
X-16375476Y-13106619D01*
X-16185000Y-13068524D02*
X-16175476Y-13059000D01*
X-16156428Y-13049476D01*
X-16108809Y-13049476D01*
X-16089762Y-13059000D01*
X-16080238Y-13068524D01*
X-16070714Y-13087571D01*
X-16070714Y-13106619D01*
X-16080238Y-13135190D01*
X-16194524Y-13249476D01*
X-16070714Y-13249476D01*
X-15994524Y-13049476D02*
X-15994524Y-13087571D01*
X-15918333Y-13049476D02*
X-15918333Y-13087571D01*
X-15623095Y-13325667D02*
X-15632619Y-13316143D01*
X-15651667Y-13287571D01*
X-15661190Y-13268524D01*
X-15670714Y-13239952D01*
X-15680238Y-13192333D01*
X-15680238Y-13154238D01*
X-15670714Y-13106619D01*
X-15661190Y-13078048D01*
X-15651667Y-13059000D01*
X-15632619Y-13030428D01*
X-15623095Y-13020905D01*
X-15442143Y-13249476D02*
X-15556428Y-13249476D01*
X-15499286Y-13249476D02*
X-15499286Y-13049476D01*
X-15518333Y-13078048D01*
X-15537381Y-13097095D01*
X-15556428Y-13106619D01*
X-15270714Y-13049476D02*
X-15308809Y-13049476D01*
X-15327857Y-13059000D01*
X-15337381Y-13068524D01*
X-15356428Y-13097095D01*
X-15365952Y-13135190D01*
X-15365952Y-13211381D01*
X-15356428Y-13230428D01*
X-15346905Y-13239952D01*
X-15327857Y-13249476D01*
X-15289762Y-13249476D01*
X-15270714Y-13239952D01*
X-15261190Y-13230428D01*
X-15251667Y-13211381D01*
X-15251667Y-13163762D01*
X-15261190Y-13144714D01*
X-15270714Y-13135190D01*
X-15289762Y-13125667D01*
X-15327857Y-13125667D01*
X-15346905Y-13135190D01*
X-15356428Y-13144714D01*
X-15365952Y-13163762D01*
X-15013571Y-13249476D02*
X-15013571Y-13049476D01*
X-14927857Y-13249476D02*
X-14927857Y-13144714D01*
X-14937381Y-13125667D01*
X-14956428Y-13116143D01*
X-14985000Y-13116143D01*
X-15004048Y-13125667D01*
X-15013571Y-13135190D01*
X-14804048Y-13249476D02*
X-14823095Y-13239952D01*
X-14832619Y-13230428D01*
X-14842143Y-13211381D01*
X-14842143Y-13154238D01*
X-14832619Y-13135190D01*
X-14823095Y-13125667D01*
X-14804048Y-13116143D01*
X-14775476Y-13116143D01*
X-14756428Y-13125667D01*
X-14746905Y-13135190D01*
X-14737381Y-13154238D01*
X-14737381Y-13211381D01*
X-14746905Y-13230428D01*
X-14756428Y-13239952D01*
X-14775476Y-13249476D01*
X-14804048Y-13249476D01*
X-14623095Y-13249476D02*
X-14642143Y-13239952D01*
X-14651667Y-13220905D01*
X-14651667Y-13049476D01*
X-14470714Y-13239952D02*
X-14489762Y-13249476D01*
X-14527857Y-13249476D01*
X-14546905Y-13239952D01*
X-14556428Y-13220905D01*
X-14556428Y-13144714D01*
X-14546905Y-13125667D01*
X-14527857Y-13116143D01*
X-14489762Y-13116143D01*
X-14470714Y-13125667D01*
X-14461190Y-13144714D01*
X-14461190Y-13163762D01*
X-14556428Y-13182809D01*
X-14385000Y-13239952D02*
X-14365952Y-13249476D01*
X-14327857Y-13249476D01*
X-14308809Y-13239952D01*
X-14299286Y-13220905D01*
X-14299286Y-13211381D01*
X-14308809Y-13192333D01*
X-14327857Y-13182809D01*
X-14356428Y-13182809D01*
X-14375476Y-13173286D01*
X-14385000Y-13154238D01*
X-14385000Y-13144714D01*
X-14375476Y-13125667D01*
X-14356428Y-13116143D01*
X-14327857Y-13116143D01*
X-14308809Y-13125667D01*
X-14232619Y-13325667D02*
X-14223095Y-13316143D01*
X-14204048Y-13287571D01*
X-14194524Y-13268524D01*
X-14185000Y-13239952D01*
X-14175476Y-13192333D01*
X-14175476Y-13154238D01*
X-14185000Y-13106619D01*
X-14194524Y-13078048D01*
X-14204048Y-13059000D01*
X-14223095Y-13030428D01*
X-14232619Y-13020905D01*
X-19295000Y-13323000D02*
X-19295000Y-13523000D01*
X-19395000Y-13423000D02*
X-19195000Y-13423000D01*
X-18956429Y-13313476D02*
X-18832619Y-13313476D01*
X-18899286Y-13389667D01*
X-18870714Y-13389667D01*
X-18851667Y-13399190D01*
X-18842143Y-13408714D01*
X-18832619Y-13427762D01*
X-18832619Y-13475381D01*
X-18842143Y-13494428D01*
X-18851667Y-13503952D01*
X-18870714Y-13513476D01*
X-18927857Y-13513476D01*
X-18946905Y-13503952D01*
X-18956429Y-13494428D01*
X-18746905Y-13494428D02*
X-18737381Y-13503952D01*
X-18746905Y-13513476D01*
X-18756429Y-13503952D01*
X-18746905Y-13494428D01*
X-18746905Y-13513476D01*
X-18613571Y-13313476D02*
X-18594524Y-13313476D01*
X-18575476Y-13323000D01*
X-18565952Y-13332524D01*
X-18556429Y-13351571D01*
X-18546905Y-13389667D01*
X-18546905Y-13437286D01*
X-18556429Y-13475381D01*
X-18565952Y-13494428D01*
X-18575476Y-13503952D01*
X-18594524Y-13513476D01*
X-18613571Y-13513476D01*
X-18632619Y-13503952D01*
X-18642143Y-13494428D01*
X-18651667Y-13475381D01*
X-18661190Y-13437286D01*
X-18661190Y-13389667D01*
X-18651667Y-13351571D01*
X-18642143Y-13332524D01*
X-18632619Y-13323000D01*
X-18613571Y-13313476D01*
X-18423095Y-13313476D02*
X-18404048Y-13313476D01*
X-18385000Y-13323000D01*
X-18375476Y-13332524D01*
X-18365952Y-13351571D01*
X-18356429Y-13389667D01*
X-18356429Y-13437286D01*
X-18365952Y-13475381D01*
X-18375476Y-13494428D01*
X-18385000Y-13503952D01*
X-18404048Y-13513476D01*
X-18423095Y-13513476D01*
X-18442143Y-13503952D01*
X-18451667Y-13494428D01*
X-18461190Y-13475381D01*
X-18470714Y-13437286D01*
X-18470714Y-13389667D01*
X-18461190Y-13351571D01*
X-18451667Y-13332524D01*
X-18442143Y-13323000D01*
X-18423095Y-13313476D01*
X-18232619Y-13313476D02*
X-18213571Y-13313476D01*
X-18194524Y-13323000D01*
X-18185000Y-13332524D01*
X-18175476Y-13351571D01*
X-18165952Y-13389667D01*
X-18165952Y-13437286D01*
X-18175476Y-13475381D01*
X-18185000Y-13494428D01*
X-18194524Y-13503952D01*
X-18213571Y-13513476D01*
X-18232619Y-13513476D01*
X-18251667Y-13503952D01*
X-18261190Y-13494428D01*
X-18270714Y-13475381D01*
X-18280238Y-13437286D01*
X-18280238Y-13389667D01*
X-18270714Y-13351571D01*
X-18261190Y-13332524D01*
X-18251667Y-13323000D01*
X-18232619Y-13313476D01*
X-18080238Y-13513476D02*
X-18080238Y-13380143D01*
X-18080238Y-13399190D02*
X-18070714Y-13389667D01*
X-18051667Y-13380143D01*
X-18023095Y-13380143D01*
X-18004048Y-13389667D01*
X-17994524Y-13408714D01*
X-17994524Y-13513476D01*
X-17994524Y-13408714D02*
X-17985000Y-13389667D01*
X-17965952Y-13380143D01*
X-17937381Y-13380143D01*
X-17918333Y-13389667D01*
X-17908810Y-13408714D01*
X-17908810Y-13513476D01*
X-17813571Y-13513476D02*
X-17813571Y-13380143D01*
X-17813571Y-13399190D02*
X-17804048Y-13389667D01*
X-17785000Y-13380143D01*
X-17756429Y-13380143D01*
X-17737381Y-13389667D01*
X-17727857Y-13408714D01*
X-17727857Y-13513476D01*
X-17727857Y-13408714D02*
X-17718333Y-13389667D01*
X-17699286Y-13380143D01*
X-17670714Y-13380143D01*
X-17651667Y-13389667D01*
X-17642143Y-13408714D01*
X-17642143Y-13513476D01*
X-17251667Y-13303952D02*
X-17423095Y-13561095D01*
X-16994524Y-13313476D02*
X-16975476Y-13313476D01*
X-16956429Y-13323000D01*
X-16946905Y-13332524D01*
X-16937381Y-13351571D01*
X-16927857Y-13389667D01*
X-16927857Y-13437286D01*
X-16937381Y-13475381D01*
X-16946905Y-13494428D01*
X-16956429Y-13503952D01*
X-16975476Y-13513476D01*
X-16994524Y-13513476D01*
X-17013571Y-13503952D01*
X-17023095Y-13494428D01*
X-17032619Y-13475381D01*
X-17042143Y-13437286D01*
X-17042143Y-13389667D01*
X-17032619Y-13351571D01*
X-17023095Y-13332524D01*
X-17013571Y-13323000D01*
X-16994524Y-13313476D01*
X-16842143Y-13494428D02*
X-16832619Y-13503952D01*
X-16842143Y-13513476D01*
X-16851667Y-13503952D01*
X-16842143Y-13494428D01*
X-16842143Y-13513476D01*
X-16642143Y-13513476D02*
X-16756428Y-13513476D01*
X-16699286Y-13513476D02*
X-16699286Y-13313476D01*
X-16718333Y-13342048D01*
X-16737381Y-13361095D01*
X-16756428Y-13370619D01*
X-16451667Y-13513476D02*
X-16565952Y-13513476D01*
X-16508809Y-13513476D02*
X-16508809Y-13313476D01*
X-16527857Y-13342048D01*
X-16546905Y-13361095D01*
X-16565952Y-13370619D01*
X-16337381Y-13399190D02*
X-16356428Y-13389667D01*
X-16365952Y-13380143D01*
X-16375476Y-13361095D01*
X-16375476Y-13351571D01*
X-16365952Y-13332524D01*
X-16356428Y-13323000D01*
X-16337381Y-13313476D01*
X-16299286Y-13313476D01*
X-16280238Y-13323000D01*
X-16270714Y-13332524D01*
X-16261190Y-13351571D01*
X-16261190Y-13361095D01*
X-16270714Y-13380143D01*
X-16280238Y-13389667D01*
X-16299286Y-13399190D01*
X-16337381Y-13399190D01*
X-16356428Y-13408714D01*
X-16365952Y-13418238D01*
X-16375476Y-13437286D01*
X-16375476Y-13475381D01*
X-16365952Y-13494428D01*
X-16356428Y-13503952D01*
X-16337381Y-13513476D01*
X-16299286Y-13513476D01*
X-16280238Y-13503952D01*
X-16270714Y-13494428D01*
X-16261190Y-13475381D01*
X-16261190Y-13437286D01*
X-16270714Y-13418238D01*
X-16280238Y-13408714D01*
X-16299286Y-13399190D01*
X-16070714Y-13513476D02*
X-16185000Y-13513476D01*
X-16127857Y-13513476D02*
X-16127857Y-13313476D01*
X-16146905Y-13342048D01*
X-16165952Y-13361095D01*
X-16185000Y-13370619D01*
X-15994524Y-13313476D02*
X-15994524Y-13351571D01*
X-15918333Y-13313476D02*
X-15918333Y-13351571D01*
X-15623095Y-13589667D02*
X-15632619Y-13580143D01*
X-15651667Y-13551571D01*
X-15661190Y-13532524D01*
X-15670714Y-13503952D01*
X-15680238Y-13456333D01*
X-15680238Y-13418238D01*
X-15670714Y-13370619D01*
X-15661190Y-13342048D01*
X-15651667Y-13323000D01*
X-15632619Y-13294428D01*
X-15623095Y-13284905D01*
X-15461190Y-13380143D02*
X-15461190Y-13513476D01*
X-15508809Y-13303952D02*
X-15556428Y-13446809D01*
X-15432619Y-13446809D01*
X-15204048Y-13513476D02*
X-15204048Y-13313476D01*
X-15118333Y-13513476D02*
X-15118333Y-13408714D01*
X-15127857Y-13389667D01*
X-15146905Y-13380143D01*
X-15175476Y-13380143D01*
X-15194524Y-13389667D01*
X-15204048Y-13399190D01*
X-14994524Y-13513476D02*
X-15013571Y-13503952D01*
X-15023095Y-13494428D01*
X-15032619Y-13475381D01*
X-15032619Y-13418238D01*
X-15023095Y-13399190D01*
X-15013571Y-13389667D01*
X-14994524Y-13380143D01*
X-14965952Y-13380143D01*
X-14946905Y-13389667D01*
X-14937381Y-13399190D01*
X-14927857Y-13418238D01*
X-14927857Y-13475381D01*
X-14937381Y-13494428D01*
X-14946905Y-13503952D01*
X-14965952Y-13513476D01*
X-14994524Y-13513476D01*
X-14813571Y-13513476D02*
X-14832619Y-13503952D01*
X-14842143Y-13484905D01*
X-14842143Y-13313476D01*
X-14661190Y-13503952D02*
X-14680238Y-13513476D01*
X-14718333Y-13513476D01*
X-14737381Y-13503952D01*
X-14746905Y-13484905D01*
X-14746905Y-13408714D01*
X-14737381Y-13389667D01*
X-14718333Y-13380143D01*
X-14680238Y-13380143D01*
X-14661190Y-13389667D01*
X-14651667Y-13408714D01*
X-14651667Y-13427762D01*
X-14746905Y-13446809D01*
X-14575476Y-13503952D02*
X-14556428Y-13513476D01*
X-14518333Y-13513476D01*
X-14499286Y-13503952D01*
X-14489762Y-13484905D01*
X-14489762Y-13475381D01*
X-14499286Y-13456333D01*
X-14518333Y-13446809D01*
X-14546905Y-13446809D01*
X-14565952Y-13437286D01*
X-14575476Y-13418238D01*
X-14575476Y-13408714D01*
X-14565952Y-13389667D01*
X-14546905Y-13380143D01*
X-14518333Y-13380143D01*
X-14499286Y-13389667D01*
X-14423095Y-13589667D02*
X-14413571Y-13580143D01*
X-14394524Y-13551571D01*
X-14385000Y-13532524D01*
X-14375476Y-13503952D01*
X-14365952Y-13456333D01*
X-14365952Y-13418238D01*
X-14375476Y-13370619D01*
X-14385000Y-13342048D01*
X-14394524Y-13323000D01*
X-14413571Y-13294428D01*
X-14423095Y-13284905D01*
M02*
