M48
; DRILL file {KiCad (6.0.8)} date Fri Mar  3 00:49:52 2023
; FORMAT={-:-/ absolute / metric / decimal}
; #@! TF.CreationDate,2023-03-03T00:49:52+05:30
; #@! TF.GenerationSoftware,Kicad,Pcbnew,(6.0.8)
; #@! TF.FileFunction,Plated,1,2,PTH
FMAT,2
METRIC
; #@! TA.AperFunction,Plated,PTH,ComponentDrill
T1C1.000
; #@! TA.AperFunction,Plated,PTH,ComponentDrill
T2C1.300
; #@! TA.AperFunction,Plated,PTH,ComponentDrill
T3C3.000
%
G90
G05
T1
X-175.9Y-25.5
X-173.36Y-25.5
X-170.82Y-25.5
X-168.28Y-25.5
X-165.74Y-25.5
X-163.2Y-25.5
X-160.66Y-25.5
X-158.12Y-25.5
X-155.58Y-25.5
X-153.04Y-25.5
X-150.5Y-25.5
X-147.96Y-25.5
X-145.42Y-25.5
X-142.88Y-25.5
X-140.34Y-25.5
X-137.8Y-25.5
X-131.46Y-119.6
X-128.92Y-119.6
X-126.38Y-119.6
X-123.84Y-119.6
X-121.3Y-119.6
T2
X-181.14Y-100.0
X-181.14Y-105.0
X-168.64Y-100.0
X-168.64Y-105.0
X-159.14Y-100.0
X-159.14Y-105.0
X-146.64Y-100.0
X-146.64Y-105.0
X-137.14Y-100.0
X-137.14Y-105.0
X-124.64Y-100.0
X-124.64Y-105.0
X-115.14Y-100.0
X-115.14Y-105.0
X-102.64Y-100.0
X-102.64Y-105.0
T3
X-188.4Y-26.0
X-188.4Y-119.0
X-95.4Y-26.0
X-95.4Y-119.0
T0
M30
