%TF.GenerationSoftware,KiCad,Pcbnew,(6.0.8)*%
%TF.CreationDate,2023-03-03T00:49:48+05:30*%
%TF.ProjectId,STM32DryerPCB,53544d33-3244-4727-9965-725043422e6b,rev?*%
%TF.SameCoordinates,Original*%
%TF.FileFunction,Copper,L2,Bot*%
%TF.FilePolarity,Positive*%
%FSLAX46Y46*%
G04 Gerber Fmt 4.6, Leading zero omitted, Abs format (unit mm)*
G04 Created by KiCad (PCBNEW (6.0.8)) date 2023-03-03 00:49:48*
%MOMM*%
%LPD*%
G01*
G04 APERTURE LIST*
%TA.AperFunction,ComponentPad*%
%ADD10C,6.000000*%
%TD*%
%TA.AperFunction,ComponentPad*%
%ADD11O,3.048000X1.850000*%
%TD*%
%TA.AperFunction,ComponentPad*%
%ADD12R,1.700000X1.700000*%
%TD*%
%TA.AperFunction,ComponentPad*%
%ADD13O,1.700000X1.700000*%
%TD*%
%TA.AperFunction,Conductor*%
%ADD14C,1.250000*%
%TD*%
G04 APERTURE END LIST*
D10*
%TO.P,H601,1*%
%TO.N,N/C*%
X-188400000Y-26000000D03*
%TD*%
D11*
%TO.P,SW602,1,1*%
%TO.N,+5V*%
X-124640000Y-100000000D03*
X-137140000Y-100000000D03*
%TO.P,SW602,2,2*%
%TO.N,HIGH_KEY_SW_IN*%
X-137140000Y-105000000D03*
X-124640000Y-105000000D03*
%TD*%
D12*
%TO.P,J603,1,Pin_1*%
%TO.N,MID_KEY_SW_IN*%
X-121300000Y-119600000D03*
D13*
%TO.P,J603,2,Pin_2*%
%TO.N,HIGH_KEY_SW_IN*%
X-123840000Y-119600000D03*
%TO.P,J603,3,Pin_3*%
%TO.N,LOW_KEY_SW_IN*%
X-126380000Y-119600000D03*
%TO.P,J603,4,Pin_4*%
%TO.N,FN_KEY_SW_IN*%
X-128920000Y-119600000D03*
%TO.P,J603,5,Pin_5*%
%TO.N,+5V*%
X-131460000Y-119600000D03*
%TD*%
D10*
%TO.P,H602,1*%
%TO.N,N/C*%
X-95400000Y-26000000D03*
%TD*%
%TO.P,H604,1*%
%TO.N,N/C*%
X-95400000Y-119000000D03*
%TD*%
D11*
%TO.P,SW604,1,1*%
%TO.N,+5V*%
X-168640000Y-100000000D03*
X-181140000Y-100000000D03*
%TO.P,SW604,2,2*%
%TO.N,FN_KEY_SW_IN*%
X-168640000Y-105000000D03*
X-181140000Y-105000000D03*
%TD*%
%TO.P,SW601,1,1*%
%TO.N,+5V*%
X-102640000Y-100000000D03*
X-115140000Y-100000000D03*
%TO.P,SW601,2,2*%
%TO.N,MID_KEY_SW_IN*%
X-115140000Y-105000000D03*
X-102640000Y-105000000D03*
%TD*%
%TO.P,SW603,1,1*%
%TO.N,+5V*%
X-146640000Y-100000000D03*
X-159140000Y-100000000D03*
%TO.P,SW603,2,2*%
%TO.N,LOW_KEY_SW_IN*%
X-146640000Y-105000000D03*
X-159140000Y-105000000D03*
%TD*%
D12*
%TO.P,J602,1,Pin_1*%
%TO.N,GND*%
X-175900000Y-25500000D03*
D13*
%TO.P,J602,2,Pin_2*%
%TO.N,+5V*%
X-173360000Y-25500000D03*
%TO.P,J602,3,Pin_3*%
%TO.N,/CONNECTORS/VO*%
X-170820000Y-25500000D03*
%TO.P,J602,4,Pin_4*%
%TO.N,LCD_RS*%
X-168280000Y-25500000D03*
%TO.P,J602,5,Pin_5*%
%TO.N,GND*%
X-165740000Y-25500000D03*
%TO.P,J602,6,Pin_6*%
%TO.N,LCD_EN*%
X-163200000Y-25500000D03*
%TO.P,J602,7,Pin_7*%
%TO.N,LCD_D0*%
X-160660000Y-25500000D03*
%TO.P,J602,8,Pin_8*%
%TO.N,LCD_D1*%
X-158120000Y-25500000D03*
%TO.P,J602,9,Pin_9*%
%TO.N,LCD_D2*%
X-155580000Y-25500000D03*
%TO.P,J602,10,Pin_10*%
%TO.N,LCD_D3*%
X-153040000Y-25500000D03*
%TO.P,J602,11,Pin_11*%
%TO.N,LCD_D4*%
X-150500000Y-25500000D03*
%TO.P,J602,12,Pin_12*%
%TO.N,LCD_D5*%
X-147960000Y-25500000D03*
%TO.P,J602,13,Pin_13*%
%TO.N,LCD_D6*%
X-145420000Y-25500000D03*
%TO.P,J602,14,Pin_14*%
%TO.N,LCD_D7*%
X-142880000Y-25500000D03*
%TO.P,J602,15,Pin_15*%
%TO.N,+5V*%
X-140340000Y-25500000D03*
%TO.P,J602,16,Pin_16*%
%TO.N,GND*%
X-137800000Y-25500000D03*
%TD*%
D10*
%TO.P,H603,1*%
%TO.N,N/C*%
X-188400000Y-119000000D03*
%TD*%
D14*
%TO.N,HIGH_KEY_SW_IN*%
X-124640000Y-105000000D02*
X-124640000Y-110760000D01*
%TO.N,MID_KEY_SW_IN*%
X-121300000Y-109400000D02*
X-121300000Y-119600000D01*
X-115140000Y-105000000D02*
X-116900000Y-105000000D01*
%TO.N,FN_KEY_SW_IN*%
X-128920000Y-117680000D02*
X-128920000Y-119600000D01*
%TO.N,HIGH_KEY_SW_IN*%
X-124640000Y-110760000D02*
X-123800000Y-111600000D01*
%TO.N,LOW_KEY_SW_IN*%
X-144600000Y-105000000D02*
X-136900000Y-112700000D01*
%TO.N,FN_KEY_SW_IN*%
X-131000000Y-115600000D02*
X-128920000Y-117680000D01*
%TO.N,MID_KEY_SW_IN*%
X-102640000Y-105000000D02*
X-115140000Y-105000000D01*
%TO.N,LOW_KEY_SW_IN*%
X-127900000Y-112700000D02*
X-126380000Y-114220000D01*
%TO.N,HIGH_KEY_SW_IN*%
X-124640000Y-105000000D02*
X-137140000Y-105000000D01*
X-123840000Y-111640000D02*
X-123840000Y-119600000D01*
%TO.N,LOW_KEY_SW_IN*%
X-146640000Y-105000000D02*
X-159140000Y-105000000D01*
%TO.N,HIGH_KEY_SW_IN*%
X-123800000Y-111600000D02*
X-123840000Y-111640000D01*
%TO.N,FN_KEY_SW_IN*%
X-168640000Y-105000000D02*
X-166400000Y-105000000D01*
%TO.N,LOW_KEY_SW_IN*%
X-146640000Y-105000000D02*
X-144600000Y-105000000D01*
%TO.N,MID_KEY_SW_IN*%
X-116900000Y-105000000D02*
X-121300000Y-109400000D01*
%TO.N,FN_KEY_SW_IN*%
X-155800000Y-115600000D02*
X-131000000Y-115600000D01*
%TO.N,LOW_KEY_SW_IN*%
X-136900000Y-112700000D02*
X-127900000Y-112700000D01*
%TO.N,FN_KEY_SW_IN*%
X-166400000Y-105000000D02*
X-155800000Y-115600000D01*
X-168640000Y-105000000D02*
X-181140000Y-105000000D01*
%TO.N,LOW_KEY_SW_IN*%
X-126380000Y-114220000D02*
X-126380000Y-119600000D01*
%TO.N,+5V*%
X-146640000Y-100000000D02*
X-137140000Y-100000000D01*
X-185400000Y-115700000D02*
X-185400000Y-101900000D01*
X-185400000Y-101900000D02*
X-183500000Y-100000000D01*
X-137140000Y-100000000D02*
X-124640000Y-100000000D01*
X-124640000Y-100000000D02*
X-115140000Y-100000000D01*
X-181140000Y-100000000D02*
X-168640000Y-100000000D01*
X-159140000Y-100000000D02*
X-146640000Y-100000000D01*
X-131460000Y-119600000D02*
X-181500000Y-119600000D01*
X-181500000Y-119600000D02*
X-185400000Y-115700000D01*
X-115140000Y-100000000D02*
X-102640000Y-100000000D01*
X-183500000Y-100000000D02*
X-181140000Y-100000000D01*
X-168640000Y-100000000D02*
X-159140000Y-100000000D01*
%TD*%
M02*
