%TF.GenerationSoftware,KiCad,Pcbnew,(6.0.8)*%
%TF.CreationDate,2023-03-03T00:49:53+05:30*%
%TF.ProjectId,STM32DryerPCB,53544d33-3244-4727-9965-725043422e6b,rev?*%
%TF.SameCoordinates,Original*%
%TF.FileFunction,Drillmap*%
%TF.FilePolarity,Positive*%
%FSLAX45Y45*%
G04 Gerber Fmt 4.5, Leading zero omitted, Abs format (unit mm)*
G04 Created by KiCad (PCBNEW (6.0.8)) date 2023-03-03 00:49:53*
%MOMM*%
%LPD*%
G01*
G04 APERTURE LIST*
%ADD10C,0.100000*%
%ADD11C,0.200000*%
%ADD12C,0.300000*%
G04 APERTURE END LIST*
D10*
X-19190000Y-3100000D02*
X-19190000Y-2250000D01*
X-19190000Y-3640000D02*
G75*
G03*
X-19190000Y-3100000I181739J270000D01*
G01*
X-9190000Y-12250000D02*
X-19190000Y-12250000D01*
X-19190000Y-12250000D02*
X-19190000Y-3640000D01*
X-9190000Y-2250000D02*
X-9190000Y-12250000D01*
X-19190000Y-2250000D02*
X-9190000Y-2250000D01*
X-17990000Y-3050000D02*
X-10290000Y-3050000D01*
X-10290000Y-3050000D02*
X-10290000Y-7450000D01*
X-10290000Y-7450000D02*
X-17990000Y-7450000D01*
X-17990000Y-7450000D02*
X-17990000Y-3050000D01*
D11*
D12*
X-18390000Y-2350000D02*
X-18090000Y-2650000D01*
X-18090000Y-2350000D02*
X-18390000Y-2650000D01*
X-18390000Y-7850000D02*
X-18090000Y-8150000D01*
X-18090000Y-7850000D02*
X-18390000Y-8150000D01*
X-10290000Y-2350000D02*
X-9990000Y-2650000D01*
X-9990000Y-2350000D02*
X-10290000Y-2650000D01*
X-10290000Y-7840000D02*
X-9990000Y-8140000D01*
X-9990000Y-7840000D02*
X-10290000Y-8140000D01*
D11*
X-18937381Y-12565476D02*
X-18937381Y-12365476D01*
X-18889762Y-12365476D01*
X-18861190Y-12375000D01*
X-18842143Y-12394048D01*
X-18832619Y-12413095D01*
X-18823095Y-12451190D01*
X-18823095Y-12479762D01*
X-18832619Y-12517857D01*
X-18842143Y-12536905D01*
X-18861190Y-12555952D01*
X-18889762Y-12565476D01*
X-18937381Y-12565476D01*
X-18737381Y-12565476D02*
X-18737381Y-12432143D01*
X-18737381Y-12470238D02*
X-18727857Y-12451190D01*
X-18718333Y-12441667D01*
X-18699286Y-12432143D01*
X-18680238Y-12432143D01*
X-18613571Y-12565476D02*
X-18613571Y-12432143D01*
X-18613571Y-12365476D02*
X-18623095Y-12375000D01*
X-18613571Y-12384524D01*
X-18604048Y-12375000D01*
X-18613571Y-12365476D01*
X-18613571Y-12384524D01*
X-18489762Y-12565476D02*
X-18508810Y-12555952D01*
X-18518333Y-12536905D01*
X-18518333Y-12365476D01*
X-18385000Y-12565476D02*
X-18404048Y-12555952D01*
X-18413571Y-12536905D01*
X-18413571Y-12365476D01*
X-18156429Y-12565476D02*
X-18156429Y-12365476D01*
X-18089762Y-12508333D01*
X-18023095Y-12365476D01*
X-18023095Y-12565476D01*
X-17842143Y-12565476D02*
X-17842143Y-12460714D01*
X-17851667Y-12441667D01*
X-17870714Y-12432143D01*
X-17908810Y-12432143D01*
X-17927857Y-12441667D01*
X-17842143Y-12555952D02*
X-17861190Y-12565476D01*
X-17908810Y-12565476D01*
X-17927857Y-12555952D01*
X-17937381Y-12536905D01*
X-17937381Y-12517857D01*
X-17927857Y-12498809D01*
X-17908810Y-12489286D01*
X-17861190Y-12489286D01*
X-17842143Y-12479762D01*
X-17746905Y-12432143D02*
X-17746905Y-12632143D01*
X-17746905Y-12441667D02*
X-17727857Y-12432143D01*
X-17689762Y-12432143D01*
X-17670714Y-12441667D01*
X-17661190Y-12451190D01*
X-17651667Y-12470238D01*
X-17651667Y-12527381D01*
X-17661190Y-12546428D01*
X-17670714Y-12555952D01*
X-17689762Y-12565476D01*
X-17727857Y-12565476D01*
X-17746905Y-12555952D01*
X-17565952Y-12546428D02*
X-17556429Y-12555952D01*
X-17565952Y-12565476D01*
X-17575476Y-12555952D01*
X-17565952Y-12546428D01*
X-17565952Y-12565476D01*
X-17565952Y-12441667D02*
X-17556429Y-12451190D01*
X-17565952Y-12460714D01*
X-17575476Y-12451190D01*
X-17565952Y-12441667D01*
X-17565952Y-12460714D01*
X-19395000Y-12795000D02*
X-19195000Y-12995000D01*
X-19195000Y-12795000D02*
X-19395000Y-12995000D01*
X-18956429Y-12785476D02*
X-18832619Y-12785476D01*
X-18899286Y-12861667D01*
X-18870714Y-12861667D01*
X-18851667Y-12871190D01*
X-18842143Y-12880714D01*
X-18832619Y-12899762D01*
X-18832619Y-12947381D01*
X-18842143Y-12966428D01*
X-18851667Y-12975952D01*
X-18870714Y-12985476D01*
X-18927857Y-12985476D01*
X-18946905Y-12975952D01*
X-18956429Y-12966428D01*
X-18746905Y-12966428D02*
X-18737381Y-12975952D01*
X-18746905Y-12985476D01*
X-18756429Y-12975952D01*
X-18746905Y-12966428D01*
X-18746905Y-12985476D01*
X-18613571Y-12785476D02*
X-18594524Y-12785476D01*
X-18575476Y-12795000D01*
X-18565952Y-12804524D01*
X-18556429Y-12823571D01*
X-18546905Y-12861667D01*
X-18546905Y-12909286D01*
X-18556429Y-12947381D01*
X-18565952Y-12966428D01*
X-18575476Y-12975952D01*
X-18594524Y-12985476D01*
X-18613571Y-12985476D01*
X-18632619Y-12975952D01*
X-18642143Y-12966428D01*
X-18651667Y-12947381D01*
X-18661190Y-12909286D01*
X-18661190Y-12861667D01*
X-18651667Y-12823571D01*
X-18642143Y-12804524D01*
X-18632619Y-12795000D01*
X-18613571Y-12785476D01*
X-18423095Y-12785476D02*
X-18404048Y-12785476D01*
X-18385000Y-12795000D01*
X-18375476Y-12804524D01*
X-18365952Y-12823571D01*
X-18356429Y-12861667D01*
X-18356429Y-12909286D01*
X-18365952Y-12947381D01*
X-18375476Y-12966428D01*
X-18385000Y-12975952D01*
X-18404048Y-12985476D01*
X-18423095Y-12985476D01*
X-18442143Y-12975952D01*
X-18451667Y-12966428D01*
X-18461190Y-12947381D01*
X-18470714Y-12909286D01*
X-18470714Y-12861667D01*
X-18461190Y-12823571D01*
X-18451667Y-12804524D01*
X-18442143Y-12795000D01*
X-18423095Y-12785476D01*
X-18232619Y-12785476D02*
X-18213571Y-12785476D01*
X-18194524Y-12795000D01*
X-18185000Y-12804524D01*
X-18175476Y-12823571D01*
X-18165952Y-12861667D01*
X-18165952Y-12909286D01*
X-18175476Y-12947381D01*
X-18185000Y-12966428D01*
X-18194524Y-12975952D01*
X-18213571Y-12985476D01*
X-18232619Y-12985476D01*
X-18251667Y-12975952D01*
X-18261190Y-12966428D01*
X-18270714Y-12947381D01*
X-18280238Y-12909286D01*
X-18280238Y-12861667D01*
X-18270714Y-12823571D01*
X-18261190Y-12804524D01*
X-18251667Y-12795000D01*
X-18232619Y-12785476D01*
X-18080238Y-12985476D02*
X-18080238Y-12852143D01*
X-18080238Y-12871190D02*
X-18070714Y-12861667D01*
X-18051667Y-12852143D01*
X-18023095Y-12852143D01*
X-18004048Y-12861667D01*
X-17994524Y-12880714D01*
X-17994524Y-12985476D01*
X-17994524Y-12880714D02*
X-17985000Y-12861667D01*
X-17965952Y-12852143D01*
X-17937381Y-12852143D01*
X-17918333Y-12861667D01*
X-17908810Y-12880714D01*
X-17908810Y-12985476D01*
X-17813571Y-12985476D02*
X-17813571Y-12852143D01*
X-17813571Y-12871190D02*
X-17804048Y-12861667D01*
X-17785000Y-12852143D01*
X-17756429Y-12852143D01*
X-17737381Y-12861667D01*
X-17727857Y-12880714D01*
X-17727857Y-12985476D01*
X-17727857Y-12880714D02*
X-17718333Y-12861667D01*
X-17699286Y-12852143D01*
X-17670714Y-12852143D01*
X-17651667Y-12861667D01*
X-17642143Y-12880714D01*
X-17642143Y-12985476D01*
X-17251667Y-12775952D02*
X-17423095Y-13033095D01*
X-16994524Y-12785476D02*
X-16975476Y-12785476D01*
X-16956429Y-12795000D01*
X-16946905Y-12804524D01*
X-16937381Y-12823571D01*
X-16927857Y-12861667D01*
X-16927857Y-12909286D01*
X-16937381Y-12947381D01*
X-16946905Y-12966428D01*
X-16956429Y-12975952D01*
X-16975476Y-12985476D01*
X-16994524Y-12985476D01*
X-17013571Y-12975952D01*
X-17023095Y-12966428D01*
X-17032619Y-12947381D01*
X-17042143Y-12909286D01*
X-17042143Y-12861667D01*
X-17032619Y-12823571D01*
X-17023095Y-12804524D01*
X-17013571Y-12795000D01*
X-16994524Y-12785476D01*
X-16842143Y-12966428D02*
X-16832619Y-12975952D01*
X-16842143Y-12985476D01*
X-16851667Y-12975952D01*
X-16842143Y-12966428D01*
X-16842143Y-12985476D01*
X-16642143Y-12985476D02*
X-16756428Y-12985476D01*
X-16699286Y-12985476D02*
X-16699286Y-12785476D01*
X-16718333Y-12814048D01*
X-16737381Y-12833095D01*
X-16756428Y-12842619D01*
X-16451667Y-12985476D02*
X-16565952Y-12985476D01*
X-16508809Y-12985476D02*
X-16508809Y-12785476D01*
X-16527857Y-12814048D01*
X-16546905Y-12833095D01*
X-16565952Y-12842619D01*
X-16337381Y-12871190D02*
X-16356428Y-12861667D01*
X-16365952Y-12852143D01*
X-16375476Y-12833095D01*
X-16375476Y-12823571D01*
X-16365952Y-12804524D01*
X-16356428Y-12795000D01*
X-16337381Y-12785476D01*
X-16299286Y-12785476D01*
X-16280238Y-12795000D01*
X-16270714Y-12804524D01*
X-16261190Y-12823571D01*
X-16261190Y-12833095D01*
X-16270714Y-12852143D01*
X-16280238Y-12861667D01*
X-16299286Y-12871190D01*
X-16337381Y-12871190D01*
X-16356428Y-12880714D01*
X-16365952Y-12890238D01*
X-16375476Y-12909286D01*
X-16375476Y-12947381D01*
X-16365952Y-12966428D01*
X-16356428Y-12975952D01*
X-16337381Y-12985476D01*
X-16299286Y-12985476D01*
X-16280238Y-12975952D01*
X-16270714Y-12966428D01*
X-16261190Y-12947381D01*
X-16261190Y-12909286D01*
X-16270714Y-12890238D01*
X-16280238Y-12880714D01*
X-16299286Y-12871190D01*
X-16070714Y-12985476D02*
X-16185000Y-12985476D01*
X-16127857Y-12985476D02*
X-16127857Y-12785476D01*
X-16146905Y-12814048D01*
X-16165952Y-12833095D01*
X-16185000Y-12842619D01*
X-15994524Y-12785476D02*
X-15994524Y-12823571D01*
X-15918333Y-12785476D02*
X-15918333Y-12823571D01*
X-15623095Y-13061667D02*
X-15632619Y-13052143D01*
X-15651667Y-13023571D01*
X-15661190Y-13004524D01*
X-15670714Y-12975952D01*
X-15680238Y-12928333D01*
X-15680238Y-12890238D01*
X-15670714Y-12842619D01*
X-15661190Y-12814048D01*
X-15651667Y-12795000D01*
X-15632619Y-12766428D01*
X-15623095Y-12756905D01*
X-15461190Y-12852143D02*
X-15461190Y-12985476D01*
X-15508809Y-12775952D02*
X-15556428Y-12918809D01*
X-15432619Y-12918809D01*
X-15204048Y-12985476D02*
X-15204048Y-12785476D01*
X-15118333Y-12985476D02*
X-15118333Y-12880714D01*
X-15127857Y-12861667D01*
X-15146905Y-12852143D01*
X-15175476Y-12852143D01*
X-15194524Y-12861667D01*
X-15204048Y-12871190D01*
X-14994524Y-12985476D02*
X-15013571Y-12975952D01*
X-15023095Y-12966428D01*
X-15032619Y-12947381D01*
X-15032619Y-12890238D01*
X-15023095Y-12871190D01*
X-15013571Y-12861667D01*
X-14994524Y-12852143D01*
X-14965952Y-12852143D01*
X-14946905Y-12861667D01*
X-14937381Y-12871190D01*
X-14927857Y-12890238D01*
X-14927857Y-12947381D01*
X-14937381Y-12966428D01*
X-14946905Y-12975952D01*
X-14965952Y-12985476D01*
X-14994524Y-12985476D01*
X-14813571Y-12985476D02*
X-14832619Y-12975952D01*
X-14842143Y-12956905D01*
X-14842143Y-12785476D01*
X-14661190Y-12975952D02*
X-14680238Y-12985476D01*
X-14718333Y-12985476D01*
X-14737381Y-12975952D01*
X-14746905Y-12956905D01*
X-14746905Y-12880714D01*
X-14737381Y-12861667D01*
X-14718333Y-12852143D01*
X-14680238Y-12852143D01*
X-14661190Y-12861667D01*
X-14651667Y-12880714D01*
X-14651667Y-12899762D01*
X-14746905Y-12918809D01*
X-14575476Y-12975952D02*
X-14556428Y-12985476D01*
X-14518333Y-12985476D01*
X-14499286Y-12975952D01*
X-14489762Y-12956905D01*
X-14489762Y-12947381D01*
X-14499286Y-12928333D01*
X-14518333Y-12918809D01*
X-14546905Y-12918809D01*
X-14565952Y-12909286D01*
X-14575476Y-12890238D01*
X-14575476Y-12880714D01*
X-14565952Y-12861667D01*
X-14546905Y-12852143D01*
X-14518333Y-12852143D01*
X-14499286Y-12861667D01*
X-14423095Y-13061667D02*
X-14413571Y-13052143D01*
X-14394524Y-13023571D01*
X-14385000Y-13004524D01*
X-14375476Y-12975952D01*
X-14365952Y-12928333D01*
X-14365952Y-12890238D01*
X-14375476Y-12842619D01*
X-14385000Y-12814048D01*
X-14394524Y-12795000D01*
X-14413571Y-12766428D01*
X-14423095Y-12756905D01*
X-14061190Y-13061667D02*
X-14070714Y-13052143D01*
X-14089762Y-13023571D01*
X-14099286Y-13004524D01*
X-14108809Y-12975952D01*
X-14118333Y-12928333D01*
X-14118333Y-12890238D01*
X-14108809Y-12842619D01*
X-14099286Y-12814048D01*
X-14089762Y-12795000D01*
X-14070714Y-12766428D01*
X-14061190Y-12756905D01*
X-13985000Y-12852143D02*
X-13985000Y-12985476D01*
X-13985000Y-12871190D02*
X-13975476Y-12861667D01*
X-13956428Y-12852143D01*
X-13927857Y-12852143D01*
X-13908809Y-12861667D01*
X-13899286Y-12880714D01*
X-13899286Y-12985476D01*
X-13775476Y-12985476D02*
X-13794524Y-12975952D01*
X-13804048Y-12966428D01*
X-13813571Y-12947381D01*
X-13813571Y-12890238D01*
X-13804048Y-12871190D01*
X-13794524Y-12861667D01*
X-13775476Y-12852143D01*
X-13746905Y-12852143D01*
X-13727857Y-12861667D01*
X-13718333Y-12871190D01*
X-13708809Y-12890238D01*
X-13708809Y-12947381D01*
X-13718333Y-12966428D01*
X-13727857Y-12975952D01*
X-13746905Y-12985476D01*
X-13775476Y-12985476D01*
X-13651667Y-12852143D02*
X-13575476Y-12852143D01*
X-13623095Y-12785476D02*
X-13623095Y-12956905D01*
X-13613571Y-12975952D01*
X-13594524Y-12985476D01*
X-13575476Y-12985476D01*
X-13356428Y-12852143D02*
X-13356428Y-13052143D01*
X-13356428Y-12861667D02*
X-13337381Y-12852143D01*
X-13299286Y-12852143D01*
X-13280238Y-12861667D01*
X-13270714Y-12871190D01*
X-13261190Y-12890238D01*
X-13261190Y-12947381D01*
X-13270714Y-12966428D01*
X-13280238Y-12975952D01*
X-13299286Y-12985476D01*
X-13337381Y-12985476D01*
X-13356428Y-12975952D01*
X-13146905Y-12985476D02*
X-13165952Y-12975952D01*
X-13175476Y-12956905D01*
X-13175476Y-12785476D01*
X-12985000Y-12985476D02*
X-12985000Y-12880714D01*
X-12994524Y-12861667D01*
X-13013571Y-12852143D01*
X-13051667Y-12852143D01*
X-13070714Y-12861667D01*
X-12985000Y-12975952D02*
X-13004048Y-12985476D01*
X-13051667Y-12985476D01*
X-13070714Y-12975952D01*
X-13080238Y-12956905D01*
X-13080238Y-12937857D01*
X-13070714Y-12918809D01*
X-13051667Y-12909286D01*
X-13004048Y-12909286D01*
X-12985000Y-12899762D01*
X-12918333Y-12852143D02*
X-12842143Y-12852143D01*
X-12889762Y-12785476D02*
X-12889762Y-12956905D01*
X-12880238Y-12975952D01*
X-12861190Y-12985476D01*
X-12842143Y-12985476D01*
X-12699286Y-12975952D02*
X-12718333Y-12985476D01*
X-12756428Y-12985476D01*
X-12775476Y-12975952D01*
X-12785000Y-12956905D01*
X-12785000Y-12880714D01*
X-12775476Y-12861667D01*
X-12756428Y-12852143D01*
X-12718333Y-12852143D01*
X-12699286Y-12861667D01*
X-12689762Y-12880714D01*
X-12689762Y-12899762D01*
X-12785000Y-12918809D01*
X-12518333Y-12985476D02*
X-12518333Y-12785476D01*
X-12518333Y-12975952D02*
X-12537381Y-12985476D01*
X-12575476Y-12985476D01*
X-12594524Y-12975952D01*
X-12604048Y-12966428D01*
X-12613571Y-12947381D01*
X-12613571Y-12890238D01*
X-12604048Y-12871190D01*
X-12594524Y-12861667D01*
X-12575476Y-12852143D01*
X-12537381Y-12852143D01*
X-12518333Y-12861667D01*
X-12442143Y-13061667D02*
X-12432619Y-13052143D01*
X-12413571Y-13023571D01*
X-12404048Y-13004524D01*
X-12394524Y-12975952D01*
X-12385000Y-12928333D01*
X-12385000Y-12890238D01*
X-12394524Y-12842619D01*
X-12404048Y-12814048D01*
X-12413571Y-12795000D01*
X-12432619Y-12766428D01*
X-12442143Y-12756905D01*
M02*
