%TF.GenerationSoftware,KiCad,Pcbnew,(6.0.8)*%
%TF.CreationDate,2023-07-19T02:04:15+05:30*%
%TF.ProjectId,STM32DryerPCB_V2,53544d33-3244-4727-9965-725043425f56,rev?*%
%TF.SameCoordinates,Original*%
%TF.FileFunction,Drillmap*%
%TF.FilePolarity,Positive*%
%FSLAX45Y45*%
G04 Gerber Fmt 4.5, Leading zero omitted, Abs format (unit mm)*
G04 Created by KiCad (PCBNEW (6.0.8)) date 2023-07-19 02:04:15*
%MOMM*%
%LPD*%
G01*
G04 APERTURE LIST*
%ADD10C,0.100000*%
%ADD11C,0.200000*%
%ADD12C,0.040000*%
%ADD13C,0.060000*%
%ADD14C,0.075000*%
%ADD15C,0.080000*%
%ADD16C,0.090000*%
%ADD17C,0.110000*%
%ADD18C,0.120000*%
%ADD19C,0.130000*%
%ADD20C,0.170000*%
%ADD21C,0.244000*%
%ADD22C,0.300000*%
G04 APERTURE END LIST*
D10*
X16823400Y-12410440D02*
G75*
G03*
X16923400Y-12410440I50000J0D01*
G01*
X16923400Y-6261080D02*
G75*
G03*
X16823400Y-6261080I-50000J0D01*
G01*
X16923400Y-12410440D02*
X16923400Y-6261080D01*
X16823400Y-6261080D02*
X16823400Y-12410440D01*
X9372600Y-3048000D02*
X19372600Y-3048000D01*
X19372600Y-3048000D02*
X19372600Y-13048000D01*
X19372600Y-13048000D02*
X9372600Y-13048000D01*
X9372600Y-13048000D02*
X9372600Y-3048000D01*
D11*
D12*
X10285000Y-11440000D02*
X10325000Y-11480000D01*
X10325000Y-11440000D02*
X10285000Y-11480000D01*
X10383840Y-10409240D02*
X10423840Y-10449240D01*
X10423840Y-10409240D02*
X10383840Y-10449240D01*
X11765600Y-3155000D02*
X11805600Y-3195000D01*
X11805600Y-3155000D02*
X11765600Y-3195000D01*
X11765600Y-3282000D02*
X11805600Y-3322000D01*
X11805600Y-3282000D02*
X11765600Y-3322000D01*
X11765600Y-3409000D02*
X11805600Y-3449000D01*
X11805600Y-3409000D02*
X11765600Y-3449000D01*
X11765600Y-3536000D02*
X11805600Y-3576000D01*
X11805600Y-3536000D02*
X11765600Y-3576000D01*
X11765600Y-3663000D02*
X11805600Y-3703000D01*
X11805600Y-3663000D02*
X11765600Y-3703000D01*
X11765600Y-3790000D02*
X11805600Y-3830000D01*
X11805600Y-3790000D02*
X11765600Y-3830000D01*
X11765600Y-3917000D02*
X11805600Y-3957000D01*
X11805600Y-3917000D02*
X11765600Y-3957000D01*
X11892600Y-3155000D02*
X11932600Y-3195000D01*
X11932600Y-3155000D02*
X11892600Y-3195000D01*
X11892600Y-3942400D02*
X11932600Y-3982400D01*
X11932600Y-3942400D02*
X11892600Y-3982400D01*
X12019600Y-3155000D02*
X12059600Y-3195000D01*
X12059600Y-3155000D02*
X12019600Y-3195000D01*
X12019600Y-3942400D02*
X12059600Y-3982400D01*
X12059600Y-3942400D02*
X12019600Y-3982400D01*
X12146600Y-3155000D02*
X12186600Y-3195000D01*
X12186600Y-3155000D02*
X12146600Y-3195000D01*
X12146600Y-3942400D02*
X12186600Y-3982400D01*
X12186600Y-3942400D02*
X12146600Y-3982400D01*
X12222800Y-4469100D02*
X12262800Y-4509100D01*
X12262800Y-4469100D02*
X12222800Y-4509100D01*
X12262549Y-7232591D02*
X12302549Y-7272591D01*
X12302549Y-7232591D02*
X12262549Y-7272591D01*
X12270491Y-7360671D02*
X12310491Y-7400671D01*
X12310491Y-7360671D02*
X12270491Y-7400671D01*
X12273600Y-3155000D02*
X12313600Y-3195000D01*
X12313600Y-3155000D02*
X12273600Y-3195000D01*
X12273600Y-3942400D02*
X12313600Y-3982400D01*
X12313600Y-3942400D02*
X12273600Y-3982400D01*
X12400600Y-3155000D02*
X12440600Y-3195000D01*
X12440600Y-3155000D02*
X12400600Y-3195000D01*
X12400600Y-3942400D02*
X12440600Y-3982400D01*
X12440600Y-3942400D02*
X12400600Y-3982400D01*
X12431080Y-8445773D02*
X12471080Y-8485773D01*
X12471080Y-8445773D02*
X12431080Y-8485773D01*
X12432490Y-8321778D02*
X12472490Y-8361778D01*
X12472490Y-8321778D02*
X12432490Y-8361778D01*
X12527600Y-3155000D02*
X12567600Y-3195000D01*
X12567600Y-3155000D02*
X12527600Y-3195000D01*
X12527600Y-3942400D02*
X12567600Y-3982400D01*
X12567600Y-3942400D02*
X12527600Y-3982400D01*
X12563160Y-4475800D02*
X12603160Y-4515800D01*
X12603160Y-4475800D02*
X12563160Y-4515800D01*
X12639360Y-9093520D02*
X12679360Y-9133520D01*
X12679360Y-9093520D02*
X12639360Y-9133520D01*
X12654600Y-3155000D02*
X12694600Y-3195000D01*
X12694600Y-3155000D02*
X12654600Y-3195000D01*
X12654600Y-3282000D02*
X12694600Y-3322000D01*
X12694600Y-3282000D02*
X12654600Y-3322000D01*
X12654600Y-3409000D02*
X12694600Y-3449000D01*
X12694600Y-3409000D02*
X12654600Y-3449000D01*
X12654600Y-3536000D02*
X12694600Y-3576000D01*
X12694600Y-3536000D02*
X12654600Y-3576000D01*
X12654600Y-3663000D02*
X12694600Y-3703000D01*
X12694600Y-3663000D02*
X12654600Y-3703000D01*
X12654600Y-3790000D02*
X12694600Y-3830000D01*
X12694600Y-3790000D02*
X12654600Y-3830000D01*
X12654600Y-3942400D02*
X12694600Y-3982400D01*
X12694600Y-3942400D02*
X12654600Y-3982400D01*
X12730800Y-6177600D02*
X12770800Y-6217600D01*
X12770800Y-6177600D02*
X12730800Y-6217600D01*
X12837450Y-7465000D02*
X12877450Y-7505000D01*
X12877450Y-7465000D02*
X12837450Y-7505000D01*
X12840020Y-8247700D02*
X12880020Y-8287700D01*
X12880020Y-8247700D02*
X12840020Y-8287700D01*
X12845100Y-6177600D02*
X12885100Y-6217600D01*
X12885100Y-6177600D02*
X12845100Y-6217600D01*
X12883200Y-8072440D02*
X12923200Y-8112440D01*
X12923200Y-8072440D02*
X12883200Y-8112440D01*
X12911021Y-8821621D02*
X12951021Y-8861621D01*
X12951021Y-8821621D02*
X12911021Y-8861621D01*
X12923849Y-8987069D02*
X12963849Y-9027069D01*
X12963849Y-8987069D02*
X12923849Y-9027069D01*
X13045760Y-8986840D02*
X13085760Y-9026840D01*
X13085760Y-8986840D02*
X13045760Y-9026840D01*
X13055920Y-8171500D02*
X13095920Y-8211500D01*
X13095920Y-8171500D02*
X13055920Y-8211500D01*
X13261660Y-8428650D02*
X13301660Y-8468650D01*
X13301660Y-8428650D02*
X13261660Y-8468650D01*
X13325094Y-7958806D02*
X13365094Y-7998806D01*
X13365094Y-7958806D02*
X13325094Y-7998806D01*
X13368950Y-8077238D02*
X13408950Y-8117238D01*
X13408950Y-8077238D02*
X13368950Y-8117238D01*
X13501306Y-7548806D02*
X13541306Y-7588806D01*
X13541306Y-7548806D02*
X13501306Y-7588806D01*
X13740792Y-8175652D02*
X13780792Y-8215652D01*
X13780792Y-8175652D02*
X13740792Y-8215652D01*
D13*
X17763200Y-5841860D02*
G75*
G03*
X17763200Y-5841860I-30000J0D01*
G01*
X17763200Y-7645260D02*
G75*
G03*
X17763200Y-7645260I-30000J0D01*
G01*
X17763200Y-9529940D02*
G75*
G03*
X17763200Y-9529940I-30000J0D01*
G01*
X17763200Y-11470500D02*
G75*
G03*
X17763200Y-11470500I-30000J0D01*
G01*
X18263200Y-5841860D02*
G75*
G03*
X18263200Y-5841860I-30000J0D01*
G01*
X18263200Y-7645260D02*
G75*
G03*
X18263200Y-7645260I-30000J0D01*
G01*
X18263200Y-9529940D02*
G75*
G03*
X18263200Y-9529940I-30000J0D01*
G01*
X18263200Y-11470500D02*
G75*
G03*
X18263200Y-11470500I-30000J0D01*
G01*
D14*
X13507280Y-9523060D02*
X13507280Y-9598060D01*
X13469780Y-9560560D02*
X13544780Y-9560560D01*
X13507280Y-9650060D02*
X13507280Y-9725060D01*
X13469780Y-9687560D02*
X13544780Y-9687560D01*
X13507280Y-9777060D02*
X13507280Y-9852060D01*
X13469780Y-9814560D02*
X13544780Y-9814560D01*
D15*
X9616785Y-11089985D02*
X9616785Y-11033416D01*
X9560216Y-11033416D01*
X9560216Y-11089985D01*
X9616785Y-11089985D01*
X9616785Y-12105984D02*
X9616785Y-12049415D01*
X9560216Y-12049415D01*
X9560216Y-12105984D01*
X9616785Y-12105984D01*
X9933785Y-11129585D02*
X9933785Y-11073016D01*
X9877216Y-11073016D01*
X9877216Y-11129585D01*
X9933785Y-11129585D01*
X9933785Y-11891584D02*
X9933785Y-11835015D01*
X9877216Y-11835015D01*
X9877216Y-11891584D01*
X9933785Y-11891584D01*
X10187785Y-11129585D02*
X10187785Y-11073016D01*
X10131216Y-11073016D01*
X10131216Y-11129585D01*
X10187785Y-11129585D01*
X10187785Y-11891584D02*
X10187785Y-11835015D01*
X10131216Y-11835015D01*
X10131216Y-11891584D01*
X10187785Y-11891584D01*
X10416885Y-4589045D02*
X10416885Y-4532476D01*
X10360316Y-4532476D01*
X10360316Y-4589045D01*
X10416885Y-4589045D01*
X10416885Y-5089045D02*
X10416885Y-5032476D01*
X10360316Y-5032476D01*
X10360316Y-5089045D01*
X10416885Y-5089045D01*
X10442285Y-6289384D02*
X10442285Y-6232815D01*
X10385716Y-6232815D01*
X10385716Y-6289384D01*
X10442285Y-6289384D01*
X10442285Y-7305384D02*
X10442285Y-7248815D01*
X10385716Y-7248815D01*
X10385716Y-7305384D01*
X10442285Y-7305384D01*
X10442285Y-7608184D02*
X10442285Y-7551615D01*
X10385716Y-7551615D01*
X10385716Y-7608184D01*
X10442285Y-7608184D01*
X10442285Y-7862184D02*
X10442285Y-7805615D01*
X10385716Y-7805615D01*
X10385716Y-7862184D01*
X10442285Y-7862184D01*
X10442285Y-8116184D02*
X10442285Y-8059615D01*
X10385716Y-8059615D01*
X10385716Y-8116184D01*
X10442285Y-8116184D01*
X10442285Y-8370184D02*
X10442285Y-8313615D01*
X10385716Y-8313615D01*
X10385716Y-8370184D01*
X10442285Y-8370184D01*
X10442285Y-8624185D02*
X10442285Y-8567616D01*
X10385716Y-8567616D01*
X10385716Y-8624185D01*
X10442285Y-8624185D01*
X10442285Y-8930985D02*
X10442285Y-8874416D01*
X10385716Y-8874416D01*
X10385716Y-8930985D01*
X10442285Y-8930985D01*
X10442285Y-9946985D02*
X10442285Y-9890416D01*
X10385716Y-9890416D01*
X10385716Y-9946985D01*
X10442285Y-9946985D01*
X10482385Y-12499684D02*
X10482385Y-12443115D01*
X10425816Y-12443115D01*
X10425816Y-12499684D01*
X10482385Y-12499684D01*
X10505785Y-11089985D02*
X10505785Y-11033416D01*
X10449216Y-11033416D01*
X10449216Y-11089985D01*
X10505785Y-11089985D01*
X10505785Y-12105984D02*
X10505785Y-12049415D01*
X10449216Y-12049415D01*
X10449216Y-12105984D01*
X10505785Y-12105984D01*
X10624085Y-10213685D02*
X10624085Y-10157116D01*
X10567516Y-10157116D01*
X10567516Y-10213685D01*
X10624085Y-10213685D01*
X10736385Y-12499684D02*
X10736385Y-12443115D01*
X10679816Y-12443115D01*
X10679816Y-12499684D01*
X10736385Y-12499684D01*
X10759285Y-6506784D02*
X10759285Y-6450215D01*
X10702716Y-6450215D01*
X10702716Y-6506784D01*
X10759285Y-6506784D01*
X10759285Y-7268784D02*
X10759285Y-7212215D01*
X10702716Y-7212215D01*
X10702716Y-7268784D01*
X10759285Y-7268784D01*
X10760285Y-9145385D02*
X10760285Y-9088816D01*
X10703716Y-9088816D01*
X10703716Y-9145385D01*
X10760285Y-9145385D01*
X10760285Y-9907385D02*
X10760285Y-9850816D01*
X10703716Y-9850816D01*
X10703716Y-9907385D01*
X10760285Y-9907385D01*
X10822785Y-11129585D02*
X10822785Y-11073016D01*
X10766216Y-11073016D01*
X10766216Y-11129585D01*
X10822785Y-11129585D01*
X10822785Y-11891584D02*
X10822785Y-11835015D01*
X10766216Y-11835015D01*
X10766216Y-11891584D01*
X10822785Y-11891584D01*
X10990385Y-12499684D02*
X10990385Y-12443115D01*
X10933816Y-12443115D01*
X10933816Y-12499684D01*
X10990385Y-12499684D01*
X11013285Y-6506784D02*
X11013285Y-6450215D01*
X10956716Y-6450215D01*
X10956716Y-6506784D01*
X11013285Y-6506784D01*
X11013285Y-7268784D02*
X11013285Y-7212215D01*
X10956716Y-7212215D01*
X10956716Y-7268784D01*
X11013285Y-7268784D01*
X11014285Y-9145385D02*
X11014285Y-9088816D01*
X10957716Y-9088816D01*
X10957716Y-9145385D01*
X11014285Y-9145385D01*
X11014285Y-9907385D02*
X11014285Y-9850816D01*
X10957716Y-9850816D01*
X10957716Y-9907385D01*
X11014285Y-9907385D01*
X11056965Y-4769499D02*
X11056965Y-4712930D01*
X11000396Y-4712930D01*
X11000396Y-4769499D01*
X11056965Y-4769499D01*
X11056965Y-5019499D02*
X11056965Y-4962930D01*
X11000396Y-4962930D01*
X11000396Y-5019499D01*
X11056965Y-5019499D01*
X11076785Y-11129585D02*
X11076785Y-11073016D01*
X11020216Y-11073016D01*
X11020216Y-11129585D01*
X11076785Y-11129585D01*
X11076785Y-11891584D02*
X11076785Y-11835015D01*
X11020216Y-11835015D01*
X11020216Y-11891584D01*
X11076785Y-11891584D01*
X11124085Y-10213685D02*
X11124085Y-10157116D01*
X11067516Y-10157116D01*
X11067516Y-10213685D01*
X11124085Y-10213685D01*
X11244384Y-12499684D02*
X11244384Y-12443115D01*
X11187815Y-12443115D01*
X11187815Y-12499684D01*
X11244384Y-12499684D01*
X11331284Y-6289384D02*
X11331284Y-6232815D01*
X11274715Y-6232815D01*
X11274715Y-6289384D01*
X11331284Y-6289384D01*
X11331284Y-7305384D02*
X11331284Y-7248815D01*
X11274715Y-7248815D01*
X11274715Y-7305384D01*
X11331284Y-7305384D01*
X11331284Y-8930985D02*
X11331284Y-8874416D01*
X11274715Y-8874416D01*
X11274715Y-8930985D01*
X11331284Y-8930985D01*
X11331284Y-9946985D02*
X11331284Y-9890416D01*
X11274715Y-9890416D01*
X11274715Y-9946985D01*
X11331284Y-9946985D01*
X11394784Y-11089985D02*
X11394784Y-11033416D01*
X11338215Y-11033416D01*
X11338215Y-11089985D01*
X11394784Y-11089985D01*
X11394784Y-12105984D02*
X11394784Y-12049415D01*
X11338215Y-12049415D01*
X11338215Y-12105984D01*
X11394784Y-12105984D01*
X11498384Y-12499684D02*
X11498384Y-12443115D01*
X11441815Y-12443115D01*
X11441815Y-12499684D01*
X11498384Y-12499684D01*
X11646744Y-9140305D02*
X11646744Y-9083736D01*
X11590175Y-9083736D01*
X11590175Y-9140305D01*
X11646744Y-9140305D01*
X11646744Y-9902305D02*
X11646744Y-9845736D01*
X11590175Y-9845736D01*
X11590175Y-9902305D01*
X11646744Y-9902305D01*
X11648284Y-6506784D02*
X11648284Y-6450215D01*
X11591715Y-6450215D01*
X11591715Y-6506784D01*
X11648284Y-6506784D01*
X11648284Y-7268784D02*
X11648284Y-7212215D01*
X11591715Y-7212215D01*
X11591715Y-7268784D01*
X11648284Y-7268784D01*
X11711784Y-11129585D02*
X11711784Y-11073016D01*
X11655215Y-11073016D01*
X11655215Y-11129585D01*
X11711784Y-11129585D01*
X11711784Y-11891584D02*
X11711784Y-11835015D01*
X11655215Y-11835015D01*
X11655215Y-11891584D01*
X11711784Y-11891584D01*
X11864684Y-7896044D02*
X11864684Y-7839475D01*
X11808115Y-7839475D01*
X11808115Y-7896044D01*
X11864684Y-7896044D01*
X11864684Y-8386044D02*
X11864684Y-8329475D01*
X11808115Y-8329475D01*
X11808115Y-8386044D01*
X11864684Y-8386044D01*
X11900744Y-9140305D02*
X11900744Y-9083736D01*
X11844175Y-9083736D01*
X11844175Y-9140305D01*
X11900744Y-9140305D01*
X11900744Y-9902305D02*
X11900744Y-9845736D01*
X11844175Y-9845736D01*
X11844175Y-9902305D01*
X11900744Y-9902305D01*
X11902284Y-6506784D02*
X11902284Y-6450215D01*
X11845715Y-6450215D01*
X11845715Y-6506784D01*
X11902284Y-6506784D01*
X11902284Y-7268784D02*
X11902284Y-7212215D01*
X11845715Y-7212215D01*
X11845715Y-7268784D01*
X11902284Y-7268784D01*
X11965784Y-11129585D02*
X11965784Y-11073016D01*
X11909215Y-11073016D01*
X11909215Y-11129585D01*
X11965784Y-11129585D01*
X11965784Y-11891584D02*
X11965784Y-11835015D01*
X11909215Y-11835015D01*
X11909215Y-11891584D01*
X11965784Y-11891584D01*
X12177784Y-7033284D02*
X12177784Y-6976715D01*
X12121215Y-6976715D01*
X12121215Y-7033284D01*
X12177784Y-7033284D01*
X12179644Y-9360245D02*
X12179644Y-9303676D01*
X12123075Y-9303676D01*
X12123075Y-9360245D01*
X12179644Y-9360245D01*
X12283784Y-11089985D02*
X12283784Y-11033416D01*
X12227215Y-11033416D01*
X12227215Y-11089985D01*
X12283784Y-11089985D01*
X12283784Y-12105984D02*
X12283784Y-12049415D01*
X12227215Y-12049415D01*
X12227215Y-12105984D01*
X12283784Y-12105984D01*
X12309184Y-7780984D02*
X12309184Y-7724415D01*
X12252615Y-7724415D01*
X12252615Y-7780984D01*
X12309184Y-7780984D01*
X12309184Y-8030984D02*
X12309184Y-7974415D01*
X12252615Y-7974415D01*
X12252615Y-8030984D01*
X12309184Y-8030984D01*
X12309184Y-8250884D02*
X12309184Y-8194315D01*
X12252615Y-8194315D01*
X12252615Y-8250884D01*
X12309184Y-8250884D01*
X12309184Y-8500885D02*
X12309184Y-8444316D01*
X12252615Y-8444316D01*
X12252615Y-8500885D01*
X12309184Y-8500885D01*
X12534164Y-7310464D02*
X12534164Y-7253895D01*
X12477595Y-7253895D01*
X12477595Y-7310464D01*
X12534164Y-7310464D01*
X12600784Y-11129585D02*
X12600784Y-11073016D01*
X12544215Y-11073016D01*
X12544215Y-11129585D01*
X12600784Y-11129585D01*
X12600784Y-11891584D02*
X12600784Y-11835015D01*
X12544215Y-11835015D01*
X12544215Y-11891584D01*
X12600784Y-11891584D01*
X12854784Y-11129585D02*
X12854784Y-11073016D01*
X12798215Y-11073016D01*
X12798215Y-11129585D01*
X12854784Y-11129585D01*
X12854784Y-11891584D02*
X12854784Y-11835015D01*
X12798215Y-11835015D01*
X12798215Y-11891584D01*
X12854784Y-11891584D01*
X13001524Y-5740744D02*
X13001524Y-5684175D01*
X12944955Y-5684175D01*
X12944955Y-5740744D01*
X13001524Y-5740744D01*
X13033084Y-3228684D02*
X13033084Y-3172115D01*
X12976515Y-3172115D01*
X12976515Y-3228684D01*
X13033084Y-3228684D01*
X13033084Y-4244685D02*
X13033084Y-4188115D01*
X12976515Y-4188115D01*
X12976515Y-4244685D01*
X13033084Y-4244685D01*
X13034164Y-7310464D02*
X13034164Y-7253895D01*
X12977595Y-7253895D01*
X12977595Y-7310464D01*
X13034164Y-7310464D01*
X13121984Y-6257824D02*
X13121984Y-6201255D01*
X13065415Y-6201255D01*
X13065415Y-6257824D01*
X13121984Y-6257824D01*
X13121984Y-6757824D02*
X13121984Y-6701255D01*
X13065415Y-6701255D01*
X13065415Y-6757824D01*
X13121984Y-6757824D01*
X13193784Y-7033284D02*
X13193784Y-6976715D01*
X13137215Y-6976715D01*
X13137215Y-7033284D01*
X13193784Y-7033284D01*
X13195644Y-9360245D02*
X13195644Y-9303676D01*
X13139075Y-9303676D01*
X13139075Y-9360245D01*
X13195644Y-9360245D01*
X13324219Y-4828885D02*
X13324219Y-4772316D01*
X13267650Y-4772316D01*
X13267650Y-4828885D01*
X13324219Y-4828885D01*
X13363284Y-3228684D02*
X13363284Y-3172115D01*
X13306715Y-3172115D01*
X13306715Y-3228684D01*
X13363284Y-3228684D01*
X13363284Y-4244685D02*
X13363284Y-4188115D01*
X13306715Y-4188115D01*
X13306715Y-4244685D01*
X13363284Y-4244685D01*
X13501524Y-5740744D02*
X13501524Y-5684175D01*
X13444955Y-5684175D01*
X13444955Y-5740744D01*
X13501524Y-5740744D01*
X13574219Y-4828885D02*
X13574219Y-4772316D01*
X13517650Y-4772316D01*
X13517650Y-4828885D01*
X13574219Y-4828885D01*
X13942404Y-7495884D02*
X13942404Y-7439315D01*
X13885835Y-7439315D01*
X13885835Y-7495884D01*
X13942404Y-7495884D01*
X13942404Y-8389965D02*
X13942404Y-8333395D01*
X13885835Y-8333395D01*
X13885835Y-8389965D01*
X13942404Y-8389965D01*
X13942404Y-8699845D02*
X13942404Y-8643276D01*
X13885835Y-8643276D01*
X13885835Y-8699845D01*
X13942404Y-8699845D01*
X13947484Y-9345005D02*
X13947484Y-9288436D01*
X13890915Y-9288436D01*
X13890915Y-9345005D01*
X13947484Y-9345005D01*
X13952564Y-5631524D02*
X13952564Y-5574956D01*
X13895995Y-5574956D01*
X13895995Y-5631524D01*
X13952564Y-5631524D01*
X13952564Y-6525604D02*
X13952564Y-6469035D01*
X13895995Y-6469035D01*
X13895995Y-6525604D01*
X13952564Y-6525604D01*
X13952564Y-10249245D02*
X13952564Y-10192676D01*
X13895995Y-10192676D01*
X13895995Y-10249245D01*
X13952564Y-10249245D01*
X13952564Y-10564205D02*
X13952564Y-10507636D01*
X13895995Y-10507636D01*
X13895995Y-10564205D01*
X13952564Y-10564205D01*
X13954394Y-6840564D02*
X13954394Y-6783995D01*
X13897825Y-6783995D01*
X13897825Y-6840564D01*
X13954394Y-6840564D01*
X13957644Y-11214444D02*
X13957644Y-11157876D01*
X13901075Y-11157876D01*
X13901075Y-11214444D01*
X13957644Y-11214444D01*
X13957644Y-12113604D02*
X13957644Y-12057035D01*
X13901075Y-12057035D01*
X13901075Y-12113604D01*
X13957644Y-12113604D01*
X13957644Y-12423484D02*
X13957644Y-12366915D01*
X13901075Y-12366915D01*
X13901075Y-12423484D01*
X13957644Y-12423484D01*
X14154264Y-7815424D02*
X14154264Y-7758855D01*
X14097695Y-7758855D01*
X14097695Y-7815424D01*
X14154264Y-7815424D01*
X14154264Y-8069424D02*
X14154264Y-8012855D01*
X14097695Y-8012855D01*
X14097695Y-8069424D01*
X14154264Y-8069424D01*
X14159344Y-9669625D02*
X14159344Y-9613056D01*
X14102775Y-9613056D01*
X14102775Y-9669625D01*
X14159344Y-9669625D01*
X14159344Y-9923625D02*
X14159344Y-9867056D01*
X14102775Y-9867056D01*
X14102775Y-9923625D01*
X14159344Y-9923625D01*
X14164424Y-5951064D02*
X14164424Y-5894495D01*
X14107855Y-5894495D01*
X14107855Y-5951064D01*
X14164424Y-5951064D01*
X14164424Y-6205064D02*
X14164424Y-6148495D01*
X14107855Y-6148495D01*
X14107855Y-6205064D01*
X14164424Y-6205064D01*
X14169504Y-11533984D02*
X14169504Y-11477415D01*
X14112935Y-11477415D01*
X14112935Y-11533984D01*
X14169504Y-11533984D01*
X14169504Y-11787984D02*
X14169504Y-11731415D01*
X14112935Y-11731415D01*
X14112935Y-11787984D01*
X14169504Y-11787984D01*
X14364044Y-9035125D02*
X14364044Y-8978556D01*
X14307475Y-8978556D01*
X14307475Y-9035125D01*
X14364044Y-9035125D01*
X14369124Y-7175844D02*
X14369124Y-7119275D01*
X14312555Y-7119275D01*
X14312555Y-7175844D01*
X14369124Y-7175844D01*
X14379284Y-10899485D02*
X14379284Y-10842916D01*
X14322715Y-10842916D01*
X14322715Y-10899485D01*
X14379284Y-10899485D01*
X14379284Y-12765594D02*
X14379284Y-12709025D01*
X14322715Y-12709025D01*
X14322715Y-12765594D01*
X14379284Y-12765594D01*
X14916264Y-7815424D02*
X14916264Y-7758855D01*
X14859695Y-7758855D01*
X14859695Y-7815424D01*
X14916264Y-7815424D01*
X14916264Y-8069424D02*
X14916264Y-8012855D01*
X14859695Y-8012855D01*
X14859695Y-8069424D01*
X14916264Y-8069424D01*
X14921344Y-9669625D02*
X14921344Y-9613056D01*
X14864775Y-9613056D01*
X14864775Y-9669625D01*
X14921344Y-9669625D01*
X14921344Y-9923625D02*
X14921344Y-9867056D01*
X14864775Y-9867056D01*
X14864775Y-9923625D01*
X14921344Y-9923625D01*
X14926424Y-5951064D02*
X14926424Y-5894495D01*
X14869855Y-5894495D01*
X14869855Y-5951064D01*
X14926424Y-5951064D01*
X14926424Y-6205064D02*
X14926424Y-6148495D01*
X14869855Y-6148495D01*
X14869855Y-6205064D01*
X14926424Y-6205064D01*
X14931504Y-11533984D02*
X14931504Y-11477415D01*
X14874935Y-11477415D01*
X14874935Y-11533984D01*
X14931504Y-11533984D01*
X14931504Y-11787984D02*
X14931504Y-11731415D01*
X14874935Y-11731415D01*
X14874935Y-11787984D01*
X14931504Y-11787984D01*
X14958404Y-7495884D02*
X14958404Y-7439315D01*
X14901835Y-7439315D01*
X14901835Y-7495884D01*
X14958404Y-7495884D01*
X14958404Y-8389965D02*
X14958404Y-8333395D01*
X14901835Y-8333395D01*
X14901835Y-8389965D01*
X14958404Y-8389965D01*
X14958404Y-8699845D02*
X14958404Y-8643276D01*
X14901835Y-8643276D01*
X14901835Y-8699845D01*
X14958404Y-8699845D01*
X14963484Y-9345005D02*
X14963484Y-9288436D01*
X14906915Y-9288436D01*
X14906915Y-9345005D01*
X14963484Y-9345005D01*
X14968564Y-5631524D02*
X14968564Y-5574956D01*
X14911995Y-5574956D01*
X14911995Y-5631524D01*
X14968564Y-5631524D01*
X14968564Y-6525604D02*
X14968564Y-6469035D01*
X14911995Y-6469035D01*
X14911995Y-6525604D01*
X14968564Y-6525604D01*
X14968564Y-10249245D02*
X14968564Y-10192676D01*
X14911995Y-10192676D01*
X14911995Y-10249245D01*
X14968564Y-10249245D01*
X14968564Y-10564205D02*
X14968564Y-10507636D01*
X14911995Y-10507636D01*
X14911995Y-10564205D01*
X14968564Y-10564205D01*
X14970394Y-6840564D02*
X14970394Y-6783995D01*
X14913825Y-6783995D01*
X14913825Y-6840564D01*
X14970394Y-6840564D01*
X14973644Y-11214444D02*
X14973644Y-11157876D01*
X14917075Y-11157876D01*
X14917075Y-11214444D01*
X14973644Y-11214444D01*
X14973644Y-12113604D02*
X14973644Y-12057035D01*
X14917075Y-12057035D01*
X14917075Y-12113604D01*
X14973644Y-12113604D01*
X14973644Y-12423484D02*
X14973644Y-12366915D01*
X14917075Y-12366915D01*
X14917075Y-12423484D01*
X14973644Y-12423484D01*
X15380044Y-9035125D02*
X15380044Y-8978556D01*
X15323475Y-8978556D01*
X15323475Y-9035125D01*
X15380044Y-9035125D01*
X15385124Y-7175844D02*
X15385124Y-7119275D01*
X15328555Y-7119275D01*
X15328555Y-7175844D01*
X15385124Y-7175844D01*
X15395284Y-10899485D02*
X15395284Y-10842916D01*
X15338715Y-10842916D01*
X15338715Y-10899485D01*
X15395284Y-10899485D01*
X15395284Y-12765594D02*
X15395284Y-12709025D01*
X15338715Y-12709025D01*
X15338715Y-12765594D01*
X15395284Y-12765594D01*
X17037165Y-3875804D02*
X17037165Y-3819235D01*
X16980596Y-3819235D01*
X16980596Y-3875804D01*
X17037165Y-3875804D01*
X17291165Y-4129804D02*
X17291165Y-4073235D01*
X17234596Y-4073235D01*
X17234596Y-4129804D01*
X17291165Y-4129804D01*
X17545165Y-3875804D02*
X17545165Y-3819235D01*
X17488596Y-3819235D01*
X17488596Y-3875804D01*
X17545165Y-3875804D01*
X18224845Y-4351365D02*
X18224845Y-4294796D01*
X18168276Y-4294796D01*
X18168276Y-4351365D01*
X18224845Y-4351365D01*
X19240845Y-4351365D02*
X19240845Y-4294796D01*
X19184276Y-4294796D01*
X19184276Y-4351365D01*
X19240845Y-4351365D01*
D16*
X15600180Y-9087400D02*
X15645180Y-9042400D01*
X15600180Y-8997400D01*
X15555180Y-9042400D01*
X15600180Y-9087400D01*
X15605260Y-7228120D02*
X15650260Y-7183120D01*
X15605260Y-7138120D01*
X15560260Y-7183120D01*
X15605260Y-7228120D01*
X15610340Y-10946680D02*
X15655340Y-10901680D01*
X15610340Y-10856680D01*
X15565340Y-10901680D01*
X15610340Y-10946680D01*
X15621000Y-12821200D02*
X15666000Y-12776200D01*
X15621000Y-12731200D01*
X15576000Y-12776200D01*
X15621000Y-12821200D01*
X15854180Y-9087400D02*
X15899180Y-9042400D01*
X15854180Y-8997400D01*
X15809180Y-9042400D01*
X15854180Y-9087400D01*
X15859260Y-7228120D02*
X15904260Y-7183120D01*
X15859260Y-7138120D01*
X15814260Y-7183120D01*
X15859260Y-7228120D01*
X15864340Y-10946680D02*
X15909340Y-10901680D01*
X15864340Y-10856680D01*
X15819340Y-10901680D01*
X15864340Y-10946680D01*
X15875000Y-12821200D02*
X15920000Y-12776200D01*
X15875000Y-12731200D01*
X15830000Y-12776200D01*
X15875000Y-12821200D01*
X18323560Y-4663220D02*
X18368560Y-4618220D01*
X18323560Y-4573220D01*
X18278560Y-4618220D01*
X18323560Y-4663220D01*
X18323560Y-4917220D02*
X18368560Y-4872220D01*
X18323560Y-4827220D01*
X18278560Y-4872220D01*
X18323560Y-4917220D01*
D10*
X9754400Y-7493800D02*
X9854400Y-7593800D01*
X9854400Y-7493800D02*
X9754400Y-7593800D01*
X9854400Y-7543800D02*
G75*
G03*
X9854400Y-7543800I-50000J0D01*
G01*
X9754400Y-7743800D02*
X9854400Y-7843800D01*
X9854400Y-7743800D02*
X9754400Y-7843800D01*
X9854400Y-7793800D02*
G75*
G03*
X9854400Y-7793800I-50000J0D01*
G01*
X9754400Y-7993800D02*
X9854400Y-8093800D01*
X9854400Y-7993800D02*
X9754400Y-8093800D01*
X9854400Y-8043800D02*
G75*
G03*
X9854400Y-8043800I-50000J0D01*
G01*
X9754400Y-8243800D02*
X9854400Y-8343800D01*
X9854400Y-8243800D02*
X9754400Y-8343800D01*
X9854400Y-8293800D02*
G75*
G03*
X9854400Y-8293800I-50000J0D01*
G01*
X9754400Y-8493800D02*
X9854400Y-8593800D01*
X9854400Y-8493800D02*
X9754400Y-8593800D01*
X9854400Y-8543800D02*
G75*
G03*
X9854400Y-8543800I-50000J0D01*
G01*
X9754400Y-8743800D02*
X9854400Y-8843800D01*
X9854400Y-8743800D02*
X9754400Y-8843800D01*
X9854400Y-8793800D02*
G75*
G03*
X9854400Y-8793800I-50000J0D01*
G01*
X9754400Y-8993800D02*
X9854400Y-9093800D01*
X9854400Y-8993800D02*
X9754400Y-9093800D01*
X9854400Y-9043800D02*
G75*
G03*
X9854400Y-9043800I-50000J0D01*
G01*
X9754400Y-9243800D02*
X9854400Y-9343800D01*
X9854400Y-9243800D02*
X9754400Y-9343800D01*
X9854400Y-9293800D02*
G75*
G03*
X9854400Y-9293800I-50000J0D01*
G01*
X12263920Y-12710960D02*
X12363920Y-12810960D01*
X12363920Y-12710960D02*
X12263920Y-12810960D01*
X12363920Y-12760960D02*
G75*
G03*
X12363920Y-12760960I-50000J0D01*
G01*
X12275080Y-10145560D02*
X12375080Y-10245560D01*
X12375080Y-10145560D02*
X12275080Y-10245560D01*
X12375080Y-10195560D02*
G75*
G03*
X12375080Y-10195560I-50000J0D01*
G01*
X12517920Y-12710960D02*
X12617920Y-12810960D01*
X12617920Y-12710960D02*
X12517920Y-12810960D01*
X12617920Y-12760960D02*
G75*
G03*
X12617920Y-12760960I-50000J0D01*
G01*
X12771920Y-12710960D02*
X12871920Y-12810960D01*
X12871920Y-12710960D02*
X12771920Y-12810960D01*
X12871920Y-12760960D02*
G75*
G03*
X12871920Y-12760960I-50000J0D01*
G01*
X13025920Y-12710960D02*
X13125920Y-12810960D01*
X13125920Y-12710960D02*
X13025920Y-12810960D01*
X13125920Y-12760960D02*
G75*
G03*
X13125920Y-12760960I-50000J0D01*
G01*
X13035080Y-10145560D02*
X13135080Y-10245560D01*
X13135080Y-10145560D02*
X13035080Y-10245560D01*
X13135080Y-10195560D02*
G75*
G03*
X13135080Y-10195560I-50000J0D01*
G01*
X13165000Y-11047000D02*
X13265000Y-11147000D01*
X13265000Y-11047000D02*
X13165000Y-11147000D01*
X13265000Y-11097000D02*
G75*
G03*
X13265000Y-11097000I-50000J0D01*
G01*
X13165000Y-11301000D02*
X13265000Y-11401000D01*
X13265000Y-11301000D02*
X13165000Y-11401000D01*
X13265000Y-11351000D02*
G75*
G03*
X13265000Y-11351000I-50000J0D01*
G01*
X13165000Y-11555000D02*
X13265000Y-11655000D01*
X13265000Y-11555000D02*
X13165000Y-11655000D01*
X13265000Y-11605000D02*
G75*
G03*
X13265000Y-11605000I-50000J0D01*
G01*
X13165000Y-11809000D02*
X13265000Y-11909000D01*
X13265000Y-11809000D02*
X13165000Y-11909000D01*
X13265000Y-11859000D02*
G75*
G03*
X13265000Y-11859000I-50000J0D01*
G01*
X13279920Y-12710960D02*
X13379920Y-12810960D01*
X13379920Y-12710960D02*
X13279920Y-12810960D01*
X13379920Y-12760960D02*
G75*
G03*
X13379920Y-12760960I-50000J0D01*
G01*
X13909840Y-3297720D02*
X14009840Y-3397720D01*
X14009840Y-3297720D02*
X13909840Y-3397720D01*
X14009840Y-3347720D02*
G75*
G03*
X14009840Y-3347720I-50000J0D01*
G01*
X14163840Y-3297720D02*
X14263840Y-3397720D01*
X14263840Y-3297720D02*
X14163840Y-3397720D01*
X14263840Y-3347720D02*
G75*
G03*
X14263840Y-3347720I-50000J0D01*
G01*
X14417840Y-3297720D02*
X14517840Y-3397720D01*
X14517840Y-3297720D02*
X14417840Y-3397720D01*
X14517840Y-3347720D02*
G75*
G03*
X14517840Y-3347720I-50000J0D01*
G01*
X14671840Y-3297720D02*
X14771840Y-3397720D01*
X14771840Y-3297720D02*
X14671840Y-3397720D01*
X14771840Y-3347720D02*
G75*
G03*
X14771840Y-3347720I-50000J0D01*
G01*
X14925840Y-3297720D02*
X15025840Y-3397720D01*
X15025840Y-3297720D02*
X14925840Y-3397720D01*
X15025840Y-3347720D02*
G75*
G03*
X15025840Y-3347720I-50000J0D01*
G01*
X15173370Y-8113560D02*
X15273370Y-8213560D01*
X15273370Y-8113560D02*
X15173370Y-8213560D01*
X15273370Y-8163560D02*
G75*
G03*
X15273370Y-8163560I-50000J0D01*
G01*
X15173370Y-8367560D02*
X15273370Y-8467560D01*
X15273370Y-8367560D02*
X15173370Y-8467560D01*
X15273370Y-8417560D02*
G75*
G03*
X15273370Y-8417560I-50000J0D01*
G01*
X15173370Y-8621560D02*
X15273370Y-8721560D01*
X15273370Y-8621560D02*
X15173370Y-8721560D01*
X15273370Y-8671560D02*
G75*
G03*
X15273370Y-8671560I-50000J0D01*
G01*
X15179840Y-3297720D02*
X15279840Y-3397720D01*
X15279840Y-3297720D02*
X15179840Y-3397720D01*
X15279840Y-3347720D02*
G75*
G03*
X15279840Y-3347720I-50000J0D01*
G01*
X15184810Y-6254280D02*
X15284810Y-6354280D01*
X15284810Y-6254280D02*
X15184810Y-6354280D01*
X15284810Y-6304280D02*
G75*
G03*
X15284810Y-6304280I-50000J0D01*
G01*
X15184810Y-6508280D02*
X15284810Y-6608280D01*
X15284810Y-6508280D02*
X15184810Y-6608280D01*
X15284810Y-6558280D02*
G75*
G03*
X15284810Y-6558280I-50000J0D01*
G01*
X15184810Y-6762280D02*
X15284810Y-6862280D01*
X15284810Y-6762280D02*
X15184810Y-6862280D01*
X15284810Y-6812280D02*
G75*
G03*
X15284810Y-6812280I-50000J0D01*
G01*
X15198220Y-9977920D02*
X15298220Y-10077920D01*
X15298220Y-9977920D02*
X15198220Y-10077920D01*
X15298220Y-10027920D02*
G75*
G03*
X15298220Y-10027920I-50000J0D01*
G01*
X15198220Y-10231920D02*
X15298220Y-10331920D01*
X15298220Y-10231920D02*
X15198220Y-10331920D01*
X15298220Y-10281920D02*
G75*
G03*
X15298220Y-10281920I-50000J0D01*
G01*
X15198220Y-10485920D02*
X15298220Y-10585920D01*
X15298220Y-10485920D02*
X15198220Y-10585920D01*
X15298220Y-10535920D02*
G75*
G03*
X15298220Y-10535920I-50000J0D01*
G01*
X15198220Y-11837200D02*
X15298220Y-11937200D01*
X15298220Y-11837200D02*
X15198220Y-11937200D01*
X15298220Y-11887200D02*
G75*
G03*
X15298220Y-11887200I-50000J0D01*
G01*
X15198220Y-12091200D02*
X15298220Y-12191200D01*
X15298220Y-12091200D02*
X15198220Y-12191200D01*
X15298220Y-12141200D02*
G75*
G03*
X15298220Y-12141200I-50000J0D01*
G01*
X15198220Y-12345200D02*
X15298220Y-12445200D01*
X15298220Y-12345200D02*
X15198220Y-12445200D01*
X15298220Y-12395200D02*
G75*
G03*
X15298220Y-12395200I-50000J0D01*
G01*
X15433840Y-3297720D02*
X15533840Y-3397720D01*
X15533840Y-3297720D02*
X15433840Y-3397720D01*
X15533840Y-3347720D02*
G75*
G03*
X15533840Y-3347720I-50000J0D01*
G01*
X15687840Y-3297720D02*
X15787840Y-3397720D01*
X15787840Y-3297720D02*
X15687840Y-3397720D01*
X15787840Y-3347720D02*
G75*
G03*
X15787840Y-3347720I-50000J0D01*
G01*
X15707650Y-10098540D02*
X15807650Y-10198540D01*
X15807650Y-10098540D02*
X15707650Y-10198540D01*
X15807650Y-10148540D02*
G75*
G03*
X15807650Y-10148540I-50000J0D01*
G01*
X15707650Y-11955280D02*
X15807650Y-12055280D01*
X15807650Y-11955280D02*
X15707650Y-12055280D01*
X15807650Y-12005280D02*
G75*
G03*
X15807650Y-12005280I-50000J0D01*
G01*
X15710960Y-6374900D02*
X15810960Y-6474900D01*
X15810960Y-6374900D02*
X15710960Y-6474900D01*
X15810960Y-6424900D02*
G75*
G03*
X15810960Y-6424900I-50000J0D01*
G01*
X15710960Y-8239260D02*
X15810960Y-8339260D01*
X15810960Y-8239260D02*
X15710960Y-8339260D01*
X15810960Y-8289260D02*
G75*
G03*
X15810960Y-8289260I-50000J0D01*
G01*
X15941840Y-3297720D02*
X16041840Y-3397720D01*
X16041840Y-3297720D02*
X15941840Y-3397720D01*
X16041840Y-3347720D02*
G75*
G03*
X16041840Y-3347720I-50000J0D01*
G01*
X16082650Y-10098540D02*
X16182650Y-10198540D01*
X16182650Y-10098540D02*
X16082650Y-10198540D01*
X16182650Y-10148540D02*
G75*
G03*
X16182650Y-10148540I-50000J0D01*
G01*
X16082650Y-11955280D02*
X16182650Y-12055280D01*
X16182650Y-11955280D02*
X16082650Y-12055280D01*
X16182650Y-12005280D02*
G75*
G03*
X16182650Y-12005280I-50000J0D01*
G01*
X16085960Y-6374900D02*
X16185960Y-6474900D01*
X16185960Y-6374900D02*
X16085960Y-6474900D01*
X16185960Y-6424900D02*
G75*
G03*
X16185960Y-6424900I-50000J0D01*
G01*
X16085960Y-8239260D02*
X16185960Y-8339260D01*
X16185960Y-8239260D02*
X16085960Y-8339260D01*
X16185960Y-8289260D02*
G75*
G03*
X16185960Y-8289260I-50000J0D01*
G01*
X16195840Y-3297720D02*
X16295840Y-3397720D01*
X16295840Y-3297720D02*
X16195840Y-3397720D01*
X16295840Y-3347720D02*
G75*
G03*
X16295840Y-3347720I-50000J0D01*
G01*
X16449840Y-3297720D02*
X16549840Y-3397720D01*
X16549840Y-3297720D02*
X16449840Y-3397720D01*
X16549840Y-3347720D02*
G75*
G03*
X16549840Y-3347720I-50000J0D01*
G01*
X16703840Y-3297720D02*
X16803840Y-3397720D01*
X16803840Y-3297720D02*
X16703840Y-3397720D01*
X16803840Y-3347720D02*
G75*
G03*
X16803840Y-3347720I-50000J0D01*
G01*
X16957840Y-3297720D02*
X17057840Y-3397720D01*
X17057840Y-3297720D02*
X16957840Y-3397720D01*
X17057840Y-3347720D02*
G75*
G03*
X17057840Y-3347720I-50000J0D01*
G01*
X17211840Y-3297720D02*
X17311840Y-3397720D01*
X17311840Y-3297720D02*
X17211840Y-3397720D01*
X17311840Y-3347720D02*
G75*
G03*
X17311840Y-3347720I-50000J0D01*
G01*
X17465840Y-3297720D02*
X17565840Y-3397720D01*
X17565840Y-3297720D02*
X17465840Y-3397720D01*
X17565840Y-3347720D02*
G75*
G03*
X17565840Y-3347720I-50000J0D01*
G01*
X17719840Y-3297720D02*
X17819840Y-3397720D01*
X17819840Y-3297720D02*
X17719840Y-3397720D01*
X17819840Y-3347720D02*
G75*
G03*
X17819840Y-3347720I-50000J0D01*
G01*
D17*
X10160880Y-5456800D02*
X10270880Y-5566800D01*
X10270880Y-5456800D02*
X10160880Y-5566800D01*
X10215880Y-5456800D02*
X10215880Y-5566800D01*
X10160880Y-5511800D02*
X10270880Y-5511800D01*
X10384400Y-3170800D02*
X10494400Y-3280800D01*
X10494400Y-3170800D02*
X10384400Y-3280800D01*
X10439400Y-3170800D02*
X10439400Y-3280800D01*
X10384400Y-3225800D02*
X10494400Y-3225800D01*
X10384400Y-4186800D02*
X10494400Y-4296800D01*
X10494400Y-4186800D02*
X10384400Y-4296800D01*
X10439400Y-4186800D02*
X10439400Y-4296800D01*
X10384400Y-4241800D02*
X10494400Y-4241800D01*
X10714600Y-3170800D02*
X10824600Y-3280800D01*
X10824600Y-3170800D02*
X10714600Y-3280800D01*
X10769600Y-3170800D02*
X10769600Y-3280800D01*
X10714600Y-3225800D02*
X10824600Y-3225800D01*
X10714600Y-4186800D02*
X10824600Y-4296800D01*
X10824600Y-4186800D02*
X10714600Y-4296800D01*
X10769600Y-4186800D02*
X10769600Y-4296800D01*
X10714600Y-4241800D02*
X10824600Y-4241800D01*
X11044800Y-3170800D02*
X11154800Y-3280800D01*
X11154800Y-3170800D02*
X11044800Y-3280800D01*
X11099800Y-3170800D02*
X11099800Y-3280800D01*
X11044800Y-3225800D02*
X11154800Y-3225800D01*
X11044800Y-4186800D02*
X11154800Y-4296800D01*
X11154800Y-4186800D02*
X11044800Y-4296800D01*
X11099800Y-4186800D02*
X11099800Y-4296800D01*
X11044800Y-4241800D02*
X11154800Y-4241800D01*
X11176880Y-5456800D02*
X11286880Y-5566800D01*
X11286880Y-5456800D02*
X11176880Y-5566800D01*
X11231880Y-5456800D02*
X11231880Y-5566800D01*
X11176880Y-5511800D02*
X11286880Y-5511800D01*
X11375000Y-3170800D02*
X11485000Y-3280800D01*
X11485000Y-3170800D02*
X11375000Y-3280800D01*
X11430000Y-3170800D02*
X11430000Y-3280800D01*
X11375000Y-3225800D02*
X11485000Y-3225800D01*
X11375000Y-4186800D02*
X11485000Y-4296800D01*
X11485000Y-4186800D02*
X11375000Y-4296800D01*
X11430000Y-4186800D02*
X11430000Y-4296800D01*
X11375000Y-4241800D02*
X11485000Y-4241800D01*
X15166510Y-5812400D02*
X15276510Y-5922400D01*
X15276510Y-5812400D02*
X15166510Y-5922400D01*
X15221510Y-5812400D02*
X15221510Y-5922400D01*
X15166510Y-5867400D02*
X15276510Y-5867400D01*
X15169760Y-7686920D02*
X15279760Y-7796920D01*
X15279760Y-7686920D02*
X15169760Y-7796920D01*
X15224760Y-7686920D02*
X15224760Y-7796920D01*
X15169760Y-7741920D02*
X15279760Y-7741920D01*
X15169760Y-9541120D02*
X15279760Y-9651120D01*
X15279760Y-9541120D02*
X15169760Y-9651120D01*
X15224760Y-9541120D02*
X15224760Y-9651120D01*
X15169760Y-9596120D02*
X15279760Y-9596120D01*
X15174840Y-11425800D02*
X15284840Y-11535800D01*
X15284840Y-11425800D02*
X15174840Y-11535800D01*
X15229840Y-11425800D02*
X15229840Y-11535800D01*
X15174840Y-11480800D02*
X15284840Y-11480800D01*
X16182510Y-5812400D02*
X16292510Y-5922400D01*
X16292510Y-5812400D02*
X16182510Y-5922400D01*
X16237510Y-5812400D02*
X16237510Y-5922400D01*
X16182510Y-5867400D02*
X16292510Y-5867400D01*
X16185760Y-7686920D02*
X16295760Y-7796920D01*
X16295760Y-7686920D02*
X16185760Y-7796920D01*
X16240760Y-7686920D02*
X16240760Y-7796920D01*
X16185760Y-7741920D02*
X16295760Y-7741920D01*
X16185760Y-9541120D02*
X16295760Y-9651120D01*
X16295760Y-9541120D02*
X16185760Y-9651120D01*
X16240760Y-9541120D02*
X16240760Y-9651120D01*
X16185760Y-9596120D02*
X16295760Y-9596120D01*
X16190840Y-11425800D02*
X16300840Y-11535800D01*
X16300840Y-11425800D02*
X16190840Y-11535800D01*
X16245840Y-11425800D02*
X16245840Y-11535800D01*
X16190840Y-11480800D02*
X16300840Y-11480800D01*
D18*
X9680310Y-4026070D02*
X9800310Y-4146070D01*
X9800310Y-4026070D02*
X9680310Y-4146070D01*
X9782737Y-4128497D02*
X9782737Y-4043643D01*
X9697883Y-4043643D01*
X9697883Y-4128497D01*
X9782737Y-4128497D01*
X9680310Y-4534070D02*
X9800310Y-4654070D01*
X9800310Y-4534070D02*
X9680310Y-4654070D01*
X9782737Y-4636497D02*
X9782737Y-4551643D01*
X9697883Y-4551643D01*
X9697883Y-4636497D01*
X9782737Y-4636497D01*
X9818650Y-10022050D02*
X9938650Y-10142050D01*
X9938650Y-10022050D02*
X9818650Y-10142050D01*
X9921077Y-10124477D02*
X9921077Y-10039623D01*
X9836223Y-10039623D01*
X9836223Y-10124477D01*
X9921077Y-10124477D01*
X9818650Y-10530050D02*
X9938650Y-10650050D01*
X9938650Y-10530050D02*
X9818650Y-10650050D01*
X9921077Y-10632477D02*
X9921077Y-10547623D01*
X9836223Y-10547623D01*
X9836223Y-10632477D01*
X9921077Y-10632477D01*
X18814740Y-7562540D02*
X18934740Y-7682540D01*
X18934740Y-7562540D02*
X18814740Y-7682540D01*
X18917167Y-7664967D02*
X18917167Y-7580113D01*
X18832313Y-7580113D01*
X18832313Y-7664967D01*
X18917167Y-7664967D01*
X18814740Y-8070540D02*
X18934740Y-8190540D01*
X18934740Y-8070540D02*
X18814740Y-8190540D01*
X18917167Y-8172967D02*
X18917167Y-8088113D01*
X18832313Y-8088113D01*
X18832313Y-8172967D01*
X18917167Y-8172967D01*
X18814740Y-8578540D02*
X18934740Y-8698540D01*
X18934740Y-8578540D02*
X18814740Y-8698540D01*
X18917167Y-8680967D02*
X18917167Y-8596113D01*
X18832313Y-8596113D01*
X18832313Y-8680967D01*
X18917167Y-8680967D01*
X18814740Y-9086540D02*
X18934740Y-9206540D01*
X18934740Y-9086540D02*
X18814740Y-9206540D01*
X18917167Y-9188967D02*
X18917167Y-9104113D01*
X18832313Y-9104113D01*
X18832313Y-9188967D01*
X18917167Y-9188967D01*
X18814740Y-9594540D02*
X18934740Y-9714540D01*
X18934740Y-9594540D02*
X18814740Y-9714540D01*
X18917167Y-9696967D02*
X18917167Y-9612113D01*
X18832313Y-9612113D01*
X18832313Y-9696967D01*
X18917167Y-9696967D01*
X18814740Y-10102540D02*
X18934740Y-10222540D01*
X18934740Y-10102540D02*
X18814740Y-10222540D01*
X18917167Y-10204967D02*
X18917167Y-10120113D01*
X18832313Y-10120113D01*
X18832313Y-10204967D01*
X18917167Y-10204967D01*
D19*
X17192650Y-10083540D02*
X17322650Y-10213540D01*
X17322650Y-10083540D02*
X17192650Y-10213540D01*
X17257650Y-10213540D02*
X17322650Y-10148540D01*
X17257650Y-10083540D01*
X17192650Y-10148540D01*
X17257650Y-10213540D01*
X17192650Y-11940280D02*
X17322650Y-12070280D01*
X17322650Y-11940280D02*
X17192650Y-12070280D01*
X17257650Y-12070280D02*
X17322650Y-12005280D01*
X17257650Y-11940280D01*
X17192650Y-12005280D01*
X17257650Y-12070280D01*
X17195960Y-6359900D02*
X17325960Y-6489900D01*
X17325960Y-6359900D02*
X17195960Y-6489900D01*
X17260960Y-6489900D02*
X17325960Y-6424900D01*
X17260960Y-6359900D01*
X17195960Y-6424900D01*
X17260960Y-6489900D01*
X17195960Y-8224260D02*
X17325960Y-8354260D01*
X17325960Y-8224260D02*
X17195960Y-8354260D01*
X17260960Y-8354260D02*
X17325960Y-8289260D01*
X17260960Y-8224260D01*
X17195960Y-8289260D01*
X17260960Y-8354260D01*
X17692650Y-10083540D02*
X17822650Y-10213540D01*
X17822650Y-10083540D02*
X17692650Y-10213540D01*
X17757650Y-10213540D02*
X17822650Y-10148540D01*
X17757650Y-10083540D01*
X17692650Y-10148540D01*
X17757650Y-10213540D01*
X17692650Y-11940280D02*
X17822650Y-12070280D01*
X17822650Y-11940280D02*
X17692650Y-12070280D01*
X17757650Y-12070280D02*
X17822650Y-12005280D01*
X17757650Y-11940280D01*
X17692650Y-12005280D01*
X17757650Y-12070280D01*
X17695960Y-6359900D02*
X17825960Y-6489900D01*
X17825960Y-6359900D02*
X17695960Y-6489900D01*
X17760960Y-6489900D02*
X17825960Y-6424900D01*
X17760960Y-6359900D01*
X17695960Y-6424900D01*
X17760960Y-6489900D01*
X17695960Y-8224260D02*
X17825960Y-8354260D01*
X17825960Y-8224260D02*
X17695960Y-8354260D01*
X17760960Y-8354260D02*
X17825960Y-8289260D01*
X17760960Y-8224260D01*
X17695960Y-8289260D01*
X17760960Y-8354260D01*
X18192650Y-10083540D02*
X18322650Y-10213540D01*
X18322650Y-10083540D02*
X18192650Y-10213540D01*
X18257650Y-10213540D02*
X18322650Y-10148540D01*
X18257650Y-10083540D01*
X18192650Y-10148540D01*
X18257650Y-10213540D01*
X18192650Y-11940280D02*
X18322650Y-12070280D01*
X18322650Y-11940280D02*
X18192650Y-12070280D01*
X18257650Y-12070280D02*
X18322650Y-12005280D01*
X18257650Y-11940280D01*
X18192650Y-12005280D01*
X18257650Y-12070280D01*
X18195960Y-6359900D02*
X18325960Y-6489900D01*
X18325960Y-6359900D02*
X18195960Y-6489900D01*
X18260960Y-6489900D02*
X18325960Y-6424900D01*
X18260960Y-6359900D01*
X18195960Y-6424900D01*
X18260960Y-6489900D01*
X18195960Y-8224260D02*
X18325960Y-8354260D01*
X18325960Y-8224260D02*
X18195960Y-8354260D01*
X18260960Y-8354260D02*
X18325960Y-8289260D01*
X18260960Y-8224260D01*
X18195960Y-8289260D01*
X18260960Y-8354260D01*
D20*
X18963640Y-5328300D02*
X18963640Y-5498300D01*
X18878640Y-5413300D02*
X19048640Y-5413300D01*
X19048640Y-5413300D02*
G75*
G03*
X19048640Y-5413300I-85000J0D01*
G01*
X18963640Y-6287300D02*
X18963640Y-6457300D01*
X18878640Y-6372300D02*
X19048640Y-6372300D01*
X19048640Y-6372300D02*
G75*
G03*
X19048640Y-6372300I-85000J0D01*
G01*
D21*
X19049908Y-4823568D02*
X19049908Y-4651032D01*
X18877372Y-4651032D01*
X18877372Y-4823568D01*
X19049908Y-4823568D01*
X19085640Y-4737300D02*
G75*
G03*
X19085640Y-4737300I-122000J0D01*
G01*
X19049908Y-7134568D02*
X19049908Y-6962032D01*
X18877372Y-6962032D01*
X18877372Y-7134568D01*
X19049908Y-7134568D01*
X19085640Y-7048300D02*
G75*
G03*
X19085640Y-7048300I-122000J0D01*
G01*
D22*
X9727500Y-12847500D02*
X9877500Y-12697500D01*
X9727500Y-12547500D01*
X9577500Y-12697500D01*
X9727500Y-12847500D01*
X9877500Y-12697500D02*
G75*
G03*
X9877500Y-12697500I-150000J0D01*
G01*
X9728200Y-3553600D02*
X9878200Y-3403600D01*
X9728200Y-3253600D01*
X9578200Y-3403600D01*
X9728200Y-3553600D01*
X9878200Y-3403600D02*
G75*
G03*
X9878200Y-3403600I-150000J0D01*
G01*
X19020000Y-3552500D02*
X19170000Y-3402500D01*
X19020000Y-3252500D01*
X18870000Y-3402500D01*
X19020000Y-3552500D01*
X19170000Y-3402500D02*
G75*
G03*
X19170000Y-3402500I-150000J0D01*
G01*
X19020000Y-12845000D02*
X19170000Y-12695000D01*
X19020000Y-12545000D01*
X18870000Y-12695000D01*
X19020000Y-12845000D01*
X19170000Y-12695000D02*
G75*
G03*
X19170000Y-12695000I-150000J0D01*
G01*
D11*
X9625219Y-13363476D02*
X9625219Y-13163476D01*
X9672838Y-13163476D01*
X9701410Y-13173000D01*
X9720457Y-13192048D01*
X9729981Y-13211095D01*
X9739505Y-13249190D01*
X9739505Y-13277762D01*
X9729981Y-13315857D01*
X9720457Y-13334905D01*
X9701410Y-13353952D01*
X9672838Y-13363476D01*
X9625219Y-13363476D01*
X9825219Y-13363476D02*
X9825219Y-13230143D01*
X9825219Y-13268238D02*
X9834743Y-13249190D01*
X9844267Y-13239667D01*
X9863314Y-13230143D01*
X9882362Y-13230143D01*
X9949029Y-13363476D02*
X9949029Y-13230143D01*
X9949029Y-13163476D02*
X9939505Y-13173000D01*
X9949029Y-13182524D01*
X9958552Y-13173000D01*
X9949029Y-13163476D01*
X9949029Y-13182524D01*
X10072838Y-13363476D02*
X10053790Y-13353952D01*
X10044267Y-13334905D01*
X10044267Y-13163476D01*
X10177600Y-13363476D02*
X10158552Y-13353952D01*
X10149029Y-13334905D01*
X10149029Y-13163476D01*
X10406171Y-13363476D02*
X10406171Y-13163476D01*
X10472838Y-13306333D01*
X10539505Y-13163476D01*
X10539505Y-13363476D01*
X10720457Y-13363476D02*
X10720457Y-13258714D01*
X10710933Y-13239667D01*
X10691886Y-13230143D01*
X10653790Y-13230143D01*
X10634743Y-13239667D01*
X10720457Y-13353952D02*
X10701410Y-13363476D01*
X10653790Y-13363476D01*
X10634743Y-13353952D01*
X10625219Y-13334905D01*
X10625219Y-13315857D01*
X10634743Y-13296809D01*
X10653790Y-13287286D01*
X10701410Y-13287286D01*
X10720457Y-13277762D01*
X10815695Y-13230143D02*
X10815695Y-13430143D01*
X10815695Y-13239667D02*
X10834743Y-13230143D01*
X10872838Y-13230143D01*
X10891886Y-13239667D01*
X10901410Y-13249190D01*
X10910933Y-13268238D01*
X10910933Y-13325381D01*
X10901410Y-13344428D01*
X10891886Y-13353952D01*
X10872838Y-13363476D01*
X10834743Y-13363476D01*
X10815695Y-13353952D01*
X10996648Y-13344428D02*
X11006171Y-13353952D01*
X10996648Y-13363476D01*
X10987124Y-13353952D01*
X10996648Y-13344428D01*
X10996648Y-13363476D01*
X10996648Y-13239667D02*
X11006171Y-13249190D01*
X10996648Y-13258714D01*
X10987124Y-13249190D01*
X10996648Y-13239667D01*
X10996648Y-13258714D01*
D12*
X9327600Y-13673000D02*
X9367600Y-13713000D01*
X9367600Y-13673000D02*
X9327600Y-13713000D01*
D11*
X9663314Y-13583476D02*
X9682362Y-13583476D01*
X9701410Y-13593000D01*
X9710933Y-13602524D01*
X9720457Y-13621571D01*
X9729981Y-13659667D01*
X9729981Y-13707286D01*
X9720457Y-13745381D01*
X9710933Y-13764428D01*
X9701410Y-13773952D01*
X9682362Y-13783476D01*
X9663314Y-13783476D01*
X9644267Y-13773952D01*
X9634743Y-13764428D01*
X9625219Y-13745381D01*
X9615695Y-13707286D01*
X9615695Y-13659667D01*
X9625219Y-13621571D01*
X9634743Y-13602524D01*
X9644267Y-13593000D01*
X9663314Y-13583476D01*
X9815695Y-13764428D02*
X9825219Y-13773952D01*
X9815695Y-13783476D01*
X9806171Y-13773952D01*
X9815695Y-13764428D01*
X9815695Y-13783476D01*
X9996648Y-13650143D02*
X9996648Y-13783476D01*
X9949029Y-13573952D02*
X9901410Y-13716809D01*
X10025219Y-13716809D01*
X10139505Y-13583476D02*
X10158552Y-13583476D01*
X10177600Y-13593000D01*
X10187124Y-13602524D01*
X10196648Y-13621571D01*
X10206171Y-13659667D01*
X10206171Y-13707286D01*
X10196648Y-13745381D01*
X10187124Y-13764428D01*
X10177600Y-13773952D01*
X10158552Y-13783476D01*
X10139505Y-13783476D01*
X10120457Y-13773952D01*
X10110933Y-13764428D01*
X10101410Y-13745381D01*
X10091886Y-13707286D01*
X10091886Y-13659667D01*
X10101410Y-13621571D01*
X10110933Y-13602524D01*
X10120457Y-13593000D01*
X10139505Y-13583476D01*
X10329981Y-13583476D02*
X10349029Y-13583476D01*
X10368076Y-13593000D01*
X10377600Y-13602524D01*
X10387124Y-13621571D01*
X10396648Y-13659667D01*
X10396648Y-13707286D01*
X10387124Y-13745381D01*
X10377600Y-13764428D01*
X10368076Y-13773952D01*
X10349029Y-13783476D01*
X10329981Y-13783476D01*
X10310933Y-13773952D01*
X10301410Y-13764428D01*
X10291886Y-13745381D01*
X10282362Y-13707286D01*
X10282362Y-13659667D01*
X10291886Y-13621571D01*
X10301410Y-13602524D01*
X10310933Y-13593000D01*
X10329981Y-13583476D01*
X10482362Y-13783476D02*
X10482362Y-13650143D01*
X10482362Y-13669190D02*
X10491886Y-13659667D01*
X10510933Y-13650143D01*
X10539505Y-13650143D01*
X10558552Y-13659667D01*
X10568076Y-13678714D01*
X10568076Y-13783476D01*
X10568076Y-13678714D02*
X10577600Y-13659667D01*
X10596648Y-13650143D01*
X10625219Y-13650143D01*
X10644267Y-13659667D01*
X10653790Y-13678714D01*
X10653790Y-13783476D01*
X10749029Y-13783476D02*
X10749029Y-13650143D01*
X10749029Y-13669190D02*
X10758552Y-13659667D01*
X10777600Y-13650143D01*
X10806171Y-13650143D01*
X10825219Y-13659667D01*
X10834743Y-13678714D01*
X10834743Y-13783476D01*
X10834743Y-13678714D02*
X10844267Y-13659667D01*
X10863314Y-13650143D01*
X10891886Y-13650143D01*
X10910933Y-13659667D01*
X10920457Y-13678714D01*
X10920457Y-13783476D01*
X11310933Y-13573952D02*
X11139505Y-13831095D01*
X11568076Y-13583476D02*
X11587124Y-13583476D01*
X11606171Y-13593000D01*
X11615695Y-13602524D01*
X11625219Y-13621571D01*
X11634743Y-13659667D01*
X11634743Y-13707286D01*
X11625219Y-13745381D01*
X11615695Y-13764428D01*
X11606171Y-13773952D01*
X11587124Y-13783476D01*
X11568076Y-13783476D01*
X11549028Y-13773952D01*
X11539505Y-13764428D01*
X11529981Y-13745381D01*
X11520457Y-13707286D01*
X11520457Y-13659667D01*
X11529981Y-13621571D01*
X11539505Y-13602524D01*
X11549028Y-13593000D01*
X11568076Y-13583476D01*
X11720457Y-13764428D02*
X11729981Y-13773952D01*
X11720457Y-13783476D01*
X11710933Y-13773952D01*
X11720457Y-13764428D01*
X11720457Y-13783476D01*
X11853790Y-13583476D02*
X11872838Y-13583476D01*
X11891886Y-13593000D01*
X11901409Y-13602524D01*
X11910933Y-13621571D01*
X11920457Y-13659667D01*
X11920457Y-13707286D01*
X11910933Y-13745381D01*
X11901409Y-13764428D01*
X11891886Y-13773952D01*
X11872838Y-13783476D01*
X11853790Y-13783476D01*
X11834743Y-13773952D01*
X11825219Y-13764428D01*
X11815695Y-13745381D01*
X11806171Y-13707286D01*
X11806171Y-13659667D01*
X11815695Y-13621571D01*
X11825219Y-13602524D01*
X11834743Y-13593000D01*
X11853790Y-13583476D01*
X12110933Y-13783476D02*
X11996648Y-13783476D01*
X12053790Y-13783476D02*
X12053790Y-13583476D01*
X12034743Y-13612048D01*
X12015695Y-13631095D01*
X11996648Y-13640619D01*
X12291886Y-13583476D02*
X12196648Y-13583476D01*
X12187124Y-13678714D01*
X12196648Y-13669190D01*
X12215695Y-13659667D01*
X12263314Y-13659667D01*
X12282362Y-13669190D01*
X12291886Y-13678714D01*
X12301409Y-13697762D01*
X12301409Y-13745381D01*
X12291886Y-13764428D01*
X12282362Y-13773952D01*
X12263314Y-13783476D01*
X12215695Y-13783476D01*
X12196648Y-13773952D01*
X12187124Y-13764428D01*
X12368076Y-13583476D02*
X12501409Y-13583476D01*
X12415695Y-13783476D01*
X12568076Y-13583476D02*
X12568076Y-13621571D01*
X12644267Y-13583476D02*
X12644267Y-13621571D01*
X12939505Y-13859667D02*
X12929981Y-13850143D01*
X12910933Y-13821571D01*
X12901409Y-13802524D01*
X12891886Y-13773952D01*
X12882362Y-13726333D01*
X12882362Y-13688238D01*
X12891886Y-13640619D01*
X12901409Y-13612048D01*
X12910933Y-13593000D01*
X12929981Y-13564428D01*
X12939505Y-13554905D01*
X13101409Y-13650143D02*
X13101409Y-13783476D01*
X13053790Y-13573952D02*
X13006171Y-13716809D01*
X13129981Y-13716809D01*
X13215695Y-13783476D02*
X13253790Y-13783476D01*
X13272838Y-13773952D01*
X13282362Y-13764428D01*
X13301409Y-13735857D01*
X13310933Y-13697762D01*
X13310933Y-13621571D01*
X13301409Y-13602524D01*
X13291886Y-13593000D01*
X13272838Y-13583476D01*
X13234743Y-13583476D01*
X13215695Y-13593000D01*
X13206171Y-13602524D01*
X13196648Y-13621571D01*
X13196648Y-13669190D01*
X13206171Y-13688238D01*
X13215695Y-13697762D01*
X13234743Y-13707286D01*
X13272838Y-13707286D01*
X13291886Y-13697762D01*
X13301409Y-13688238D01*
X13310933Y-13669190D01*
X13549028Y-13783476D02*
X13549028Y-13583476D01*
X13634743Y-13783476D02*
X13634743Y-13678714D01*
X13625219Y-13659667D01*
X13606171Y-13650143D01*
X13577600Y-13650143D01*
X13558552Y-13659667D01*
X13549028Y-13669190D01*
X13758552Y-13783476D02*
X13739505Y-13773952D01*
X13729981Y-13764428D01*
X13720457Y-13745381D01*
X13720457Y-13688238D01*
X13729981Y-13669190D01*
X13739505Y-13659667D01*
X13758552Y-13650143D01*
X13787124Y-13650143D01*
X13806171Y-13659667D01*
X13815695Y-13669190D01*
X13825219Y-13688238D01*
X13825219Y-13745381D01*
X13815695Y-13764428D01*
X13806171Y-13773952D01*
X13787124Y-13783476D01*
X13758552Y-13783476D01*
X13939505Y-13783476D02*
X13920457Y-13773952D01*
X13910933Y-13754905D01*
X13910933Y-13583476D01*
X14091886Y-13773952D02*
X14072838Y-13783476D01*
X14034743Y-13783476D01*
X14015695Y-13773952D01*
X14006171Y-13754905D01*
X14006171Y-13678714D01*
X14015695Y-13659667D01*
X14034743Y-13650143D01*
X14072838Y-13650143D01*
X14091886Y-13659667D01*
X14101409Y-13678714D01*
X14101409Y-13697762D01*
X14006171Y-13716809D01*
X14177600Y-13773952D02*
X14196648Y-13783476D01*
X14234743Y-13783476D01*
X14253790Y-13773952D01*
X14263314Y-13754905D01*
X14263314Y-13745381D01*
X14253790Y-13726333D01*
X14234743Y-13716809D01*
X14206171Y-13716809D01*
X14187124Y-13707286D01*
X14177600Y-13688238D01*
X14177600Y-13678714D01*
X14187124Y-13659667D01*
X14206171Y-13650143D01*
X14234743Y-13650143D01*
X14253790Y-13659667D01*
X14329981Y-13859667D02*
X14339505Y-13850143D01*
X14358552Y-13821571D01*
X14368076Y-13802524D01*
X14377600Y-13773952D01*
X14387124Y-13726333D01*
X14387124Y-13688238D01*
X14377600Y-13640619D01*
X14368076Y-13612048D01*
X14358552Y-13593000D01*
X14339505Y-13564428D01*
X14329981Y-13554905D01*
D13*
X9367600Y-13957000D02*
G75*
G03*
X9367600Y-13957000I-30000J0D01*
G01*
D11*
X9663314Y-13847476D02*
X9682362Y-13847476D01*
X9701410Y-13857000D01*
X9710933Y-13866524D01*
X9720457Y-13885571D01*
X9729981Y-13923667D01*
X9729981Y-13971286D01*
X9720457Y-14009381D01*
X9710933Y-14028428D01*
X9701410Y-14037952D01*
X9682362Y-14047476D01*
X9663314Y-14047476D01*
X9644267Y-14037952D01*
X9634743Y-14028428D01*
X9625219Y-14009381D01*
X9615695Y-13971286D01*
X9615695Y-13923667D01*
X9625219Y-13885571D01*
X9634743Y-13866524D01*
X9644267Y-13857000D01*
X9663314Y-13847476D01*
X9815695Y-14028428D02*
X9825219Y-14037952D01*
X9815695Y-14047476D01*
X9806171Y-14037952D01*
X9815695Y-14028428D01*
X9815695Y-14047476D01*
X9996648Y-13847476D02*
X9958552Y-13847476D01*
X9939505Y-13857000D01*
X9929981Y-13866524D01*
X9910933Y-13895095D01*
X9901410Y-13933190D01*
X9901410Y-14009381D01*
X9910933Y-14028428D01*
X9920457Y-14037952D01*
X9939505Y-14047476D01*
X9977600Y-14047476D01*
X9996648Y-14037952D01*
X10006171Y-14028428D01*
X10015695Y-14009381D01*
X10015695Y-13961762D01*
X10006171Y-13942714D01*
X9996648Y-13933190D01*
X9977600Y-13923667D01*
X9939505Y-13923667D01*
X9920457Y-13933190D01*
X9910933Y-13942714D01*
X9901410Y-13961762D01*
X10139505Y-13847476D02*
X10158552Y-13847476D01*
X10177600Y-13857000D01*
X10187124Y-13866524D01*
X10196648Y-13885571D01*
X10206171Y-13923667D01*
X10206171Y-13971286D01*
X10196648Y-14009381D01*
X10187124Y-14028428D01*
X10177600Y-14037952D01*
X10158552Y-14047476D01*
X10139505Y-14047476D01*
X10120457Y-14037952D01*
X10110933Y-14028428D01*
X10101410Y-14009381D01*
X10091886Y-13971286D01*
X10091886Y-13923667D01*
X10101410Y-13885571D01*
X10110933Y-13866524D01*
X10120457Y-13857000D01*
X10139505Y-13847476D01*
X10329981Y-13847476D02*
X10349029Y-13847476D01*
X10368076Y-13857000D01*
X10377600Y-13866524D01*
X10387124Y-13885571D01*
X10396648Y-13923667D01*
X10396648Y-13971286D01*
X10387124Y-14009381D01*
X10377600Y-14028428D01*
X10368076Y-14037952D01*
X10349029Y-14047476D01*
X10329981Y-14047476D01*
X10310933Y-14037952D01*
X10301410Y-14028428D01*
X10291886Y-14009381D01*
X10282362Y-13971286D01*
X10282362Y-13923667D01*
X10291886Y-13885571D01*
X10301410Y-13866524D01*
X10310933Y-13857000D01*
X10329981Y-13847476D01*
X10482362Y-14047476D02*
X10482362Y-13914143D01*
X10482362Y-13933190D02*
X10491886Y-13923667D01*
X10510933Y-13914143D01*
X10539505Y-13914143D01*
X10558552Y-13923667D01*
X10568076Y-13942714D01*
X10568076Y-14047476D01*
X10568076Y-13942714D02*
X10577600Y-13923667D01*
X10596648Y-13914143D01*
X10625219Y-13914143D01*
X10644267Y-13923667D01*
X10653790Y-13942714D01*
X10653790Y-14047476D01*
X10749029Y-14047476D02*
X10749029Y-13914143D01*
X10749029Y-13933190D02*
X10758552Y-13923667D01*
X10777600Y-13914143D01*
X10806171Y-13914143D01*
X10825219Y-13923667D01*
X10834743Y-13942714D01*
X10834743Y-14047476D01*
X10834743Y-13942714D02*
X10844267Y-13923667D01*
X10863314Y-13914143D01*
X10891886Y-13914143D01*
X10910933Y-13923667D01*
X10920457Y-13942714D01*
X10920457Y-14047476D01*
X11310933Y-13837952D02*
X11139505Y-14095095D01*
X11568076Y-13847476D02*
X11587124Y-13847476D01*
X11606171Y-13857000D01*
X11615695Y-13866524D01*
X11625219Y-13885571D01*
X11634743Y-13923667D01*
X11634743Y-13971286D01*
X11625219Y-14009381D01*
X11615695Y-14028428D01*
X11606171Y-14037952D01*
X11587124Y-14047476D01*
X11568076Y-14047476D01*
X11549028Y-14037952D01*
X11539505Y-14028428D01*
X11529981Y-14009381D01*
X11520457Y-13971286D01*
X11520457Y-13923667D01*
X11529981Y-13885571D01*
X11539505Y-13866524D01*
X11549028Y-13857000D01*
X11568076Y-13847476D01*
X11720457Y-14028428D02*
X11729981Y-14037952D01*
X11720457Y-14047476D01*
X11710933Y-14037952D01*
X11720457Y-14028428D01*
X11720457Y-14047476D01*
X11853790Y-13847476D02*
X11872838Y-13847476D01*
X11891886Y-13857000D01*
X11901409Y-13866524D01*
X11910933Y-13885571D01*
X11920457Y-13923667D01*
X11920457Y-13971286D01*
X11910933Y-14009381D01*
X11901409Y-14028428D01*
X11891886Y-14037952D01*
X11872838Y-14047476D01*
X11853790Y-14047476D01*
X11834743Y-14037952D01*
X11825219Y-14028428D01*
X11815695Y-14009381D01*
X11806171Y-13971286D01*
X11806171Y-13923667D01*
X11815695Y-13885571D01*
X11825219Y-13866524D01*
X11834743Y-13857000D01*
X11853790Y-13847476D01*
X11996648Y-13866524D02*
X12006171Y-13857000D01*
X12025219Y-13847476D01*
X12072838Y-13847476D01*
X12091886Y-13857000D01*
X12101409Y-13866524D01*
X12110933Y-13885571D01*
X12110933Y-13904619D01*
X12101409Y-13933190D01*
X11987124Y-14047476D01*
X12110933Y-14047476D01*
X12177600Y-13847476D02*
X12301409Y-13847476D01*
X12234743Y-13923667D01*
X12263314Y-13923667D01*
X12282362Y-13933190D01*
X12291886Y-13942714D01*
X12301409Y-13961762D01*
X12301409Y-14009381D01*
X12291886Y-14028428D01*
X12282362Y-14037952D01*
X12263314Y-14047476D01*
X12206171Y-14047476D01*
X12187124Y-14037952D01*
X12177600Y-14028428D01*
X12472838Y-13847476D02*
X12434743Y-13847476D01*
X12415695Y-13857000D01*
X12406171Y-13866524D01*
X12387124Y-13895095D01*
X12377600Y-13933190D01*
X12377600Y-14009381D01*
X12387124Y-14028428D01*
X12396648Y-14037952D01*
X12415695Y-14047476D01*
X12453790Y-14047476D01*
X12472838Y-14037952D01*
X12482362Y-14028428D01*
X12491886Y-14009381D01*
X12491886Y-13961762D01*
X12482362Y-13942714D01*
X12472838Y-13933190D01*
X12453790Y-13923667D01*
X12415695Y-13923667D01*
X12396648Y-13933190D01*
X12387124Y-13942714D01*
X12377600Y-13961762D01*
X12568076Y-13847476D02*
X12568076Y-13885571D01*
X12644267Y-13847476D02*
X12644267Y-13885571D01*
X12939505Y-14123667D02*
X12929981Y-14114143D01*
X12910933Y-14085571D01*
X12901409Y-14066524D01*
X12891886Y-14037952D01*
X12882362Y-13990333D01*
X12882362Y-13952238D01*
X12891886Y-13904619D01*
X12901409Y-13876048D01*
X12910933Y-13857000D01*
X12929981Y-13828428D01*
X12939505Y-13818905D01*
X13044267Y-13933190D02*
X13025219Y-13923667D01*
X13015695Y-13914143D01*
X13006171Y-13895095D01*
X13006171Y-13885571D01*
X13015695Y-13866524D01*
X13025219Y-13857000D01*
X13044267Y-13847476D01*
X13082362Y-13847476D01*
X13101409Y-13857000D01*
X13110933Y-13866524D01*
X13120457Y-13885571D01*
X13120457Y-13895095D01*
X13110933Y-13914143D01*
X13101409Y-13923667D01*
X13082362Y-13933190D01*
X13044267Y-13933190D01*
X13025219Y-13942714D01*
X13015695Y-13952238D01*
X13006171Y-13971286D01*
X13006171Y-14009381D01*
X13015695Y-14028428D01*
X13025219Y-14037952D01*
X13044267Y-14047476D01*
X13082362Y-14047476D01*
X13101409Y-14037952D01*
X13110933Y-14028428D01*
X13120457Y-14009381D01*
X13120457Y-13971286D01*
X13110933Y-13952238D01*
X13101409Y-13942714D01*
X13082362Y-13933190D01*
X13358552Y-14047476D02*
X13358552Y-13847476D01*
X13444267Y-14047476D02*
X13444267Y-13942714D01*
X13434743Y-13923667D01*
X13415695Y-13914143D01*
X13387124Y-13914143D01*
X13368076Y-13923667D01*
X13358552Y-13933190D01*
X13568076Y-14047476D02*
X13549028Y-14037952D01*
X13539505Y-14028428D01*
X13529981Y-14009381D01*
X13529981Y-13952238D01*
X13539505Y-13933190D01*
X13549028Y-13923667D01*
X13568076Y-13914143D01*
X13596648Y-13914143D01*
X13615695Y-13923667D01*
X13625219Y-13933190D01*
X13634743Y-13952238D01*
X13634743Y-14009381D01*
X13625219Y-14028428D01*
X13615695Y-14037952D01*
X13596648Y-14047476D01*
X13568076Y-14047476D01*
X13749028Y-14047476D02*
X13729981Y-14037952D01*
X13720457Y-14018905D01*
X13720457Y-13847476D01*
X13901409Y-14037952D02*
X13882362Y-14047476D01*
X13844267Y-14047476D01*
X13825219Y-14037952D01*
X13815695Y-14018905D01*
X13815695Y-13942714D01*
X13825219Y-13923667D01*
X13844267Y-13914143D01*
X13882362Y-13914143D01*
X13901409Y-13923667D01*
X13910933Y-13942714D01*
X13910933Y-13961762D01*
X13815695Y-13980809D01*
X13987124Y-14037952D02*
X14006171Y-14047476D01*
X14044267Y-14047476D01*
X14063314Y-14037952D01*
X14072838Y-14018905D01*
X14072838Y-14009381D01*
X14063314Y-13990333D01*
X14044267Y-13980809D01*
X14015695Y-13980809D01*
X13996648Y-13971286D01*
X13987124Y-13952238D01*
X13987124Y-13942714D01*
X13996648Y-13923667D01*
X14015695Y-13914143D01*
X14044267Y-13914143D01*
X14063314Y-13923667D01*
X14139505Y-14123667D02*
X14149028Y-14114143D01*
X14168076Y-14085571D01*
X14177600Y-14066524D01*
X14187124Y-14037952D01*
X14196648Y-13990333D01*
X14196648Y-13952238D01*
X14187124Y-13904619D01*
X14177600Y-13876048D01*
X14168076Y-13857000D01*
X14149028Y-13828428D01*
X14139505Y-13818905D01*
D14*
X9330100Y-14183500D02*
X9330100Y-14258500D01*
X9292600Y-14221000D02*
X9367600Y-14221000D01*
D11*
X9663314Y-14111476D02*
X9682362Y-14111476D01*
X9701410Y-14121000D01*
X9710933Y-14130524D01*
X9720457Y-14149571D01*
X9729981Y-14187667D01*
X9729981Y-14235286D01*
X9720457Y-14273381D01*
X9710933Y-14292428D01*
X9701410Y-14301952D01*
X9682362Y-14311476D01*
X9663314Y-14311476D01*
X9644267Y-14301952D01*
X9634743Y-14292428D01*
X9625219Y-14273381D01*
X9615695Y-14235286D01*
X9615695Y-14187667D01*
X9625219Y-14149571D01*
X9634743Y-14130524D01*
X9644267Y-14121000D01*
X9663314Y-14111476D01*
X9815695Y-14292428D02*
X9825219Y-14301952D01*
X9815695Y-14311476D01*
X9806171Y-14301952D01*
X9815695Y-14292428D01*
X9815695Y-14311476D01*
X9891886Y-14111476D02*
X10025219Y-14111476D01*
X9939505Y-14311476D01*
X10196648Y-14111476D02*
X10101410Y-14111476D01*
X10091886Y-14206714D01*
X10101410Y-14197190D01*
X10120457Y-14187667D01*
X10168076Y-14187667D01*
X10187124Y-14197190D01*
X10196648Y-14206714D01*
X10206171Y-14225762D01*
X10206171Y-14273381D01*
X10196648Y-14292428D01*
X10187124Y-14301952D01*
X10168076Y-14311476D01*
X10120457Y-14311476D01*
X10101410Y-14301952D01*
X10091886Y-14292428D01*
X10329981Y-14111476D02*
X10349029Y-14111476D01*
X10368076Y-14121000D01*
X10377600Y-14130524D01*
X10387124Y-14149571D01*
X10396648Y-14187667D01*
X10396648Y-14235286D01*
X10387124Y-14273381D01*
X10377600Y-14292428D01*
X10368076Y-14301952D01*
X10349029Y-14311476D01*
X10329981Y-14311476D01*
X10310933Y-14301952D01*
X10301410Y-14292428D01*
X10291886Y-14273381D01*
X10282362Y-14235286D01*
X10282362Y-14187667D01*
X10291886Y-14149571D01*
X10301410Y-14130524D01*
X10310933Y-14121000D01*
X10329981Y-14111476D01*
X10482362Y-14311476D02*
X10482362Y-14178143D01*
X10482362Y-14197190D02*
X10491886Y-14187667D01*
X10510933Y-14178143D01*
X10539505Y-14178143D01*
X10558552Y-14187667D01*
X10568076Y-14206714D01*
X10568076Y-14311476D01*
X10568076Y-14206714D02*
X10577600Y-14187667D01*
X10596648Y-14178143D01*
X10625219Y-14178143D01*
X10644267Y-14187667D01*
X10653790Y-14206714D01*
X10653790Y-14311476D01*
X10749029Y-14311476D02*
X10749029Y-14178143D01*
X10749029Y-14197190D02*
X10758552Y-14187667D01*
X10777600Y-14178143D01*
X10806171Y-14178143D01*
X10825219Y-14187667D01*
X10834743Y-14206714D01*
X10834743Y-14311476D01*
X10834743Y-14206714D02*
X10844267Y-14187667D01*
X10863314Y-14178143D01*
X10891886Y-14178143D01*
X10910933Y-14187667D01*
X10920457Y-14206714D01*
X10920457Y-14311476D01*
X11310933Y-14101952D02*
X11139505Y-14359095D01*
X11568076Y-14111476D02*
X11587124Y-14111476D01*
X11606171Y-14121000D01*
X11615695Y-14130524D01*
X11625219Y-14149571D01*
X11634743Y-14187667D01*
X11634743Y-14235286D01*
X11625219Y-14273381D01*
X11615695Y-14292428D01*
X11606171Y-14301952D01*
X11587124Y-14311476D01*
X11568076Y-14311476D01*
X11549028Y-14301952D01*
X11539505Y-14292428D01*
X11529981Y-14273381D01*
X11520457Y-14235286D01*
X11520457Y-14187667D01*
X11529981Y-14149571D01*
X11539505Y-14130524D01*
X11549028Y-14121000D01*
X11568076Y-14111476D01*
X11720457Y-14292428D02*
X11729981Y-14301952D01*
X11720457Y-14311476D01*
X11710933Y-14301952D01*
X11720457Y-14292428D01*
X11720457Y-14311476D01*
X11853790Y-14111476D02*
X11872838Y-14111476D01*
X11891886Y-14121000D01*
X11901409Y-14130524D01*
X11910933Y-14149571D01*
X11920457Y-14187667D01*
X11920457Y-14235286D01*
X11910933Y-14273381D01*
X11901409Y-14292428D01*
X11891886Y-14301952D01*
X11872838Y-14311476D01*
X11853790Y-14311476D01*
X11834743Y-14301952D01*
X11825219Y-14292428D01*
X11815695Y-14273381D01*
X11806171Y-14235286D01*
X11806171Y-14187667D01*
X11815695Y-14149571D01*
X11825219Y-14130524D01*
X11834743Y-14121000D01*
X11853790Y-14111476D01*
X11996648Y-14130524D02*
X12006171Y-14121000D01*
X12025219Y-14111476D01*
X12072838Y-14111476D01*
X12091886Y-14121000D01*
X12101409Y-14130524D01*
X12110933Y-14149571D01*
X12110933Y-14168619D01*
X12101409Y-14197190D01*
X11987124Y-14311476D01*
X12110933Y-14311476D01*
X12206171Y-14311476D02*
X12244267Y-14311476D01*
X12263314Y-14301952D01*
X12272838Y-14292428D01*
X12291886Y-14263857D01*
X12301409Y-14225762D01*
X12301409Y-14149571D01*
X12291886Y-14130524D01*
X12282362Y-14121000D01*
X12263314Y-14111476D01*
X12225219Y-14111476D01*
X12206171Y-14121000D01*
X12196648Y-14130524D01*
X12187124Y-14149571D01*
X12187124Y-14197190D01*
X12196648Y-14216238D01*
X12206171Y-14225762D01*
X12225219Y-14235286D01*
X12263314Y-14235286D01*
X12282362Y-14225762D01*
X12291886Y-14216238D01*
X12301409Y-14197190D01*
X12482362Y-14111476D02*
X12387124Y-14111476D01*
X12377600Y-14206714D01*
X12387124Y-14197190D01*
X12406171Y-14187667D01*
X12453790Y-14187667D01*
X12472838Y-14197190D01*
X12482362Y-14206714D01*
X12491886Y-14225762D01*
X12491886Y-14273381D01*
X12482362Y-14292428D01*
X12472838Y-14301952D01*
X12453790Y-14311476D01*
X12406171Y-14311476D01*
X12387124Y-14301952D01*
X12377600Y-14292428D01*
X12568076Y-14111476D02*
X12568076Y-14149571D01*
X12644267Y-14111476D02*
X12644267Y-14149571D01*
X12939505Y-14387667D02*
X12929981Y-14378143D01*
X12910933Y-14349571D01*
X12901409Y-14330524D01*
X12891886Y-14301952D01*
X12882362Y-14254333D01*
X12882362Y-14216238D01*
X12891886Y-14168619D01*
X12901409Y-14140048D01*
X12910933Y-14121000D01*
X12929981Y-14092428D01*
X12939505Y-14082905D01*
X12996648Y-14111476D02*
X13120457Y-14111476D01*
X13053790Y-14187667D01*
X13082362Y-14187667D01*
X13101409Y-14197190D01*
X13110933Y-14206714D01*
X13120457Y-14225762D01*
X13120457Y-14273381D01*
X13110933Y-14292428D01*
X13101409Y-14301952D01*
X13082362Y-14311476D01*
X13025219Y-14311476D01*
X13006171Y-14301952D01*
X12996648Y-14292428D01*
X13358552Y-14311476D02*
X13358552Y-14111476D01*
X13444267Y-14311476D02*
X13444267Y-14206714D01*
X13434743Y-14187667D01*
X13415695Y-14178143D01*
X13387124Y-14178143D01*
X13368076Y-14187667D01*
X13358552Y-14197190D01*
X13568076Y-14311476D02*
X13549028Y-14301952D01*
X13539505Y-14292428D01*
X13529981Y-14273381D01*
X13529981Y-14216238D01*
X13539505Y-14197190D01*
X13549028Y-14187667D01*
X13568076Y-14178143D01*
X13596648Y-14178143D01*
X13615695Y-14187667D01*
X13625219Y-14197190D01*
X13634743Y-14216238D01*
X13634743Y-14273381D01*
X13625219Y-14292428D01*
X13615695Y-14301952D01*
X13596648Y-14311476D01*
X13568076Y-14311476D01*
X13749028Y-14311476D02*
X13729981Y-14301952D01*
X13720457Y-14282905D01*
X13720457Y-14111476D01*
X13901409Y-14301952D02*
X13882362Y-14311476D01*
X13844267Y-14311476D01*
X13825219Y-14301952D01*
X13815695Y-14282905D01*
X13815695Y-14206714D01*
X13825219Y-14187667D01*
X13844267Y-14178143D01*
X13882362Y-14178143D01*
X13901409Y-14187667D01*
X13910933Y-14206714D01*
X13910933Y-14225762D01*
X13815695Y-14244809D01*
X13987124Y-14301952D02*
X14006171Y-14311476D01*
X14044267Y-14311476D01*
X14063314Y-14301952D01*
X14072838Y-14282905D01*
X14072838Y-14273381D01*
X14063314Y-14254333D01*
X14044267Y-14244809D01*
X14015695Y-14244809D01*
X13996648Y-14235286D01*
X13987124Y-14216238D01*
X13987124Y-14206714D01*
X13996648Y-14187667D01*
X14015695Y-14178143D01*
X14044267Y-14178143D01*
X14063314Y-14187667D01*
X14139505Y-14387667D02*
X14149028Y-14378143D01*
X14168076Y-14349571D01*
X14177600Y-14330524D01*
X14187124Y-14301952D01*
X14196648Y-14254333D01*
X14196648Y-14216238D01*
X14187124Y-14168619D01*
X14177600Y-14140048D01*
X14168076Y-14121000D01*
X14149028Y-14092428D01*
X14139505Y-14082905D01*
D15*
X9355885Y-14513284D02*
X9355885Y-14456715D01*
X9299316Y-14456715D01*
X9299316Y-14513284D01*
X9355885Y-14513284D01*
D11*
X9663314Y-14375476D02*
X9682362Y-14375476D01*
X9701410Y-14385000D01*
X9710933Y-14394524D01*
X9720457Y-14413571D01*
X9729981Y-14451667D01*
X9729981Y-14499286D01*
X9720457Y-14537381D01*
X9710933Y-14556428D01*
X9701410Y-14565952D01*
X9682362Y-14575476D01*
X9663314Y-14575476D01*
X9644267Y-14565952D01*
X9634743Y-14556428D01*
X9625219Y-14537381D01*
X9615695Y-14499286D01*
X9615695Y-14451667D01*
X9625219Y-14413571D01*
X9634743Y-14394524D01*
X9644267Y-14385000D01*
X9663314Y-14375476D01*
X9815695Y-14556428D02*
X9825219Y-14565952D01*
X9815695Y-14575476D01*
X9806171Y-14565952D01*
X9815695Y-14556428D01*
X9815695Y-14575476D01*
X9939505Y-14461190D02*
X9920457Y-14451667D01*
X9910933Y-14442143D01*
X9901410Y-14423095D01*
X9901410Y-14413571D01*
X9910933Y-14394524D01*
X9920457Y-14385000D01*
X9939505Y-14375476D01*
X9977600Y-14375476D01*
X9996648Y-14385000D01*
X10006171Y-14394524D01*
X10015695Y-14413571D01*
X10015695Y-14423095D01*
X10006171Y-14442143D01*
X9996648Y-14451667D01*
X9977600Y-14461190D01*
X9939505Y-14461190D01*
X9920457Y-14470714D01*
X9910933Y-14480238D01*
X9901410Y-14499286D01*
X9901410Y-14537381D01*
X9910933Y-14556428D01*
X9920457Y-14565952D01*
X9939505Y-14575476D01*
X9977600Y-14575476D01*
X9996648Y-14565952D01*
X10006171Y-14556428D01*
X10015695Y-14537381D01*
X10015695Y-14499286D01*
X10006171Y-14480238D01*
X9996648Y-14470714D01*
X9977600Y-14461190D01*
X10139505Y-14375476D02*
X10158552Y-14375476D01*
X10177600Y-14385000D01*
X10187124Y-14394524D01*
X10196648Y-14413571D01*
X10206171Y-14451667D01*
X10206171Y-14499286D01*
X10196648Y-14537381D01*
X10187124Y-14556428D01*
X10177600Y-14565952D01*
X10158552Y-14575476D01*
X10139505Y-14575476D01*
X10120457Y-14565952D01*
X10110933Y-14556428D01*
X10101410Y-14537381D01*
X10091886Y-14499286D01*
X10091886Y-14451667D01*
X10101410Y-14413571D01*
X10110933Y-14394524D01*
X10120457Y-14385000D01*
X10139505Y-14375476D01*
X10329981Y-14375476D02*
X10349029Y-14375476D01*
X10368076Y-14385000D01*
X10377600Y-14394524D01*
X10387124Y-14413571D01*
X10396648Y-14451667D01*
X10396648Y-14499286D01*
X10387124Y-14537381D01*
X10377600Y-14556428D01*
X10368076Y-14565952D01*
X10349029Y-14575476D01*
X10329981Y-14575476D01*
X10310933Y-14565952D01*
X10301410Y-14556428D01*
X10291886Y-14537381D01*
X10282362Y-14499286D01*
X10282362Y-14451667D01*
X10291886Y-14413571D01*
X10301410Y-14394524D01*
X10310933Y-14385000D01*
X10329981Y-14375476D01*
X10482362Y-14575476D02*
X10482362Y-14442143D01*
X10482362Y-14461190D02*
X10491886Y-14451667D01*
X10510933Y-14442143D01*
X10539505Y-14442143D01*
X10558552Y-14451667D01*
X10568076Y-14470714D01*
X10568076Y-14575476D01*
X10568076Y-14470714D02*
X10577600Y-14451667D01*
X10596648Y-14442143D01*
X10625219Y-14442143D01*
X10644267Y-14451667D01*
X10653790Y-14470714D01*
X10653790Y-14575476D01*
X10749029Y-14575476D02*
X10749029Y-14442143D01*
X10749029Y-14461190D02*
X10758552Y-14451667D01*
X10777600Y-14442143D01*
X10806171Y-14442143D01*
X10825219Y-14451667D01*
X10834743Y-14470714D01*
X10834743Y-14575476D01*
X10834743Y-14470714D02*
X10844267Y-14451667D01*
X10863314Y-14442143D01*
X10891886Y-14442143D01*
X10910933Y-14451667D01*
X10920457Y-14470714D01*
X10920457Y-14575476D01*
X11310933Y-14365952D02*
X11139505Y-14623095D01*
X11568076Y-14375476D02*
X11587124Y-14375476D01*
X11606171Y-14385000D01*
X11615695Y-14394524D01*
X11625219Y-14413571D01*
X11634743Y-14451667D01*
X11634743Y-14499286D01*
X11625219Y-14537381D01*
X11615695Y-14556428D01*
X11606171Y-14565952D01*
X11587124Y-14575476D01*
X11568076Y-14575476D01*
X11549028Y-14565952D01*
X11539505Y-14556428D01*
X11529981Y-14537381D01*
X11520457Y-14499286D01*
X11520457Y-14451667D01*
X11529981Y-14413571D01*
X11539505Y-14394524D01*
X11549028Y-14385000D01*
X11568076Y-14375476D01*
X11720457Y-14556428D02*
X11729981Y-14565952D01*
X11720457Y-14575476D01*
X11710933Y-14565952D01*
X11720457Y-14556428D01*
X11720457Y-14575476D01*
X11853790Y-14375476D02*
X11872838Y-14375476D01*
X11891886Y-14385000D01*
X11901409Y-14394524D01*
X11910933Y-14413571D01*
X11920457Y-14451667D01*
X11920457Y-14499286D01*
X11910933Y-14537381D01*
X11901409Y-14556428D01*
X11891886Y-14565952D01*
X11872838Y-14575476D01*
X11853790Y-14575476D01*
X11834743Y-14565952D01*
X11825219Y-14556428D01*
X11815695Y-14537381D01*
X11806171Y-14499286D01*
X11806171Y-14451667D01*
X11815695Y-14413571D01*
X11825219Y-14394524D01*
X11834743Y-14385000D01*
X11853790Y-14375476D01*
X11987124Y-14375476D02*
X12110933Y-14375476D01*
X12044267Y-14451667D01*
X12072838Y-14451667D01*
X12091886Y-14461190D01*
X12101409Y-14470714D01*
X12110933Y-14489762D01*
X12110933Y-14537381D01*
X12101409Y-14556428D01*
X12091886Y-14565952D01*
X12072838Y-14575476D01*
X12015695Y-14575476D01*
X11996648Y-14565952D01*
X11987124Y-14556428D01*
X12301409Y-14575476D02*
X12187124Y-14575476D01*
X12244267Y-14575476D02*
X12244267Y-14375476D01*
X12225219Y-14404048D01*
X12206171Y-14423095D01*
X12187124Y-14432619D01*
X12482362Y-14375476D02*
X12387124Y-14375476D01*
X12377600Y-14470714D01*
X12387124Y-14461190D01*
X12406171Y-14451667D01*
X12453790Y-14451667D01*
X12472838Y-14461190D01*
X12482362Y-14470714D01*
X12491886Y-14489762D01*
X12491886Y-14537381D01*
X12482362Y-14556428D01*
X12472838Y-14565952D01*
X12453790Y-14575476D01*
X12406171Y-14575476D01*
X12387124Y-14565952D01*
X12377600Y-14556428D01*
X12568076Y-14375476D02*
X12568076Y-14413571D01*
X12644267Y-14375476D02*
X12644267Y-14413571D01*
X12939505Y-14651667D02*
X12929981Y-14642143D01*
X12910933Y-14613571D01*
X12901409Y-14594524D01*
X12891886Y-14565952D01*
X12882362Y-14518333D01*
X12882362Y-14480238D01*
X12891886Y-14432619D01*
X12901409Y-14404048D01*
X12910933Y-14385000D01*
X12929981Y-14356428D01*
X12939505Y-14346905D01*
X13120457Y-14575476D02*
X13006171Y-14575476D01*
X13063314Y-14575476D02*
X13063314Y-14375476D01*
X13044267Y-14404048D01*
X13025219Y-14423095D01*
X13006171Y-14432619D01*
X13187124Y-14375476D02*
X13310933Y-14375476D01*
X13244267Y-14451667D01*
X13272838Y-14451667D01*
X13291886Y-14461190D01*
X13301409Y-14470714D01*
X13310933Y-14489762D01*
X13310933Y-14537381D01*
X13301409Y-14556428D01*
X13291886Y-14565952D01*
X13272838Y-14575476D01*
X13215695Y-14575476D01*
X13196648Y-14565952D01*
X13187124Y-14556428D01*
X13406171Y-14575476D02*
X13444267Y-14575476D01*
X13463314Y-14565952D01*
X13472838Y-14556428D01*
X13491886Y-14527857D01*
X13501409Y-14489762D01*
X13501409Y-14413571D01*
X13491886Y-14394524D01*
X13482362Y-14385000D01*
X13463314Y-14375476D01*
X13425219Y-14375476D01*
X13406171Y-14385000D01*
X13396648Y-14394524D01*
X13387124Y-14413571D01*
X13387124Y-14461190D01*
X13396648Y-14480238D01*
X13406171Y-14489762D01*
X13425219Y-14499286D01*
X13463314Y-14499286D01*
X13482362Y-14489762D01*
X13491886Y-14480238D01*
X13501409Y-14461190D01*
X13739505Y-14575476D02*
X13739505Y-14375476D01*
X13825219Y-14575476D02*
X13825219Y-14470714D01*
X13815695Y-14451667D01*
X13796648Y-14442143D01*
X13768076Y-14442143D01*
X13749028Y-14451667D01*
X13739505Y-14461190D01*
X13949028Y-14575476D02*
X13929981Y-14565952D01*
X13920457Y-14556428D01*
X13910933Y-14537381D01*
X13910933Y-14480238D01*
X13920457Y-14461190D01*
X13929981Y-14451667D01*
X13949028Y-14442143D01*
X13977600Y-14442143D01*
X13996648Y-14451667D01*
X14006171Y-14461190D01*
X14015695Y-14480238D01*
X14015695Y-14537381D01*
X14006171Y-14556428D01*
X13996648Y-14565952D01*
X13977600Y-14575476D01*
X13949028Y-14575476D01*
X14129981Y-14575476D02*
X14110933Y-14565952D01*
X14101409Y-14546905D01*
X14101409Y-14375476D01*
X14282362Y-14565952D02*
X14263314Y-14575476D01*
X14225219Y-14575476D01*
X14206171Y-14565952D01*
X14196648Y-14546905D01*
X14196648Y-14470714D01*
X14206171Y-14451667D01*
X14225219Y-14442143D01*
X14263314Y-14442143D01*
X14282362Y-14451667D01*
X14291886Y-14470714D01*
X14291886Y-14489762D01*
X14196648Y-14508809D01*
X14368076Y-14565952D02*
X14387124Y-14575476D01*
X14425219Y-14575476D01*
X14444267Y-14565952D01*
X14453790Y-14546905D01*
X14453790Y-14537381D01*
X14444267Y-14518333D01*
X14425219Y-14508809D01*
X14396648Y-14508809D01*
X14377600Y-14499286D01*
X14368076Y-14480238D01*
X14368076Y-14470714D01*
X14377600Y-14451667D01*
X14396648Y-14442143D01*
X14425219Y-14442143D01*
X14444267Y-14451667D01*
X14520457Y-14651667D02*
X14529981Y-14642143D01*
X14549028Y-14613571D01*
X14558552Y-14594524D01*
X14568076Y-14565952D01*
X14577600Y-14518333D01*
X14577600Y-14480238D01*
X14568076Y-14432619D01*
X14558552Y-14404048D01*
X14549028Y-14385000D01*
X14529981Y-14356428D01*
X14520457Y-14346905D01*
D16*
X9322600Y-14794000D02*
X9367600Y-14749000D01*
X9322600Y-14704000D01*
X9277600Y-14749000D01*
X9322600Y-14794000D01*
D11*
X9663314Y-14639476D02*
X9682362Y-14639476D01*
X9701410Y-14649000D01*
X9710933Y-14658524D01*
X9720457Y-14677571D01*
X9729981Y-14715667D01*
X9729981Y-14763286D01*
X9720457Y-14801381D01*
X9710933Y-14820428D01*
X9701410Y-14829952D01*
X9682362Y-14839476D01*
X9663314Y-14839476D01*
X9644267Y-14829952D01*
X9634743Y-14820428D01*
X9625219Y-14801381D01*
X9615695Y-14763286D01*
X9615695Y-14715667D01*
X9625219Y-14677571D01*
X9634743Y-14658524D01*
X9644267Y-14649000D01*
X9663314Y-14639476D01*
X9815695Y-14820428D02*
X9825219Y-14829952D01*
X9815695Y-14839476D01*
X9806171Y-14829952D01*
X9815695Y-14820428D01*
X9815695Y-14839476D01*
X9920457Y-14839476D02*
X9958552Y-14839476D01*
X9977600Y-14829952D01*
X9987124Y-14820428D01*
X10006171Y-14791857D01*
X10015695Y-14753762D01*
X10015695Y-14677571D01*
X10006171Y-14658524D01*
X9996648Y-14649000D01*
X9977600Y-14639476D01*
X9939505Y-14639476D01*
X9920457Y-14649000D01*
X9910933Y-14658524D01*
X9901410Y-14677571D01*
X9901410Y-14725190D01*
X9910933Y-14744238D01*
X9920457Y-14753762D01*
X9939505Y-14763286D01*
X9977600Y-14763286D01*
X9996648Y-14753762D01*
X10006171Y-14744238D01*
X10015695Y-14725190D01*
X10139505Y-14639476D02*
X10158552Y-14639476D01*
X10177600Y-14649000D01*
X10187124Y-14658524D01*
X10196648Y-14677571D01*
X10206171Y-14715667D01*
X10206171Y-14763286D01*
X10196648Y-14801381D01*
X10187124Y-14820428D01*
X10177600Y-14829952D01*
X10158552Y-14839476D01*
X10139505Y-14839476D01*
X10120457Y-14829952D01*
X10110933Y-14820428D01*
X10101410Y-14801381D01*
X10091886Y-14763286D01*
X10091886Y-14715667D01*
X10101410Y-14677571D01*
X10110933Y-14658524D01*
X10120457Y-14649000D01*
X10139505Y-14639476D01*
X10329981Y-14639476D02*
X10349029Y-14639476D01*
X10368076Y-14649000D01*
X10377600Y-14658524D01*
X10387124Y-14677571D01*
X10396648Y-14715667D01*
X10396648Y-14763286D01*
X10387124Y-14801381D01*
X10377600Y-14820428D01*
X10368076Y-14829952D01*
X10349029Y-14839476D01*
X10329981Y-14839476D01*
X10310933Y-14829952D01*
X10301410Y-14820428D01*
X10291886Y-14801381D01*
X10282362Y-14763286D01*
X10282362Y-14715667D01*
X10291886Y-14677571D01*
X10301410Y-14658524D01*
X10310933Y-14649000D01*
X10329981Y-14639476D01*
X10482362Y-14839476D02*
X10482362Y-14706143D01*
X10482362Y-14725190D02*
X10491886Y-14715667D01*
X10510933Y-14706143D01*
X10539505Y-14706143D01*
X10558552Y-14715667D01*
X10568076Y-14734714D01*
X10568076Y-14839476D01*
X10568076Y-14734714D02*
X10577600Y-14715667D01*
X10596648Y-14706143D01*
X10625219Y-14706143D01*
X10644267Y-14715667D01*
X10653790Y-14734714D01*
X10653790Y-14839476D01*
X10749029Y-14839476D02*
X10749029Y-14706143D01*
X10749029Y-14725190D02*
X10758552Y-14715667D01*
X10777600Y-14706143D01*
X10806171Y-14706143D01*
X10825219Y-14715667D01*
X10834743Y-14734714D01*
X10834743Y-14839476D01*
X10834743Y-14734714D02*
X10844267Y-14715667D01*
X10863314Y-14706143D01*
X10891886Y-14706143D01*
X10910933Y-14715667D01*
X10920457Y-14734714D01*
X10920457Y-14839476D01*
X11310933Y-14629952D02*
X11139505Y-14887095D01*
X11568076Y-14639476D02*
X11587124Y-14639476D01*
X11606171Y-14649000D01*
X11615695Y-14658524D01*
X11625219Y-14677571D01*
X11634743Y-14715667D01*
X11634743Y-14763286D01*
X11625219Y-14801381D01*
X11615695Y-14820428D01*
X11606171Y-14829952D01*
X11587124Y-14839476D01*
X11568076Y-14839476D01*
X11549028Y-14829952D01*
X11539505Y-14820428D01*
X11529981Y-14801381D01*
X11520457Y-14763286D01*
X11520457Y-14715667D01*
X11529981Y-14677571D01*
X11539505Y-14658524D01*
X11549028Y-14649000D01*
X11568076Y-14639476D01*
X11720457Y-14820428D02*
X11729981Y-14829952D01*
X11720457Y-14839476D01*
X11710933Y-14829952D01*
X11720457Y-14820428D01*
X11720457Y-14839476D01*
X11853790Y-14639476D02*
X11872838Y-14639476D01*
X11891886Y-14649000D01*
X11901409Y-14658524D01*
X11910933Y-14677571D01*
X11920457Y-14715667D01*
X11920457Y-14763286D01*
X11910933Y-14801381D01*
X11901409Y-14820428D01*
X11891886Y-14829952D01*
X11872838Y-14839476D01*
X11853790Y-14839476D01*
X11834743Y-14829952D01*
X11825219Y-14820428D01*
X11815695Y-14801381D01*
X11806171Y-14763286D01*
X11806171Y-14715667D01*
X11815695Y-14677571D01*
X11825219Y-14658524D01*
X11834743Y-14649000D01*
X11853790Y-14639476D01*
X11987124Y-14639476D02*
X12110933Y-14639476D01*
X12044267Y-14715667D01*
X12072838Y-14715667D01*
X12091886Y-14725190D01*
X12101409Y-14734714D01*
X12110933Y-14753762D01*
X12110933Y-14801381D01*
X12101409Y-14820428D01*
X12091886Y-14829952D01*
X12072838Y-14839476D01*
X12015695Y-14839476D01*
X11996648Y-14829952D01*
X11987124Y-14820428D01*
X12291886Y-14639476D02*
X12196648Y-14639476D01*
X12187124Y-14734714D01*
X12196648Y-14725190D01*
X12215695Y-14715667D01*
X12263314Y-14715667D01*
X12282362Y-14725190D01*
X12291886Y-14734714D01*
X12301409Y-14753762D01*
X12301409Y-14801381D01*
X12291886Y-14820428D01*
X12282362Y-14829952D01*
X12263314Y-14839476D01*
X12215695Y-14839476D01*
X12196648Y-14829952D01*
X12187124Y-14820428D01*
X12472838Y-14706143D02*
X12472838Y-14839476D01*
X12425219Y-14629952D02*
X12377600Y-14772809D01*
X12501409Y-14772809D01*
X12568076Y-14639476D02*
X12568076Y-14677571D01*
X12644267Y-14639476D02*
X12644267Y-14677571D01*
X12939505Y-14915667D02*
X12929981Y-14906143D01*
X12910933Y-14877571D01*
X12901409Y-14858524D01*
X12891886Y-14829952D01*
X12882362Y-14782333D01*
X12882362Y-14744238D01*
X12891886Y-14696619D01*
X12901409Y-14668048D01*
X12910933Y-14649000D01*
X12929981Y-14620428D01*
X12939505Y-14610905D01*
X13120457Y-14839476D02*
X13006171Y-14839476D01*
X13063314Y-14839476D02*
X13063314Y-14639476D01*
X13044267Y-14668048D01*
X13025219Y-14687095D01*
X13006171Y-14696619D01*
X13244267Y-14639476D02*
X13263314Y-14639476D01*
X13282362Y-14649000D01*
X13291886Y-14658524D01*
X13301409Y-14677571D01*
X13310933Y-14715667D01*
X13310933Y-14763286D01*
X13301409Y-14801381D01*
X13291886Y-14820428D01*
X13282362Y-14829952D01*
X13263314Y-14839476D01*
X13244267Y-14839476D01*
X13225219Y-14829952D01*
X13215695Y-14820428D01*
X13206171Y-14801381D01*
X13196648Y-14763286D01*
X13196648Y-14715667D01*
X13206171Y-14677571D01*
X13215695Y-14658524D01*
X13225219Y-14649000D01*
X13244267Y-14639476D01*
X13549028Y-14839476D02*
X13549028Y-14639476D01*
X13634743Y-14839476D02*
X13634743Y-14734714D01*
X13625219Y-14715667D01*
X13606171Y-14706143D01*
X13577600Y-14706143D01*
X13558552Y-14715667D01*
X13549028Y-14725190D01*
X13758552Y-14839476D02*
X13739505Y-14829952D01*
X13729981Y-14820428D01*
X13720457Y-14801381D01*
X13720457Y-14744238D01*
X13729981Y-14725190D01*
X13739505Y-14715667D01*
X13758552Y-14706143D01*
X13787124Y-14706143D01*
X13806171Y-14715667D01*
X13815695Y-14725190D01*
X13825219Y-14744238D01*
X13825219Y-14801381D01*
X13815695Y-14820428D01*
X13806171Y-14829952D01*
X13787124Y-14839476D01*
X13758552Y-14839476D01*
X13939505Y-14839476D02*
X13920457Y-14829952D01*
X13910933Y-14810905D01*
X13910933Y-14639476D01*
X14091886Y-14829952D02*
X14072838Y-14839476D01*
X14034743Y-14839476D01*
X14015695Y-14829952D01*
X14006171Y-14810905D01*
X14006171Y-14734714D01*
X14015695Y-14715667D01*
X14034743Y-14706143D01*
X14072838Y-14706143D01*
X14091886Y-14715667D01*
X14101409Y-14734714D01*
X14101409Y-14753762D01*
X14006171Y-14772809D01*
X14177600Y-14829952D02*
X14196648Y-14839476D01*
X14234743Y-14839476D01*
X14253790Y-14829952D01*
X14263314Y-14810905D01*
X14263314Y-14801381D01*
X14253790Y-14782333D01*
X14234743Y-14772809D01*
X14206171Y-14772809D01*
X14187124Y-14763286D01*
X14177600Y-14744238D01*
X14177600Y-14734714D01*
X14187124Y-14715667D01*
X14206171Y-14706143D01*
X14234743Y-14706143D01*
X14253790Y-14715667D01*
X14329981Y-14915667D02*
X14339505Y-14906143D01*
X14358552Y-14877571D01*
X14368076Y-14858524D01*
X14377600Y-14829952D01*
X14387124Y-14782333D01*
X14387124Y-14744238D01*
X14377600Y-14696619D01*
X14368076Y-14668048D01*
X14358552Y-14649000D01*
X14339505Y-14620428D01*
X14329981Y-14610905D01*
D10*
X9267600Y-14963000D02*
X9367600Y-15063000D01*
X9367600Y-14963000D02*
X9267600Y-15063000D01*
X9367600Y-15013000D02*
G75*
G03*
X9367600Y-15013000I-50000J0D01*
G01*
D11*
X9729981Y-15103476D02*
X9615695Y-15103476D01*
X9672838Y-15103476D02*
X9672838Y-14903476D01*
X9653790Y-14932048D01*
X9634743Y-14951095D01*
X9615695Y-14960619D01*
X9815695Y-15084428D02*
X9825219Y-15093952D01*
X9815695Y-15103476D01*
X9806171Y-15093952D01*
X9815695Y-15084428D01*
X9815695Y-15103476D01*
X9949029Y-14903476D02*
X9968076Y-14903476D01*
X9987124Y-14913000D01*
X9996648Y-14922524D01*
X10006171Y-14941571D01*
X10015695Y-14979667D01*
X10015695Y-15027286D01*
X10006171Y-15065381D01*
X9996648Y-15084428D01*
X9987124Y-15093952D01*
X9968076Y-15103476D01*
X9949029Y-15103476D01*
X9929981Y-15093952D01*
X9920457Y-15084428D01*
X9910933Y-15065381D01*
X9901410Y-15027286D01*
X9901410Y-14979667D01*
X9910933Y-14941571D01*
X9920457Y-14922524D01*
X9929981Y-14913000D01*
X9949029Y-14903476D01*
X10139505Y-14903476D02*
X10158552Y-14903476D01*
X10177600Y-14913000D01*
X10187124Y-14922524D01*
X10196648Y-14941571D01*
X10206171Y-14979667D01*
X10206171Y-15027286D01*
X10196648Y-15065381D01*
X10187124Y-15084428D01*
X10177600Y-15093952D01*
X10158552Y-15103476D01*
X10139505Y-15103476D01*
X10120457Y-15093952D01*
X10110933Y-15084428D01*
X10101410Y-15065381D01*
X10091886Y-15027286D01*
X10091886Y-14979667D01*
X10101410Y-14941571D01*
X10110933Y-14922524D01*
X10120457Y-14913000D01*
X10139505Y-14903476D01*
X10329981Y-14903476D02*
X10349029Y-14903476D01*
X10368076Y-14913000D01*
X10377600Y-14922524D01*
X10387124Y-14941571D01*
X10396648Y-14979667D01*
X10396648Y-15027286D01*
X10387124Y-15065381D01*
X10377600Y-15084428D01*
X10368076Y-15093952D01*
X10349029Y-15103476D01*
X10329981Y-15103476D01*
X10310933Y-15093952D01*
X10301410Y-15084428D01*
X10291886Y-15065381D01*
X10282362Y-15027286D01*
X10282362Y-14979667D01*
X10291886Y-14941571D01*
X10301410Y-14922524D01*
X10310933Y-14913000D01*
X10329981Y-14903476D01*
X10482362Y-15103476D02*
X10482362Y-14970143D01*
X10482362Y-14989190D02*
X10491886Y-14979667D01*
X10510933Y-14970143D01*
X10539505Y-14970143D01*
X10558552Y-14979667D01*
X10568076Y-14998714D01*
X10568076Y-15103476D01*
X10568076Y-14998714D02*
X10577600Y-14979667D01*
X10596648Y-14970143D01*
X10625219Y-14970143D01*
X10644267Y-14979667D01*
X10653790Y-14998714D01*
X10653790Y-15103476D01*
X10749029Y-15103476D02*
X10749029Y-14970143D01*
X10749029Y-14989190D02*
X10758552Y-14979667D01*
X10777600Y-14970143D01*
X10806171Y-14970143D01*
X10825219Y-14979667D01*
X10834743Y-14998714D01*
X10834743Y-15103476D01*
X10834743Y-14998714D02*
X10844267Y-14979667D01*
X10863314Y-14970143D01*
X10891886Y-14970143D01*
X10910933Y-14979667D01*
X10920457Y-14998714D01*
X10920457Y-15103476D01*
X11310933Y-14893952D02*
X11139505Y-15151095D01*
X11568076Y-14903476D02*
X11587124Y-14903476D01*
X11606171Y-14913000D01*
X11615695Y-14922524D01*
X11625219Y-14941571D01*
X11634743Y-14979667D01*
X11634743Y-15027286D01*
X11625219Y-15065381D01*
X11615695Y-15084428D01*
X11606171Y-15093952D01*
X11587124Y-15103476D01*
X11568076Y-15103476D01*
X11549028Y-15093952D01*
X11539505Y-15084428D01*
X11529981Y-15065381D01*
X11520457Y-15027286D01*
X11520457Y-14979667D01*
X11529981Y-14941571D01*
X11539505Y-14922524D01*
X11549028Y-14913000D01*
X11568076Y-14903476D01*
X11720457Y-15084428D02*
X11729981Y-15093952D01*
X11720457Y-15103476D01*
X11710933Y-15093952D01*
X11720457Y-15084428D01*
X11720457Y-15103476D01*
X11853790Y-14903476D02*
X11872838Y-14903476D01*
X11891886Y-14913000D01*
X11901409Y-14922524D01*
X11910933Y-14941571D01*
X11920457Y-14979667D01*
X11920457Y-15027286D01*
X11910933Y-15065381D01*
X11901409Y-15084428D01*
X11891886Y-15093952D01*
X11872838Y-15103476D01*
X11853790Y-15103476D01*
X11834743Y-15093952D01*
X11825219Y-15084428D01*
X11815695Y-15065381D01*
X11806171Y-15027286D01*
X11806171Y-14979667D01*
X11815695Y-14941571D01*
X11825219Y-14922524D01*
X11834743Y-14913000D01*
X11853790Y-14903476D01*
X11987124Y-14903476D02*
X12110933Y-14903476D01*
X12044267Y-14979667D01*
X12072838Y-14979667D01*
X12091886Y-14989190D01*
X12101409Y-14998714D01*
X12110933Y-15017762D01*
X12110933Y-15065381D01*
X12101409Y-15084428D01*
X12091886Y-15093952D01*
X12072838Y-15103476D01*
X12015695Y-15103476D01*
X11996648Y-15093952D01*
X11987124Y-15084428D01*
X12206171Y-15103476D02*
X12244267Y-15103476D01*
X12263314Y-15093952D01*
X12272838Y-15084428D01*
X12291886Y-15055857D01*
X12301409Y-15017762D01*
X12301409Y-14941571D01*
X12291886Y-14922524D01*
X12282362Y-14913000D01*
X12263314Y-14903476D01*
X12225219Y-14903476D01*
X12206171Y-14913000D01*
X12196648Y-14922524D01*
X12187124Y-14941571D01*
X12187124Y-14989190D01*
X12196648Y-15008238D01*
X12206171Y-15017762D01*
X12225219Y-15027286D01*
X12263314Y-15027286D01*
X12282362Y-15017762D01*
X12291886Y-15008238D01*
X12301409Y-14989190D01*
X12472838Y-14970143D02*
X12472838Y-15103476D01*
X12425219Y-14893952D02*
X12377600Y-15036809D01*
X12501409Y-15036809D01*
X12568076Y-14903476D02*
X12568076Y-14941571D01*
X12644267Y-14903476D02*
X12644267Y-14941571D01*
X12939505Y-15179667D02*
X12929981Y-15170143D01*
X12910933Y-15141571D01*
X12901409Y-15122524D01*
X12891886Y-15093952D01*
X12882362Y-15046333D01*
X12882362Y-15008238D01*
X12891886Y-14960619D01*
X12901409Y-14932048D01*
X12910933Y-14913000D01*
X12929981Y-14884428D01*
X12939505Y-14874905D01*
X13110933Y-14903476D02*
X13015695Y-14903476D01*
X13006171Y-14998714D01*
X13015695Y-14989190D01*
X13034743Y-14979667D01*
X13082362Y-14979667D01*
X13101409Y-14989190D01*
X13110933Y-14998714D01*
X13120457Y-15017762D01*
X13120457Y-15065381D01*
X13110933Y-15084428D01*
X13101409Y-15093952D01*
X13082362Y-15103476D01*
X13034743Y-15103476D01*
X13015695Y-15093952D01*
X13006171Y-15084428D01*
X13301409Y-14903476D02*
X13206171Y-14903476D01*
X13196648Y-14998714D01*
X13206171Y-14989190D01*
X13225219Y-14979667D01*
X13272838Y-14979667D01*
X13291886Y-14989190D01*
X13301409Y-14998714D01*
X13310933Y-15017762D01*
X13310933Y-15065381D01*
X13301409Y-15084428D01*
X13291886Y-15093952D01*
X13272838Y-15103476D01*
X13225219Y-15103476D01*
X13206171Y-15093952D01*
X13196648Y-15084428D01*
X13549028Y-15103476D02*
X13549028Y-14903476D01*
X13634743Y-15103476D02*
X13634743Y-14998714D01*
X13625219Y-14979667D01*
X13606171Y-14970143D01*
X13577600Y-14970143D01*
X13558552Y-14979667D01*
X13549028Y-14989190D01*
X13758552Y-15103476D02*
X13739505Y-15093952D01*
X13729981Y-15084428D01*
X13720457Y-15065381D01*
X13720457Y-15008238D01*
X13729981Y-14989190D01*
X13739505Y-14979667D01*
X13758552Y-14970143D01*
X13787124Y-14970143D01*
X13806171Y-14979667D01*
X13815695Y-14989190D01*
X13825219Y-15008238D01*
X13825219Y-15065381D01*
X13815695Y-15084428D01*
X13806171Y-15093952D01*
X13787124Y-15103476D01*
X13758552Y-15103476D01*
X13939505Y-15103476D02*
X13920457Y-15093952D01*
X13910933Y-15074905D01*
X13910933Y-14903476D01*
X14091886Y-15093952D02*
X14072838Y-15103476D01*
X14034743Y-15103476D01*
X14015695Y-15093952D01*
X14006171Y-15074905D01*
X14006171Y-14998714D01*
X14015695Y-14979667D01*
X14034743Y-14970143D01*
X14072838Y-14970143D01*
X14091886Y-14979667D01*
X14101409Y-14998714D01*
X14101409Y-15017762D01*
X14006171Y-15036809D01*
X14177600Y-15093952D02*
X14196648Y-15103476D01*
X14234743Y-15103476D01*
X14253790Y-15093952D01*
X14263314Y-15074905D01*
X14263314Y-15065381D01*
X14253790Y-15046333D01*
X14234743Y-15036809D01*
X14206171Y-15036809D01*
X14187124Y-15027286D01*
X14177600Y-15008238D01*
X14177600Y-14998714D01*
X14187124Y-14979667D01*
X14206171Y-14970143D01*
X14234743Y-14970143D01*
X14253790Y-14979667D01*
X14329981Y-15179667D02*
X14339505Y-15170143D01*
X14358552Y-15141571D01*
X14368076Y-15122524D01*
X14377600Y-15093952D01*
X14387124Y-15046333D01*
X14387124Y-15008238D01*
X14377600Y-14960619D01*
X14368076Y-14932048D01*
X14358552Y-14913000D01*
X14339505Y-14884428D01*
X14329981Y-14874905D01*
D17*
X9257600Y-15222000D02*
X9367600Y-15332000D01*
X9367600Y-15222000D02*
X9257600Y-15332000D01*
X9312600Y-15222000D02*
X9312600Y-15332000D01*
X9257600Y-15277000D02*
X9367600Y-15277000D01*
D11*
X9729981Y-15367476D02*
X9615695Y-15367476D01*
X9672838Y-15367476D02*
X9672838Y-15167476D01*
X9653790Y-15196048D01*
X9634743Y-15215095D01*
X9615695Y-15224619D01*
X9815695Y-15348428D02*
X9825219Y-15357952D01*
X9815695Y-15367476D01*
X9806171Y-15357952D01*
X9815695Y-15348428D01*
X9815695Y-15367476D01*
X10015695Y-15367476D02*
X9901410Y-15367476D01*
X9958552Y-15367476D02*
X9958552Y-15167476D01*
X9939505Y-15196048D01*
X9920457Y-15215095D01*
X9901410Y-15224619D01*
X10139505Y-15167476D02*
X10158552Y-15167476D01*
X10177600Y-15177000D01*
X10187124Y-15186524D01*
X10196648Y-15205571D01*
X10206171Y-15243667D01*
X10206171Y-15291286D01*
X10196648Y-15329381D01*
X10187124Y-15348428D01*
X10177600Y-15357952D01*
X10158552Y-15367476D01*
X10139505Y-15367476D01*
X10120457Y-15357952D01*
X10110933Y-15348428D01*
X10101410Y-15329381D01*
X10091886Y-15291286D01*
X10091886Y-15243667D01*
X10101410Y-15205571D01*
X10110933Y-15186524D01*
X10120457Y-15177000D01*
X10139505Y-15167476D01*
X10329981Y-15167476D02*
X10349029Y-15167476D01*
X10368076Y-15177000D01*
X10377600Y-15186524D01*
X10387124Y-15205571D01*
X10396648Y-15243667D01*
X10396648Y-15291286D01*
X10387124Y-15329381D01*
X10377600Y-15348428D01*
X10368076Y-15357952D01*
X10349029Y-15367476D01*
X10329981Y-15367476D01*
X10310933Y-15357952D01*
X10301410Y-15348428D01*
X10291886Y-15329381D01*
X10282362Y-15291286D01*
X10282362Y-15243667D01*
X10291886Y-15205571D01*
X10301410Y-15186524D01*
X10310933Y-15177000D01*
X10329981Y-15167476D01*
X10482362Y-15367476D02*
X10482362Y-15234143D01*
X10482362Y-15253190D02*
X10491886Y-15243667D01*
X10510933Y-15234143D01*
X10539505Y-15234143D01*
X10558552Y-15243667D01*
X10568076Y-15262714D01*
X10568076Y-15367476D01*
X10568076Y-15262714D02*
X10577600Y-15243667D01*
X10596648Y-15234143D01*
X10625219Y-15234143D01*
X10644267Y-15243667D01*
X10653790Y-15262714D01*
X10653790Y-15367476D01*
X10749029Y-15367476D02*
X10749029Y-15234143D01*
X10749029Y-15253190D02*
X10758552Y-15243667D01*
X10777600Y-15234143D01*
X10806171Y-15234143D01*
X10825219Y-15243667D01*
X10834743Y-15262714D01*
X10834743Y-15367476D01*
X10834743Y-15262714D02*
X10844267Y-15243667D01*
X10863314Y-15234143D01*
X10891886Y-15234143D01*
X10910933Y-15243667D01*
X10920457Y-15262714D01*
X10920457Y-15367476D01*
X11310933Y-15157952D02*
X11139505Y-15415095D01*
X11568076Y-15167476D02*
X11587124Y-15167476D01*
X11606171Y-15177000D01*
X11615695Y-15186524D01*
X11625219Y-15205571D01*
X11634743Y-15243667D01*
X11634743Y-15291286D01*
X11625219Y-15329381D01*
X11615695Y-15348428D01*
X11606171Y-15357952D01*
X11587124Y-15367476D01*
X11568076Y-15367476D01*
X11549028Y-15357952D01*
X11539505Y-15348428D01*
X11529981Y-15329381D01*
X11520457Y-15291286D01*
X11520457Y-15243667D01*
X11529981Y-15205571D01*
X11539505Y-15186524D01*
X11549028Y-15177000D01*
X11568076Y-15167476D01*
X11720457Y-15348428D02*
X11729981Y-15357952D01*
X11720457Y-15367476D01*
X11710933Y-15357952D01*
X11720457Y-15348428D01*
X11720457Y-15367476D01*
X11853790Y-15167476D02*
X11872838Y-15167476D01*
X11891886Y-15177000D01*
X11901409Y-15186524D01*
X11910933Y-15205571D01*
X11920457Y-15243667D01*
X11920457Y-15291286D01*
X11910933Y-15329381D01*
X11901409Y-15348428D01*
X11891886Y-15357952D01*
X11872838Y-15367476D01*
X11853790Y-15367476D01*
X11834743Y-15357952D01*
X11825219Y-15348428D01*
X11815695Y-15329381D01*
X11806171Y-15291286D01*
X11806171Y-15243667D01*
X11815695Y-15205571D01*
X11825219Y-15186524D01*
X11834743Y-15177000D01*
X11853790Y-15167476D01*
X12091886Y-15234143D02*
X12091886Y-15367476D01*
X12044267Y-15157952D02*
X11996648Y-15300809D01*
X12120457Y-15300809D01*
X12177600Y-15167476D02*
X12301409Y-15167476D01*
X12234743Y-15243667D01*
X12263314Y-15243667D01*
X12282362Y-15253190D01*
X12291886Y-15262714D01*
X12301409Y-15281762D01*
X12301409Y-15329381D01*
X12291886Y-15348428D01*
X12282362Y-15357952D01*
X12263314Y-15367476D01*
X12206171Y-15367476D01*
X12187124Y-15357952D01*
X12177600Y-15348428D01*
X12368076Y-15167476D02*
X12491886Y-15167476D01*
X12425219Y-15243667D01*
X12453790Y-15243667D01*
X12472838Y-15253190D01*
X12482362Y-15262714D01*
X12491886Y-15281762D01*
X12491886Y-15329381D01*
X12482362Y-15348428D01*
X12472838Y-15357952D01*
X12453790Y-15367476D01*
X12396648Y-15367476D01*
X12377600Y-15357952D01*
X12368076Y-15348428D01*
X12568076Y-15167476D02*
X12568076Y-15205571D01*
X12644267Y-15167476D02*
X12644267Y-15205571D01*
X12939505Y-15443667D02*
X12929981Y-15434143D01*
X12910933Y-15405571D01*
X12901409Y-15386524D01*
X12891886Y-15357952D01*
X12882362Y-15310333D01*
X12882362Y-15272238D01*
X12891886Y-15224619D01*
X12901409Y-15196048D01*
X12910933Y-15177000D01*
X12929981Y-15148428D01*
X12939505Y-15138905D01*
X13120457Y-15367476D02*
X13006171Y-15367476D01*
X13063314Y-15367476D02*
X13063314Y-15167476D01*
X13044267Y-15196048D01*
X13025219Y-15215095D01*
X13006171Y-15224619D01*
X13234743Y-15253190D02*
X13215695Y-15243667D01*
X13206171Y-15234143D01*
X13196648Y-15215095D01*
X13196648Y-15205571D01*
X13206171Y-15186524D01*
X13215695Y-15177000D01*
X13234743Y-15167476D01*
X13272838Y-15167476D01*
X13291886Y-15177000D01*
X13301409Y-15186524D01*
X13310933Y-15205571D01*
X13310933Y-15215095D01*
X13301409Y-15234143D01*
X13291886Y-15243667D01*
X13272838Y-15253190D01*
X13234743Y-15253190D01*
X13215695Y-15262714D01*
X13206171Y-15272238D01*
X13196648Y-15291286D01*
X13196648Y-15329381D01*
X13206171Y-15348428D01*
X13215695Y-15357952D01*
X13234743Y-15367476D01*
X13272838Y-15367476D01*
X13291886Y-15357952D01*
X13301409Y-15348428D01*
X13310933Y-15329381D01*
X13310933Y-15291286D01*
X13301409Y-15272238D01*
X13291886Y-15262714D01*
X13272838Y-15253190D01*
X13549028Y-15367476D02*
X13549028Y-15167476D01*
X13634743Y-15367476D02*
X13634743Y-15262714D01*
X13625219Y-15243667D01*
X13606171Y-15234143D01*
X13577600Y-15234143D01*
X13558552Y-15243667D01*
X13549028Y-15253190D01*
X13758552Y-15367476D02*
X13739505Y-15357952D01*
X13729981Y-15348428D01*
X13720457Y-15329381D01*
X13720457Y-15272238D01*
X13729981Y-15253190D01*
X13739505Y-15243667D01*
X13758552Y-15234143D01*
X13787124Y-15234143D01*
X13806171Y-15243667D01*
X13815695Y-15253190D01*
X13825219Y-15272238D01*
X13825219Y-15329381D01*
X13815695Y-15348428D01*
X13806171Y-15357952D01*
X13787124Y-15367476D01*
X13758552Y-15367476D01*
X13939505Y-15367476D02*
X13920457Y-15357952D01*
X13910933Y-15338905D01*
X13910933Y-15167476D01*
X14091886Y-15357952D02*
X14072838Y-15367476D01*
X14034743Y-15367476D01*
X14015695Y-15357952D01*
X14006171Y-15338905D01*
X14006171Y-15262714D01*
X14015695Y-15243667D01*
X14034743Y-15234143D01*
X14072838Y-15234143D01*
X14091886Y-15243667D01*
X14101409Y-15262714D01*
X14101409Y-15281762D01*
X14006171Y-15300809D01*
X14177600Y-15357952D02*
X14196648Y-15367476D01*
X14234743Y-15367476D01*
X14253790Y-15357952D01*
X14263314Y-15338905D01*
X14263314Y-15329381D01*
X14253790Y-15310333D01*
X14234743Y-15300809D01*
X14206171Y-15300809D01*
X14187124Y-15291286D01*
X14177600Y-15272238D01*
X14177600Y-15262714D01*
X14187124Y-15243667D01*
X14206171Y-15234143D01*
X14234743Y-15234143D01*
X14253790Y-15243667D01*
X14329981Y-15443667D02*
X14339505Y-15434143D01*
X14358552Y-15405571D01*
X14368076Y-15386524D01*
X14377600Y-15357952D01*
X14387124Y-15310333D01*
X14387124Y-15272238D01*
X14377600Y-15224619D01*
X14368076Y-15196048D01*
X14358552Y-15177000D01*
X14339505Y-15148428D01*
X14329981Y-15138905D01*
D18*
X9247600Y-15481000D02*
X9367600Y-15601000D01*
X9367600Y-15481000D02*
X9247600Y-15601000D01*
X9350027Y-15583427D02*
X9350027Y-15498573D01*
X9265173Y-15498573D01*
X9265173Y-15583427D01*
X9350027Y-15583427D01*
D11*
X9729981Y-15631476D02*
X9615695Y-15631476D01*
X9672838Y-15631476D02*
X9672838Y-15431476D01*
X9653790Y-15460048D01*
X9634743Y-15479095D01*
X9615695Y-15488619D01*
X9815695Y-15612428D02*
X9825219Y-15621952D01*
X9815695Y-15631476D01*
X9806171Y-15621952D01*
X9815695Y-15612428D01*
X9815695Y-15631476D01*
X9901410Y-15450524D02*
X9910933Y-15441000D01*
X9929981Y-15431476D01*
X9977600Y-15431476D01*
X9996648Y-15441000D01*
X10006171Y-15450524D01*
X10015695Y-15469571D01*
X10015695Y-15488619D01*
X10006171Y-15517190D01*
X9891886Y-15631476D01*
X10015695Y-15631476D01*
X10139505Y-15431476D02*
X10158552Y-15431476D01*
X10177600Y-15441000D01*
X10187124Y-15450524D01*
X10196648Y-15469571D01*
X10206171Y-15507667D01*
X10206171Y-15555286D01*
X10196648Y-15593381D01*
X10187124Y-15612428D01*
X10177600Y-15621952D01*
X10158552Y-15631476D01*
X10139505Y-15631476D01*
X10120457Y-15621952D01*
X10110933Y-15612428D01*
X10101410Y-15593381D01*
X10091886Y-15555286D01*
X10091886Y-15507667D01*
X10101410Y-15469571D01*
X10110933Y-15450524D01*
X10120457Y-15441000D01*
X10139505Y-15431476D01*
X10329981Y-15431476D02*
X10349029Y-15431476D01*
X10368076Y-15441000D01*
X10377600Y-15450524D01*
X10387124Y-15469571D01*
X10396648Y-15507667D01*
X10396648Y-15555286D01*
X10387124Y-15593381D01*
X10377600Y-15612428D01*
X10368076Y-15621952D01*
X10349029Y-15631476D01*
X10329981Y-15631476D01*
X10310933Y-15621952D01*
X10301410Y-15612428D01*
X10291886Y-15593381D01*
X10282362Y-15555286D01*
X10282362Y-15507667D01*
X10291886Y-15469571D01*
X10301410Y-15450524D01*
X10310933Y-15441000D01*
X10329981Y-15431476D01*
X10482362Y-15631476D02*
X10482362Y-15498143D01*
X10482362Y-15517190D02*
X10491886Y-15507667D01*
X10510933Y-15498143D01*
X10539505Y-15498143D01*
X10558552Y-15507667D01*
X10568076Y-15526714D01*
X10568076Y-15631476D01*
X10568076Y-15526714D02*
X10577600Y-15507667D01*
X10596648Y-15498143D01*
X10625219Y-15498143D01*
X10644267Y-15507667D01*
X10653790Y-15526714D01*
X10653790Y-15631476D01*
X10749029Y-15631476D02*
X10749029Y-15498143D01*
X10749029Y-15517190D02*
X10758552Y-15507667D01*
X10777600Y-15498143D01*
X10806171Y-15498143D01*
X10825219Y-15507667D01*
X10834743Y-15526714D01*
X10834743Y-15631476D01*
X10834743Y-15526714D02*
X10844267Y-15507667D01*
X10863314Y-15498143D01*
X10891886Y-15498143D01*
X10910933Y-15507667D01*
X10920457Y-15526714D01*
X10920457Y-15631476D01*
X11310933Y-15421952D02*
X11139505Y-15679095D01*
X11568076Y-15431476D02*
X11587124Y-15431476D01*
X11606171Y-15441000D01*
X11615695Y-15450524D01*
X11625219Y-15469571D01*
X11634743Y-15507667D01*
X11634743Y-15555286D01*
X11625219Y-15593381D01*
X11615695Y-15612428D01*
X11606171Y-15621952D01*
X11587124Y-15631476D01*
X11568076Y-15631476D01*
X11549028Y-15621952D01*
X11539505Y-15612428D01*
X11529981Y-15593381D01*
X11520457Y-15555286D01*
X11520457Y-15507667D01*
X11529981Y-15469571D01*
X11539505Y-15450524D01*
X11549028Y-15441000D01*
X11568076Y-15431476D01*
X11720457Y-15612428D02*
X11729981Y-15621952D01*
X11720457Y-15631476D01*
X11710933Y-15621952D01*
X11720457Y-15612428D01*
X11720457Y-15631476D01*
X11853790Y-15431476D02*
X11872838Y-15431476D01*
X11891886Y-15441000D01*
X11901409Y-15450524D01*
X11910933Y-15469571D01*
X11920457Y-15507667D01*
X11920457Y-15555286D01*
X11910933Y-15593381D01*
X11901409Y-15612428D01*
X11891886Y-15621952D01*
X11872838Y-15631476D01*
X11853790Y-15631476D01*
X11834743Y-15621952D01*
X11825219Y-15612428D01*
X11815695Y-15593381D01*
X11806171Y-15555286D01*
X11806171Y-15507667D01*
X11815695Y-15469571D01*
X11825219Y-15450524D01*
X11834743Y-15441000D01*
X11853790Y-15431476D01*
X12091886Y-15498143D02*
X12091886Y-15631476D01*
X12044267Y-15421952D02*
X11996648Y-15564809D01*
X12120457Y-15564809D01*
X12177600Y-15431476D02*
X12310933Y-15431476D01*
X12225219Y-15631476D01*
X12377600Y-15450524D02*
X12387124Y-15441000D01*
X12406171Y-15431476D01*
X12453790Y-15431476D01*
X12472838Y-15441000D01*
X12482362Y-15450524D01*
X12491886Y-15469571D01*
X12491886Y-15488619D01*
X12482362Y-15517190D01*
X12368076Y-15631476D01*
X12491886Y-15631476D01*
X12568076Y-15431476D02*
X12568076Y-15469571D01*
X12644267Y-15431476D02*
X12644267Y-15469571D01*
X12939505Y-15707667D02*
X12929981Y-15698143D01*
X12910933Y-15669571D01*
X12901409Y-15650524D01*
X12891886Y-15621952D01*
X12882362Y-15574333D01*
X12882362Y-15536238D01*
X12891886Y-15488619D01*
X12901409Y-15460048D01*
X12910933Y-15441000D01*
X12929981Y-15412428D01*
X12939505Y-15402905D01*
X13120457Y-15631476D02*
X13006171Y-15631476D01*
X13063314Y-15631476D02*
X13063314Y-15431476D01*
X13044267Y-15460048D01*
X13025219Y-15479095D01*
X13006171Y-15488619D01*
X13244267Y-15431476D02*
X13263314Y-15431476D01*
X13282362Y-15441000D01*
X13291886Y-15450524D01*
X13301409Y-15469571D01*
X13310933Y-15507667D01*
X13310933Y-15555286D01*
X13301409Y-15593381D01*
X13291886Y-15612428D01*
X13282362Y-15621952D01*
X13263314Y-15631476D01*
X13244267Y-15631476D01*
X13225219Y-15621952D01*
X13215695Y-15612428D01*
X13206171Y-15593381D01*
X13196648Y-15555286D01*
X13196648Y-15507667D01*
X13206171Y-15469571D01*
X13215695Y-15450524D01*
X13225219Y-15441000D01*
X13244267Y-15431476D01*
X13549028Y-15631476D02*
X13549028Y-15431476D01*
X13634743Y-15631476D02*
X13634743Y-15526714D01*
X13625219Y-15507667D01*
X13606171Y-15498143D01*
X13577600Y-15498143D01*
X13558552Y-15507667D01*
X13549028Y-15517190D01*
X13758552Y-15631476D02*
X13739505Y-15621952D01*
X13729981Y-15612428D01*
X13720457Y-15593381D01*
X13720457Y-15536238D01*
X13729981Y-15517190D01*
X13739505Y-15507667D01*
X13758552Y-15498143D01*
X13787124Y-15498143D01*
X13806171Y-15507667D01*
X13815695Y-15517190D01*
X13825219Y-15536238D01*
X13825219Y-15593381D01*
X13815695Y-15612428D01*
X13806171Y-15621952D01*
X13787124Y-15631476D01*
X13758552Y-15631476D01*
X13939505Y-15631476D02*
X13920457Y-15621952D01*
X13910933Y-15602905D01*
X13910933Y-15431476D01*
X14091886Y-15621952D02*
X14072838Y-15631476D01*
X14034743Y-15631476D01*
X14015695Y-15621952D01*
X14006171Y-15602905D01*
X14006171Y-15526714D01*
X14015695Y-15507667D01*
X14034743Y-15498143D01*
X14072838Y-15498143D01*
X14091886Y-15507667D01*
X14101409Y-15526714D01*
X14101409Y-15545762D01*
X14006171Y-15564809D01*
X14177600Y-15621952D02*
X14196648Y-15631476D01*
X14234743Y-15631476D01*
X14253790Y-15621952D01*
X14263314Y-15602905D01*
X14263314Y-15593381D01*
X14253790Y-15574333D01*
X14234743Y-15564809D01*
X14206171Y-15564809D01*
X14187124Y-15555286D01*
X14177600Y-15536238D01*
X14177600Y-15526714D01*
X14187124Y-15507667D01*
X14206171Y-15498143D01*
X14234743Y-15498143D01*
X14253790Y-15507667D01*
X14329981Y-15707667D02*
X14339505Y-15698143D01*
X14358552Y-15669571D01*
X14368076Y-15650524D01*
X14377600Y-15621952D01*
X14387124Y-15574333D01*
X14387124Y-15536238D01*
X14377600Y-15488619D01*
X14368076Y-15460048D01*
X14358552Y-15441000D01*
X14339505Y-15412428D01*
X14329981Y-15402905D01*
D19*
X9237600Y-15740000D02*
X9367600Y-15870000D01*
X9367600Y-15740000D02*
X9237600Y-15870000D01*
X9302600Y-15870000D02*
X9367600Y-15805000D01*
X9302600Y-15740000D01*
X9237600Y-15805000D01*
X9302600Y-15870000D01*
D11*
X9729981Y-15895476D02*
X9615695Y-15895476D01*
X9672838Y-15895476D02*
X9672838Y-15695476D01*
X9653790Y-15724048D01*
X9634743Y-15743095D01*
X9615695Y-15752619D01*
X9815695Y-15876428D02*
X9825219Y-15885952D01*
X9815695Y-15895476D01*
X9806171Y-15885952D01*
X9815695Y-15876428D01*
X9815695Y-15895476D01*
X9891886Y-15695476D02*
X10015695Y-15695476D01*
X9949029Y-15771667D01*
X9977600Y-15771667D01*
X9996648Y-15781190D01*
X10006171Y-15790714D01*
X10015695Y-15809762D01*
X10015695Y-15857381D01*
X10006171Y-15876428D01*
X9996648Y-15885952D01*
X9977600Y-15895476D01*
X9920457Y-15895476D01*
X9901410Y-15885952D01*
X9891886Y-15876428D01*
X10139505Y-15695476D02*
X10158552Y-15695476D01*
X10177600Y-15705000D01*
X10187124Y-15714524D01*
X10196648Y-15733571D01*
X10206171Y-15771667D01*
X10206171Y-15819286D01*
X10196648Y-15857381D01*
X10187124Y-15876428D01*
X10177600Y-15885952D01*
X10158552Y-15895476D01*
X10139505Y-15895476D01*
X10120457Y-15885952D01*
X10110933Y-15876428D01*
X10101410Y-15857381D01*
X10091886Y-15819286D01*
X10091886Y-15771667D01*
X10101410Y-15733571D01*
X10110933Y-15714524D01*
X10120457Y-15705000D01*
X10139505Y-15695476D01*
X10329981Y-15695476D02*
X10349029Y-15695476D01*
X10368076Y-15705000D01*
X10377600Y-15714524D01*
X10387124Y-15733571D01*
X10396648Y-15771667D01*
X10396648Y-15819286D01*
X10387124Y-15857381D01*
X10377600Y-15876428D01*
X10368076Y-15885952D01*
X10349029Y-15895476D01*
X10329981Y-15895476D01*
X10310933Y-15885952D01*
X10301410Y-15876428D01*
X10291886Y-15857381D01*
X10282362Y-15819286D01*
X10282362Y-15771667D01*
X10291886Y-15733571D01*
X10301410Y-15714524D01*
X10310933Y-15705000D01*
X10329981Y-15695476D01*
X10482362Y-15895476D02*
X10482362Y-15762143D01*
X10482362Y-15781190D02*
X10491886Y-15771667D01*
X10510933Y-15762143D01*
X10539505Y-15762143D01*
X10558552Y-15771667D01*
X10568076Y-15790714D01*
X10568076Y-15895476D01*
X10568076Y-15790714D02*
X10577600Y-15771667D01*
X10596648Y-15762143D01*
X10625219Y-15762143D01*
X10644267Y-15771667D01*
X10653790Y-15790714D01*
X10653790Y-15895476D01*
X10749029Y-15895476D02*
X10749029Y-15762143D01*
X10749029Y-15781190D02*
X10758552Y-15771667D01*
X10777600Y-15762143D01*
X10806171Y-15762143D01*
X10825219Y-15771667D01*
X10834743Y-15790714D01*
X10834743Y-15895476D01*
X10834743Y-15790714D02*
X10844267Y-15771667D01*
X10863314Y-15762143D01*
X10891886Y-15762143D01*
X10910933Y-15771667D01*
X10920457Y-15790714D01*
X10920457Y-15895476D01*
X11310933Y-15685952D02*
X11139505Y-15943095D01*
X11568076Y-15695476D02*
X11587124Y-15695476D01*
X11606171Y-15705000D01*
X11615695Y-15714524D01*
X11625219Y-15733571D01*
X11634743Y-15771667D01*
X11634743Y-15819286D01*
X11625219Y-15857381D01*
X11615695Y-15876428D01*
X11606171Y-15885952D01*
X11587124Y-15895476D01*
X11568076Y-15895476D01*
X11549028Y-15885952D01*
X11539505Y-15876428D01*
X11529981Y-15857381D01*
X11520457Y-15819286D01*
X11520457Y-15771667D01*
X11529981Y-15733571D01*
X11539505Y-15714524D01*
X11549028Y-15705000D01*
X11568076Y-15695476D01*
X11720457Y-15876428D02*
X11729981Y-15885952D01*
X11720457Y-15895476D01*
X11710933Y-15885952D01*
X11720457Y-15876428D01*
X11720457Y-15895476D01*
X11853790Y-15695476D02*
X11872838Y-15695476D01*
X11891886Y-15705000D01*
X11901409Y-15714524D01*
X11910933Y-15733571D01*
X11920457Y-15771667D01*
X11920457Y-15819286D01*
X11910933Y-15857381D01*
X11901409Y-15876428D01*
X11891886Y-15885952D01*
X11872838Y-15895476D01*
X11853790Y-15895476D01*
X11834743Y-15885952D01*
X11825219Y-15876428D01*
X11815695Y-15857381D01*
X11806171Y-15819286D01*
X11806171Y-15771667D01*
X11815695Y-15733571D01*
X11825219Y-15714524D01*
X11834743Y-15705000D01*
X11853790Y-15695476D01*
X12101409Y-15695476D02*
X12006171Y-15695476D01*
X11996648Y-15790714D01*
X12006171Y-15781190D01*
X12025219Y-15771667D01*
X12072838Y-15771667D01*
X12091886Y-15781190D01*
X12101409Y-15790714D01*
X12110933Y-15809762D01*
X12110933Y-15857381D01*
X12101409Y-15876428D01*
X12091886Y-15885952D01*
X12072838Y-15895476D01*
X12025219Y-15895476D01*
X12006171Y-15885952D01*
X11996648Y-15876428D01*
X12301409Y-15895476D02*
X12187124Y-15895476D01*
X12244267Y-15895476D02*
X12244267Y-15695476D01*
X12225219Y-15724048D01*
X12206171Y-15743095D01*
X12187124Y-15752619D01*
X12377600Y-15714524D02*
X12387124Y-15705000D01*
X12406171Y-15695476D01*
X12453790Y-15695476D01*
X12472838Y-15705000D01*
X12482362Y-15714524D01*
X12491886Y-15733571D01*
X12491886Y-15752619D01*
X12482362Y-15781190D01*
X12368076Y-15895476D01*
X12491886Y-15895476D01*
X12568076Y-15695476D02*
X12568076Y-15733571D01*
X12644267Y-15695476D02*
X12644267Y-15733571D01*
X12939505Y-15971667D02*
X12929981Y-15962143D01*
X12910933Y-15933571D01*
X12901409Y-15914524D01*
X12891886Y-15885952D01*
X12882362Y-15838333D01*
X12882362Y-15800238D01*
X12891886Y-15752619D01*
X12901409Y-15724048D01*
X12910933Y-15705000D01*
X12929981Y-15676428D01*
X12939505Y-15666905D01*
X13120457Y-15895476D02*
X13006171Y-15895476D01*
X13063314Y-15895476D02*
X13063314Y-15695476D01*
X13044267Y-15724048D01*
X13025219Y-15743095D01*
X13006171Y-15752619D01*
X13196648Y-15714524D02*
X13206171Y-15705000D01*
X13225219Y-15695476D01*
X13272838Y-15695476D01*
X13291886Y-15705000D01*
X13301409Y-15714524D01*
X13310933Y-15733571D01*
X13310933Y-15752619D01*
X13301409Y-15781190D01*
X13187124Y-15895476D01*
X13310933Y-15895476D01*
X13549028Y-15895476D02*
X13549028Y-15695476D01*
X13634743Y-15895476D02*
X13634743Y-15790714D01*
X13625219Y-15771667D01*
X13606171Y-15762143D01*
X13577600Y-15762143D01*
X13558552Y-15771667D01*
X13549028Y-15781190D01*
X13758552Y-15895476D02*
X13739505Y-15885952D01*
X13729981Y-15876428D01*
X13720457Y-15857381D01*
X13720457Y-15800238D01*
X13729981Y-15781190D01*
X13739505Y-15771667D01*
X13758552Y-15762143D01*
X13787124Y-15762143D01*
X13806171Y-15771667D01*
X13815695Y-15781190D01*
X13825219Y-15800238D01*
X13825219Y-15857381D01*
X13815695Y-15876428D01*
X13806171Y-15885952D01*
X13787124Y-15895476D01*
X13758552Y-15895476D01*
X13939505Y-15895476D02*
X13920457Y-15885952D01*
X13910933Y-15866905D01*
X13910933Y-15695476D01*
X14091886Y-15885952D02*
X14072838Y-15895476D01*
X14034743Y-15895476D01*
X14015695Y-15885952D01*
X14006171Y-15866905D01*
X14006171Y-15790714D01*
X14015695Y-15771667D01*
X14034743Y-15762143D01*
X14072838Y-15762143D01*
X14091886Y-15771667D01*
X14101409Y-15790714D01*
X14101409Y-15809762D01*
X14006171Y-15828809D01*
X14177600Y-15885952D02*
X14196648Y-15895476D01*
X14234743Y-15895476D01*
X14253790Y-15885952D01*
X14263314Y-15866905D01*
X14263314Y-15857381D01*
X14253790Y-15838333D01*
X14234743Y-15828809D01*
X14206171Y-15828809D01*
X14187124Y-15819286D01*
X14177600Y-15800238D01*
X14177600Y-15790714D01*
X14187124Y-15771667D01*
X14206171Y-15762143D01*
X14234743Y-15762143D01*
X14253790Y-15771667D01*
X14329981Y-15971667D02*
X14339505Y-15962143D01*
X14358552Y-15933571D01*
X14368076Y-15914524D01*
X14377600Y-15885952D01*
X14387124Y-15838333D01*
X14387124Y-15800238D01*
X14377600Y-15752619D01*
X14368076Y-15724048D01*
X14358552Y-15705000D01*
X14339505Y-15676428D01*
X14329981Y-15666905D01*
D20*
X9282600Y-15984000D02*
X9282600Y-16154000D01*
X9197600Y-16069000D02*
X9367600Y-16069000D01*
X9367600Y-16069000D02*
G75*
G03*
X9367600Y-16069000I-85000J0D01*
G01*
D11*
X9729981Y-16159476D02*
X9615695Y-16159476D01*
X9672838Y-16159476D02*
X9672838Y-15959476D01*
X9653790Y-15988048D01*
X9634743Y-16007095D01*
X9615695Y-16016619D01*
X9815695Y-16140428D02*
X9825219Y-16149952D01*
X9815695Y-16159476D01*
X9806171Y-16149952D01*
X9815695Y-16140428D01*
X9815695Y-16159476D01*
X9891886Y-15959476D02*
X10025219Y-15959476D01*
X9939505Y-16159476D01*
X10139505Y-15959476D02*
X10158552Y-15959476D01*
X10177600Y-15969000D01*
X10187124Y-15978524D01*
X10196648Y-15997571D01*
X10206171Y-16035667D01*
X10206171Y-16083286D01*
X10196648Y-16121381D01*
X10187124Y-16140428D01*
X10177600Y-16149952D01*
X10158552Y-16159476D01*
X10139505Y-16159476D01*
X10120457Y-16149952D01*
X10110933Y-16140428D01*
X10101410Y-16121381D01*
X10091886Y-16083286D01*
X10091886Y-16035667D01*
X10101410Y-15997571D01*
X10110933Y-15978524D01*
X10120457Y-15969000D01*
X10139505Y-15959476D01*
X10329981Y-15959476D02*
X10349029Y-15959476D01*
X10368076Y-15969000D01*
X10377600Y-15978524D01*
X10387124Y-15997571D01*
X10396648Y-16035667D01*
X10396648Y-16083286D01*
X10387124Y-16121381D01*
X10377600Y-16140428D01*
X10368076Y-16149952D01*
X10349029Y-16159476D01*
X10329981Y-16159476D01*
X10310933Y-16149952D01*
X10301410Y-16140428D01*
X10291886Y-16121381D01*
X10282362Y-16083286D01*
X10282362Y-16035667D01*
X10291886Y-15997571D01*
X10301410Y-15978524D01*
X10310933Y-15969000D01*
X10329981Y-15959476D01*
X10482362Y-16159476D02*
X10482362Y-16026143D01*
X10482362Y-16045190D02*
X10491886Y-16035667D01*
X10510933Y-16026143D01*
X10539505Y-16026143D01*
X10558552Y-16035667D01*
X10568076Y-16054714D01*
X10568076Y-16159476D01*
X10568076Y-16054714D02*
X10577600Y-16035667D01*
X10596648Y-16026143D01*
X10625219Y-16026143D01*
X10644267Y-16035667D01*
X10653790Y-16054714D01*
X10653790Y-16159476D01*
X10749029Y-16159476D02*
X10749029Y-16026143D01*
X10749029Y-16045190D02*
X10758552Y-16035667D01*
X10777600Y-16026143D01*
X10806171Y-16026143D01*
X10825219Y-16035667D01*
X10834743Y-16054714D01*
X10834743Y-16159476D01*
X10834743Y-16054714D02*
X10844267Y-16035667D01*
X10863314Y-16026143D01*
X10891886Y-16026143D01*
X10910933Y-16035667D01*
X10920457Y-16054714D01*
X10920457Y-16159476D01*
X11310933Y-15949952D02*
X11139505Y-16207095D01*
X11568076Y-15959476D02*
X11587124Y-15959476D01*
X11606171Y-15969000D01*
X11615695Y-15978524D01*
X11625219Y-15997571D01*
X11634743Y-16035667D01*
X11634743Y-16083286D01*
X11625219Y-16121381D01*
X11615695Y-16140428D01*
X11606171Y-16149952D01*
X11587124Y-16159476D01*
X11568076Y-16159476D01*
X11549028Y-16149952D01*
X11539505Y-16140428D01*
X11529981Y-16121381D01*
X11520457Y-16083286D01*
X11520457Y-16035667D01*
X11529981Y-15997571D01*
X11539505Y-15978524D01*
X11549028Y-15969000D01*
X11568076Y-15959476D01*
X11720457Y-16140428D02*
X11729981Y-16149952D01*
X11720457Y-16159476D01*
X11710933Y-16149952D01*
X11720457Y-16140428D01*
X11720457Y-16159476D01*
X11853790Y-15959476D02*
X11872838Y-15959476D01*
X11891886Y-15969000D01*
X11901409Y-15978524D01*
X11910933Y-15997571D01*
X11920457Y-16035667D01*
X11920457Y-16083286D01*
X11910933Y-16121381D01*
X11901409Y-16140428D01*
X11891886Y-16149952D01*
X11872838Y-16159476D01*
X11853790Y-16159476D01*
X11834743Y-16149952D01*
X11825219Y-16140428D01*
X11815695Y-16121381D01*
X11806171Y-16083286D01*
X11806171Y-16035667D01*
X11815695Y-15997571D01*
X11825219Y-15978524D01*
X11834743Y-15969000D01*
X11853790Y-15959476D01*
X12091886Y-15959476D02*
X12053790Y-15959476D01*
X12034743Y-15969000D01*
X12025219Y-15978524D01*
X12006171Y-16007095D01*
X11996648Y-16045190D01*
X11996648Y-16121381D01*
X12006171Y-16140428D01*
X12015695Y-16149952D01*
X12034743Y-16159476D01*
X12072838Y-16159476D01*
X12091886Y-16149952D01*
X12101409Y-16140428D01*
X12110933Y-16121381D01*
X12110933Y-16073762D01*
X12101409Y-16054714D01*
X12091886Y-16045190D01*
X12072838Y-16035667D01*
X12034743Y-16035667D01*
X12015695Y-16045190D01*
X12006171Y-16054714D01*
X11996648Y-16073762D01*
X12282362Y-15959476D02*
X12244267Y-15959476D01*
X12225219Y-15969000D01*
X12215695Y-15978524D01*
X12196648Y-16007095D01*
X12187124Y-16045190D01*
X12187124Y-16121381D01*
X12196648Y-16140428D01*
X12206171Y-16149952D01*
X12225219Y-16159476D01*
X12263314Y-16159476D01*
X12282362Y-16149952D01*
X12291886Y-16140428D01*
X12301409Y-16121381D01*
X12301409Y-16073762D01*
X12291886Y-16054714D01*
X12282362Y-16045190D01*
X12263314Y-16035667D01*
X12225219Y-16035667D01*
X12206171Y-16045190D01*
X12196648Y-16054714D01*
X12187124Y-16073762D01*
X12396648Y-16159476D02*
X12434743Y-16159476D01*
X12453790Y-16149952D01*
X12463314Y-16140428D01*
X12482362Y-16111857D01*
X12491886Y-16073762D01*
X12491886Y-15997571D01*
X12482362Y-15978524D01*
X12472838Y-15969000D01*
X12453790Y-15959476D01*
X12415695Y-15959476D01*
X12396648Y-15969000D01*
X12387124Y-15978524D01*
X12377600Y-15997571D01*
X12377600Y-16045190D01*
X12387124Y-16064238D01*
X12396648Y-16073762D01*
X12415695Y-16083286D01*
X12453790Y-16083286D01*
X12472838Y-16073762D01*
X12482362Y-16064238D01*
X12491886Y-16045190D01*
X12568076Y-15959476D02*
X12568076Y-15997571D01*
X12644267Y-15959476D02*
X12644267Y-15997571D01*
X12939505Y-16235667D02*
X12929981Y-16226143D01*
X12910933Y-16197571D01*
X12901409Y-16178524D01*
X12891886Y-16149952D01*
X12882362Y-16102333D01*
X12882362Y-16064238D01*
X12891886Y-16016619D01*
X12901409Y-15988048D01*
X12910933Y-15969000D01*
X12929981Y-15940428D01*
X12939505Y-15930905D01*
X13006171Y-15978524D02*
X13015695Y-15969000D01*
X13034743Y-15959476D01*
X13082362Y-15959476D01*
X13101409Y-15969000D01*
X13110933Y-15978524D01*
X13120457Y-15997571D01*
X13120457Y-16016619D01*
X13110933Y-16045190D01*
X12996648Y-16159476D01*
X13120457Y-16159476D01*
X13358552Y-16159476D02*
X13358552Y-15959476D01*
X13444267Y-16159476D02*
X13444267Y-16054714D01*
X13434743Y-16035667D01*
X13415695Y-16026143D01*
X13387124Y-16026143D01*
X13368076Y-16035667D01*
X13358552Y-16045190D01*
X13568076Y-16159476D02*
X13549028Y-16149952D01*
X13539505Y-16140428D01*
X13529981Y-16121381D01*
X13529981Y-16064238D01*
X13539505Y-16045190D01*
X13549028Y-16035667D01*
X13568076Y-16026143D01*
X13596648Y-16026143D01*
X13615695Y-16035667D01*
X13625219Y-16045190D01*
X13634743Y-16064238D01*
X13634743Y-16121381D01*
X13625219Y-16140428D01*
X13615695Y-16149952D01*
X13596648Y-16159476D01*
X13568076Y-16159476D01*
X13749028Y-16159476D02*
X13729981Y-16149952D01*
X13720457Y-16130905D01*
X13720457Y-15959476D01*
X13901409Y-16149952D02*
X13882362Y-16159476D01*
X13844267Y-16159476D01*
X13825219Y-16149952D01*
X13815695Y-16130905D01*
X13815695Y-16054714D01*
X13825219Y-16035667D01*
X13844267Y-16026143D01*
X13882362Y-16026143D01*
X13901409Y-16035667D01*
X13910933Y-16054714D01*
X13910933Y-16073762D01*
X13815695Y-16092809D01*
X13987124Y-16149952D02*
X14006171Y-16159476D01*
X14044267Y-16159476D01*
X14063314Y-16149952D01*
X14072838Y-16130905D01*
X14072838Y-16121381D01*
X14063314Y-16102333D01*
X14044267Y-16092809D01*
X14015695Y-16092809D01*
X13996648Y-16083286D01*
X13987124Y-16064238D01*
X13987124Y-16054714D01*
X13996648Y-16035667D01*
X14015695Y-16026143D01*
X14044267Y-16026143D01*
X14063314Y-16035667D01*
X14139505Y-16235667D02*
X14149028Y-16226143D01*
X14168076Y-16197571D01*
X14177600Y-16178524D01*
X14187124Y-16149952D01*
X14196648Y-16102333D01*
X14196648Y-16064238D01*
X14187124Y-16016619D01*
X14177600Y-15988048D01*
X14168076Y-15969000D01*
X14149028Y-15940428D01*
X14139505Y-15930905D01*
X9338311Y-16429711D02*
X9338311Y-16288289D01*
X9196889Y-16288289D01*
X9196889Y-16429711D01*
X9338311Y-16429711D01*
X9367600Y-16359000D02*
G75*
G03*
X9367600Y-16359000I-100000J0D01*
G01*
X9615695Y-16268524D02*
X9625219Y-16259000D01*
X9644267Y-16249476D01*
X9691886Y-16249476D01*
X9710933Y-16259000D01*
X9720457Y-16268524D01*
X9729981Y-16287571D01*
X9729981Y-16306619D01*
X9720457Y-16335190D01*
X9606171Y-16449476D01*
X9729981Y-16449476D01*
X9815695Y-16430428D02*
X9825219Y-16439952D01*
X9815695Y-16449476D01*
X9806171Y-16439952D01*
X9815695Y-16430428D01*
X9815695Y-16449476D01*
X9996648Y-16316143D02*
X9996648Y-16449476D01*
X9949029Y-16239952D02*
X9901410Y-16382809D01*
X10025219Y-16382809D01*
X10187124Y-16316143D02*
X10187124Y-16449476D01*
X10139505Y-16239952D02*
X10091886Y-16382809D01*
X10215695Y-16382809D01*
X10329981Y-16249476D02*
X10349029Y-16249476D01*
X10368076Y-16259000D01*
X10377600Y-16268524D01*
X10387124Y-16287571D01*
X10396648Y-16325667D01*
X10396648Y-16373286D01*
X10387124Y-16411381D01*
X10377600Y-16430428D01*
X10368076Y-16439952D01*
X10349029Y-16449476D01*
X10329981Y-16449476D01*
X10310933Y-16439952D01*
X10301410Y-16430428D01*
X10291886Y-16411381D01*
X10282362Y-16373286D01*
X10282362Y-16325667D01*
X10291886Y-16287571D01*
X10301410Y-16268524D01*
X10310933Y-16259000D01*
X10329981Y-16249476D01*
X10482362Y-16449476D02*
X10482362Y-16316143D01*
X10482362Y-16335190D02*
X10491886Y-16325667D01*
X10510933Y-16316143D01*
X10539505Y-16316143D01*
X10558552Y-16325667D01*
X10568076Y-16344714D01*
X10568076Y-16449476D01*
X10568076Y-16344714D02*
X10577600Y-16325667D01*
X10596648Y-16316143D01*
X10625219Y-16316143D01*
X10644267Y-16325667D01*
X10653790Y-16344714D01*
X10653790Y-16449476D01*
X10749029Y-16449476D02*
X10749029Y-16316143D01*
X10749029Y-16335190D02*
X10758552Y-16325667D01*
X10777600Y-16316143D01*
X10806171Y-16316143D01*
X10825219Y-16325667D01*
X10834743Y-16344714D01*
X10834743Y-16449476D01*
X10834743Y-16344714D02*
X10844267Y-16325667D01*
X10863314Y-16316143D01*
X10891886Y-16316143D01*
X10910933Y-16325667D01*
X10920457Y-16344714D01*
X10920457Y-16449476D01*
X11310933Y-16239952D02*
X11139505Y-16497095D01*
X11568076Y-16249476D02*
X11587124Y-16249476D01*
X11606171Y-16259000D01*
X11615695Y-16268524D01*
X11625219Y-16287571D01*
X11634743Y-16325667D01*
X11634743Y-16373286D01*
X11625219Y-16411381D01*
X11615695Y-16430428D01*
X11606171Y-16439952D01*
X11587124Y-16449476D01*
X11568076Y-16449476D01*
X11549028Y-16439952D01*
X11539505Y-16430428D01*
X11529981Y-16411381D01*
X11520457Y-16373286D01*
X11520457Y-16325667D01*
X11529981Y-16287571D01*
X11539505Y-16268524D01*
X11549028Y-16259000D01*
X11568076Y-16249476D01*
X11720457Y-16430428D02*
X11729981Y-16439952D01*
X11720457Y-16449476D01*
X11710933Y-16439952D01*
X11720457Y-16430428D01*
X11720457Y-16449476D01*
X11853790Y-16249476D02*
X11872838Y-16249476D01*
X11891886Y-16259000D01*
X11901409Y-16268524D01*
X11910933Y-16287571D01*
X11920457Y-16325667D01*
X11920457Y-16373286D01*
X11910933Y-16411381D01*
X11901409Y-16430428D01*
X11891886Y-16439952D01*
X11872838Y-16449476D01*
X11853790Y-16449476D01*
X11834743Y-16439952D01*
X11825219Y-16430428D01*
X11815695Y-16411381D01*
X11806171Y-16373286D01*
X11806171Y-16325667D01*
X11815695Y-16287571D01*
X11825219Y-16268524D01*
X11834743Y-16259000D01*
X11853790Y-16249476D01*
X12015695Y-16449476D02*
X12053790Y-16449476D01*
X12072838Y-16439952D01*
X12082362Y-16430428D01*
X12101409Y-16401857D01*
X12110933Y-16363762D01*
X12110933Y-16287571D01*
X12101409Y-16268524D01*
X12091886Y-16259000D01*
X12072838Y-16249476D01*
X12034743Y-16249476D01*
X12015695Y-16259000D01*
X12006171Y-16268524D01*
X11996648Y-16287571D01*
X11996648Y-16335190D01*
X12006171Y-16354238D01*
X12015695Y-16363762D01*
X12034743Y-16373286D01*
X12072838Y-16373286D01*
X12091886Y-16363762D01*
X12101409Y-16354238D01*
X12110933Y-16335190D01*
X12282362Y-16249476D02*
X12244267Y-16249476D01*
X12225219Y-16259000D01*
X12215695Y-16268524D01*
X12196648Y-16297095D01*
X12187124Y-16335190D01*
X12187124Y-16411381D01*
X12196648Y-16430428D01*
X12206171Y-16439952D01*
X12225219Y-16449476D01*
X12263314Y-16449476D01*
X12282362Y-16439952D01*
X12291886Y-16430428D01*
X12301409Y-16411381D01*
X12301409Y-16363762D01*
X12291886Y-16344714D01*
X12282362Y-16335190D01*
X12263314Y-16325667D01*
X12225219Y-16325667D01*
X12206171Y-16335190D01*
X12196648Y-16344714D01*
X12187124Y-16363762D01*
X12491886Y-16449476D02*
X12377600Y-16449476D01*
X12434743Y-16449476D02*
X12434743Y-16249476D01*
X12415695Y-16278048D01*
X12396648Y-16297095D01*
X12377600Y-16306619D01*
X12568076Y-16249476D02*
X12568076Y-16287571D01*
X12644267Y-16249476D02*
X12644267Y-16287571D01*
X12939505Y-16525667D02*
X12929981Y-16516143D01*
X12910933Y-16487571D01*
X12901409Y-16468524D01*
X12891886Y-16439952D01*
X12882362Y-16392333D01*
X12882362Y-16354238D01*
X12891886Y-16306619D01*
X12901409Y-16278048D01*
X12910933Y-16259000D01*
X12929981Y-16230428D01*
X12939505Y-16220905D01*
X13006171Y-16268524D02*
X13015695Y-16259000D01*
X13034743Y-16249476D01*
X13082362Y-16249476D01*
X13101409Y-16259000D01*
X13110933Y-16268524D01*
X13120457Y-16287571D01*
X13120457Y-16306619D01*
X13110933Y-16335190D01*
X12996648Y-16449476D01*
X13120457Y-16449476D01*
X13358552Y-16449476D02*
X13358552Y-16249476D01*
X13444267Y-16449476D02*
X13444267Y-16344714D01*
X13434743Y-16325667D01*
X13415695Y-16316143D01*
X13387124Y-16316143D01*
X13368076Y-16325667D01*
X13358552Y-16335190D01*
X13568076Y-16449476D02*
X13549028Y-16439952D01*
X13539505Y-16430428D01*
X13529981Y-16411381D01*
X13529981Y-16354238D01*
X13539505Y-16335190D01*
X13549028Y-16325667D01*
X13568076Y-16316143D01*
X13596648Y-16316143D01*
X13615695Y-16325667D01*
X13625219Y-16335190D01*
X13634743Y-16354238D01*
X13634743Y-16411381D01*
X13625219Y-16430428D01*
X13615695Y-16439952D01*
X13596648Y-16449476D01*
X13568076Y-16449476D01*
X13749028Y-16449476D02*
X13729981Y-16439952D01*
X13720457Y-16420905D01*
X13720457Y-16249476D01*
X13901409Y-16439952D02*
X13882362Y-16449476D01*
X13844267Y-16449476D01*
X13825219Y-16439952D01*
X13815695Y-16420905D01*
X13815695Y-16344714D01*
X13825219Y-16325667D01*
X13844267Y-16316143D01*
X13882362Y-16316143D01*
X13901409Y-16325667D01*
X13910933Y-16344714D01*
X13910933Y-16363762D01*
X13815695Y-16382809D01*
X13987124Y-16439952D02*
X14006171Y-16449476D01*
X14044267Y-16449476D01*
X14063314Y-16439952D01*
X14072838Y-16420905D01*
X14072838Y-16411381D01*
X14063314Y-16392333D01*
X14044267Y-16382809D01*
X14015695Y-16382809D01*
X13996648Y-16373286D01*
X13987124Y-16354238D01*
X13987124Y-16344714D01*
X13996648Y-16325667D01*
X14015695Y-16316143D01*
X14044267Y-16316143D01*
X14063314Y-16325667D01*
X14139505Y-16525667D02*
X14149028Y-16516143D01*
X14168076Y-16487571D01*
X14177600Y-16468524D01*
X14187124Y-16439952D01*
X14196648Y-16392333D01*
X14196648Y-16354238D01*
X14187124Y-16306619D01*
X14177600Y-16278048D01*
X14168076Y-16259000D01*
X14149028Y-16230428D01*
X14139505Y-16220905D01*
X9267600Y-16779000D02*
X9367600Y-16679000D01*
X9267600Y-16579000D01*
X9167600Y-16679000D01*
X9267600Y-16779000D01*
X9367600Y-16679000D02*
G75*
G03*
X9367600Y-16679000I-100000J0D01*
G01*
X9606171Y-16569476D02*
X9729981Y-16569476D01*
X9663314Y-16645667D01*
X9691886Y-16645667D01*
X9710933Y-16655190D01*
X9720457Y-16664714D01*
X9729981Y-16683762D01*
X9729981Y-16731381D01*
X9720457Y-16750428D01*
X9710933Y-16759952D01*
X9691886Y-16769476D01*
X9634743Y-16769476D01*
X9615695Y-16759952D01*
X9606171Y-16750428D01*
X9815695Y-16750428D02*
X9825219Y-16759952D01*
X9815695Y-16769476D01*
X9806171Y-16759952D01*
X9815695Y-16750428D01*
X9815695Y-16769476D01*
X9949029Y-16569476D02*
X9968076Y-16569476D01*
X9987124Y-16579000D01*
X9996648Y-16588524D01*
X10006171Y-16607571D01*
X10015695Y-16645667D01*
X10015695Y-16693286D01*
X10006171Y-16731381D01*
X9996648Y-16750428D01*
X9987124Y-16759952D01*
X9968076Y-16769476D01*
X9949029Y-16769476D01*
X9929981Y-16759952D01*
X9920457Y-16750428D01*
X9910933Y-16731381D01*
X9901410Y-16693286D01*
X9901410Y-16645667D01*
X9910933Y-16607571D01*
X9920457Y-16588524D01*
X9929981Y-16579000D01*
X9949029Y-16569476D01*
X10139505Y-16569476D02*
X10158552Y-16569476D01*
X10177600Y-16579000D01*
X10187124Y-16588524D01*
X10196648Y-16607571D01*
X10206171Y-16645667D01*
X10206171Y-16693286D01*
X10196648Y-16731381D01*
X10187124Y-16750428D01*
X10177600Y-16759952D01*
X10158552Y-16769476D01*
X10139505Y-16769476D01*
X10120457Y-16759952D01*
X10110933Y-16750428D01*
X10101410Y-16731381D01*
X10091886Y-16693286D01*
X10091886Y-16645667D01*
X10101410Y-16607571D01*
X10110933Y-16588524D01*
X10120457Y-16579000D01*
X10139505Y-16569476D01*
X10329981Y-16569476D02*
X10349029Y-16569476D01*
X10368076Y-16579000D01*
X10377600Y-16588524D01*
X10387124Y-16607571D01*
X10396648Y-16645667D01*
X10396648Y-16693286D01*
X10387124Y-16731381D01*
X10377600Y-16750428D01*
X10368076Y-16759952D01*
X10349029Y-16769476D01*
X10329981Y-16769476D01*
X10310933Y-16759952D01*
X10301410Y-16750428D01*
X10291886Y-16731381D01*
X10282362Y-16693286D01*
X10282362Y-16645667D01*
X10291886Y-16607571D01*
X10301410Y-16588524D01*
X10310933Y-16579000D01*
X10329981Y-16569476D01*
X10482362Y-16769476D02*
X10482362Y-16636143D01*
X10482362Y-16655190D02*
X10491886Y-16645667D01*
X10510933Y-16636143D01*
X10539505Y-16636143D01*
X10558552Y-16645667D01*
X10568076Y-16664714D01*
X10568076Y-16769476D01*
X10568076Y-16664714D02*
X10577600Y-16645667D01*
X10596648Y-16636143D01*
X10625219Y-16636143D01*
X10644267Y-16645667D01*
X10653790Y-16664714D01*
X10653790Y-16769476D01*
X10749029Y-16769476D02*
X10749029Y-16636143D01*
X10749029Y-16655190D02*
X10758552Y-16645667D01*
X10777600Y-16636143D01*
X10806171Y-16636143D01*
X10825219Y-16645667D01*
X10834743Y-16664714D01*
X10834743Y-16769476D01*
X10834743Y-16664714D02*
X10844267Y-16645667D01*
X10863314Y-16636143D01*
X10891886Y-16636143D01*
X10910933Y-16645667D01*
X10920457Y-16664714D01*
X10920457Y-16769476D01*
X11310933Y-16559952D02*
X11139505Y-16817095D01*
X11568076Y-16569476D02*
X11587124Y-16569476D01*
X11606171Y-16579000D01*
X11615695Y-16588524D01*
X11625219Y-16607571D01*
X11634743Y-16645667D01*
X11634743Y-16693286D01*
X11625219Y-16731381D01*
X11615695Y-16750428D01*
X11606171Y-16759952D01*
X11587124Y-16769476D01*
X11568076Y-16769476D01*
X11549028Y-16759952D01*
X11539505Y-16750428D01*
X11529981Y-16731381D01*
X11520457Y-16693286D01*
X11520457Y-16645667D01*
X11529981Y-16607571D01*
X11539505Y-16588524D01*
X11549028Y-16579000D01*
X11568076Y-16569476D01*
X11720457Y-16750428D02*
X11729981Y-16759952D01*
X11720457Y-16769476D01*
X11710933Y-16759952D01*
X11720457Y-16750428D01*
X11720457Y-16769476D01*
X11920457Y-16769476D02*
X11806171Y-16769476D01*
X11863314Y-16769476D02*
X11863314Y-16569476D01*
X11844267Y-16598048D01*
X11825219Y-16617095D01*
X11806171Y-16626619D01*
X12110933Y-16769476D02*
X11996648Y-16769476D01*
X12053790Y-16769476D02*
X12053790Y-16569476D01*
X12034743Y-16598048D01*
X12015695Y-16617095D01*
X11996648Y-16626619D01*
X12225219Y-16655190D02*
X12206171Y-16645667D01*
X12196648Y-16636143D01*
X12187124Y-16617095D01*
X12187124Y-16607571D01*
X12196648Y-16588524D01*
X12206171Y-16579000D01*
X12225219Y-16569476D01*
X12263314Y-16569476D01*
X12282362Y-16579000D01*
X12291886Y-16588524D01*
X12301409Y-16607571D01*
X12301409Y-16617095D01*
X12291886Y-16636143D01*
X12282362Y-16645667D01*
X12263314Y-16655190D01*
X12225219Y-16655190D01*
X12206171Y-16664714D01*
X12196648Y-16674238D01*
X12187124Y-16693286D01*
X12187124Y-16731381D01*
X12196648Y-16750428D01*
X12206171Y-16759952D01*
X12225219Y-16769476D01*
X12263314Y-16769476D01*
X12282362Y-16759952D01*
X12291886Y-16750428D01*
X12301409Y-16731381D01*
X12301409Y-16693286D01*
X12291886Y-16674238D01*
X12282362Y-16664714D01*
X12263314Y-16655190D01*
X12491886Y-16769476D02*
X12377600Y-16769476D01*
X12434743Y-16769476D02*
X12434743Y-16569476D01*
X12415695Y-16598048D01*
X12396648Y-16617095D01*
X12377600Y-16626619D01*
X12568076Y-16569476D02*
X12568076Y-16607571D01*
X12644267Y-16569476D02*
X12644267Y-16607571D01*
X12939505Y-16845667D02*
X12929981Y-16836143D01*
X12910933Y-16807571D01*
X12901409Y-16788524D01*
X12891886Y-16759952D01*
X12882362Y-16712333D01*
X12882362Y-16674238D01*
X12891886Y-16626619D01*
X12901409Y-16598048D01*
X12910933Y-16579000D01*
X12929981Y-16550428D01*
X12939505Y-16540905D01*
X13101409Y-16636143D02*
X13101409Y-16769476D01*
X13053790Y-16559952D02*
X13006171Y-16702809D01*
X13129981Y-16702809D01*
X13358552Y-16769476D02*
X13358552Y-16569476D01*
X13444267Y-16769476D02*
X13444267Y-16664714D01*
X13434743Y-16645667D01*
X13415695Y-16636143D01*
X13387124Y-16636143D01*
X13368076Y-16645667D01*
X13358552Y-16655190D01*
X13568076Y-16769476D02*
X13549028Y-16759952D01*
X13539505Y-16750428D01*
X13529981Y-16731381D01*
X13529981Y-16674238D01*
X13539505Y-16655190D01*
X13549028Y-16645667D01*
X13568076Y-16636143D01*
X13596648Y-16636143D01*
X13615695Y-16645667D01*
X13625219Y-16655190D01*
X13634743Y-16674238D01*
X13634743Y-16731381D01*
X13625219Y-16750428D01*
X13615695Y-16759952D01*
X13596648Y-16769476D01*
X13568076Y-16769476D01*
X13749028Y-16769476D02*
X13729981Y-16759952D01*
X13720457Y-16740905D01*
X13720457Y-16569476D01*
X13901409Y-16759952D02*
X13882362Y-16769476D01*
X13844267Y-16769476D01*
X13825219Y-16759952D01*
X13815695Y-16740905D01*
X13815695Y-16664714D01*
X13825219Y-16645667D01*
X13844267Y-16636143D01*
X13882362Y-16636143D01*
X13901409Y-16645667D01*
X13910933Y-16664714D01*
X13910933Y-16683762D01*
X13815695Y-16702809D01*
X13987124Y-16759952D02*
X14006171Y-16769476D01*
X14044267Y-16769476D01*
X14063314Y-16759952D01*
X14072838Y-16740905D01*
X14072838Y-16731381D01*
X14063314Y-16712333D01*
X14044267Y-16702809D01*
X14015695Y-16702809D01*
X13996648Y-16693286D01*
X13987124Y-16674238D01*
X13987124Y-16664714D01*
X13996648Y-16645667D01*
X14015695Y-16636143D01*
X14044267Y-16636143D01*
X14063314Y-16645667D01*
X14139505Y-16845667D02*
X14149028Y-16836143D01*
X14168076Y-16807571D01*
X14177600Y-16788524D01*
X14187124Y-16759952D01*
X14196648Y-16712333D01*
X14196648Y-16674238D01*
X14187124Y-16626619D01*
X14177600Y-16598048D01*
X14168076Y-16579000D01*
X14149028Y-16550428D01*
X14139505Y-16540905D01*
M02*
