%TF.GenerationSoftware,KiCad,Pcbnew,(6.0.8)*%
%TF.CreationDate,2023-07-19T02:04:09+05:30*%
%TF.ProjectId,STM32DryerPCB_V2,53544d33-3244-4727-9965-725043425f56,rev?*%
%TF.SameCoordinates,Original*%
%TF.FileFunction,Legend,Bot*%
%TF.FilePolarity,Positive*%
%FSLAX46Y46*%
G04 Gerber Fmt 4.6, Leading zero omitted, Abs format (unit mm)*
G04 Created by KiCad (PCBNEW (6.0.8)) date 2023-07-19 02:04:09*
%MOMM*%
%LPD*%
G01*
G04 APERTURE LIST*
%ADD10C,0.150000*%
%ADD11C,0.120000*%
G04 APERTURE END LIST*
D10*
%TO.C,J8*%
X120261580Y-127276266D02*
X120975866Y-127276266D01*
X121118723Y-127228647D01*
X121213961Y-127133409D01*
X121261580Y-126990552D01*
X121261580Y-126895314D01*
X120690152Y-127895314D02*
X120642533Y-127800076D01*
X120594914Y-127752457D01*
X120499676Y-127704838D01*
X120452057Y-127704838D01*
X120356819Y-127752457D01*
X120309200Y-127800076D01*
X120261580Y-127895314D01*
X120261580Y-128085790D01*
X120309200Y-128181028D01*
X120356819Y-128228647D01*
X120452057Y-128276266D01*
X120499676Y-128276266D01*
X120594914Y-128228647D01*
X120642533Y-128181028D01*
X120690152Y-128085790D01*
X120690152Y-127895314D01*
X120737771Y-127800076D01*
X120785390Y-127752457D01*
X120880628Y-127704838D01*
X121071104Y-127704838D01*
X121166342Y-127752457D01*
X121213961Y-127800076D01*
X121261580Y-127895314D01*
X121261580Y-128085790D01*
X121213961Y-128181028D01*
X121166342Y-128228647D01*
X121071104Y-128276266D01*
X120880628Y-128276266D01*
X120785390Y-128228647D01*
X120737771Y-128181028D01*
X120690152Y-128085790D01*
D11*
X124409200Y-128939600D02*
X134629200Y-128939600D01*
X121809200Y-126279600D02*
X121809200Y-127609600D01*
X124409200Y-126279600D02*
X134629200Y-126279600D01*
X134629200Y-126279600D02*
X134629200Y-128939600D01*
X124409200Y-126279600D02*
X124409200Y-128939600D01*
X123139200Y-126279600D02*
X121809200Y-126279600D01*
%TO.C,J2*%
X177698400Y-34807200D02*
X179028400Y-34807200D01*
X138268400Y-34807200D02*
X138268400Y-32147200D01*
X179028400Y-34807200D02*
X179028400Y-33477200D01*
X176428400Y-34807200D02*
X138268400Y-34807200D01*
X176428400Y-34807200D02*
X176428400Y-32147200D01*
X176428400Y-32147200D02*
X138268400Y-32147200D01*
%TD*%
M02*
