%TF.GenerationSoftware,KiCad,Pcbnew,(6.0.8)*%
%TF.CreationDate,2023-07-19T02:04:08+05:30*%
%TF.ProjectId,STM32DryerPCB_V2,53544d33-3244-4727-9965-725043425f56,rev?*%
%TF.SameCoordinates,Original*%
%TF.FileFunction,Copper,L1,Top*%
%TF.FilePolarity,Positive*%
%FSLAX46Y46*%
G04 Gerber Fmt 4.6, Leading zero omitted, Abs format (unit mm)*
G04 Created by KiCad (PCBNEW (6.0.8)) date 2023-07-19 02:04:08*
%MOMM*%
%LPD*%
G01*
G04 APERTURE LIST*
G04 Aperture macros list*
%AMRoundRect*
0 Rectangle with rounded corners*
0 $1 Rounding radius*
0 $2 $3 $4 $5 $6 $7 $8 $9 X,Y pos of 4 corners*
0 Add a 4 corners polygon primitive as box body*
4,1,4,$2,$3,$4,$5,$6,$7,$8,$9,$2,$3,0*
0 Add four circle primitives for the rounded corners*
1,1,$1+$1,$2,$3*
1,1,$1+$1,$4,$5*
1,1,$1+$1,$6,$7*
1,1,$1+$1,$8,$9*
0 Add four rect primitives between the rounded corners*
20,1,$1+$1,$2,$3,$4,$5,0*
20,1,$1+$1,$4,$5,$6,$7,0*
20,1,$1+$1,$6,$7,$8,$9,0*
20,1,$1+$1,$8,$9,$2,$3,0*%
G04 Aperture macros list end*
%TA.AperFunction,ComponentPad*%
%ADD10R,1.700000X1.700000*%
%TD*%
%TA.AperFunction,ComponentPad*%
%ADD11O,1.700000X1.700000*%
%TD*%
%TA.AperFunction,ComponentPad*%
%ADD12C,1.600000*%
%TD*%
%TA.AperFunction,ComponentPad*%
%ADD13R,2.000000X2.000000*%
%TD*%
%TA.AperFunction,ComponentPad*%
%ADD14C,2.000000*%
%TD*%
%TA.AperFunction,ComponentPad*%
%ADD15C,2.400000*%
%TD*%
%TA.AperFunction,ComponentPad*%
%ADD16R,2.200000X2.200000*%
%TD*%
%TA.AperFunction,ComponentPad*%
%ADD17O,2.200000X2.200000*%
%TD*%
%TA.AperFunction,ComponentPad*%
%ADD18O,1.600000X1.600000*%
%TD*%
%TA.AperFunction,ComponentPad*%
%ADD19R,1.800000X1.800000*%
%TD*%
%TA.AperFunction,ComponentPad*%
%ADD20C,1.800000*%
%TD*%
%TA.AperFunction,ComponentPad*%
%ADD21C,6.000000*%
%TD*%
%TA.AperFunction,SMDPad,CuDef*%
%ADD22R,2.900000X5.400000*%
%TD*%
%TA.AperFunction,ComponentPad*%
%ADD23O,1.800000X1.800000*%
%TD*%
%TA.AperFunction,ComponentPad*%
%ADD24R,2.400000X1.600000*%
%TD*%
%TA.AperFunction,ComponentPad*%
%ADD25O,2.400000X1.600000*%
%TD*%
%TA.AperFunction,ComponentPad*%
%ADD26R,1.600000X2.400000*%
%TD*%
%TA.AperFunction,ComponentPad*%
%ADD27O,1.600000X2.400000*%
%TD*%
%TA.AperFunction,ComponentPad*%
%ADD28RoundRect,0.875000X0.875000X-0.875000X0.875000X0.875000X-0.875000X0.875000X-0.875000X-0.875000X0*%
%TD*%
%TA.AperFunction,ComponentPad*%
%ADD29RoundRect,0.675000X0.675000X-0.675000X0.675000X0.675000X-0.675000X0.675000X-0.675000X-0.675000X0*%
%TD*%
%TA.AperFunction,ComponentPad*%
%ADD30C,3.500000*%
%TD*%
%TA.AperFunction,ComponentPad*%
%ADD31C,2.700000*%
%TD*%
%TA.AperFunction,ComponentPad*%
%ADD32C,1.500000*%
%TD*%
%TA.AperFunction,SMDPad,CuDef*%
%ADD33R,2.000000X1.500000*%
%TD*%
%TA.AperFunction,SMDPad,CuDef*%
%ADD34R,2.000000X3.800000*%
%TD*%
%TA.AperFunction,ComponentPad*%
%ADD35R,1.600000X1.600000*%
%TD*%
%TA.AperFunction,ComponentPad*%
%ADD36RoundRect,0.250000X-1.550000X0.650000X-1.550000X-0.650000X1.550000X-0.650000X1.550000X0.650000X0*%
%TD*%
%TA.AperFunction,ComponentPad*%
%ADD37O,3.600000X1.800000*%
%TD*%
%TA.AperFunction,SMDPad,CuDef*%
%ADD38RoundRect,0.075000X-0.662500X-0.075000X0.662500X-0.075000X0.662500X0.075000X-0.662500X0.075000X0*%
%TD*%
%TA.AperFunction,SMDPad,CuDef*%
%ADD39RoundRect,0.075000X-0.075000X-0.662500X0.075000X-0.662500X0.075000X0.662500X-0.075000X0.662500X0*%
%TD*%
%TA.AperFunction,ComponentPad*%
%ADD40R,1.500000X1.050000*%
%TD*%
%TA.AperFunction,ComponentPad*%
%ADD41O,1.500000X1.050000*%
%TD*%
%TA.AperFunction,ComponentPad*%
%ADD42C,1.440000*%
%TD*%
%TA.AperFunction,ComponentPad*%
%ADD43RoundRect,0.250000X1.550000X-0.650000X1.550000X0.650000X-1.550000X0.650000X-1.550000X-0.650000X0*%
%TD*%
%TA.AperFunction,SMDPad,CuDef*%
%ADD44R,1.100000X4.600000*%
%TD*%
%TA.AperFunction,SMDPad,CuDef*%
%ADD45R,10.800000X9.400000*%
%TD*%
%TA.AperFunction,ComponentPad*%
%ADD46RoundRect,0.375000X-0.625000X0.375000X-0.625000X-0.375000X0.625000X-0.375000X0.625000X0.375000X0*%
%TD*%
%TA.AperFunction,ComponentPad*%
%ADD47O,2.000000X1.500000*%
%TD*%
%TA.AperFunction,SMDPad,CuDef*%
%ADD48RoundRect,0.150000X-0.825000X-0.150000X0.825000X-0.150000X0.825000X0.150000X-0.825000X0.150000X0*%
%TD*%
%TA.AperFunction,ViaPad*%
%ADD49C,0.800000*%
%TD*%
%TA.AperFunction,ViaPad*%
%ADD50C,1.000000*%
%TD*%
%TA.AperFunction,Conductor*%
%ADD51C,0.300000*%
%TD*%
%TA.AperFunction,Conductor*%
%ADD52C,0.500000*%
%TD*%
%TA.AperFunction,Conductor*%
%ADD53C,1.000000*%
%TD*%
%TA.AperFunction,Conductor*%
%ADD54C,1.500000*%
%TD*%
%TA.AperFunction,Conductor*%
%ADD55C,2.000000*%
%TD*%
%TA.AperFunction,Conductor*%
%ADD56C,0.250000*%
%TD*%
G04 APERTURE END LIST*
D10*
%TO.P,J5,1,Pin_1*%
%TO.N,+5V*%
X132150000Y-118590000D03*
D11*
%TO.P,J5,2,Pin_2*%
%TO.N,SWCLK*%
X132150000Y-116050000D03*
%TO.P,J5,3,Pin_3*%
%TO.N,SWDIO*%
X132150000Y-113510000D03*
%TO.P,J5,4,Pin_4*%
%TO.N,GND*%
X132150000Y-110970000D03*
%TD*%
D10*
%TO.P,J8,1,Pin_1*%
%TO.N,FN_KEY_SW_IN*%
X123139200Y-127609600D03*
D11*
%TO.P,J8,2,Pin_2*%
%TO.N,LOW_KEY_SW_IN*%
X125679200Y-127609600D03*
%TO.P,J8,3,Pin_3*%
%TO.N,HIGH_KEY_SW_IN*%
X128219200Y-127609600D03*
%TO.P,J8,4,Pin_4*%
%TO.N,MID_KEY_SW_IN*%
X130759200Y-127609600D03*
%TO.P,J8,5,Pin_5*%
%TO.N,+5V*%
X133299200Y-127609600D03*
%TD*%
D12*
%TO.P,RV2,1*%
%TO.N,LINE_IN*%
X177332000Y-95299400D03*
%TO.P,RV2,2*%
%TO.N,DRUM_RIGHT_LINE*%
X182332000Y-95299400D03*
%TD*%
%TO.P,RV4,1*%
%TO.N,LINE_IN*%
X177332000Y-58418600D03*
%TO.P,RV4,2*%
%TO.N,FAN_LINE*%
X182332000Y-58418600D03*
%TD*%
%TO.P,RV1,1*%
%TO.N,LINE_IN*%
X177332000Y-114705000D03*
%TO.P,RV1,2*%
%TO.N,DRUM_LEFT_LINE*%
X182332000Y-114705000D03*
%TD*%
%TO.P,RV5,1*%
%TO.N,LINE_IN*%
X177332000Y-76452600D03*
%TO.P,RV5,2*%
%TO.N,HEATER_LINE*%
X182332000Y-76452600D03*
%TD*%
D13*
%TO.P,U19,1*%
%TO.N,Net-(D12-Pad2)*%
X157609600Y-64249000D03*
D14*
%TO.P,U19,2*%
%TO.N,VCC*%
X161359600Y-64249000D03*
D15*
%TO.P,U19,3*%
%TO.N,unconnected-(U19-Pad3)*%
X172609600Y-64249000D03*
%TO.P,U19,4*%
%TO.N,LINE_IN*%
X177609600Y-64249000D03*
%TO.P,U19,5*%
%TO.N,FAN_LINE*%
X182609600Y-64249000D03*
%TD*%
D12*
%TO.P,C3,1*%
%TO.N,+3.3V*%
X125058800Y-72821800D03*
%TO.P,C3,2*%
%TO.N,GND*%
X130058800Y-72821800D03*
%TD*%
D16*
%TO.P,D2,1,K*%
%TO.N,Net-(D1-Pad2)*%
X104394000Y-32258000D03*
D17*
%TO.P,D2,2,A*%
%TO.N,GND*%
X104394000Y-42418000D03*
%TD*%
D12*
%TO.P,R9,1*%
%TO.N,+5V*%
X113030000Y-99187000D03*
D18*
%TO.P,R9,2*%
%TO.N,Net-(R9-Pad2)*%
X113030000Y-89027000D03*
%TD*%
D19*
%TO.P,D11,1,K*%
%TO.N,Net-(D11-Pad1)*%
X156052600Y-71831200D03*
D20*
%TO.P,D11,2,A*%
%TO.N,VCC*%
X158592600Y-71831200D03*
%TD*%
D12*
%TO.P,R11,1*%
%TO.N,HIGH_KEY_SW_IN*%
X113665000Y-120777000D03*
D18*
%TO.P,R11,2*%
%TO.N,Net-(R11-Pad2)*%
X113665000Y-110617000D03*
%TD*%
D21*
%TO.P,H3,1*%
%TO.N,N/C*%
X190200000Y-126950000D03*
%TD*%
D12*
%TO.P,R14,1*%
%TO.N,GND*%
X139293600Y-120853200D03*
D18*
%TO.P,R14,2*%
%TO.N,Net-(R14-Pad2)*%
X149453600Y-120853200D03*
%TD*%
D22*
%TO.P,L1,1,1*%
%TO.N,Net-(D5-Pad1)*%
X116817600Y-54610000D03*
%TO.P,L1,2,2*%
%TO.N,+5V*%
X126717600Y-54610000D03*
%TD*%
D12*
%TO.P,R22,1*%
%TO.N,GND*%
X139242800Y-64973200D03*
D18*
%TO.P,R22,2*%
%TO.N,Net-(R22-Pad2)*%
X149402800Y-64973200D03*
%TD*%
D19*
%TO.P,D6,1,K*%
%TO.N,Net-(D6-Pad1)*%
X156210000Y-127762000D03*
D20*
%TO.P,D6,2,A*%
%TO.N,VCC*%
X158750000Y-127762000D03*
%TD*%
D12*
%TO.P,R26,1*%
%TO.N,GND*%
X139141200Y-83616800D03*
D18*
%TO.P,R26,2*%
%TO.N,Net-(R26-Pad2)*%
X149301200Y-83616800D03*
%TD*%
D16*
%TO.P,D3,1,K*%
%TO.N,VCC*%
X110998000Y-42418000D03*
D17*
%TO.P,D3,2,A*%
%TO.N,Net-(D3-Pad2)*%
X110998000Y-32258000D03*
%TD*%
D12*
%TO.P,R18,1*%
%TO.N,Net-(D8-Pad2)*%
X153670000Y-127373100D03*
D18*
%TO.P,R18,2*%
%TO.N,Net-(D6-Pad1)*%
X143510000Y-127373100D03*
%TD*%
D12*
%TO.P,R21,1*%
%TO.N,FAN*%
X139242800Y-56032400D03*
D18*
%TO.P,R21,2*%
%TO.N,Net-(R21-Pad2)*%
X149402800Y-56032400D03*
%TD*%
D19*
%TO.P,Q1,1,E*%
%TO.N,GND*%
X152482200Y-118872000D03*
D23*
%TO.P,Q1,2,C*%
%TO.N,Net-(D8-Pad2)*%
X152482200Y-121412000D03*
%TO.P,Q1,3,B*%
%TO.N,Net-(Q1-Pad3)*%
X152482200Y-123952000D03*
%TD*%
D16*
%TO.P,D5,1,K*%
%TO.N,Net-(D5-Pad1)*%
X112318800Y-55118000D03*
D17*
%TO.P,D5,2,A*%
%TO.N,GND*%
X102158800Y-55118000D03*
%TD*%
D24*
%TO.P,U13,1*%
%TO.N,Net-(R12-Pad2)*%
X141412200Y-115057000D03*
D25*
%TO.P,U13,2*%
%TO.N,GND*%
X141412200Y-117597000D03*
%TO.P,U13,3*%
%TO.N,Net-(R14-Pad2)*%
X149032200Y-117597000D03*
%TO.P,U13,4*%
%TO.N,VCC*%
X149032200Y-115057000D03*
%TD*%
D26*
%TO.P,U6,1*%
%TO.N,Net-(R6-Pad2)*%
X116200000Y-72405000D03*
D27*
%TO.P,U6,2*%
%TO.N,LIMIT_SW_IN*%
X118740000Y-72405000D03*
%TO.P,U6,3*%
%TO.N,GND*%
X118740000Y-64785000D03*
%TO.P,U6,4*%
%TO.N,LIMIT_SW*%
X116200000Y-64785000D03*
%TD*%
D12*
%TO.P,R5,1*%
%TO.N,+5V*%
X104140000Y-99187000D03*
D18*
%TO.P,R5,2*%
%TO.N,Net-(R5-Pad2)*%
X104140000Y-89027000D03*
%TD*%
D19*
%TO.P,D10,1,K*%
%TO.N,NEUTRAL*%
X183235600Y-48722200D03*
D20*
%TO.P,D10,2,A*%
%TO.N,Net-(D10-Pad2)*%
X183235600Y-46182200D03*
%TD*%
D12*
%TO.P,R10,1*%
%TO.N,+5V*%
X104140000Y-72771000D03*
D18*
%TO.P,R10,2*%
%TO.N,Net-(R10-Pad2)*%
X104140000Y-62611000D03*
%TD*%
D28*
%TO.P,F1,1*%
%TO.N,LINE*%
X189636400Y-70483000D03*
D29*
X189636400Y-63723000D03*
D30*
%TO.P,F1,2*%
%TO.N,LINE_IN*%
X189636400Y-47373000D03*
D31*
X189636400Y-54133000D03*
%TD*%
D12*
%TO.P,R1,1*%
%TO.N,+3.3V*%
X121495000Y-70050000D03*
D18*
%TO.P,R1,2*%
%TO.N,Net-(R1-Pad2)*%
X131655000Y-70050000D03*
%TD*%
D12*
%TO.P,R17,1*%
%TO.N,Net-(R15-Pad2)*%
X139242800Y-105359200D03*
D18*
%TO.P,R17,2*%
%TO.N,Net-(Q2-Pad3)*%
X149402800Y-105359200D03*
%TD*%
D16*
%TO.P,D1,1,K*%
%TO.N,VCC*%
X107696000Y-42418000D03*
D17*
%TO.P,D1,2,A*%
%TO.N,Net-(D1-Pad2)*%
X107696000Y-32258000D03*
%TD*%
D12*
%TO.P,C4,1*%
%TO.N,VCC*%
X103886000Y-45607600D03*
%TO.P,C4,2*%
%TO.N,GND*%
X103886000Y-50607600D03*
%TD*%
%TO.P,R29,1*%
%TO.N,BUZZER*%
X121513600Y-93319600D03*
D18*
%TO.P,R29,2*%
%TO.N,Net-(Q5-Pad2)*%
X131673600Y-93319600D03*
%TD*%
D12*
%TO.P,R6,1*%
%TO.N,+5V*%
X113030000Y-72771000D03*
D18*
%TO.P,R6,2*%
%TO.N,Net-(R6-Pad2)*%
X113030000Y-62611000D03*
%TD*%
D12*
%TO.P,C2,1*%
%TO.N,GND*%
X122809000Y-84726000D03*
%TO.P,C2,2*%
%TO.N,Net-(C2-Pad2)*%
X122809000Y-82226000D03*
%TD*%
%TO.P,R20,1*%
%TO.N,LINE_IN*%
X192125600Y-43230800D03*
D18*
%TO.P,R20,2*%
%TO.N,Net-(D10-Pad2)*%
X181965600Y-43230800D03*
%TD*%
D12*
%TO.P,R7,1*%
%TO.N,MID_KEY_SW_IN*%
X122555000Y-120777000D03*
D18*
%TO.P,R7,2*%
%TO.N,Net-(R7-Pad2)*%
X122555000Y-110617000D03*
%TD*%
D12*
%TO.P,C8,1*%
%TO.N,+3.3V*%
X130937000Y-62295400D03*
%TO.P,C8,2*%
%TO.N,GND*%
X130937000Y-67295400D03*
%TD*%
D26*
%TO.P,U10,1*%
%TO.N,Net-(R10-Pad2)*%
X107310000Y-72405000D03*
D27*
%TO.P,U10,2*%
%TO.N,DOOR_SW_IN*%
X109850000Y-72405000D03*
%TO.P,U10,3*%
%TO.N,GND*%
X109850000Y-64785000D03*
%TO.P,U10,4*%
%TO.N,DOOR_SW*%
X107310000Y-64785000D03*
%TD*%
D12*
%TO.P,R25,1*%
%TO.N,Net-(D12-Pad2)*%
X153568400Y-71475600D03*
D18*
%TO.P,R25,2*%
%TO.N,Net-(D11-Pad1)*%
X143408400Y-71475600D03*
%TD*%
D13*
%TO.P,U16,1*%
%TO.N,Net-(D9-Pad2)*%
X157576500Y-101485400D03*
D14*
%TO.P,U16,2*%
%TO.N,VCC*%
X161326500Y-101485400D03*
D15*
%TO.P,U16,3*%
%TO.N,unconnected-(U16-Pad3)*%
X172576500Y-101485400D03*
%TO.P,U16,4*%
%TO.N,LINE_IN*%
X177576500Y-101485400D03*
%TO.P,U16,5*%
%TO.N,DRUM_RIGHT_LINE*%
X182576500Y-101485400D03*
%TD*%
D12*
%TO.P,R12,1*%
%TO.N,DRUM_LEFT*%
X139293600Y-111861600D03*
D18*
%TO.P,R12,2*%
%TO.N,Net-(R12-Pad2)*%
X149453600Y-111861600D03*
%TD*%
D32*
%TO.P,Y1,1,1*%
%TO.N,Net-(C2-Pad2)*%
X118364000Y-83577600D03*
%TO.P,Y1,2,2*%
%TO.N,Net-(C1-Pad1)*%
X118364000Y-78677600D03*
%TD*%
D12*
%TO.P,C1,1*%
%TO.N,Net-(C1-Pad1)*%
X122809000Y-80027000D03*
%TO.P,C1,2*%
%TO.N,GND*%
X122809000Y-77527000D03*
%TD*%
D21*
%TO.P,H2,1*%
%TO.N,N/C*%
X190200000Y-34025000D03*
%TD*%
D33*
%TO.P,U3,1,GND*%
%TO.N,GND*%
X128000000Y-67175000D03*
D34*
%TO.P,U3,2,VO*%
%TO.N,+3.3V*%
X121700000Y-64875000D03*
D33*
X128000000Y-64875000D03*
%TO.P,U3,3,VI*%
%TO.N,+5V*%
X128000000Y-62575000D03*
%TD*%
D13*
%TO.P,U15,1*%
%TO.N,Net-(D8-Pad2)*%
X157576500Y-120052800D03*
D14*
%TO.P,U15,2*%
%TO.N,VCC*%
X161326500Y-120052800D03*
D15*
%TO.P,U15,3*%
%TO.N,unconnected-(U15-Pad3)*%
X172576500Y-120052800D03*
%TO.P,U15,4*%
%TO.N,LINE_IN*%
X177576500Y-120052800D03*
%TO.P,U15,5*%
%TO.N,DRUM_LEFT_LINE*%
X182576500Y-120052800D03*
%TD*%
D12*
%TO.P,R15,1*%
%TO.N,GND*%
X139242800Y-102209600D03*
D18*
%TO.P,R15,2*%
%TO.N,Net-(R15-Pad2)*%
X149402800Y-102209600D03*
%TD*%
D24*
%TO.P,U14,1*%
%TO.N,Net-(R13-Pad2)*%
X141310600Y-96413400D03*
D25*
%TO.P,U14,2*%
%TO.N,GND*%
X141310600Y-98953400D03*
%TO.P,U14,3*%
%TO.N,Net-(R15-Pad2)*%
X148930600Y-98953400D03*
%TO.P,U14,4*%
%TO.N,VCC*%
X148930600Y-96413400D03*
%TD*%
D35*
%TO.P,C6,1*%
%TO.N,+5V*%
X132959349Y-48006000D03*
D12*
%TO.P,C6,2*%
%TO.N,GND*%
X135459349Y-48006000D03*
%TD*%
D26*
%TO.P,U8,1*%
%TO.N,Net-(R8-Pad2)*%
X107945000Y-118633000D03*
D27*
%TO.P,U8,2*%
%TO.N,GND*%
X110485000Y-118633000D03*
%TO.P,U8,3*%
X110485000Y-111013000D03*
%TO.P,U8,4*%
%TO.N,LOW_KEY_SW*%
X107945000Y-111013000D03*
%TD*%
D12*
%TO.P,C7,1*%
%TO.N,+5V*%
X129732400Y-57124600D03*
%TO.P,C7,2*%
%TO.N,GND*%
X134732400Y-57124600D03*
%TD*%
D36*
%TO.P,J1,1,Pin_1*%
%TO.N,Net-(D1-Pad2)*%
X97403100Y-40860700D03*
D37*
%TO.P,J1,2,Pin_2*%
%TO.N,Net-(D3-Pad2)*%
X97403100Y-45940700D03*
%TD*%
D36*
%TO.P,J7,1,Pin_1*%
%TO.N,LINE*%
X188747400Y-76225400D03*
D37*
%TO.P,J7,2,Pin_2*%
%TO.N,NEUTRAL*%
X188747400Y-81305400D03*
%TO.P,J7,3,Pin_3*%
%TO.N,FAN_LINE*%
X188747400Y-86385400D03*
%TO.P,J7,4,Pin_4*%
%TO.N,HEATER_LINE*%
X188747400Y-91465400D03*
%TO.P,J7,5,Pin_5*%
%TO.N,DRUM_RIGHT_LINE*%
X188747400Y-96545400D03*
%TO.P,J7,6,Pin_6*%
%TO.N,DRUM_LEFT_LINE*%
X188747400Y-101625400D03*
%TD*%
D12*
%TO.P,R2,1*%
%TO.N,GND*%
X133350000Y-42164000D03*
D18*
%TO.P,R2,2*%
%TO.N,Net-(R2-Pad2)*%
X133350000Y-32004000D03*
%TD*%
D16*
%TO.P,D12,1,K*%
%TO.N,VCC*%
X162375100Y-58674000D03*
D17*
%TO.P,D12,2,A*%
%TO.N,Net-(D12-Pad2)*%
X152215100Y-58674000D03*
%TD*%
D26*
%TO.P,U11,1*%
%TO.N,Net-(R11-Pad2)*%
X116835000Y-118633000D03*
D27*
%TO.P,U11,2*%
%TO.N,GND*%
X119375000Y-118633000D03*
%TO.P,U11,3*%
X119375000Y-111013000D03*
%TO.P,U11,4*%
%TO.N,HIGH_KEY_SW*%
X116835000Y-111013000D03*
%TD*%
D13*
%TO.P,BZ1,1,-*%
%TO.N,+5V*%
X123250800Y-101955600D03*
D14*
%TO.P,BZ1,2,+*%
%TO.N,Net-(BZ1-Pad2)*%
X130850800Y-101955600D03*
%TD*%
D26*
%TO.P,U4,1*%
%TO.N,Net-(R4-Pad2)*%
X99055000Y-118633000D03*
D27*
%TO.P,U4,2*%
%TO.N,GND*%
X101595000Y-118633000D03*
%TO.P,U4,3*%
X101595000Y-111013000D03*
%TO.P,U4,4*%
%TO.N,FN_KEY_SW*%
X99055000Y-111013000D03*
%TD*%
D16*
%TO.P,D4,1,K*%
%TO.N,Net-(D3-Pad2)*%
X114300000Y-32258000D03*
D17*
%TO.P,D4,2,A*%
%TO.N,GND*%
X114300000Y-42418000D03*
%TD*%
D21*
%TO.P,H4,1*%
%TO.N,N/C*%
X97275000Y-126975000D03*
%TD*%
D12*
%TO.P,R28,1*%
%TO.N,Net-(D14-Pad2)*%
X153517600Y-90068400D03*
D18*
%TO.P,R28,2*%
%TO.N,Net-(D13-Pad1)*%
X143357600Y-90068400D03*
%TD*%
D26*
%TO.P,U9,1*%
%TO.N,Net-(R9-Pad2)*%
X118724600Y-91120200D03*
D27*
%TO.P,U9,2*%
%TO.N,HEATER_SW_IN*%
X116184600Y-91120200D03*
%TO.P,U9,3*%
%TO.N,GND*%
X116184600Y-98740200D03*
%TO.P,U9,4*%
%TO.N,HEATER_SW*%
X118724600Y-98740200D03*
%TD*%
D35*
%TO.P,C5,1*%
%TO.N,VCC*%
X110286800Y-47412149D03*
D12*
%TO.P,C5,2*%
%TO.N,GND*%
X110286800Y-49912149D03*
%TD*%
%TO.P,R24,1*%
%TO.N,Net-(R22-Pad2)*%
X139261100Y-68122800D03*
D18*
%TO.P,R24,2*%
%TO.N,Net-(Q3-Pad3)*%
X149421100Y-68122800D03*
%TD*%
D19*
%TO.P,Q4,1,E*%
%TO.N,GND*%
X152233700Y-81635600D03*
D23*
%TO.P,Q4,2,C*%
%TO.N,Net-(D14-Pad2)*%
X152233700Y-84175600D03*
%TO.P,Q4,3,B*%
%TO.N,Net-(Q4-Pad3)*%
X152233700Y-86715600D03*
%TD*%
D38*
%TO.P,U1,1,VBAT*%
%TO.N,+3.3V*%
X126901500Y-78911000D03*
%TO.P,U1,2,PC13*%
%TO.N,unconnected-(U1-Pad2)*%
X126901500Y-79411000D03*
%TO.P,U1,3,PC14*%
%TO.N,unconnected-(U1-Pad3)*%
X126901500Y-79911000D03*
%TO.P,U1,4,PC15*%
%TO.N,BUZZER*%
X126901500Y-80411000D03*
%TO.P,U1,5,PD0*%
%TO.N,Net-(C1-Pad1)*%
X126901500Y-80911000D03*
%TO.P,U1,6,PD1*%
%TO.N,Net-(C2-Pad2)*%
X126901500Y-81411000D03*
%TO.P,U1,7,NRST*%
%TO.N,Net-(R1-Pad2)*%
X126901500Y-81911000D03*
%TO.P,U1,8,VSSA*%
%TO.N,GND*%
X126901500Y-82411000D03*
%TO.P,U1,9,VDDA*%
%TO.N,+3.3V*%
X126901500Y-82911000D03*
%TO.P,U1,10,PA0*%
%TO.N,DOOR_SW*%
X126901500Y-83411000D03*
%TO.P,U1,11,PA1*%
%TO.N,LIMIT_SW*%
X126901500Y-83911000D03*
%TO.P,U1,12,PA2*%
%TO.N,SEL_ROT_SW*%
X126901500Y-84411000D03*
D39*
%TO.P,U1,13,PA3*%
%TO.N,HEATER_SW*%
X128314000Y-85823500D03*
%TO.P,U1,14,PA4*%
%TO.N,CS1*%
X128814000Y-85823500D03*
%TO.P,U1,15,PA5*%
%TO.N,SCK1*%
X129314000Y-85823500D03*
%TO.P,U1,16,PA6*%
%TO.N,MISO1*%
X129814000Y-85823500D03*
%TO.P,U1,17,PA7*%
%TO.N,unconnected-(U1-Pad17)*%
X130314000Y-85823500D03*
%TO.P,U1,18,PB0*%
%TO.N,FN_KEY_SW*%
X130814000Y-85823500D03*
%TO.P,U1,19,PB1*%
%TO.N,LOW_KEY_SW*%
X131314000Y-85823500D03*
%TO.P,U1,20,PB2*%
%TO.N,unconnected-(U1-Pad20)*%
X131814000Y-85823500D03*
%TO.P,U1,21,PB10*%
%TO.N,HIGH_KEY_SW*%
X132314000Y-85823500D03*
%TO.P,U1,22,PB11*%
%TO.N,MID_KEY_SW*%
X132814000Y-85823500D03*
%TO.P,U1,23,VSS*%
%TO.N,GND*%
X133314000Y-85823500D03*
%TO.P,U1,24,VDD*%
%TO.N,+3.3V*%
X133814000Y-85823500D03*
D38*
%TO.P,U1,25,PB12*%
%TO.N,unconnected-(U1-Pad25)*%
X135226500Y-84411000D03*
%TO.P,U1,26,PB13*%
%TO.N,DRUM_LEFT*%
X135226500Y-83911000D03*
%TO.P,U1,27,PB14*%
%TO.N,DRUM_RIGHT*%
X135226500Y-83411000D03*
%TO.P,U1,28,PB15*%
%TO.N,HEATER*%
X135226500Y-82911000D03*
%TO.P,U1,29,PA8*%
%TO.N,FAN*%
X135226500Y-82411000D03*
%TO.P,U1,30,PA9*%
%TO.N,TX*%
X135226500Y-81911000D03*
%TO.P,U1,31,PA10*%
%TO.N,RX*%
X135226500Y-81411000D03*
%TO.P,U1,32,PA11*%
%TO.N,LCD_RS*%
X135226500Y-80911000D03*
%TO.P,U1,33,PA12*%
%TO.N,LCD_EN*%
X135226500Y-80411000D03*
%TO.P,U1,34,PA13*%
%TO.N,SWDIO*%
X135226500Y-79911000D03*
%TO.P,U1,35,VSS*%
%TO.N,GND*%
X135226500Y-79411000D03*
%TO.P,U1,36,VDD*%
%TO.N,+3.3V*%
X135226500Y-78911000D03*
D39*
%TO.P,U1,37,PA14*%
%TO.N,SWCLK*%
X133814000Y-77498500D03*
%TO.P,U1,38,PA15*%
%TO.N,LCD_D0*%
X133314000Y-77498500D03*
%TO.P,U1,39,PB3*%
%TO.N,LCD_D1*%
X132814000Y-77498500D03*
%TO.P,U1,40,PB4*%
%TO.N,LCD_D2*%
X132314000Y-77498500D03*
%TO.P,U1,41,PB5*%
%TO.N,LCD_D3*%
X131814000Y-77498500D03*
%TO.P,U1,42,PB6*%
%TO.N,LCD_D4*%
X131314000Y-77498500D03*
%TO.P,U1,43,PB7*%
%TO.N,LCD_D5*%
X130814000Y-77498500D03*
%TO.P,U1,44,BOOT0*%
%TO.N,unconnected-(U1-Pad44)*%
X130314000Y-77498500D03*
%TO.P,U1,45,PB8*%
%TO.N,LCD_D6*%
X129814000Y-77498500D03*
%TO.P,U1,46,PB9*%
%TO.N,LCD_D7*%
X129314000Y-77498500D03*
%TO.P,U1,47,VSS*%
%TO.N,GND*%
X128814000Y-77498500D03*
%TO.P,U1,48,VDD*%
%TO.N,+3.3V*%
X128314000Y-77498500D03*
%TD*%
D16*
%TO.P,D9,1,K*%
%TO.N,VCC*%
X162407600Y-95961200D03*
D17*
%TO.P,D9,2,A*%
%TO.N,Net-(D9-Pad2)*%
X152247600Y-95961200D03*
%TD*%
D12*
%TO.P,R13,1*%
%TO.N,DRUM_RIGHT*%
X139192000Y-93167200D03*
D18*
%TO.P,R13,2*%
%TO.N,Net-(R13-Pad2)*%
X149352000Y-93167200D03*
%TD*%
D19*
%TO.P,D13,1,K*%
%TO.N,Net-(D13-Pad1)*%
X156001800Y-90424000D03*
D20*
%TO.P,D13,2,A*%
%TO.N,VCC*%
X158541800Y-90424000D03*
%TD*%
D40*
%TO.P,Q5,1,C*%
%TO.N,Net-(BZ1-Pad2)*%
X135072800Y-95605600D03*
D41*
%TO.P,Q5,2,B*%
%TO.N,Net-(Q5-Pad2)*%
X135072800Y-96875600D03*
%TO.P,Q5,3,E*%
%TO.N,GND*%
X135072800Y-98145600D03*
%TD*%
D42*
%TO.P,RV3,3,3*%
%TO.N,GND*%
X170088800Y-38475200D03*
%TO.P,RV3,2,2*%
%TO.N,/Connectors/VO*%
X172628800Y-41015200D03*
%TO.P,RV3,1,1*%
%TO.N,+5V*%
X175168800Y-38475200D03*
%TD*%
D12*
%TO.P,R3,1*%
%TO.N,Net-(R2-Pad2)*%
X130048000Y-32004000D03*
D18*
%TO.P,R3,2*%
%TO.N,+5V*%
X130048000Y-42164000D03*
%TD*%
D19*
%TO.P,D7,1,K*%
%TO.N,Net-(D7-Pad1)*%
X156103400Y-109016800D03*
D20*
%TO.P,D7,2,A*%
%TO.N,VCC*%
X158643400Y-109016800D03*
%TD*%
D43*
%TO.P,J3,1,Pin_1*%
%TO.N,TEMP+*%
X98786500Y-105900500D03*
D37*
%TO.P,J3,2,Pin_2*%
%TO.N,GND*%
X98786500Y-100820500D03*
%TD*%
D24*
%TO.P,U17,1*%
%TO.N,Net-(R21-Pad2)*%
X141361400Y-59227800D03*
D25*
%TO.P,U17,2*%
%TO.N,GND*%
X141361400Y-61767800D03*
%TO.P,U17,3*%
%TO.N,Net-(R22-Pad2)*%
X148981400Y-61767800D03*
%TO.P,U17,4*%
%TO.N,VCC*%
X148981400Y-59227800D03*
%TD*%
D44*
%TO.P,U2,1,VIN*%
%TO.N,VCC*%
X119028000Y-44891000D03*
%TO.P,U2,2,OUT*%
%TO.N,Net-(D5-Pad1)*%
X120728000Y-44891000D03*
D45*
%TO.P,U2,3,GND*%
%TO.N,GND*%
X122428000Y-35741000D03*
D44*
X122428000Y-44891000D03*
%TO.P,U2,4,FB*%
%TO.N,Net-(R2-Pad2)*%
X124128000Y-44891000D03*
%TO.P,U2,5,~{ON}/OFF*%
%TO.N,GND*%
X125828000Y-44891000D03*
%TD*%
D16*
%TO.P,D14,1,K*%
%TO.N,VCC*%
X162407600Y-77419200D03*
D17*
%TO.P,D14,2,A*%
%TO.N,Net-(D14-Pad2)*%
X152247600Y-77419200D03*
%TD*%
D16*
%TO.P,D8,1,K*%
%TO.N,VCC*%
X162458400Y-114808000D03*
D17*
%TO.P,D8,2,A*%
%TO.N,Net-(D8-Pad2)*%
X152298400Y-114808000D03*
%TD*%
D12*
%TO.P,R19,1*%
%TO.N,Net-(D9-Pad2)*%
X153670000Y-108712000D03*
D18*
%TO.P,R19,2*%
%TO.N,Net-(D7-Pad1)*%
X143510000Y-108712000D03*
%TD*%
D35*
%TO.P,RN2,1,common*%
%TO.N,GND*%
X114701000Y-124714000D03*
D18*
%TO.P,RN2,2,R1*%
%TO.N,MID_KEY_SW_IN*%
X112161000Y-124714000D03*
%TO.P,RN2,3,R2*%
%TO.N,HIGH_KEY_SW_IN*%
X109621000Y-124714000D03*
%TO.P,RN2,4,R3*%
%TO.N,LOW_KEY_SW_IN*%
X107081000Y-124714000D03*
%TO.P,RN2,5,R4*%
%TO.N,FN_KEY_SW_IN*%
X104541000Y-124714000D03*
%TD*%
D26*
%TO.P,U5,1*%
%TO.N,Net-(R5-Pad2)*%
X109860000Y-91171000D03*
D27*
%TO.P,U5,2*%
%TO.N,SEL_ROT_SW_IN*%
X107320000Y-91171000D03*
%TO.P,U5,3*%
%TO.N,GND*%
X107320000Y-98791000D03*
%TO.P,U5,4*%
%TO.N,SEL_ROT_SW*%
X109860000Y-98791000D03*
%TD*%
D12*
%TO.P,R16,1*%
%TO.N,Net-(R14-Pad2)*%
X139293600Y-123952000D03*
D18*
%TO.P,R16,2*%
%TO.N,Net-(Q1-Pad3)*%
X149453600Y-123952000D03*
%TD*%
D12*
%TO.P,R27,1*%
%TO.N,Net-(R26-Pad2)*%
X139141200Y-86715600D03*
D18*
%TO.P,R27,2*%
%TO.N,Net-(Q4-Pad3)*%
X149301200Y-86715600D03*
%TD*%
D12*
%TO.P,C9,1*%
%TO.N,GND*%
X110958000Y-101854000D03*
%TO.P,C9,2*%
%TO.N,+5V*%
X105958000Y-101854000D03*
%TD*%
D24*
%TO.P,U18,1*%
%TO.N,Net-(R23-Pad2)*%
X141259800Y-77871400D03*
D25*
%TO.P,U18,2*%
%TO.N,GND*%
X141259800Y-80411400D03*
%TO.P,U18,3*%
%TO.N,Net-(R26-Pad2)*%
X148879800Y-80411400D03*
%TO.P,U18,4*%
%TO.N,VCC*%
X148879800Y-77871400D03*
%TD*%
D12*
%TO.P,R4,1*%
%TO.N,FN_KEY_SW_IN*%
X95885000Y-120777000D03*
D18*
%TO.P,R4,2*%
%TO.N,Net-(R4-Pad2)*%
X95885000Y-110617000D03*
%TD*%
D46*
%TO.P,J4,1,Pin_1*%
%TO.N,DOOR_SW_IN*%
X98044000Y-75438000D03*
D47*
%TO.P,J4,2,Pin_2*%
%TO.N,GND*%
X98044000Y-77938000D03*
%TO.P,J4,3,Pin_3*%
%TO.N,LIMIT_SW_IN*%
X98044000Y-80438000D03*
%TO.P,J4,4,Pin_4*%
%TO.N,GND*%
X98044000Y-82938000D03*
%TO.P,J4,5,Pin_5*%
%TO.N,HEATER_SW_IN*%
X98044000Y-85438000D03*
%TO.P,J4,6,Pin_6*%
%TO.N,GND*%
X98044000Y-87938000D03*
%TO.P,J4,7,Pin_7*%
%TO.N,SEL_ROT_SW_IN*%
X98044000Y-90438000D03*
%TO.P,J4,8,Pin_8*%
%TO.N,GND*%
X98044000Y-92938000D03*
%TD*%
D19*
%TO.P,Q2,1,E*%
%TO.N,GND*%
X152482200Y-100279200D03*
D23*
%TO.P,Q2,2,C*%
%TO.N,Net-(D9-Pad2)*%
X152482200Y-102819200D03*
%TO.P,Q2,3,B*%
%TO.N,Net-(Q2-Pad3)*%
X152482200Y-105359200D03*
%TD*%
D35*
%TO.P,RN1,1,common*%
%TO.N,+5V*%
X104140000Y-75799000D03*
D18*
%TO.P,RN1,2,R1*%
%TO.N,DOOR_SW_IN*%
X104140000Y-78339000D03*
%TO.P,RN1,3,R2*%
%TO.N,LIMIT_SW_IN*%
X104140000Y-80879000D03*
%TO.P,RN1,4,R3*%
%TO.N,HEATER_SW_IN*%
X104140000Y-83419000D03*
%TO.P,RN1,5,R4*%
%TO.N,SEL_ROT_SW_IN*%
X104140000Y-85959000D03*
%TD*%
D12*
%TO.P,R8,1*%
%TO.N,LOW_KEY_SW_IN*%
X104775000Y-120777000D03*
D18*
%TO.P,R8,2*%
%TO.N,Net-(R8-Pad2)*%
X104775000Y-110617000D03*
%TD*%
D19*
%TO.P,Q3,1,E*%
%TO.N,GND*%
X152348100Y-63042800D03*
D23*
%TO.P,Q3,2,C*%
%TO.N,Net-(D12-Pad2)*%
X152348100Y-65582800D03*
%TO.P,Q3,3,B*%
%TO.N,Net-(Q3-Pad3)*%
X152348100Y-68122800D03*
%TD*%
D21*
%TO.P,H1,1*%
%TO.N,N/C*%
X97282000Y-34036000D03*
%TD*%
D26*
%TO.P,U7,1*%
%TO.N,Net-(R7-Pad2)*%
X125725000Y-118633000D03*
D27*
%TO.P,U7,2*%
%TO.N,GND*%
X128265000Y-118633000D03*
%TO.P,U7,3*%
X128265000Y-111013000D03*
%TO.P,U7,4*%
%TO.N,MID_KEY_SW*%
X125725000Y-111013000D03*
%TD*%
D13*
%TO.P,U20,1*%
%TO.N,Net-(D14-Pad2)*%
X157609600Y-82892600D03*
D14*
%TO.P,U20,2*%
%TO.N,VCC*%
X161359600Y-82892600D03*
D15*
%TO.P,U20,3*%
%TO.N,unconnected-(U20-Pad3)*%
X172609600Y-82892600D03*
%TO.P,U20,4*%
%TO.N,LINE_IN*%
X177609600Y-82892600D03*
%TO.P,U20,5*%
%TO.N,HEATER_LINE*%
X182609600Y-82892600D03*
%TD*%
D48*
%TO.P,U12,1,GND*%
%TO.N,GND*%
X105983000Y-104267000D03*
%TO.P,U12,2,T-*%
X105983000Y-105537000D03*
%TO.P,U12,3,T+*%
%TO.N,TEMP+*%
X105983000Y-106807000D03*
%TO.P,U12,4,VCC*%
%TO.N,+5V*%
X105983000Y-108077000D03*
%TO.P,U12,5,SCK*%
%TO.N,SCK1*%
X110933000Y-108077000D03*
%TO.P,U12,6,~{CS}*%
%TO.N,CS1*%
X110933000Y-106807000D03*
%TO.P,U12,7,SO*%
%TO.N,MISO1*%
X110933000Y-105537000D03*
%TO.P,U12,8*%
%TO.N,N/C*%
X110933000Y-104267000D03*
%TD*%
D12*
%TO.P,R23,1*%
%TO.N,HEATER*%
X139141200Y-74676000D03*
D18*
%TO.P,R23,2*%
%TO.N,Net-(R23-Pad2)*%
X149301200Y-74676000D03*
%TD*%
D10*
%TO.P,J2,1,Pin_1*%
%TO.N,GND*%
X177698400Y-33477200D03*
D11*
%TO.P,J2,2,Pin_2*%
%TO.N,+5V*%
X175158400Y-33477200D03*
%TO.P,J2,3,Pin_3*%
%TO.N,/Connectors/VO*%
X172618400Y-33477200D03*
%TO.P,J2,4,Pin_4*%
%TO.N,LCD_RS*%
X170078400Y-33477200D03*
%TO.P,J2,5,Pin_5*%
%TO.N,GND*%
X167538400Y-33477200D03*
%TO.P,J2,6,Pin_6*%
%TO.N,LCD_EN*%
X164998400Y-33477200D03*
%TO.P,J2,7,Pin_7*%
%TO.N,LCD_D0*%
X162458400Y-33477200D03*
%TO.P,J2,8,Pin_8*%
%TO.N,LCD_D1*%
X159918400Y-33477200D03*
%TO.P,J2,9,Pin_9*%
%TO.N,LCD_D2*%
X157378400Y-33477200D03*
%TO.P,J2,10,Pin_10*%
%TO.N,LCD_D3*%
X154838400Y-33477200D03*
%TO.P,J2,11,Pin_11*%
%TO.N,LCD_D4*%
X152298400Y-33477200D03*
%TO.P,J2,12,Pin_12*%
%TO.N,LCD_D5*%
X149758400Y-33477200D03*
%TO.P,J2,13,Pin_13*%
%TO.N,LCD_D6*%
X147218400Y-33477200D03*
%TO.P,J2,14,Pin_14*%
%TO.N,LCD_D7*%
X144678400Y-33477200D03*
%TO.P,J2,15,Pin_15*%
%TO.N,+5V*%
X142138400Y-33477200D03*
%TO.P,J2,16,Pin_16*%
%TO.N,GND*%
X139598400Y-33477200D03*
%TD*%
D49*
%TO.N,GND*%
X133450943Y-79788062D03*
%TO.N,SWDIO*%
X133889500Y-80972379D03*
D50*
%TO.N,SWCLK*%
X135213059Y-75688059D03*
%TO.N,+5V*%
X103050000Y-114600000D03*
D49*
%TO.N,FAN*%
X137607923Y-81956523D03*
%TO.N,GND*%
X128574500Y-74850000D03*
X128600200Y-82677000D03*
X132816600Y-84486500D03*
D50*
%TO.N,Net-(R1-Pad2)*%
X130759200Y-81915000D03*
%TO.N,+5V*%
X128651000Y-61976000D03*
X127508000Y-61976000D03*
%TO.N,BUZZER*%
X129032000Y-80924400D03*
%TO.N,DOOR_SW*%
X124524900Y-83417785D03*
X122904906Y-73806706D03*
%TO.N,LIMIT_SW*%
X124510800Y-84657731D03*
X122825488Y-72525912D03*
%TO.N,MISO1*%
X129310210Y-88416210D03*
X126593600Y-91135200D03*
%TO.N,FN_KEY_SW*%
X129438490Y-90070689D03*
%TO.N,LOW_KEY_SW*%
X130657600Y-90068400D03*
%TO.N,GND*%
X122936000Y-39624000D03*
X125831600Y-44958000D03*
X124206000Y-39624000D03*
X126746000Y-39624000D03*
X126746000Y-31750000D03*
X120396000Y-31750000D03*
X117856000Y-33020000D03*
X126746000Y-35560000D03*
X119126000Y-39624000D03*
X120396000Y-39624000D03*
X119126000Y-31750000D03*
X117856000Y-36830000D03*
X125476000Y-31750000D03*
X126746000Y-38100000D03*
X124206000Y-31750000D03*
X117856000Y-31750000D03*
X121666000Y-39624000D03*
X117856000Y-39370000D03*
X125476000Y-39624000D03*
X126746000Y-33020000D03*
X126746000Y-36830000D03*
X122936000Y-31750000D03*
X117856000Y-38100000D03*
X117856000Y-34290000D03*
D49*
X104038400Y-104292400D03*
D50*
X117856000Y-35560000D03*
X121666000Y-31750000D03*
X126746000Y-34290000D03*
X122428000Y-44891000D03*
%TD*%
D51*
%TO.N,SWCLK*%
X133814000Y-76603517D02*
X133814000Y-77498500D01*
X133925000Y-76492517D02*
X133814000Y-76603517D01*
X133925000Y-76481848D02*
X133925000Y-76492517D01*
X134718789Y-75688059D02*
X133925000Y-76481848D01*
X135213059Y-75688059D02*
X134718789Y-75688059D01*
%TO.N,+3.3V*%
X132186000Y-78911000D02*
X130989000Y-78911000D01*
X132700943Y-79425943D02*
X132186000Y-78911000D01*
X133400000Y-81543540D02*
X132700943Y-80844483D01*
X132700943Y-80844483D02*
X132700943Y-79425943D01*
X133400000Y-83551600D02*
X133400000Y-81543540D01*
X133814000Y-83965600D02*
X133400000Y-83551600D01*
X130989000Y-78911000D02*
X129457000Y-78911000D01*
X132454200Y-78911000D02*
X130989000Y-78911000D01*
%TO.N,GND*%
X133828005Y-79411000D02*
X135226500Y-79411000D01*
X133450943Y-79788062D02*
X133828005Y-79411000D01*
%TO.N,SWDIO*%
X133889500Y-80409459D02*
X134387959Y-79911000D01*
X133889500Y-80972379D02*
X133889500Y-80409459D01*
X134387959Y-79911000D02*
X135226500Y-79911000D01*
D52*
%TO.N,+5V*%
X133299200Y-124374200D02*
X133299200Y-127609600D01*
X132150000Y-118590000D02*
X132150000Y-123225000D01*
X132150000Y-123225000D02*
X133299200Y-124374200D01*
D51*
%TO.N,LCD_D6*%
X147218400Y-49301400D02*
X147218400Y-33477200D01*
X146119600Y-50400200D02*
X147218400Y-49301400D01*
X139350082Y-50400200D02*
X146119600Y-50400200D01*
X137412600Y-52337682D02*
X139350082Y-50400200D01*
X130425000Y-75042768D02*
X130425000Y-75032106D01*
X137412600Y-53540506D02*
X137412600Y-52337682D01*
X129820800Y-75646968D02*
X130425000Y-75042768D01*
X136498200Y-54454906D02*
X137412600Y-53540506D01*
X129820800Y-76516521D02*
X129820800Y-75646968D01*
X136498200Y-68958906D02*
X136498200Y-54454906D01*
X129814000Y-76523321D02*
X129820800Y-76516521D01*
X130425000Y-75032106D02*
X136498200Y-68958906D01*
X129814000Y-77498500D02*
X129814000Y-76523321D01*
%TO.N,LCD_D7*%
X144678400Y-48818800D02*
X144678400Y-33477200D01*
X143597000Y-49900200D02*
X144678400Y-48818800D01*
X139142976Y-49900200D02*
X143597000Y-49900200D01*
X136912600Y-52130576D02*
X139142976Y-49900200D01*
X136912600Y-53333400D02*
X136912600Y-52130576D01*
X129925000Y-74835661D02*
X129925000Y-74825000D01*
X129320800Y-75439861D02*
X129925000Y-74835661D01*
X129320800Y-76309414D02*
X129320800Y-75439861D01*
X135991600Y-54254400D02*
X136912600Y-53333400D01*
X129314000Y-76316214D02*
X129320800Y-76309414D01*
X129925000Y-74825000D02*
X135991600Y-68758400D01*
X135991600Y-68758400D02*
X135991600Y-54254400D01*
X129314000Y-77498500D02*
X129314000Y-76316214D01*
%TO.N,GND*%
X128820800Y-76102307D02*
X128814000Y-76109107D01*
X128820800Y-75729200D02*
X128820800Y-76102307D01*
X128814000Y-76109107D02*
X128814000Y-77498500D01*
X128574500Y-75482900D02*
X128820800Y-75729200D01*
X128574500Y-74850000D02*
X128574500Y-75482900D01*
%TO.N,+3.3V*%
X128314000Y-76489000D02*
X128314000Y-77498500D01*
X127825000Y-76000000D02*
X128314000Y-76489000D01*
X127071800Y-72821800D02*
X127825000Y-73575000D01*
X125058800Y-72821800D02*
X127071800Y-72821800D01*
X127825000Y-73575000D02*
X127825000Y-76000000D01*
%TO.N,LCD_D0*%
X162458400Y-52628800D02*
X162458400Y-33477200D01*
X161680400Y-53406800D02*
X162458400Y-52628800D01*
X146218400Y-54830788D02*
X147642388Y-53406800D01*
X146218400Y-67979800D02*
X146218400Y-54830788D01*
X145373600Y-68824600D02*
X146218400Y-67979800D01*
X142892588Y-68824600D02*
X145373600Y-68824600D01*
X139750612Y-71975600D02*
X141214600Y-70511612D01*
X141214600Y-70502588D02*
X142892588Y-68824600D01*
X137724142Y-71975600D02*
X139750612Y-71975600D01*
X133425000Y-76285410D02*
X133425000Y-76274742D01*
X147642388Y-53406800D02*
X161680400Y-53406800D01*
X133314000Y-77498500D02*
X133314000Y-76396410D01*
X133314000Y-76396410D02*
X133425000Y-76285410D01*
X133425000Y-76274742D02*
X137724142Y-71975600D01*
X141214600Y-70511612D02*
X141214600Y-70502588D01*
%TO.N,LCD_D1*%
X159918400Y-51917600D02*
X159918400Y-33477200D01*
X158929200Y-52906800D02*
X159918400Y-51917600D01*
X147435282Y-52906800D02*
X158929200Y-52906800D01*
X145718400Y-54623682D02*
X147435282Y-52906800D01*
X145718400Y-67772694D02*
X145718400Y-54623682D01*
X145166494Y-68324600D02*
X145718400Y-67772694D01*
X142685482Y-68324600D02*
X145166494Y-68324600D01*
X137517036Y-71475600D02*
X139543506Y-71475600D01*
X132925000Y-76067636D02*
X137517036Y-71475600D01*
X139543506Y-71475600D02*
X140714600Y-70304506D01*
X132925000Y-76078303D02*
X132925000Y-76067636D01*
X132814000Y-76189303D02*
X132925000Y-76078303D01*
X140714600Y-70304506D02*
X140714600Y-70295482D01*
X140714600Y-70295482D02*
X142685482Y-68324600D01*
X132814000Y-77498500D02*
X132814000Y-76189303D01*
%TO.N,LCD_D2*%
X157378400Y-51638200D02*
X157378400Y-33477200D01*
X156616400Y-52400200D02*
X157378400Y-51638200D01*
X147234776Y-52400200D02*
X156616400Y-52400200D01*
X145218400Y-54416576D02*
X147234776Y-52400200D01*
X145218400Y-67328800D02*
X145218400Y-54416576D01*
X142478376Y-67824600D02*
X144722600Y-67824600D01*
X140214600Y-70097400D02*
X140214600Y-70088376D01*
X132314000Y-75982196D02*
X132425000Y-75871196D01*
X132425000Y-75871196D02*
X132425000Y-75860530D01*
X137317930Y-70967600D02*
X139344400Y-70967600D01*
X132425000Y-75860530D02*
X137317930Y-70967600D01*
X139344400Y-70967600D02*
X140214600Y-70097400D01*
X144722600Y-67824600D02*
X145218400Y-67328800D01*
X132314000Y-77498500D02*
X132314000Y-75982196D01*
X140214600Y-70088376D02*
X142478376Y-67824600D01*
%TO.N,LCD_D3*%
X154838400Y-50927000D02*
X154838400Y-33477200D01*
X153865200Y-51900200D02*
X154838400Y-50927000D01*
X139971400Y-51900200D02*
X153865200Y-51900200D01*
X138912600Y-52959000D02*
X139971400Y-51900200D01*
X131925000Y-75653424D02*
X137998200Y-69580224D01*
X137998200Y-69580224D02*
X137998200Y-55076224D01*
X137998200Y-55076224D02*
X138912600Y-54161824D01*
X131814000Y-75775089D02*
X131925000Y-75664089D01*
X131925000Y-75664089D02*
X131925000Y-75653424D01*
X131814000Y-77498500D02*
X131814000Y-75775089D01*
X138912600Y-54161824D02*
X138912600Y-52959000D01*
%TO.N,LCD_D4*%
X152298400Y-50520600D02*
X152298400Y-33477200D01*
X151418800Y-51400200D02*
X152298400Y-50520600D01*
X139764294Y-51400200D02*
X151418800Y-51400200D01*
X131425000Y-75446318D02*
X137498200Y-69373118D01*
X131425000Y-75456982D02*
X131425000Y-75446318D01*
X131314000Y-75567982D02*
X131425000Y-75456982D01*
X131314000Y-77498500D02*
X131314000Y-75567982D01*
X137498200Y-69373118D02*
X137498200Y-54869118D01*
X137498200Y-54869118D02*
X138412600Y-53954718D01*
X138412600Y-53954718D02*
X138412600Y-52751894D01*
X138412600Y-52751894D02*
X139764294Y-51400200D01*
%TO.N,LCD_D5*%
X149758400Y-49657000D02*
X149758400Y-33477200D01*
X148515200Y-50900200D02*
X149758400Y-49657000D01*
X139557188Y-50900200D02*
X148515200Y-50900200D01*
X137912600Y-52544788D02*
X139557188Y-50900200D01*
X137912600Y-53747612D02*
X137912600Y-52544788D01*
X130925000Y-75249875D02*
X130925000Y-75239212D01*
X130925000Y-75239212D02*
X136998200Y-69166012D01*
X130814000Y-75360875D02*
X130925000Y-75249875D01*
X136998200Y-54662012D02*
X137912600Y-53747612D01*
X130814000Y-77498500D02*
X130814000Y-75360875D01*
X136998200Y-69166012D02*
X136998200Y-54662012D01*
D52*
%TO.N,+5V*%
X103050000Y-114600000D02*
X103050000Y-109050000D01*
X105981000Y-108075000D02*
X105983000Y-108077000D01*
X103050000Y-109050000D02*
X104025000Y-108075000D01*
X104025000Y-108075000D02*
X105981000Y-108075000D01*
%TO.N,FN_KEY_SW_IN*%
X104541000Y-128366000D02*
X104541000Y-124714000D01*
X105475000Y-129300000D02*
X104541000Y-128366000D01*
X121448800Y-129300000D02*
X105475000Y-129300000D01*
X123139200Y-127609600D02*
X121448800Y-129300000D01*
%TO.N,MID_KEY_SW_IN*%
X112161000Y-126228525D02*
X112161000Y-124714000D01*
X113125000Y-127192525D02*
X112161000Y-126228525D01*
X119257475Y-127192525D02*
X113125000Y-127192525D01*
X119625000Y-126825000D02*
X119257475Y-127192525D01*
X119625000Y-125520101D02*
X119625000Y-126825000D01*
X130759200Y-125134200D02*
X129750000Y-124125000D01*
X130759200Y-127609600D02*
X130759200Y-125134200D01*
X129750000Y-124125000D02*
X121020100Y-124125000D01*
X121020100Y-124125000D02*
X119625000Y-125520101D01*
%TO.N,HIGH_KEY_SW_IN*%
X109621000Y-126921000D02*
X109621000Y-124714000D01*
X110592525Y-127892525D02*
X109621000Y-126921000D01*
X119867525Y-127892525D02*
X110592525Y-127892525D01*
X120325000Y-127435050D02*
X119867525Y-127892525D01*
X120325000Y-125810050D02*
X120325000Y-127435050D01*
X121310050Y-124825000D02*
X120325000Y-125810050D01*
X127225000Y-124825000D02*
X121310050Y-124825000D01*
X128219200Y-125819200D02*
X127225000Y-124825000D01*
X128219200Y-127609600D02*
X128219200Y-125819200D01*
%TO.N,LOW_KEY_SW_IN*%
X125679200Y-126154200D02*
X125679200Y-127609600D01*
X125050000Y-125525000D02*
X125679200Y-126154200D01*
X121025000Y-127725000D02*
X121025000Y-126100000D01*
X121025000Y-126100000D02*
X121600000Y-125525000D01*
X107650000Y-128600000D02*
X120150000Y-128600000D01*
X121600000Y-125525000D02*
X125050000Y-125525000D01*
X107081000Y-128031000D02*
X107650000Y-128600000D01*
X120150000Y-128600000D02*
X121025000Y-127725000D01*
X107081000Y-124714000D02*
X107081000Y-128031000D01*
%TO.N,MID_KEY_SW_IN*%
X120700800Y-122631200D02*
X122555000Y-120777000D01*
X113168800Y-122631200D02*
X120700800Y-122631200D01*
X112161000Y-123639000D02*
X113168800Y-122631200D01*
X112161000Y-124714000D02*
X112161000Y-123639000D01*
D53*
%TO.N,+3.3V*%
X121495000Y-65080000D02*
X121700000Y-64875000D01*
X121495000Y-70050000D02*
X121495000Y-65080000D01*
X124329800Y-70050000D02*
X125058800Y-70779000D01*
X121495000Y-70050000D02*
X124329800Y-70050000D01*
D54*
%TO.N,FAN_LINE*%
X182609600Y-62391400D02*
X182609600Y-64249000D01*
X182332000Y-62113800D02*
X182609600Y-62391400D01*
X182332000Y-58418600D02*
X182332000Y-62113800D01*
%TO.N,LINE_IN*%
X177332000Y-61736600D02*
X177609600Y-62014200D01*
X177609600Y-62014200D02*
X177609600Y-64249000D01*
X177332000Y-58418600D02*
X177332000Y-61736600D01*
%TO.N,FAN_LINE*%
X182609600Y-67547600D02*
X182609600Y-64249000D01*
X185166000Y-70104000D02*
X182609600Y-67547600D01*
X188747400Y-86385400D02*
X186715400Y-86385400D01*
X186715400Y-86385400D02*
X185166000Y-84836000D01*
X185166000Y-84836000D02*
X185166000Y-70104000D01*
%TO.N,HEATER_LINE*%
X182609600Y-89188400D02*
X184886600Y-91465400D01*
X182609600Y-82892600D02*
X182609600Y-89188400D01*
X184886600Y-91465400D02*
X188747400Y-91465400D01*
X182609600Y-80527000D02*
X182609600Y-82892600D01*
X182332000Y-80249400D02*
X182609600Y-80527000D01*
X182332000Y-76452600D02*
X182332000Y-80249400D01*
%TO.N,LINE_IN*%
X177609600Y-80607000D02*
X177609600Y-82892600D01*
X177332000Y-80329400D02*
X177609600Y-80607000D01*
X177332000Y-76452600D02*
X177332000Y-80329400D01*
%TO.N,DRUM_RIGHT_LINE*%
X183603400Y-96570800D02*
X188722000Y-96570800D01*
X182332000Y-95299400D02*
X183603400Y-96570800D01*
X188722000Y-96570800D02*
X188747400Y-96545400D01*
X182576500Y-99493100D02*
X182576500Y-101485400D01*
X182332000Y-99248600D02*
X182576500Y-99493100D01*
X182332000Y-95299400D02*
X182332000Y-99248600D01*
%TO.N,LINE_IN*%
X177576500Y-99369900D02*
X177576500Y-101485400D01*
X177332000Y-95299400D02*
X177332000Y-99125400D01*
X177332000Y-99125400D02*
X177576500Y-99369900D01*
%TO.N,DRUM_LEFT_LINE*%
X182332000Y-117435000D02*
X182576500Y-117679500D01*
X182576500Y-117679500D02*
X182576500Y-120052800D01*
X182332000Y-114705000D02*
X182332000Y-117435000D01*
%TO.N,LINE_IN*%
X177576500Y-117657900D02*
X177576500Y-120052800D01*
X177332000Y-117413400D02*
X177576500Y-117657900D01*
X177332000Y-114705000D02*
X177332000Y-117413400D01*
X177332000Y-109205400D02*
X177332000Y-114705000D01*
X177576500Y-108960900D02*
X177332000Y-109205400D01*
X177576500Y-101485400D02*
X177576500Y-108960900D01*
X177332000Y-89647400D02*
X177332000Y-95299400D01*
X177609600Y-89369800D02*
X177332000Y-89647400D01*
X177609600Y-82892600D02*
X177609600Y-89369800D01*
D53*
%TO.N,VCC*%
X162407600Y-81844600D02*
X162407600Y-77419200D01*
X161359600Y-82892600D02*
X162407600Y-81844600D01*
X161359600Y-87606200D02*
X161359600Y-82892600D01*
X158541800Y-90424000D02*
X161359600Y-87606200D01*
%TO.N,Net-(D14-Pad2)*%
X157609600Y-84477800D02*
X157609600Y-82892600D01*
X153517600Y-88569800D02*
X157609600Y-84477800D01*
X153517600Y-90068400D02*
X153517600Y-88569800D01*
X156326600Y-84175600D02*
X157609600Y-82892600D01*
X152233700Y-84175600D02*
X156326600Y-84175600D01*
X156210000Y-77419200D02*
X152247600Y-77419200D01*
X157609600Y-78818800D02*
X156210000Y-77419200D01*
X157609600Y-82892600D02*
X157609600Y-78818800D01*
D54*
%TO.N,DRUM_LEFT_LINE*%
X188747400Y-105943400D02*
X188747400Y-101625400D01*
X182332000Y-112358800D02*
X188747400Y-105943400D01*
X182332000Y-114705000D02*
X182332000Y-112358800D01*
%TO.N,LINE_IN*%
X179140600Y-54133000D02*
X177332000Y-55941600D01*
X177332000Y-55941600D02*
X177332000Y-58418600D01*
X189636400Y-54133000D02*
X179140600Y-54133000D01*
D53*
%TO.N,Net-(D10-Pad2)*%
X181965600Y-44912200D02*
X183235600Y-46182200D01*
X181965600Y-43230800D02*
X181965600Y-44912200D01*
%TO.N,LINE_IN*%
X189636400Y-45720000D02*
X192125600Y-43230800D01*
X189636400Y-47373000D02*
X189636400Y-45720000D01*
D54*
X177609600Y-70294400D02*
X177609600Y-64249000D01*
X177332000Y-76503400D02*
X177332000Y-70572000D01*
X177332000Y-70572000D02*
X177609600Y-70294400D01*
D55*
X189636400Y-54133000D02*
X189636400Y-47373000D01*
%TO.N,LINE*%
X189636400Y-70483000D02*
X189636400Y-63723000D01*
X189636400Y-73660000D02*
X189636400Y-70483000D01*
X188747400Y-74549000D02*
X189636400Y-73660000D01*
X188747400Y-76225400D02*
X188747400Y-74549000D01*
D52*
%TO.N,+5V*%
X175168800Y-33487600D02*
X175158400Y-33477200D01*
X175168800Y-38475200D02*
X175168800Y-33487600D01*
%TO.N,/Connectors/VO*%
X172628800Y-41015200D02*
X172628800Y-33487600D01*
X172628800Y-33487600D02*
X172618400Y-33477200D01*
D51*
%TO.N,Net-(R1-Pad2)*%
X130755200Y-81911000D02*
X130759200Y-81915000D01*
X126901500Y-81911000D02*
X130755200Y-81911000D01*
D52*
%TO.N,VCC*%
X162375100Y-57600100D02*
X162375100Y-58674000D01*
X151511000Y-56692800D02*
X161467800Y-56692800D01*
X148981400Y-59222400D02*
X151511000Y-56692800D01*
X148981400Y-59227800D02*
X148981400Y-59222400D01*
X161467800Y-56692800D02*
X162375100Y-57600100D01*
D51*
%TO.N,LCD_RS*%
X137173400Y-80911000D02*
X135226500Y-80911000D01*
X137972800Y-73660000D02*
X137972800Y-80111600D01*
X138633200Y-72999600D02*
X137972800Y-73660000D01*
X140140824Y-72999600D02*
X138633200Y-72999600D01*
X142214600Y-70925824D02*
X140140824Y-72999600D01*
X142214600Y-70916800D02*
X142214600Y-70925824D01*
X137972800Y-80111600D02*
X137173400Y-80911000D01*
X143306800Y-69824600D02*
X142214600Y-70916800D01*
X145787812Y-69824600D02*
X143306800Y-69824600D01*
X147218400Y-68394012D02*
X145787812Y-69824600D01*
X147218400Y-55245000D02*
X147218400Y-68394012D01*
X164410106Y-54406800D02*
X148056600Y-54406800D01*
X148056600Y-54406800D02*
X147218400Y-55245000D01*
X165498400Y-36533200D02*
X165498400Y-53318506D01*
X169646600Y-35941000D02*
X166090600Y-35941000D01*
X165498400Y-53318506D02*
X164410106Y-54406800D01*
X170078400Y-35509200D02*
X169646600Y-35941000D01*
X170078400Y-33477200D02*
X170078400Y-35509200D01*
X166090600Y-35941000D02*
X165498400Y-36533200D01*
%TO.N,FAN*%
X137153446Y-82411000D02*
X135226500Y-82411000D01*
X137607923Y-81956523D02*
X137153446Y-82411000D01*
%TO.N,+3.3V*%
X133287400Y-83439000D02*
X133814000Y-83965600D01*
X128268041Y-83439000D02*
X133287400Y-83439000D01*
X133814000Y-85823500D02*
X133814000Y-83965600D01*
X127740041Y-82911000D02*
X128268041Y-83439000D01*
X126901500Y-82911000D02*
X127740041Y-82911000D01*
X134283000Y-78911000D02*
X132454200Y-78911000D01*
%TO.N,GND*%
X133314000Y-84983900D02*
X133314000Y-85823500D01*
X132816600Y-84486500D02*
X133314000Y-84983900D01*
X128334200Y-82411000D02*
X128600200Y-82677000D01*
X126901500Y-82411000D02*
X128334200Y-82411000D01*
D53*
%TO.N,+3.3V*%
X125058800Y-70779000D02*
X125058800Y-72821800D01*
X121513600Y-64998200D02*
X121716400Y-64795400D01*
X129667000Y-64795400D02*
X128016400Y-64795400D01*
X130937000Y-63525400D02*
X129667000Y-64795400D01*
X130937000Y-62295400D02*
X130937000Y-63525400D01*
D51*
%TO.N,DOOR_SW*%
X108094400Y-67556000D02*
X107310000Y-66771600D01*
X107310000Y-66771600D02*
X107310000Y-64785000D01*
X116654200Y-67556000D02*
X108094400Y-67556000D01*
X122904906Y-73806706D02*
X116654200Y-67556000D01*
%TO.N,LIMIT_SW*%
X116200000Y-66394694D02*
X116200000Y-64785000D01*
X121560306Y-71755000D02*
X116200000Y-66394694D01*
X122072400Y-71755000D02*
X121560306Y-71755000D01*
X122825488Y-72508088D02*
X122072400Y-71755000D01*
X122825488Y-72525912D02*
X122825488Y-72508088D01*
%TO.N,LCD_EN*%
X164998400Y-53111400D02*
X164998400Y-33477200D01*
X164203000Y-53906800D02*
X164998400Y-53111400D01*
X147849494Y-53906800D02*
X164203000Y-53906800D01*
X146718400Y-55037894D02*
X147849494Y-53906800D01*
X146718400Y-68186906D02*
X146718400Y-55037894D01*
X145580706Y-69324600D02*
X146718400Y-68186906D01*
X143099694Y-69324600D02*
X145580706Y-69324600D01*
X141714600Y-70718718D02*
X141714600Y-70709694D01*
X138426094Y-72499600D02*
X139933718Y-72499600D01*
X137472800Y-73452894D02*
X138426094Y-72499600D01*
X137472800Y-79904494D02*
X137472800Y-73452894D01*
X136966294Y-80411000D02*
X137472800Y-79904494D01*
X135226500Y-80411000D02*
X136966294Y-80411000D01*
X139933718Y-72499600D02*
X141714600Y-70718718D01*
X141714600Y-70709694D02*
X143099694Y-69324600D01*
D52*
%TO.N,+5V*%
X114046000Y-101955600D02*
X123250800Y-101955600D01*
X113030000Y-100939600D02*
X114046000Y-101955600D01*
X113030000Y-99187000D02*
X113030000Y-100939600D01*
%TO.N,VCC*%
X154909600Y-75514200D02*
X158592600Y-71831200D01*
X151237000Y-75514200D02*
X154909600Y-75514200D01*
X148879800Y-77871400D02*
X151237000Y-75514200D01*
D53*
X158592600Y-73604200D02*
X162407600Y-77419200D01*
X158592600Y-71831200D02*
X158592600Y-73604200D01*
D52*
X158643400Y-110850600D02*
X158643400Y-109016800D01*
X151409400Y-112674400D02*
X156819600Y-112674400D01*
X156819600Y-112674400D02*
X158643400Y-110850600D01*
X149032200Y-115051600D02*
X151409400Y-112674400D01*
X149032200Y-115057000D02*
X149032200Y-115051600D01*
X158541800Y-91978400D02*
X158541800Y-90424000D01*
X151536400Y-93802200D02*
X156718000Y-93802200D01*
X148930600Y-96413400D02*
X148930600Y-96408000D01*
X148930600Y-96408000D02*
X151536400Y-93802200D01*
X156718000Y-93802200D02*
X158541800Y-91978400D01*
D53*
%TO.N,Net-(D9-Pad2)*%
X157576500Y-97403900D02*
X157576500Y-101485400D01*
X156133800Y-95961200D02*
X157576500Y-97403900D01*
X152247600Y-95961200D02*
X156133800Y-95961200D01*
D51*
%TO.N,HEATER*%
X139141200Y-81483200D02*
X139141200Y-74676000D01*
X137713400Y-82911000D02*
X139141200Y-81483200D01*
X135226500Y-82911000D02*
X137713400Y-82911000D01*
%TO.N,DRUM_LEFT*%
X136670894Y-83911000D02*
X135226500Y-83911000D01*
X137109200Y-110947200D02*
X137109200Y-84349306D01*
X138023600Y-111861600D02*
X137109200Y-110947200D01*
X139293600Y-111861600D02*
X138023600Y-111861600D01*
X137109200Y-84349306D02*
X136670894Y-83911000D01*
%TO.N,DRUM_RIGHT*%
X137617200Y-84150200D02*
X136878000Y-83411000D01*
X137617200Y-92608400D02*
X137617200Y-84150200D01*
X138176000Y-93167200D02*
X137617200Y-92608400D01*
X136878000Y-83411000D02*
X135226500Y-83411000D01*
X139192000Y-93167200D02*
X138176000Y-93167200D01*
%TO.N,BUZZER*%
X129032000Y-80924400D02*
X128518600Y-80411000D01*
X128518600Y-80411000D02*
X126901500Y-80411000D01*
%TO.N,+3.3V*%
X129457000Y-78911000D02*
X128732200Y-78911000D01*
X135226500Y-78911000D02*
X134283000Y-78911000D01*
X128732200Y-78911000D02*
X128593400Y-78772200D01*
X128593400Y-78772200D02*
X128314000Y-78492800D01*
X127895800Y-78911000D02*
X126901500Y-78911000D01*
X128314000Y-77498500D02*
X128314000Y-78492800D01*
X128314000Y-78492800D02*
X127895800Y-78911000D01*
%TO.N,DOOR_SW*%
X125043639Y-83417785D02*
X125050424Y-83411000D01*
X124524900Y-83417785D02*
X125043639Y-83417785D01*
X125050424Y-83411000D02*
X126901500Y-83411000D01*
%TO.N,LIMIT_SW*%
X125257531Y-83911000D02*
X126901500Y-83911000D01*
X124510800Y-84657731D02*
X125257531Y-83911000D01*
%TO.N,SEL_ROT_SW*%
X126062959Y-84411000D02*
X126901500Y-84411000D01*
X125069600Y-85404359D02*
X126062959Y-84411000D01*
X125069600Y-95656400D02*
X125069600Y-85404359D01*
X110388400Y-96570800D02*
X124155200Y-96570800D01*
X109860000Y-97099200D02*
X110388400Y-96570800D01*
X124155200Y-96570800D02*
X125069600Y-95656400D01*
X109860000Y-98791000D02*
X109860000Y-97099200D01*
%TO.N,HEATER_SW*%
X128314000Y-86938252D02*
X128314000Y-85823500D01*
X125679200Y-89573052D02*
X128314000Y-86938252D01*
X125679200Y-97891600D02*
X125679200Y-89573052D01*
X124830600Y-98740200D02*
X125679200Y-97891600D01*
X118724600Y-98740200D02*
X124830600Y-98740200D01*
D56*
%TO.N,MISO1*%
X112649000Y-105537000D02*
X110933000Y-105537000D01*
X127055400Y-105395350D02*
X126093750Y-106357000D01*
X127055400Y-92409800D02*
X127055400Y-105395350D01*
X126593600Y-91948000D02*
X127055400Y-92409800D01*
X126093750Y-106357000D02*
X113469000Y-106357000D01*
X113469000Y-106357000D02*
X112649000Y-105537000D01*
X126593600Y-91135200D02*
X126593600Y-91948000D01*
%TO.N,CS1*%
X126280146Y-106807000D02*
X110933000Y-106807000D01*
X127505400Y-105581746D02*
X126280146Y-106807000D01*
X127505400Y-88418604D02*
X127505400Y-105581746D01*
X128814000Y-87110004D02*
X127505400Y-88418604D01*
X128814000Y-85823500D02*
X128814000Y-87110004D01*
%TO.N,SCK1*%
X129336800Y-85846300D02*
X129314000Y-85823500D01*
X127955400Y-88605000D02*
X129336800Y-87223600D01*
X129336800Y-87223600D02*
X129336800Y-85846300D01*
X127955400Y-105768142D02*
X127955400Y-88605000D01*
X126466542Y-107257000D02*
X127955400Y-105768142D01*
X113469000Y-107257000D02*
X126466542Y-107257000D01*
X110933000Y-108077000D02*
X112649000Y-108077000D01*
X112649000Y-108077000D02*
X113469000Y-107257000D01*
D52*
%TO.N,Net-(Q5-Pad2)*%
X131673600Y-96266000D02*
X132283200Y-96875600D01*
X131673600Y-93319600D02*
X131673600Y-96266000D01*
X132283200Y-96875600D02*
X135072800Y-96875600D01*
D56*
%TO.N,MISO1*%
X129814000Y-87912420D02*
X129310210Y-88416210D01*
X129814000Y-85823500D02*
X129814000Y-87912420D01*
%TO.N,FN_KEY_SW*%
X129438490Y-90070689D02*
X130814000Y-88695179D01*
X130814000Y-88695179D02*
X130814000Y-85823500D01*
%TO.N,LOW_KEY_SW*%
X130657600Y-90068400D02*
X131314000Y-89412000D01*
X131314000Y-89412000D02*
X131314000Y-85823500D01*
D51*
%TO.N,HIGH_KEY_SW*%
X132314000Y-90549694D02*
X132314000Y-85823500D01*
X129434494Y-90940000D02*
X131923694Y-90940000D01*
X131923694Y-90940000D02*
X132314000Y-90549694D01*
X128430400Y-91944094D02*
X129434494Y-90940000D01*
X125530894Y-108864400D02*
X128430400Y-105964894D01*
X128430400Y-105964894D02*
X128430400Y-91944094D01*
X117398800Y-108864400D02*
X125530894Y-108864400D01*
X116835000Y-109428200D02*
X117398800Y-108864400D01*
X116835000Y-111013000D02*
X116835000Y-109428200D01*
%TO.N,MID_KEY_SW*%
X128930400Y-92151200D02*
X129641600Y-91440000D01*
X128930400Y-106172000D02*
X128930400Y-92151200D01*
X125725000Y-109377400D02*
X128930400Y-106172000D01*
X132130800Y-91440000D02*
X132814000Y-90756800D01*
X132814000Y-90756800D02*
X132814000Y-85823500D01*
X125725000Y-111013000D02*
X125725000Y-109377400D01*
X129641600Y-91440000D02*
X132130800Y-91440000D01*
D53*
%TO.N,VCC*%
X158541800Y-92095400D02*
X162407600Y-95961200D01*
X158541800Y-90424000D02*
X158541800Y-92095400D01*
X162375100Y-58674000D02*
X162375100Y-63233500D01*
X158643400Y-110993000D02*
X162458400Y-114808000D01*
X161326500Y-120052800D02*
X161326500Y-122950300D01*
X162375100Y-63233500D02*
X161359600Y-64249000D01*
X158592600Y-69550200D02*
X158592600Y-71831200D01*
D54*
X107696000Y-43688000D02*
X107696000Y-42418000D01*
D53*
X161326500Y-122950300D02*
X158750000Y-125526800D01*
X162458400Y-118920900D02*
X161326500Y-120052800D01*
X162407600Y-95961200D02*
X162407600Y-100404300D01*
X161359600Y-66783200D02*
X158592600Y-69550200D01*
X161326500Y-101485400D02*
X161326500Y-103341500D01*
D54*
X108482251Y-45607600D02*
X110286800Y-47412149D01*
X107696000Y-42418000D02*
X110998000Y-42418000D01*
D53*
X161359600Y-64249000D02*
X161359600Y-66783200D01*
X161326500Y-103341500D02*
X158643400Y-106024600D01*
X158643400Y-109016800D02*
X158643400Y-110993000D01*
X158750000Y-125526800D02*
X158750000Y-127762000D01*
X162458400Y-114808000D02*
X162458400Y-118920900D01*
X162407600Y-100404300D02*
X161326500Y-101485400D01*
D54*
X105776400Y-45607600D02*
X107696000Y-43688000D01*
X103886000Y-45607600D02*
X105776400Y-45607600D01*
D53*
X158643400Y-106024600D02*
X158643400Y-109016800D01*
D54*
X103886000Y-45607600D02*
X108482251Y-45607600D01*
D52*
%TO.N,GND*%
X105983000Y-104267000D02*
X104063800Y-104267000D01*
X105983000Y-105537000D02*
X105983000Y-104267000D01*
D53*
X122428000Y-44891000D02*
X122428000Y-35741000D01*
D52*
X104063800Y-104267000D02*
X104038400Y-104292400D01*
%TO.N,+5V*%
X107746800Y-101854000D02*
X108559600Y-102666800D01*
D51*
X104140000Y-100036000D02*
X104140000Y-99187000D01*
D53*
X142138400Y-36677600D02*
X132959349Y-45856651D01*
D52*
X108559600Y-107238800D02*
X107721400Y-108077000D01*
D51*
X105958000Y-101854000D02*
X104140000Y-100036000D01*
D52*
X130657600Y-45704251D02*
X130657600Y-47447200D01*
X107721400Y-108077000D02*
X105983000Y-108077000D01*
D53*
X142138400Y-33477200D02*
X142138400Y-36677600D01*
D52*
X105958000Y-101854000D02*
X107746800Y-101854000D01*
X130048000Y-45094651D02*
X130657600Y-45704251D01*
D53*
X132959349Y-45856651D02*
X132959349Y-48006000D01*
D52*
X108559600Y-102666800D02*
X108559600Y-107238800D01*
X130048000Y-42164000D02*
X130048000Y-45094651D01*
D51*
%TO.N,Net-(C1-Pad1)*%
X123693000Y-80911000D02*
X122809000Y-80027000D01*
D52*
X119713400Y-80027000D02*
X118364000Y-78677600D01*
X122809000Y-80027000D02*
X119713400Y-80027000D01*
D51*
X126901500Y-80911000D02*
X123693000Y-80911000D01*
D52*
%TO.N,Net-(C2-Pad2)*%
X122809000Y-82226000D02*
X119715600Y-82226000D01*
D51*
X123624000Y-81411000D02*
X122809000Y-82226000D01*
X126901500Y-81411000D02*
X123624000Y-81411000D01*
D52*
X119715600Y-82226000D02*
X118364000Y-83577600D01*
D54*
%TO.N,Net-(D3-Pad2)*%
X97403100Y-45940700D02*
X100007700Y-45940700D01*
X101447600Y-44500800D02*
X101447600Y-39776400D01*
X114300000Y-35712400D02*
X114300000Y-32258000D01*
X101447600Y-39776400D02*
X103428800Y-37795200D01*
X100007700Y-45940700D02*
X101447600Y-44500800D01*
X112217200Y-37795200D02*
X114300000Y-35712400D01*
X110998000Y-32258000D02*
X114300000Y-32258000D01*
X103428800Y-37795200D02*
X112217200Y-37795200D01*
D52*
%TO.N,Net-(D6-Pad1)*%
X154889200Y-129082800D02*
X156210000Y-127762000D01*
X148844000Y-129082800D02*
X154889200Y-129082800D01*
X143510000Y-127373100D02*
X147134300Y-127373100D01*
X147134300Y-127373100D02*
X148844000Y-129082800D01*
%TO.N,FN_KEY_SW_IN*%
X97663000Y-120777000D02*
X95885000Y-120777000D01*
X104541000Y-124714000D02*
X101600000Y-124714000D01*
X101600000Y-124714000D02*
X97663000Y-120777000D01*
%TO.N,HIGH_KEY_SW_IN*%
X109621000Y-124714000D02*
X109621000Y-122789000D01*
X109621000Y-122789000D02*
X111633000Y-120777000D01*
X111633000Y-120777000D02*
X113665000Y-120777000D01*
%TO.N,LOW_KEY_SW_IN*%
X107081000Y-123083000D02*
X104775000Y-120777000D01*
X107081000Y-124714000D02*
X107081000Y-123083000D01*
%TO.N,Net-(D7-Pad1)*%
X156103400Y-110545800D02*
X156103400Y-109016800D01*
X155194000Y-111455200D02*
X156103400Y-110545800D01*
X143510000Y-108712000D02*
X149148800Y-108712000D01*
X151892000Y-111455200D02*
X155194000Y-111455200D01*
X149148800Y-108712000D02*
X151892000Y-111455200D01*
D53*
%TO.N,Net-(D8-Pad2)*%
X157576500Y-116743500D02*
X157576500Y-120052800D01*
X152482200Y-121412000D02*
X156217300Y-121412000D01*
X157576500Y-122179100D02*
X157576500Y-120052800D01*
X153670000Y-126085600D02*
X157576500Y-122179100D01*
X156217300Y-121412000D02*
X157576500Y-120052800D01*
X152298400Y-114808000D02*
X155651200Y-114808000D01*
X153670000Y-127373100D02*
X153670000Y-126085600D01*
X155651200Y-114808000D02*
X157581600Y-116738400D01*
X157581600Y-116738400D02*
X157576500Y-116743500D01*
%TO.N,Net-(D9-Pad2)*%
X153670000Y-107580630D02*
X157576500Y-103674130D01*
X157576500Y-103674130D02*
X157576500Y-101485400D01*
X156242700Y-102819200D02*
X157576500Y-101485400D01*
X153670000Y-108712000D02*
X153670000Y-107580630D01*
X152482200Y-102819200D02*
X156242700Y-102819200D01*
D52*
%TO.N,Net-(D11-Pad1)*%
X143408400Y-71475600D02*
X148691600Y-71475600D01*
X156052600Y-73309400D02*
X156052600Y-71831200D01*
X148691600Y-71475600D02*
X151384000Y-74168000D01*
X155194000Y-74168000D02*
X156052600Y-73309400D01*
X151384000Y-74168000D02*
X155194000Y-74168000D01*
D53*
%TO.N,Net-(D12-Pad2)*%
X153568400Y-70104000D02*
X157609600Y-66062800D01*
X152215100Y-58674000D02*
X155803600Y-58674000D01*
X155803600Y-58674000D02*
X157609600Y-60480000D01*
X152348100Y-65582800D02*
X156275800Y-65582800D01*
X156275800Y-65582800D02*
X157609600Y-64249000D01*
X157609600Y-60480000D02*
X157609600Y-64249000D01*
X153568400Y-71475600D02*
X153568400Y-70104000D01*
X157609600Y-66062800D02*
X157609600Y-64249000D01*
D52*
%TO.N,Net-(D13-Pad1)*%
X143357600Y-90068400D02*
X149098000Y-90068400D01*
X149098000Y-90068400D02*
X151688800Y-92659200D01*
X151688800Y-92659200D02*
X155041600Y-92659200D01*
X156001800Y-91699000D02*
X156001800Y-90424000D01*
X155041600Y-92659200D02*
X156001800Y-91699000D01*
D53*
%TO.N,Net-(Q1-Pad3)*%
X149453600Y-123952000D02*
X152482200Y-123952000D01*
%TO.N,Net-(Q2-Pad3)*%
X149402800Y-105359200D02*
X152482200Y-105359200D01*
%TO.N,Net-(Q3-Pad3)*%
X149421100Y-68122800D02*
X152348100Y-68122800D01*
%TO.N,Net-(Q4-Pad3)*%
X149301200Y-86715600D02*
X152233700Y-86715600D01*
D52*
%TO.N,TEMP+*%
X99693000Y-106807000D02*
X98786500Y-105900500D01*
X105983000Y-106807000D02*
X99693000Y-106807000D01*
%TO.N,Net-(R2-Pad2)*%
X124128000Y-42242000D02*
X124128000Y-44891000D01*
X130048000Y-32004000D02*
X133350000Y-32004000D01*
X130048000Y-39624000D02*
X128524000Y-41148000D01*
X130048000Y-32004000D02*
X130048000Y-39624000D01*
X125222000Y-41148000D02*
X124128000Y-42242000D01*
X128524000Y-41148000D02*
X125222000Y-41148000D01*
%TO.N,Net-(R4-Pad2)*%
X95885000Y-115463000D02*
X99055000Y-118633000D01*
X95885000Y-110617000D02*
X95885000Y-115463000D01*
D51*
%TO.N,Net-(R5-Pad2)*%
X104140000Y-89027000D02*
X104140000Y-92710000D01*
X109860000Y-93644800D02*
X109860000Y-91171000D01*
X105511600Y-94081600D02*
X109423200Y-94081600D01*
X109423200Y-94081600D02*
X109860000Y-93644800D01*
X104140000Y-92710000D02*
X105511600Y-94081600D01*
D52*
%TO.N,Net-(R7-Pad2)*%
X122555000Y-110617000D02*
X122555000Y-115463000D01*
X122555000Y-115463000D02*
X125725000Y-118633000D01*
%TO.N,DOOR_SW_IN*%
X98044000Y-75438000D02*
X99669600Y-75438000D01*
D51*
X108859000Y-78339000D02*
X109850000Y-77348000D01*
X104140000Y-78339000D02*
X108859000Y-78339000D01*
D52*
X102570600Y-78339000D02*
X104140000Y-78339000D01*
X99669600Y-75438000D02*
X102570600Y-78339000D01*
D51*
X109850000Y-77348000D02*
X109850000Y-72405000D01*
D52*
%TO.N,LIMIT_SW_IN*%
X98044000Y-80438000D02*
X98065600Y-80416400D01*
D51*
X110439200Y-80111600D02*
X110439200Y-76047600D01*
D52*
X101142800Y-80416400D02*
X101650800Y-80924400D01*
D51*
X118059200Y-74777600D02*
X118740000Y-74096800D01*
X118740000Y-74096800D02*
X118740000Y-72405000D01*
D52*
X101650800Y-80924400D02*
X104094600Y-80924400D01*
D51*
X110439200Y-76047600D02*
X111709200Y-74777600D01*
D52*
X98065600Y-80416400D02*
X101142800Y-80416400D01*
D51*
X109671800Y-80879000D02*
X110439200Y-80111600D01*
X111709200Y-74777600D02*
X118059200Y-74777600D01*
X104140000Y-80879000D02*
X109671800Y-80879000D01*
D52*
X104094600Y-80924400D02*
X104140000Y-80879000D01*
D51*
%TO.N,HEATER_SW_IN*%
X116184600Y-91120200D02*
X116184600Y-88854200D01*
X114051400Y-83419000D02*
X104140000Y-83419000D01*
D52*
X98044000Y-85438000D02*
X100286800Y-85438000D01*
D51*
X116184600Y-88854200D02*
X115265200Y-87934800D01*
D52*
X100286800Y-85438000D02*
X102305800Y-83419000D01*
X102305800Y-83419000D02*
X104140000Y-83419000D01*
D51*
X115265200Y-87934800D02*
X115265200Y-84632800D01*
X115265200Y-84632800D02*
X114051400Y-83419000D01*
D52*
%TO.N,SEL_ROT_SW_IN*%
X103321800Y-85959000D02*
X104140000Y-85959000D01*
D51*
X107320000Y-87000000D02*
X106279000Y-85959000D01*
X106279000Y-85959000D02*
X104140000Y-85959000D01*
D52*
X98044000Y-90438000D02*
X98842800Y-90438000D01*
D51*
X107320000Y-91171000D02*
X107320000Y-87000000D01*
D52*
X98842800Y-90438000D02*
X103321800Y-85959000D01*
%TO.N,Net-(R8-Pad2)*%
X104775000Y-110617000D02*
X104775000Y-115463000D01*
X104775000Y-115463000D02*
X107945000Y-118633000D01*
D51*
%TO.N,Net-(R9-Pad2)*%
X113030000Y-93319600D02*
X113792000Y-94081600D01*
X118160800Y-94081600D02*
X118724600Y-93517800D01*
X113030000Y-89027000D02*
X113030000Y-93319600D01*
X118724600Y-93517800D02*
X118724600Y-91120200D01*
X113792000Y-94081600D02*
X118160800Y-94081600D01*
D52*
%TO.N,Net-(R10-Pad2)*%
X107310000Y-69667200D02*
X107310000Y-72405000D01*
X104140000Y-62611000D02*
X104140000Y-66497200D01*
X104140000Y-66497200D02*
X107310000Y-69667200D01*
%TO.N,Net-(R11-Pad2)*%
X113665000Y-110617000D02*
X113665000Y-115463000D01*
X113665000Y-115463000D02*
X116835000Y-118633000D01*
%TO.N,Net-(R12-Pad2)*%
X141412200Y-115057000D02*
X143667400Y-115057000D01*
X146862800Y-111861600D02*
X149453600Y-111861600D01*
X143667400Y-115057000D02*
X146862800Y-111861600D01*
%TO.N,Net-(R13-Pad2)*%
X141310600Y-96413400D02*
X143769000Y-96413400D01*
X147015200Y-93167200D02*
X149352000Y-93167200D01*
X143769000Y-96413400D02*
X147015200Y-93167200D01*
%TO.N,Net-(R14-Pad2)*%
X145084800Y-120853200D02*
X149453600Y-120853200D01*
X139293600Y-123952000D02*
X141986000Y-123952000D01*
X149453600Y-120853200D02*
X149453600Y-119430800D01*
X149032200Y-119009400D02*
X149032200Y-117597000D01*
X141986000Y-123952000D02*
X145084800Y-120853200D01*
X149453600Y-119430800D02*
X149032200Y-119009400D01*
%TO.N,Net-(R15-Pad2)*%
X149402800Y-102209600D02*
X149402800Y-100939600D01*
X148930600Y-100467400D02*
X148930600Y-98953400D01*
X142494000Y-105359200D02*
X145643600Y-102209600D01*
X139242800Y-105359200D02*
X142494000Y-105359200D01*
X145643600Y-102209600D02*
X149402800Y-102209600D01*
X149402800Y-100939600D02*
X148930600Y-100467400D01*
%TO.N,Net-(R22-Pad2)*%
X149402800Y-63652400D02*
X148981400Y-63231000D01*
X149402800Y-64973200D02*
X149402800Y-63652400D01*
X148981400Y-63231000D02*
X148981400Y-61767800D01*
%TO.N,Net-(R23-Pad2)*%
X143362600Y-77871400D02*
X146558000Y-74676000D01*
X146558000Y-74676000D02*
X149301200Y-74676000D01*
X141259800Y-77871400D02*
X143362600Y-77871400D01*
%TO.N,Net-(R26-Pad2)*%
X149301200Y-82194400D02*
X148879800Y-81773000D01*
X142951200Y-86715600D02*
X146050000Y-83616800D01*
X148879800Y-81773000D02*
X148879800Y-80411400D01*
X139141200Y-86715600D02*
X142951200Y-86715600D01*
X149301200Y-83616800D02*
X149301200Y-82194400D01*
X146050000Y-83616800D02*
X149301200Y-83616800D01*
%TD*%
%TA.AperFunction,Conductor*%
%TO.N,+5V*%
G36*
X133874972Y-46992421D02*
G01*
X133953025Y-47007947D01*
X133998442Y-47026759D01*
X134054095Y-47063945D01*
X134088855Y-47098705D01*
X134126041Y-47154358D01*
X134144854Y-47199777D01*
X134160379Y-47277829D01*
X134162800Y-47302410D01*
X134162800Y-47806765D01*
X134162321Y-47817747D01*
X134145851Y-48006000D01*
X134146330Y-48011475D01*
X134162321Y-48194253D01*
X134162800Y-48205235D01*
X134162800Y-54957990D01*
X134160379Y-54982571D01*
X134144854Y-55060623D01*
X134126041Y-55106042D01*
X134088856Y-55161694D01*
X134054095Y-55196455D01*
X133998442Y-55233641D01*
X133953025Y-55252453D01*
X133884676Y-55266049D01*
X133874971Y-55267979D01*
X133850390Y-55270400D01*
X131978400Y-55270400D01*
X131978400Y-58107590D01*
X131975979Y-58132171D01*
X131960454Y-58210223D01*
X131941641Y-58255642D01*
X131904456Y-58311294D01*
X131869695Y-58346055D01*
X131814042Y-58383241D01*
X131768625Y-58402053D01*
X131700276Y-58415649D01*
X131690571Y-58417579D01*
X131665990Y-58420000D01*
X128676400Y-58420000D01*
X128677178Y-58720775D01*
X128677178Y-58720776D01*
X128681064Y-60222555D01*
X128681117Y-60243141D01*
X128678728Y-60267884D01*
X128667509Y-60324666D01*
X128663202Y-60346462D01*
X128644265Y-60392177D01*
X128606770Y-60448132D01*
X128571689Y-60483030D01*
X128515538Y-60520231D01*
X128469725Y-60538927D01*
X128391066Y-60554040D01*
X128366305Y-60556299D01*
X126538574Y-60541977D01*
X125408524Y-60533122D01*
X122508793Y-60510400D01*
X122484364Y-60507813D01*
X122459686Y-60502730D01*
X122406816Y-60491839D01*
X122361741Y-60472863D01*
X122306548Y-60435606D01*
X122272093Y-60400895D01*
X122235244Y-60345427D01*
X122216603Y-60300218D01*
X122201202Y-60222551D01*
X122198796Y-60198103D01*
X122193538Y-48318544D01*
X122195950Y-48293955D01*
X122211449Y-48215878D01*
X122230252Y-48170440D01*
X122267432Y-48114763D01*
X122302197Y-48079983D01*
X122357852Y-48042782D01*
X122403283Y-48023957D01*
X122481361Y-48008422D01*
X122505948Y-48006000D01*
X128625600Y-48006000D01*
X129807000Y-47290000D01*
X130222974Y-47037895D01*
X130238209Y-47030026D01*
X130289243Y-47007927D01*
X130322201Y-46998719D01*
X130356252Y-46994052D01*
X130377299Y-46991167D01*
X130394409Y-46990000D01*
X133850390Y-46990000D01*
X133874972Y-46992421D01*
G37*
%TD.AperFunction*%
%TD*%
%TA.AperFunction,Conductor*%
%TO.N,+3.3V*%
G36*
X126204172Y-61495821D02*
G01*
X126282225Y-61511347D01*
X126327642Y-61530159D01*
X126383295Y-61567345D01*
X126418055Y-61602105D01*
X126455241Y-61657758D01*
X126474054Y-61703177D01*
X126489079Y-61778715D01*
X126491500Y-61803296D01*
X126491500Y-63373134D01*
X126491834Y-63376206D01*
X126492000Y-63382365D01*
X126492000Y-63830200D01*
X126914665Y-63830200D01*
X126928272Y-63830937D01*
X126948467Y-63833131D01*
X126948471Y-63833131D01*
X126951866Y-63833500D01*
X129048134Y-63833500D01*
X129051529Y-63833131D01*
X129051533Y-63833131D01*
X129071728Y-63830937D01*
X129085335Y-63830200D01*
X129125990Y-63830200D01*
X129150572Y-63832621D01*
X129228625Y-63848147D01*
X129274042Y-63866959D01*
X129329695Y-63904145D01*
X129364455Y-63938905D01*
X129401641Y-63994558D01*
X129420454Y-64039977D01*
X129435979Y-64118029D01*
X129438400Y-64142610D01*
X129438400Y-65549790D01*
X129435979Y-65574371D01*
X129420454Y-65652423D01*
X129401641Y-65697842D01*
X129364456Y-65753494D01*
X129329695Y-65788255D01*
X129274042Y-65825441D01*
X129228625Y-65844253D01*
X129160276Y-65857849D01*
X129150571Y-65859779D01*
X129125990Y-65862200D01*
X126442000Y-65862200D01*
X126442000Y-68140590D01*
X126439579Y-68165171D01*
X126424054Y-68243223D01*
X126405241Y-68288642D01*
X126368056Y-68344294D01*
X126333295Y-68379055D01*
X126277642Y-68416241D01*
X126232225Y-68435053D01*
X126163876Y-68448649D01*
X126154171Y-68450579D01*
X126129590Y-68453000D01*
X120759210Y-68453000D01*
X120734629Y-68450579D01*
X120724924Y-68448649D01*
X120656575Y-68435053D01*
X120611158Y-68416241D01*
X120555505Y-68379055D01*
X120520744Y-68344294D01*
X120483559Y-68288642D01*
X120464746Y-68243223D01*
X120449221Y-68165171D01*
X120446800Y-68140590D01*
X120446800Y-61805810D01*
X120449221Y-61781229D01*
X120464746Y-61703177D01*
X120483559Y-61657758D01*
X120520745Y-61602105D01*
X120555505Y-61567345D01*
X120611158Y-61530159D01*
X120656575Y-61511347D01*
X120734628Y-61495821D01*
X120759210Y-61493400D01*
X126179590Y-61493400D01*
X126204172Y-61495821D01*
G37*
%TD.AperFunction*%
%TD*%
%TA.AperFunction,Conductor*%
%TO.N,GND*%
G36*
X131868372Y-66419021D02*
G01*
X131946425Y-66434547D01*
X131991842Y-66453359D01*
X132047495Y-66490545D01*
X132082255Y-66525305D01*
X132119441Y-66580958D01*
X132138254Y-66626377D01*
X132153779Y-66704429D01*
X132156200Y-66729010D01*
X132156200Y-68165990D01*
X132153779Y-68190571D01*
X132138254Y-68268623D01*
X132119441Y-68314042D01*
X132082256Y-68369694D01*
X132047495Y-68404455D01*
X131991842Y-68441641D01*
X131946425Y-68460453D01*
X131878076Y-68474049D01*
X131868371Y-68475979D01*
X131843790Y-68478400D01*
X127309210Y-68478400D01*
X127284629Y-68475979D01*
X127274924Y-68474049D01*
X127206575Y-68460453D01*
X127161158Y-68441641D01*
X127105505Y-68404455D01*
X127070744Y-68369694D01*
X127033559Y-68314042D01*
X127014746Y-68268623D01*
X126999221Y-68190571D01*
X126996800Y-68165990D01*
X126996800Y-66729010D01*
X126999221Y-66704429D01*
X127014746Y-66626377D01*
X127033559Y-66580958D01*
X127070745Y-66525305D01*
X127105505Y-66490545D01*
X127161158Y-66453359D01*
X127206575Y-66434547D01*
X127284628Y-66419021D01*
X127309210Y-66416600D01*
X131843790Y-66416600D01*
X131868372Y-66419021D01*
G37*
%TD.AperFunction*%
%TD*%
%TA.AperFunction,Conductor*%
%TO.N,Net-(D5-Pad1)*%
G36*
X121026572Y-42318821D02*
G01*
X121104625Y-42334347D01*
X121150042Y-42353159D01*
X121205695Y-42390345D01*
X121240455Y-42425105D01*
X121277641Y-42480758D01*
X121296454Y-42526177D01*
X121311979Y-42604229D01*
X121314400Y-42628810D01*
X121314400Y-60176590D01*
X121311979Y-60201171D01*
X121296454Y-60279223D01*
X121277641Y-60324642D01*
X121240456Y-60380294D01*
X121205695Y-60415055D01*
X121150042Y-60452241D01*
X121104625Y-60471053D01*
X121036276Y-60484649D01*
X121026571Y-60486579D01*
X121001990Y-60489000D01*
X115222010Y-60489000D01*
X115197429Y-60486579D01*
X115187724Y-60484649D01*
X115119375Y-60471053D01*
X115073958Y-60452241D01*
X115018305Y-60415055D01*
X114983544Y-60380294D01*
X114946359Y-60324642D01*
X114927546Y-60279223D01*
X114912021Y-60201171D01*
X114909600Y-60176590D01*
X114909600Y-56743600D01*
X110548410Y-56743600D01*
X110523829Y-56741179D01*
X110514124Y-56739249D01*
X110445775Y-56725653D01*
X110400358Y-56706841D01*
X110344705Y-56669655D01*
X110309944Y-56634894D01*
X110272759Y-56579242D01*
X110253946Y-56533823D01*
X110238421Y-56455771D01*
X110236000Y-56431190D01*
X110236000Y-53804810D01*
X110238421Y-53780229D01*
X110253946Y-53702177D01*
X110272759Y-53656758D01*
X110309945Y-53601105D01*
X110344705Y-53566345D01*
X110400358Y-53529159D01*
X110445775Y-53510347D01*
X110523828Y-53494821D01*
X110548410Y-53492400D01*
X114932200Y-53492400D01*
X114932200Y-48288610D01*
X114934621Y-48264029D01*
X114950146Y-48185977D01*
X114968959Y-48140558D01*
X115006145Y-48084905D01*
X115040905Y-48050145D01*
X115096558Y-48012959D01*
X115141975Y-47994147D01*
X115220028Y-47978621D01*
X115244610Y-47976200D01*
X120164600Y-47976200D01*
X120164600Y-42628810D01*
X120167021Y-42604229D01*
X120182546Y-42526177D01*
X120201359Y-42480758D01*
X120238545Y-42425105D01*
X120273305Y-42390345D01*
X120328958Y-42353159D01*
X120374375Y-42334347D01*
X120452428Y-42318821D01*
X120477010Y-42316400D01*
X121001990Y-42316400D01*
X121026572Y-42318821D01*
G37*
%TD.AperFunction*%
%TD*%
%TA.AperFunction,Conductor*%
%TO.N,VCC*%
G36*
X119321972Y-42369621D02*
G01*
X119400025Y-42385147D01*
X119445442Y-42403959D01*
X119501095Y-42441145D01*
X119535855Y-42475905D01*
X119573041Y-42531558D01*
X119591854Y-42576977D01*
X119607379Y-42655029D01*
X119609800Y-42679610D01*
X119609800Y-47134790D01*
X119607379Y-47159371D01*
X119591854Y-47237423D01*
X119573041Y-47282842D01*
X119535856Y-47338494D01*
X119501095Y-47373255D01*
X119445442Y-47410441D01*
X119400025Y-47429253D01*
X119331676Y-47442849D01*
X119321971Y-47444779D01*
X119297390Y-47447200D01*
X114329800Y-47447200D01*
X114329800Y-48303190D01*
X114327379Y-48327771D01*
X114311854Y-48405823D01*
X114293041Y-48451242D01*
X114255856Y-48506894D01*
X114221095Y-48541655D01*
X114165442Y-48578841D01*
X114120025Y-48597653D01*
X114051676Y-48611249D01*
X114041971Y-48613179D01*
X114017390Y-48615600D01*
X110486035Y-48615600D01*
X110475053Y-48615121D01*
X110292275Y-48599130D01*
X110286800Y-48598651D01*
X110281325Y-48599130D01*
X110098547Y-48615121D01*
X110087565Y-48615600D01*
X109583210Y-48615600D01*
X109558629Y-48613179D01*
X109548924Y-48611249D01*
X109480575Y-48597653D01*
X109435158Y-48578841D01*
X109379505Y-48541655D01*
X109344744Y-48506894D01*
X109307559Y-48451242D01*
X109288746Y-48405823D01*
X109273221Y-48327771D01*
X109270800Y-48303190D01*
X109270800Y-44508410D01*
X109273221Y-44483829D01*
X109288746Y-44405777D01*
X109307559Y-44360358D01*
X109344745Y-44304705D01*
X109379505Y-44269945D01*
X109435158Y-44232759D01*
X109480575Y-44213947D01*
X109558628Y-44198421D01*
X109583210Y-44196000D01*
X116332000Y-44196000D01*
X116332000Y-42679610D01*
X116334421Y-42655029D01*
X116349946Y-42576977D01*
X116368759Y-42531558D01*
X116405945Y-42475905D01*
X116440705Y-42441145D01*
X116496358Y-42403959D01*
X116541775Y-42385147D01*
X116619828Y-42369621D01*
X116644410Y-42367200D01*
X119297390Y-42367200D01*
X119321972Y-42369621D01*
G37*
%TD.AperFunction*%
%TD*%
M02*
