%TF.GenerationSoftware,KiCad,Pcbnew,(6.0.8)*%
%TF.CreationDate,2023-07-19T02:04:08+05:30*%
%TF.ProjectId,STM32DryerPCB_V2,53544d33-3244-4727-9965-725043425f56,rev?*%
%TF.SameCoordinates,Original*%
%TF.FileFunction,Legend,Top*%
%TF.FilePolarity,Positive*%
%FSLAX46Y46*%
G04 Gerber Fmt 4.6, Leading zero omitted, Abs format (unit mm)*
G04 Created by KiCad (PCBNEW (6.0.8)) date 2023-07-19 02:04:08*
%MOMM*%
%LPD*%
G01*
G04 APERTURE LIST*
%ADD10C,0.150000*%
%ADD11C,0.120000*%
G04 APERTURE END LIST*
D10*
%TO.C,RV2*%
X176798361Y-91859080D02*
X176465028Y-91382890D01*
X176226933Y-91859080D02*
X176226933Y-90859080D01*
X176607885Y-90859080D01*
X176703123Y-90906700D01*
X176750742Y-90954319D01*
X176798361Y-91049557D01*
X176798361Y-91192414D01*
X176750742Y-91287652D01*
X176703123Y-91335271D01*
X176607885Y-91382890D01*
X176226933Y-91382890D01*
X177084076Y-90859080D02*
X177417409Y-91859080D01*
X177750742Y-90859080D01*
X178036457Y-90954319D02*
X178084076Y-90906700D01*
X178179314Y-90859080D01*
X178417409Y-90859080D01*
X178512647Y-90906700D01*
X178560266Y-90954319D01*
X178607885Y-91049557D01*
X178607885Y-91144795D01*
X178560266Y-91287652D01*
X177988838Y-91859080D01*
X178607885Y-91859080D01*
%TO.C,RV4*%
X176645961Y-55062380D02*
X176312628Y-54586190D01*
X176074533Y-55062380D02*
X176074533Y-54062380D01*
X176455485Y-54062380D01*
X176550723Y-54110000D01*
X176598342Y-54157619D01*
X176645961Y-54252857D01*
X176645961Y-54395714D01*
X176598342Y-54490952D01*
X176550723Y-54538571D01*
X176455485Y-54586190D01*
X176074533Y-54586190D01*
X176931676Y-54062380D02*
X177265009Y-55062380D01*
X177598342Y-54062380D01*
X178360247Y-54395714D02*
X178360247Y-55062380D01*
X178122152Y-54014761D02*
X177884057Y-54729047D01*
X178503104Y-54729047D01*
%TO.C,RV1*%
X176823761Y-111247180D02*
X176490428Y-110770990D01*
X176252333Y-111247180D02*
X176252333Y-110247180D01*
X176633285Y-110247180D01*
X176728523Y-110294800D01*
X176776142Y-110342419D01*
X176823761Y-110437657D01*
X176823761Y-110580514D01*
X176776142Y-110675752D01*
X176728523Y-110723371D01*
X176633285Y-110770990D01*
X176252333Y-110770990D01*
X177109476Y-110247180D02*
X177442809Y-111247180D01*
X177776142Y-110247180D01*
X178633285Y-111247180D02*
X178061857Y-111247180D01*
X178347571Y-111247180D02*
X178347571Y-110247180D01*
X178252333Y-110390038D01*
X178157095Y-110485276D01*
X178061857Y-110532895D01*
%TO.C,RV5*%
X176696761Y-73045580D02*
X176363428Y-72569390D01*
X176125333Y-73045580D02*
X176125333Y-72045580D01*
X176506285Y-72045580D01*
X176601523Y-72093200D01*
X176649142Y-72140819D01*
X176696761Y-72236057D01*
X176696761Y-72378914D01*
X176649142Y-72474152D01*
X176601523Y-72521771D01*
X176506285Y-72569390D01*
X176125333Y-72569390D01*
X176982476Y-72045580D02*
X177315809Y-73045580D01*
X177649142Y-72045580D01*
X178458666Y-72045580D02*
X177982476Y-72045580D01*
X177934857Y-72521771D01*
X177982476Y-72474152D01*
X178077714Y-72426533D01*
X178315809Y-72426533D01*
X178411047Y-72474152D01*
X178458666Y-72521771D01*
X178506285Y-72617009D01*
X178506285Y-72855104D01*
X178458666Y-72950342D01*
X178411047Y-72997961D01*
X178315809Y-73045580D01*
X178077714Y-73045580D01*
X177982476Y-72997961D01*
X177934857Y-72950342D01*
%TO.C,U19*%
X156275004Y-61428380D02*
X156275004Y-62237904D01*
X156322623Y-62333142D01*
X156370242Y-62380761D01*
X156465480Y-62428380D01*
X156655957Y-62428380D01*
X156751195Y-62380761D01*
X156798814Y-62333142D01*
X156846433Y-62237904D01*
X156846433Y-61428380D01*
X157846433Y-62428380D02*
X157275004Y-62428380D01*
X157560719Y-62428380D02*
X157560719Y-61428380D01*
X157465480Y-61571238D01*
X157370242Y-61666476D01*
X157275004Y-61714095D01*
X158322623Y-62428380D02*
X158513100Y-62428380D01*
X158608338Y-62380761D01*
X158655957Y-62333142D01*
X158751195Y-62190285D01*
X158798814Y-61999809D01*
X158798814Y-61618857D01*
X158751195Y-61523619D01*
X158703576Y-61476000D01*
X158608338Y-61428380D01*
X158417861Y-61428380D01*
X158322623Y-61476000D01*
X158275004Y-61523619D01*
X158227385Y-61618857D01*
X158227385Y-61856952D01*
X158275004Y-61952190D01*
X158322623Y-61999809D01*
X158417861Y-62047428D01*
X158608338Y-62047428D01*
X158703576Y-61999809D01*
X158751195Y-61952190D01*
X158798814Y-61856952D01*
%TO.C,C3*%
X130186133Y-75033142D02*
X130138514Y-75080761D01*
X129995657Y-75128380D01*
X129900419Y-75128380D01*
X129757561Y-75080761D01*
X129662323Y-74985523D01*
X129614704Y-74890285D01*
X129567085Y-74699809D01*
X129567085Y-74556952D01*
X129614704Y-74366476D01*
X129662323Y-74271238D01*
X129757561Y-74176000D01*
X129900419Y-74128380D01*
X129995657Y-74128380D01*
X130138514Y-74176000D01*
X130186133Y-74223619D01*
X130519466Y-74128380D02*
X131138514Y-74128380D01*
X130805180Y-74509333D01*
X130948038Y-74509333D01*
X131043276Y-74556952D01*
X131090895Y-74604571D01*
X131138514Y-74699809D01*
X131138514Y-74937904D01*
X131090895Y-75033142D01*
X131043276Y-75080761D01*
X130948038Y-75128380D01*
X130662323Y-75128380D01*
X130567085Y-75080761D01*
X130519466Y-75033142D01*
%TO.C,D2*%
X104846380Y-38584095D02*
X103846380Y-38584095D01*
X103846380Y-38346000D01*
X103894000Y-38203142D01*
X103989238Y-38107904D01*
X104084476Y-38060285D01*
X104274952Y-38012666D01*
X104417809Y-38012666D01*
X104608285Y-38060285D01*
X104703523Y-38107904D01*
X104798761Y-38203142D01*
X104846380Y-38346000D01*
X104846380Y-38584095D01*
X103941619Y-37631714D02*
X103894000Y-37584095D01*
X103846380Y-37488857D01*
X103846380Y-37250761D01*
X103894000Y-37155523D01*
X103941619Y-37107904D01*
X104036857Y-37060285D01*
X104132095Y-37060285D01*
X104274952Y-37107904D01*
X104846380Y-37679333D01*
X104846380Y-37060285D01*
%TO.C,R9*%
X113482380Y-94273666D02*
X113006190Y-94607000D01*
X113482380Y-94845095D02*
X112482380Y-94845095D01*
X112482380Y-94464142D01*
X112530000Y-94368904D01*
X112577619Y-94321285D01*
X112672857Y-94273666D01*
X112815714Y-94273666D01*
X112910952Y-94321285D01*
X112958571Y-94368904D01*
X113006190Y-94464142D01*
X113006190Y-94845095D01*
X113482380Y-93797476D02*
X113482380Y-93607000D01*
X113434761Y-93511761D01*
X113387142Y-93464142D01*
X113244285Y-93368904D01*
X113053809Y-93321285D01*
X112672857Y-93321285D01*
X112577619Y-93368904D01*
X112530000Y-93416523D01*
X112482380Y-93511761D01*
X112482380Y-93702238D01*
X112530000Y-93797476D01*
X112577619Y-93845095D01*
X112672857Y-93892714D01*
X112910952Y-93892714D01*
X113006190Y-93845095D01*
X113053809Y-93797476D01*
X113101428Y-93702238D01*
X113101428Y-93511761D01*
X113053809Y-93416523D01*
X113006190Y-93368904D01*
X112910952Y-93321285D01*
%TO.C,D11*%
X154894114Y-75331580D02*
X154894114Y-74331580D01*
X155132209Y-74331580D01*
X155275066Y-74379200D01*
X155370304Y-74474438D01*
X155417923Y-74569676D01*
X155465542Y-74760152D01*
X155465542Y-74903009D01*
X155417923Y-75093485D01*
X155370304Y-75188723D01*
X155275066Y-75283961D01*
X155132209Y-75331580D01*
X154894114Y-75331580D01*
X156417923Y-75331580D02*
X155846495Y-75331580D01*
X156132209Y-75331580D02*
X156132209Y-74331580D01*
X156036971Y-74474438D01*
X155941733Y-74569676D01*
X155846495Y-74617295D01*
X157370304Y-75331580D02*
X156798876Y-75331580D01*
X157084590Y-75331580D02*
X157084590Y-74331580D01*
X156989352Y-74474438D01*
X156894114Y-74569676D01*
X156798876Y-74617295D01*
%TO.C,R11*%
X114117380Y-116085857D02*
X113641190Y-116419190D01*
X114117380Y-116657285D02*
X113117380Y-116657285D01*
X113117380Y-116276333D01*
X113165000Y-116181095D01*
X113212619Y-116133476D01*
X113307857Y-116085857D01*
X113450714Y-116085857D01*
X113545952Y-116133476D01*
X113593571Y-116181095D01*
X113641190Y-116276333D01*
X113641190Y-116657285D01*
X114117380Y-115133476D02*
X114117380Y-115704904D01*
X114117380Y-115419190D02*
X113117380Y-115419190D01*
X113260238Y-115514428D01*
X113355476Y-115609666D01*
X113403095Y-115704904D01*
X114117380Y-114181095D02*
X114117380Y-114752523D01*
X114117380Y-114466809D02*
X113117380Y-114466809D01*
X113260238Y-114562047D01*
X113355476Y-114657285D01*
X113403095Y-114752523D01*
%TO.C,R14*%
X143730742Y-121305580D02*
X143397409Y-120829390D01*
X143159314Y-121305580D02*
X143159314Y-120305580D01*
X143540266Y-120305580D01*
X143635504Y-120353200D01*
X143683123Y-120400819D01*
X143730742Y-120496057D01*
X143730742Y-120638914D01*
X143683123Y-120734152D01*
X143635504Y-120781771D01*
X143540266Y-120829390D01*
X143159314Y-120829390D01*
X144683123Y-121305580D02*
X144111695Y-121305580D01*
X144397409Y-121305580D02*
X144397409Y-120305580D01*
X144302171Y-120448438D01*
X144206933Y-120543676D01*
X144111695Y-120591295D01*
X145540266Y-120638914D02*
X145540266Y-121305580D01*
X145302171Y-120257961D02*
X145064076Y-120972247D01*
X145683123Y-120972247D01*
%TO.C,L1*%
X115504933Y-62428380D02*
X115028742Y-62428380D01*
X115028742Y-61428380D01*
X116362076Y-62428380D02*
X115790647Y-62428380D01*
X116076361Y-62428380D02*
X116076361Y-61428380D01*
X115981123Y-61571238D01*
X115885885Y-61666476D01*
X115790647Y-61714095D01*
%TO.C,R22*%
X143679942Y-65425580D02*
X143346609Y-64949390D01*
X143108514Y-65425580D02*
X143108514Y-64425580D01*
X143489466Y-64425580D01*
X143584704Y-64473200D01*
X143632323Y-64520819D01*
X143679942Y-64616057D01*
X143679942Y-64758914D01*
X143632323Y-64854152D01*
X143584704Y-64901771D01*
X143489466Y-64949390D01*
X143108514Y-64949390D01*
X144060895Y-64520819D02*
X144108514Y-64473200D01*
X144203752Y-64425580D01*
X144441847Y-64425580D01*
X144537085Y-64473200D01*
X144584704Y-64520819D01*
X144632323Y-64616057D01*
X144632323Y-64711295D01*
X144584704Y-64854152D01*
X144013276Y-65425580D01*
X144632323Y-65425580D01*
X145013276Y-64520819D02*
X145060895Y-64473200D01*
X145156133Y-64425580D01*
X145394228Y-64425580D01*
X145489466Y-64473200D01*
X145537085Y-64520819D01*
X145584704Y-64616057D01*
X145584704Y-64711295D01*
X145537085Y-64854152D01*
X144965657Y-65425580D01*
X145584704Y-65425580D01*
%TO.C,D6*%
X160233804Y-129873280D02*
X160233804Y-128873280D01*
X160471900Y-128873280D01*
X160614757Y-128920900D01*
X160709995Y-129016138D01*
X160757614Y-129111376D01*
X160805233Y-129301852D01*
X160805233Y-129444709D01*
X160757614Y-129635185D01*
X160709995Y-129730423D01*
X160614757Y-129825661D01*
X160471900Y-129873280D01*
X160233804Y-129873280D01*
X161662376Y-128873280D02*
X161471900Y-128873280D01*
X161376661Y-128920900D01*
X161329042Y-128968519D01*
X161233804Y-129111376D01*
X161186185Y-129301852D01*
X161186185Y-129682804D01*
X161233804Y-129778042D01*
X161281423Y-129825661D01*
X161376661Y-129873280D01*
X161567138Y-129873280D01*
X161662376Y-129825661D01*
X161709995Y-129778042D01*
X161757614Y-129682804D01*
X161757614Y-129444709D01*
X161709995Y-129349471D01*
X161662376Y-129301852D01*
X161567138Y-129254233D01*
X161376661Y-129254233D01*
X161281423Y-129301852D01*
X161233804Y-129349471D01*
X161186185Y-129444709D01*
%TO.C,R26*%
X143578342Y-84069180D02*
X143245009Y-83592990D01*
X143006914Y-84069180D02*
X143006914Y-83069180D01*
X143387866Y-83069180D01*
X143483104Y-83116800D01*
X143530723Y-83164419D01*
X143578342Y-83259657D01*
X143578342Y-83402514D01*
X143530723Y-83497752D01*
X143483104Y-83545371D01*
X143387866Y-83592990D01*
X143006914Y-83592990D01*
X143959295Y-83164419D02*
X144006914Y-83116800D01*
X144102152Y-83069180D01*
X144340247Y-83069180D01*
X144435485Y-83116800D01*
X144483104Y-83164419D01*
X144530723Y-83259657D01*
X144530723Y-83354895D01*
X144483104Y-83497752D01*
X143911676Y-84069180D01*
X144530723Y-84069180D01*
X145387866Y-83069180D02*
X145197390Y-83069180D01*
X145102152Y-83116800D01*
X145054533Y-83164419D01*
X144959295Y-83307276D01*
X144911676Y-83497752D01*
X144911676Y-83878704D01*
X144959295Y-83973942D01*
X145006914Y-84021561D01*
X145102152Y-84069180D01*
X145292628Y-84069180D01*
X145387866Y-84021561D01*
X145435485Y-83973942D01*
X145483104Y-83878704D01*
X145483104Y-83640609D01*
X145435485Y-83545371D01*
X145387866Y-83497752D01*
X145292628Y-83450133D01*
X145102152Y-83450133D01*
X145006914Y-83497752D01*
X144959295Y-83545371D01*
X144911676Y-83640609D01*
%TO.C,D3*%
X111450380Y-37568095D02*
X110450380Y-37568095D01*
X110450380Y-37330000D01*
X110498000Y-37187142D01*
X110593238Y-37091904D01*
X110688476Y-37044285D01*
X110878952Y-36996666D01*
X111021809Y-36996666D01*
X111212285Y-37044285D01*
X111307523Y-37091904D01*
X111402761Y-37187142D01*
X111450380Y-37330000D01*
X111450380Y-37568095D01*
X110450380Y-36663333D02*
X110450380Y-36044285D01*
X110831333Y-36377619D01*
X110831333Y-36234761D01*
X110878952Y-36139523D01*
X110926571Y-36091904D01*
X111021809Y-36044285D01*
X111259904Y-36044285D01*
X111355142Y-36091904D01*
X111402761Y-36139523D01*
X111450380Y-36234761D01*
X111450380Y-36520476D01*
X111402761Y-36615714D01*
X111355142Y-36663333D01*
%TO.C,R18*%
X147947142Y-127825480D02*
X147613809Y-127349290D01*
X147375714Y-127825480D02*
X147375714Y-126825480D01*
X147756666Y-126825480D01*
X147851904Y-126873100D01*
X147899523Y-126920719D01*
X147947142Y-127015957D01*
X147947142Y-127158814D01*
X147899523Y-127254052D01*
X147851904Y-127301671D01*
X147756666Y-127349290D01*
X147375714Y-127349290D01*
X148899523Y-127825480D02*
X148328095Y-127825480D01*
X148613809Y-127825480D02*
X148613809Y-126825480D01*
X148518571Y-126968338D01*
X148423333Y-127063576D01*
X148328095Y-127111195D01*
X149470952Y-127254052D02*
X149375714Y-127206433D01*
X149328095Y-127158814D01*
X149280476Y-127063576D01*
X149280476Y-127015957D01*
X149328095Y-126920719D01*
X149375714Y-126873100D01*
X149470952Y-126825480D01*
X149661428Y-126825480D01*
X149756666Y-126873100D01*
X149804285Y-126920719D01*
X149851904Y-127015957D01*
X149851904Y-127063576D01*
X149804285Y-127158814D01*
X149756666Y-127206433D01*
X149661428Y-127254052D01*
X149470952Y-127254052D01*
X149375714Y-127301671D01*
X149328095Y-127349290D01*
X149280476Y-127444528D01*
X149280476Y-127635004D01*
X149328095Y-127730242D01*
X149375714Y-127777861D01*
X149470952Y-127825480D01*
X149661428Y-127825480D01*
X149756666Y-127777861D01*
X149804285Y-127730242D01*
X149851904Y-127635004D01*
X149851904Y-127444528D01*
X149804285Y-127349290D01*
X149756666Y-127301671D01*
X149661428Y-127254052D01*
%TO.C,R21*%
X143679942Y-56484780D02*
X143346609Y-56008590D01*
X143108514Y-56484780D02*
X143108514Y-55484780D01*
X143489466Y-55484780D01*
X143584704Y-55532400D01*
X143632323Y-55580019D01*
X143679942Y-55675257D01*
X143679942Y-55818114D01*
X143632323Y-55913352D01*
X143584704Y-55960971D01*
X143489466Y-56008590D01*
X143108514Y-56008590D01*
X144060895Y-55580019D02*
X144108514Y-55532400D01*
X144203752Y-55484780D01*
X144441847Y-55484780D01*
X144537085Y-55532400D01*
X144584704Y-55580019D01*
X144632323Y-55675257D01*
X144632323Y-55770495D01*
X144584704Y-55913352D01*
X144013276Y-56484780D01*
X144632323Y-56484780D01*
X145584704Y-56484780D02*
X145013276Y-56484780D01*
X145298990Y-56484780D02*
X145298990Y-55484780D01*
X145203752Y-55627638D01*
X145108514Y-55722876D01*
X145013276Y-55770495D01*
%TO.C,Q1*%
X155995619Y-124504438D02*
X155948000Y-124599676D01*
X155852761Y-124694914D01*
X155709904Y-124837771D01*
X155662285Y-124933009D01*
X155662285Y-125028247D01*
X155900380Y-124980628D02*
X155852761Y-125075866D01*
X155757523Y-125171104D01*
X155567047Y-125218723D01*
X155233714Y-125218723D01*
X155043238Y-125171104D01*
X154948000Y-125075866D01*
X154900380Y-124980628D01*
X154900380Y-124790152D01*
X154948000Y-124694914D01*
X155043238Y-124599676D01*
X155233714Y-124552057D01*
X155567047Y-124552057D01*
X155757523Y-124599676D01*
X155852761Y-124694914D01*
X155900380Y-124790152D01*
X155900380Y-124980628D01*
X155900380Y-123599676D02*
X155900380Y-124171104D01*
X155900380Y-123885390D02*
X154900380Y-123885390D01*
X155043238Y-123980628D01*
X155138476Y-124075866D01*
X155186095Y-124171104D01*
%TO.C,D5*%
X105992704Y-55570380D02*
X105992704Y-54570380D01*
X106230800Y-54570380D01*
X106373657Y-54618000D01*
X106468895Y-54713238D01*
X106516514Y-54808476D01*
X106564133Y-54998952D01*
X106564133Y-55141809D01*
X106516514Y-55332285D01*
X106468895Y-55427523D01*
X106373657Y-55522761D01*
X106230800Y-55570380D01*
X105992704Y-55570380D01*
X107468895Y-54570380D02*
X106992704Y-54570380D01*
X106945085Y-55046571D01*
X106992704Y-54998952D01*
X107087942Y-54951333D01*
X107326038Y-54951333D01*
X107421276Y-54998952D01*
X107468895Y-55046571D01*
X107516514Y-55141809D01*
X107516514Y-55379904D01*
X107468895Y-55475142D01*
X107421276Y-55522761D01*
X107326038Y-55570380D01*
X107087942Y-55570380D01*
X106992704Y-55522761D01*
X106945085Y-55475142D01*
%TO.C,U13*%
X143999104Y-115784380D02*
X143999104Y-116593904D01*
X144046723Y-116689142D01*
X144094342Y-116736761D01*
X144189580Y-116784380D01*
X144380057Y-116784380D01*
X144475295Y-116736761D01*
X144522914Y-116689142D01*
X144570533Y-116593904D01*
X144570533Y-115784380D01*
X145570533Y-116784380D02*
X144999104Y-116784380D01*
X145284819Y-116784380D02*
X145284819Y-115784380D01*
X145189580Y-115927238D01*
X145094342Y-116022476D01*
X144999104Y-116070095D01*
X145903866Y-115784380D02*
X146522914Y-115784380D01*
X146189580Y-116165333D01*
X146332438Y-116165333D01*
X146427676Y-116212952D01*
X146475295Y-116260571D01*
X146522914Y-116355809D01*
X146522914Y-116593904D01*
X146475295Y-116689142D01*
X146427676Y-116736761D01*
X146332438Y-116784380D01*
X146046723Y-116784380D01*
X145951485Y-116736761D01*
X145903866Y-116689142D01*
%TO.C,U6*%
X116927380Y-69356904D02*
X117736904Y-69356904D01*
X117832142Y-69309285D01*
X117879761Y-69261666D01*
X117927380Y-69166428D01*
X117927380Y-68975952D01*
X117879761Y-68880714D01*
X117832142Y-68833095D01*
X117736904Y-68785476D01*
X116927380Y-68785476D01*
X116927380Y-67880714D02*
X116927380Y-68071190D01*
X116975000Y-68166428D01*
X117022619Y-68214047D01*
X117165476Y-68309285D01*
X117355952Y-68356904D01*
X117736904Y-68356904D01*
X117832142Y-68309285D01*
X117879761Y-68261666D01*
X117927380Y-68166428D01*
X117927380Y-67975952D01*
X117879761Y-67880714D01*
X117832142Y-67833095D01*
X117736904Y-67785476D01*
X117498809Y-67785476D01*
X117403571Y-67833095D01*
X117355952Y-67880714D01*
X117308333Y-67975952D01*
X117308333Y-68166428D01*
X117355952Y-68261666D01*
X117403571Y-68309285D01*
X117498809Y-68356904D01*
%TO.C,R5*%
X104592380Y-94273666D02*
X104116190Y-94607000D01*
X104592380Y-94845095D02*
X103592380Y-94845095D01*
X103592380Y-94464142D01*
X103640000Y-94368904D01*
X103687619Y-94321285D01*
X103782857Y-94273666D01*
X103925714Y-94273666D01*
X104020952Y-94321285D01*
X104068571Y-94368904D01*
X104116190Y-94464142D01*
X104116190Y-94845095D01*
X103592380Y-93368904D02*
X103592380Y-93845095D01*
X104068571Y-93892714D01*
X104020952Y-93845095D01*
X103973333Y-93749857D01*
X103973333Y-93511761D01*
X104020952Y-93416523D01*
X104068571Y-93368904D01*
X104163809Y-93321285D01*
X104401904Y-93321285D01*
X104497142Y-93368904D01*
X104544761Y-93416523D01*
X104592380Y-93511761D01*
X104592380Y-93749857D01*
X104544761Y-93845095D01*
X104497142Y-93892714D01*
%TO.C,D10*%
X180727980Y-48666485D02*
X179727980Y-48666485D01*
X179727980Y-48428390D01*
X179775600Y-48285533D01*
X179870838Y-48190295D01*
X179966076Y-48142676D01*
X180156552Y-48095057D01*
X180299409Y-48095057D01*
X180489885Y-48142676D01*
X180585123Y-48190295D01*
X180680361Y-48285533D01*
X180727980Y-48428390D01*
X180727980Y-48666485D01*
X180727980Y-47142676D02*
X180727980Y-47714104D01*
X180727980Y-47428390D02*
X179727980Y-47428390D01*
X179870838Y-47523628D01*
X179966076Y-47618866D01*
X180013695Y-47714104D01*
X179727980Y-46523628D02*
X179727980Y-46428390D01*
X179775600Y-46333152D01*
X179823219Y-46285533D01*
X179918457Y-46237914D01*
X180108933Y-46190295D01*
X180347028Y-46190295D01*
X180537504Y-46237914D01*
X180632742Y-46285533D01*
X180680361Y-46333152D01*
X180727980Y-46428390D01*
X180727980Y-46523628D01*
X180680361Y-46618866D01*
X180632742Y-46666485D01*
X180537504Y-46714104D01*
X180347028Y-46761723D01*
X180108933Y-46761723D01*
X179918457Y-46714104D01*
X179823219Y-46666485D01*
X179775600Y-46618866D01*
X179727980Y-46523628D01*
%TO.C,R10*%
X104592380Y-68333857D02*
X104116190Y-68667190D01*
X104592380Y-68905285D02*
X103592380Y-68905285D01*
X103592380Y-68524333D01*
X103640000Y-68429095D01*
X103687619Y-68381476D01*
X103782857Y-68333857D01*
X103925714Y-68333857D01*
X104020952Y-68381476D01*
X104068571Y-68429095D01*
X104116190Y-68524333D01*
X104116190Y-68905285D01*
X104592380Y-67381476D02*
X104592380Y-67952904D01*
X104592380Y-67667190D02*
X103592380Y-67667190D01*
X103735238Y-67762428D01*
X103830476Y-67857666D01*
X103878095Y-67952904D01*
X103592380Y-66762428D02*
X103592380Y-66667190D01*
X103640000Y-66571952D01*
X103687619Y-66524333D01*
X103782857Y-66476714D01*
X103973333Y-66429095D01*
X104211428Y-66429095D01*
X104401904Y-66476714D01*
X104497142Y-66524333D01*
X104544761Y-66571952D01*
X104592380Y-66667190D01*
X104592380Y-66762428D01*
X104544761Y-66857666D01*
X104497142Y-66905285D01*
X104401904Y-66952904D01*
X104211428Y-67000523D01*
X103973333Y-67000523D01*
X103782857Y-66952904D01*
X103687619Y-66905285D01*
X103640000Y-66857666D01*
X103592380Y-66762428D01*
%TO.C,F1*%
X189564971Y-59007333D02*
X189564971Y-59340666D01*
X190088780Y-59340666D02*
X189088780Y-59340666D01*
X189088780Y-58864476D01*
X190088780Y-57959714D02*
X190088780Y-58531142D01*
X190088780Y-58245428D02*
X189088780Y-58245428D01*
X189231638Y-58340666D01*
X189326876Y-58435904D01*
X189374495Y-58531142D01*
%TO.C,R1*%
X126662333Y-70502380D02*
X126329000Y-70026190D01*
X126090904Y-70502380D02*
X126090904Y-69502380D01*
X126471857Y-69502380D01*
X126567095Y-69550000D01*
X126614714Y-69597619D01*
X126662333Y-69692857D01*
X126662333Y-69835714D01*
X126614714Y-69930952D01*
X126567095Y-69978571D01*
X126471857Y-70026190D01*
X126090904Y-70026190D01*
X127614714Y-70502380D02*
X127043285Y-70502380D01*
X127329000Y-70502380D02*
X127329000Y-69502380D01*
X127233761Y-69645238D01*
X127138523Y-69740476D01*
X127043285Y-69788095D01*
%TO.C,R17*%
X143679942Y-105811580D02*
X143346609Y-105335390D01*
X143108514Y-105811580D02*
X143108514Y-104811580D01*
X143489466Y-104811580D01*
X143584704Y-104859200D01*
X143632323Y-104906819D01*
X143679942Y-105002057D01*
X143679942Y-105144914D01*
X143632323Y-105240152D01*
X143584704Y-105287771D01*
X143489466Y-105335390D01*
X143108514Y-105335390D01*
X144632323Y-105811580D02*
X144060895Y-105811580D01*
X144346609Y-105811580D02*
X144346609Y-104811580D01*
X144251371Y-104954438D01*
X144156133Y-105049676D01*
X144060895Y-105097295D01*
X144965657Y-104811580D02*
X145632323Y-104811580D01*
X145203752Y-105811580D01*
%TO.C,D1*%
X108148380Y-37576095D02*
X107148380Y-37576095D01*
X107148380Y-37338000D01*
X107196000Y-37195142D01*
X107291238Y-37099904D01*
X107386476Y-37052285D01*
X107576952Y-37004666D01*
X107719809Y-37004666D01*
X107910285Y-37052285D01*
X108005523Y-37099904D01*
X108100761Y-37195142D01*
X108148380Y-37338000D01*
X108148380Y-37576095D01*
X108148380Y-36052285D02*
X108148380Y-36623714D01*
X108148380Y-36338000D02*
X107148380Y-36338000D01*
X107291238Y-36433238D01*
X107386476Y-36528476D01*
X107434095Y-36623714D01*
%TO.C,C4*%
X102357142Y-50591666D02*
X102404761Y-50639285D01*
X102452380Y-50782142D01*
X102452380Y-50877380D01*
X102404761Y-51020238D01*
X102309523Y-51115476D01*
X102214285Y-51163095D01*
X102023809Y-51210714D01*
X101880952Y-51210714D01*
X101690476Y-51163095D01*
X101595238Y-51115476D01*
X101500000Y-51020238D01*
X101452380Y-50877380D01*
X101452380Y-50782142D01*
X101500000Y-50639285D01*
X101547619Y-50591666D01*
X101785714Y-49734523D02*
X102452380Y-49734523D01*
X101404761Y-49972619D02*
X102119047Y-50210714D01*
X102119047Y-49591666D01*
%TO.C,R29*%
X125950742Y-93771980D02*
X125617409Y-93295790D01*
X125379314Y-93771980D02*
X125379314Y-92771980D01*
X125760266Y-92771980D01*
X125855504Y-92819600D01*
X125903123Y-92867219D01*
X125950742Y-92962457D01*
X125950742Y-93105314D01*
X125903123Y-93200552D01*
X125855504Y-93248171D01*
X125760266Y-93295790D01*
X125379314Y-93295790D01*
X126331695Y-92867219D02*
X126379314Y-92819600D01*
X126474552Y-92771980D01*
X126712647Y-92771980D01*
X126807885Y-92819600D01*
X126855504Y-92867219D01*
X126903123Y-92962457D01*
X126903123Y-93057695D01*
X126855504Y-93200552D01*
X126284076Y-93771980D01*
X126903123Y-93771980D01*
X127379314Y-93771980D02*
X127569790Y-93771980D01*
X127665028Y-93724361D01*
X127712647Y-93676742D01*
X127807885Y-93533885D01*
X127855504Y-93343409D01*
X127855504Y-92962457D01*
X127807885Y-92867219D01*
X127760266Y-92819600D01*
X127665028Y-92771980D01*
X127474552Y-92771980D01*
X127379314Y-92819600D01*
X127331695Y-92867219D01*
X127284076Y-92962457D01*
X127284076Y-93200552D01*
X127331695Y-93295790D01*
X127379314Y-93343409D01*
X127474552Y-93391028D01*
X127665028Y-93391028D01*
X127760266Y-93343409D01*
X127807885Y-93295790D01*
X127855504Y-93200552D01*
%TO.C,R6*%
X113482380Y-67857666D02*
X113006190Y-68191000D01*
X113482380Y-68429095D02*
X112482380Y-68429095D01*
X112482380Y-68048142D01*
X112530000Y-67952904D01*
X112577619Y-67905285D01*
X112672857Y-67857666D01*
X112815714Y-67857666D01*
X112910952Y-67905285D01*
X112958571Y-67952904D01*
X113006190Y-68048142D01*
X113006190Y-68429095D01*
X112482380Y-67000523D02*
X112482380Y-67191000D01*
X112530000Y-67286238D01*
X112577619Y-67333857D01*
X112720476Y-67429095D01*
X112910952Y-67476714D01*
X113291904Y-67476714D01*
X113387142Y-67429095D01*
X113434761Y-67381476D01*
X113482380Y-67286238D01*
X113482380Y-67095761D01*
X113434761Y-67000523D01*
X113387142Y-66952904D01*
X113291904Y-66905285D01*
X113053809Y-66905285D01*
X112958571Y-66952904D01*
X112910952Y-67000523D01*
X112863333Y-67095761D01*
X112863333Y-67286238D01*
X112910952Y-67381476D01*
X112958571Y-67429095D01*
X113053809Y-67476714D01*
%TO.C,C2*%
X122785142Y-86944666D02*
X122832761Y-86992285D01*
X122880380Y-87135142D01*
X122880380Y-87230380D01*
X122832761Y-87373238D01*
X122737523Y-87468476D01*
X122642285Y-87516095D01*
X122451809Y-87563714D01*
X122308952Y-87563714D01*
X122118476Y-87516095D01*
X122023238Y-87468476D01*
X121928000Y-87373238D01*
X121880380Y-87230380D01*
X121880380Y-87135142D01*
X121928000Y-86992285D01*
X121975619Y-86944666D01*
X121975619Y-86563714D02*
X121928000Y-86516095D01*
X121880380Y-86420857D01*
X121880380Y-86182761D01*
X121928000Y-86087523D01*
X121975619Y-86039904D01*
X122070857Y-85992285D01*
X122166095Y-85992285D01*
X122308952Y-86039904D01*
X122880380Y-86611333D01*
X122880380Y-85992285D01*
%TO.C,R20*%
X186250342Y-43683180D02*
X185917009Y-43206990D01*
X185678914Y-43683180D02*
X185678914Y-42683180D01*
X186059866Y-42683180D01*
X186155104Y-42730800D01*
X186202723Y-42778419D01*
X186250342Y-42873657D01*
X186250342Y-43016514D01*
X186202723Y-43111752D01*
X186155104Y-43159371D01*
X186059866Y-43206990D01*
X185678914Y-43206990D01*
X186631295Y-42778419D02*
X186678914Y-42730800D01*
X186774152Y-42683180D01*
X187012247Y-42683180D01*
X187107485Y-42730800D01*
X187155104Y-42778419D01*
X187202723Y-42873657D01*
X187202723Y-42968895D01*
X187155104Y-43111752D01*
X186583676Y-43683180D01*
X187202723Y-43683180D01*
X187821771Y-42683180D02*
X187917009Y-42683180D01*
X188012247Y-42730800D01*
X188059866Y-42778419D01*
X188107485Y-42873657D01*
X188155104Y-43064133D01*
X188155104Y-43302228D01*
X188107485Y-43492704D01*
X188059866Y-43587942D01*
X188012247Y-43635561D01*
X187917009Y-43683180D01*
X187821771Y-43683180D01*
X187726533Y-43635561D01*
X187678914Y-43587942D01*
X187631295Y-43492704D01*
X187583676Y-43302228D01*
X187583676Y-43064133D01*
X187631295Y-42873657D01*
X187678914Y-42778419D01*
X187726533Y-42730800D01*
X187821771Y-42683180D01*
%TO.C,R7*%
X123007380Y-115609666D02*
X122531190Y-115943000D01*
X123007380Y-116181095D02*
X122007380Y-116181095D01*
X122007380Y-115800142D01*
X122055000Y-115704904D01*
X122102619Y-115657285D01*
X122197857Y-115609666D01*
X122340714Y-115609666D01*
X122435952Y-115657285D01*
X122483571Y-115704904D01*
X122531190Y-115800142D01*
X122531190Y-116181095D01*
X122007380Y-115276333D02*
X122007380Y-114609666D01*
X123007380Y-115038238D01*
%TO.C,C8*%
X133275342Y-62295066D02*
X133322961Y-62342685D01*
X133370580Y-62485542D01*
X133370580Y-62580780D01*
X133322961Y-62723638D01*
X133227723Y-62818876D01*
X133132485Y-62866495D01*
X132942009Y-62914114D01*
X132799152Y-62914114D01*
X132608676Y-62866495D01*
X132513438Y-62818876D01*
X132418200Y-62723638D01*
X132370580Y-62580780D01*
X132370580Y-62485542D01*
X132418200Y-62342685D01*
X132465819Y-62295066D01*
X132799152Y-61723638D02*
X132751533Y-61818876D01*
X132703914Y-61866495D01*
X132608676Y-61914114D01*
X132561057Y-61914114D01*
X132465819Y-61866495D01*
X132418200Y-61818876D01*
X132370580Y-61723638D01*
X132370580Y-61533161D01*
X132418200Y-61437923D01*
X132465819Y-61390304D01*
X132561057Y-61342685D01*
X132608676Y-61342685D01*
X132703914Y-61390304D01*
X132751533Y-61437923D01*
X132799152Y-61533161D01*
X132799152Y-61723638D01*
X132846771Y-61818876D01*
X132894390Y-61866495D01*
X132989628Y-61914114D01*
X133180104Y-61914114D01*
X133275342Y-61866495D01*
X133322961Y-61818876D01*
X133370580Y-61723638D01*
X133370580Y-61533161D01*
X133322961Y-61437923D01*
X133275342Y-61390304D01*
X133180104Y-61342685D01*
X132989628Y-61342685D01*
X132894390Y-61390304D01*
X132846771Y-61437923D01*
X132799152Y-61533161D01*
%TO.C,U10*%
X108037380Y-69833095D02*
X108846904Y-69833095D01*
X108942142Y-69785476D01*
X108989761Y-69737857D01*
X109037380Y-69642619D01*
X109037380Y-69452142D01*
X108989761Y-69356904D01*
X108942142Y-69309285D01*
X108846904Y-69261666D01*
X108037380Y-69261666D01*
X109037380Y-68261666D02*
X109037380Y-68833095D01*
X109037380Y-68547380D02*
X108037380Y-68547380D01*
X108180238Y-68642619D01*
X108275476Y-68737857D01*
X108323095Y-68833095D01*
X108037380Y-67642619D02*
X108037380Y-67547380D01*
X108085000Y-67452142D01*
X108132619Y-67404523D01*
X108227857Y-67356904D01*
X108418333Y-67309285D01*
X108656428Y-67309285D01*
X108846904Y-67356904D01*
X108942142Y-67404523D01*
X108989761Y-67452142D01*
X109037380Y-67547380D01*
X109037380Y-67642619D01*
X108989761Y-67737857D01*
X108942142Y-67785476D01*
X108846904Y-67833095D01*
X108656428Y-67880714D01*
X108418333Y-67880714D01*
X108227857Y-67833095D01*
X108132619Y-67785476D01*
X108085000Y-67737857D01*
X108037380Y-67642619D01*
%TO.C,R25*%
X147845542Y-71927980D02*
X147512209Y-71451790D01*
X147274114Y-71927980D02*
X147274114Y-70927980D01*
X147655066Y-70927980D01*
X147750304Y-70975600D01*
X147797923Y-71023219D01*
X147845542Y-71118457D01*
X147845542Y-71261314D01*
X147797923Y-71356552D01*
X147750304Y-71404171D01*
X147655066Y-71451790D01*
X147274114Y-71451790D01*
X148226495Y-71023219D02*
X148274114Y-70975600D01*
X148369352Y-70927980D01*
X148607447Y-70927980D01*
X148702685Y-70975600D01*
X148750304Y-71023219D01*
X148797923Y-71118457D01*
X148797923Y-71213695D01*
X148750304Y-71356552D01*
X148178876Y-71927980D01*
X148797923Y-71927980D01*
X149702685Y-70927980D02*
X149226495Y-70927980D01*
X149178876Y-71404171D01*
X149226495Y-71356552D01*
X149321733Y-71308933D01*
X149559828Y-71308933D01*
X149655066Y-71356552D01*
X149702685Y-71404171D01*
X149750304Y-71499409D01*
X149750304Y-71737504D01*
X149702685Y-71832742D01*
X149655066Y-71880361D01*
X149559828Y-71927980D01*
X149321733Y-71927980D01*
X149226495Y-71880361D01*
X149178876Y-71832742D01*
%TO.C,U16*%
X156343504Y-98656880D02*
X156343504Y-99466404D01*
X156391123Y-99561642D01*
X156438742Y-99609261D01*
X156533980Y-99656880D01*
X156724457Y-99656880D01*
X156819695Y-99609261D01*
X156867314Y-99561642D01*
X156914933Y-99466404D01*
X156914933Y-98656880D01*
X157914933Y-99656880D02*
X157343504Y-99656880D01*
X157629219Y-99656880D02*
X157629219Y-98656880D01*
X157533980Y-98799738D01*
X157438742Y-98894976D01*
X157343504Y-98942595D01*
X158772076Y-98656880D02*
X158581600Y-98656880D01*
X158486361Y-98704500D01*
X158438742Y-98752119D01*
X158343504Y-98894976D01*
X158295885Y-99085452D01*
X158295885Y-99466404D01*
X158343504Y-99561642D01*
X158391123Y-99609261D01*
X158486361Y-99656880D01*
X158676838Y-99656880D01*
X158772076Y-99609261D01*
X158819695Y-99561642D01*
X158867314Y-99466404D01*
X158867314Y-99228309D01*
X158819695Y-99133071D01*
X158772076Y-99085452D01*
X158676838Y-99037833D01*
X158486361Y-99037833D01*
X158391123Y-99085452D01*
X158343504Y-99133071D01*
X158295885Y-99228309D01*
%TO.C,R12*%
X143730742Y-112313980D02*
X143397409Y-111837790D01*
X143159314Y-112313980D02*
X143159314Y-111313980D01*
X143540266Y-111313980D01*
X143635504Y-111361600D01*
X143683123Y-111409219D01*
X143730742Y-111504457D01*
X143730742Y-111647314D01*
X143683123Y-111742552D01*
X143635504Y-111790171D01*
X143540266Y-111837790D01*
X143159314Y-111837790D01*
X144683123Y-112313980D02*
X144111695Y-112313980D01*
X144397409Y-112313980D02*
X144397409Y-111313980D01*
X144302171Y-111456838D01*
X144206933Y-111552076D01*
X144111695Y-111599695D01*
X145064076Y-111409219D02*
X145111695Y-111361600D01*
X145206933Y-111313980D01*
X145445028Y-111313980D01*
X145540266Y-111361600D01*
X145587885Y-111409219D01*
X145635504Y-111504457D01*
X145635504Y-111599695D01*
X145587885Y-111742552D01*
X145016457Y-112313980D01*
X145635504Y-112313980D01*
%TO.C,Y1*%
X114815190Y-81349790D02*
X115291380Y-81349790D01*
X114291380Y-81683123D02*
X114815190Y-81349790D01*
X114291380Y-81016457D01*
X115291380Y-80159314D02*
X115291380Y-80730742D01*
X115291380Y-80445028D02*
X114291380Y-80445028D01*
X114434238Y-80540266D01*
X114529476Y-80635504D01*
X114577095Y-80730742D01*
%TO.C,C1*%
X122658142Y-75641666D02*
X122705761Y-75689285D01*
X122753380Y-75832142D01*
X122753380Y-75927380D01*
X122705761Y-76070238D01*
X122610523Y-76165476D01*
X122515285Y-76213095D01*
X122324809Y-76260714D01*
X122181952Y-76260714D01*
X121991476Y-76213095D01*
X121896238Y-76165476D01*
X121801000Y-76070238D01*
X121753380Y-75927380D01*
X121753380Y-75832142D01*
X121801000Y-75689285D01*
X121848619Y-75641666D01*
X122753380Y-74689285D02*
X122753380Y-75260714D01*
X122753380Y-74975000D02*
X121753380Y-74975000D01*
X121896238Y-75070238D01*
X121991476Y-75165476D01*
X122039095Y-75260714D01*
%TO.C,U3*%
X119227380Y-62961904D02*
X120036904Y-62961904D01*
X120132142Y-62914285D01*
X120179761Y-62866666D01*
X120227380Y-62771428D01*
X120227380Y-62580952D01*
X120179761Y-62485714D01*
X120132142Y-62438095D01*
X120036904Y-62390476D01*
X119227380Y-62390476D01*
X119227380Y-62009523D02*
X119227380Y-61390476D01*
X119608333Y-61723809D01*
X119608333Y-61580952D01*
X119655952Y-61485714D01*
X119703571Y-61438095D01*
X119798809Y-61390476D01*
X120036904Y-61390476D01*
X120132142Y-61438095D01*
X120179761Y-61485714D01*
X120227380Y-61580952D01*
X120227380Y-61866666D01*
X120179761Y-61961904D01*
X120132142Y-62009523D01*
%TO.C,U15*%
X156241904Y-117232180D02*
X156241904Y-118041704D01*
X156289523Y-118136942D01*
X156337142Y-118184561D01*
X156432380Y-118232180D01*
X156622857Y-118232180D01*
X156718095Y-118184561D01*
X156765714Y-118136942D01*
X156813333Y-118041704D01*
X156813333Y-117232180D01*
X157813333Y-118232180D02*
X157241904Y-118232180D01*
X157527619Y-118232180D02*
X157527619Y-117232180D01*
X157432380Y-117375038D01*
X157337142Y-117470276D01*
X157241904Y-117517895D01*
X158718095Y-117232180D02*
X158241904Y-117232180D01*
X158194285Y-117708371D01*
X158241904Y-117660752D01*
X158337142Y-117613133D01*
X158575238Y-117613133D01*
X158670476Y-117660752D01*
X158718095Y-117708371D01*
X158765714Y-117803609D01*
X158765714Y-118041704D01*
X158718095Y-118136942D01*
X158670476Y-118184561D01*
X158575238Y-118232180D01*
X158337142Y-118232180D01*
X158241904Y-118184561D01*
X158194285Y-118136942D01*
%TO.C,R15*%
X143679942Y-102661980D02*
X143346609Y-102185790D01*
X143108514Y-102661980D02*
X143108514Y-101661980D01*
X143489466Y-101661980D01*
X143584704Y-101709600D01*
X143632323Y-101757219D01*
X143679942Y-101852457D01*
X143679942Y-101995314D01*
X143632323Y-102090552D01*
X143584704Y-102138171D01*
X143489466Y-102185790D01*
X143108514Y-102185790D01*
X144632323Y-102661980D02*
X144060895Y-102661980D01*
X144346609Y-102661980D02*
X144346609Y-101661980D01*
X144251371Y-101804838D01*
X144156133Y-101900076D01*
X144060895Y-101947695D01*
X145537085Y-101661980D02*
X145060895Y-101661980D01*
X145013276Y-102138171D01*
X145060895Y-102090552D01*
X145156133Y-102042933D01*
X145394228Y-102042933D01*
X145489466Y-102090552D01*
X145537085Y-102138171D01*
X145584704Y-102233409D01*
X145584704Y-102471504D01*
X145537085Y-102566742D01*
X145489466Y-102614361D01*
X145394228Y-102661980D01*
X145156133Y-102661980D01*
X145060895Y-102614361D01*
X145013276Y-102566742D01*
%TO.C,U14*%
X143882504Y-97140780D02*
X143882504Y-97950304D01*
X143930123Y-98045542D01*
X143977742Y-98093161D01*
X144072980Y-98140780D01*
X144263457Y-98140780D01*
X144358695Y-98093161D01*
X144406314Y-98045542D01*
X144453933Y-97950304D01*
X144453933Y-97140780D01*
X145453933Y-98140780D02*
X144882504Y-98140780D01*
X145168219Y-98140780D02*
X145168219Y-97140780D01*
X145072980Y-97283638D01*
X144977742Y-97378876D01*
X144882504Y-97426495D01*
X146311076Y-97474114D02*
X146311076Y-98140780D01*
X146072980Y-97093161D02*
X145834885Y-97807447D01*
X146453933Y-97807447D01*
%TO.C,C6*%
X138279142Y-44210266D02*
X138326761Y-44257885D01*
X138374380Y-44400742D01*
X138374380Y-44495980D01*
X138326761Y-44638838D01*
X138231523Y-44734076D01*
X138136285Y-44781695D01*
X137945809Y-44829314D01*
X137802952Y-44829314D01*
X137612476Y-44781695D01*
X137517238Y-44734076D01*
X137422000Y-44638838D01*
X137374380Y-44495980D01*
X137374380Y-44400742D01*
X137422000Y-44257885D01*
X137469619Y-44210266D01*
X137374380Y-43353123D02*
X137374380Y-43543600D01*
X137422000Y-43638838D01*
X137469619Y-43686457D01*
X137612476Y-43781695D01*
X137802952Y-43829314D01*
X138183904Y-43829314D01*
X138279142Y-43781695D01*
X138326761Y-43734076D01*
X138374380Y-43638838D01*
X138374380Y-43448361D01*
X138326761Y-43353123D01*
X138279142Y-43305504D01*
X138183904Y-43257885D01*
X137945809Y-43257885D01*
X137850571Y-43305504D01*
X137802952Y-43353123D01*
X137755333Y-43448361D01*
X137755333Y-43638838D01*
X137802952Y-43734076D01*
X137850571Y-43781695D01*
X137945809Y-43829314D01*
%TO.C,U8*%
X108672380Y-115584904D02*
X109481904Y-115584904D01*
X109577142Y-115537285D01*
X109624761Y-115489666D01*
X109672380Y-115394428D01*
X109672380Y-115203952D01*
X109624761Y-115108714D01*
X109577142Y-115061095D01*
X109481904Y-115013476D01*
X108672380Y-115013476D01*
X109100952Y-114394428D02*
X109053333Y-114489666D01*
X109005714Y-114537285D01*
X108910476Y-114584904D01*
X108862857Y-114584904D01*
X108767619Y-114537285D01*
X108720000Y-114489666D01*
X108672380Y-114394428D01*
X108672380Y-114203952D01*
X108720000Y-114108714D01*
X108767619Y-114061095D01*
X108862857Y-114013476D01*
X108910476Y-114013476D01*
X109005714Y-114061095D01*
X109053333Y-114108714D01*
X109100952Y-114203952D01*
X109100952Y-114394428D01*
X109148571Y-114489666D01*
X109196190Y-114537285D01*
X109291428Y-114584904D01*
X109481904Y-114584904D01*
X109577142Y-114537285D01*
X109624761Y-114489666D01*
X109672380Y-114394428D01*
X109672380Y-114203952D01*
X109624761Y-114108714D01*
X109577142Y-114061095D01*
X109481904Y-114013476D01*
X109291428Y-114013476D01*
X109196190Y-114061095D01*
X109148571Y-114108714D01*
X109100952Y-114203952D01*
%TO.C,C7*%
X129583333Y-55532142D02*
X129535714Y-55579761D01*
X129392857Y-55627380D01*
X129297619Y-55627380D01*
X129154761Y-55579761D01*
X129059523Y-55484523D01*
X129011904Y-55389285D01*
X128964285Y-55198809D01*
X128964285Y-55055952D01*
X129011904Y-54865476D01*
X129059523Y-54770238D01*
X129154761Y-54675000D01*
X129297619Y-54627380D01*
X129392857Y-54627380D01*
X129535714Y-54675000D01*
X129583333Y-54722619D01*
X129916666Y-54627380D02*
X130583333Y-54627380D01*
X130154761Y-55627380D01*
%TO.C,J1*%
X95373866Y-49337980D02*
X95373866Y-50052266D01*
X95326247Y-50195123D01*
X95231009Y-50290361D01*
X95088152Y-50337980D01*
X94992914Y-50337980D01*
X96373866Y-50337980D02*
X95802438Y-50337980D01*
X96088152Y-50337980D02*
X96088152Y-49337980D01*
X95992914Y-49480838D01*
X95897676Y-49576076D01*
X95802438Y-49623695D01*
%TO.C,R2*%
X133802380Y-37250666D02*
X133326190Y-37584000D01*
X133802380Y-37822095D02*
X132802380Y-37822095D01*
X132802380Y-37441142D01*
X132850000Y-37345904D01*
X132897619Y-37298285D01*
X132992857Y-37250666D01*
X133135714Y-37250666D01*
X133230952Y-37298285D01*
X133278571Y-37345904D01*
X133326190Y-37441142D01*
X133326190Y-37822095D01*
X132897619Y-36869714D02*
X132850000Y-36822095D01*
X132802380Y-36726857D01*
X132802380Y-36488761D01*
X132850000Y-36393523D01*
X132897619Y-36345904D01*
X132992857Y-36298285D01*
X133088095Y-36298285D01*
X133230952Y-36345904D01*
X133802380Y-36917333D01*
X133802380Y-36298285D01*
%TO.C,D12*%
X155572814Y-59126380D02*
X155572814Y-58126380D01*
X155810909Y-58126380D01*
X155953766Y-58174000D01*
X156049004Y-58269238D01*
X156096623Y-58364476D01*
X156144242Y-58554952D01*
X156144242Y-58697809D01*
X156096623Y-58888285D01*
X156049004Y-58983523D01*
X155953766Y-59078761D01*
X155810909Y-59126380D01*
X155572814Y-59126380D01*
X157096623Y-59126380D02*
X156525195Y-59126380D01*
X156810909Y-59126380D02*
X156810909Y-58126380D01*
X156715671Y-58269238D01*
X156620433Y-58364476D01*
X156525195Y-58412095D01*
X157477576Y-58221619D02*
X157525195Y-58174000D01*
X157620433Y-58126380D01*
X157858528Y-58126380D01*
X157953766Y-58174000D01*
X158001385Y-58221619D01*
X158049004Y-58316857D01*
X158049004Y-58412095D01*
X158001385Y-58554952D01*
X157429957Y-59126380D01*
X158049004Y-59126380D01*
%TO.C,U11*%
X117816380Y-116046095D02*
X118625904Y-116046095D01*
X118721142Y-115998476D01*
X118768761Y-115950857D01*
X118816380Y-115855619D01*
X118816380Y-115665142D01*
X118768761Y-115569904D01*
X118721142Y-115522285D01*
X118625904Y-115474666D01*
X117816380Y-115474666D01*
X118816380Y-114474666D02*
X118816380Y-115046095D01*
X118816380Y-114760380D02*
X117816380Y-114760380D01*
X117959238Y-114855619D01*
X118054476Y-114950857D01*
X118102095Y-115046095D01*
X118816380Y-113522285D02*
X118816380Y-114093714D01*
X118816380Y-113808000D02*
X117816380Y-113808000D01*
X117959238Y-113903238D01*
X118054476Y-113998476D01*
X118102095Y-114093714D01*
%TO.C,BZ1*%
X121445447Y-95889771D02*
X121588304Y-95937390D01*
X121635923Y-95985009D01*
X121683542Y-96080247D01*
X121683542Y-96223104D01*
X121635923Y-96318342D01*
X121588304Y-96365961D01*
X121493066Y-96413580D01*
X121112114Y-96413580D01*
X121112114Y-95413580D01*
X121445447Y-95413580D01*
X121540685Y-95461200D01*
X121588304Y-95508819D01*
X121635923Y-95604057D01*
X121635923Y-95699295D01*
X121588304Y-95794533D01*
X121540685Y-95842152D01*
X121445447Y-95889771D01*
X121112114Y-95889771D01*
X122016876Y-95413580D02*
X122683542Y-95413580D01*
X122016876Y-96413580D01*
X122683542Y-96413580D01*
X123588304Y-96413580D02*
X123016876Y-96413580D01*
X123302590Y-96413580D02*
X123302590Y-95413580D01*
X123207352Y-95556438D01*
X123112114Y-95651676D01*
X123016876Y-95699295D01*
X122859847Y-99487028D02*
X123621752Y-99487028D01*
X123240800Y-99867980D02*
X123240800Y-99106076D01*
%TO.C,U4*%
X99782380Y-115584904D02*
X100591904Y-115584904D01*
X100687142Y-115537285D01*
X100734761Y-115489666D01*
X100782380Y-115394428D01*
X100782380Y-115203952D01*
X100734761Y-115108714D01*
X100687142Y-115061095D01*
X100591904Y-115013476D01*
X99782380Y-115013476D01*
X100115714Y-114108714D02*
X100782380Y-114108714D01*
X99734761Y-114346809D02*
X100449047Y-114584904D01*
X100449047Y-113965857D01*
%TO.C,D4*%
X114752380Y-38584095D02*
X113752380Y-38584095D01*
X113752380Y-38346000D01*
X113800000Y-38203142D01*
X113895238Y-38107904D01*
X113990476Y-38060285D01*
X114180952Y-38012666D01*
X114323809Y-38012666D01*
X114514285Y-38060285D01*
X114609523Y-38107904D01*
X114704761Y-38203142D01*
X114752380Y-38346000D01*
X114752380Y-38584095D01*
X114085714Y-37155523D02*
X114752380Y-37155523D01*
X113704761Y-37393619D02*
X114419047Y-37631714D01*
X114419047Y-37012666D01*
%TO.C,R28*%
X148048742Y-90520780D02*
X147715409Y-90044590D01*
X147477314Y-90520780D02*
X147477314Y-89520780D01*
X147858266Y-89520780D01*
X147953504Y-89568400D01*
X148001123Y-89616019D01*
X148048742Y-89711257D01*
X148048742Y-89854114D01*
X148001123Y-89949352D01*
X147953504Y-89996971D01*
X147858266Y-90044590D01*
X147477314Y-90044590D01*
X148429695Y-89616019D02*
X148477314Y-89568400D01*
X148572552Y-89520780D01*
X148810647Y-89520780D01*
X148905885Y-89568400D01*
X148953504Y-89616019D01*
X149001123Y-89711257D01*
X149001123Y-89806495D01*
X148953504Y-89949352D01*
X148382076Y-90520780D01*
X149001123Y-90520780D01*
X149572552Y-89949352D02*
X149477314Y-89901733D01*
X149429695Y-89854114D01*
X149382076Y-89758876D01*
X149382076Y-89711257D01*
X149429695Y-89616019D01*
X149477314Y-89568400D01*
X149572552Y-89520780D01*
X149763028Y-89520780D01*
X149858266Y-89568400D01*
X149905885Y-89616019D01*
X149953504Y-89711257D01*
X149953504Y-89758876D01*
X149905885Y-89854114D01*
X149858266Y-89901733D01*
X149763028Y-89949352D01*
X149572552Y-89949352D01*
X149477314Y-89996971D01*
X149429695Y-90044590D01*
X149382076Y-90139828D01*
X149382076Y-90330304D01*
X149429695Y-90425542D01*
X149477314Y-90473161D01*
X149572552Y-90520780D01*
X149763028Y-90520780D01*
X149858266Y-90473161D01*
X149905885Y-90425542D01*
X149953504Y-90330304D01*
X149953504Y-90139828D01*
X149905885Y-90044590D01*
X149858266Y-89996971D01*
X149763028Y-89949352D01*
%TO.C,U9*%
X116901980Y-95692104D02*
X117711504Y-95692104D01*
X117806742Y-95644485D01*
X117854361Y-95596866D01*
X117901980Y-95501628D01*
X117901980Y-95311152D01*
X117854361Y-95215914D01*
X117806742Y-95168295D01*
X117711504Y-95120676D01*
X116901980Y-95120676D01*
X117901980Y-94596866D02*
X117901980Y-94406390D01*
X117854361Y-94311152D01*
X117806742Y-94263533D01*
X117663885Y-94168295D01*
X117473409Y-94120676D01*
X117092457Y-94120676D01*
X116997219Y-94168295D01*
X116949600Y-94215914D01*
X116901980Y-94311152D01*
X116901980Y-94501628D01*
X116949600Y-94596866D01*
X116997219Y-94644485D01*
X117092457Y-94692104D01*
X117330552Y-94692104D01*
X117425790Y-94644485D01*
X117473409Y-94596866D01*
X117521028Y-94501628D01*
X117521028Y-94311152D01*
X117473409Y-94215914D01*
X117425790Y-94168295D01*
X117330552Y-94120676D01*
%TO.C,C5*%
X114782142Y-45491666D02*
X114829761Y-45539285D01*
X114877380Y-45682142D01*
X114877380Y-45777380D01*
X114829761Y-45920238D01*
X114734523Y-46015476D01*
X114639285Y-46063095D01*
X114448809Y-46110714D01*
X114305952Y-46110714D01*
X114115476Y-46063095D01*
X114020238Y-46015476D01*
X113925000Y-45920238D01*
X113877380Y-45777380D01*
X113877380Y-45682142D01*
X113925000Y-45539285D01*
X113972619Y-45491666D01*
X113877380Y-44586904D02*
X113877380Y-45063095D01*
X114353571Y-45110714D01*
X114305952Y-45063095D01*
X114258333Y-44967857D01*
X114258333Y-44729761D01*
X114305952Y-44634523D01*
X114353571Y-44586904D01*
X114448809Y-44539285D01*
X114686904Y-44539285D01*
X114782142Y-44586904D01*
X114829761Y-44634523D01*
X114877380Y-44729761D01*
X114877380Y-44967857D01*
X114829761Y-45063095D01*
X114782142Y-45110714D01*
%TO.C,R24*%
X143698242Y-68575180D02*
X143364909Y-68098990D01*
X143126814Y-68575180D02*
X143126814Y-67575180D01*
X143507766Y-67575180D01*
X143603004Y-67622800D01*
X143650623Y-67670419D01*
X143698242Y-67765657D01*
X143698242Y-67908514D01*
X143650623Y-68003752D01*
X143603004Y-68051371D01*
X143507766Y-68098990D01*
X143126814Y-68098990D01*
X144079195Y-67670419D02*
X144126814Y-67622800D01*
X144222052Y-67575180D01*
X144460147Y-67575180D01*
X144555385Y-67622800D01*
X144603004Y-67670419D01*
X144650623Y-67765657D01*
X144650623Y-67860895D01*
X144603004Y-68003752D01*
X144031576Y-68575180D01*
X144650623Y-68575180D01*
X145507766Y-67908514D02*
X145507766Y-68575180D01*
X145269671Y-67527561D02*
X145031576Y-68241847D01*
X145650623Y-68241847D01*
%TO.C,Q4*%
X155843219Y-86399338D02*
X155795600Y-86494576D01*
X155700361Y-86589814D01*
X155557504Y-86732671D01*
X155509885Y-86827909D01*
X155509885Y-86923147D01*
X155747980Y-86875528D02*
X155700361Y-86970766D01*
X155605123Y-87066004D01*
X155414647Y-87113623D01*
X155081314Y-87113623D01*
X154890838Y-87066004D01*
X154795600Y-86970766D01*
X154747980Y-86875528D01*
X154747980Y-86685052D01*
X154795600Y-86589814D01*
X154890838Y-86494576D01*
X155081314Y-86446957D01*
X155414647Y-86446957D01*
X155605123Y-86494576D01*
X155700361Y-86589814D01*
X155747980Y-86685052D01*
X155747980Y-86875528D01*
X155081314Y-85589814D02*
X155747980Y-85589814D01*
X154700361Y-85827909D02*
X155414647Y-86066004D01*
X155414647Y-85446957D01*
%TO.C,U1*%
X127609695Y-75271380D02*
X127609695Y-76080904D01*
X127657314Y-76176142D01*
X127704933Y-76223761D01*
X127800171Y-76271380D01*
X127990647Y-76271380D01*
X128085885Y-76223761D01*
X128133504Y-76176142D01*
X128181123Y-76080904D01*
X128181123Y-75271380D01*
X129181123Y-76271380D02*
X128609695Y-76271380D01*
X128895409Y-76271380D02*
X128895409Y-75271380D01*
X128800171Y-75414238D01*
X128704933Y-75509476D01*
X128609695Y-75557095D01*
%TO.C,D9*%
X156081504Y-96413580D02*
X156081504Y-95413580D01*
X156319600Y-95413580D01*
X156462457Y-95461200D01*
X156557695Y-95556438D01*
X156605314Y-95651676D01*
X156652933Y-95842152D01*
X156652933Y-95985009D01*
X156605314Y-96175485D01*
X156557695Y-96270723D01*
X156462457Y-96365961D01*
X156319600Y-96413580D01*
X156081504Y-96413580D01*
X157129123Y-96413580D02*
X157319600Y-96413580D01*
X157414838Y-96365961D01*
X157462457Y-96318342D01*
X157557695Y-96175485D01*
X157605314Y-95985009D01*
X157605314Y-95604057D01*
X157557695Y-95508819D01*
X157510076Y-95461200D01*
X157414838Y-95413580D01*
X157224361Y-95413580D01*
X157129123Y-95461200D01*
X157081504Y-95508819D01*
X157033885Y-95604057D01*
X157033885Y-95842152D01*
X157081504Y-95937390D01*
X157129123Y-95985009D01*
X157224361Y-96032628D01*
X157414838Y-96032628D01*
X157510076Y-95985009D01*
X157557695Y-95937390D01*
X157605314Y-95842152D01*
%TO.C,R13*%
X143629142Y-93619580D02*
X143295809Y-93143390D01*
X143057714Y-93619580D02*
X143057714Y-92619580D01*
X143438666Y-92619580D01*
X143533904Y-92667200D01*
X143581523Y-92714819D01*
X143629142Y-92810057D01*
X143629142Y-92952914D01*
X143581523Y-93048152D01*
X143533904Y-93095771D01*
X143438666Y-93143390D01*
X143057714Y-93143390D01*
X144581523Y-93619580D02*
X144010095Y-93619580D01*
X144295809Y-93619580D02*
X144295809Y-92619580D01*
X144200571Y-92762438D01*
X144105333Y-92857676D01*
X144010095Y-92905295D01*
X144914857Y-92619580D02*
X145533904Y-92619580D01*
X145200571Y-93000533D01*
X145343428Y-93000533D01*
X145438666Y-93048152D01*
X145486285Y-93095771D01*
X145533904Y-93191009D01*
X145533904Y-93429104D01*
X145486285Y-93524342D01*
X145438666Y-93571961D01*
X145343428Y-93619580D01*
X145057714Y-93619580D01*
X144962476Y-93571961D01*
X144914857Y-93524342D01*
%TO.C,D13*%
X154889114Y-93924380D02*
X154889114Y-92924380D01*
X155127209Y-92924380D01*
X155270066Y-92972000D01*
X155365304Y-93067238D01*
X155412923Y-93162476D01*
X155460542Y-93352952D01*
X155460542Y-93495809D01*
X155412923Y-93686285D01*
X155365304Y-93781523D01*
X155270066Y-93876761D01*
X155127209Y-93924380D01*
X154889114Y-93924380D01*
X156412923Y-93924380D02*
X155841495Y-93924380D01*
X156127209Y-93924380D02*
X156127209Y-92924380D01*
X156031971Y-93067238D01*
X155936733Y-93162476D01*
X155841495Y-93210095D01*
X156746257Y-92924380D02*
X157365304Y-92924380D01*
X157031971Y-93305333D01*
X157174828Y-93305333D01*
X157270066Y-93352952D01*
X157317685Y-93400571D01*
X157365304Y-93495809D01*
X157365304Y-93733904D01*
X157317685Y-93829142D01*
X157270066Y-93876761D01*
X157174828Y-93924380D01*
X156889114Y-93924380D01*
X156793876Y-93876761D01*
X156746257Y-93829142D01*
%TO.C,Q5*%
X139072619Y-98845238D02*
X139025000Y-98940476D01*
X138929761Y-99035714D01*
X138786904Y-99178571D01*
X138739285Y-99273809D01*
X138739285Y-99369047D01*
X138977380Y-99321428D02*
X138929761Y-99416666D01*
X138834523Y-99511904D01*
X138644047Y-99559523D01*
X138310714Y-99559523D01*
X138120238Y-99511904D01*
X138025000Y-99416666D01*
X137977380Y-99321428D01*
X137977380Y-99130952D01*
X138025000Y-99035714D01*
X138120238Y-98940476D01*
X138310714Y-98892857D01*
X138644047Y-98892857D01*
X138834523Y-98940476D01*
X138929761Y-99035714D01*
X138977380Y-99130952D01*
X138977380Y-99321428D01*
X137977380Y-97988095D02*
X137977380Y-98464285D01*
X138453571Y-98511904D01*
X138405952Y-98464285D01*
X138358333Y-98369047D01*
X138358333Y-98130952D01*
X138405952Y-98035714D01*
X138453571Y-97988095D01*
X138548809Y-97940476D01*
X138786904Y-97940476D01*
X138882142Y-97988095D01*
X138929761Y-98035714D01*
X138977380Y-98130952D01*
X138977380Y-98369047D01*
X138929761Y-98464285D01*
X138882142Y-98511904D01*
%TO.C,RV3*%
X172033561Y-36657580D02*
X171700228Y-36181390D01*
X171462133Y-36657580D02*
X171462133Y-35657580D01*
X171843085Y-35657580D01*
X171938323Y-35705200D01*
X171985942Y-35752819D01*
X172033561Y-35848057D01*
X172033561Y-35990914D01*
X171985942Y-36086152D01*
X171938323Y-36133771D01*
X171843085Y-36181390D01*
X171462133Y-36181390D01*
X172319276Y-35657580D02*
X172652609Y-36657580D01*
X172985942Y-35657580D01*
X173224038Y-35657580D02*
X173843085Y-35657580D01*
X173509752Y-36038533D01*
X173652609Y-36038533D01*
X173747847Y-36086152D01*
X173795466Y-36133771D01*
X173843085Y-36229009D01*
X173843085Y-36467104D01*
X173795466Y-36562342D01*
X173747847Y-36609961D01*
X173652609Y-36657580D01*
X173366895Y-36657580D01*
X173271657Y-36609961D01*
X173224038Y-36562342D01*
%TO.C,R3*%
X130500380Y-37504666D02*
X130024190Y-37838000D01*
X130500380Y-38076095D02*
X129500380Y-38076095D01*
X129500380Y-37695142D01*
X129548000Y-37599904D01*
X129595619Y-37552285D01*
X129690857Y-37504666D01*
X129833714Y-37504666D01*
X129928952Y-37552285D01*
X129976571Y-37599904D01*
X130024190Y-37695142D01*
X130024190Y-38076095D01*
X129500380Y-37171333D02*
X129500380Y-36552285D01*
X129881333Y-36885619D01*
X129881333Y-36742761D01*
X129928952Y-36647523D01*
X129976571Y-36599904D01*
X130071809Y-36552285D01*
X130309904Y-36552285D01*
X130405142Y-36599904D01*
X130452761Y-36647523D01*
X130500380Y-36742761D01*
X130500380Y-37028476D01*
X130452761Y-37123714D01*
X130405142Y-37171333D01*
%TO.C,D7*%
X155111304Y-112466380D02*
X155111304Y-111466380D01*
X155349400Y-111466380D01*
X155492257Y-111514000D01*
X155587495Y-111609238D01*
X155635114Y-111704476D01*
X155682733Y-111894952D01*
X155682733Y-112037809D01*
X155635114Y-112228285D01*
X155587495Y-112323523D01*
X155492257Y-112418761D01*
X155349400Y-112466380D01*
X155111304Y-112466380D01*
X156016066Y-111466380D02*
X156682733Y-111466380D01*
X156254161Y-112466380D01*
%TO.C,U17*%
X143948304Y-59955180D02*
X143948304Y-60764704D01*
X143995923Y-60859942D01*
X144043542Y-60907561D01*
X144138780Y-60955180D01*
X144329257Y-60955180D01*
X144424495Y-60907561D01*
X144472114Y-60859942D01*
X144519733Y-60764704D01*
X144519733Y-59955180D01*
X145519733Y-60955180D02*
X144948304Y-60955180D01*
X145234019Y-60955180D02*
X145234019Y-59955180D01*
X145138780Y-60098038D01*
X145043542Y-60193276D01*
X144948304Y-60240895D01*
X145853066Y-59955180D02*
X146519733Y-59955180D01*
X146091161Y-60955180D01*
%TO.C,U2*%
X128484380Y-47243904D02*
X129293904Y-47243904D01*
X129389142Y-47196285D01*
X129436761Y-47148666D01*
X129484380Y-47053428D01*
X129484380Y-46862952D01*
X129436761Y-46767714D01*
X129389142Y-46720095D01*
X129293904Y-46672476D01*
X128484380Y-46672476D01*
X128579619Y-46243904D02*
X128532000Y-46196285D01*
X128484380Y-46101047D01*
X128484380Y-45862952D01*
X128532000Y-45767714D01*
X128579619Y-45720095D01*
X128674857Y-45672476D01*
X128770095Y-45672476D01*
X128912952Y-45720095D01*
X129484380Y-46291523D01*
X129484380Y-45672476D01*
%TO.C,D14*%
X155605314Y-77871580D02*
X155605314Y-76871580D01*
X155843409Y-76871580D01*
X155986266Y-76919200D01*
X156081504Y-77014438D01*
X156129123Y-77109676D01*
X156176742Y-77300152D01*
X156176742Y-77443009D01*
X156129123Y-77633485D01*
X156081504Y-77728723D01*
X155986266Y-77823961D01*
X155843409Y-77871580D01*
X155605314Y-77871580D01*
X157129123Y-77871580D02*
X156557695Y-77871580D01*
X156843409Y-77871580D02*
X156843409Y-76871580D01*
X156748171Y-77014438D01*
X156652933Y-77109676D01*
X156557695Y-77157295D01*
X157986266Y-77204914D02*
X157986266Y-77871580D01*
X157748171Y-76823961D02*
X157510076Y-77538247D01*
X158129123Y-77538247D01*
%TO.C,D8*%
X156259304Y-115260380D02*
X156259304Y-114260380D01*
X156497400Y-114260380D01*
X156640257Y-114308000D01*
X156735495Y-114403238D01*
X156783114Y-114498476D01*
X156830733Y-114688952D01*
X156830733Y-114831809D01*
X156783114Y-115022285D01*
X156735495Y-115117523D01*
X156640257Y-115212761D01*
X156497400Y-115260380D01*
X156259304Y-115260380D01*
X157402161Y-114688952D02*
X157306923Y-114641333D01*
X157259304Y-114593714D01*
X157211685Y-114498476D01*
X157211685Y-114450857D01*
X157259304Y-114355619D01*
X157306923Y-114308000D01*
X157402161Y-114260380D01*
X157592638Y-114260380D01*
X157687876Y-114308000D01*
X157735495Y-114355619D01*
X157783114Y-114450857D01*
X157783114Y-114498476D01*
X157735495Y-114593714D01*
X157687876Y-114641333D01*
X157592638Y-114688952D01*
X157402161Y-114688952D01*
X157306923Y-114736571D01*
X157259304Y-114784190D01*
X157211685Y-114879428D01*
X157211685Y-115069904D01*
X157259304Y-115165142D01*
X157306923Y-115212761D01*
X157402161Y-115260380D01*
X157592638Y-115260380D01*
X157687876Y-115212761D01*
X157735495Y-115165142D01*
X157783114Y-115069904D01*
X157783114Y-114879428D01*
X157735495Y-114784190D01*
X157687876Y-114736571D01*
X157592638Y-114688952D01*
%TO.C,R19*%
X147947142Y-109164380D02*
X147613809Y-108688190D01*
X147375714Y-109164380D02*
X147375714Y-108164380D01*
X147756666Y-108164380D01*
X147851904Y-108212000D01*
X147899523Y-108259619D01*
X147947142Y-108354857D01*
X147947142Y-108497714D01*
X147899523Y-108592952D01*
X147851904Y-108640571D01*
X147756666Y-108688190D01*
X147375714Y-108688190D01*
X148899523Y-109164380D02*
X148328095Y-109164380D01*
X148613809Y-109164380D02*
X148613809Y-108164380D01*
X148518571Y-108307238D01*
X148423333Y-108402476D01*
X148328095Y-108450095D01*
X149375714Y-109164380D02*
X149566190Y-109164380D01*
X149661428Y-109116761D01*
X149709047Y-109069142D01*
X149804285Y-108926285D01*
X149851904Y-108735809D01*
X149851904Y-108354857D01*
X149804285Y-108259619D01*
X149756666Y-108212000D01*
X149661428Y-108164380D01*
X149470952Y-108164380D01*
X149375714Y-108212000D01*
X149328095Y-108259619D01*
X149280476Y-108354857D01*
X149280476Y-108592952D01*
X149328095Y-108688190D01*
X149375714Y-108735809D01*
X149470952Y-108783428D01*
X149661428Y-108783428D01*
X149756666Y-108735809D01*
X149804285Y-108688190D01*
X149851904Y-108592952D01*
%TO.C,RN2*%
X103576523Y-127566380D02*
X103243190Y-127090190D01*
X103005095Y-127566380D02*
X103005095Y-126566380D01*
X103386047Y-126566380D01*
X103481285Y-126614000D01*
X103528904Y-126661619D01*
X103576523Y-126756857D01*
X103576523Y-126899714D01*
X103528904Y-126994952D01*
X103481285Y-127042571D01*
X103386047Y-127090190D01*
X103005095Y-127090190D01*
X104005095Y-127566380D02*
X104005095Y-126566380D01*
X104576523Y-127566380D01*
X104576523Y-126566380D01*
X105005095Y-126661619D02*
X105052714Y-126614000D01*
X105147952Y-126566380D01*
X105386047Y-126566380D01*
X105481285Y-126614000D01*
X105528904Y-126661619D01*
X105576523Y-126756857D01*
X105576523Y-126852095D01*
X105528904Y-126994952D01*
X104957476Y-127566380D01*
X105576523Y-127566380D01*
%TO.C,U5*%
X108037380Y-95742904D02*
X108846904Y-95742904D01*
X108942142Y-95695285D01*
X108989761Y-95647666D01*
X109037380Y-95552428D01*
X109037380Y-95361952D01*
X108989761Y-95266714D01*
X108942142Y-95219095D01*
X108846904Y-95171476D01*
X108037380Y-95171476D01*
X108037380Y-94219095D02*
X108037380Y-94695285D01*
X108513571Y-94742904D01*
X108465952Y-94695285D01*
X108418333Y-94600047D01*
X108418333Y-94361952D01*
X108465952Y-94266714D01*
X108513571Y-94219095D01*
X108608809Y-94171476D01*
X108846904Y-94171476D01*
X108942142Y-94219095D01*
X108989761Y-94266714D01*
X109037380Y-94361952D01*
X109037380Y-94600047D01*
X108989761Y-94695285D01*
X108942142Y-94742904D01*
%TO.C,R16*%
X143781542Y-124404380D02*
X143448209Y-123928190D01*
X143210114Y-124404380D02*
X143210114Y-123404380D01*
X143591066Y-123404380D01*
X143686304Y-123452000D01*
X143733923Y-123499619D01*
X143781542Y-123594857D01*
X143781542Y-123737714D01*
X143733923Y-123832952D01*
X143686304Y-123880571D01*
X143591066Y-123928190D01*
X143210114Y-123928190D01*
X144733923Y-124404380D02*
X144162495Y-124404380D01*
X144448209Y-124404380D02*
X144448209Y-123404380D01*
X144352971Y-123547238D01*
X144257733Y-123642476D01*
X144162495Y-123690095D01*
X145591066Y-123404380D02*
X145400590Y-123404380D01*
X145305352Y-123452000D01*
X145257733Y-123499619D01*
X145162495Y-123642476D01*
X145114876Y-123832952D01*
X145114876Y-124213904D01*
X145162495Y-124309142D01*
X145210114Y-124356761D01*
X145305352Y-124404380D01*
X145495828Y-124404380D01*
X145591066Y-124356761D01*
X145638685Y-124309142D01*
X145686304Y-124213904D01*
X145686304Y-123975809D01*
X145638685Y-123880571D01*
X145591066Y-123832952D01*
X145495828Y-123785333D01*
X145305352Y-123785333D01*
X145210114Y-123832952D01*
X145162495Y-123880571D01*
X145114876Y-123975809D01*
%TO.C,R27*%
X143578342Y-87167980D02*
X143245009Y-86691790D01*
X143006914Y-87167980D02*
X143006914Y-86167980D01*
X143387866Y-86167980D01*
X143483104Y-86215600D01*
X143530723Y-86263219D01*
X143578342Y-86358457D01*
X143578342Y-86501314D01*
X143530723Y-86596552D01*
X143483104Y-86644171D01*
X143387866Y-86691790D01*
X143006914Y-86691790D01*
X143959295Y-86263219D02*
X144006914Y-86215600D01*
X144102152Y-86167980D01*
X144340247Y-86167980D01*
X144435485Y-86215600D01*
X144483104Y-86263219D01*
X144530723Y-86358457D01*
X144530723Y-86453695D01*
X144483104Y-86596552D01*
X143911676Y-87167980D01*
X144530723Y-87167980D01*
X144864057Y-86167980D02*
X145530723Y-86167980D01*
X145102152Y-87167980D01*
%TO.C,C9*%
X112990333Y-102719142D02*
X112942714Y-102766761D01*
X112799857Y-102814380D01*
X112704619Y-102814380D01*
X112561761Y-102766761D01*
X112466523Y-102671523D01*
X112418904Y-102576285D01*
X112371285Y-102385809D01*
X112371285Y-102242952D01*
X112418904Y-102052476D01*
X112466523Y-101957238D01*
X112561761Y-101862000D01*
X112704619Y-101814380D01*
X112799857Y-101814380D01*
X112942714Y-101862000D01*
X112990333Y-101909619D01*
X113466523Y-102814380D02*
X113657000Y-102814380D01*
X113752238Y-102766761D01*
X113799857Y-102719142D01*
X113895095Y-102576285D01*
X113942714Y-102385809D01*
X113942714Y-102004857D01*
X113895095Y-101909619D01*
X113847476Y-101862000D01*
X113752238Y-101814380D01*
X113561761Y-101814380D01*
X113466523Y-101862000D01*
X113418904Y-101909619D01*
X113371285Y-102004857D01*
X113371285Y-102242952D01*
X113418904Y-102338190D01*
X113466523Y-102385809D01*
X113561761Y-102433428D01*
X113752238Y-102433428D01*
X113847476Y-102385809D01*
X113895095Y-102338190D01*
X113942714Y-102242952D01*
%TO.C,U18*%
X143831704Y-78598780D02*
X143831704Y-79408304D01*
X143879323Y-79503542D01*
X143926942Y-79551161D01*
X144022180Y-79598780D01*
X144212657Y-79598780D01*
X144307895Y-79551161D01*
X144355514Y-79503542D01*
X144403133Y-79408304D01*
X144403133Y-78598780D01*
X145403133Y-79598780D02*
X144831704Y-79598780D01*
X145117419Y-79598780D02*
X145117419Y-78598780D01*
X145022180Y-78741638D01*
X144926942Y-78836876D01*
X144831704Y-78884495D01*
X145974561Y-79027352D02*
X145879323Y-78979733D01*
X145831704Y-78932114D01*
X145784085Y-78836876D01*
X145784085Y-78789257D01*
X145831704Y-78694019D01*
X145879323Y-78646400D01*
X145974561Y-78598780D01*
X146165038Y-78598780D01*
X146260276Y-78646400D01*
X146307895Y-78694019D01*
X146355514Y-78789257D01*
X146355514Y-78836876D01*
X146307895Y-78932114D01*
X146260276Y-78979733D01*
X146165038Y-79027352D01*
X145974561Y-79027352D01*
X145879323Y-79074971D01*
X145831704Y-79122590D01*
X145784085Y-79217828D01*
X145784085Y-79408304D01*
X145831704Y-79503542D01*
X145879323Y-79551161D01*
X145974561Y-79598780D01*
X146165038Y-79598780D01*
X146260276Y-79551161D01*
X146307895Y-79503542D01*
X146355514Y-79408304D01*
X146355514Y-79217828D01*
X146307895Y-79122590D01*
X146260276Y-79074971D01*
X146165038Y-79027352D01*
%TO.C,R4*%
X96337380Y-115863666D02*
X95861190Y-116197000D01*
X96337380Y-116435095D02*
X95337380Y-116435095D01*
X95337380Y-116054142D01*
X95385000Y-115958904D01*
X95432619Y-115911285D01*
X95527857Y-115863666D01*
X95670714Y-115863666D01*
X95765952Y-115911285D01*
X95813571Y-115958904D01*
X95861190Y-116054142D01*
X95861190Y-116435095D01*
X95670714Y-115006523D02*
X96337380Y-115006523D01*
X95289761Y-115244619D02*
X96004047Y-115482714D01*
X96004047Y-114863666D01*
%TO.C,J4*%
X95170666Y-70064380D02*
X95170666Y-70778666D01*
X95123047Y-70921523D01*
X95027809Y-71016761D01*
X94884952Y-71064380D01*
X94789714Y-71064380D01*
X96075428Y-70397714D02*
X96075428Y-71064380D01*
X95837333Y-70016761D02*
X95599238Y-70731047D01*
X96218285Y-70731047D01*
%TO.C,Q2*%
X155995619Y-104946438D02*
X155948000Y-105041676D01*
X155852761Y-105136914D01*
X155709904Y-105279771D01*
X155662285Y-105375009D01*
X155662285Y-105470247D01*
X155900380Y-105422628D02*
X155852761Y-105517866D01*
X155757523Y-105613104D01*
X155567047Y-105660723D01*
X155233714Y-105660723D01*
X155043238Y-105613104D01*
X154948000Y-105517866D01*
X154900380Y-105422628D01*
X154900380Y-105232152D01*
X154948000Y-105136914D01*
X155043238Y-105041676D01*
X155233714Y-104994057D01*
X155567047Y-104994057D01*
X155757523Y-105041676D01*
X155852761Y-105136914D01*
X155900380Y-105232152D01*
X155900380Y-105422628D01*
X154995619Y-104613104D02*
X154948000Y-104565485D01*
X154900380Y-104470247D01*
X154900380Y-104232152D01*
X154948000Y-104136914D01*
X154995619Y-104089295D01*
X155090857Y-104041676D01*
X155186095Y-104041676D01*
X155328952Y-104089295D01*
X155900380Y-104660723D01*
X155900380Y-104041676D01*
%TO.C,RN1*%
X107132380Y-86923476D02*
X106656190Y-87256809D01*
X107132380Y-87494904D02*
X106132380Y-87494904D01*
X106132380Y-87113952D01*
X106180000Y-87018714D01*
X106227619Y-86971095D01*
X106322857Y-86923476D01*
X106465714Y-86923476D01*
X106560952Y-86971095D01*
X106608571Y-87018714D01*
X106656190Y-87113952D01*
X106656190Y-87494904D01*
X107132380Y-86494904D02*
X106132380Y-86494904D01*
X107132380Y-85923476D01*
X106132380Y-85923476D01*
X107132380Y-84923476D02*
X107132380Y-85494904D01*
X107132380Y-85209190D02*
X106132380Y-85209190D01*
X106275238Y-85304428D01*
X106370476Y-85399666D01*
X106418095Y-85494904D01*
%TO.C,R8*%
X105227380Y-115609666D02*
X104751190Y-115943000D01*
X105227380Y-116181095D02*
X104227380Y-116181095D01*
X104227380Y-115800142D01*
X104275000Y-115704904D01*
X104322619Y-115657285D01*
X104417857Y-115609666D01*
X104560714Y-115609666D01*
X104655952Y-115657285D01*
X104703571Y-115704904D01*
X104751190Y-115800142D01*
X104751190Y-116181095D01*
X104655952Y-115038238D02*
X104608333Y-115133476D01*
X104560714Y-115181095D01*
X104465476Y-115228714D01*
X104417857Y-115228714D01*
X104322619Y-115181095D01*
X104275000Y-115133476D01*
X104227380Y-115038238D01*
X104227380Y-114847761D01*
X104275000Y-114752523D01*
X104322619Y-114704904D01*
X104417857Y-114657285D01*
X104465476Y-114657285D01*
X104560714Y-114704904D01*
X104608333Y-114752523D01*
X104655952Y-114847761D01*
X104655952Y-115038238D01*
X104703571Y-115133476D01*
X104751190Y-115181095D01*
X104846428Y-115228714D01*
X105036904Y-115228714D01*
X105132142Y-115181095D01*
X105179761Y-115133476D01*
X105227380Y-115038238D01*
X105227380Y-114847761D01*
X105179761Y-114752523D01*
X105132142Y-114704904D01*
X105036904Y-114657285D01*
X104846428Y-114657285D01*
X104751190Y-114704904D01*
X104703571Y-114752523D01*
X104655952Y-114847761D01*
%TO.C,Q3*%
X156015719Y-68065638D02*
X155968100Y-68160876D01*
X155872861Y-68256114D01*
X155730004Y-68398971D01*
X155682385Y-68494209D01*
X155682385Y-68589447D01*
X155920480Y-68541828D02*
X155872861Y-68637066D01*
X155777623Y-68732304D01*
X155587147Y-68779923D01*
X155253814Y-68779923D01*
X155063338Y-68732304D01*
X154968100Y-68637066D01*
X154920480Y-68541828D01*
X154920480Y-68351352D01*
X154968100Y-68256114D01*
X155063338Y-68160876D01*
X155253814Y-68113257D01*
X155587147Y-68113257D01*
X155777623Y-68160876D01*
X155872861Y-68256114D01*
X155920480Y-68351352D01*
X155920480Y-68541828D01*
X154920480Y-67779923D02*
X154920480Y-67160876D01*
X155301433Y-67494209D01*
X155301433Y-67351352D01*
X155349052Y-67256114D01*
X155396671Y-67208495D01*
X155491909Y-67160876D01*
X155730004Y-67160876D01*
X155825242Y-67208495D01*
X155872861Y-67256114D01*
X155920480Y-67351352D01*
X155920480Y-67637066D01*
X155872861Y-67732304D01*
X155825242Y-67779923D01*
%TO.C,U7*%
X126452380Y-115584904D02*
X127261904Y-115584904D01*
X127357142Y-115537285D01*
X127404761Y-115489666D01*
X127452380Y-115394428D01*
X127452380Y-115203952D01*
X127404761Y-115108714D01*
X127357142Y-115061095D01*
X127261904Y-115013476D01*
X126452380Y-115013476D01*
X126452380Y-114632523D02*
X126452380Y-113965857D01*
X127452380Y-114394428D01*
%TO.C,U20*%
X156305504Y-80071980D02*
X156305504Y-80881504D01*
X156353123Y-80976742D01*
X156400742Y-81024361D01*
X156495980Y-81071980D01*
X156686457Y-81071980D01*
X156781695Y-81024361D01*
X156829314Y-80976742D01*
X156876933Y-80881504D01*
X156876933Y-80071980D01*
X157305504Y-80167219D02*
X157353123Y-80119600D01*
X157448361Y-80071980D01*
X157686457Y-80071980D01*
X157781695Y-80119600D01*
X157829314Y-80167219D01*
X157876933Y-80262457D01*
X157876933Y-80357695D01*
X157829314Y-80500552D01*
X157257885Y-81071980D01*
X157876933Y-81071980D01*
X158495980Y-80071980D02*
X158591219Y-80071980D01*
X158686457Y-80119600D01*
X158734076Y-80167219D01*
X158781695Y-80262457D01*
X158829314Y-80452933D01*
X158829314Y-80691028D01*
X158781695Y-80881504D01*
X158734076Y-80976742D01*
X158686457Y-81024361D01*
X158591219Y-81071980D01*
X158495980Y-81071980D01*
X158400742Y-81024361D01*
X158353123Y-80976742D01*
X158305504Y-80881504D01*
X158257885Y-80691028D01*
X158257885Y-80452933D01*
X158305504Y-80262457D01*
X158353123Y-80167219D01*
X158400742Y-80119600D01*
X158495980Y-80071980D01*
%TO.C,U12*%
X112482380Y-108553095D02*
X113291904Y-108553095D01*
X113387142Y-108505476D01*
X113434761Y-108457857D01*
X113482380Y-108362619D01*
X113482380Y-108172142D01*
X113434761Y-108076904D01*
X113387142Y-108029285D01*
X113291904Y-107981666D01*
X112482380Y-107981666D01*
X113482380Y-106981666D02*
X113482380Y-107553095D01*
X113482380Y-107267380D02*
X112482380Y-107267380D01*
X112625238Y-107362619D01*
X112720476Y-107457857D01*
X112768095Y-107553095D01*
X112577619Y-106600714D02*
X112530000Y-106553095D01*
X112482380Y-106457857D01*
X112482380Y-106219761D01*
X112530000Y-106124523D01*
X112577619Y-106076904D01*
X112672857Y-106029285D01*
X112768095Y-106029285D01*
X112910952Y-106076904D01*
X113482380Y-106648333D01*
X113482380Y-106029285D01*
%TO.C,R23*%
X143578342Y-75128380D02*
X143245009Y-74652190D01*
X143006914Y-75128380D02*
X143006914Y-74128380D01*
X143387866Y-74128380D01*
X143483104Y-74176000D01*
X143530723Y-74223619D01*
X143578342Y-74318857D01*
X143578342Y-74461714D01*
X143530723Y-74556952D01*
X143483104Y-74604571D01*
X143387866Y-74652190D01*
X143006914Y-74652190D01*
X143959295Y-74223619D02*
X144006914Y-74176000D01*
X144102152Y-74128380D01*
X144340247Y-74128380D01*
X144435485Y-74176000D01*
X144483104Y-74223619D01*
X144530723Y-74318857D01*
X144530723Y-74414095D01*
X144483104Y-74556952D01*
X143911676Y-75128380D01*
X144530723Y-75128380D01*
X144864057Y-74128380D02*
X145483104Y-74128380D01*
X145149771Y-74509333D01*
X145292628Y-74509333D01*
X145387866Y-74556952D01*
X145435485Y-74604571D01*
X145483104Y-74699809D01*
X145483104Y-74937904D01*
X145435485Y-75033142D01*
X145387866Y-75080761D01*
X145292628Y-75128380D01*
X145006914Y-75128380D01*
X144911676Y-75080761D01*
X144864057Y-75033142D01*
D11*
%TO.C,J5*%
X130820000Y-117320000D02*
X130820000Y-109640000D01*
X133480000Y-118590000D02*
X133480000Y-119920000D01*
X133480000Y-109640000D02*
X130820000Y-109640000D01*
X133480000Y-117320000D02*
X130820000Y-117320000D01*
X133480000Y-119920000D02*
X132150000Y-119920000D01*
X133480000Y-117320000D02*
X133480000Y-109640000D01*
%TO.C,G\u002A\u002A\u002A*%
G36*
X166160858Y-50410705D02*
G01*
X166276092Y-50499171D01*
X166307623Y-50526403D01*
X166456169Y-50655405D01*
X166639731Y-50811788D01*
X166729318Y-50887099D01*
X166867284Y-51009964D01*
X166958253Y-51105481D01*
X166979782Y-51141850D01*
X166928474Y-51194662D01*
X166799849Y-51258178D01*
X166631857Y-51318484D01*
X166462448Y-51361672D01*
X166345063Y-51374521D01*
X166171693Y-51343662D01*
X166023607Y-51285017D01*
X165835939Y-51128227D01*
X165747495Y-50923685D01*
X165742195Y-50854883D01*
X165775943Y-50748514D01*
X165858214Y-50609463D01*
X165960555Y-50476780D01*
X166054510Y-50389516D01*
X166091864Y-50375025D01*
X166160858Y-50410705D01*
G37*
G36*
X166740861Y-48587216D02*
G01*
X166887253Y-48679156D01*
X166951423Y-48787331D01*
X166943269Y-48939566D01*
X166847430Y-49111006D01*
X166682716Y-49270346D01*
X166645473Y-49296479D01*
X166552486Y-49342703D01*
X166479667Y-49315251D01*
X166399408Y-49223834D01*
X166267722Y-49016004D01*
X166234772Y-48843968D01*
X166271026Y-48727831D01*
X166392876Y-48608067D01*
X166562778Y-48562357D01*
X166740861Y-48587216D01*
G37*
G36*
X162021738Y-49207984D02*
G01*
X162071088Y-49357871D01*
X162138111Y-49571744D01*
X162194276Y-49756231D01*
X162272491Y-50012900D01*
X162341886Y-50234813D01*
X162393232Y-50392766D01*
X162413108Y-50448691D01*
X162422885Y-50500806D01*
X162386047Y-50531744D01*
X162281144Y-50546888D01*
X162086722Y-50551625D01*
X162002302Y-50551823D01*
X161773963Y-50549059D01*
X161641415Y-50537188D01*
X161582642Y-50510837D01*
X161575626Y-50464636D01*
X161579569Y-50448691D01*
X161662667Y-50164860D01*
X161749401Y-49879191D01*
X161832833Y-49613271D01*
X161906027Y-49388689D01*
X161962045Y-49227033D01*
X161993952Y-49149890D01*
X161997956Y-49146599D01*
X162021738Y-49207984D01*
G37*
G36*
X157648624Y-51095374D02*
G01*
X157540530Y-50852691D01*
X157447063Y-50504274D01*
X157405138Y-50095676D01*
X157414754Y-49672718D01*
X157475912Y-49281217D01*
X157540530Y-49072301D01*
X157808636Y-48546201D01*
X158186443Y-48043327D01*
X158667413Y-47567384D01*
X159245009Y-47122081D01*
X159912694Y-46711122D01*
X160663929Y-46338217D01*
X161492178Y-46007070D01*
X162390903Y-45721390D01*
X163353567Y-45484884D01*
X164121546Y-45340697D01*
X164653260Y-45258627D01*
X165136587Y-45196639D01*
X165603738Y-45152334D01*
X166086922Y-45123311D01*
X166618352Y-45107172D01*
X167230237Y-45101517D01*
X167333379Y-45101425D01*
X168237980Y-45114636D01*
X169058579Y-45156614D01*
X169826302Y-45230879D01*
X170572275Y-45340949D01*
X171327627Y-45490341D01*
X171841731Y-45611030D01*
X172785382Y-45877641D01*
X173655619Y-46190334D01*
X174446677Y-46545328D01*
X175152791Y-46938842D01*
X175768198Y-47367097D01*
X176287131Y-47826313D01*
X176703827Y-48312708D01*
X177012520Y-48822502D01*
X177119824Y-49072227D01*
X177256688Y-49597516D01*
X177277420Y-50125160D01*
X177183498Y-50649775D01*
X176976400Y-51165979D01*
X176657604Y-51668389D01*
X176291165Y-52089446D01*
X175702102Y-52608199D01*
X175009069Y-53079137D01*
X174216615Y-53500441D01*
X173329291Y-53870294D01*
X172351646Y-54186877D01*
X171288229Y-54448370D01*
X170143591Y-54652957D01*
X169736744Y-54709226D01*
X169473495Y-54735803D01*
X169122834Y-54760650D01*
X168708269Y-54783073D01*
X168253307Y-54802378D01*
X167781456Y-54817871D01*
X167316222Y-54828857D01*
X166881114Y-54834642D01*
X166499637Y-54834531D01*
X166195299Y-54827831D01*
X166036859Y-54818512D01*
X165254835Y-54742178D01*
X164562300Y-54656501D01*
X163930986Y-54557183D01*
X163332623Y-54439927D01*
X162913425Y-54343705D01*
X161958136Y-54078265D01*
X161076288Y-53765200D01*
X160273615Y-53408236D01*
X159555853Y-53011101D01*
X158928738Y-52577521D01*
X158398004Y-52111222D01*
X158374511Y-52084074D01*
X159792908Y-52084074D01*
X161083218Y-52084074D01*
X161177962Y-51758167D01*
X161272705Y-51432261D01*
X161986155Y-51448771D01*
X162699605Y-51465280D01*
X162801210Y-51759944D01*
X162902815Y-52054607D01*
X163560977Y-52071314D01*
X163846585Y-52077219D01*
X164033370Y-52075819D01*
X164140286Y-52064428D01*
X164186286Y-52040365D01*
X164190322Y-52000944D01*
X164185293Y-51982914D01*
X164157039Y-51904577D01*
X164092047Y-51729476D01*
X163995368Y-51471056D01*
X163872050Y-51142763D01*
X163845563Y-51072441D01*
X164641341Y-51072441D01*
X164717935Y-51383334D01*
X164892372Y-51660529D01*
X165154640Y-51887414D01*
X165448157Y-52031554D01*
X165631004Y-52087617D01*
X165815690Y-52119202D01*
X166039447Y-52129953D01*
X166339508Y-52123513D01*
X166373819Y-52122119D01*
X166674711Y-52104880D01*
X166898358Y-52077003D01*
X167085359Y-52030000D01*
X167276312Y-51955382D01*
X167365026Y-51914906D01*
X167754076Y-51732847D01*
X168059389Y-51940149D01*
X168364701Y-52147451D01*
X168617104Y-51865298D01*
X168796805Y-51660896D01*
X168900977Y-51521964D01*
X168933210Y-51426610D01*
X168897096Y-51352940D01*
X168796225Y-51279061D01*
X168720640Y-51234038D01*
X168564104Y-51135752D01*
X168453357Y-51054129D01*
X168424451Y-51024607D01*
X168427277Y-50941544D01*
X168476082Y-50800936D01*
X168502242Y-50745376D01*
X168611174Y-50521862D01*
X168659293Y-50379408D01*
X168640155Y-50294494D01*
X168547312Y-50243601D01*
X168374318Y-50203211D01*
X168352450Y-50198862D01*
X168151055Y-50157682D01*
X167988217Y-50122179D01*
X167918902Y-50105267D01*
X167824608Y-50136488D01*
X167740654Y-50261045D01*
X167654607Y-50442734D01*
X167376127Y-50197607D01*
X167231212Y-50063785D01*
X167130496Y-49958815D01*
X167097648Y-49909899D01*
X167141930Y-49855210D01*
X167256001Y-49759342D01*
X167363068Y-49680234D01*
X167643500Y-49431278D01*
X167809693Y-49159102D01*
X167863553Y-48866223D01*
X167811339Y-48569581D01*
X167657931Y-48326994D01*
X167409058Y-48142925D01*
X167213429Y-48072967D01*
X169240512Y-48072967D01*
X169241020Y-48124335D01*
X169246460Y-48150315D01*
X169269646Y-48255222D01*
X169312499Y-48449657D01*
X169369381Y-48708029D01*
X169434658Y-49004748D01*
X169450877Y-49078505D01*
X169525276Y-49415911D01*
X169616360Y-49827528D01*
X169715081Y-50272547D01*
X169812391Y-50710159D01*
X169864515Y-50944038D01*
X169939856Y-51283643D01*
X170005424Y-51582830D01*
X170057191Y-51822922D01*
X170091131Y-51985239D01*
X170103216Y-52051020D01*
X170158079Y-52064656D01*
X170306577Y-52072831D01*
X170524572Y-52074766D01*
X170731390Y-52071334D01*
X171359563Y-52054607D01*
X171685551Y-50861220D01*
X171784158Y-50506438D01*
X171874343Y-50193622D01*
X171951034Y-49939429D01*
X172009162Y-49760513D01*
X172043656Y-49673530D01*
X172048860Y-49667832D01*
X172075822Y-49721722D01*
X172127848Y-49871379D01*
X172199260Y-50098784D01*
X172284383Y-50385917D01*
X172369113Y-50684422D01*
X172464563Y-51027176D01*
X172552664Y-51343159D01*
X172627060Y-51609607D01*
X172681397Y-51803755D01*
X172706386Y-51892542D01*
X172760728Y-52084074D01*
X173375629Y-52084074D01*
X173650802Y-52082733D01*
X173830265Y-52075680D01*
X173936167Y-52058372D01*
X173990657Y-52026262D01*
X174015884Y-51974807D01*
X174021879Y-51951475D01*
X174045643Y-51846756D01*
X174089313Y-51650270D01*
X174149344Y-51378240D01*
X174222191Y-51046892D01*
X174304312Y-50672449D01*
X174392163Y-50271134D01*
X174482199Y-49859173D01*
X174570878Y-49452789D01*
X174654654Y-49068206D01*
X174729986Y-48721647D01*
X174793327Y-48429338D01*
X174841136Y-48207502D01*
X174869868Y-48072363D01*
X174876766Y-48037655D01*
X174822008Y-48029257D01*
X174674427Y-48022606D01*
X174459063Y-48018553D01*
X174291665Y-48017716D01*
X173706565Y-48017716D01*
X173641285Y-48327113D01*
X173604696Y-48506348D01*
X173553105Y-48766727D01*
X173493321Y-49073565D01*
X173432154Y-49392177D01*
X173431169Y-49397349D01*
X173375949Y-49681288D01*
X173327267Y-49920231D01*
X173289803Y-50092009D01*
X173268239Y-50174456D01*
X173266263Y-50178258D01*
X173245222Y-50130750D01*
X173198592Y-49986532D01*
X173131488Y-49762693D01*
X173049025Y-49476319D01*
X172956317Y-49144497D01*
X172950331Y-49122756D01*
X172654469Y-48047183D01*
X171441297Y-48047183D01*
X171329347Y-48459712D01*
X171191632Y-48965931D01*
X171081278Y-49368396D01*
X170995356Y-49677258D01*
X170930933Y-49902667D01*
X170885078Y-50054776D01*
X170854862Y-50143735D01*
X170837353Y-50179697D01*
X170832397Y-50180927D01*
X170815127Y-50118828D01*
X170780727Y-49960326D01*
X170733175Y-49724978D01*
X170676450Y-49432340D01*
X170631179Y-49191865D01*
X170569146Y-48861938D01*
X170512552Y-48567532D01*
X170465681Y-48330430D01*
X170432818Y-48172418D01*
X170420537Y-48120849D01*
X170391954Y-48073112D01*
X170325734Y-48042622D01*
X170199917Y-48025708D01*
X169992543Y-48018699D01*
X169803458Y-48017716D01*
X169537064Y-48018735D01*
X169368078Y-48025036D01*
X169276046Y-48041490D01*
X169240512Y-48072967D01*
X167213429Y-48072967D01*
X167070451Y-48021837D01*
X166714975Y-47971674D01*
X166273613Y-47980830D01*
X165897357Y-48065237D01*
X165595744Y-48219672D01*
X165378311Y-48438912D01*
X165254596Y-48717734D01*
X165242289Y-48778093D01*
X165245414Y-49018634D01*
X165313343Y-49289006D01*
X165428983Y-49534276D01*
X165511716Y-49643956D01*
X165630849Y-49770767D01*
X165309569Y-49952087D01*
X165020656Y-50150062D01*
X164824494Y-50376907D01*
X164695990Y-50663835D01*
X164672600Y-50744466D01*
X164641341Y-51072441D01*
X163845563Y-51072441D01*
X163727142Y-50758042D01*
X163565693Y-50330340D01*
X163426591Y-49962496D01*
X162701736Y-48047183D01*
X161301743Y-48047183D01*
X161139463Y-48489178D01*
X161036047Y-48769347D01*
X160924074Y-49070399D01*
X160832645Y-49314236D01*
X160764142Y-49496425D01*
X160664465Y-49762359D01*
X160543606Y-50085340D01*
X160411558Y-50438671D01*
X160303317Y-50728621D01*
X160177168Y-51066400D01*
X160061369Y-51375849D01*
X159963753Y-51636088D01*
X159892152Y-51826235D01*
X159855718Y-51922009D01*
X159792908Y-52084074D01*
X158374511Y-52084074D01*
X157969388Y-51615931D01*
X157648624Y-51095374D01*
G37*
D10*
%TO.C,RV2*%
X176332000Y-92450800D02*
X176332000Y-98150800D01*
X176332000Y-98150800D02*
X183332000Y-98150800D01*
X176332000Y-92450800D02*
X183332000Y-92450800D01*
X183332000Y-92450800D02*
X183332000Y-98150800D01*
%TO.C,RV4*%
X176332000Y-55570000D02*
X176332000Y-61270000D01*
X176332000Y-61270000D02*
X183332000Y-61270000D01*
X176332000Y-55570000D02*
X183332000Y-55570000D01*
X183332000Y-55570000D02*
X183332000Y-61270000D01*
%TO.C,RV1*%
X176332000Y-111856400D02*
X176332000Y-117556400D01*
X176332000Y-117556400D02*
X183332000Y-117556400D01*
X176332000Y-111856400D02*
X183332000Y-111856400D01*
X183332000Y-111856400D02*
X183332000Y-117556400D01*
%TO.C,RV5*%
X176332000Y-73604000D02*
X176332000Y-79304000D01*
X176332000Y-79304000D02*
X183332000Y-79304000D01*
X176332000Y-73604000D02*
X183332000Y-73604000D01*
X183332000Y-73604000D02*
X183332000Y-79304000D01*
D11*
%TO.C,U19*%
X156209600Y-68249000D02*
X156209600Y-66949000D01*
X156409600Y-62849000D02*
X184609600Y-62849000D01*
X184609600Y-68049000D02*
X156409600Y-68049000D01*
X156409600Y-68049000D02*
X156409600Y-62849000D01*
X157509600Y-68249000D02*
X156209600Y-68249000D01*
X184609600Y-62849000D02*
X184609600Y-68049000D01*
%TO.C,C3*%
X125288800Y-71751800D02*
X129828800Y-71751800D01*
X125288800Y-71751800D02*
X125288800Y-71766800D01*
X129828800Y-73876800D02*
X129828800Y-73891800D01*
X129828800Y-71751800D02*
X129828800Y-71766800D01*
X125288800Y-73876800D02*
X125288800Y-73891800D01*
X125288800Y-73891800D02*
X129828800Y-73891800D01*
%TO.C,D2*%
X105864000Y-35638000D02*
X102924000Y-35638000D01*
X105864000Y-35398000D02*
X102924000Y-35398000D01*
X104394000Y-41078000D02*
X104394000Y-40058000D01*
X105864000Y-35518000D02*
X102924000Y-35518000D01*
X104394000Y-33598000D02*
X104394000Y-34618000D01*
X102924000Y-40058000D02*
X105864000Y-40058000D01*
X105864000Y-40058000D02*
X105864000Y-34618000D01*
X105864000Y-34618000D02*
X102924000Y-34618000D01*
X102924000Y-34618000D02*
X102924000Y-40058000D01*
%TO.C,R9*%
X111660000Y-90837000D02*
X111660000Y-97377000D01*
X113030000Y-98147000D02*
X113030000Y-97377000D01*
X113030000Y-90067000D02*
X113030000Y-90837000D01*
X114400000Y-90837000D02*
X111660000Y-90837000D01*
X114400000Y-97377000D02*
X114400000Y-90837000D01*
X111660000Y-97377000D02*
X114400000Y-97377000D01*
%TO.C,D11*%
X155762600Y-72911200D02*
X155762600Y-73067200D01*
X155762600Y-70595200D02*
X155762600Y-70751200D01*
X155762600Y-73066716D02*
G75*
G03*
X158994935Y-72909808I1560000J1235516D01*
G01*
X158363730Y-70751363D02*
G75*
G03*
X156281639Y-70751200I-1041130J-1079837D01*
G01*
X156281639Y-72911200D02*
G75*
G03*
X158363730Y-72911037I1040961J1080000D01*
G01*
X158994935Y-70752592D02*
G75*
G03*
X155762600Y-70595684I-1672335J-1078608D01*
G01*
%TO.C,R11*%
X115035000Y-112427000D02*
X112295000Y-112427000D01*
X112295000Y-112427000D02*
X112295000Y-118967000D01*
X115035000Y-118967000D02*
X115035000Y-112427000D01*
X113665000Y-111657000D02*
X113665000Y-112427000D01*
X112295000Y-118967000D02*
X115035000Y-118967000D01*
X113665000Y-119737000D02*
X113665000Y-118967000D01*
%TO.C,R14*%
X141103600Y-119483200D02*
X141103600Y-122223200D01*
X147643600Y-119483200D02*
X141103600Y-119483200D01*
X141103600Y-122223200D02*
X147643600Y-122223200D01*
X147643600Y-122223200D02*
X147643600Y-119483200D01*
X140333600Y-120853200D02*
X141103600Y-120853200D01*
X148413600Y-120853200D02*
X147643600Y-120853200D01*
%TO.C,L1*%
X115467600Y-51310000D02*
X115467600Y-48310000D01*
X128067600Y-60910000D02*
X115467600Y-60910000D01*
X115467600Y-60910000D02*
X115467600Y-57910000D01*
X115467600Y-48310000D02*
X128067600Y-48310000D01*
X128067600Y-48310000D02*
X128067600Y-51310000D01*
X128067600Y-57910000D02*
X128067600Y-60910000D01*
%TO.C,R22*%
X147592800Y-66343200D02*
X147592800Y-63603200D01*
X141052800Y-66343200D02*
X147592800Y-66343200D01*
X147592800Y-63603200D02*
X141052800Y-63603200D01*
X140282800Y-64973200D02*
X141052800Y-64973200D01*
X141052800Y-63603200D02*
X141052800Y-66343200D01*
X148362800Y-64973200D02*
X147592800Y-64973200D01*
%TO.C,D6*%
X155920000Y-128842000D02*
X155920000Y-128998000D01*
X155920000Y-126526000D02*
X155920000Y-126682000D01*
X156439039Y-128842000D02*
G75*
G03*
X158521130Y-128841837I1040961J1080000D01*
G01*
X155920000Y-128997516D02*
G75*
G03*
X159152335Y-128840608I1560000J1235516D01*
G01*
X159152335Y-126683392D02*
G75*
G03*
X155920000Y-126526484I-1672335J-1078608D01*
G01*
X158521130Y-126682163D02*
G75*
G03*
X156439039Y-126682000I-1041130J-1079837D01*
G01*
%TO.C,R26*%
X147491200Y-84986800D02*
X147491200Y-82246800D01*
X140951200Y-82246800D02*
X140951200Y-84986800D01*
X148261200Y-83616800D02*
X147491200Y-83616800D01*
X140181200Y-83616800D02*
X140951200Y-83616800D01*
X147491200Y-82246800D02*
X140951200Y-82246800D01*
X140951200Y-84986800D02*
X147491200Y-84986800D01*
%TO.C,D3*%
X112468000Y-40058000D02*
X112468000Y-34618000D01*
X110998000Y-33598000D02*
X110998000Y-34618000D01*
X110998000Y-41078000D02*
X110998000Y-40058000D01*
X109528000Y-39038000D02*
X112468000Y-39038000D01*
X109528000Y-39278000D02*
X112468000Y-39278000D01*
X109528000Y-39158000D02*
X112468000Y-39158000D01*
X109528000Y-34618000D02*
X109528000Y-40058000D01*
X112468000Y-34618000D02*
X109528000Y-34618000D01*
X109528000Y-40058000D02*
X112468000Y-40058000D01*
%TO.C,R18*%
X145320000Y-126003100D02*
X145320000Y-128743100D01*
X144550000Y-127373100D02*
X145320000Y-127373100D01*
X151860000Y-126003100D02*
X145320000Y-126003100D01*
X145320000Y-128743100D02*
X151860000Y-128743100D01*
X151860000Y-128743100D02*
X151860000Y-126003100D01*
X152630000Y-127373100D02*
X151860000Y-127373100D01*
%TO.C,R21*%
X147592800Y-57402400D02*
X147592800Y-54662400D01*
X140282800Y-56032400D02*
X141052800Y-56032400D01*
X141052800Y-57402400D02*
X147592800Y-57402400D01*
X141052800Y-54662400D02*
X141052800Y-57402400D01*
X147592800Y-54662400D02*
X141052800Y-54662400D01*
X148362800Y-56032400D02*
X147592800Y-56032400D01*
%TO.C,Q1*%
X154602200Y-117292000D02*
X151112200Y-117292000D01*
X151432200Y-119812000D02*
X151112200Y-119812000D01*
X154602200Y-117292000D02*
X154602200Y-125532000D01*
X151942200Y-123013000D02*
X151112200Y-123013000D01*
X151112200Y-117292000D02*
X151112200Y-125532000D01*
X154602200Y-125532000D02*
X151112200Y-125532000D01*
X154602200Y-123013000D02*
X153022200Y-123013000D01*
X154602200Y-119812000D02*
X153532200Y-119812000D01*
%TO.C,D5*%
X109958800Y-56588000D02*
X109958800Y-53648000D01*
X104518800Y-53648000D02*
X104518800Y-56588000D01*
X110978800Y-55118000D02*
X109958800Y-55118000D01*
X109058800Y-56588000D02*
X109058800Y-53648000D01*
X108938800Y-56588000D02*
X108938800Y-53648000D01*
X103498800Y-55118000D02*
X104518800Y-55118000D01*
X109178800Y-56588000D02*
X109178800Y-53648000D01*
X104518800Y-56588000D02*
X109958800Y-56588000D01*
X109958800Y-53648000D02*
X104518800Y-53648000D01*
%TO.C,U13*%
X142972200Y-118927000D02*
X147472200Y-118927000D01*
X147472200Y-118927000D02*
X147472200Y-113727000D01*
X142972200Y-113727000D02*
X142972200Y-118927000D01*
X144222200Y-113727000D02*
X142972200Y-113727000D01*
X147472200Y-113727000D02*
X146222200Y-113727000D01*
X144222200Y-113727000D02*
G75*
G03*
X146222200Y-113727000I1000000J0D01*
G01*
%TO.C,U6*%
X114870000Y-70845000D02*
X120070000Y-70845000D01*
X114870000Y-66345000D02*
X114870000Y-67595000D01*
X114870000Y-69595000D02*
X114870000Y-70845000D01*
X120070000Y-70845000D02*
X120070000Y-66345000D01*
X120070000Y-66345000D02*
X114870000Y-66345000D01*
X114870000Y-69595000D02*
G75*
G03*
X114870000Y-67595000I0J1000000D01*
G01*
%TO.C,R5*%
X105510000Y-90837000D02*
X102770000Y-90837000D01*
X102770000Y-90837000D02*
X102770000Y-97377000D01*
X102770000Y-97377000D02*
X105510000Y-97377000D01*
X105510000Y-97377000D02*
X105510000Y-90837000D01*
X104140000Y-98147000D02*
X104140000Y-97377000D01*
X104140000Y-90067000D02*
X104140000Y-90837000D01*
%TO.C,D10*%
X181999600Y-49012200D02*
X182155600Y-49012200D01*
X184315600Y-49012200D02*
X184471600Y-49012200D01*
X184471116Y-49012200D02*
G75*
G03*
X184314208Y-45779865I-1235516J1560000D01*
G01*
X182155763Y-46411070D02*
G75*
G03*
X182155600Y-48493161I1079837J-1041130D01*
G01*
X182156992Y-45779865D02*
G75*
G03*
X182000084Y-49012200I1078608J-1672335D01*
G01*
X184315600Y-48493161D02*
G75*
G03*
X184315437Y-46411070I-1080000J1040961D01*
G01*
%TO.C,R10*%
X102770000Y-64421000D02*
X102770000Y-70961000D01*
X102770000Y-70961000D02*
X105510000Y-70961000D01*
X104140000Y-71731000D02*
X104140000Y-70961000D01*
X105510000Y-64421000D02*
X102770000Y-64421000D01*
X104140000Y-63651000D02*
X104140000Y-64421000D01*
X105510000Y-70961000D02*
X105510000Y-64421000D01*
%TO.C,F1*%
X186461400Y-63978000D02*
X188036400Y-63978000D01*
X186461400Y-70228000D02*
X187636400Y-70228000D01*
X192136400Y-53878000D02*
X192136400Y-63978000D01*
X192811400Y-63978000D02*
X192811400Y-70228000D01*
X192811400Y-53878000D02*
X191236400Y-53878000D01*
X186461400Y-63978000D02*
X186461400Y-70228000D01*
X186461400Y-53878000D02*
X188036400Y-53878000D01*
X187636400Y-47628000D02*
X186461400Y-47628000D01*
X186461400Y-47628000D02*
X186461400Y-53878000D01*
X191636400Y-47628000D02*
X192811400Y-47628000D01*
X192811400Y-70228000D02*
X191636400Y-70228000D01*
X187136400Y-53878000D02*
X187136400Y-63978000D01*
X192811400Y-63978000D02*
X191236400Y-63978000D01*
X192811400Y-53878000D02*
X192811400Y-47628000D01*
%TO.C,R1*%
X123305000Y-68680000D02*
X123305000Y-71420000D01*
X129845000Y-71420000D02*
X129845000Y-68680000D01*
X123305000Y-71420000D02*
X129845000Y-71420000D01*
X129845000Y-68680000D02*
X123305000Y-68680000D01*
X130615000Y-70050000D02*
X129845000Y-70050000D01*
X122535000Y-70050000D02*
X123305000Y-70050000D01*
%TO.C,R17*%
X141052800Y-103989200D02*
X141052800Y-106729200D01*
X141052800Y-106729200D02*
X147592800Y-106729200D01*
X148362800Y-105359200D02*
X147592800Y-105359200D01*
X147592800Y-106729200D02*
X147592800Y-103989200D01*
X140282800Y-105359200D02*
X141052800Y-105359200D01*
X147592800Y-103989200D02*
X141052800Y-103989200D01*
%TO.C,D1*%
X106226000Y-39278000D02*
X109166000Y-39278000D01*
X106226000Y-34618000D02*
X106226000Y-40058000D01*
X106226000Y-40058000D02*
X109166000Y-40058000D01*
X109166000Y-34618000D02*
X106226000Y-34618000D01*
X107696000Y-41078000D02*
X107696000Y-40058000D01*
X106226000Y-39038000D02*
X109166000Y-39038000D01*
X106226000Y-39158000D02*
X109166000Y-39158000D01*
X109166000Y-40058000D02*
X109166000Y-34618000D01*
X107696000Y-33598000D02*
X107696000Y-34618000D01*
%TO.C,C4*%
X102816000Y-45837600D02*
X102816000Y-50377600D01*
X104956000Y-45837600D02*
X104941000Y-45837600D01*
X102831000Y-50377600D02*
X102816000Y-50377600D01*
X104956000Y-45837600D02*
X104956000Y-50377600D01*
X102831000Y-45837600D02*
X102816000Y-45837600D01*
X104956000Y-50377600D02*
X104941000Y-50377600D01*
%TO.C,R29*%
X123323600Y-91949600D02*
X123323600Y-94689600D01*
X130633600Y-93319600D02*
X129863600Y-93319600D01*
X129863600Y-91949600D02*
X123323600Y-91949600D01*
X123323600Y-94689600D02*
X129863600Y-94689600D01*
X129863600Y-94689600D02*
X129863600Y-91949600D01*
X122553600Y-93319600D02*
X123323600Y-93319600D01*
%TO.C,R6*%
X114400000Y-70961000D02*
X114400000Y-64421000D01*
X111660000Y-64421000D02*
X111660000Y-70961000D01*
X111660000Y-70961000D02*
X114400000Y-70961000D01*
X114400000Y-64421000D02*
X111660000Y-64421000D01*
X113030000Y-71731000D02*
X113030000Y-70961000D01*
X113030000Y-63651000D02*
X113030000Y-64421000D01*
%TO.C,C2*%
X121889000Y-84105000D02*
X121889000Y-82847000D01*
X123729000Y-84105000D02*
X123729000Y-82847000D01*
%TO.C,R20*%
X191085600Y-43230800D02*
X190315600Y-43230800D01*
X183005600Y-43230800D02*
X183775600Y-43230800D01*
X190315600Y-44600800D02*
X190315600Y-41860800D01*
X183775600Y-44600800D02*
X190315600Y-44600800D01*
X183775600Y-41860800D02*
X183775600Y-44600800D01*
X190315600Y-41860800D02*
X183775600Y-41860800D01*
%TO.C,R7*%
X123925000Y-118967000D02*
X123925000Y-112427000D01*
X122555000Y-119737000D02*
X122555000Y-118967000D01*
X121185000Y-118967000D02*
X123925000Y-118967000D01*
X123925000Y-112427000D02*
X121185000Y-112427000D01*
X122555000Y-111657000D02*
X122555000Y-112427000D01*
X121185000Y-112427000D02*
X121185000Y-118967000D01*
%TO.C,C8*%
X132007000Y-62525400D02*
X132007000Y-67065400D01*
X132007000Y-62525400D02*
X131992000Y-62525400D01*
X132007000Y-67065400D02*
X131992000Y-67065400D01*
X129882000Y-62525400D02*
X129867000Y-62525400D01*
X129882000Y-67065400D02*
X129867000Y-67065400D01*
X129867000Y-62525400D02*
X129867000Y-67065400D01*
%TO.C,U10*%
X105980000Y-70845000D02*
X111180000Y-70845000D01*
X111180000Y-66345000D02*
X105980000Y-66345000D01*
X105980000Y-66345000D02*
X105980000Y-67595000D01*
X111180000Y-70845000D02*
X111180000Y-66345000D01*
X105980000Y-69595000D02*
X105980000Y-70845000D01*
X105980000Y-69595000D02*
G75*
G03*
X105980000Y-67595000I0J1000000D01*
G01*
%TO.C,R25*%
X151758400Y-70105600D02*
X145218400Y-70105600D01*
X144448400Y-71475600D02*
X145218400Y-71475600D01*
X145218400Y-72845600D02*
X151758400Y-72845600D01*
X145218400Y-70105600D02*
X145218400Y-72845600D01*
X151758400Y-72845600D02*
X151758400Y-70105600D01*
X152528400Y-71475600D02*
X151758400Y-71475600D01*
%TO.C,U16*%
X184576500Y-100085400D02*
X184576500Y-105285400D01*
X184576500Y-105285400D02*
X156376500Y-105285400D01*
X157476500Y-105485400D02*
X156176500Y-105485400D01*
X156176500Y-105485400D02*
X156176500Y-104185400D01*
X156376500Y-105285400D02*
X156376500Y-100085400D01*
X156376500Y-100085400D02*
X184576500Y-100085400D01*
%TO.C,R12*%
X147643600Y-113231600D02*
X147643600Y-110491600D01*
X141103600Y-113231600D02*
X147643600Y-113231600D01*
X148413600Y-111861600D02*
X147643600Y-111861600D01*
X140333600Y-111861600D02*
X141103600Y-111861600D01*
X141103600Y-110491600D02*
X141103600Y-113231600D01*
X147643600Y-110491600D02*
X141103600Y-110491600D01*
%TO.C,Y1*%
X120889000Y-84252600D02*
X120889000Y-78002600D01*
X115839000Y-84252600D02*
X115839000Y-78002600D01*
X115839000Y-84252600D02*
G75*
G03*
X120889000Y-84252600I2525000J0D01*
G01*
X120889000Y-78002600D02*
G75*
G03*
X115839000Y-78002600I-2525000J0D01*
G01*
%TO.C,C1*%
X123729000Y-79406000D02*
X123729000Y-78148000D01*
X121889000Y-79406000D02*
X121889000Y-78148000D01*
%TO.C,U3*%
X122940000Y-68285000D02*
X122940000Y-67025000D01*
X122940000Y-61465000D02*
X122940000Y-62725000D01*
X128950000Y-68285000D02*
X122940000Y-68285000D01*
X126700000Y-61465000D02*
X122940000Y-61465000D01*
%TO.C,U15*%
X184576500Y-123852800D02*
X156376500Y-123852800D01*
X157476500Y-124052800D02*
X156176500Y-124052800D01*
X156376500Y-123852800D02*
X156376500Y-118652800D01*
X184576500Y-118652800D02*
X184576500Y-123852800D01*
X156376500Y-118652800D02*
X184576500Y-118652800D01*
X156176500Y-124052800D02*
X156176500Y-122752800D01*
%TO.C,R15*%
X148362800Y-102209600D02*
X147592800Y-102209600D01*
X147592800Y-100839600D02*
X141052800Y-100839600D01*
X147592800Y-103579600D02*
X147592800Y-100839600D01*
X141052800Y-103579600D02*
X147592800Y-103579600D01*
X141052800Y-100839600D02*
X141052800Y-103579600D01*
X140282800Y-102209600D02*
X141052800Y-102209600D01*
%TO.C,U14*%
X147370600Y-95083400D02*
X146120600Y-95083400D01*
X144120600Y-95083400D02*
X142870600Y-95083400D01*
X142870600Y-100283400D02*
X147370600Y-100283400D01*
X142870600Y-95083400D02*
X142870600Y-100283400D01*
X147370600Y-100283400D02*
X147370600Y-95083400D01*
X144120600Y-95083400D02*
G75*
G03*
X146120600Y-95083400I1000000J0D01*
G01*
%TO.C,C6*%
X136450349Y-44588000D02*
X136450349Y-46966000D01*
X134569349Y-49046000D02*
X134569349Y-52071000D01*
X135730349Y-44216000D02*
X135730349Y-46966000D01*
X135970349Y-44320000D02*
X135970349Y-46966000D01*
X137250349Y-45265000D02*
X137250349Y-50747000D01*
X135690349Y-49046000D02*
X135690349Y-51811000D01*
X135570349Y-44156000D02*
X135570349Y-46966000D01*
X136450349Y-49046000D02*
X136450349Y-51424000D01*
X134449349Y-43932000D02*
X134449349Y-46966000D01*
X135650349Y-49046000D02*
X135650349Y-51827000D01*
X134449349Y-49046000D02*
X134449349Y-52080000D01*
X134569349Y-43941000D02*
X134569349Y-46966000D01*
X136690349Y-44756000D02*
X136690349Y-51256000D01*
X134930349Y-49046000D02*
X134930349Y-52023000D01*
X137210349Y-45222000D02*
X137210349Y-50790000D01*
X137570349Y-45661000D02*
X137570349Y-50351000D01*
X135730349Y-49046000D02*
X135730349Y-51796000D01*
X135890349Y-44284000D02*
X135890349Y-46966000D01*
X136130349Y-49046000D02*
X136130349Y-51612000D01*
X135410349Y-44104000D02*
X135410349Y-46966000D01*
X135930349Y-44302000D02*
X135930349Y-46966000D01*
X137330349Y-45355000D02*
X137330349Y-50657000D01*
X134729349Y-43958000D02*
X134729349Y-46966000D01*
X137810349Y-46042000D02*
X137810349Y-49970000D01*
X136770349Y-44817000D02*
X136770349Y-51195000D01*
X136890349Y-44916000D02*
X136890349Y-51096000D01*
X136410349Y-44562000D02*
X136410349Y-46966000D01*
X135130349Y-44030000D02*
X135130349Y-46966000D01*
X136370349Y-44537000D02*
X136370349Y-46966000D01*
X135690349Y-44201000D02*
X135690349Y-46966000D01*
X136210349Y-49046000D02*
X136210349Y-51568000D01*
X134609349Y-43945000D02*
X134609349Y-46966000D01*
X137370349Y-45402000D02*
X137370349Y-50610000D01*
X137890349Y-46193000D02*
X137890349Y-49819000D01*
X136410349Y-49046000D02*
X136410349Y-51450000D01*
X134489349Y-43935000D02*
X134489349Y-46966000D01*
X135130349Y-49046000D02*
X135130349Y-51982000D01*
X136250349Y-44466000D02*
X136250349Y-46966000D01*
X137490349Y-45552000D02*
X137490349Y-50460000D01*
X136810349Y-44850000D02*
X136810349Y-51162000D01*
X138170349Y-46908000D02*
X138170349Y-49104000D01*
X134849349Y-49046000D02*
X134849349Y-52036000D01*
X134609349Y-49046000D02*
X134609349Y-52067000D01*
X137770349Y-45972000D02*
X137770349Y-50040000D01*
X135450349Y-44117000D02*
X135450349Y-46966000D01*
X135370349Y-44092000D02*
X135370349Y-46966000D01*
X134849349Y-43976000D02*
X134849349Y-46966000D01*
X135210349Y-49046000D02*
X135210349Y-51963000D01*
X136610349Y-44697000D02*
X136610349Y-51315000D01*
X135090349Y-49046000D02*
X135090349Y-51991000D01*
X135970349Y-49046000D02*
X135970349Y-51692000D01*
X135170349Y-49046000D02*
X135170349Y-51973000D01*
X134489349Y-49046000D02*
X134489349Y-52077000D01*
X138130349Y-46777000D02*
X138130349Y-49235000D01*
X136250349Y-49046000D02*
X136250349Y-51546000D01*
X134970349Y-43996000D02*
X134970349Y-46966000D01*
X134889349Y-43982000D02*
X134889349Y-46966000D01*
X134329349Y-43927000D02*
X134329349Y-52085000D01*
X136090349Y-49046000D02*
X136090349Y-51633000D01*
X135290349Y-49046000D02*
X135290349Y-51942000D01*
X137530349Y-45606000D02*
X137530349Y-50406000D01*
X130199651Y-45291000D02*
X130199651Y-46091000D01*
X134689349Y-49046000D02*
X134689349Y-52058000D01*
X137410349Y-45450000D02*
X137410349Y-50562000D01*
X135490349Y-44129000D02*
X135490349Y-46966000D01*
X135610349Y-44171000D02*
X135610349Y-46966000D01*
X134970349Y-49046000D02*
X134970349Y-52016000D01*
X136490349Y-44614000D02*
X136490349Y-46966000D01*
X135610349Y-49046000D02*
X135610349Y-51841000D01*
X135530349Y-44143000D02*
X135530349Y-46966000D01*
X136970349Y-44987000D02*
X136970349Y-51025000D01*
X137290349Y-45309000D02*
X137290349Y-50703000D01*
X134289349Y-43926000D02*
X134289349Y-52086000D01*
X137170349Y-45180000D02*
X137170349Y-50832000D01*
X135770349Y-44232000D02*
X135770349Y-46966000D01*
X134649349Y-49046000D02*
X134649349Y-52063000D01*
X134729349Y-49046000D02*
X134729349Y-52054000D01*
X135650349Y-44185000D02*
X135650349Y-46966000D01*
X136650349Y-44726000D02*
X136650349Y-51286000D01*
X138010349Y-46454000D02*
X138010349Y-49558000D01*
X134249349Y-43926000D02*
X134249349Y-52086000D01*
X136530349Y-44641000D02*
X136530349Y-51371000D01*
X137610349Y-45719000D02*
X137610349Y-50293000D01*
X138090349Y-46660000D02*
X138090349Y-49352000D01*
X135090349Y-44021000D02*
X135090349Y-46966000D01*
X138250349Y-47238000D02*
X138250349Y-48774000D01*
X135210349Y-44049000D02*
X135210349Y-46966000D01*
X136930349Y-44951000D02*
X136930349Y-51061000D01*
X135810349Y-44249000D02*
X135810349Y-46966000D01*
X135770349Y-49046000D02*
X135770349Y-51780000D01*
X137730349Y-45904000D02*
X137730349Y-50108000D01*
X135930349Y-49046000D02*
X135930349Y-51710000D01*
X136090349Y-44379000D02*
X136090349Y-46966000D01*
X137050349Y-45061000D02*
X137050349Y-50951000D01*
X134889349Y-49046000D02*
X134889349Y-52030000D01*
X134409349Y-43930000D02*
X134409349Y-52082000D01*
X138290349Y-47473000D02*
X138290349Y-48539000D01*
X137850349Y-46116000D02*
X137850349Y-49896000D01*
X135570349Y-49046000D02*
X135570349Y-51856000D01*
X136010349Y-49046000D02*
X136010349Y-51672000D01*
X134689349Y-43954000D02*
X134689349Y-46966000D01*
X134769349Y-49046000D02*
X134769349Y-52048000D01*
X136850349Y-44882000D02*
X136850349Y-51130000D01*
X136210349Y-44444000D02*
X136210349Y-46966000D01*
X138050349Y-46553000D02*
X138050349Y-49459000D01*
X134649349Y-43949000D02*
X134649349Y-46966000D01*
X136730349Y-44786000D02*
X136730349Y-51226000D01*
X136170349Y-44422000D02*
X136170349Y-46966000D01*
X136050349Y-44359000D02*
X136050349Y-46966000D01*
X135530349Y-49046000D02*
X135530349Y-51869000D01*
X136050349Y-49046000D02*
X136050349Y-51653000D01*
X137970349Y-46361000D02*
X137970349Y-49651000D01*
X135050349Y-44012000D02*
X135050349Y-46966000D01*
X135490349Y-49046000D02*
X135490349Y-51883000D01*
X136370349Y-49046000D02*
X136370349Y-51475000D01*
X129799651Y-45691000D02*
X130599651Y-45691000D01*
X134769349Y-43964000D02*
X134769349Y-46966000D01*
X135330349Y-49046000D02*
X135330349Y-51931000D01*
X136010349Y-44340000D02*
X136010349Y-46966000D01*
X136170349Y-49046000D02*
X136170349Y-51590000D01*
X137450349Y-45501000D02*
X137450349Y-50511000D01*
X134809349Y-49046000D02*
X134809349Y-52043000D01*
X135010349Y-49046000D02*
X135010349Y-52008000D01*
X134369349Y-43929000D02*
X134369349Y-52083000D01*
X138210349Y-47058000D02*
X138210349Y-48954000D01*
X135250349Y-49046000D02*
X135250349Y-51953000D01*
X136330349Y-49046000D02*
X136330349Y-51499000D01*
X135010349Y-44004000D02*
X135010349Y-46966000D01*
X135810349Y-49046000D02*
X135810349Y-51763000D01*
X136130349Y-44400000D02*
X136130349Y-46966000D01*
X134209349Y-43926000D02*
X134209349Y-52086000D01*
X135370349Y-49046000D02*
X135370349Y-51920000D01*
X136290349Y-49046000D02*
X136290349Y-51523000D01*
X136330349Y-44513000D02*
X136330349Y-46966000D01*
X135850349Y-44266000D02*
X135850349Y-46966000D01*
X137930349Y-46275000D02*
X137930349Y-49737000D01*
X137690349Y-45840000D02*
X137690349Y-50172000D01*
X135850349Y-49046000D02*
X135850349Y-51746000D01*
X135170349Y-44039000D02*
X135170349Y-46966000D01*
X137010349Y-45023000D02*
X137010349Y-50989000D01*
X136290349Y-44489000D02*
X136290349Y-46966000D01*
X135410349Y-49046000D02*
X135410349Y-51908000D01*
X134529349Y-49046000D02*
X134529349Y-52074000D01*
X134809349Y-43969000D02*
X134809349Y-46966000D01*
X135050349Y-49046000D02*
X135050349Y-52000000D01*
X137130349Y-45139000D02*
X137130349Y-50873000D01*
X134529349Y-43938000D02*
X134529349Y-46966000D01*
X135890349Y-49046000D02*
X135890349Y-51728000D01*
X135450349Y-49046000D02*
X135450349Y-51895000D01*
X136570349Y-44668000D02*
X136570349Y-51344000D01*
X135290349Y-44070000D02*
X135290349Y-46966000D01*
X135330349Y-44081000D02*
X135330349Y-46966000D01*
X137090349Y-45099000D02*
X137090349Y-50913000D01*
X134930349Y-43989000D02*
X134930349Y-46966000D01*
X137650349Y-45778000D02*
X137650349Y-50234000D01*
X136490349Y-49046000D02*
X136490349Y-51398000D01*
X135250349Y-44059000D02*
X135250349Y-46966000D01*
X138329349Y-48006000D02*
G75*
G03*
X138329349Y-48006000I-4120000J0D01*
G01*
%TO.C,U8*%
X106615000Y-117073000D02*
X111815000Y-117073000D01*
X106615000Y-115823000D02*
X106615000Y-117073000D01*
X111815000Y-112573000D02*
X106615000Y-112573000D01*
X106615000Y-112573000D02*
X106615000Y-113823000D01*
X111815000Y-117073000D02*
X111815000Y-112573000D01*
X106615000Y-115823000D02*
G75*
G03*
X106615000Y-113823000I0J1000000D01*
G01*
%TO.C,C7*%
X134502400Y-58179600D02*
X134502400Y-58194600D01*
X129962400Y-56054600D02*
X129962400Y-56069600D01*
X129962400Y-56054600D02*
X134502400Y-56054600D01*
X129962400Y-58179600D02*
X129962400Y-58194600D01*
X134502400Y-56054600D02*
X134502400Y-56069600D01*
X129962400Y-58194600D02*
X134502400Y-58194600D01*
%TO.C,J1*%
X99903100Y-40110700D02*
X99903100Y-39610700D01*
X99553100Y-45190700D02*
X99903100Y-45190700D01*
X99903100Y-41610700D02*
X99553100Y-41610700D01*
X94393100Y-48590700D02*
X101863100Y-48590700D01*
X100903100Y-47440700D02*
X99903100Y-47190700D01*
X99553100Y-44440700D02*
X99553100Y-45190700D01*
X102253100Y-37820700D02*
X102253100Y-39820700D01*
X101863100Y-38210700D02*
X94393100Y-38210700D01*
X99553100Y-47440700D02*
X95253100Y-47440700D01*
X95253100Y-45190700D02*
X95253100Y-44440700D01*
X99553100Y-46690700D02*
X99553100Y-47440700D01*
X94393100Y-38210700D02*
X94393100Y-48590700D01*
X99553100Y-41610700D02*
X99553100Y-42360700D01*
X101863100Y-48590700D02*
X101863100Y-38210700D01*
X99553100Y-42360700D02*
X95253100Y-42360700D01*
X95253100Y-44440700D02*
X99553100Y-44440700D01*
X95253100Y-39360700D02*
X99553100Y-39360700D01*
X99903100Y-42110700D02*
X99903100Y-41610700D01*
X99903100Y-47190700D02*
X99903100Y-46690700D01*
X100903100Y-44440700D02*
X100903100Y-47440700D01*
X99553100Y-40110700D02*
X99903100Y-40110700D01*
X99903100Y-39610700D02*
X100903100Y-39360700D01*
X100903100Y-42360700D02*
X99903100Y-42110700D01*
X99553100Y-39360700D02*
X99553100Y-40110700D01*
X95253100Y-40110700D02*
X95253100Y-39360700D01*
X99903100Y-45190700D02*
X99903100Y-44690700D01*
X101003100Y-37820700D02*
X102253100Y-37820700D01*
X99903100Y-44690700D02*
X100903100Y-44440700D01*
X95253100Y-47440700D02*
X95253100Y-46690700D01*
X99903100Y-46690700D02*
X99553100Y-46690700D01*
X95253100Y-42360700D02*
X95253100Y-41610700D01*
X100903100Y-39360700D02*
X100903100Y-42360700D01*
X95253255Y-46690347D02*
G75*
G03*
X95253100Y-45190700I-1700155J749647D01*
G01*
X95253255Y-41610347D02*
G75*
G03*
X95253100Y-40110700I-1700155J749647D01*
G01*
%TO.C,J7*%
X191247400Y-92715400D02*
X191247400Y-92215400D01*
X191247400Y-77475400D02*
X191247400Y-76975400D01*
X192247400Y-74725400D02*
X192247400Y-77725400D01*
X190897400Y-98045400D02*
X186597400Y-98045400D01*
X186597400Y-79805400D02*
X190897400Y-79805400D01*
X190897400Y-89965400D02*
X190897400Y-90715400D01*
X185737400Y-73575400D02*
X185737400Y-104275400D01*
X190897400Y-82805400D02*
X186597400Y-82805400D01*
X191247400Y-82555400D02*
X191247400Y-82055400D01*
X192247400Y-98045400D02*
X191247400Y-97795400D01*
X190897400Y-87135400D02*
X190897400Y-87885400D01*
X192247400Y-87885400D02*
X191247400Y-87635400D01*
X190897400Y-75475400D02*
X191247400Y-75475400D01*
X186597400Y-98045400D02*
X186597400Y-97295400D01*
X193207400Y-73575400D02*
X185737400Y-73575400D01*
X190897400Y-80555400D02*
X191247400Y-80555400D01*
X190897400Y-92215400D02*
X190897400Y-92965400D01*
X186597400Y-89965400D02*
X190897400Y-89965400D01*
X192247400Y-77725400D02*
X191247400Y-77475400D01*
X190897400Y-102375400D02*
X190897400Y-103125400D01*
X186597400Y-82805400D02*
X186597400Y-82055400D01*
X192247400Y-82805400D02*
X191247400Y-82555400D01*
X191247400Y-97295400D02*
X190897400Y-97295400D01*
X186597400Y-90715400D02*
X186597400Y-89965400D01*
X190897400Y-76975400D02*
X190897400Y-77725400D01*
X191247400Y-100875400D02*
X191247400Y-100375400D01*
X191247400Y-80555400D02*
X191247400Y-80055400D01*
X191247400Y-85635400D02*
X191247400Y-85135400D01*
X190897400Y-100125400D02*
X190897400Y-100875400D01*
X190897400Y-87885400D02*
X186597400Y-87885400D01*
X186597400Y-95795400D02*
X186597400Y-95045400D01*
X191247400Y-97795400D02*
X191247400Y-97295400D01*
X192247400Y-89965400D02*
X192247400Y-92965400D01*
X192247400Y-100125400D02*
X192247400Y-103125400D01*
X186597400Y-100125400D02*
X190897400Y-100125400D01*
X192247400Y-103125400D02*
X191247400Y-102875400D01*
X191247400Y-95295400D02*
X192247400Y-95045400D01*
X186597400Y-92965400D02*
X186597400Y-92215400D01*
X191247400Y-76975400D02*
X190897400Y-76975400D01*
X185737400Y-104275400D02*
X193207400Y-104275400D01*
X191247400Y-100375400D02*
X192247400Y-100125400D01*
X190897400Y-90715400D02*
X191247400Y-90715400D01*
X193207400Y-104275400D02*
X193207400Y-73575400D01*
X191247400Y-95795400D02*
X191247400Y-95295400D01*
X186597400Y-80555400D02*
X186597400Y-79805400D01*
X190897400Y-79805400D02*
X190897400Y-80555400D01*
X191247400Y-102375400D02*
X190897400Y-102375400D01*
X190897400Y-103125400D02*
X186597400Y-103125400D01*
X186597400Y-84885400D02*
X190897400Y-84885400D01*
X191247400Y-74975400D02*
X192247400Y-74725400D01*
X192247400Y-92965400D02*
X191247400Y-92715400D01*
X186597400Y-74725400D02*
X190897400Y-74725400D01*
X191247400Y-87635400D02*
X191247400Y-87135400D01*
X190897400Y-95045400D02*
X190897400Y-95795400D01*
X193597400Y-73185400D02*
X193597400Y-75185400D01*
X190897400Y-77725400D02*
X186597400Y-77725400D01*
X191247400Y-90215400D02*
X192247400Y-89965400D01*
X186597400Y-103125400D02*
X186597400Y-102375400D01*
X186597400Y-77725400D02*
X186597400Y-76975400D01*
X190897400Y-95795400D02*
X191247400Y-95795400D01*
X190897400Y-85635400D02*
X191247400Y-85635400D01*
X191247400Y-87135400D02*
X190897400Y-87135400D01*
X192247400Y-95045400D02*
X192247400Y-98045400D01*
X191247400Y-102875400D02*
X191247400Y-102375400D01*
X192247400Y-84885400D02*
X192247400Y-87885400D01*
X191247400Y-92215400D02*
X190897400Y-92215400D01*
X190897400Y-84885400D02*
X190897400Y-85635400D01*
X186597400Y-75475400D02*
X186597400Y-74725400D01*
X190897400Y-100875400D02*
X191247400Y-100875400D01*
X190897400Y-97295400D02*
X190897400Y-98045400D01*
X191247400Y-90715400D02*
X191247400Y-90215400D01*
X190897400Y-92965400D02*
X186597400Y-92965400D01*
X192347400Y-73185400D02*
X193597400Y-73185400D01*
X186597400Y-87885400D02*
X186597400Y-87135400D01*
X186597400Y-95045400D02*
X190897400Y-95045400D01*
X192247400Y-79805400D02*
X192247400Y-82805400D01*
X191247400Y-75475400D02*
X191247400Y-74975400D01*
X191247400Y-85135400D02*
X192247400Y-84885400D01*
X190897400Y-82055400D02*
X190897400Y-82805400D01*
X190897400Y-74725400D02*
X190897400Y-75475400D01*
X191247400Y-82055400D02*
X190897400Y-82055400D01*
X186597400Y-85635400D02*
X186597400Y-84885400D01*
X186597400Y-100875400D02*
X186597400Y-100125400D01*
X191247400Y-80055400D02*
X192247400Y-79805400D01*
X186597555Y-97295047D02*
G75*
G03*
X186597400Y-95795400I-1700155J749647D01*
G01*
X186597555Y-82055047D02*
G75*
G03*
X186597400Y-80555400I-1700155J749647D01*
G01*
X186597555Y-76975047D02*
G75*
G03*
X186597400Y-75475400I-1700155J749647D01*
G01*
X186597555Y-87135047D02*
G75*
G03*
X186597400Y-85635400I-1700155J749647D01*
G01*
X186597555Y-102375047D02*
G75*
G03*
X186597400Y-100875400I-1700155J749647D01*
G01*
X186597555Y-92215047D02*
G75*
G03*
X186597400Y-90715400I-1700155J749647D01*
G01*
%TO.C,R2*%
X131980000Y-33814000D02*
X131980000Y-40354000D01*
X134720000Y-33814000D02*
X131980000Y-33814000D01*
X133350000Y-33044000D02*
X133350000Y-33814000D01*
X133350000Y-41124000D02*
X133350000Y-40354000D01*
X131980000Y-40354000D02*
X134720000Y-40354000D01*
X134720000Y-40354000D02*
X134720000Y-33814000D01*
%TO.C,D12*%
X160015100Y-60144000D02*
X160015100Y-57204000D01*
X159115100Y-60144000D02*
X159115100Y-57204000D01*
X158995100Y-60144000D02*
X158995100Y-57204000D01*
X161035100Y-58674000D02*
X160015100Y-58674000D01*
X159235100Y-60144000D02*
X159235100Y-57204000D01*
X160015100Y-57204000D02*
X154575100Y-57204000D01*
X154575100Y-57204000D02*
X154575100Y-60144000D01*
X154575100Y-60144000D02*
X160015100Y-60144000D01*
X153555100Y-58674000D02*
X154575100Y-58674000D01*
%TO.C,U11*%
X120705000Y-112573000D02*
X115505000Y-112573000D01*
X115505000Y-117073000D02*
X120705000Y-117073000D01*
X115505000Y-112573000D02*
X115505000Y-113823000D01*
X115505000Y-115823000D02*
X115505000Y-117073000D01*
X120705000Y-117073000D02*
X120705000Y-112573000D01*
X115505000Y-115823000D02*
G75*
G03*
X115505000Y-113823000I0J1000000D01*
G01*
%TO.C,BZ1*%
X133150800Y-101955600D02*
G75*
G03*
X133150800Y-101955600I-6100000J0D01*
G01*
%TO.C,U4*%
X102925000Y-117073000D02*
X102925000Y-112573000D01*
X97725000Y-112573000D02*
X97725000Y-113823000D01*
X97725000Y-115823000D02*
X97725000Y-117073000D01*
X102925000Y-112573000D02*
X97725000Y-112573000D01*
X97725000Y-117073000D02*
X102925000Y-117073000D01*
X97725000Y-115823000D02*
G75*
G03*
X97725000Y-113823000I0J1000000D01*
G01*
%TO.C,D4*%
X115770000Y-35638000D02*
X112830000Y-35638000D01*
X115770000Y-35398000D02*
X112830000Y-35398000D01*
X114300000Y-33598000D02*
X114300000Y-34618000D01*
X114300000Y-41078000D02*
X114300000Y-40058000D01*
X115770000Y-35518000D02*
X112830000Y-35518000D01*
X115770000Y-34618000D02*
X112830000Y-34618000D01*
X112830000Y-40058000D02*
X115770000Y-40058000D01*
X112830000Y-34618000D02*
X112830000Y-40058000D01*
X115770000Y-40058000D02*
X115770000Y-34618000D01*
%TO.C,R28*%
X144397600Y-90068400D02*
X145167600Y-90068400D01*
X145167600Y-91438400D02*
X151707600Y-91438400D01*
X151707600Y-88698400D02*
X145167600Y-88698400D01*
X151707600Y-91438400D02*
X151707600Y-88698400D01*
X145167600Y-88698400D02*
X145167600Y-91438400D01*
X152477600Y-90068400D02*
X151707600Y-90068400D01*
%TO.C,U9*%
X114854600Y-92680200D02*
X114854600Y-97180200D01*
X120054600Y-93930200D02*
X120054600Y-92680200D01*
X114854600Y-97180200D02*
X120054600Y-97180200D01*
X120054600Y-92680200D02*
X114854600Y-92680200D01*
X120054600Y-97180200D02*
X120054600Y-95930200D01*
X120054600Y-93930200D02*
G75*
G03*
X120054600Y-95930200I0J-1000000D01*
G01*
%TO.C,C5*%
X113193800Y-51543149D02*
X107379800Y-51543149D01*
X114262800Y-49583149D02*
X111326800Y-49583149D01*
X114188800Y-49863149D02*
X111326800Y-49863149D01*
X109246800Y-50663149D02*
X106724800Y-50663149D01*
X114365800Y-48782149D02*
X106207800Y-48782149D01*
X109246800Y-49623149D02*
X106319800Y-49623149D01*
X111632800Y-52543149D02*
X108940800Y-52543149D01*
X114310800Y-49342149D02*
X111326800Y-49342149D01*
X113651800Y-50983149D02*
X106921800Y-50983149D01*
X113933800Y-50503149D02*
X111326800Y-50503149D01*
X112250800Y-52263149D02*
X108322800Y-52263149D01*
X112388800Y-52183149D02*
X108184800Y-52183149D01*
X113848800Y-50663149D02*
X111326800Y-50663149D01*
X109246800Y-49583149D02*
X106310800Y-49583149D01*
X112740800Y-51943149D02*
X107832800Y-51943149D01*
X114334800Y-49182149D02*
X111326800Y-49182149D01*
X109246800Y-50823149D02*
X106817800Y-50823149D01*
X109246800Y-49503149D02*
X106292800Y-49503149D01*
X114253800Y-49623149D02*
X111326800Y-49623149D01*
X114136800Y-50023149D02*
X111326800Y-50023149D01*
X112573800Y-52063149D02*
X107999800Y-52063149D01*
X109246800Y-50423149D02*
X106600800Y-50423149D01*
X109246800Y-49863149D02*
X106384800Y-49863149D01*
X113112800Y-51623149D02*
X107460800Y-51623149D01*
X113892800Y-50583149D02*
X111326800Y-50583149D01*
X113269800Y-51463149D02*
X107303800Y-51463149D01*
X113595800Y-51063149D02*
X106977800Y-51063149D01*
X109246800Y-50343149D02*
X106564800Y-50343149D01*
X109246800Y-49463149D02*
X106284800Y-49463149D01*
X109246800Y-49983149D02*
X106423800Y-49983149D01*
X113566800Y-51103149D02*
X107006800Y-51103149D01*
X109246800Y-50943149D02*
X106894800Y-50943149D01*
X114343800Y-49102149D02*
X111326800Y-49102149D01*
X110819800Y-52743149D02*
X109753800Y-52743149D01*
X109246800Y-48902149D02*
X106212800Y-48902149D01*
X114280800Y-49503149D02*
X111326800Y-49503149D01*
X109246800Y-50903149D02*
X106868800Y-50903149D01*
X109246800Y-50023149D02*
X106436800Y-50023149D01*
X112176800Y-52303149D02*
X108396800Y-52303149D01*
X109246800Y-49543149D02*
X106301800Y-49543149D01*
X114360800Y-48902149D02*
X111326800Y-48902149D01*
X109246800Y-49823149D02*
X106372800Y-49823149D01*
X109246800Y-50183149D02*
X106496800Y-50183149D01*
X109246800Y-49062149D02*
X106225800Y-49062149D01*
X109246800Y-49743149D02*
X106350800Y-49743149D01*
X113153800Y-51583149D02*
X107419800Y-51583149D01*
X113624800Y-51023149D02*
X106948800Y-51023149D01*
X114316800Y-49302149D02*
X111326800Y-49302149D01*
X113536800Y-51143149D02*
X107036800Y-51143149D01*
X109246800Y-48942149D02*
X106215800Y-48942149D01*
X113913800Y-50543149D02*
X111326800Y-50543149D01*
X109246800Y-50703149D02*
X106746800Y-50703149D01*
X112514800Y-52103149D02*
X108058800Y-52103149D01*
X114243800Y-49663149D02*
X111326800Y-49663149D01*
X109246800Y-49262149D02*
X106249800Y-49262149D01*
X114354800Y-48982149D02*
X111326800Y-48982149D01*
X109246800Y-50063149D02*
X106451800Y-50063149D01*
X114043800Y-50263149D02*
X111326800Y-50263149D01*
X112937800Y-51783149D02*
X107635800Y-51783149D01*
X114362800Y-48862149D02*
X106210800Y-48862149D01*
X109246800Y-49102149D02*
X106229800Y-49102149D01*
X114121800Y-50063149D02*
X111326800Y-50063149D01*
X113506800Y-51183149D02*
X107066800Y-51183149D01*
X113410800Y-51303149D02*
X107162800Y-51303149D01*
X109246800Y-50263149D02*
X106529800Y-50263149D01*
X114211800Y-49783149D02*
X111326800Y-49783149D01*
X109246800Y-49703149D02*
X106339800Y-49703149D01*
X112099800Y-52343149D02*
X108473800Y-52343149D01*
X114323800Y-49262149D02*
X111326800Y-49262149D01*
X114363800Y-48822149D02*
X106209800Y-48822149D01*
X109246800Y-49663149D02*
X106329800Y-49663149D01*
X111838800Y-52463149D02*
X108734800Y-52463149D01*
X109246800Y-50143149D02*
X106481800Y-50143149D01*
X113341800Y-51383149D02*
X107231800Y-51383149D01*
X109246800Y-50583149D02*
X106680800Y-50583149D01*
X113870800Y-50623149D02*
X111326800Y-50623149D01*
X113376800Y-51343149D02*
X107196800Y-51343149D01*
X109246800Y-50743149D02*
X106769800Y-50743149D01*
X114076800Y-50183149D02*
X111326800Y-50183149D01*
X114338800Y-49142149D02*
X111326800Y-49142149D01*
X112842800Y-51863149D02*
X107730800Y-51863149D01*
X114351800Y-49022149D02*
X111326800Y-49022149D01*
X113678800Y-50943149D02*
X111326800Y-50943149D01*
X114366800Y-48702149D02*
X106206800Y-48702149D01*
X109246800Y-49222149D02*
X106244800Y-49222149D01*
X114163800Y-49943149D02*
X111326800Y-49943149D01*
X109246800Y-50503149D02*
X106639800Y-50503149D01*
X114366800Y-48742149D02*
X106206800Y-48742149D01*
X112320800Y-52223149D02*
X108252800Y-52223149D01*
X114288800Y-49463149D02*
X111326800Y-49463149D01*
X113755800Y-50823149D02*
X111326800Y-50823149D01*
X109246800Y-49182149D02*
X106238800Y-49182149D01*
X114347800Y-49062149D02*
X111326800Y-49062149D01*
X113475800Y-51223149D02*
X107097800Y-51223149D01*
X111931800Y-52423149D02*
X108641800Y-52423149D01*
X114357800Y-48942149D02*
X111326800Y-48942149D01*
X109246800Y-49022149D02*
X106221800Y-49022149D01*
X109246800Y-50543149D02*
X106659800Y-50543149D01*
X109246800Y-49423149D02*
X106276800Y-49423149D01*
X113990800Y-50383149D02*
X111326800Y-50383149D01*
X113001800Y-44652451D02*
X112201800Y-44652451D01*
X114060800Y-50223149D02*
X111326800Y-50223149D01*
X113070800Y-51663149D02*
X107502800Y-51663149D01*
X111054800Y-52703149D02*
X109518800Y-52703149D01*
X112631800Y-52023149D02*
X107941800Y-52023149D01*
X109246800Y-50103149D02*
X106465800Y-50103149D01*
X114303800Y-49383149D02*
X111326800Y-49383149D01*
X113442800Y-51263149D02*
X107130800Y-51263149D01*
X112452800Y-52143149D02*
X108120800Y-52143149D01*
X113779800Y-50783149D02*
X111326800Y-50783149D01*
X114200800Y-49823149D02*
X111326800Y-49823149D01*
X113952800Y-50463149D02*
X111326800Y-50463149D01*
X114296800Y-49423149D02*
X111326800Y-49423149D01*
X109246800Y-50303149D02*
X106546800Y-50303149D01*
X112017800Y-52383149D02*
X108555800Y-52383149D01*
X113730800Y-50863149D02*
X111326800Y-50863149D01*
X111384800Y-52623149D02*
X109188800Y-52623149D01*
X109246800Y-50223149D02*
X106512800Y-50223149D01*
X113305800Y-51423149D02*
X107267800Y-51423149D01*
X113231800Y-51503149D02*
X107341800Y-51503149D01*
X109246800Y-50783149D02*
X106793800Y-50783149D01*
X112791800Y-51903149D02*
X107781800Y-51903149D01*
X113826800Y-50703149D02*
X111326800Y-50703149D01*
X114271800Y-49543149D02*
X111326800Y-49543149D01*
X112601800Y-44252451D02*
X112601800Y-45052451D01*
X112983800Y-51743149D02*
X107589800Y-51743149D01*
X113803800Y-50743149D02*
X111326800Y-50743149D01*
X114026800Y-50303149D02*
X111326800Y-50303149D01*
X113972800Y-50423149D02*
X111326800Y-50423149D01*
X114107800Y-50103149D02*
X111326800Y-50103149D01*
X109246800Y-49383149D02*
X106269800Y-49383149D01*
X109246800Y-49943149D02*
X106409800Y-49943149D01*
X109246800Y-50463149D02*
X106620800Y-50463149D01*
X112890800Y-51823149D02*
X107682800Y-51823149D01*
X109246800Y-48982149D02*
X106218800Y-48982149D01*
X109246800Y-49783149D02*
X106361800Y-49783149D01*
X111234800Y-52663149D02*
X109338800Y-52663149D01*
X109246800Y-50383149D02*
X106582800Y-50383149D01*
X113704800Y-50903149D02*
X111326800Y-50903149D01*
X114233800Y-49703149D02*
X111326800Y-49703149D01*
X114222800Y-49743149D02*
X111326800Y-49743149D01*
X112686800Y-51983149D02*
X107886800Y-51983149D01*
X109246800Y-49142149D02*
X106234800Y-49142149D01*
X114366800Y-48662149D02*
X106206800Y-48662149D01*
X109246800Y-50623149D02*
X106702800Y-50623149D01*
X114091800Y-50143149D02*
X111326800Y-50143149D01*
X111739800Y-52503149D02*
X108833800Y-52503149D01*
X109246800Y-49903149D02*
X106397800Y-49903149D01*
X109246800Y-49342149D02*
X106262800Y-49342149D01*
X114175800Y-49903149D02*
X111326800Y-49903149D01*
X113027800Y-51703149D02*
X107545800Y-51703149D01*
X109246800Y-50863149D02*
X106842800Y-50863149D01*
X109246800Y-49302149D02*
X106256800Y-49302149D01*
X111515800Y-52583149D02*
X109057800Y-52583149D01*
X114149800Y-49983149D02*
X111326800Y-49983149D01*
X114008800Y-50343149D02*
X111326800Y-50343149D01*
X114328800Y-49222149D02*
X111326800Y-49222149D01*
X114406800Y-48662149D02*
G75*
G03*
X114406800Y-48662149I-4120000J0D01*
G01*
%TO.C,R24*%
X148381100Y-68122800D02*
X147611100Y-68122800D01*
X141071100Y-66752800D02*
X141071100Y-69492800D01*
X147611100Y-69492800D02*
X147611100Y-66752800D01*
X140301100Y-68122800D02*
X141071100Y-68122800D01*
X141071100Y-69492800D02*
X147611100Y-69492800D01*
X147611100Y-66752800D02*
X141071100Y-66752800D01*
%TO.C,Q4*%
X154353700Y-80055600D02*
X150863700Y-80055600D01*
X154353700Y-88295600D02*
X150863700Y-88295600D01*
X154353700Y-82575600D02*
X153283700Y-82575600D01*
X151183700Y-82575600D02*
X150863700Y-82575600D01*
X154353700Y-85776600D02*
X152773700Y-85776600D01*
X154353700Y-80055600D02*
X154353700Y-88295600D01*
X150863700Y-80055600D02*
X150863700Y-88295600D01*
X151693700Y-85776600D02*
X150863700Y-85776600D01*
%TO.C,U1*%
X127454000Y-78051000D02*
X127454000Y-78501000D01*
X127904000Y-85271000D02*
X127454000Y-85271000D01*
X127454000Y-78501000D02*
X126164000Y-78501000D01*
X134224000Y-78051000D02*
X134674000Y-78051000D01*
X127904000Y-78051000D02*
X127454000Y-78051000D01*
X134224000Y-85271000D02*
X134674000Y-85271000D01*
X134674000Y-78051000D02*
X134674000Y-78501000D01*
X127454000Y-85271000D02*
X127454000Y-84821000D01*
X134674000Y-85271000D02*
X134674000Y-84821000D01*
%TO.C,D9*%
X159027600Y-97431200D02*
X159027600Y-94491200D01*
X159147600Y-97431200D02*
X159147600Y-94491200D01*
X160047600Y-94491200D02*
X154607600Y-94491200D01*
X160047600Y-97431200D02*
X160047600Y-94491200D01*
X154607600Y-94491200D02*
X154607600Y-97431200D01*
X154607600Y-97431200D02*
X160047600Y-97431200D01*
X161067600Y-95961200D02*
X160047600Y-95961200D01*
X153587600Y-95961200D02*
X154607600Y-95961200D01*
X159267600Y-97431200D02*
X159267600Y-94491200D01*
%TO.C,R13*%
X148312000Y-93167200D02*
X147542000Y-93167200D01*
X141002000Y-94537200D02*
X147542000Y-94537200D01*
X140232000Y-93167200D02*
X141002000Y-93167200D01*
X147542000Y-94537200D02*
X147542000Y-91797200D01*
X147542000Y-91797200D02*
X141002000Y-91797200D01*
X141002000Y-91797200D02*
X141002000Y-94537200D01*
%TO.C,D13*%
X155711800Y-91504000D02*
X155711800Y-91660000D01*
X155711800Y-89188000D02*
X155711800Y-89344000D01*
X158312930Y-89344163D02*
G75*
G03*
X156230839Y-89344000I-1041130J-1079837D01*
G01*
X155711800Y-91659516D02*
G75*
G03*
X158944135Y-91502608I1560000J1235516D01*
G01*
X158944135Y-89345392D02*
G75*
G03*
X155711800Y-89188484I-1672335J-1078608D01*
G01*
X156230839Y-91504000D02*
G75*
G03*
X158312930Y-91503837I1040961J1080000D01*
G01*
%TO.C,Q5*%
X133222800Y-95075600D02*
X133222800Y-98675600D01*
X137672801Y-96875600D02*
G75*
G03*
X133234322Y-95037122I-2600001J0D01*
G01*
X133234322Y-98714078D02*
G75*
G03*
X137672800Y-96875600I1838478J1838478D01*
G01*
%TO.C,RV3*%
X169153800Y-38970200D02*
X169153800Y-42075200D01*
X169153800Y-42075200D02*
X176103800Y-42075200D01*
X169153800Y-37335200D02*
X169153800Y-37980200D01*
X176103800Y-37335200D02*
X176103800Y-37980200D01*
X176103800Y-38970200D02*
X176103800Y-42075200D01*
X169153800Y-37335200D02*
X176103800Y-37335200D01*
%TO.C,R3*%
X131418000Y-40354000D02*
X131418000Y-33814000D01*
X130048000Y-33044000D02*
X130048000Y-33814000D01*
X131418000Y-33814000D02*
X128678000Y-33814000D01*
X128678000Y-33814000D02*
X128678000Y-40354000D01*
X130048000Y-41124000D02*
X130048000Y-40354000D01*
X128678000Y-40354000D02*
X131418000Y-40354000D01*
%TO.C,D7*%
X155813400Y-107780800D02*
X155813400Y-107936800D01*
X155813400Y-110096800D02*
X155813400Y-110252800D01*
X158414530Y-107936963D02*
G75*
G03*
X156332439Y-107936800I-1041130J-1079837D01*
G01*
X159045735Y-107938192D02*
G75*
G03*
X155813400Y-107781284I-1672335J-1078608D01*
G01*
X156332439Y-110096800D02*
G75*
G03*
X158414530Y-110096637I1040961J1080000D01*
G01*
X155813400Y-110252316D02*
G75*
G03*
X159045735Y-110095408I1560000J1235516D01*
G01*
%TO.C,J3*%
X96286500Y-106650500D02*
X96286500Y-107150500D01*
X100936500Y-101570500D02*
X100936500Y-102320500D01*
X96636500Y-101570500D02*
X96286500Y-101570500D01*
X101796500Y-108550500D02*
X101796500Y-98170500D01*
X95286500Y-107400500D02*
X95286500Y-104400500D01*
X94326500Y-108550500D02*
X101796500Y-108550500D01*
X95186500Y-108940500D02*
X93936500Y-108940500D01*
X96286500Y-105150500D02*
X96636500Y-105150500D01*
X96286500Y-107150500D02*
X95286500Y-107400500D01*
X96636500Y-100070500D02*
X96636500Y-99320500D01*
X95286500Y-99320500D02*
X96286500Y-99570500D01*
X100936500Y-99320500D02*
X100936500Y-100070500D01*
X96286500Y-101570500D02*
X96286500Y-102070500D01*
X101796500Y-98170500D02*
X94326500Y-98170500D01*
X100936500Y-106650500D02*
X100936500Y-107400500D01*
X96636500Y-107400500D02*
X96636500Y-106650500D01*
X96636500Y-106650500D02*
X96286500Y-106650500D01*
X96636500Y-104400500D02*
X100936500Y-104400500D01*
X96636500Y-99320500D02*
X100936500Y-99320500D01*
X95286500Y-104400500D02*
X96286500Y-104650500D01*
X100936500Y-102320500D02*
X96636500Y-102320500D01*
X100936500Y-107400500D02*
X96636500Y-107400500D01*
X93936500Y-108940500D02*
X93936500Y-106940500D01*
X96286500Y-104650500D02*
X96286500Y-105150500D01*
X96286500Y-102070500D02*
X95286500Y-102320500D01*
X96286500Y-100070500D02*
X96636500Y-100070500D01*
X96636500Y-105150500D02*
X96636500Y-104400500D01*
X94326500Y-98170500D02*
X94326500Y-108550500D01*
X95286500Y-102320500D02*
X95286500Y-99320500D01*
X96636500Y-102320500D02*
X96636500Y-101570500D01*
X100936500Y-104400500D02*
X100936500Y-105150500D01*
X96286500Y-99570500D02*
X96286500Y-100070500D01*
X100936345Y-105150853D02*
G75*
G03*
X100936500Y-106650500I1700155J-749647D01*
G01*
X100936345Y-100070853D02*
G75*
G03*
X100936500Y-101570500I1700155J-749647D01*
G01*
%TO.C,U17*%
X142921400Y-57897800D02*
X142921400Y-63097800D01*
X144171400Y-57897800D02*
X142921400Y-57897800D01*
X147421400Y-63097800D02*
X147421400Y-57897800D01*
X147421400Y-57897800D02*
X146171400Y-57897800D01*
X142921400Y-63097800D02*
X147421400Y-63097800D01*
X144171400Y-57897800D02*
G75*
G03*
X146171400Y-57897800I1000000J0D01*
G01*
%TO.C,U2*%
X126678000Y-42066000D02*
X126678000Y-43166000D01*
X117228000Y-42066000D02*
X118178000Y-42066000D01*
X118178000Y-42066000D02*
X118178000Y-47191000D01*
X117228000Y-40566000D02*
X117228000Y-42066000D01*
X127628000Y-40566000D02*
X127628000Y-42066000D01*
X127628000Y-42066000D02*
X126678000Y-42066000D01*
%TO.C,D14*%
X154607600Y-78889200D02*
X160047600Y-78889200D01*
X154607600Y-75949200D02*
X154607600Y-78889200D01*
X160047600Y-75949200D02*
X154607600Y-75949200D01*
X159147600Y-78889200D02*
X159147600Y-75949200D01*
X160047600Y-78889200D02*
X160047600Y-75949200D01*
X161067600Y-77419200D02*
X160047600Y-77419200D01*
X153587600Y-77419200D02*
X154607600Y-77419200D01*
X159027600Y-78889200D02*
X159027600Y-75949200D01*
X159267600Y-78889200D02*
X159267600Y-75949200D01*
%TO.C,D8*%
X159318400Y-116278000D02*
X159318400Y-113338000D01*
X161118400Y-114808000D02*
X160098400Y-114808000D01*
X159078400Y-116278000D02*
X159078400Y-113338000D01*
X154658400Y-113338000D02*
X154658400Y-116278000D01*
X160098400Y-116278000D02*
X160098400Y-113338000D01*
X153638400Y-114808000D02*
X154658400Y-114808000D01*
X160098400Y-113338000D02*
X154658400Y-113338000D01*
X159198400Y-116278000D02*
X159198400Y-113338000D01*
X154658400Y-116278000D02*
X160098400Y-116278000D01*
%TO.C,R19*%
X145320000Y-110082000D02*
X151860000Y-110082000D01*
X152630000Y-108712000D02*
X151860000Y-108712000D01*
X151860000Y-107342000D02*
X145320000Y-107342000D01*
X151860000Y-110082000D02*
X151860000Y-107342000D01*
X144550000Y-108712000D02*
X145320000Y-108712000D01*
X145320000Y-107342000D02*
X145320000Y-110082000D01*
%TO.C,RN2*%
X116141000Y-123314000D02*
X103101000Y-123314000D01*
X116141000Y-126114000D02*
X116141000Y-123314000D01*
X103101000Y-126114000D02*
X116141000Y-126114000D01*
X103101000Y-123314000D02*
X103101000Y-126114000D01*
X113431000Y-126114000D02*
X113431000Y-123314000D01*
%TO.C,U5*%
X105990000Y-92731000D02*
X105990000Y-97231000D01*
X111190000Y-97231000D02*
X111190000Y-95981000D01*
X111190000Y-93981000D02*
X111190000Y-92731000D01*
X105990000Y-97231000D02*
X111190000Y-97231000D01*
X111190000Y-92731000D02*
X105990000Y-92731000D01*
X111190000Y-93981000D02*
G75*
G03*
X111190000Y-95981000I0J-1000000D01*
G01*
%TO.C,R16*%
X148413600Y-123952000D02*
X147643600Y-123952000D01*
X140333600Y-123952000D02*
X141103600Y-123952000D01*
X147643600Y-125322000D02*
X147643600Y-122582000D01*
X141103600Y-125322000D02*
X147643600Y-125322000D01*
X147643600Y-122582000D02*
X141103600Y-122582000D01*
X141103600Y-122582000D02*
X141103600Y-125322000D01*
%TO.C,R27*%
X140951200Y-85345600D02*
X140951200Y-88085600D01*
X140181200Y-86715600D02*
X140951200Y-86715600D01*
X147491200Y-88085600D02*
X147491200Y-85345600D01*
X140951200Y-88085600D02*
X147491200Y-88085600D01*
X148261200Y-86715600D02*
X147491200Y-86715600D01*
X147491200Y-85345600D02*
X140951200Y-85345600D01*
%TO.C,C9*%
X110728000Y-102924000D02*
X110728000Y-102909000D01*
X110728000Y-100784000D02*
X106188000Y-100784000D01*
X110728000Y-100799000D02*
X110728000Y-100784000D01*
X106188000Y-100799000D02*
X106188000Y-100784000D01*
X106188000Y-102924000D02*
X106188000Y-102909000D01*
X110728000Y-102924000D02*
X106188000Y-102924000D01*
%TO.C,U18*%
X144069800Y-76541400D02*
X142819800Y-76541400D01*
X147319800Y-81741400D02*
X147319800Y-76541400D01*
X142819800Y-76541400D02*
X142819800Y-81741400D01*
X147319800Y-76541400D02*
X146069800Y-76541400D01*
X142819800Y-81741400D02*
X147319800Y-81741400D01*
X144069800Y-76541400D02*
G75*
G03*
X146069800Y-76541400I1000000J0D01*
G01*
%TO.C,R4*%
X97255000Y-118967000D02*
X97255000Y-112427000D01*
X97255000Y-112427000D02*
X94515000Y-112427000D01*
X95885000Y-111657000D02*
X95885000Y-112427000D01*
X95885000Y-119737000D02*
X95885000Y-118967000D01*
X94515000Y-112427000D02*
X94515000Y-118967000D01*
X94515000Y-118967000D02*
X97255000Y-118967000D01*
%TO.C,J4*%
X94184000Y-94428000D02*
X96184000Y-94428000D01*
X95644000Y-75438000D02*
X95144000Y-75138000D01*
X95144000Y-75138000D02*
X95144000Y-75738000D01*
X101294000Y-71728000D02*
X94794000Y-71728000D01*
X95144000Y-75738000D02*
X95644000Y-75438000D01*
X101294000Y-96648000D02*
X94794000Y-96648000D01*
X94184000Y-96038000D02*
X94184000Y-94428000D01*
X94184000Y-72338000D02*
X94184000Y-73948000D01*
X96184000Y-73948000D02*
X96184000Y-94428000D01*
X101904000Y-72338000D02*
X101904000Y-96038000D01*
X94184000Y-73948000D02*
X96184000Y-73948000D01*
X94184000Y-96038000D02*
G75*
G03*
X94794000Y-96648000I610000J0D01*
G01*
X101904000Y-72338000D02*
G75*
G03*
X101294000Y-71728000I-610000J0D01*
G01*
X94794000Y-71728000D02*
G75*
G03*
X94184000Y-72338000I0J-610000D01*
G01*
X101294000Y-96648000D02*
G75*
G03*
X101904000Y-96038000I0J610000D01*
G01*
%TO.C,Q2*%
X154602200Y-98699200D02*
X154602200Y-106939200D01*
X151942200Y-104420200D02*
X151112200Y-104420200D01*
X154602200Y-98699200D02*
X151112200Y-98699200D01*
X151432200Y-101219200D02*
X151112200Y-101219200D01*
X154602200Y-106939200D02*
X151112200Y-106939200D01*
X154602200Y-104420200D02*
X153022200Y-104420200D01*
X154602200Y-101219200D02*
X153532200Y-101219200D01*
X151112200Y-98699200D02*
X151112200Y-106939200D01*
%TO.C,RN1*%
X102740000Y-87399000D02*
X105540000Y-87399000D01*
X105540000Y-77069000D02*
X102740000Y-77069000D01*
X102740000Y-74359000D02*
X102740000Y-87399000D01*
X105540000Y-87399000D02*
X105540000Y-74359000D01*
X105540000Y-74359000D02*
X102740000Y-74359000D01*
%TO.C,R8*%
X103405000Y-112427000D02*
X103405000Y-118967000D01*
X103405000Y-118967000D02*
X106145000Y-118967000D01*
X104775000Y-111657000D02*
X104775000Y-112427000D01*
X106145000Y-112427000D02*
X103405000Y-112427000D01*
X104775000Y-119737000D02*
X104775000Y-118967000D01*
X106145000Y-118967000D02*
X106145000Y-112427000D01*
%TO.C,Q3*%
X154468100Y-69702800D02*
X150978100Y-69702800D01*
X151298100Y-63982800D02*
X150978100Y-63982800D01*
X154468100Y-67183800D02*
X152888100Y-67183800D01*
X151808100Y-67183800D02*
X150978100Y-67183800D01*
X150978100Y-61462800D02*
X150978100Y-69702800D01*
X154468100Y-61462800D02*
X154468100Y-69702800D01*
X154468100Y-63982800D02*
X153398100Y-63982800D01*
X154468100Y-61462800D02*
X150978100Y-61462800D01*
%TO.C,U7*%
X124395000Y-117073000D02*
X129595000Y-117073000D01*
X124395000Y-112573000D02*
X124395000Y-113823000D01*
X124395000Y-115823000D02*
X124395000Y-117073000D01*
X129595000Y-117073000D02*
X129595000Y-112573000D01*
X129595000Y-112573000D02*
X124395000Y-112573000D01*
X124395000Y-115823000D02*
G75*
G03*
X124395000Y-113823000I0J1000000D01*
G01*
%TO.C,U20*%
X157509600Y-86892600D02*
X156209600Y-86892600D01*
X156409600Y-86692600D02*
X156409600Y-81492600D01*
X184609600Y-86692600D02*
X156409600Y-86692600D01*
X184609600Y-81492600D02*
X184609600Y-86692600D01*
X156209600Y-86892600D02*
X156209600Y-85592600D01*
X156409600Y-81492600D02*
X184609600Y-81492600D01*
%TO.C,U12*%
X108458000Y-108732000D02*
X110408000Y-108732000D01*
X108458000Y-108732000D02*
X106508000Y-108732000D01*
X108458000Y-103612000D02*
X105008000Y-103612000D01*
X108458000Y-103612000D02*
X110408000Y-103612000D01*
%TO.C,R23*%
X147491200Y-73306000D02*
X140951200Y-73306000D01*
X140951200Y-76046000D02*
X147491200Y-76046000D01*
X140951200Y-73306000D02*
X140951200Y-76046000D01*
X140181200Y-74676000D02*
X140951200Y-74676000D01*
X147491200Y-76046000D02*
X147491200Y-73306000D01*
X148261200Y-74676000D02*
X147491200Y-74676000D01*
%TD*%
M02*
