M48
; DRILL file {KiCad (6.0.8)} date Wed Jul 19 02:04:14 2023
; FORMAT={-:-/ absolute / inch / decimal}
; #@! TF.CreationDate,2023-07-19T02:04:14+05:30
; #@! TF.GenerationSoftware,Kicad,Pcbnew,(6.0.8)
; #@! TF.FileFunction,Plated,1,2,PTH
FMAT,2
INCH
; #@! TA.AperFunction,Plated,PTH,ViaDrill
T1C0.0157
; #@! TA.AperFunction,Plated,PTH,ComponentDrill
T2C0.0236
; #@! TA.AperFunction,Plated,PTH,ComponentDrill
T3C0.0295
; #@! TA.AperFunction,Plated,PTH,ComponentDrill
T4C0.0315
; #@! TA.AperFunction,Plated,PTH,ComponentDrill
T5C0.0354
; #@! TA.AperFunction,Plated,PTH,ComponentDrill
T6C0.0394
; #@! TA.AperFunction,Plated,PTH,ComponentDrill
T7C0.0433
; #@! TA.AperFunction,Plated,PTH,ComponentDrill
T8C0.0472
; #@! TA.AperFunction,Plated,PTH,ComponentDrill
T9C0.0512
; #@! TA.AperFunction,Plated,PTH,ComponentDrill
T10C0.0669
; #@! TA.AperFunction,Plated,PTH,ComponentDrill
T11C0.0961
; #@! TA.AperFunction,Plated,PTH,ComponentDrill
T12C0.1181
%
G90
G05
T1
X4.0571Y-4.5118
X4.096Y-4.106
X4.64Y-1.25
X4.64Y-1.3
X4.64Y-1.35
X4.64Y-1.4
X4.64Y-1.45
X4.64Y-1.5
X4.64Y-1.55
X4.69Y-1.25
X4.69Y-1.56
X4.74Y-1.25
X4.74Y-1.56
X4.79Y-1.25
X4.79Y-1.56
X4.82Y-1.7674
X4.8356Y-2.8554
X4.8388Y-2.9058
X4.84Y-1.25
X4.84Y-1.56
X4.89Y-1.25
X4.89Y-1.56
X4.902Y-3.333
X4.9026Y-3.2842
X4.94Y-1.25
X4.94Y-1.56
X4.954Y-1.77
X4.984Y-3.588
X4.99Y-1.25
X4.99Y-1.3
X4.99Y-1.35
X4.99Y-1.4
X4.99Y-1.45
X4.99Y-1.5
X4.99Y-1.56
X5.02Y-2.44
X5.062Y-2.9469
X5.063Y-3.255
X5.065Y-2.44
X5.08Y-3.186
X5.091Y-3.481
X5.096Y-3.5461
X5.144Y-3.546
X5.148Y-3.225
X5.229Y-3.3262
X5.254Y-3.1413
X5.2712Y-3.1879
X5.3233Y-2.9798
X5.4176Y-3.2266
T2
X6.9816Y-2.2999
X6.9816Y-3.0099
X6.9816Y-3.7519
X6.9816Y-4.5159
X7.1784Y-2.2999
X7.1784Y-3.0099
X7.1784Y-3.7519
X7.1784Y-4.5159
T3
X5.3178Y-3.764
X5.3178Y-3.814
X5.3178Y-3.864
T4
X3.775Y-4.355
X3.775Y-4.755
X3.8998Y-4.3706
X3.8998Y-4.6706
X3.9998Y-4.3706
X3.9998Y-4.6706
X4.09Y-1.7956
X4.09Y-1.9924
X4.1Y-2.465
X4.1Y-2.865
X4.1Y-2.9842
X4.1Y-3.0842
X4.1Y-3.1842
X4.1Y-3.2842
X4.1Y-3.3842
X4.1Y-3.505
X4.1Y-3.905
X4.1158Y-4.91
X4.125Y-4.355
X4.125Y-4.755
X4.1716Y-4.01
X4.2158Y-4.91
X4.2248Y-2.5506
X4.2248Y-2.8506
X4.2252Y-3.5894
X4.2252Y-3.8894
X4.2498Y-4.3706
X4.2498Y-4.6706
X4.3158Y-4.91
X4.3248Y-2.5506
X4.3248Y-2.8506
X4.3252Y-3.5894
X4.3252Y-3.8894
X4.342Y-1.8666
X4.342Y-1.965
X4.3498Y-4.3706
X4.3498Y-4.6706
X4.3684Y-4.01
X4.4158Y-4.91
X4.45Y-2.465
X4.45Y-2.865
X4.45Y-3.505
X4.45Y-3.905
X4.475Y-4.355
X4.475Y-4.755
X4.5158Y-4.91
X4.5742Y-3.5874
X4.5742Y-3.8874
X4.5748Y-2.5506
X4.5748Y-2.8506
X4.5998Y-4.3706
X4.5998Y-4.6706
X4.66Y-3.0975
X4.66Y-3.2905
X4.6742Y-3.5874
X4.6742Y-3.8874
X4.6748Y-2.5506
X4.6748Y-2.8506
X4.6998Y-4.3706
X4.6998Y-4.6706
X4.7833Y-2.7579
X4.784Y-3.674
X4.825Y-4.355
X4.825Y-4.755
X4.835Y-3.0522
X4.835Y-3.1507
X4.835Y-3.2372
X4.835Y-3.3357
X4.9236Y-2.867
X4.9498Y-4.3706
X4.9498Y-4.6706
X5.0498Y-4.3706
X5.0498Y-4.6706
X5.1076Y-2.249
X5.12Y-1.26
X5.12Y-1.66
X5.1204Y-2.867
X5.155Y-2.4526
X5.155Y-2.6494
X5.1833Y-2.7579
X5.184Y-3.674
X5.2346Y-1.89
X5.25Y-1.26
X5.25Y-1.66
X5.3044Y-2.249
X5.333Y-1.89
X5.478Y-2.94
X5.478Y-3.292
X5.478Y-3.414
X5.48Y-3.668
X5.482Y-2.206
X5.482Y-2.558
X5.482Y-4.024
X5.482Y-4.148
X5.4827Y-2.682
X5.484Y-4.404
X5.484Y-4.758
X5.484Y-4.88
X5.5614Y-3.0658
X5.5614Y-3.1658
X5.5634Y-3.7958
X5.5634Y-3.8958
X5.5654Y-2.3318
X5.5654Y-2.4318
X5.5674Y-4.5298
X5.5674Y-4.6298
X5.644Y-3.546
X5.646Y-2.814
X5.65Y-4.28
X5.65Y-5.0147
X5.8614Y-3.0658
X5.8614Y-3.1658
X5.8634Y-3.7958
X5.8634Y-3.8958
X5.8654Y-2.3318
X5.8654Y-2.4318
X5.8674Y-4.5298
X5.8674Y-4.6298
X5.878Y-2.94
X5.878Y-3.292
X5.878Y-3.414
X5.88Y-3.668
X5.882Y-2.206
X5.882Y-2.558
X5.882Y-4.024
X5.882Y-4.148
X5.8827Y-2.682
X5.884Y-4.404
X5.884Y-4.758
X5.884Y-4.88
X6.044Y-3.546
X6.046Y-2.814
X6.05Y-4.28
X6.05Y-5.0147
X6.6964Y-1.5148
X6.7964Y-1.6148
X6.8964Y-1.5148
X7.164Y-1.702
X7.564Y-1.702
T5
X6.1418Y-3.56
X6.1438Y-2.828
X6.1458Y-4.292
X6.15Y-5.03
X6.2418Y-3.56
X6.2438Y-2.828
X6.2458Y-4.292
X6.25Y-5.03
X7.214Y-1.8182
X7.214Y-1.9182
T6
X3.86Y-2.97
X3.86Y-3.0684
X3.86Y-3.1669
X3.86Y-3.2653
X3.86Y-3.3637
X3.86Y-3.4621
X3.86Y-3.5606
X3.86Y-3.659
X4.848Y-5.024
X4.8524Y-4.014
X4.948Y-5.024
X5.048Y-5.024
X5.148Y-5.024
X5.1516Y-4.014
X5.2028Y-4.3689
X5.2028Y-4.4689
X5.2028Y-4.5689
X5.2028Y-4.6689
X5.248Y-5.024
X5.496Y-1.318
X5.596Y-1.318
X5.696Y-1.318
X5.796Y-1.318
X5.896Y-1.318
X5.9935Y-3.214
X5.9935Y-3.314
X5.9935Y-3.414
X5.996Y-1.318
X5.998Y-2.482
X5.998Y-2.582
X5.998Y-2.682
X6.0032Y-3.948
X6.0032Y-4.048
X6.0032Y-4.148
X6.0032Y-4.68
X6.0032Y-4.78
X6.0032Y-4.88
X6.096Y-1.318
X6.196Y-1.318
X6.2038Y-3.9955
X6.2038Y-4.7265
X6.2051Y-2.5295
X6.2051Y-3.2635
X6.296Y-1.318
X6.3514Y-3.9955
X6.3514Y-4.7265
X6.3527Y-2.5295
X6.3527Y-3.2635
X6.396Y-1.318
X6.496Y-1.318
X6.596Y-1.318
X6.696Y-1.318
X6.796Y-1.318
X6.896Y-1.318
X6.996Y-1.318
T7
X4.022Y-2.17
X4.11Y-1.27
X4.11Y-1.67
X4.24Y-1.27
X4.24Y-1.67
X4.37Y-1.27
X4.37Y-1.67
X4.422Y-2.17
X4.5Y-1.27
X4.5Y-1.67
X5.9927Y-2.31
X5.994Y-3.048
X5.994Y-3.778
X5.996Y-4.52
X6.3927Y-2.31
X6.394Y-3.048
X6.394Y-3.778
X6.396Y-4.52
T8
X3.8348Y-1.6087
X3.8348Y-1.8087
X3.8892Y-3.9693
X3.8892Y-4.1693
X7.431Y-3.001
X7.431Y-3.201
X7.431Y-3.401
X7.431Y-3.601
X7.431Y-3.801
X7.431Y-4.001
T9
X6.7944Y-3.9955
X6.7944Y-4.7265
X6.7957Y-2.5295
X6.7957Y-3.2635
X6.9912Y-3.9955
X6.9912Y-4.7265
X6.9925Y-2.5295
X6.9925Y-3.2635
X7.1881Y-3.9955
X7.1881Y-4.7265
X7.1894Y-2.5295
X7.1894Y-3.2635
T10
X7.466Y-2.1312
X7.466Y-2.5088
T11
X7.466Y-1.8651
X7.466Y-2.7749
T12
X3.8297Y-4.999
X3.83Y-1.34
X7.4882Y-1.3396
X7.4882Y-4.998
T0
M30
