%TF.GenerationSoftware,KiCad,Pcbnew,(6.0.8)*%
%TF.CreationDate,2023-07-19T02:04:09+05:30*%
%TF.ProjectId,STM32DryerPCB_V2,53544d33-3244-4727-9965-725043425f56,rev?*%
%TF.SameCoordinates,Original*%
%TF.FileFunction,Profile,NP*%
%FSLAX46Y46*%
G04 Gerber Fmt 4.6, Leading zero omitted, Abs format (unit mm)*
G04 Created by KiCad (PCBNEW (6.0.8)) date 2023-07-19 02:04:09*
%MOMM*%
%LPD*%
G01*
G04 APERTURE LIST*
%TA.AperFunction,Profile*%
%ADD10C,0.100000*%
%TD*%
G04 APERTURE END LIST*
D10*
X168234000Y-124104400D02*
G75*
G03*
X169234000Y-124104400I500000J0D01*
G01*
X169234000Y-62610800D02*
G75*
G03*
X168234000Y-62610800I-500000J0D01*
G01*
X169234000Y-124104400D02*
X169234000Y-62610800D01*
X168234000Y-62610800D02*
X168234000Y-124104400D01*
X93726000Y-30480000D02*
X193726000Y-30480000D01*
X193726000Y-30480000D02*
X193726000Y-130480000D01*
X193726000Y-130480000D02*
X93726000Y-130480000D01*
X93726000Y-130480000D02*
X93726000Y-30480000D01*
%TO.C,RV2*%
X180571744Y-93424400D02*
X180571744Y-97174400D01*
X179071744Y-97174400D02*
X179071744Y-93424400D01*
X179071744Y-97174400D02*
G75*
G03*
X180571744Y-97174400I750000J-20946D01*
G01*
X180571744Y-93424400D02*
G75*
G03*
X179071744Y-93424400I-750000J-76D01*
G01*
%TO.C,RV4*%
X180571744Y-56543600D02*
X180571744Y-60293600D01*
X179071744Y-60293600D02*
X179071744Y-56543600D01*
X179071744Y-60293600D02*
G75*
G03*
X180571744Y-60293600I750000J-20946D01*
G01*
X180571744Y-56543600D02*
G75*
G03*
X179071744Y-56543600I-750000J-76D01*
G01*
%TO.C,RV1*%
X180571744Y-112830000D02*
X180571744Y-116580000D01*
X179071744Y-116580000D02*
X179071744Y-112830000D01*
X179071744Y-116580000D02*
G75*
G03*
X180571744Y-116580000I750000J-20946D01*
G01*
X180571744Y-112830000D02*
G75*
G03*
X179071744Y-112830000I-750000J-76D01*
G01*
%TO.C,RV5*%
X180571744Y-74577600D02*
X180571744Y-78327600D01*
X179071744Y-78327600D02*
X179071744Y-74577600D01*
X179071744Y-78327600D02*
G75*
G03*
X180571744Y-78327600I750000J-20946D01*
G01*
X180571744Y-74577600D02*
G75*
G03*
X179071744Y-74577600I-750000J-76D01*
G01*
%TD*%
M02*
